<svg width="44" height="44" viewBox="0 0 44 44" fill="none" xmlns="http://www.w3.org/2000/svg">
<circle cx="22" cy="22" r="22" fill="#084C3F" fill-opacity="0.2"/>
<path d="M38 22C38 30.8366 30.8366 38 22 38C13.1634 38 6 30.8366 6 22C6 13.1634 13.1634 6 22 6C30.8366 6 38 13.1634 38 22Z" fill="#084C3F"/>
<path d="M28 21.1364C28 25.9091 22 30 22 30C22 30 16 25.9091 16 21.1364C16 19.5089 16.6321 17.9481 17.7574 16.7973C18.8826 15.6465 20.4087 15 22 15C23.5913 15 25.1174 15.6465 26.2426 16.7973C27.3679 17.9481 28 19.5089 28 21.1364Z" fill="white"/>
<path d="M22 23C23.1046 23 24 22.1046 24 21C24 19.8954 23.1046 19 22 19C20.8954 19 20 19.8954 20 21C20 22.1046 20.8954 23 22 23Z" fill="#084C3F"/>
</svg>
