<svg width="95" height="75" viewBox="0 0 95 75" fill="none" xmlns="http://www.w3.org/2000/svg">
<path fill-rule="evenodd" clip-rule="evenodd" d="M5.80696 1.47168C3.77202 2.35798 1.92791 4.18736 0.942907 6.29698L0.00200781 8.31225L3.29521e-06 32.0989C-0.000798494 47.7778 0.144726 56.4109 0.427357 57.4268C0.869544 59.0147 3.72672 62.4819 4.59305 62.4819C4.86165 62.4819 5.40366 62.1269 5.79774 61.6928C6.46884 60.9532 6.47205 60.8461 5.84665 59.9937C5.47943 59.4932 4.73417 58.4726 4.19015 57.7254L3.20115 56.367V36.4373V16.5077H47.5H91.7989V36.4373V56.367L90.8098 57.7254C90.2658 58.4726 89.5206 59.4932 89.1534 59.9937C88.528 60.8461 88.5312 60.9532 89.2023 61.6928C89.5963 62.1269 90.1383 62.4819 90.4069 62.4819C91.2733 62.4819 94.1305 59.0147 94.5726 57.4268C94.8553 56.4109 95.0008 47.7778 95 32.0989L94.998 8.31225L94.0571 6.29698C93.0508 4.14218 91.1971 2.3296 89.1056 1.45528C87.2291 0.671324 7.60898 0.686515 5.80696 1.47168ZM88.5496 4.71426C90.8167 6.04552 91.5539 7.39236 91.7315 10.5238L91.8895 13.3095H47.5453H3.20115L3.20195 11.0107C3.20275 7.19527 5.00718 4.74105 8.28649 4.09621C9.12757 3.9307 27.2248 3.82196 48.5022 3.85514C86.4116 3.91351 87.2158 3.9307 88.5496 4.71426ZM7.04813 7.43514C6.60795 7.75616 6.38545 8.33384 6.47044 8.9343C6.60194 9.86418 6.74385 9.91135 9.41501 9.91135C12.0862 9.91135 12.2281 9.86418 12.3596 8.9343C12.4446 8.33384 12.2221 7.75616 11.7819 7.43514C10.8582 6.76152 7.97179 6.76152 7.04813 7.43514ZM15.066 7.43514C14.6258 7.75616 14.4033 8.33384 14.4883 8.9343C14.6198 9.86418 14.7617 9.91135 17.4329 9.91135C20.1041 9.91135 20.246 9.86418 20.3775 8.9343C20.4625 8.33384 20.24 7.75616 19.7998 7.43514C18.8761 6.76152 15.9897 6.76152 15.066 7.43514ZM22.673 7.54108C21.134 9.07622 22.2813 10.1112 25.5234 10.1112C27.9143 10.1112 28.055 10.0577 28.3084 9.04944C28.5052 8.26747 28.3817 7.84651 27.8385 7.45033C26.8074 6.69835 23.4596 6.75712 22.673 7.54108ZM46.5807 23.2443C45.7605 23.7632 46.0897 30.0857 46.9652 30.6346C47.4491 30.9376 47.8083 30.908 48.2681 30.5278C49.1898 29.765 49.1902 23.4993 48.2689 23.1467C47.4491 22.8329 47.209 22.8469 46.5807 23.2443ZM36.4598 26.9306C36.05 27.6946 36.1924 28.0944 37.5626 30.0273C39.4717 32.7194 40.2182 33.2607 41.1859 32.6558C42.3706 31.915 42.1469 30.7941 40.3565 28.5009C38.4534 26.0635 37.197 25.557 36.4598 26.9306ZM54.7133 28.401C52.8355 30.7745 52.5986 31.8958 53.8141 32.6558C54.7818 33.2607 55.5283 32.7194 57.4374 30.0273C58.7888 28.1208 58.9463 27.6874 58.5531 26.955C57.7813 25.517 56.6612 25.9388 54.7133 28.401ZM43.3251 34.7842C41.2581 35.5122 38.5969 38.0184 37.4736 40.2943C36.3279 42.6155 36.3688 47.6874 37.551 49.907C38.4755 51.6424 41.7407 54.881 42.5802 54.8946C42.8604 54.899 41.954 55.4691 40.5653 56.1611C37.2708 57.803 34.0432 61.2426 32.8653 64.3669C31.1347 68.9595 31.384 72.3688 33.5769 74.089C34.5262 74.8334 35.2603 74.875 47.5 74.875C59.7397 74.875 60.4737 74.8334 61.4231 74.089C63.616 72.3688 63.8653 68.9595 62.1347 64.3669C60.9568 61.2426 57.7292 57.803 54.4347 56.1611C53.046 55.4691 52.1396 54.899 52.4198 54.8946C53.2512 54.881 56.5257 51.6452 57.3612 50.0117C58.5182 47.7506 58.7575 44.2957 57.9493 41.5233C56.2664 35.7505 49.4712 32.6194 43.3251 34.7842ZM26.9962 37.8745C26.3031 38.1751 25.0174 39.0686 24.1395 39.8594L22.5431 41.2978L19.9878 40.6414C17.9324 40.1136 17.1194 40.0733 15.8293 40.4347C11.4047 41.6748 8.46169 45.5194 8.43924 50.0889C8.42761 52.4883 9.52245 54.7547 11.5931 56.6164C12.5292 57.458 13.2335 58.1775 13.159 58.2155C13.0844 58.2531 12.3616 58.6193 11.5534 59.0287C6.89539 61.3881 3.21317 68.6449 4.77065 72.3948C5.75364 74.7607 6.39948 74.875 18.7779 74.875C29.0047 74.875 30.0563 74.8126 30.4083 74.1858C30.6536 73.7484 30.6556 73.2367 30.4139 72.7866C30.0835 72.1709 29.4325 72.0766 25.5133 72.0766C19.8603 72.0766 19.4125 71.8347 19.7533 68.9651C20.0732 66.2706 21.1805 64.2074 23.4034 62.1641C25.1946 60.5178 26.0521 60.0985 26.0521 60.8684C26.0521 61.5217 28.9851 63.2815 30.0739 63.2815C32.4949 63.2815 32.7856 61.1635 30.49 60.2476C29.4481 59.8322 28.7878 59.2573 28.5413 58.5517L28.1681 57.4847L30.8184 57.4839C34.9969 57.4823 38.9585 55.1688 37.8336 53.387C37.1774 52.348 36.228 52.324 34.8373 53.3115C32.8726 54.7067 30.4736 54.7854 27.9648 53.5369C25.2018 52.1617 24.3295 50.9076 24.1194 48.0072C23.917 45.218 24.4766 43.702 26.2967 42.1081C28.2053 40.4371 30.4343 39.911 32.9167 40.5454C34.6281 40.9828 34.9716 40.966 35.5225 40.4167C36.3531 39.5883 35.9434 38.3466 34.6449 37.7566C33.2658 37.1297 28.5445 37.2025 26.9962 37.8745ZM51.7735 38.4502C58.2019 42.5155 55.1322 52.8829 47.5 52.8829C39.8678 52.8829 36.7981 42.5155 43.2265 38.4502C44.7246 37.5023 45.4891 37.296 47.5 37.296C49.5109 37.296 50.2754 37.5023 51.7735 38.4502ZM60.4473 37.7546C59.0915 38.2491 58.6152 39.5568 59.4775 40.4167C60.0203 40.958 60.388 40.9812 62.0244 40.5762C66.6511 39.4312 70.5322 42.1697 70.8693 46.8167C71.17 50.9628 68.7534 53.9363 64.714 54.3905C63.3301 54.546 62.4626 54.3501 60.6766 53.4786C58.2307 52.2852 57.2337 52.4216 56.9996 53.9815C56.7298 55.7777 61.8308 57.9988 65.1754 57.5419L66.8941 57.3068L66.49 58.463C66.2102 59.2633 65.6012 59.8122 64.51 60.2476C62.8859 60.8956 62.4722 61.8611 63.4155 62.8018C64.4911 63.8744 67.5223 62.8329 68.6672 60.9972C69.1748 60.1832 69.6454 60.3707 71.5966 62.1641C73.8195 64.2074 74.9268 66.2706 75.2467 68.9651C75.5875 71.8347 75.1397 72.0766 69.4867 72.0766C65.5675 72.0766 64.9165 72.1709 64.5861 72.7866C64.3444 73.2367 64.3464 73.7484 64.5917 74.1858C64.9437 74.8126 65.9941 74.875 76.2037 74.875C88.5753 74.875 89.2464 74.7607 90.1897 72.4895C90.87 70.8517 90.4338 67.6378 89.1794 65.0449C87.7506 62.0918 85.5088 60.0057 81.8462 58.2207C81.7745 58.1855 82.5318 57.4068 83.5288 56.4901C85.8436 54.3625 86.7768 52.035 86.4766 49.137C85.8331 42.9189 80.4527 39.0267 74.7753 40.6729L72.517 41.3274L70.7559 39.7818C69.7877 38.9319 68.2872 38.0248 67.4217 37.7662C65.5503 37.2073 61.9647 37.2013 60.4473 37.7546ZM20.5366 43.9523C20.7038 44.055 20.8405 45.4475 20.8405 47.0466C20.8405 49.3389 21.0482 50.3627 21.8235 51.8895C22.3639 52.9545 22.7127 53.9767 22.598 54.1618C22.4834 54.3465 21.6487 54.875 20.7427 55.3355C14.4166 58.5541 8.30454 49.8926 13.5567 45.1528C15.2504 43.6241 18.9671 42.9848 20.5366 43.9523ZM80.3722 44.444C82.2403 45.5186 83.3801 47.5059 83.3801 49.6891C83.3801 54.3585 78.3981 57.4424 74.2573 55.3355C73.3513 54.875 72.5058 54.3293 72.3779 54.123C72.2504 53.9167 72.5515 53.0624 73.0474 52.2245C73.7205 51.0863 74.0011 49.843 74.1543 47.3128C74.3479 44.1206 74.4177 43.9087 75.3622 43.6365C76.712 43.2475 78.9077 43.6013 80.3722 44.444ZM50.453 56.9015C49.0928 59.7095 46.3887 60.0357 44.8834 57.5739C44.45 56.8651 44.0948 56.1635 44.094 56.0144C44.0932 55.8652 45.0393 55.8393 46.1971 55.956C47.8163 56.1195 50.3259 55.7997 51.1718 55.3219C51.2071 55.3024 50.8836 56.0132 50.453 56.9015ZM25.8176 56.3278C26.279 56.5041 25.9888 56.8059 24.748 57.44C22.651 58.5118 22.2885 58.3646 23.8629 57.0818C25.2604 55.9428 25.0367 56.0287 25.8176 56.3278ZM70.9684 56.9602C72.6866 58.2267 72.4244 58.4966 70.4195 57.5255C69.3977 57.031 68.8621 56.5644 69.1166 56.3913C69.7007 55.9948 69.6298 55.9732 70.9684 56.9602ZM20.1321 59.6835C19.5921 61.2594 17.6145 61.7511 16.3621 60.621C15.0865 59.47 15.4938 59.0838 17.9833 59.0838C19.9 59.0838 20.2993 59.1954 20.1321 59.6835ZM79.3711 59.452C79.3711 60.1652 78.0341 61.2826 77.1806 61.2826C76.2008 61.2826 75.1721 60.571 74.8679 59.6835C74.7007 59.1954 75.1 59.0838 77.0167 59.0838C78.3116 59.0838 79.3711 59.2497 79.3711 59.452ZM43.0541 60.4455C45.3588 62.8445 49.4443 62.8125 52.0028 60.3751C53.2176 59.2178 53.3647 59.1762 54.3561 59.7055C57.2045 61.2254 60.1282 66.2894 60.1282 69.7027C60.1282 71.0459 59.9662 71.3582 59.0999 71.6868C58.5262 71.9043 53.3988 72.0766 47.5 72.0766C41.6012 72.0766 36.4738 71.9043 35.9001 71.6868C35.0338 71.3582 34.8718 71.0459 34.8718 69.7027C34.8718 66.9027 36.3543 63.6997 38.7228 61.3826C39.9026 60.2284 41.1089 59.2837 41.4032 59.2837C41.6971 59.2837 42.4403 59.8066 43.0541 60.4455ZM16.5068 64.2905C17.487 64.5312 17.5476 64.6519 17.1723 65.6174C16.9454 66.2015 16.6403 67.8489 16.4948 69.2781L16.2302 71.8767L12.7252 71.9922C8.12052 72.1437 7.43139 71.7895 7.75491 69.4364C8.08805 67.0142 9.24944 64.9038 11.2327 63.1168L12.9076 61.6076L14.168 62.8169C14.8612 63.4818 15.9135 64.145 16.5068 64.2905ZM83.809 63.1544C85.753 64.9058 86.914 67.0286 87.2451 69.4364C87.5686 71.7895 86.8795 72.1437 82.2748 71.9922L78.7698 71.8767L78.5064 69.2214C78.3617 67.761 78.0458 66.1987 77.8048 65.7497C77.1987 64.6203 77.2199 64.5764 78.5128 64.2933C79.1434 64.155 80.1693 63.5114 80.7931 62.8621C81.4165 62.2133 81.9826 61.6824 82.0507 61.6824C82.1193 61.6824 82.9102 62.3448 83.809 63.1544Z" fill="#084C3F"/>
</svg>
