<svg width="82" height="75" viewBox="0 0 82 75" fill="none" xmlns="http://www.w3.org/2000/svg">
<path fill-rule="evenodd" clip-rule="evenodd" d="M28.2256 0.975929C27.068 1.40205 27.1106 2.3034 28.3725 4.08072L29.3482 5.45499L28.8046 6.2679C27.4672 8.26757 26.9906 10.2302 27.108 13.2532C27.1849 15.2298 27.2671 15.6893 28.0146 18.3174C28.0905 18.584 27.5005 18.6054 18.9188 18.6492C9.75526 18.6962 9.741 18.6967 9.04211 19.0705C7.91154 19.6752 7.15264 20.4508 6.64935 21.5156L6.17823 22.5127L6.17806 43.13L6.1779 63.7473L4.81027 63.7483C3.12122 63.7493 2.35436 63.9531 1.62479 64.5944C0.962534 65.1763 0.635631 66.0314 0.751506 66.878C0.796761 67.2095 1.3463 68.8176 1.97258 70.4514C3.22019 73.7062 3.65981 74.3706 4.77082 74.6794C5.70975 74.9402 76.2704 74.9402 77.2093 74.6794C78.3425 74.3644 78.7561 73.7247 80.0709 70.2537C80.732 68.5086 81.2727 66.8504 81.2727 66.569C81.2727 65.9872 80.7975 64.9639 80.3311 64.5418C79.6946 63.9657 78.8385 63.7473 77.2166 63.7473H75.6365L75.6328 42.8811C75.6292 22.2558 75.6254 22.0062 75.2918 21.2682C74.8791 20.354 74.114 19.5318 73.2328 19.0549C72.5786 18.701 72.4442 18.6955 63.2271 18.6494L53.8843 18.6026L53.9916 18.2346C54.6996 15.8036 54.7982 15.2318 54.8695 13.1374C54.9277 11.4318 54.8815 10.6213 54.6756 9.7404C53.952 6.64324 51.8866 4.08421 48.9471 2.64224C47.1513 1.76129 45.3519 1.26283 43.1179 1.0272C41.5159 0.858282 28.6656 0.814143 28.2256 0.975929ZM45.4154 3.97884C49.9214 5.33933 52.1931 7.94184 52.3601 11.9349L52.4207 13.3863L52.1676 12.5566C51.696 11.0096 51.3769 10.4655 50.4233 9.58193C49.3384 8.57637 48.3878 8.06613 47.1043 7.80047C45.7961 7.5295 44.6468 7.82154 43.0514 8.82992C41.2785 9.95047 40.8366 9.96856 39.1767 8.98756C37.8129 8.18162 36.8063 7.9279 35.3769 8.03028C34.0991 8.12188 32.9617 8.61902 31.7716 9.60666C30.8042 10.4093 30.3218 11.2521 29.9404 12.8055L29.6347 14.05L29.5864 12.7775C29.5019 10.5442 30.0779 8.7735 31.4756 6.9703C32.3542 5.8368 32.4012 5.32639 31.7115 4.41392C31.4404 4.0555 31.2166 3.70073 31.2141 3.62573C31.2117 3.55073 34.1374 3.51854 37.7161 3.55405C43.8107 3.61478 44.2982 3.64166 45.4154 3.97884ZM47.5049 10.5835C47.7967 10.7304 48.3495 11.1537 48.7333 11.5242C49.4229 12.1898 49.4405 12.2362 50.2063 15.3997C51.0823 19.0181 51.0954 18.7974 49.8925 20.661C48.0037 23.5874 45.4734 25.5269 42.6892 26.1826C39.8804 26.8441 36.7128 25.7618 34.1929 23.2796C33.0819 22.1851 31.4539 19.8974 31.2732 19.1764C31.1797 18.8037 31.5026 17.1623 32.314 13.8841C32.7789 12.0066 33.0948 11.559 34.4238 10.8961C35.668 10.2755 36.2422 10.3459 38.1224 11.3495C39.6309 12.1546 39.8295 12.2166 40.9072 12.2206C42.2176 12.2253 42.8313 12.0215 44.1397 11.1467C44.6412 10.8115 45.1634 10.4934 45.3002 10.44C45.7975 10.2455 46.987 10.3228 47.5049 10.5835ZM30.1607 22.394C31.7072 24.7344 34.1356 26.8756 36.4187 27.9118C38.1686 28.7062 39.4835 28.9493 41.4874 28.8492C43.5251 28.7475 45.0568 28.2819 46.869 27.2136C48.2973 26.3716 50.9218 23.7861 51.9397 22.2185L52.6696 21.0946L62.3424 21.1399L72.0152 21.1852L72.5825 21.805L73.1499 22.4249V43.086V63.7473H40.9072H8.66448V43.5141C8.66448 29.5856 8.71952 23.1354 8.84136 22.8138C9.07659 22.1921 9.62961 21.6077 10.2393 21.3365C10.6339 21.161 12.6545 21.1139 20.0219 21.1087L29.3071 21.1022L30.1607 22.394ZM31.3894 29.4942C29.6377 29.8204 28.4738 30.1828 27.3225 30.7601C21.4777 33.6917 17.8103 40.7251 18.1692 48.3154C18.2244 49.4814 18.4106 50.9709 18.5946 51.7171C19.0906 53.7297 20.7083 58.1508 21.0366 58.3911C21.3633 58.6302 19.7437 58.6148 44.1033 58.6118C54.9178 58.6105 60.6689 58.5519 60.8755 58.4412C61.2095 58.2623 61.4397 57.7116 62.5076 54.538C63.4998 51.5891 63.7745 49.9816 63.7695 47.1539C63.7599 41.8301 62.0748 37.3673 58.7372 33.8257C56.8076 31.7783 54.378 30.3371 51.9582 29.8048C51.2595 29.651 50.466 29.4575 50.1949 29.3749C49.832 29.2642 48.5659 29.4084 45.3875 29.9223L41.073 30.6202L37.2602 29.994C32.3774 29.1919 32.8137 29.229 31.3894 29.4942ZM31.3081 32.3443C30.6157 34.5909 30.4196 40.6737 30.9456 43.5863C31.7188 47.8674 33.6213 51.8601 36.3818 54.9943L37.3681 56.1143H33.2943H29.2202V53.6331C29.2202 50.9762 29.1052 50.4586 28.4482 50.159C27.8611 49.8911 27.6356 49.9278 27.1159 50.375L26.6508 50.7752L26.5947 53.4499L26.5385 56.1246L24.6055 56.078L22.6722 56.0314L21.7926 53.4123C21.0613 51.2339 20.8885 50.4903 20.7672 48.9948C20.4257 44.7902 21.3618 40.8608 23.4701 37.6498C25.1877 35.0336 27.3553 33.2914 29.9324 32.4559C31.3871 31.9844 31.4199 31.9817 31.3081 32.3443ZM36.5658 32.4812L38.3581 32.7696L37.4775 33.6938C36.9933 34.2022 36.5804 34.6491 36.5598 34.6869C36.5228 34.7555 35.6922 34.0954 34.455 33.0143C33.772 32.4174 33.7534 31.9545 34.4187 32.11C34.614 32.1556 35.5801 32.3225 36.5658 32.4812ZM48.568 32.3227C48.6015 32.4249 47.9485 33.0155 47.117 33.6352L45.6052 34.7619L44.6092 33.765L43.6131 32.7679L45.6586 32.4289C47.8857 32.0597 48.4749 32.0381 48.568 32.3227ZM52.3337 32.5477C55.4124 33.6079 58.3411 36.5688 59.8692 40.1659C61.723 44.5295 61.7449 48.9737 59.9382 54.2061L59.3079 56.0314L57.3747 56.078L55.4416 56.1246L55.3854 53.4499L55.3294 50.7752L54.8642 50.375C54.3445 49.9278 54.1191 49.8911 53.5319 50.159C52.875 50.4586 52.7599 50.9762 52.7599 53.6331V56.1143H48.6829H44.6061L45.6755 54.9581C48.9201 51.4501 51.0248 46.6279 51.6164 41.3462C51.8361 39.3863 51.7184 35.5592 51.3755 33.5058C51.2575 32.7986 51.2106 32.2198 51.2713 32.2198C51.3321 32.2198 51.8102 32.3673 52.3337 32.5477ZM41.7851 34.5915L42.4835 35.3037L41.8541 35.919C41.5079 36.2573 41.1565 36.5341 41.073 36.5341C40.9894 36.5341 40.6424 36.2616 40.3016 35.9286L39.6821 35.3231L40.2733 34.6011C40.5984 34.2041 40.9143 33.8792 40.9755 33.8792C41.0367 33.8792 41.401 34.1997 41.7851 34.5915ZM49.1946 39.438C48.9084 44.9126 47.2246 49.2934 43.9521 53.0781C42.9618 54.2235 41.2346 55.7825 40.9561 55.7825C40.857 55.7825 40.0501 55.0545 39.1631 54.1646C36.1016 51.0935 34.2204 47.4363 33.4373 43.0339C33.156 41.4527 33.0756 36.5499 33.3201 35.8974C33.4617 35.5196 33.4988 35.538 34.7504 36.6026C36.1407 37.7852 36.6507 37.9401 37.444 37.4197C37.8585 37.1479 37.8757 37.1547 38.5831 37.876L39.3012 38.6083L37.9077 41.909C37.1413 43.7245 36.5142 45.4011 36.5142 45.6349C36.5142 45.9565 36.9907 46.5369 38.4697 48.0174C40.2013 49.7509 40.4898 49.9748 40.9901 49.9748C41.4904 49.9748 41.7788 49.7509 43.5105 48.0174C44.9895 46.5369 45.4659 45.9565 45.4659 45.6349C45.4659 45.4011 44.8691 43.7882 44.1397 42.0508C43.4103 40.3133 42.8136 38.8248 42.8136 38.743C42.8136 38.6612 43.1342 38.2796 43.5259 37.8946C44.1828 37.2493 44.2632 37.2139 44.562 37.4399C45.2323 37.9474 45.8436 37.7609 47.4809 36.549L49.03 35.4023L49.16 36.5076C49.2316 37.1154 49.247 38.4341 49.1946 39.438ZM41.8914 43.2719L42.6917 45.1977L41.841 46.0493L40.9901 46.901L40.1335 46.0436L39.277 45.1862L40.0841 43.2662C40.5281 42.2102 40.9362 41.3462 40.9911 41.3462C41.0459 41.3462 41.4511 42.2127 41.8914 43.2719ZM78.6734 66.5267C78.7134 66.5952 78.2583 67.902 77.6622 69.4305L76.5784 72.2099H40.9902H5.40192L4.38872 69.5965C3.83139 68.159 3.32661 66.8523 3.26693 66.6926C3.16382 66.4167 5.02395 66.4022 40.8797 66.4022C61.6262 66.4022 78.6335 66.4583 78.6734 66.5267ZM36.8746 68.4456C36.3965 68.9551 36.4153 69.6368 36.9212 70.1432L37.328 70.5506H40.9901H44.6521L45.059 70.1432C45.5811 69.6207 45.5909 68.9007 45.0823 68.4223C44.7118 68.074 44.5701 68.0616 40.9669 68.0616C37.2804 68.0616 37.2307 68.0662 36.8746 68.4456Z" fill="#084C3F"/>
</svg>
