<svg width="468" height="349" viewBox="0 0 468 349" fill="none" xmlns="http://www.w3.org/2000/svg">
<path d="M467.23 306.672H0.230469V306.905H467.23V306.672Z" fill="#EBEBEB"/>
<path d="M420.44 321.703H389.506V321.937H420.44V321.703Z" fill="#EBEBEB"/>
<path d="M309.589 324.242H301.473V324.476H309.589V324.242Z" fill="#EBEBEB"/>
<path d="M388.57 313.031H370.646V313.265H388.57V313.031Z" fill="#EBEBEB"/>
<path d="M89.5699 314.602H49.2305V314.835H89.5699V314.602Z" fill="#EBEBEB"/>
<path d="M103.801 314.602H97.8887V314.835H103.801V314.602Z" fill="#EBEBEB"/>
<path d="M210.519 318.547H123.021V318.78H210.519V318.547Z" fill="#EBEBEB"/>
<path d="M221.588 265.018H41.2418C39.829 265.016 38.4748 264.453 37.4767 263.453C36.4786 262.453 35.918 261.098 35.918 259.685V6.16925C35.9303 4.76454 36.4963 3.4214 37.4931 2.43159C38.4899 1.44177 39.837 0.885219 41.2418 0.882812H221.588C223.002 0.882813 224.359 1.4447 225.359 2.44485C226.359 3.44501 226.921 4.80151 226.921 6.21595V259.685C226.921 261.099 226.359 262.456 225.359 263.456C224.359 264.456 223.002 265.018 221.588 265.018ZM41.2418 1.06961C39.8909 1.07209 38.5962 1.61046 37.6418 2.56656C36.6875 3.52266 36.1515 4.81836 36.1515 6.16925V259.685C36.1515 261.036 36.6875 262.331 37.6418 263.288C38.5962 264.244 39.8909 264.782 41.2418 264.784H221.588C222.94 264.782 224.235 264.244 225.191 263.288C226.147 262.332 226.685 261.037 226.687 259.685V6.16925C226.685 4.8175 226.147 3.52182 225.191 2.56599C224.235 1.61016 222.94 1.07208 221.588 1.06961H41.2418Z" fill="#EBEBEB"/>
<path d="M423.624 265.018H243.269C241.855 265.016 240.5 264.453 239.5 263.453C238.501 262.454 237.938 261.099 237.936 259.685V6.16925C237.95 4.76369 238.518 3.42056 239.517 2.431C240.515 1.44145 241.863 0.885193 243.269 0.882812H423.624C425.027 0.887673 426.372 1.44531 427.367 2.43487C428.362 3.42442 428.926 4.76615 428.939 6.16925V259.685C428.939 261.096 428.379 262.45 427.383 263.449C426.387 264.449 425.035 265.013 423.624 265.018ZM243.269 1.06961C241.917 1.07208 240.621 1.61016 239.665 2.56599C238.71 3.52182 238.172 4.8175 238.169 6.16925V259.685C238.172 261.037 238.71 262.332 239.665 263.288C240.621 264.244 241.917 264.782 243.269 264.784H423.624C424.976 264.782 426.271 264.244 427.227 263.288C428.183 262.332 428.721 261.037 428.724 259.685V6.16925C428.721 4.8175 428.183 3.52182 427.227 2.56599C426.271 1.61016 424.976 1.07208 423.624 1.06961H243.269Z" fill="#EBEBEB"/>
<path d="M167.547 176.188L383.945 176.188V32.2861L167.547 32.2861L167.547 176.188Z" fill="#E6E6E6"/>
<path d="M164.193 176.188L380.592 176.188V32.2861L164.193 32.2861L164.193 176.188Z" fill="#F5F5F5"/>
<path d="M374.58 169.419V39.0234L170.202 39.0234V169.419H374.58Z" fill="white"/>
<path d="M172.742 169.435V39.0391H170.211V169.435H172.742Z" fill="#E6E6E6"/>
<path d="M166.678 137.953L378.107 137.953V128.884L166.678 128.884V137.953Z" fill="#F5F5F5"/>
<g opacity="0.4">
<path d="M177.905 25.1797H157.479V146.917H177.905V25.1797Z" fill="#E6E6E6"/>
<path d="M177.913 137.141H188.037V25.1821H177.913V137.141Z" fill="#F5F5F5"/>
<path d="M208.464 25.1797H188.037V146.917H208.464V25.1797Z" fill="#E6E6E6"/>
<path d="M208.477 137.141H218.602V25.1821H208.477V137.141Z" fill="#F5F5F5"/>
<path d="M239.028 25.1797H218.602V146.917H239.028V25.1797Z" fill="#E6E6E6"/>
<path d="M239.036 137.141H249.16V25.1821H239.036V137.141Z" fill="#F5F5F5"/>
<path d="M269.587 25.1797H249.16V146.917H269.587V25.1797Z" fill="#E6E6E6"/>
<path d="M269.594 137.141H279.719V25.1821H269.594V137.141Z" fill="#F5F5F5"/>
<path d="M300.145 25.1797H279.719V146.917H300.145V25.1797Z" fill="#E6E6E6"/>
<path d="M300.149 137.141H310.273V25.1821H300.149V137.141Z" fill="#F5F5F5"/>
<path d="M330.7 25.1797H310.273V146.917H330.7V25.1797Z" fill="#E6E6E6"/>
<path d="M330.707 137.141H340.832V25.1821H330.707V137.141Z" fill="#F5F5F5"/>
<path d="M361.259 25.1797H340.832V146.917H361.259V25.1797Z" fill="#E6E6E6"/>
<path d="M361.266 137.141H371.391V25.1821H361.266V137.141Z" fill="#F5F5F5"/>
<path d="M391.817 25.1797H371.391V146.917H391.817V25.1797Z" fill="#E6E6E6"/>
</g>
<path d="M77.558 306.672H125.463L125.463 208.228H77.558L77.558 306.672Z" fill="#EBEBEB"/>
<path d="M86.6518 306.678H77.5547V286.625H96.1973L86.6518 306.678Z" fill="#F5F5F5"/>
<path d="M350.88 306.672H398.785V208.228H350.88V306.672Z" fill="#EBEBEB"/>
<path d="M77.5556 294.375L358.82 294.375V208.232L77.5556 208.232V294.375Z" fill="#F5F5F5"/>
<path d="M349.472 270.068H266.094C265.891 270.068 265.696 269.987 265.552 269.844C265.409 269.7 265.328 269.505 265.328 269.302V214.766C265.328 214.563 265.409 214.368 265.552 214.224C265.696 214.081 265.891 214 266.094 214H281.486C281.651 213.997 281.813 214.049 281.944 214.15C284.232 215.822 286.769 217.124 289.463 218.007C292.71 219.082 296.11 219.625 299.531 219.614H316.026C322.335 219.724 328.516 217.82 333.669 214.178C333.797 214.079 333.955 214.026 334.117 214.028H349.519C349.722 214.028 349.917 214.109 350.06 214.253C350.204 214.396 350.285 214.591 350.285 214.794V269.302C350.285 269.407 350.264 269.51 350.222 269.607C350.181 269.703 350.12 269.789 350.044 269.861C349.968 269.933 349.878 269.988 349.78 270.024C349.681 270.059 349.577 270.075 349.472 270.068ZM266.86 268.536H348.706V215.56H334.323C328.961 219.297 322.561 221.257 316.026 221.164H299.531C295.945 221.175 292.38 220.604 288.977 219.473C286.215 218.567 283.607 217.244 281.243 215.551H266.86V268.536Z" fill="#E6E6E6"/>
<path d="M259.884 270.068H176.496C176.293 270.068 176.098 269.987 175.955 269.844C175.811 269.7 175.73 269.505 175.73 269.302V214.766C175.73 214.563 175.811 214.368 175.955 214.224C176.098 214.081 176.293 214 176.496 214H191.057C191.222 213.997 191.384 214.049 191.515 214.15C193.787 215.821 196.309 217.123 198.987 218.007C202.235 219.082 205.635 219.625 209.056 219.614H225.55C231.838 219.706 237.992 217.792 243.119 214.15C243.251 214.052 243.412 213.999 243.576 214H259.884C259.985 213.999 260.085 214.018 260.178 214.056C260.272 214.094 260.357 214.15 260.428 214.222C260.5 214.293 260.556 214.378 260.594 214.471C260.632 214.565 260.651 214.665 260.65 214.766V269.274C260.654 269.377 260.637 269.48 260.6 269.576C260.563 269.672 260.507 269.76 260.436 269.834C260.364 269.908 260.278 269.967 260.184 270.007C260.089 270.048 259.987 270.068 259.884 270.068ZM177.272 268.536H259.118V215.56H243.875C238.519 219.295 232.126 221.256 225.597 221.164H209.102C205.516 221.175 201.951 220.604 198.548 219.473C195.78 218.573 193.169 217.249 190.805 215.551H177.262L177.272 268.536Z" fill="#E6E6E6"/>
<path d="M170.285 270.068H86.9066C86.7034 270.068 86.5086 269.987 86.365 269.844C86.2214 269.7 86.1407 269.505 86.1407 269.302V214.766C86.1394 214.665 86.1584 214.565 86.1964 214.471C86.2345 214.378 86.2908 214.293 86.3622 214.222C86.4336 214.15 86.5185 214.094 86.612 214.056C86.7055 214.018 86.8056 213.999 86.9066 214H101.468C101.63 213.998 101.788 214.051 101.916 214.15C104.19 215.818 106.711 217.12 109.388 218.007C112.639 219.082 116.042 219.625 119.466 219.614H135.96C142.254 219.705 148.413 217.791 153.547 214.15C153.679 214.049 153.84 213.997 154.005 214H170.238C170.441 214 170.636 214.081 170.78 214.224C170.923 214.368 171.004 214.563 171.004 214.766V269.274C171.012 269.474 170.941 269.669 170.806 269.818C170.672 269.966 170.485 270.056 170.285 270.068ZM87.6724 268.536H169.519V215.56H154.341C148.982 219.296 142.586 221.256 136.054 221.164H119.512C115.926 221.177 112.361 220.606 108.958 219.473C106.191 218.573 103.579 217.25 101.215 215.551H87.6724V268.536Z" fill="#E6E6E6"/>
<path d="M349.722 306.678H358.819V286.625H340.186L349.722 306.678Z" fill="#F5F5F5"/>
<path d="M134.671 191.735H127.115C127.171 186.504 127.115 173.223 126.583 142.803C125.649 87.6966 123.902 84.2969 123.902 84.2969L132.859 111.514C134.986 117.914 136.224 124.577 136.539 131.314C137.529 152.535 133.793 169.478 134.671 191.735Z" fill="#E6E6E6"/>
<path d="M140.414 103.306C150.492 88.0537 170.61 80.096 191.177 72.6054C199.247 69.6633 176.588 106.155 160.112 122.705C147.316 135.557 134.894 135.267 131.224 147.923C130.514 133.222 131.728 116.447 140.414 103.306Z" fill="#E6E6E6"/>
<path d="M128.87 93.5139C120.969 75.6745 101.009 52.5393 78.5744 36.241C69.7668 29.8431 91.501 84.809 106.828 107.281C118.764 124.803 129.898 135.469 131.635 147.966C139.163 132.331 136.763 111.344 128.87 93.5139Z" fill="#E6E6E6"/>
<path d="M129.619 208.233C133.89 208.232 138 206.598 141.105 203.665C144.21 200.732 146.075 196.722 146.318 192.457L147.804 177.336H111.434L112.909 192.457C113.155 196.723 115.022 200.733 118.129 203.666C121.236 206.599 125.346 208.233 129.619 208.233Z" fill="#F0F0F0"/>
<path d="M109.079 177.417H150.157L151.333 172.047H107.902L109.079 177.417Z" fill="#F0F0F0"/>
<path d="M111.106 186.628H148.13L149.194 181.258H110.041L111.106 186.628Z" fill="#F0F0F0"/>
<path d="M233.73 348.857C333.745 348.857 414.823 344.123 414.823 338.284C414.823 332.445 333.745 327.711 233.73 327.711C133.715 327.711 52.6367 332.445 52.6367 338.284C52.6367 344.123 133.715 348.857 233.73 348.857Z" fill="#F5F5F5"/>
<path d="M378.762 246.836H88.6895V279.675H378.762V246.836Z" fill="#084C3F"/>
<path opacity="0.3" d="M378.772 246.836H316.549V279.675H378.772V246.836Z" fill="black"/>
<path d="M120.716 279.672H88.6895V338.28H120.716V279.672Z" fill="#084C3F"/>
<path opacity="0.3" d="M88.6973 279.672V282.95L111.375 289.796V338.28H120.715V279.672H88.6973Z" fill="black"/>
<path d="M378.773 279.672H346.746V338.28H378.773V279.672Z" fill="#084C3F"/>
<path opacity="0.2" d="M378.773 279.672H346.746V338.28H378.773V279.672Z" fill="black"/>
<path opacity="0.3" d="M346.746 279.672V282.95L369.433 289.796V338.28H378.773V279.672H346.746Z" fill="black"/>
<path d="M316.55 279.672H284.523V338.28H316.55V279.672Z" fill="#084C3F"/>
<path opacity="0.3" d="M284.523 279.672V282.95L307.21 289.796V338.28H316.55V279.672H284.523Z" fill="black"/>
<path d="M182.939 279.672H150.912V338.28H182.939V279.672Z" fill="#084C3F"/>
<path opacity="0.2" d="M182.939 279.672H150.912V338.28H182.939V279.672Z" fill="black"/>
<path opacity="0.3" d="M150.912 279.672V282.95L173.599 289.796V338.28H182.939V279.672H150.912Z" fill="black"/>
<path d="M338.785 240.376H161.438C160.885 240.38 160.337 240.269 159.83 240.051C159.322 239.833 158.865 239.512 158.487 239.108C158.11 238.704 157.82 238.227 157.637 237.706C157.453 237.184 157.38 236.631 157.421 236.079L164.725 120.179C164.818 119.024 165.336 117.945 166.181 117.151C167.025 116.357 168.134 115.905 169.292 115.883H346.631C347.184 115.879 347.731 115.989 348.239 116.207C348.747 116.426 349.204 116.747 349.581 117.15C349.959 117.554 350.248 118.032 350.432 118.553C350.615 119.074 350.689 119.628 350.647 120.179L343.343 236.079C343.251 237.233 342.734 238.311 341.892 239.105C341.049 239.899 339.943 240.352 338.785 240.376Z" fill="#263238"/>
<path opacity="0.6" d="M338.785 240.376H161.438C160.885 240.38 160.337 240.269 159.83 240.051C159.322 239.833 158.865 239.512 158.487 239.108C158.11 238.704 157.82 238.227 157.637 237.706C157.453 237.184 157.38 236.631 157.421 236.079L164.725 120.179C164.818 119.024 165.336 117.945 166.181 117.151C167.025 116.357 168.134 115.905 169.292 115.883H346.631C347.184 115.879 347.731 115.989 348.239 116.207C348.747 116.426 349.204 116.747 349.581 117.15C349.959 117.554 350.248 118.032 350.432 118.553C350.615 119.074 350.689 119.628 350.647 120.179L343.343 236.079C343.251 237.233 342.734 238.311 341.892 239.105C341.049 239.899 339.943 240.352 338.785 240.376Z" fill="black"/>
<path d="M337.461 240.376H160.123C159.569 240.381 159.021 240.272 158.512 240.054C158.003 239.837 157.545 239.516 157.166 239.112C156.788 238.708 156.497 238.23 156.313 237.708C156.129 237.186 156.056 236.631 156.097 236.079L163.401 120.179C163.494 119.024 164.012 117.945 164.856 117.151C165.7 116.357 166.81 115.905 167.968 115.883H345.307C345.86 115.877 346.408 115.987 346.917 116.205C347.425 116.422 347.883 116.743 348.26 117.148C348.638 117.552 348.928 118.03 349.11 118.552C349.293 119.074 349.366 119.628 349.323 120.179L342.019 236.079C341.927 237.233 341.409 238.311 340.567 239.105C339.725 239.899 338.618 240.352 337.461 240.376Z" fill="#263238"/>
<path d="M337.237 241.852H126.218C125.247 241.843 124.292 242.109 123.466 242.62C122.64 243.131 121.975 243.865 121.548 244.738C121.44 244.964 121.391 245.215 121.407 245.466C121.423 245.716 121.502 245.959 121.638 246.17C121.774 246.381 121.961 246.555 122.182 246.673C122.403 246.792 122.651 246.852 122.902 246.849H340.506C340.757 246.852 341.005 246.792 341.226 246.673C341.447 246.555 341.634 246.381 341.77 246.17C341.906 245.959 341.985 245.716 342.001 245.466C342.017 245.215 341.968 244.964 341.86 244.738C341.439 243.871 340.781 243.14 339.964 242.63C339.146 242.119 338.201 241.85 337.237 241.852Z" fill="#263238"/>
<path opacity="0.6" d="M337.235 241.852H307.226C306.262 241.848 305.316 242.117 304.498 242.628C303.68 243.139 303.023 243.87 302.603 244.738C302.495 244.964 302.446 245.213 302.462 245.463C302.477 245.713 302.556 245.955 302.69 246.166C302.825 246.377 303.011 246.55 303.231 246.67C303.451 246.789 303.697 246.851 303.948 246.848H340.504C340.755 246.852 341.003 246.792 341.225 246.673C341.446 246.554 341.633 246.381 341.769 246.17C341.904 245.958 341.984 245.716 342 245.465C342.015 245.215 341.967 244.964 341.859 244.738C341.437 243.871 340.78 243.14 339.962 242.63C339.144 242.119 338.199 241.849 337.235 241.852Z" fill="black"/>
<path d="M318.634 245.496H310.881C310.702 245.494 310.531 245.421 310.405 245.293C310.28 245.166 310.209 244.994 310.209 244.815C310.209 244.635 310.28 244.463 310.405 244.336C310.531 244.208 310.702 244.135 310.881 244.133H318.634C318.723 244.133 318.812 244.15 318.895 244.185C318.977 244.219 319.052 244.269 319.116 244.333C319.179 244.396 319.229 244.471 319.264 244.554C319.298 244.636 319.315 244.725 319.315 244.815C319.315 244.904 319.298 244.993 319.264 245.076C319.229 245.158 319.179 245.233 319.116 245.297C319.052 245.36 318.977 245.41 318.895 245.445C318.812 245.479 318.723 245.496 318.634 245.496Z" fill="#084C3F"/>
<path opacity="0.7" d="M218.944 245.496H211.201C211.021 245.496 210.847 245.425 210.719 245.297C210.591 245.169 210.52 244.995 210.52 244.815C210.52 244.725 210.537 244.636 210.571 244.554C210.606 244.471 210.656 244.396 210.719 244.333C210.783 244.269 210.858 244.219 210.94 244.185C211.023 244.15 211.112 244.133 211.201 244.133H218.944C219.034 244.133 219.122 244.15 219.205 244.185C219.288 244.219 219.363 244.269 219.426 244.333C219.49 244.396 219.54 244.471 219.574 244.554C219.608 244.636 219.626 244.725 219.626 244.815C219.626 244.995 219.554 245.169 219.426 245.297C219.298 245.425 219.125 245.496 218.944 245.496Z" fill="white"/>
<path d="M326.652 244.133H321.58C321.27 244.133 321.02 244.384 321.02 244.693V244.936C321.02 245.246 321.27 245.496 321.58 245.496H326.652C326.961 245.496 327.212 245.246 327.212 244.936V244.693C327.212 244.384 326.961 244.133 326.652 244.133Z" fill="#084C3F"/>
<path d="M160.095 231.897L166.876 124.366C166.911 123.917 167.112 123.498 167.441 123.19C167.769 122.883 168.201 122.709 168.651 122.703H343.766C343.981 122.7 344.194 122.742 344.391 122.825C344.589 122.909 344.767 123.033 344.914 123.19C345.06 123.346 345.173 123.532 345.244 123.734C345.315 123.937 345.343 124.152 345.326 124.366L338.555 231.897C338.517 232.347 338.314 232.766 337.984 233.073C337.654 233.381 337.222 233.554 336.771 233.56H161.664C161.45 233.562 161.237 233.519 161.04 233.435C160.842 233.351 160.665 233.227 160.517 233.071C160.37 232.915 160.256 232.73 160.184 232.528C160.111 232.326 160.081 232.111 160.095 231.897Z" fill="white"/>
<path opacity="0.1" d="M259.717 119.383L201.388 230.249H158.359C158.143 230.252 157.929 230.21 157.73 230.126C157.532 230.042 157.353 229.917 157.205 229.759C157.057 229.602 156.944 229.416 156.873 229.212C156.801 229.008 156.773 228.792 156.79 228.577L163.571 121.055C163.606 120.605 163.807 120.185 164.135 119.876C164.463 119.566 164.895 119.391 165.345 119.383H259.717Z" fill="#084C3F"/>
<path opacity="0.1" d="M310.793 119.383L252.464 230.249H238.865L297.194 119.383H310.793Z" fill="#084C3F"/>
<path opacity="0.1" d="M342.018 121.055L335.237 228.577C335.204 229.028 335.004 229.449 334.675 229.759C334.347 230.068 333.914 230.243 333.462 230.249H267.148L325.477 119.383H340.421C340.638 119.378 340.855 119.417 341.056 119.5C341.258 119.583 341.44 119.708 341.59 119.865C341.74 120.023 341.856 120.21 341.93 120.415C342.004 120.62 342.034 120.838 342.018 121.055Z" fill="#084C3F"/>
<path opacity="0.4" d="M257.671 119.495C257.645 119.834 257.494 120.151 257.247 120.384C257 120.618 256.675 120.75 256.335 120.756C256.173 120.758 256.012 120.726 255.863 120.662C255.713 120.598 255.579 120.504 255.468 120.385C255.358 120.267 255.273 120.126 255.219 119.973C255.166 119.82 255.145 119.657 255.158 119.495C255.181 119.156 255.332 118.838 255.579 118.604C255.827 118.37 256.153 118.238 256.494 118.234C256.656 118.233 256.817 118.265 256.966 118.329C257.115 118.392 257.25 118.487 257.36 118.605C257.471 118.724 257.556 118.864 257.609 119.018C257.663 119.171 257.684 119.334 257.671 119.495Z" fill="white"/>
<path d="M228.734 93.713C223.625 99.5598 220.674 117.483 224.456 126.3C228.239 135.117 184.35 143.944 220.562 158.271C256.773 172.599 285.736 155.983 275.257 141.142C264.777 126.3 276.387 101.587 264.254 95.3755C253.289 89.7155 238.971 81.9913 228.734 93.713Z" fill="#263238"/>
<path d="M217.908 165.881C215.994 172.419 213.958 178.957 211.847 185.495C209.736 192.033 207.541 198.497 205.215 204.988L204.328 207.435L203.88 208.659L203.74 209.023L203.515 209.574C203.375 209.929 203.16 210.312 202.974 210.676C202.061 212.344 200.698 213.722 199.042 214.655C197.537 215.472 195.859 215.914 194.147 215.944C191.747 215.955 189.369 215.489 187.152 214.571C185.337 213.834 183.579 212.963 181.893 211.965C175.769 208.199 170.157 203.66 165.193 198.459L169.219 193.715C170.573 194.583 172.021 195.508 173.422 196.376C174.823 197.245 176.289 198.086 177.709 198.917C180.491 200.545 183.363 202.014 186.311 203.316C187.655 203.909 189.041 204.399 190.458 204.782C191.438 205.108 192.474 205.228 193.503 205.137C193.764 205.137 193.718 204.988 193.503 205.072C193.288 205.156 193.055 205.399 193.045 205.371C193.036 205.343 193.045 205.371 193.045 205.315C193.05 205.296 193.05 205.277 193.045 205.259L193.12 205.025L193.475 203.82L194.194 201.392L199.901 181.778C201.844 175.24 203.842 168.702 205.897 162.164L217.908 165.881Z" fill="#B65B52"/>
<path d="M168.931 193.563L158.078 189.547L162.384 201.016C162.384 201.016 170.043 202.119 173.013 198.093L170.594 194.852C170.174 194.272 169.597 193.825 168.931 193.563Z" fill="#B55B52"/>
<path d="M148.504 192.884L152.632 202.29L162.43 201.001L158.115 189.531L148.504 192.884Z" fill="#B55B52"/>
<path d="M209.99 148.97C205.021 150.231 201.584 170.657 201.584 170.657L215.267 179.997C215.267 179.997 228.343 159.393 224.56 153.939C220.544 148.213 217.228 147.13 209.99 148.97Z" fill="#084C3F"/>
<path opacity="0.5" d="M209.99 148.97C205.021 150.231 201.584 170.657 201.584 170.657L215.267 179.997C215.267 179.997 228.343 159.393 224.56 153.939C220.544 148.213 217.228 147.13 209.99 148.97Z" fill="white"/>
<path opacity="0.2" d="M209.543 156.391L220.163 158.847L221.181 169.242C219.381 172.913 217.396 176.488 215.231 179.955L206.928 174.351C207.292 169.541 208.189 159.66 209.543 156.391Z" fill="black"/>
<path d="M209.988 148.964C209.988 148.964 204.243 150.981 215.741 221.648H264.645C263.823 201.744 263.805 189.462 273.313 148.618C266.468 147.203 259.528 146.288 252.55 145.882C244.321 145.48 237.606 145.219 230.339 145.882C220.803 146.75 209.988 148.964 209.988 148.964Z" fill="#084C3F"/>
<path opacity="0.5" d="M209.988 148.964C209.988 148.964 204.243 150.981 215.741 221.648H264.645C263.823 201.744 263.805 189.462 273.313 148.618C266.468 147.203 259.528 146.288 252.55 145.882C244.321 145.48 237.606 145.219 230.339 145.882C220.803 146.75 209.988 148.964 209.988 148.964Z" fill="white"/>
<path opacity="0.2" d="M261.806 167.578L268.119 172.958C266.775 180.103 265.869 186.034 265.317 191.348C264.113 186.043 261.105 171.641 261.806 167.578Z" fill="black"/>
<path d="M250.347 120.875C248.946 128.02 247.545 141.115 252.551 145.888C252.551 145.888 247.881 156.591 235.505 156.591C223.13 156.591 230.34 145.888 230.34 145.888C238.307 144.02 238.102 138.07 236.719 132.522L250.347 120.875Z" fill="#B55B52"/>
<path d="M250.964 143.215C249.787 145.597 245.995 151.042 235.404 152.985C235.109 153.039 234.805 152.979 234.554 152.816C232.574 151.434 231.341 148.511 232.209 145.12C232.267 144.912 232.265 144.692 232.204 144.484C232.143 144.277 232.025 144.091 231.864 143.947C231.703 143.803 231.504 143.708 231.291 143.671C231.078 143.634 230.859 143.657 230.659 143.738C229.845 144.078 229.064 144.491 228.324 144.971C228.161 145.079 228.029 145.227 227.941 145.401C227.166 146.858 224.028 153.993 233.498 158.392C233.649 158.457 233.811 158.495 233.975 158.505C239.579 158.617 249.376 157.514 255.569 146.363C255.679 146.161 255.728 145.932 255.71 145.703C255.692 145.474 255.607 145.255 255.466 145.074C254.634 144.163 253.667 143.385 252.599 142.767C252.464 142.68 252.313 142.623 252.155 142.599C251.997 142.575 251.836 142.584 251.681 142.627C251.527 142.669 251.384 142.743 251.26 142.844C251.137 142.946 251.036 143.072 250.964 143.215Z" fill="#FAFAFA"/>
<path d="M253.562 172.614L240.953 172.249C240.822 172.25 240.691 172.223 240.57 172.17C240.45 172.117 240.342 172.039 240.254 171.941C240.166 171.843 240.099 171.727 240.059 171.602C240.018 171.476 240.005 171.344 240.019 171.213L240.141 169.653C240.177 169.391 240.309 169.151 240.51 168.979C240.711 168.806 240.969 168.714 241.234 168.719L253.843 169.083C253.975 169.082 254.107 169.11 254.228 169.163C254.349 169.217 254.458 169.296 254.546 169.395C254.634 169.494 254.701 169.611 254.74 169.737C254.78 169.864 254.792 169.998 254.777 170.129L254.655 171.68C254.619 171.942 254.487 172.182 254.286 172.354C254.085 172.526 253.827 172.619 253.562 172.614Z" fill="#FAFAFA"/>
<path opacity="0.2" d="M244.789 125.625L236.719 132.509C237.065 133.799 237.296 135.118 237.41 136.45C240.445 136.011 244.63 132.667 244.957 129.482C245.135 128.197 245.078 126.89 244.789 125.625Z" fill="black"/>
<path d="M259.758 107.358C257.508 119.099 256.807 124.114 250.045 129.41C239.874 137.386 225.948 132.044 224.659 119.874C223.491 108.918 227.367 91.5643 239.603 88.3514C242.284 87.6389 245.103 87.6226 247.792 88.304C250.481 88.9854 252.952 90.3421 254.97 92.2454C256.989 94.1487 258.488 96.5357 259.326 99.1804C260.164 101.825 260.313 104.64 259.758 107.358Z" fill="#B55B52"/>
<path d="M253.083 98.6714C251.626 106.022 251.28 115.764 258.014 115.764C264.749 115.764 270.026 104.303 264.216 95.3277C258.407 86.352 253.933 94.3377 253.083 98.6714Z" fill="#263238"/>
<path d="M264.72 99.5766C264.72 107.572 254.652 103.621 250.197 100.174C245.742 96.7279 245.527 97.1015 237.27 97.0921C229.014 97.0828 227.36 96.5131 224.923 92.5716C222.485 88.6301 222.709 86.0336 228.201 86.8649C233.693 87.6961 229.079 82.0921 233.17 78.9819C237.261 75.8717 242.108 76.6562 247.703 83.7546C253.298 90.853 264.72 85.7254 264.72 99.5766Z" fill="#263238"/>
<path d="M261.764 117.802C262.824 114.189 261.784 110.703 259.443 110.017C257.102 109.33 254.345 111.703 253.285 115.317C252.226 118.93 253.265 122.416 255.607 123.102C257.948 123.789 260.705 121.416 261.764 117.802Z" fill="white"/>
<path d="M243.071 126.841C240.903 126.841 238.758 126.399 236.766 125.543C236.723 125.526 236.685 125.5 236.652 125.467C236.62 125.435 236.594 125.396 236.576 125.354C236.559 125.311 236.55 125.265 236.551 125.219C236.551 125.173 236.561 125.128 236.579 125.085C236.618 125 236.688 124.933 236.775 124.898C236.862 124.864 236.959 124.864 237.046 124.899C238.923 125.704 240.942 126.125 242.985 126.136C245.027 126.147 247.051 125.749 248.936 124.964C250.77 124.214 252.435 123.104 253.834 121.7C255.233 120.297 256.337 118.628 257.081 116.791C259.883 108.768 262.741 98.7559 259.434 92.5075C258.769 91.2913 257.849 90.2334 256.736 89.4064C255.624 88.5793 254.346 88.0027 252.99 87.716C252.9 87.6919 252.823 87.6333 252.776 87.5529C252.728 87.4725 252.715 87.3768 252.738 87.2864C252.762 87.1964 252.82 87.1195 252.901 87.0723C252.981 87.0251 253.077 87.0114 253.167 87.0342C254.616 87.346 255.981 87.9662 257.169 88.8526C258.357 89.7391 259.339 90.8709 260.051 92.1712C263.488 98.6252 260.621 108.834 257.734 117.006C256.952 118.935 255.79 120.687 254.319 122.16C252.848 123.632 251.097 124.795 249.17 125.58C247.238 126.392 245.166 126.82 243.071 126.841Z" fill="white"/>
<path opacity="0.6" d="M261.425 117.834C260.593 120.636 258.688 122.607 257.166 122.168C255.643 121.729 255.083 119.058 255.914 116.218C256.745 113.379 258.651 111.436 260.173 111.885C261.695 112.333 262.256 114.995 261.425 117.834Z" fill="#084C3F"/>
<path d="M237.734 123.993L234.075 123.287C233.432 123.163 232.81 123.584 232.685 124.227L232.645 124.438C232.521 125.081 232.942 125.703 233.585 125.828L237.244 126.534C237.887 126.658 238.509 126.237 238.633 125.594L238.674 125.383C238.798 124.739 238.377 124.117 237.734 123.993Z" fill="white"/>
<path d="M232.958 108.336C232.958 108.336 230.791 112.268 228.736 114.033C229.848 115.388 232.089 115.126 232.089 115.126L232.958 108.336Z" fill="#A02724"/>
<path d="M235.019 120.154H235.103C237.22 120.321 239.323 119.681 240.987 118.361C241.021 118.326 241.04 118.279 241.04 118.23C241.04 118.181 241.021 118.134 240.987 118.099C240.971 118.083 240.951 118.07 240.929 118.061C240.908 118.052 240.884 118.047 240.861 118.047C240.838 118.047 240.814 118.052 240.793 118.061C240.771 118.07 240.751 118.083 240.735 118.099C239.146 119.349 237.147 119.958 235.131 119.809C235.107 119.805 235.082 119.806 235.059 119.812C235.035 119.818 235.013 119.828 234.994 119.843C234.974 119.858 234.958 119.877 234.947 119.898C234.935 119.92 234.928 119.943 234.925 119.967C234.921 120.004 234.927 120.042 234.944 120.075C234.96 120.108 234.986 120.136 235.019 120.154Z" fill="#263238"/>
<path d="M245.705 103.712C245.758 103.741 245.817 103.757 245.878 103.757C245.938 103.757 245.997 103.741 246.05 103.712C246.13 103.658 246.187 103.576 246.208 103.482C246.228 103.388 246.212 103.29 246.162 103.207C245.716 102.459 245.097 101.828 244.358 101.367C243.619 100.906 242.781 100.627 241.913 100.555C241.815 100.555 241.722 100.593 241.652 100.661C241.582 100.729 241.541 100.821 241.539 100.919C241.539 101.014 241.576 101.105 241.642 101.173C241.709 101.241 241.799 101.281 241.894 101.283C242.642 101.355 243.363 101.602 243.997 102.004C244.632 102.407 245.163 102.953 245.546 103.6C245.588 103.651 245.643 103.689 245.705 103.712Z" fill="#263238"/>
<path d="M240.353 108.493C240.194 109.427 239.55 110.146 238.915 110.043C238.28 109.94 237.915 109.109 238.074 108.1C238.233 107.092 238.887 106.447 239.513 106.55C240.138 106.653 240.521 107.53 240.353 108.493Z" fill="#263238"/>
<path d="M229.461 106.65C229.302 107.584 228.657 108.303 228.022 108.2C227.387 108.098 227.023 107.22 227.182 106.258C227.34 105.296 227.994 104.595 228.62 104.707C229.246 104.819 229.629 105.678 229.461 106.65Z" fill="#263238"/>
<path d="M228.892 104.807L226.688 103.742C226.688 103.742 227.565 105.75 228.892 104.807Z" fill="#263238"/>
<path d="M239.784 106.657L237.58 105.602C237.58 105.602 238.458 107.61 239.784 106.657Z" fill="#263238"/>
<path d="M225.764 100.137C225.821 100.171 225.885 100.189 225.951 100.189C226.017 100.189 226.081 100.171 226.138 100.137C226.714 99.6526 227.399 99.3146 228.134 99.152C228.869 98.9894 229.633 99.0069 230.36 99.203C230.451 99.2352 230.552 99.2297 230.64 99.1876C230.727 99.1456 230.794 99.0705 230.827 98.9788C230.859 98.8872 230.853 98.7865 230.811 98.6989C230.769 98.6113 230.694 98.544 230.602 98.5118C229.764 98.2731 228.881 98.2402 228.027 98.4158C227.174 98.5914 226.375 98.9704 225.699 99.5206C225.66 99.5481 225.627 99.5835 225.602 99.6245C225.578 99.6654 225.562 99.711 225.556 99.7584C225.549 99.8058 225.553 99.854 225.567 99.8998C225.58 99.9457 225.603 99.9883 225.634 100.025C225.665 100.075 225.71 100.114 225.764 100.137Z" fill="#263238"/>
<path d="M213.885 233.557C213.885 233.557 213.754 226.869 215.753 221.648H264.647C264.647 221.648 269.047 228.747 270.186 233.557H213.885Z" fill="#084C3F"/>
<path d="M265.386 218.785L265.769 223.156C265.946 223.502 265.545 223.847 264.975 223.847H215.473C215.034 223.847 214.67 223.633 214.642 223.352L214.193 218.972C214.193 218.673 214.548 218.411 215.034 218.411H264.536C264.698 218.394 264.862 218.42 265.011 218.485C265.16 218.551 265.289 218.654 265.386 218.785Z" fill="#084C3F"/>
<path opacity="0.3" d="M265.386 218.785L265.769 223.156C265.946 223.502 265.545 223.847 264.975 223.847H215.473C215.034 223.847 214.67 223.633 214.642 223.352L214.193 218.972C214.193 218.673 214.548 218.411 215.034 218.411H264.536C264.698 218.394 264.862 218.42 265.011 218.485C265.16 218.551 265.289 218.654 265.386 218.785Z" fill="#FAFAFA"/>
<path d="M258.724 224.309H260.05C260.321 224.309 260.517 224.179 260.498 224.01L259.882 218.322C259.882 218.154 259.63 218.023 259.368 218.023H258.014C257.743 218.023 257.547 218.154 257.566 218.322L258.182 224.01C258.229 224.179 258.462 224.309 258.724 224.309Z" fill="#084C3F"/>
<path d="M219.225 224.309H220.551C220.812 224.309 221.018 224.179 220.999 224.01L220.373 218.322C220.373 218.154 220.131 218.023 219.86 218.023H218.533C218.272 218.023 218.066 218.154 218.085 218.322L218.711 224.01C218.73 224.179 218.963 224.309 219.225 224.309Z" fill="#084C3F"/>
<path d="M238.979 224.309H240.268C240.529 224.309 240.735 224.179 240.716 224.01L240.09 218.322C240.09 218.154 239.838 218.023 239.577 218.023H238.25C237.989 218.023 237.783 218.154 237.802 218.322L238.428 224.01C238.484 224.179 238.708 224.309 238.979 224.309Z" fill="#084C3F"/>
<path d="M277.497 162.461C279.646 169.435 281.71 176.446 283.69 183.495L286.669 194.011L288.154 199.242L288.528 200.531L288.715 201.175L288.761 201.325L288.612 201.091C288.376 200.753 288.086 200.456 287.753 200.213C287.022 199.681 286.152 199.373 285.25 199.326C284.567 199.294 283.888 199.428 283.27 199.718C282.597 200.082 282.662 200.167 282.718 200.101C282.877 199.963 283.021 199.81 283.148 199.643C283.588 199.093 283.994 198.516 284.362 197.916C285.184 196.571 285.997 195.058 286.763 193.507C288.35 190.406 289.779 187.119 291.227 183.812C292.675 180.506 294.029 177.162 295.43 173.79C296.831 170.419 298.167 167.028 299.549 163.684L305.517 165.459C303.967 172.744 302.155 179.899 299.913 187.025C298.811 190.602 297.588 194.142 296.177 197.729C295.449 199.522 294.674 201.315 293.712 203.174C293.199 204.179 292.625 205.153 291.993 206.088C291.6 206.675 291.163 207.231 290.685 207.751C289.927 208.61 289.007 209.312 287.977 209.815C286.949 210.315 285.813 210.552 284.671 210.506C283.316 210.431 282.015 209.952 280.935 209.133C280.246 208.613 279.649 207.982 279.169 207.265C278.866 206.805 278.6 206.321 278.375 205.817C278.291 205.612 278.198 205.397 278.133 205.21L277.955 204.752L277.712 204.089L277.227 202.772C276.591 201.026 275.947 199.279 275.359 197.533C274.163 194.039 272.967 190.556 271.847 187.053C269.555 180.054 267.42 173.021 265.439 165.954L277.497 162.461Z" fill="#B65B52"/>
<path d="M273.312 148.621C278.216 150.106 285.716 169.337 285.716 169.337L266.709 182.927C266.709 182.927 258.163 166.488 260.217 160.156C262.366 153.562 267.727 146.921 273.312 148.621Z" fill="#084C3F"/>
<path opacity="0.5" d="M273.312 148.621C278.216 150.106 285.716 169.337 285.716 169.337L266.709 182.927C266.709 182.927 258.163 166.488 260.217 160.156C262.366 153.562 267.727 146.921 273.312 148.621Z" fill="white"/>
<path d="M299.764 166.246L297.158 154.758L307.993 160.474C307.993 160.474 308.123 168.207 303.752 170.645L299.764 166.246Z" fill="#B55B52"/>
<path d="M301.697 145.641L308.609 150.544L307.993 160.473L297.158 154.756L301.697 145.641Z" fill="#B55B52"/>
<path d="M107.641 87.8286H183.295C184.739 87.8144 186.171 88.1 187.5 88.6674C188.828 89.2348 190.024 90.0717 191.013 91.1251C192.001 92.1785 192.76 93.4255 193.242 94.7873C193.724 96.1491 193.918 97.596 193.812 99.0366L191.701 133.277C191.469 136.291 190.121 139.111 187.92 141.183C185.719 143.256 182.825 144.434 179.802 144.485H171.041L174.618 156.244L157.507 144.485H104.176C102.731 144.499 101.3 144.214 99.9713 143.646C98.6429 143.079 97.4467 142.242 96.4582 141.189C95.4698 140.135 94.7107 138.888 94.2289 137.526C93.747 136.165 93.553 134.718 93.659 133.277L95.7512 99.0366C95.9831 96.024 97.33 93.206 99.5287 91.1334C101.727 89.0608 104.62 87.8825 107.641 87.8286Z" fill="#084C3F"/>
<path d="M176.367 105.765H112.388C112.117 105.764 111.848 105.706 111.6 105.595C111.352 105.485 111.13 105.324 110.947 105.123C110.764 104.922 110.625 104.685 110.539 104.427C110.453 104.17 110.421 103.897 110.446 103.626C110.487 103.06 110.74 102.529 111.153 102.138C111.566 101.748 112.11 101.526 112.678 101.516H176.666C176.936 101.516 177.204 101.572 177.451 101.681C177.699 101.789 177.922 101.947 178.105 102.145C178.289 102.343 178.431 102.577 178.521 102.831C178.61 103.086 178.647 103.357 178.628 103.626C178.594 104.204 178.342 104.747 177.922 105.144C177.502 105.542 176.946 105.764 176.367 105.765Z" fill="white"/>
<path d="M138.463 118.269H111.62C111.348 118.271 111.079 118.216 110.829 118.109C110.579 118.002 110.354 117.845 110.168 117.646C109.982 117.448 109.839 117.213 109.748 116.957C109.657 116.701 109.62 116.429 109.64 116.158C109.682 115.589 109.935 115.057 110.35 114.667C110.765 114.276 111.311 114.055 111.881 114.047H138.753C139.025 114.044 139.295 114.097 139.546 114.204C139.797 114.31 140.023 114.468 140.21 114.666C140.397 114.864 140.541 115.099 140.633 115.356C140.724 115.613 140.761 115.886 140.742 116.158C140.697 116.732 140.438 117.268 140.016 117.659C139.593 118.05 139.039 118.268 138.463 118.269Z" fill="white"/>
<path d="M161.466 130.777H110.852C110.58 130.778 110.311 130.724 110.061 130.617C109.812 130.51 109.587 130.352 109.401 130.154C109.215 129.956 109.072 129.721 108.981 129.465C108.89 129.209 108.853 128.937 108.872 128.666C108.912 128.096 109.165 127.563 109.58 127.172C109.996 126.781 110.543 126.56 111.114 126.555H161.727C161.999 126.551 162.269 126.605 162.52 126.711C162.77 126.818 162.996 126.976 163.182 127.174C163.368 127.373 163.511 127.608 163.602 127.865C163.692 128.121 163.728 128.394 163.707 128.666C163.665 129.234 163.412 129.766 162.997 130.157C162.582 130.548 162.036 130.769 161.466 130.777Z" fill="white"/>
<path d="M158.183 118.269H147.6C147.328 118.271 147.059 118.216 146.809 118.109C146.56 118.002 146.335 117.845 146.149 117.646C145.963 117.448 145.82 117.213 145.729 116.957C145.638 116.701 145.601 116.429 145.62 116.158C145.664 115.59 145.918 115.059 146.333 114.669C146.747 114.279 147.293 114.057 147.862 114.047H158.435C158.707 114.044 158.977 114.097 159.227 114.204C159.478 114.31 159.703 114.468 159.89 114.666C160.076 114.865 160.219 115.1 160.309 115.357C160.4 115.614 160.436 115.886 160.415 116.158C160.373 116.725 160.121 117.255 159.708 117.646C159.295 118.037 158.751 118.259 158.183 118.269Z" fill="white"/>
<path d="M212.988 26.2816H171.742C169.39 26.3169 167.137 27.2306 165.424 28.843C163.711 30.4555 162.663 32.6502 162.487 34.9958L160.88 61.6522C160.8 62.7729 160.953 63.8981 161.329 64.9568C161.706 66.0155 162.297 66.9847 163.067 67.8034C163.837 68.6221 164.767 69.2725 165.801 69.7136C166.834 70.1547 167.948 70.377 169.071 70.3664H175.824L171.92 79.5196L186.36 70.3664H210.289C212.641 70.3311 214.895 69.4175 216.607 67.805C218.32 66.1925 219.368 63.9978 219.545 61.6522L221.179 34.9958C221.259 33.8751 221.106 32.7499 220.73 31.6912C220.353 30.6325 219.762 29.6633 218.992 28.8446C218.223 28.0259 217.292 27.3755 216.258 26.9344C215.225 26.4933 214.111 26.271 212.988 26.2816Z" fill="#084C3F"/>
<g opacity="0.5">
<path d="M212.99 26.2816H171.744C169.392 26.3169 167.139 27.2306 165.426 28.843C163.713 30.4555 162.665 32.6502 162.488 34.9958L160.882 61.6522C160.802 62.7729 160.955 63.8981 161.331 64.9568C161.708 66.0155 162.299 66.9847 163.069 67.8034C163.838 68.6221 164.769 69.2725 165.803 69.7136C166.836 70.1547 167.95 70.377 169.073 70.3664H175.826L171.922 79.5196L186.362 70.3664H210.291C212.643 70.3311 214.896 69.4175 216.609 67.805C218.322 66.1925 219.37 63.9978 219.547 61.6522L221.181 34.9958C221.261 33.8751 221.108 32.7499 220.732 31.6912C220.355 30.6325 219.764 29.6633 218.994 28.8446C218.225 28.0259 217.294 27.3755 216.26 26.9344C215.227 26.4933 214.113 26.271 212.99 26.2816Z" fill="#FAFAFA"/>
</g>
<path d="M193.101 52.6897C192.958 53.2768 192.624 53.7992 192.149 54.1734C191.675 54.5476 191.089 54.752 190.485 54.7539H188.048C188.048 54.0627 188.104 53.6424 188.113 53.493C188.148 52.1467 188.494 50.8267 189.122 49.6355C190.004 48.3077 191.125 47.1549 192.428 46.2358C193.467 45.4829 194.447 44.6524 195.361 43.7513C195.845 43.1779 196.134 42.4643 196.183 41.7152C196.22 41.2189 196.142 40.7208 195.956 40.2593C195.769 39.7978 195.48 39.3852 195.109 39.0533C194.203 38.2771 193.031 37.8821 191.84 37.9512C190.587 37.917 189.363 38.3273 188.384 39.1094C187.802 39.5894 187.325 40.1839 186.983 40.8559C186.731 41.3469 186.339 41.7524 185.857 42.0216C185.375 42.2908 184.825 42.4116 184.274 42.369C183.878 42.32 183.501 42.1719 183.178 41.9384C182.854 41.705 182.595 41.3936 182.423 41.0333C182.252 40.673 182.174 40.2752 182.197 39.8769C182.221 39.4785 182.344 39.0925 182.556 38.7544C183.119 37.8086 183.843 36.9679 184.695 36.27C186.719 34.6429 189.263 33.8035 191.858 33.907C194.913 33.907 197.285 34.7009 198.994 36.298C199.794 36.986 200.424 37.85 200.834 38.8224C201.244 39.7947 201.423 40.8488 201.357 41.902C201.271 43.0991 200.858 44.2495 200.162 45.2271C198.85 46.8425 197.333 48.2805 195.65 49.5048C194.779 50.1135 194.025 50.8763 193.428 51.7557C193.276 52.0503 193.166 52.3647 193.101 52.6897ZM187.767 59.3958V59.097C187.817 58.422 188.117 57.7901 188.61 57.3265C189.103 56.8629 189.753 56.6014 190.429 56.5938H190.766C191.089 56.5891 191.41 56.6517 191.709 56.7777C192.007 56.9037 192.275 57.0903 192.498 57.3257C192.72 57.5611 192.891 57.8401 192.999 58.145C193.108 58.4499 193.152 58.7741 193.129 59.097V59.3958C193.08 60.0717 192.779 60.7046 192.286 61.1698C191.794 61.6349 191.144 61.8984 190.467 61.9083H190.168C189.84 61.9184 189.514 61.8595 189.211 61.7353C188.908 61.6111 188.634 61.4244 188.407 61.1874C188.181 60.9504 188.007 60.6684 187.897 60.3597C187.786 60.0511 187.742 59.7227 187.767 59.3958Z" fill="white"/>
</svg>
