<svg width="310" height="341" viewBox="0 0 310 341" fill="none" xmlns="http://www.w3.org/2000/svg">
<path d="M283.015 171.859C283.011 171.808 283.011 171.757 283.015 171.705C283.015 171.596 283.015 171.457 283.015 171.275C283.015 170.88 283.015 170.325 283.015 169.61C283.015 168.149 283.015 166.017 282.971 163.33C282.971 157.927 282.927 150.245 282.891 141.037L283.051 141.198H252.229C252.186 141.198 252.587 140.84 252.419 141.008V149.325C252.419 152.041 252.419 154.697 252.419 157.291C252.419 162.468 252.419 167.353 252.419 171.83L252.259 171.669L274.552 171.749L280.831 171.793H282.496H283.08C283.08 171.793 283.044 171.793 282.949 171.793H282.438H280.802L274.559 171.837L252.164 171.925H251.996V171.757C251.996 167.28 251.996 162.395 251.996 157.218C251.996 154.628 251.996 151.973 251.996 149.252V141.037C251.82 141.205 252.222 140.803 252.186 140.847H283.007H283.168V141.015C283.168 150.267 283.102 157.985 283.08 163.41C283.08 166.09 283.08 168.193 283.037 169.654C283.037 170.384 283.037 170.902 283.037 171.289C283.037 171.465 283.037 171.596 283.037 171.705C283.037 171.815 283.022 171.866 283.015 171.859Z" fill="#E0E0E0"/>
<path d="M283.117 155.791C283.117 155.894 276.122 155.981 267.498 155.981C258.874 155.981 251.879 155.894 251.879 155.791C251.879 155.689 258.874 155.602 267.498 155.602C276.122 155.602 283.117 155.682 283.117 155.791Z" fill="#E0E0E0"/>
<path d="M267.747 141.57C267.849 141.57 267.936 148.456 267.936 156.941C267.936 165.426 267.849 172.312 267.747 172.312C267.644 172.312 267.557 165.433 267.557 156.941C267.557 148.449 267.644 141.57 267.747 141.57Z" fill="#E0E0E0"/>
<path d="M267.586 140.577C267.586 140.577 267.491 140.577 267.323 140.577C267.155 140.577 266.907 140.496 266.593 140.416C265.699 140.185 264.83 139.865 264 139.459C262.742 138.854 261.574 138.075 260.532 137.145C259.899 136.62 259.339 136.014 258.867 135.341C258.615 134.948 258.495 134.485 258.524 134.019C258.543 133.767 258.627 133.524 258.767 133.315C258.908 133.105 259.101 132.935 259.327 132.822C259.782 132.643 260.288 132.643 260.744 132.822C261.169 132.955 261.571 133.154 261.934 133.413C262.607 133.87 263.239 134.383 263.825 134.947C264.819 135.9 265.677 136.986 266.374 138.174C266.844 138.97 267.233 139.812 267.535 140.686C267.637 140.993 267.703 141.241 267.746 141.416C267.79 141.592 267.805 141.679 267.79 141.679C267.326 140.523 266.777 139.403 266.147 138.328C265.431 137.184 264.569 136.139 263.584 135.217C263.003 134.681 262.381 134.193 261.722 133.756C261.388 133.523 261.022 133.341 260.634 133.216C260.264 133.081 259.858 133.081 259.488 133.216C259.32 133.299 259.177 133.425 259.074 133.582C258.972 133.739 258.913 133.92 258.904 134.107C258.874 134.494 258.974 134.879 259.188 135.202C259.638 135.844 260.168 136.426 260.766 136.933C261.767 137.837 262.881 138.608 264.081 139.226C265.217 139.756 266.388 140.207 267.586 140.577Z" fill="#E0E0E0"/>
<path d="M267.542 140.744C267.543 140.396 267.58 140.048 267.651 139.707C267.8 138.77 267.998 137.842 268.243 136.925C268.604 135.564 269.058 134.23 269.601 132.931C269.908 132.201 270.258 131.434 270.653 130.667C270.848 130.237 271.15 129.863 271.529 129.579C271.754 129.428 272.027 129.364 272.296 129.401C272.566 129.437 272.812 129.571 272.989 129.777C273.646 130.638 273.464 131.66 273.362 132.5C273.242 133.334 273.024 134.15 272.712 134.932C272.195 136.259 271.437 137.479 270.477 138.532C269.836 139.243 269.098 139.862 268.287 140.372C268.069 140.514 267.842 140.641 267.608 140.751C267.454 140.832 267.367 140.868 267.359 140.854C268.433 140.146 269.414 139.307 270.28 138.356C271.184 137.304 271.898 136.104 272.39 134.808C272.68 134.044 272.884 133.251 272.997 132.442C273.062 132.024 273.091 131.601 273.084 131.179C273.073 130.765 272.941 130.364 272.704 130.025C272.587 129.884 272.422 129.793 272.241 129.769C272.06 129.744 271.876 129.789 271.726 129.893C271.409 130.143 271.158 130.466 270.996 130.835C270.601 131.566 270.266 132.347 269.937 133.07C269.374 134.35 268.886 135.661 268.477 136.998C268.141 138.145 267.922 139.087 267.746 139.736C267.708 140.078 267.64 140.415 267.542 140.744Z" fill="#E0E0E0"/>
<path d="M182.635 230.508L186.746 261.68H156.268L160.707 230.508H182.635Z" fill="#E0E0E0"/>
<path d="M163.182 235.039C163.559 236.088 164.069 237.085 164.7 238.004C165.405 238.978 166.315 239.785 167.366 240.37C168.665 241.059 170.116 241.411 171.586 241.392C173.058 241.435 174.518 241.114 175.836 240.457C176.893 239.889 177.793 239.069 178.457 238.069C179.06 237.131 179.522 236.11 179.83 235.039C179.835 235.345 179.785 235.649 179.684 235.937C179.464 236.742 179.127 237.509 178.684 238.215C178.022 239.282 177.097 240.159 175.997 240.764C174.646 241.468 173.138 241.814 171.615 241.772C170.085 241.794 168.575 241.416 167.234 240.676C166.153 240.052 165.227 239.19 164.525 238.157C164.057 237.469 163.686 236.719 163.423 235.93C163.288 235.65 163.206 235.348 163.182 235.039Z" fill="white"/>
<path d="M133.923 9.46566C134.066 9.35949 134.23 9.28503 134.404 9.24725C134.577 9.20947 134.757 9.20925 134.931 9.2466C135.348 9.33518 135.747 9.49053 136.114 9.70663L137.662 10.4368C139.999 11.6052 143.35 13.2627 147.491 15.3146L154.267 18.7027L156.114 19.652L157.064 20.1266C157.415 20.2697 157.741 20.4695 158.027 20.7181C158.24 20.9355 158.402 21.1972 158.501 21.4846C158.601 21.7719 158.635 22.0777 158.602 22.38C158.57 22.6823 158.47 22.9736 158.311 23.2329C158.153 23.4922 157.938 23.7132 157.684 23.8799C157.327 24.0868 156.921 24.1952 156.509 24.1939L136.596 24.9241L116.683 25.6543L114.412 25.7273C114.017 25.7382 113.627 25.6334 113.29 25.4256C112.953 25.2179 112.685 24.9162 112.517 24.5578C112.35 24.1994 112.29 23.7999 112.347 23.4083C112.403 23.0167 112.573 22.6502 112.835 22.3537C113.096 22.099 113.394 21.8849 113.719 21.7185L114.595 21.1781L121.065 17.235L130.448 11.5467L133.011 10.0206L133.682 9.63361L133.916 9.50948C133.916 9.50948 133.85 9.56789 133.704 9.66282L133.054 10.0863L130.557 11.6344L121.218 17.3957L114.77 21.3753L113.894 21.9156C113.597 22.0699 113.324 22.2667 113.083 22.4998C112.862 22.747 112.718 23.0541 112.67 23.3827C112.622 23.7112 112.672 24.0466 112.814 24.3468C112.956 24.6469 113.183 24.8986 113.468 25.0701C113.752 25.2416 114.081 25.3255 114.412 25.3111L116.676 25.2307L136.596 24.5005L156.509 23.7703C156.859 23.7752 157.204 23.687 157.509 23.5148C157.798 23.3292 158.022 23.0588 158.152 22.7408C158.284 22.4317 158.321 22.0903 158.259 21.7601C158.196 21.4298 158.037 21.1255 157.801 20.886C157.538 20.6643 157.243 20.4845 156.925 20.353L155.976 19.8711L154.121 18.9291L147.352 15.5775L137.574 10.5975L136.048 9.80886C135.693 9.58866 135.307 9.4237 134.902 9.31962C134.568 9.26211 134.225 9.31331 133.923 9.46566Z" fill="#E0E0E0"/>
<path d="M134.506 9.25277C134.418 8.47707 134.401 7.69493 134.455 6.91612V6.76278H134.616C135.358 6.8699 136.114 6.68686 136.726 6.25164C137.099 6.00565 137.407 5.67352 137.624 5.28333C137.841 4.89314 137.962 4.45636 137.974 4.00991C137.984 3.54834 137.891 3.09035 137.703 2.66873C137.515 2.2471 137.236 1.87226 136.886 1.57104C136.288 1.09428 135.532 0.859729 134.769 0.913854C134.052 0.981174 133.366 1.23273 132.775 1.64406C132.775 1.64406 132.885 1.4469 133.199 1.21324C133.658 0.892831 134.19 0.694325 134.747 0.636376C135.601 0.543068 136.457 0.792567 137.127 1.33007C137.528 1.65862 137.848 2.07388 138.065 2.54446C138.281 3.01504 138.387 3.52863 138.376 4.04642C138.361 4.56233 138.213 5.06556 137.945 5.50683C137.694 5.92312 137.352 6.27749 136.945 6.54372C136.254 7.01161 135.406 7.18747 134.586 7.03295L134.754 6.90882C134.734 7.69551 134.651 8.47932 134.506 9.25277Z" fill="#E0E0E0"/>
<path d="M53.7536 118.889C53.7472 118.773 53.7472 118.656 53.7536 118.539C53.7536 118.291 53.7098 117.947 53.6806 117.509C53.6806 117.276 53.6806 117.02 53.6294 116.779C53.5783 116.538 53.5418 116.202 53.4907 115.874C53.3934 115.114 53.2421 114.363 53.038 113.625C52.5267 111.594 51.7119 109.651 50.621 107.863C49.1929 105.483 47.3214 103.398 45.108 101.722C42.4304 99.6842 39.3114 98.3035 36.0023 97.6917C35.0985 97.5202 34.1833 97.4152 33.2641 97.3777C32.7968 97.3777 32.3294 97.312 31.8548 97.3193L30.3944 97.3923C30.1534 97.3923 29.9125 97.3923 29.6642 97.4434L28.934 97.5529C28.452 97.6332 27.9628 97.6917 27.4736 97.7866C26.4834 98.0081 25.5079 98.291 24.5528 98.6336C23.5876 98.9865 22.6461 99.4012 21.7342 99.875C21.2815 100.123 20.8433 100.408 20.3906 100.678C19.9366 100.946 19.5023 101.247 19.0908 101.576C18.2297 102.217 17.4103 102.912 16.6374 103.657C15.8796 104.445 15.1746 105.282 14.5271 106.162C13.2203 107.967 12.2096 109.968 11.5332 112.091C10.8146 114.288 10.4258 116.579 10.3795 118.889C10.4191 121.21 10.808 123.512 11.5332 125.717C12.2343 127.853 13.2748 129.863 14.6147 131.668C15.2651 132.548 15.9725 133.385 16.7323 134.173C17.5017 134.921 18.3215 135.617 19.1858 136.254C19.5845 136.581 20.0067 136.879 20.449 137.145C20.9017 137.415 21.3399 137.707 21.7926 137.948C23.5941 138.897 25.511 139.609 27.4955 140.065C27.9774 140.168 28.4667 140.226 28.9559 140.306L29.6861 140.416C29.9198 140.416 30.168 140.416 30.4163 140.46L31.8767 140.533C32.3513 140.533 32.8187 140.496 33.286 140.482C34.2046 140.437 35.1194 140.332 36.0243 140.168C39.0376 139.596 41.8962 138.395 44.4129 136.642C46.9297 134.889 49.0477 132.624 50.6283 129.996C51.7195 128.205 52.5343 126.261 53.0453 124.227C53.2493 123.492 53.4005 122.743 53.498 121.986C53.5491 121.657 53.6075 121.35 53.6367 121.073C53.666 120.795 53.6733 120.54 53.6879 120.343C53.6879 119.904 53.739 119.561 53.7609 119.313C53.7549 119.194 53.7549 119.074 53.7609 118.955C53.7609 118.955 53.7609 119.079 53.7609 119.313C53.7609 119.547 53.7609 119.904 53.7609 120.35C53.7609 120.576 53.7609 120.832 53.7609 121.08C53.7609 121.328 53.6879 121.664 53.644 122C53.5581 122.764 53.4141 123.521 53.2132 124.264C52.7243 126.32 51.924 128.29 50.8401 130.105C49.4131 132.523 47.5339 134.642 45.3051 136.349C41.8314 139.021 37.6264 140.572 33.2495 140.796C32.7748 140.796 32.3002 140.854 31.7891 140.854L30.3287 140.781C30.0877 140.781 29.8394 140.781 29.5985 140.737L28.8683 140.62C28.379 140.547 27.8825 140.489 27.4079 140.387C26.4162 140.168 25.4404 139.882 24.487 139.532C23.5038 139.18 22.5451 138.763 21.6173 138.284C21.1573 138.028 20.7119 137.736 20.2519 137.466C19.7882 137.193 19.3442 136.888 18.9229 136.553C18.047 135.903 17.2129 135.198 16.4256 134.443C15.6536 133.64 14.9341 132.789 14.2715 131.894C12.9036 130.06 11.8432 128.016 11.1316 125.841C9.60977 121.342 9.60977 116.467 11.1316 111.967C11.8463 109.794 12.9065 107.75 14.2715 105.914C15.5609 104.12 17.1316 102.547 18.9229 101.255C19.3585 100.921 19.8172 100.619 20.2957 100.35C20.7557 100.079 21.2011 99.7873 21.6612 99.5391C22.5888 99.0573 23.5475 98.6377 24.5309 98.2831C25.4843 97.9354 26.4601 97.6525 27.4517 97.4361C27.9409 97.3339 28.4374 97.2754 28.9121 97.1951L29.6423 97.0856C29.8832 97.0856 30.1315 97.0856 30.3725 97.0418L31.8329 96.9688C32.3148 96.9688 32.7895 97.0126 33.2933 97.0272C34.2223 97.0728 35.1469 97.1826 36.0608 97.3558C39.1149 97.9394 42.0099 99.1665 44.5531 100.956C47.0963 102.745 49.2295 105.055 50.8109 107.732C51.8972 109.546 52.6977 111.516 53.184 113.574C53.3862 114.316 53.5302 115.073 53.6148 115.837C53.6586 116.166 53.7098 116.472 53.7317 116.75C53.7536 117.027 53.7317 117.283 53.7317 117.517C53.7317 117.962 53.7317 118.305 53.7317 118.554C53.7317 118.802 53.7536 118.889 53.7536 118.889Z" fill="#E0E0E0"/>
<path d="M31.9782 105.406C31.7906 104.034 31.727 102.649 31.7883 101.266C31.7268 99.8852 31.7904 98.5019 31.9782 97.1328C32.1659 98.5019 32.2295 99.8852 32.168 101.266C32.2293 102.649 32.1658 104.034 31.9782 105.406Z" fill="#E0E0E0"/>
<path d="M19.7406 118.892C18.1907 119.084 16.6277 119.148 15.0673 119.082C13.5045 119.148 11.939 119.084 10.3867 118.892C11.9394 118.704 13.5045 118.641 15.0673 118.702C16.6277 118.641 18.1904 118.705 19.7406 118.892Z" fill="#E0E0E0"/>
<path d="M53.6589 118.891C52.2068 119.082 50.7409 119.145 49.2777 119.081C47.8146 119.146 46.3486 119.082 44.8965 118.891C46.3489 118.705 47.8146 118.642 49.2777 118.702C50.7408 118.642 52.2064 118.705 53.6589 118.891Z" fill="#E0E0E0"/>
<path d="M31.979 140.692C31.7897 139.24 31.7262 137.774 31.7891 136.311C31.7262 134.848 31.7897 133.382 31.979 131.93C32.1683 133.382 32.2318 134.848 32.1689 136.311C32.2318 137.774 32.1683 139.24 31.979 140.692Z" fill="#E0E0E0"/>
<path d="M265.315 207.366C265.315 207.366 265.315 207.139 265.264 206.709C265.212 206.278 265.198 205.635 265.147 204.795C265.147 204.379 265.103 203.905 265.066 203.393C265.03 202.882 264.906 202.313 264.818 201.707L264.511 199.742C264.464 199.381 264.386 199.024 264.278 198.676C264.183 198.311 264.088 197.946 263.986 197.545C263.054 193.773 261.552 190.165 259.531 186.847C256.888 182.428 253.417 178.561 249.309 175.456L247.571 174.156C246.957 173.762 246.322 173.389 245.687 173.002L244.723 172.418C244.405 172.213 244.073 172.03 243.73 171.871L241.641 170.87C241.291 170.702 240.911 170.527 240.583 170.366L239.473 169.957L237.209 169.14C236.479 168.884 235.647 168.716 234.851 168.504C234.052 168.27 233.24 168.085 232.419 167.949C230.745 167.639 229.052 167.444 227.351 167.365C226.482 167.365 225.614 167.248 224.73 167.263L222.079 167.402C221.634 167.402 221.181 167.402 220.736 167.482L219.4 167.694C218.509 167.84 217.603 167.942 216.705 168.132C214.888 168.534 213.1 169.056 211.353 169.695L210.024 170.184L209.359 170.432L208.717 170.746L206.124 171.995C205.277 172.455 204.467 172.988 203.627 173.455C203.218 173.718 202.78 173.944 202.386 174.236L201.232 175.12C199.631 176.307 198.111 177.6 196.683 178.99L194.638 181.232L194.127 181.794L193.667 182.407L192.747 183.634L191.827 184.868L191.017 186.19L190.213 187.533L189.812 188.198C189.688 188.424 189.578 188.665 189.468 188.928L188.103 191.754C187.745 192.74 187.373 193.733 187.015 194.726C184.26 202.935 184.26 211.819 187.015 220.027L188.103 222.999L189.461 225.825L189.804 226.555L190.213 227.22L191.017 228.549L191.827 229.871L192.747 231.105L193.667 232.331L194.127 232.945L194.638 233.507L196.676 235.749C198.105 237.137 199.625 238.43 201.225 239.619L202.408 240.502C202.802 240.802 203.24 241.021 203.649 241.284C204.489 241.78 205.299 242.321 206.146 242.744L208.739 244L209.381 244.307C209.6 244.402 209.827 244.475 210.046 244.555L211.375 245.044C213.122 245.685 214.91 246.21 216.727 246.614C217.625 246.797 218.531 246.906 219.421 247.052L220.765 247.257C221.21 247.315 221.656 247.315 222.101 247.344L224.759 247.483C225.635 247.483 226.504 247.41 227.373 247.381C229.088 247.298 230.796 247.1 232.485 246.789L233.098 246.694C233.303 246.658 233.507 246.592 233.704 246.548L234.909 246.242C235.705 246.023 236.508 245.862 237.275 245.606L239.531 244.781L240.641 244.372L241.707 243.876L243.788 242.876C244.132 242.714 244.464 242.528 244.781 242.321L245.745 241.736C246.381 241.349 247.023 241.006 247.629 240.583L249.367 239.29C253.476 236.183 256.947 232.313 259.59 227.892C261.61 224.573 263.112 220.966 264.044 217.194L264.336 216.07C264.444 215.719 264.522 215.36 264.57 214.996L264.877 213.032C264.964 212.426 265.074 211.864 265.132 211.353C265.191 210.842 265.183 210.367 265.205 209.943C265.256 209.111 265.3 208.483 265.322 208.03C265.344 207.578 265.373 207.38 265.373 207.38C265.373 207.38 265.373 207.599 265.373 208.03C265.373 208.461 265.329 209.111 265.293 209.951C265.293 210.367 265.256 210.842 265.227 211.36C265.198 211.878 265.081 212.441 264.993 213.047C264.906 213.653 264.811 214.317 264.701 215.018C264.659 215.384 264.586 215.746 264.482 216.099C264.387 216.464 264.292 216.829 264.197 217.231C263.284 221.026 261.794 224.658 259.78 228.001C257.145 232.458 253.674 236.363 249.557 239.502L247.812 240.809C247.206 241.211 246.556 241.583 245.92 241.977L244.949 242.569C244.632 242.781 244.297 242.966 243.949 243.124L241.853 244.139L240.787 244.65L239.67 245.059L237.392 245.899C236.625 246.154 235.814 246.322 235.011 246.541L233.806 246.855C233.602 246.899 233.398 246.965 233.193 247.001L232.565 247.096C230.878 247.418 229.17 247.621 227.454 247.702C226.585 247.702 225.708 247.819 224.818 247.812L222.145 247.68C221.692 247.644 221.24 247.68 220.794 247.593L219.443 247.388C218.545 247.242 217.625 247.133 216.72 246.95C214.888 246.543 213.086 246.016 211.323 245.373L209.98 244.884L209.308 244.635L208.658 244.321L205.978 243.029C205.124 242.562 204.299 242.028 203.452 241.525C203.043 241.262 202.598 241.035 202.203 240.736L201.013 239.845C199.397 238.649 197.863 237.346 196.42 235.946L194.361 233.682L193.842 233.113L193.375 232.499L192.448 231.258L191.513 230.009L190.703 228.68L189.885 227.344L189.476 226.672L189.133 225.942L187.753 223.087L186.657 220.086C183.869 211.795 183.869 202.82 186.657 194.529C187.03 193.528 187.387 192.528 187.76 191.535C188.132 190.542 188.68 189.629 189.133 188.68C189.249 188.446 189.359 188.205 189.483 187.95L189.885 187.278L190.703 185.942L191.52 184.605L192.448 183.364L193.375 182.123L193.842 181.509L194.361 180.94L196.42 178.676C197.864 177.278 199.399 175.975 201.013 174.777L202.203 173.886C202.598 173.594 203.043 173.368 203.459 173.097C204.299 172.601 205.124 172.06 205.978 171.637L208.593 170.381L209.242 170.067C209.461 169.972 209.688 169.899 209.914 169.811L211.258 169.322C213.02 168.681 214.823 168.157 216.654 167.752C217.559 167.562 218.472 167.46 219.378 167.314L220.728 167.11C221.174 167.051 221.627 167.051 222.079 167.022L224.752 166.891C225.635 166.891 226.519 166.964 227.388 166.993C229.104 167.078 230.811 167.281 232.499 167.599C233.326 167.734 234.143 167.921 234.946 168.161C235.749 168.38 236.552 168.548 237.326 168.804L239.597 169.636L240.721 170.045L241.788 170.556L243.883 171.571C244.229 171.733 244.563 171.918 244.884 172.126L245.847 172.718C246.49 173.112 247.133 173.484 247.746 173.886L249.491 175.193C253.607 178.333 257.078 182.238 259.714 186.694C261.727 190.037 263.217 193.67 264.132 197.464C264.227 197.859 264.322 198.194 264.417 198.603C264.52 198.954 264.594 199.313 264.636 199.677L264.928 201.648C265.015 202.262 265.118 202.817 265.161 203.335C265.205 203.853 265.205 204.328 265.227 204.752C265.264 205.584 265.285 206.212 265.307 206.665C265.329 207.118 265.315 207.366 265.315 207.366Z" fill="#263238"/>
<path d="M225.037 179.046C224.849 177.059 224.786 175.061 224.847 173.066C224.785 171.068 224.849 169.068 225.037 167.078C225.229 169.068 225.293 171.068 225.227 173.066C225.292 175.061 225.229 177.059 225.037 179.046Z" fill="#263238"/>
<path d="M202.422 207.37C202.422 207.472 198.544 207.559 193.769 207.559C188.993 207.559 185.123 207.472 185.123 207.37C185.123 207.267 188.993 207.18 193.769 207.18C198.544 207.18 202.422 207.253 202.422 207.37Z" fill="#263238"/>
<path d="M265.148 207.37C265.148 207.472 261.497 207.559 256.991 207.559C252.486 207.559 248.85 207.472 248.85 207.37C248.85 207.267 252.501 207.18 256.999 207.18C261.497 207.18 265.148 207.253 265.148 207.37Z" fill="#263238"/>
<path d="M225.037 247.646C224.849 245.482 224.785 243.31 224.847 241.139C224.785 238.971 224.849 236.801 225.037 234.641C225.229 236.801 225.293 238.971 225.227 241.139C225.293 243.31 225.229 245.483 225.037 247.646Z" fill="#263238"/>
<path d="M221.722 185.257L219.532 189.295C219.254 189.819 219.137 190.413 219.194 191.004C219.251 191.595 219.48 192.156 219.853 192.617L222.27 195.589L227.63 195.523L230.134 192.654C230.541 192.187 230.794 191.607 230.859 190.992C230.924 190.376 230.799 189.756 230.499 189.214L228.309 185.191C228.165 184.931 227.953 184.715 227.696 184.566C227.439 184.416 227.146 184.34 226.848 184.344L223.132 184.388C222.841 184.394 222.557 184.478 222.309 184.631C222.061 184.783 221.859 185 221.722 185.257Z" fill="#455A64"/>
<path d="M225.526 230.391L218.041 221.65L222.305 195.589L227.665 195.523L232.032 221.329L225.526 230.391Z" fill="#455A64"/>
<path d="M227.599 195.637C226.754 195.847 225.883 195.928 225.014 195.878C224.148 195.955 223.275 195.909 222.422 195.739C223.267 195.531 224.138 195.45 225.007 195.498C225.873 195.419 226.746 195.466 227.599 195.637Z" fill="#263238"/>
<path d="M228.791 186.352C228.595 186.869 228.335 187.359 228.017 187.812C227.491 188.681 226.739 189.864 225.826 191.142C224.913 192.42 224.117 193.551 223.497 194.347C223.188 194.804 222.826 195.22 222.416 195.589C222.651 195.093 222.94 194.625 223.278 194.194L225.512 190.93L227.754 187.666C228.047 187.189 228.395 186.747 228.791 186.352Z" fill="#263238"/>
<path d="M229.811 208.516C228.147 209.834 226.406 211.053 224.598 212.167C222.862 213.398 221.053 214.522 219.18 215.533C220.843 214.202 222.584 212.971 224.393 211.845C226.13 210.626 227.939 209.514 229.811 208.516Z" fill="#FAFAFA"/>
<path d="M228.404 201.227C227.122 202.292 225.786 203.291 224.402 204.22C222.168 205.841 220.386 207.192 220.32 207.141C222.754 204.836 225.47 202.849 228.404 201.227Z" fill="#FAFAFA"/>
<path d="M227.418 195.562C226.576 196.289 225.652 196.914 224.665 197.425C223.752 198.043 222.772 198.558 221.744 198.958C222.586 198.232 223.51 197.607 224.497 197.096C225.411 196.479 226.391 195.964 227.418 195.562Z" fill="#FAFAFA"/>
<path d="M225.162 191.52C224.356 190.941 223.585 190.315 222.854 189.644C222.041 189.07 221.261 188.451 220.518 187.789C222.37 188.598 223.973 189.886 225.162 191.52Z" fill="#FAFAFA"/>
<path d="M227.739 187.292C227.028 186.968 226.372 186.534 225.797 186.006C225.143 185.577 224.566 185.041 224.088 184.422C224.799 184.745 225.455 185.179 226.03 185.707C226.684 186.137 227.261 186.672 227.739 187.292Z" fill="#FAFAFA"/>
<path d="M230.184 192.643C229.466 192.389 228.797 192.013 228.205 191.533C227.544 191.159 226.95 190.677 226.445 190.109C227.152 190.357 227.814 190.72 228.402 191.183C229.074 191.566 229.676 192.06 230.184 192.643Z" fill="#FAFAFA"/>
<path d="M231.12 216.562C229.463 218 227.724 219.341 225.913 220.579C224.174 221.917 222.36 223.156 220.48 224.288C222.136 222.848 223.874 221.507 225.687 220.272C227.425 218.932 229.239 217.694 231.12 216.562Z" fill="#FAFAFA"/>
<path d="M120.405 64.9074C120.405 64.9074 120.405 64.7029 120.354 64.3159C120.303 63.9289 120.296 63.3448 120.245 62.6C120.245 62.2203 120.201 61.7967 120.172 61.3294C120.142 60.8621 120.026 60.3655 119.945 59.8179C119.865 59.2702 119.77 58.6861 119.668 58.0581C119.546 57.3909 119.39 56.7304 119.2 56.0793C118.367 52.6911 117.026 49.4487 115.221 46.4625C112.848 42.4982 109.734 39.0275 106.049 36.2396L104.487 35.0786C103.939 34.7208 103.362 34.3484 102.793 34.0344C102.223 33.7204 101.654 33.3042 101.033 33.0194L99.1564 32.1067L98.2071 31.654L97.2067 31.2889L95.1768 30.5587C94.4904 30.3323 93.7675 30.179 93.0519 29.9891C92.3326 29.7786 91.601 29.6128 90.8613 29.4926C89.3564 29.2125 87.8339 29.0368 86.3048 28.9668C85.5308 28.9668 84.7422 28.8646 83.9535 28.8719L81.5731 28.996C81.1715 28.996 80.7626 28.996 80.3683 29.0764L79.1634 29.2589C78.3602 29.3903 77.5424 29.4853 76.7391 29.6532C75.1077 30.0143 73.5024 30.4851 71.9344 31.0625L70.7369 31.5006L70.1381 31.727L69.5613 32.0045L67.2319 33.129C66.5017 33.5379 65.7715 34.0198 64.9902 34.4652C64.6178 34.7062 64.2235 34.9034 63.873 35.1954L62.8142 35.9914C61.3745 37.054 60.0083 38.2128 58.725 39.4598L56.8922 41.4752L56.4322 41.9863L56.0233 42.534L55.1982 43.6366L54.3657 44.7465L53.6355 45.9294L52.9053 47.127L52.5402 47.7257C52.4307 47.9302 52.3358 48.1419 52.2335 48.3537C51.8246 49.1959 51.4157 50.0429 51.0068 50.8948C50.6855 51.7784 50.3569 52.6692 50.0283 53.5601C47.5558 60.9379 47.5558 68.9207 50.0283 76.2986C50.3569 77.1894 50.6782 78.0803 51.0068 78.9638C51.3354 79.8474 51.8246 80.6652 52.2262 81.5122L52.5329 82.1402L52.898 82.739L53.6282 83.9292L54.3584 85.1194L55.1836 86.2293L56.0087 87.3319L56.4249 87.8796L56.8849 88.3834L58.7031 90.4134C59.9883 91.6584 61.3543 92.817 62.7923 93.8819L63.8511 94.6778C64.2016 94.948 64.5813 95.1451 64.9683 95.408C65.6985 95.8534 66.4287 96.3353 67.21 96.7442L69.5393 97.8688L70.1162 98.1462L70.715 98.3726L71.9125 98.8107C73.4805 99.3881 75.0858 99.8589 76.7172 100.22C77.5278 100.388 78.3383 100.483 79.1415 100.614L80.3464 100.797C80.748 100.848 81.1496 100.848 81.5512 100.877L83.9316 101.001C84.7276 101.001 85.5089 100.936 86.2829 100.906C87.8144 100.836 89.3393 100.661 90.8467 100.381C91.5864 100.26 92.318 100.095 93.0373 99.8841C93.7675 99.6943 94.4977 99.5409 95.1549 99.3146L97.1848 98.5844L98.1852 98.2193L99.1564 97.7154L101.026 96.8173C101.654 96.5325 102.201 96.1309 102.785 95.8023C103.37 95.4737 103.932 95.1159 104.48 94.7581L106.042 93.5971C109.728 90.8105 112.842 87.3396 115.214 83.3742C117.029 80.3929 118.381 77.1527 119.222 73.7648C119.31 73.4143 119.398 73.0784 119.485 72.7498C119.58 72.4348 119.649 72.1124 119.69 71.7859C119.792 71.1579 119.88 70.5738 119.967 70.0261C120.055 69.4785 120.15 68.9746 120.194 68.5146C120.237 68.0546 120.245 67.6238 120.267 67.2441C120.318 66.5139 120.354 65.9224 120.376 65.5281C120.398 65.1338 120.427 64.9439 120.427 64.9439C120.427 64.9439 120.427 65.1411 120.427 65.5281C120.427 65.9151 120.391 66.4992 120.361 67.2514C120.361 67.6311 120.325 68.0546 120.303 68.5219C120.281 68.9892 120.172 69.4931 120.099 70.0407L119.836 71.8151C119.793 72.1407 119.727 72.4628 119.639 72.779C119.551 73.1076 119.463 73.4508 119.376 73.8013C118.558 77.2128 117.221 80.4785 115.411 83.4838C113.044 87.4949 109.922 91.0089 106.217 93.8307L104.655 95.0064C104.1 95.3715 103.523 95.7366 102.946 96.0652C102.369 96.3938 101.807 96.7954 101.179 97.0947L99.2878 98.0075L98.3312 98.4602L97.3236 98.8326L95.279 99.5628C94.5853 99.7965 93.8551 99.9425 93.1395 100.14C92.42 100.351 91.6885 100.519 90.9489 100.644C89.4298 100.931 87.8928 101.114 86.3486 101.191C85.5673 101.191 84.7714 101.293 83.9755 101.286L81.5658 101.169C81.1642 101.169 80.7553 101.169 80.3537 101.089L79.1415 100.906C78.331 100.775 77.5059 100.68 76.688 100.512C75.0399 100.148 73.4177 99.6744 71.8322 99.0955L70.6273 98.6574L69.9483 98.4456L69.3641 98.1608L67.0274 96.9852C66.2607 96.569 65.5232 96.0871 64.7565 95.6343C64.3841 95.4007 64.0263 95.1962 63.632 94.9041L62.5586 94.1009C61.1043 93.0261 59.7236 91.8552 58.4257 90.5959L56.5782 88.5587L56.1109 88.0475L55.6874 87.4926L54.855 86.3827L54.0298 85.302L53.2996 84.1044L52.5694 82.8996L52.197 82.2935L51.8903 81.6583L50.649 79.0952L49.6632 76.3935C48.4638 72.6807 47.8287 68.8088 47.7793 64.9074C47.8287 61.006 48.4638 57.1341 49.6632 53.4213C49.9918 52.5159 50.3277 51.6177 50.6563 50.7269C50.9849 49.836 51.4814 49.0109 51.8903 48.1566C51.9926 47.9448 52.0948 47.733 52.2043 47.5213L52.5694 46.9152L53.2996 45.7104L54.0298 44.5128L54.8696 43.3956L55.702 42.2784L56.1182 41.7308L56.5855 41.2123C57.2062 40.5332 57.8196 39.8541 58.4403 39.1824C59.7352 37.9108 61.1161 36.73 62.5732 35.6482L63.6466 34.845C64.0044 34.5748 64.3768 34.3703 64.7711 34.1148C65.5378 33.662 66.2753 33.1801 67.0421 32.7639L69.3933 31.6321L69.9775 31.3473L70.5835 31.1209L71.7884 30.6828C73.3739 30.1039 74.9961 29.6306 76.6442 29.2662C77.462 29.0983 78.2872 29.0033 79.0977 28.8719L80.3098 28.6893C80.7115 28.6382 81.1204 28.6382 81.522 28.609L83.9316 28.4922C84.7276 28.4922 85.5162 28.5579 86.3048 28.5871C87.8465 28.6648 89.3811 28.8478 90.8978 29.1348C91.6375 29.2583 92.369 29.4266 93.0884 29.6386C93.8186 29.8358 94.5488 29.9818 95.2279 30.2155L97.2725 30.9457L98.2801 31.3181L99.2367 31.7708L101.135 32.7274C101.763 33.0121 102.318 33.4576 102.91 33.757C103.501 34.0563 104.063 34.4872 104.611 34.8157L106.181 35.9914C109.884 38.8125 113.006 42.3236 115.374 46.331C117.184 49.3388 118.522 52.6069 119.339 56.0208C119.527 56.6745 119.68 57.3374 119.799 58.007C119.894 58.6423 119.974 59.2337 120.062 59.7814C120.15 60.329 120.23 60.8329 120.267 61.3002C120.303 61.7675 120.31 62.1911 120.325 62.5708C120.325 63.301 120.376 63.8924 120.391 64.294C120.405 64.6956 120.405 64.9074 120.405 64.9074Z" fill="#263238"/>
<path d="M84.1872 42.4518C83.9992 40.1617 83.9358 37.863 83.9974 35.566C83.9359 33.2714 83.9993 30.9752 84.1872 28.6875C84.3752 30.9752 84.4386 33.2714 84.3771 35.566C84.4387 37.863 84.3753 40.1617 84.1872 42.4518Z" fill="#263238"/>
<path d="M63.8502 64.9094C63.8502 65.0116 60.3671 65.0992 56.0735 65.0992C51.7799 65.0992 48.2969 65.0116 48.2969 64.9094C50.8841 64.7121 53.4797 64.6463 56.0735 64.7122C58.6674 64.6463 61.263 64.7121 63.8502 64.9094Z" fill="#263238"/>
<path d="M120.245 64.909C117.815 65.0963 115.378 65.1597 112.943 65.0988C110.507 65.1595 108.07 65.0962 105.641 64.909C108.069 64.7126 110.507 64.6468 112.943 64.7118C115.378 64.6466 117.816 64.7125 120.245 64.909Z" fill="#263238"/>
<path d="M84.1872 101.121C83.9992 98.7138 83.9358 96.2985 83.9973 93.8847C83.9358 91.471 83.9992 89.0557 84.1872 86.6484C84.3752 89.0557 84.4385 91.471 84.377 93.8847C84.4385 96.2985 84.3752 98.7138 84.1872 101.121Z" fill="#263238"/>
<path d="M95.3147 55.8906H72.9121V78.2932H95.3147V55.8906Z" fill="#455A64"/>
<path d="M79.7689 56.0938C79.8419 56.1741 78.3085 57.7221 76.4027 59.679C74.4968 61.636 73.051 63.2643 72.9707 63.1913C73.885 61.8244 74.9425 60.5588 76.1252 59.4162C77.2183 58.1824 78.4398 57.0687 79.7689 56.0938Z" fill="#FAFAFA"/>
<path d="M84.7348 56.25C84.6407 56.4735 84.5153 56.6824 84.3624 56.8707C84.1069 57.2504 83.7199 57.7907 83.2233 58.4479C82.2375 59.7696 80.821 61.5586 79.178 63.4571C77.535 65.3556 75.9651 67.0132 74.7968 68.1815C74.2199 68.7584 73.738 69.2257 73.3948 69.5324C73.2322 69.7109 73.0454 69.8657 72.8398 69.9924C73.3848 69.2879 73.9751 68.6195 74.6069 67.9917C75.7168 66.7868 77.2503 65.0708 78.8932 63.2088C80.5362 61.3468 81.9747 59.5578 83.0116 58.2873C83.5438 57.5736 84.1193 56.8932 84.7348 56.25Z" fill="#FAFAFA"/>
<path d="M90.3939 56.25C90.2277 56.5647 90.0321 56.863 89.8097 57.1408C89.4081 57.7031 88.8167 58.499 88.0719 59.4775C86.6115 61.4271 84.4647 64.0778 82.0112 66.911C79.5577 69.7441 77.2502 72.2268 75.5343 73.9793C74.6726 74.8629 73.9716 75.5639 73.4751 76.0312C73.2298 76.2982 72.961 76.5426 72.6719 76.7614C72.8804 76.4704 73.1124 76.1968 73.3656 75.9436L75.3371 73.8114C77.002 72.0078 79.2802 69.5032 81.7264 66.6773C84.1726 63.8514 86.3194 61.23 87.8601 59.3242L89.6929 57.0678C89.8999 56.7734 90.1346 56.4995 90.3939 56.25Z" fill="#FAFAFA"/>
<path d="M95.0461 60.2743C95.1264 60.3473 91.6798 64.3561 87.3497 69.2265C83.0196 74.097 79.4416 78.0036 79.3759 77.9306C79.3102 77.8575 82.7422 73.856 87.065 68.9783C91.3878 64.1005 94.9658 60.2085 95.0461 60.2743Z" fill="#FAFAFA"/>
<path d="M95.5045 66.7812C95.2424 67.4243 94.9145 68.0385 94.5261 68.6141C93.8762 69.7094 92.9196 71.199 91.7951 72.7908C90.6706 74.3827 89.6045 75.7774 88.7575 76.7558C88.3434 77.311 87.8736 77.8224 87.3555 78.2819C87.7006 77.685 88.0989 77.1204 88.5457 76.5952C89.2759 75.5729 90.3566 74.1563 91.4665 72.5718C92.5764 70.9872 93.5768 69.5268 94.2851 68.468C94.6427 67.872 95.0506 67.3077 95.5045 66.7812Z" fill="#FAFAFA"/>
<path d="M95.3881 66.6117C95.3881 66.714 90.2767 66.8016 84.0407 66.8016C77.8048 66.8016 72.6934 66.714 72.6934 66.6117C72.6934 66.5095 77.8048 66.4219 84.0407 66.4219C90.2767 66.4219 95.3881 66.5095 95.3881 66.6117Z" fill="#263238"/>
<path d="M84.2172 56.2812C84.3267 56.2812 84.4071 61.2758 84.4071 67.4461C84.4071 73.6163 84.3267 78.6182 84.2172 78.6182C84.1077 78.6182 84.0273 73.6163 84.0273 67.4461C84.0273 61.2758 84.115 56.2812 84.2172 56.2812Z" fill="#263238"/>
<path d="M84.0992 55.5503C83.8515 55.5538 83.6048 55.5168 83.369 55.4408C82.7157 55.2765 82.0798 55.049 81.4705 54.7617C80.5636 54.3296 79.7207 53.7743 78.9659 53.1114C78.5013 52.7288 78.0889 52.2869 77.7392 51.7971C77.5517 51.4987 77.4647 51.1481 77.4909 50.7967C77.5034 50.6058 77.566 50.4216 77.6724 50.2626C77.7788 50.1037 77.9253 49.9756 78.097 49.8913C78.4418 49.755 78.8255 49.755 79.1704 49.8913C79.4824 49.9901 79.7778 50.1353 80.0466 50.3221C80.537 50.6581 80.9986 51.0342 81.4267 51.4466C82.1476 52.1444 82.7692 52.9381 83.2741 53.8051C83.6106 54.389 83.8871 55.0056 84.0992 55.6453C84.1997 55.8762 84.2566 56.1238 84.2672 56.3755C83.9068 55.545 83.4996 54.7356 83.0477 53.9512C82.5209 53.1307 81.8956 52.3779 81.1857 51.7095C80.7651 51.3181 80.3133 50.9615 79.8348 50.6434C79.621 50.4616 79.3679 50.3321 79.0955 50.2649C78.823 50.1977 78.5387 50.1948 78.2649 50.2564C77.7757 50.4681 77.7611 51.1764 78.0604 51.6218C78.3855 52.0848 78.7683 52.5044 79.1996 52.8705C79.9254 53.5251 80.7299 54.0869 81.5946 54.5426C82.4109 54.9229 83.247 55.2593 84.0992 55.5503Z" fill="#263238"/>
<path d="M84.0713 55.6753C84.0605 55.4305 84.0801 55.1852 84.1297 54.9451C84.2299 54.2611 84.3689 53.5834 84.5459 52.9152C84.8035 51.9199 85.1304 50.9439 85.5244 49.9944C85.7435 49.4613 85.999 48.9064 86.2546 48.3441C86.3981 48.0227 86.6219 47.7435 86.9045 47.5336C87.0802 47.4174 87.2923 47.3696 87.5009 47.3992C87.7094 47.4288 87.8999 47.5337 88.0363 47.6942C88.2185 47.9931 88.3377 48.326 88.3867 48.6725C88.4357 49.0191 88.4133 49.372 88.3211 49.7096C88.2298 50.3169 88.0706 50.9121 87.8465 51.484C87.4647 52.4536 86.9078 53.3447 86.2035 54.1127C85.7338 54.6268 85.1957 55.074 84.6044 55.4417C84.394 55.588 84.1626 55.7013 83.918 55.7776C84.6781 55.2244 85.3802 54.5956 86.0136 53.9009C86.6659 53.1393 87.1799 52.2694 87.5325 51.3306C87.7392 50.7814 87.8837 50.2107 87.9633 49.6293C88.0137 49.3277 88.0357 49.0221 88.029 48.7165C88.0225 48.4287 87.931 48.1493 87.7661 47.9133C87.6901 47.8199 87.5815 47.7589 87.4621 47.7426C87.3428 47.7263 87.2218 47.756 87.1236 47.8257C86.896 48.0002 86.7153 48.2285 86.5978 48.4901C86.313 49.0378 86.0502 49.5781 85.8238 50.1039C85.4254 51.0339 85.0768 51.9845 84.7796 52.9517C84.305 54.6311 84.137 55.6826 84.0713 55.6753Z" fill="#263238"/>
<path d="M275.865 76.7463C275.858 76.654 275.858 76.5612 275.865 76.4688L275.829 75.6583C275.778 74.9281 275.829 73.8766 275.668 72.4892C275.361 68.4341 274.694 64.4143 273.675 60.4774C272.943 57.6303 272.023 54.8348 270.922 52.1093C269.626 48.8606 268.068 45.7226 266.263 42.7262C261.864 35.4113 256.115 28.9985 249.323 23.8285C241.076 17.5632 231.479 13.3123 221.297 11.4151C212.672 9.83169 203.821 9.93832 195.236 11.7291C192.223 12.3857 189.255 13.2344 186.35 14.2702C173.993 18.7829 163.246 26.8491 155.462 37.4541C153.433 40.2152 151.621 43.1302 150.044 46.1727C149.226 47.6989 148.533 49.2834 147.817 50.8752C147.101 52.4671 146.51 54.11 145.984 55.7822C144.862 59.1347 144.014 62.5732 143.45 66.0635C142.292 73.1456 142.292 80.369 143.45 87.4511C144.012 90.9364 144.857 94.37 145.977 97.7177C146.51 99.3972 147.167 101.011 147.81 102.632C148.452 104.253 149.219 105.808 150.044 107.335C151.616 110.392 153.425 113.322 155.455 116.097C163.24 126.704 173.99 134.77 186.35 139.281C189.255 140.324 192.226 141.173 195.244 141.822C203.826 143.613 212.674 143.72 221.297 142.136C231.479 140.239 241.076 135.988 249.323 129.723C256.115 124.553 261.864 118.14 266.263 110.825C268.066 107.828 269.624 104.69 270.922 101.442C272.025 98.7043 272.944 95.8966 273.675 93.0371C274.676 89.0913 275.324 85.0642 275.61 81.0034C275.741 79.6087 275.719 78.5426 275.77 77.827L275.807 77.0165C275.799 76.9266 275.799 76.8362 275.807 76.7463C275.814 76.8363 275.814 76.9266 275.807 77.0165V77.827C275.807 78.5572 275.807 79.616 275.719 81.0107C275.497 85.0913 274.893 89.1422 273.916 93.1102C273.205 95.9787 272.302 98.7963 271.214 101.544C269.933 104.818 268.384 107.98 266.585 111C262.192 118.394 256.43 124.882 249.607 130.117C241.307 136.462 231.637 140.776 221.37 142.713C215.682 143.795 209.877 144.134 204.101 143.721C201.075 143.507 198.067 143.09 195.098 142.472C192.052 141.817 189.052 140.966 186.116 139.923C173.612 135.38 162.735 127.234 154.856 116.513C152.8 113.721 150.967 110.771 149.372 107.692C148.547 106.152 147.839 104.545 147.116 102.939C146.393 101.332 145.794 99.6674 145.261 97.9733C144.125 94.583 143.268 91.1054 142.698 87.5752C141.525 80.411 141.525 73.1036 142.698 65.9393C143.265 62.4118 144.12 58.9365 145.254 55.5485C145.794 53.8545 146.466 52.2188 147.116 50.5831C147.766 48.9475 148.54 47.3703 149.372 45.8295C150.964 42.7512 152.798 39.8041 154.856 37.016C162.731 26.2964 173.606 18.1522 186.109 13.613C189.044 12.568 192.044 11.7143 195.09 11.0573C203.753 9.27183 212.681 9.18256 221.378 10.7944C231.641 12.733 241.309 17.0467 249.607 23.3904C256.432 28.6252 262.197 35.1133 266.592 42.5071C268.39 45.5403 269.939 48.715 271.221 51.9997C272.309 54.7475 273.212 57.5651 273.923 60.4336C274.901 64.4016 275.505 68.4524 275.727 72.533C275.836 73.935 275.785 75.0011 275.814 75.7167V76.5273C275.835 76.5993 275.852 76.6724 275.865 76.7463Z" fill="#263238"/>
<path d="M209.022 35.3183C208.81 35.3183 208.635 29.63 208.635 22.6201C208.635 15.6102 208.81 9.92188 209.022 9.92188C209.234 9.92188 209.401 15.6102 209.401 22.6201C209.401 29.63 209.226 35.3183 209.022 35.3183Z" fill="#263238"/>
<path d="M171.506 76.7469C171.506 76.9514 165.08 77.1266 157.157 77.1266C149.234 77.1266 142.809 76.9514 142.809 76.7469C142.809 76.5424 149.234 76.3672 157.157 76.3672C165.08 76.3672 171.506 76.5424 171.506 76.7469Z" fill="#263238"/>
<path d="M275.551 76.7469C275.551 76.9514 269.497 77.1266 262.027 77.1266C254.557 77.1266 248.504 76.9514 248.504 76.7469C248.504 76.5424 254.557 76.3672 262.027 76.3672C269.497 76.3672 275.551 76.5424 275.551 76.7469Z" fill="#263238"/>
<path d="M209.022 143.563C208.81 143.563 208.635 137.583 208.635 130.215C208.635 122.847 208.81 116.859 209.022 116.859C209.234 116.859 209.401 122.84 209.401 130.215C209.401 137.59 209.226 143.563 209.022 143.563Z" fill="#263238"/>
<path d="M188.629 46.2105C189.969 44.6569 191.679 43.4667 193.601 42.7506C195.524 42.0345 197.596 41.8155 199.626 42.1141V49.6571C201.446 49.7407 203.221 50.254 204.805 51.1551C206.389 52.0562 207.737 53.3195 208.739 54.8415C208.739 54.8415 213.799 49.1825 217.377 49.5257V41.9242C217.377 41.9242 223.503 41.6103 227.271 48.2113L220.992 53.4249L217.246 65.2104C217.246 65.2104 223.029 75.4333 223.657 93.9512L223.503 111.228H193.185L193.061 99.1137C193.035 96.4079 193.182 93.7031 193.499 91.0158C194.383 83.5969 196.588 69.2265 200.728 65.2031L196.274 53.8558L188.629 46.2105Z" fill="#084C3F"/>
<path d="M217.245 65.2099C217.245 65.3121 213.543 65.4216 208.987 65.4581C204.43 65.4946 200.721 65.4581 200.721 65.3267C200.721 65.1952 204.416 65.1076 208.979 65.0784C213.543 65.0492 217.245 65.1003 217.245 65.2099Z" fill="#263238"/>
<path d="M206.942 57.9766C206.628 58.2853 206.237 58.5046 205.81 58.6119C204.796 58.9497 203.703 58.9675 202.678 58.663C201.654 58.3558 200.751 57.7383 200.093 56.8959C199.791 56.5737 199.584 56.1745 199.494 55.7422C199.545 55.7422 199.772 56.1511 200.297 56.7207C200.973 57.4595 201.832 58.0062 202.787 58.3052C203.74 58.5779 204.748 58.593 205.708 58.349C206.497 58.1665 206.913 57.9255 206.942 57.9766Z" fill="#263238"/>
<path d="M218.581 55.0234C218.615 55.5122 218.484 55.9981 218.209 56.4035C217.603 57.4235 216.623 58.1673 215.478 58.4773C214.345 58.765 213.155 58.7347 212.039 58.3897C211.571 58.2931 211.13 58.0963 210.746 57.8128C211.206 57.8853 211.66 57.9902 212.104 58.1268C213.18 58.3837 214.3 58.3837 215.376 58.1268C216.435 57.8339 217.358 57.1773 217.982 56.2721C218.21 55.8699 218.41 55.4527 218.581 55.0234Z" fill="#263238"/>
<path d="M222.305 79.3961C222.305 79.4326 221.911 79.5786 221.239 79.973C220.312 80.5562 219.443 81.2287 218.647 81.981C217.474 83.1414 216.138 84.1253 214.682 84.9018C213.78 85.3176 212.798 85.5343 211.805 85.5371C210.749 85.5305 209.7 85.3757 208.687 85.0771C206.606 84.4929 204.78 83.5729 203.035 83.0179C201.521 82.4528 199.89 82.2721 198.289 82.4922C197.214 82.6516 196.203 83.1038 195.368 83.7992C195.078 84.0764 194.802 84.3689 194.543 84.6755C194.543 84.6755 194.579 84.5732 194.689 84.3907C194.851 84.1247 195.045 83.8795 195.266 83.6605C196.097 82.896 197.132 82.3887 198.245 82.2001C199.893 81.9319 201.583 82.0903 203.152 82.6601C204.934 83.2078 206.767 84.1205 208.797 84.6828C210.826 85.245 212.9 85.34 214.543 84.5513C215.978 83.7969 217.303 82.8485 218.479 81.7327C219.302 80.9895 220.206 80.3405 221.173 79.7977C221.442 79.6579 221.72 79.5383 222.006 79.4399C222.201 79.3961 222.3 79.3815 222.305 79.3961Z" fill="#FAFAFA"/>
<path d="M218.523 69.2368C218.523 69.2733 218.209 69.2368 217.669 69.2368C216.909 69.3689 216.19 69.6736 215.566 70.1276C214.734 70.6534 213.835 71.4493 212.645 72.0773C211.359 72.758 209.953 73.1821 208.505 73.3259C207.056 73.4799 205.592 73.3433 204.197 72.9243C203.066 72.594 201.995 72.0889 201.02 71.4274C200.366 70.9764 199.768 70.4494 199.239 69.8575C199.027 69.6421 198.85 69.3959 198.713 69.1273C199.475 69.8762 200.298 70.5601 201.174 71.1718C202.14 71.7971 203.193 72.2768 204.299 72.5957C205.653 72.9811 207.068 73.105 208.468 72.9608C209.869 72.8174 211.23 72.4163 212.485 71.7779C213.638 71.1937 214.551 70.4197 215.405 69.9086C216.074 69.4559 216.844 69.1751 217.647 69.0908C217.865 69.0766 218.084 69.0938 218.297 69.1419C218.458 69.2368 218.531 69.2368 218.523 69.2368Z" fill="#FAFAFA"/>
<path d="M218.033 61.4134C218.033 61.4134 218.033 61.4791 217.909 61.5668C217.767 61.7011 217.598 61.8033 217.413 61.8661C216.718 62.0722 215.971 62.0124 215.317 61.6982C214.429 61.2163 213.47 60.8763 212.477 60.6905C211.246 60.5831 210.005 60.717 208.826 61.0848C207.54 61.428 206.35 61.8807 205.175 62.1509C204.168 62.4196 203.127 62.5329 202.086 62.4868C201.38 62.4515 200.688 62.2699 200.056 61.9538C199.881 61.8745 199.717 61.774 199.567 61.6544C199.464 61.5814 199.413 61.5302 199.421 61.5229C200.255 61.9418 201.168 62.1783 202.1 62.2166C203.112 62.2217 204.12 62.0865 205.094 61.815C206.204 61.5302 207.387 61.0848 208.694 60.7197C209.921 60.3358 211.213 60.2066 212.491 60.34C213.521 60.5407 214.509 60.9161 215.412 61.4499C216.01 61.767 216.7 61.8627 217.362 61.7201C217.597 61.6447 217.822 61.5418 218.033 61.4134Z" fill="#FAFAFA"/>
<path d="M221.487 53.1182C221.487 53.1182 221.209 52.8554 220.603 52.556C219.744 52.1507 218.786 51.9987 217.843 52.1179C216.448 52.3243 215.112 52.8219 213.922 53.5783C212.454 54.5664 210.857 55.3477 209.176 55.9003C208.267 56.1452 207.314 56.1727 206.394 55.9806C205.56 55.7699 204.754 55.4636 203.991 55.0679C202.778 54.3423 201.441 53.8472 200.048 53.6075C199.107 53.4674 198.147 53.6584 197.332 54.1478C197.064 54.3654 196.819 54.6101 196.602 54.878C196.602 54.878 196.602 54.7831 196.726 54.6298C196.875 54.4044 197.06 54.2047 197.273 54.0383C198.098 53.474 199.101 53.2323 200.092 53.3592C200.772 53.4097 201.44 53.5674 202.071 53.8265C202.75 54.0894 203.436 54.4399 204.166 54.7904C204.909 55.1632 205.69 55.4522 206.496 55.652C207.359 55.8294 208.252 55.8019 209.103 55.5717C210.751 55.0232 212.321 54.2648 213.776 53.3154C215.007 52.5331 216.396 52.0343 217.843 51.855C218.831 51.7512 219.826 51.9498 220.698 52.4245C220.93 52.5574 221.143 52.7194 221.334 52.9065C221.436 53.0379 221.494 53.1109 221.487 53.1182Z" fill="#FAFAFA"/>
<path d="M225.481 45.8736C225.481 45.9905 223.7 45.4355 221.465 45.3771C219.231 45.3187 217.449 45.7495 217.42 45.6327C220.043 44.7022 222.919 44.7881 225.481 45.8736Z" fill="#FAFAFA"/>
<path d="M189.512 47.3823C189.512 47.3823 189.512 47.2143 189.68 46.9953C189.939 46.7004 190.293 46.5043 190.68 46.4403C191.232 46.3784 191.79 46.3957 192.338 46.4914C192.99 46.5606 193.646 46.5947 194.302 46.5937C195.995 46.5154 197.678 46.2906 199.333 45.9219C198.9 46.1873 198.422 46.3728 197.924 46.4695C196.747 46.8002 195.531 46.9697 194.309 46.9734C193.635 46.973 192.962 46.9291 192.294 46.8419C191.776 46.7305 191.246 46.6839 190.717 46.7032C190.373 46.7392 190.048 46.8764 189.782 47.0975C189.599 47.2581 189.534 47.3896 189.512 47.3823Z" fill="#FAFAFA"/>
<path d="M223.509 93.6821C223.096 93.5408 222.674 93.4262 222.246 93.3389C221.059 93.2128 219.861 93.4361 218.799 93.9815C218.056 94.33 217.354 94.7585 216.704 95.2593C215.974 95.7924 215.243 96.4204 214.513 97.063C213.7 97.7535 212.813 98.3534 211.87 98.8519C210.826 99.3721 209.669 99.6231 208.504 99.5821C206.094 99.4945 204.027 98.4503 202.231 97.5595L197.485 95.0841L194.294 93.3827L193.439 92.9008C193.242 92.784 193.147 92.7255 193.155 92.7109C193.268 92.7344 193.376 92.7763 193.476 92.8351L194.367 93.2513L197.609 94.8431L202.392 97.2455C204.181 98.1217 206.225 99.1221 208.511 99.2024C209.619 99.2296 210.716 98.9785 211.702 98.4722C212.627 97.9923 213.496 97.412 214.294 96.7417C215.083 96.121 215.813 95.493 216.543 94.96C217.224 94.457 217.959 94.0309 218.734 93.6894C219.843 93.1487 221.092 92.9602 222.312 93.1491C222.638 93.2117 222.955 93.3173 223.254 93.463C223.349 93.5238 223.435 93.5976 223.509 93.6821Z" fill="#FAFAFA"/>
<path d="M223.649 105.016C223.232 104.965 222.813 104.935 222.393 104.928C221.253 104.996 220.141 105.313 219.136 105.856C217.837 106.491 216.471 107.579 214.755 108.521C213.849 109.032 212.861 109.381 211.834 109.551C210.735 109.697 209.62 109.658 208.534 109.434C206.49 108.934 204.486 108.282 202.539 107.484C200.964 106.858 199.283 106.546 197.588 106.564C196.446 106.588 195.327 106.886 194.324 107.433C193.63 107.842 193.316 108.163 193.295 108.163C193.273 108.163 193.353 108.068 193.506 107.915C193.73 107.695 193.975 107.496 194.237 107.323C195.239 106.706 196.383 106.356 197.559 106.308C199.303 106.248 201.041 106.538 202.67 107.163C204.608 107.937 206.596 108.576 208.622 109.076C209.664 109.292 210.735 109.332 211.791 109.193C212.77 109.038 213.714 108.712 214.58 108.229C216.259 107.323 217.654 106.243 219.005 105.629C220.048 105.089 221.204 104.804 222.379 104.797C222.696 104.802 223.012 104.844 223.321 104.921C223.435 104.934 223.546 104.966 223.649 105.016Z" fill="#FAFAFA"/>
<path d="M167.796 181.107C167.787 181.022 167.787 180.936 167.796 180.851C167.796 180.676 167.796 180.427 167.76 180.121C167.708 179.456 167.76 178.463 167.606 177.163C167.341 173.383 166.735 169.634 165.795 165.962C165.118 163.31 164.261 160.707 163.232 158.171C162.028 155.148 160.577 152.23 158.895 149.445C154.8 142.637 149.45 136.668 143.13 131.854C135.45 126.034 126.52 122.084 117.047 120.317C109.023 118.84 100.789 118.941 92.8043 120.617C89.9983 121.222 87.2347 122.01 84.5311 122.975C73.0325 127.176 63.033 134.683 55.7903 144.553C53.9024 147.122 52.2178 149.834 50.7519 152.665C50.0217 154.082 49.3426 155.586 48.6781 157.046C48.0136 158.507 47.466 160.055 46.9694 161.61C45.9299 164.73 45.1436 167.929 44.6182 171.176C43.5375 177.767 43.5375 184.49 44.6182 191.081C45.1367 194.329 45.9231 197.529 46.9694 200.647C47.4587 202.202 48.0793 203.706 48.6708 205.218C49.2623 206.729 49.9852 208.175 50.7446 209.599C52.213 212.43 53.9 215.143 55.7903 217.712C63.0285 227.587 73.0293 235.098 84.5311 239.296C87.2347 240.261 89.9983 241.049 92.8043 241.655C100.791 243.329 109.028 243.431 117.054 241.954C126.527 240.192 135.457 236.238 143.13 230.41C149.452 225.596 154.804 219.627 158.902 212.819C160.58 210.033 162.028 207.115 163.232 204.093C164.249 201.553 165.093 198.948 165.759 196.295C166.698 192.621 167.304 188.869 167.57 185.086C167.694 183.794 167.672 182.801 167.723 182.165C167.723 181.837 167.723 181.588 167.76 181.435C167.75 181.35 167.75 181.264 167.76 181.18C167.771 181.264 167.771 181.35 167.76 181.435V182.165C167.76 182.83 167.76 183.83 167.687 185.13C167.481 188.927 166.921 192.697 166.014 196.39C164.551 202.242 162.254 207.854 159.194 213.053C155.101 219.936 149.736 225.977 143.385 230.855C135.658 236.763 126.656 240.781 117.098 242.59C108.991 244.098 100.667 244.014 92.5925 242.341C89.754 241.735 86.9586 240.942 84.2244 239.968C72.5793 235.739 62.4485 228.154 55.1112 218.172C53.1947 215.572 51.4856 212.825 49.9998 209.957C49.2257 208.496 48.5394 207.036 47.8968 205.532C47.2542 204.028 46.67 202.48 46.1735 200.91C45.1271 197.737 44.3431 194.484 43.8295 191.183C43.3038 187.852 43.0304 184.486 43.0117 181.114C43.0341 177.739 43.3074 174.371 43.8295 171.037C44.3594 167.752 45.158 164.516 46.2173 161.362C46.7138 159.785 47.3418 158.259 47.9479 156.732C48.554 155.206 49.2769 153.746 50.0509 152.307C51.5367 149.442 53.2458 146.697 55.1623 144.1C62.4965 134.119 72.6253 126.536 84.2682 122.311C87.0002 121.338 89.7931 120.545 92.629 119.937C100.704 118.265 109.027 118.181 117.135 119.689C126.693 121.494 135.696 125.513 143.422 131.424C149.776 136.295 155.142 142.335 159.231 149.219C160.907 152.033 162.348 154.981 163.539 158.032C165.969 164.133 167.385 170.591 167.73 177.149C167.825 178.449 167.781 179.442 167.803 180.113V180.844C167.813 180.931 167.81 181.02 167.796 181.107Z" fill="#263238"/>
<path d="M105.591 142.543C105.379 142.543 105.211 137.256 105.211 130.728C105.211 124.2 105.379 118.906 105.591 118.906C105.802 118.906 105.97 124.2 105.97 130.728C105.97 137.256 105.795 142.543 105.591 142.543Z" fill="#263238"/>
<path d="M70.6796 181.106C70.6796 181.318 64.6992 181.486 57.3242 181.486C49.9491 181.486 43.9688 181.318 43.9688 181.106C43.9688 180.895 49.9491 180.727 57.3242 180.727C64.6992 180.727 70.6796 180.895 70.6796 181.106Z" fill="#263238"/>
<path d="M167.519 181.106C167.519 181.318 161.882 181.486 154.93 181.486C147.979 181.486 142.342 181.318 142.342 181.106C142.342 180.895 147.979 180.727 154.93 180.727C161.882 180.727 167.519 180.895 167.519 181.106Z" fill="#263238"/>
<path d="M105.591 243.296C105.379 243.296 105.211 237.732 105.211 230.882C105.211 224.033 105.379 218.469 105.591 218.469C105.802 218.469 105.97 224.033 105.97 230.882C105.97 237.732 105.795 243.296 105.591 243.296Z" fill="#263238"/>
<path d="M68.7363 159.102L97.112 150.945C97.112 150.945 96.1335 159.102 105.59 159.102C115.046 159.102 115.367 150.945 115.367 150.945L142.436 159.102V175.4H127.437L127.109 211.275H84.7205V174.765H71.0219L68.7363 159.102Z" fill="#084C3F"/>
<path d="M127.343 185.236C127.343 185.236 127.233 185.28 127 185.345C126.656 185.438 126.304 185.497 125.948 185.521C124.57 185.603 123.2 185.256 122.027 184.528C120.178 183.36 118.742 181.641 117.923 179.613C117.392 178.366 117.062 177.043 116.945 175.692C116.789 174.171 116.953 172.634 117.427 171.18C117.69 170.379 118.186 169.675 118.851 169.157C119.22 168.895 119.655 168.742 120.107 168.715C120.558 168.688 121.008 168.788 121.406 169.004C122.197 169.477 122.812 170.195 123.159 171.048C123.529 171.907 123.727 172.83 123.743 173.764C123.772 175.789 123.217 177.778 122.145 179.495C121.072 181.212 119.528 182.584 117.697 183.447C116.707 183.888 115.646 184.151 114.564 184.221C113.46 184.27 112.356 184.127 111.3 183.797C109.108 183.122 107.19 181.763 105.824 179.92C105.099 178.981 104.572 177.905 104.273 176.757C103.975 175.609 103.911 174.412 104.086 173.239C104.262 172.005 104.908 170.888 105.89 170.121C106.387 169.723 106.981 169.465 107.61 169.371C108.24 169.278 108.883 169.352 109.475 169.588C110.071 169.849 110.578 170.278 110.935 170.822C111.263 171.354 111.493 171.94 111.614 172.552C111.838 173.747 111.793 174.977 111.483 176.152C110.938 178.452 109.779 180.562 108.131 182.257C106.58 183.875 104.581 184.994 102.391 185.47C100.2 185.946 97.9176 185.758 95.8346 184.929C93.8724 184.156 92.2179 182.761 91.1248 180.957C90.0943 179.281 89.5859 177.337 89.6644 175.371C89.7024 174.439 89.8975 173.521 90.2413 172.655C90.5631 171.793 91.1449 171.053 91.9061 170.537C92.2866 170.31 92.7091 170.161 93.1482 170.101C93.5874 170.041 94.0342 170.07 94.4619 170.186C95.2761 170.4 96.013 170.841 96.5867 171.457C97.0901 172.046 97.4503 172.743 97.639 173.494C97.8278 174.246 97.84 175.03 97.6747 175.787C97.4275 177.133 96.8561 178.399 96.0099 179.475C94.6663 181.204 92.8232 182.479 90.7305 183.126C89.4212 183.535 88.0435 183.679 86.6779 183.549C86.3259 183.517 85.9769 183.458 85.6337 183.374L85.2832 183.286C85.4033 183.297 85.5228 183.314 85.641 183.337C85.9854 183.407 86.3344 183.451 86.6852 183.469C88.0382 183.57 89.3979 183.404 90.6867 182.98C92.7324 182.33 94.531 181.072 95.8419 179.372C96.6555 178.321 97.204 177.088 97.4411 175.78C97.5923 175.06 97.5761 174.315 97.3938 173.602C97.2115 172.889 96.8679 172.228 96.3896 171.669C95.8503 171.094 95.1591 170.684 94.3961 170.486C94.0045 170.381 93.5958 170.356 93.1944 170.413C92.793 170.469 92.407 170.606 92.0595 170.814C91.3557 171.299 90.8199 171.991 90.5261 172.793C90.1961 173.63 90.0109 174.516 89.9784 175.415C89.9125 177.319 90.4214 179.2 91.4388 180.811C92.4816 182.54 94.0612 183.881 95.9369 184.63C97.9557 185.42 100.164 185.594 102.281 185.128C104.399 184.663 106.33 183.58 107.832 182.016C109.432 180.369 110.557 178.32 111.089 176.086C111.381 174.963 111.424 173.789 111.213 172.647C111.135 172.081 110.923 171.541 110.594 171.074C110.265 170.606 109.828 170.224 109.321 169.96C108.792 169.751 108.217 169.686 107.654 169.771C107.091 169.855 106.561 170.087 106.116 170.442C105.213 171.155 104.62 172.188 104.458 173.326C104.294 174.45 104.357 175.596 104.645 176.695C104.932 177.793 105.437 178.823 106.13 179.723C107.444 181.503 109.291 182.817 111.403 183.476C112.421 183.788 113.485 183.926 114.55 183.885C115.585 183.821 116.602 183.574 117.551 183.155C119.323 182.323 120.818 181 121.86 179.343C122.902 177.687 123.447 175.765 123.429 173.808C123.421 172.912 123.235 172.026 122.881 171.201C122.563 170.409 121.997 169.74 121.268 169.296C120.918 169.103 120.521 169.012 120.122 169.034C119.723 169.056 119.338 169.19 119.011 169.42C118.392 169.904 117.927 170.559 117.675 171.304C117.213 172.715 117.046 174.206 117.186 175.685C117.294 177.013 117.609 178.317 118.12 179.548C118.91 181.547 120.304 183.249 122.107 184.418C123.252 185.147 124.592 185.508 125.948 185.455C126.418 185.418 126.884 185.345 127.343 185.236Z" fill="#FAFAFA"/>
<path d="M42.501 243.678C42.501 243.678 54.5713 244.007 55.5425 237.837C56.5136 231.666 57.0905 224.102 57.0905 224.102H59.7265C59.7265 224.102 58.9379 237.245 58.0033 240.166C57.0686 243.087 51.9645 245.65 49.5913 245.949C47.2182 246.249 40.7559 245.949 40.7559 245.949L42.501 243.678Z" fill="#455A64"/>
<path d="M57.0684 222.029L86.2765 205.234C87.776 205.319 89.2176 205.843 90.4223 206.74C91.627 207.637 92.5416 208.868 93.0528 210.28C93.5596 211.522 93.8081 212.853 93.783 214.194C93.7166 215.502 93.2525 216.759 92.4526 217.796C91.6527 218.834 90.5552 219.602 89.3068 219.999L59.7701 229.85L57.0684 222.029Z" fill="#455A64"/>
<path d="M51.1035 216.924L78.2086 200.363C78.9606 199.911 79.8213 199.672 80.6986 199.672C81.5759 199.672 82.4367 199.911 83.1886 200.363C84.5176 201.151 85.832 202.648 86.3796 205.474C87.6575 212.111 84.8608 213.565 84.8608 213.565L54.09 224.335L51.1035 216.924Z" fill="#455A64"/>
<path d="M60.3835 224.961C61.1137 227.115 60.8947 229.291 59.8213 229.824C58.7479 230.357 57.2656 229.043 56.4988 226.904C55.7321 224.764 55.995 222.566 57.0684 222.033C58.1418 221.5 59.6241 222.807 60.3835 224.961Z" fill="#263238"/>
<path d="M54.9504 219.375C55.7171 221.529 55.4615 223.705 54.3881 224.238C53.3147 224.771 51.8324 223.457 51.0657 221.318C50.299 219.178 50.5618 216.98 51.6279 216.447C52.694 215.914 54.191 217.221 54.9504 219.375Z" fill="#263238"/>
<path d="M88.9999 220.114C88.9342 220.114 89.3723 219.267 89.6425 217.829C90.0158 215.959 89.8361 214.022 89.1254 212.253C88.4147 210.484 87.2039 208.96 85.641 207.869C84.4507 207.022 83.5672 206.73 83.5964 206.664C83.812 206.686 84.0221 206.745 84.2171 206.839C84.7702 207.049 85.299 207.319 85.7943 207.643C87.4531 208.712 88.7393 210.269 89.4757 212.1C90.212 213.931 90.3621 215.945 89.9054 217.865C89.7732 218.442 89.5798 219.002 89.3285 219.538C89.2529 219.747 89.1417 219.942 88.9999 220.114Z" fill="#263238"/>
<path d="M76.8418 201.628C77.2416 201.375 77.7143 201.262 78.1854 201.307C79.3292 201.363 80.4137 201.833 81.2376 202.628C82.035 203.418 82.6744 204.352 83.1215 205.381C83.3451 205.782 83.5052 206.216 83.5962 206.666C83.3063 206.308 83.0611 205.915 82.866 205.498C82.362 204.546 81.7225 203.673 80.9674 202.906C80.198 202.171 79.212 201.705 78.1562 201.577C77.7174 201.57 77.2787 201.587 76.8418 201.628Z" fill="#263238"/>
<path d="M80.5807 210C79.4806 210.834 78.3075 211.567 77.0757 212.191C75.9013 212.923 74.665 213.551 73.3809 214.067C74.4788 213.23 75.6522 212.497 76.8858 211.877C78.0554 211.136 79.2925 210.507 80.5807 210Z" fill="#FAFAFA"/>
<path d="M83.3048 208.411C83.3559 208.499 83.1734 208.71 82.8959 208.878C82.6184 209.046 82.3409 209.112 82.2898 209.017C82.2387 208.922 82.4213 208.718 82.6987 208.55C82.9762 208.382 83.2537 208.316 83.3048 208.411Z" fill="#FAFAFA"/>
<path d="M73.8347 204.422C72.5844 205.244 71.2899 205.997 69.9573 206.678C68.6866 207.48 67.3727 208.211 66.0215 208.869C67.1692 207.894 68.4263 207.056 69.7674 206.372C71.0454 205.571 72.4098 204.917 73.8347 204.422Z" fill="#FAFAFA"/>
<path d="M76.4631 202.517C76.5289 202.597 76.2879 202.882 75.9374 203.138C75.5869 203.393 75.2437 203.547 75.2072 203.459C75.1707 203.371 75.3824 203.094 75.7402 202.838C76.098 202.583 76.4047 202.429 76.4631 202.517Z" fill="#FAFAFA"/>
<path d="M86.2976 205.213C86.2158 205.294 86.1252 205.365 86.0275 205.425L85.2169 205.965C84.4867 206.433 83.4718 207.083 82.1793 207.879C79.5944 209.463 75.9945 211.595 71.9565 213.888C67.9184 216.181 64.3112 218.204 61.6533 219.664L58.4915 221.365L57.6226 221.811C57.5234 221.867 57.418 221.911 57.3086 221.942C57.3086 221.942 57.3962 221.862 57.5861 221.738L58.4185 221.234L61.5219 219.43L71.7958 213.552L82.0187 207.645L85.1147 205.834L85.9691 205.352C86.1808 205.25 86.2903 205.199 86.2976 205.213Z" fill="#263238"/>
<path d="M25.5597 207.246L23.3691 251L42.1061 252.767L43.143 242.143C43.143 242.143 49.7149 243.778 51.7521 237.667C53.0373 233.76 54.1764 203.172 54.1764 203.172L25.5597 207.246Z" fill="#FFBE9D"/>
<path d="M58.2669 207.694C56.6678 211.498 50.6363 214.762 50.6363 214.762L49.6359 224.445C48.7413 224.383 47.8434 224.383 46.9488 224.445C47.4307 219.896 41.5745 220.794 40.983 223.882C40.4062 226.862 43.8016 228.855 43.8016 228.855C41.4577 232.448 40.5084 234.346 37.186 237.713C33.5861 241.364 31.651 241.656 27.9343 241.546L23.8452 241.356C23.8452 241.356 22.3848 237.859 21.3187 229.6C20.8075 225.628 17.6677 220.421 18.5877 213.966C21.0996 195.609 41.4066 198.866 41.4066 198.866C49.008 192.944 62.0056 198.749 58.2669 207.694Z" fill="#263238"/>
<path d="M54.206 286.106L57.7109 290.575L70.3069 272.057C69.8469 271.495 69.3796 271.02 63.9396 264.025C58.3097 256.723 52.8989 249.312 43.8152 247.8C37.4624 246.727 30.5182 245.945 25.2242 245.945C20.7992 245.989 16.2208 247.851 12.1974 250.757C8.34124 253.607 5.28787 257.405 3.33404 261.784C1.38022 266.162 0.592405 270.972 1.04718 275.745L4.96107 309.269L1.57293 340.872H55.7467L54.206 286.106Z" fill="#084C3F"/>
<path d="M62.4213 262.05C62.361 262.062 62.2991 262.062 62.2388 262.05H61.7057H59.6539C58.763 262.05 57.6677 262.101 56.4118 262.225C54.99 262.352 53.5838 262.616 52.2131 263.014C51.4213 263.252 50.6574 263.576 49.9349 263.978C49.1664 264.432 48.4637 264.99 47.8465 265.635C46.5437 267.132 45.3249 268.699 44.1955 270.331C43.5316 271.196 42.7804 271.992 41.9538 272.704C41.0789 273.497 40.0388 274.085 38.9088 274.427C37.7416 274.72 36.52 274.72 35.3527 274.427C34.1763 274.15 33.018 273.802 31.8843 273.383C30.7671 272.977 29.6049 272.707 28.4231 272.58C27.2812 272.496 26.1345 272.653 25.0569 273.04C23.0169 273.845 21.1522 275.038 19.5657 276.552C18.0031 277.961 16.6449 279.407 15.1407 280.605C13.8203 281.775 12.2783 282.669 10.6061 283.233C9.18782 283.594 7.70166 283.594 6.28334 283.233C5.21449 282.983 4.20653 282.521 3.31872 281.875C2.75854 281.468 2.26575 280.975 1.85831 280.415L1.58814 279.955C1.55371 279.905 1.52666 279.851 1.50781 279.794C2.01433 280.552 2.65826 281.208 3.40634 281.729C4.28536 282.345 5.27831 282.779 6.32715 283.007C7.71309 283.329 9.15667 283.309 10.5331 282.949C12.1514 282.371 13.6401 281.48 14.9143 280.327C16.3747 279.137 17.7329 277.691 19.2956 276.267C20.909 274.714 22.8119 273.494 24.8962 272.675C26.0228 272.269 27.2214 272.103 28.4158 272.185C29.6349 272.318 30.8323 272.605 31.9792 273.04C33.1037 273.447 34.2494 273.793 35.4111 274.077C36.5214 274.351 37.6817 274.351 38.792 274.077C39.8503 273.762 40.8288 273.224 41.6617 272.499C42.4686 271.804 43.2026 271.029 43.8523 270.185C45.0065 268.546 46.2549 266.976 47.5909 265.482C48.2398 264.821 48.977 264.254 49.7815 263.795C50.5219 263.388 51.3057 263.064 52.1182 262.831C53.5091 262.446 54.9353 262.201 56.3753 262.101C57.6458 261.999 58.7411 261.984 59.6393 261.984C60.5374 261.984 61.2238 261.984 61.6911 262.035H62.2242C62.2902 262.029 62.3569 262.034 62.4213 262.05Z" fill="#FAFAFA"/>
<path d="M67.933 269.107C66.8358 269.124 65.7437 269.261 64.6763 269.516C63.4298 269.829 62.226 270.293 61.091 270.896C59.5785 271.675 58.1965 272.685 56.9946 273.89C55.5487 275.36 54.4487 277.133 53.7744 279.082C53.3582 280.111 52.9566 281.207 52.4381 282.287C51.9135 283.419 51.197 284.452 50.3205 285.339C49.3934 286.303 48.164 286.919 46.8375 287.085C45.4781 287.182 44.1119 287.074 42.7848 286.763C41.4524 286.438 40.0729 286.352 38.7103 286.508C37.3308 286.774 36.1054 287.558 35.2856 288.698C34.4441 289.831 33.8179 291.108 33.4382 292.466C33.0366 293.803 32.7591 295.168 32.3867 296.497C32.0526 297.822 31.5077 299.084 30.773 300.236C30.0344 301.323 29.083 302.25 27.9763 302.959C25.9224 304.283 23.4526 304.803 21.0394 304.42C18.7758 304.025 16.9429 302.908 15.2781 302.025C13.8226 301.142 12.2385 300.492 10.5829 300.097C9.32978 299.821 8.03162 299.821 6.77852 300.097C5.98975 300.277 5.26365 300.666 4.67554 301.221C4.27393 301.601 4.14249 301.879 4.11328 301.857C4.14141 301.789 4.17823 301.725 4.22281 301.667C4.33858 301.487 4.47057 301.319 4.61712 301.163C5.20536 300.585 5.94 300.179 6.74201 299.987C8.01611 299.678 9.34287 299.656 10.6267 299.922C12.3087 300.299 13.9205 300.939 15.4022 301.82C17.0817 302.696 18.9072 303.784 21.0905 304.142C23.4259 304.489 25.8074 303.969 27.7865 302.682C28.8504 301.993 29.7644 301.096 30.4736 300.046C31.1843 298.921 31.7072 297.688 32.0216 296.395C32.394 295.088 32.6715 293.722 33.0804 292.357C33.4695 290.95 34.1157 289.628 34.9863 288.457C35.8612 287.245 37.1679 286.414 38.6373 286.135C40.0434 285.973 41.4671 286.06 42.8432 286.391C44.1335 286.699 45.4626 286.812 46.7863 286.727C48.0355 286.57 49.1942 285.993 50.0723 285.091C51.8612 283.346 52.628 281.017 53.475 278.965C53.8716 277.949 54.3605 276.971 54.9354 276.044C55.4568 275.187 56.085 274.399 56.8047 273.7C58.9728 271.569 61.6822 270.072 64.6398 269.37C65.1582 269.239 65.6329 269.195 66.0418 269.129C66.4507 269.063 66.772 269.071 67.0787 269.071H67.714L67.933 269.107Z" fill="#FAFAFA"/>
<path d="M2.91016 328.522C2.91482 328.459 2.92962 328.397 2.95397 328.339C2.99778 328.193 3.0489 328.018 3.12192 327.806C3.36948 327.129 3.69802 326.484 4.10039 325.886C4.73654 324.935 5.55571 324.121 6.51006 323.49C7.10392 323.089 7.74688 322.765 8.42319 322.527C9.17405 322.244 9.96041 322.067 10.7598 322.001C12.5877 321.9 14.4211 322.035 16.2145 322.402C18.1422 322.746 20.1795 323.249 22.3409 323.607C24.5846 324.032 26.888 324.032 29.1317 323.607C30.3086 323.373 31.4418 322.956 32.4907 322.373C33.5636 321.772 34.4774 320.924 35.1559 319.898C35.8103 318.854 36.2497 317.689 36.4484 316.473C36.6527 315.282 36.7892 314.08 36.8573 312.873C37.0325 310.507 37.2443 308.083 38.4345 306.134C39.0087 305.197 39.7784 304.395 40.6909 303.782C41.5469 303.223 42.4569 302.751 43.4072 302.373C45.2327 301.643 46.9925 301.124 48.4675 300.387C49.8081 299.746 51.0129 298.854 52.0163 297.758C52.7606 296.919 53.3314 295.942 53.6958 294.881C53.9754 293.965 54.147 293.019 54.2069 292.062C54.2152 292.126 54.2152 292.189 54.2069 292.252V292.807C54.1678 293.526 54.0403 294.237 53.8272 294.925C53.4781 296.016 52.9146 297.026 52.1697 297.897C51.1625 299.034 49.9419 299.962 48.577 300.628C47.1166 301.395 45.3203 301.913 43.524 302.665C42.5938 303.035 41.7053 303.503 40.8734 304.06C40.0022 304.647 39.2696 305.417 38.7266 306.316C37.6021 308.178 37.3903 310.529 37.2224 312.888C37.1563 314.112 37.0198 315.331 36.8135 316.539C36.6059 317.804 36.1492 319.015 35.4699 320.102C34.7697 321.184 33.824 322.084 32.7097 322.731C31.6258 323.33 30.4559 323.759 29.2413 324.002C26.9487 324.42 24.5978 324.403 22.3116 323.95C20.121 323.578 18.1057 323.067 16.1852 322.716C14.4228 322.338 12.6192 322.186 10.8183 322.264C10.0383 322.326 9.26986 322.491 8.53272 322.753C6.79561 323.346 5.29036 324.473 4.23182 325.973C3.69092 326.767 3.24719 327.622 2.91016 328.522Z" fill="#FAFAFA"/>
<path d="M69.7381 225.836L66.9341 226.96C66.9341 226.96 67.3941 229.545 67.8176 235.277C67.92 236.614 67.7249 237.957 67.2464 239.21C66.7679 240.462 66.0178 241.593 65.0502 242.521C55.5575 251.481 30.884 247.786 26.3494 246.822C22.2749 245.953 23.7645 243.47 23.7645 243.47L23.8156 242.47C20.4128 242.594 20.6684 246.545 20.6684 246.545C21.5713 247.522 22.6921 248.272 23.9397 248.735C26.9537 249.997 30.1678 250.714 33.4324 250.853C38.405 251.101 47.6129 251.378 55.0391 250.546C65.408 249.378 69.0663 242.974 70.2054 240.075C70.5254 239.27 70.7176 238.42 70.7749 237.556C71.2277 230.4 69.7381 225.836 69.7381 225.836Z" fill="#263238"/>
<path d="M84.1811 274.837L75.4187 235.661L78.8579 223.474L78.6462 223.54C78.6462 222.62 78.6462 218.516 78.4855 218.18C78.4388 217.992 78.3304 217.825 78.1775 217.705C78.0247 217.586 77.8362 217.521 77.6422 217.521C77.4481 217.521 77.2596 217.586 77.1068 217.705C76.9539 217.825 76.8455 217.992 76.7988 218.18C76.6951 218.533 76.6604 218.903 76.6965 219.268C76.7623 220.919 76.6965 222.532 76.7404 224.168L76.6454 224.205C76.5505 223.044 76.3168 220.137 76.3095 218.159C76.3378 217.726 76.2833 217.292 76.1489 216.881C76.0889 216.675 75.9656 216.494 75.7964 216.363C75.6272 216.232 75.4209 216.157 75.2069 216.15C75.0109 216.189 74.8293 216.281 74.6823 216.416C74.5354 216.551 74.4288 216.725 74.3745 216.917C74.2734 217.338 74.2585 217.775 74.3307 218.202C74.411 220.108 74.6009 222.474 74.5497 224.453C74.0853 222.253 73.7416 220.03 73.5202 217.793C73.5051 217.353 73.4137 216.918 73.25 216.508C73.1776 216.314 73.0481 216.147 72.8786 216.029C72.7091 215.91 72.5076 215.845 72.3007 215.844C72.1009 215.89 71.9189 215.994 71.7764 216.142C71.6339 216.289 71.5371 216.475 71.4975 216.676C71.4048 217.098 71.385 217.533 71.4391 217.961C71.6241 220.575 71.8091 223.194 71.994 225.818H71.921C71.5647 223.485 71.045 221.179 70.3657 218.918C70.3027 218.64 70.1861 218.377 70.0225 218.144C69.9393 218.031 69.8282 217.943 69.7001 217.886C69.572 217.83 69.4314 217.808 69.2923 217.823C69.1549 217.863 69.0312 217.94 68.9346 218.045C68.8381 218.151 68.7723 218.281 68.7446 218.421C68.6935 218.701 68.6935 218.988 68.7446 219.268C69.0172 221.736 69.2071 224.212 69.3142 226.695L67.7297 230.828C67.423 230.404 66.5686 229.119 66.5686 229.119L66.9337 227.724C67.2477 225.38 66.7804 224.438 66.5686 224.124C66.3569 223.81 64.4291 228.922 64.0713 229.491C63.7135 230.061 66.021 235.231 65.9334 235.545L66.9483 247.228L71.5705 275.538L69.6793 273.128L60.2305 287.075L64.0275 290.609C68.0144 294.728 74.0459 295.721 79.3618 292.106C85.846 287.572 85.4298 280.941 84.1811 274.837Z" fill="#FFBE9D"/>
<path d="M48.0937 321.89C47.9862 321.285 47.9422 320.671 47.9623 320.057C47.9623 318.838 47.8965 317.136 47.8454 315.084C47.7578 310.878 47.6045 305.081 47.2978 298.677C46.9911 292.273 46.5676 286.482 46.2755 282.291C46.1294 280.232 46.0053 278.552 45.9177 277.333C45.8478 276.724 45.8478 276.109 45.9177 275.5C46.0931 276.085 46.2057 276.687 46.2536 277.296C46.4215 278.465 46.626 280.151 46.8523 282.247C47.2978 286.431 47.787 292.229 48.0937 298.64C48.4004 305.051 48.4661 310.871 48.4223 315.077C48.4223 317.187 48.3493 318.889 48.2908 320.064C48.292 320.678 48.2259 321.29 48.0937 321.89Z" fill="#263238"/>
<path d="M48.3051 332.27C48.1007 332.27 47.7575 330.809 47.5749 328.984C47.3924 327.158 47.3705 325.639 47.5749 325.617C47.7794 325.596 48.1153 327.078 48.3051 328.903C48.495 330.729 48.5169 332.248 48.3051 332.27Z" fill="#263238"/>
<path d="M44.7867 250.814C44.1477 250.926 43.5161 251.077 42.8955 251.266C41.2624 251.934 39.9158 253.154 39.0911 254.713C38.5012 255.76 38.117 256.91 37.9593 258.101C37.8208 259.477 37.9121 260.866 38.2295 262.212C38.5902 263.71 39.1244 265.161 39.8213 266.535C40.1718 267.265 40.5515 267.995 40.9896 268.726C41.2014 269.076 41.4205 269.456 41.6468 269.784C41.8732 270.113 42.1653 270.442 42.4281 270.777C46.8094 276.137 50.7598 281 53.5053 284.615C54.8854 286.426 55.9734 287.901 56.689 288.959C57.0917 289.482 57.4346 290.048 57.7113 290.646C57.2464 290.181 56.8237 289.675 56.448 289.135C55.6667 288.134 54.513 286.71 53.0891 284.951L41.8367 271.201C41.5665 270.858 41.3036 270.536 41.0262 270.164C40.7487 269.792 40.5661 269.434 40.3398 269.061C39.9089 268.331 39.5073 267.601 39.1495 266.871C38.4386 265.438 37.8994 263.925 37.5431 262.366C37.2283 260.94 37.1567 259.471 37.3313 258.021C37.526 256.757 37.9676 255.543 38.6311 254.45C39.1745 253.547 39.8771 252.751 40.7049 252.099C41.3338 251.617 42.0434 251.251 42.8006 251.018C43.0727 250.926 43.3544 250.865 43.6403 250.836C43.8474 250.798 44.058 250.784 44.2683 250.792C44.6115 250.77 44.7867 250.784 44.7867 250.814Z" fill="#263238"/>
</svg>
