<svg width="372" height="380" viewBox="0 0 372 380" fill="none" xmlns="http://www.w3.org/2000/svg">
<path d="M352.425 97.7109C341.378 103.431 332.913 113.273 326.825 124.107C320.737 134.94 316.812 146.843 312.93 158.642L309.51 219.531C322.336 197.684 332.665 171.998 335.452 146.851L326.902 146.09C332.639 145.235 337.453 141.062 340.514 136.137C343.575 131.212 345.149 125.543 346.688 119.951L336.307 121.473C344.529 115.913 350.299 107.406 352.425 97.7109Z" fill="#E0E0E0"/>
<path d="M307.628 233.792C307.628 233.792 279.736 200.445 280.061 168.585H291.322C291.322 168.585 279.086 160.548 280.061 156.042C281.036 151.536 281.344 134.486 281.344 134.486L291.604 137.051C291.604 137.051 283.909 133.195 282.917 127.081C281.925 120.967 285.166 92.6562 285.166 92.6562C285.166 92.6562 297.718 105.85 301.583 119.36C305.448 132.87 315.58 148.637 312.605 189.808C309.629 230.979 307.628 233.792 307.628 233.792Z" fill="#EBEBEB"/>
<path d="M321.773 236.952C321.773 236.952 351.982 216.832 358.694 191.155L349.639 188.692C349.639 188.692 361.234 184.904 361.447 181.074C361.661 177.243 365.124 163.46 365.124 163.46L356.283 163.28C356.283 163.28 363.337 161.861 365.449 157.158C367.561 152.455 371.178 128.992 371.178 128.992C371.178 128.992 358.19 136.85 352.127 146.846C346.065 156.841 334.462 167.367 327.844 201.099C321.226 234.831 321.773 236.952 321.773 236.952Z" fill="#EBEBEB"/>
<path d="M292.828 121.758C292.871 121.871 292.903 121.989 292.922 122.108L293.162 123.134C293.367 124.058 293.666 125.392 294.017 127.093C294.367 128.795 294.872 130.924 295.333 133.378C295.795 135.832 296.402 138.62 296.967 141.715C298.155 147.905 299.412 155.302 300.712 163.527C302.011 171.753 303.217 180.834 304.337 190.376C305.457 199.919 306.278 209.051 306.902 217.353C307.527 225.656 307.98 233.146 308.236 239.439C308.399 242.586 308.467 245.425 308.553 247.939C308.638 250.453 308.681 252.59 308.698 254.352C308.715 256.113 308.741 257.456 308.749 258.405V259.465C308.749 259.696 308.749 259.824 308.749 259.824C308.735 259.705 308.735 259.584 308.749 259.465C308.749 259.2 308.749 258.858 308.707 258.405C308.707 257.456 308.63 256.096 308.57 254.352C308.51 252.607 308.45 250.444 308.339 247.947C308.228 245.45 308.142 242.595 307.963 239.457C307.672 233.163 307.176 225.682 306.535 217.387C305.893 209.093 304.996 199.97 303.901 190.428C302.807 180.885 301.55 171.821 300.31 163.587C299.07 155.353 297.813 147.965 296.667 141.775C296.12 138.671 295.564 135.883 295.094 133.421C294.624 130.958 294.239 128.855 293.854 127.128C293.469 125.4 293.247 124.084 293.059 123.152C292.974 122.715 292.914 122.373 292.862 122.117C292.84 121.999 292.828 121.878 292.828 121.758Z" fill="#E0E0E0"/>
<path d="M303.754 254.219C303.754 254.219 278.239 225.284 270.313 207.789L276.298 205.224C271.955 205.942 267.517 204.078 264.157 201.248C260.796 198.418 258.325 194.724 255.931 191.039L263.806 189.713C256.569 187.647 250.405 182.873 246.594 176.383C255.888 177.913 264.302 183.018 271.237 189.397C276.846 194.527 281.6 200.564 286.166 206.686C288.398 209.673 290.342 212.866 291.972 216.22C296.23 225.078 303.814 243.59 303.754 254.219Z" fill="#EBEBEB"/>
<path d="M359.086 145.836C359.056 145.94 359.016 146.04 358.966 146.135C358.863 146.34 358.735 146.623 358.573 146.99C358.205 147.743 357.675 148.82 357.008 150.197C356.341 151.573 355.494 153.283 354.545 155.276C353.596 157.268 352.502 159.508 351.347 162.022C348.987 167.033 346.285 173.044 343.37 179.765C340.454 186.485 337.384 193.933 334.357 201.808C331.33 209.683 328.577 217.259 326.191 224.185C323.806 231.111 321.779 237.378 320.155 242.671C319.3 245.305 318.616 247.716 317.974 249.82C317.333 251.923 316.803 253.744 316.375 255.232C315.948 256.72 315.606 257.849 315.375 258.652L315.101 259.507C315.072 259.61 315.035 259.71 314.99 259.807C315.002 259.699 315.025 259.593 315.059 259.49C315.11 259.268 315.187 258.969 315.29 258.592C315.503 257.78 315.811 256.626 316.213 255.172C316.615 253.719 317.119 251.855 317.735 249.743C318.351 247.631 319.026 245.211 319.847 242.569C321.437 237.267 323.455 230.983 325.832 224.04C328.209 217.096 330.963 209.504 333.973 201.637C336.982 193.77 340.12 186.314 343.028 179.594C345.935 172.873 348.705 166.879 351.099 161.885C352.271 159.371 353.391 157.131 354.357 155.156C355.323 153.181 356.178 151.488 356.922 150.111L358.555 146.939C358.744 146.597 358.889 146.312 358.992 146.084C359.018 146 359.05 145.917 359.086 145.836Z" fill="#E0E0E0"/>
<path d="M305.921 266.63C305.87 266.453 305.833 266.273 305.809 266.091C305.75 265.698 305.664 265.185 305.57 264.561C305.476 263.936 305.348 263.073 305.177 262.132C305.006 261.192 304.843 260.106 304.587 258.926C304.134 256.557 303.475 253.753 302.646 250.675C301.816 247.596 300.722 244.262 299.431 240.816C298.14 237.37 296.703 234.163 295.318 231.29C293.933 228.417 292.548 225.895 291.325 223.817C290.735 222.765 290.145 221.851 289.615 221.03C289.085 220.209 288.674 219.508 288.298 218.943L287.443 217.635C287.335 217.487 287.246 217.326 287.178 217.156C287.305 217.287 287.42 217.431 287.52 217.584L288.418 218.849C288.811 219.396 289.273 220.081 289.794 220.893C290.316 221.705 290.923 222.603 291.504 223.655C292.77 225.724 294.164 228.246 295.6 231.111C297.037 233.975 298.447 237.207 299.764 240.662C301.081 244.116 302.107 247.502 302.954 250.572C303.8 253.642 304.39 256.48 304.809 258.866C305.048 260.055 305.185 261.14 305.331 262.09C305.476 263.039 305.587 263.86 305.656 264.535C305.724 265.211 305.775 265.681 305.809 266.083C305.87 266.26 305.907 266.444 305.921 266.63Z" fill="#E0E0E0"/>
<path d="M339.591 259.82H283.738V271.21H339.591V259.82Z" fill="#E0E0E0"/>
<path d="M289.068 271.203L295.105 309.51H328.854L334.489 271.203H289.068Z" fill="#E0E0E0"/>
<path d="M336.17 271.199C336.17 271.327 325.601 271.421 312.57 271.421C299.539 271.421 288.971 271.327 288.971 271.199C288.971 271.071 299.539 270.977 312.57 270.977C325.601 270.977 336.17 271.079 336.17 271.199Z" fill="#EBEBEB"/>
<path d="M248.544 52.0648C247.792 54.924 246.529 57.6237 244.816 60.0339L248.485 63.4542L264.132 77.5797L263.764 77.7507C263.764 77.7507 277.309 68.2938 281.054 65.207C284.141 62.6418 292.4 57.4089 293.076 52.3127C293.189 51.4071 293.015 50.4888 292.58 49.6868C292.144 48.8847 291.469 48.2392 290.648 47.8408C290.085 47.5542 289.454 47.4288 288.825 47.4786C288.196 47.5285 287.592 47.7515 287.082 48.123C287.082 48.123 290.724 43.8477 287.843 41.0431C284.961 38.2385 282.713 40.436 282.713 40.436C282.713 40.436 286.278 35.0064 282.969 31.9966C282.284 31.4709 281.456 31.165 280.593 31.1193C279.731 31.0735 278.875 31.2899 278.138 31.7401L279.48 30.3036L286.398 22.856C287.223 21.9922 287.683 20.8439 287.683 19.6495C287.683 18.4552 287.223 17.3068 286.398 16.4431C285.974 16.0138 285.468 15.6739 284.91 15.4436C284.352 15.2132 283.754 15.0969 283.151 15.1017C282.547 15.1065 281.951 15.2322 281.397 15.4714C280.843 15.7106 280.342 16.0585 279.925 16.4944L260.464 36.8619L261.456 25.7461C261.704 22.8646 257.813 20.7782 256.086 21.8385C256.086 21.8385 253.427 22.8731 252.666 27.3793C252.161 30.7824 248.544 52.0648 248.544 52.0648Z" fill="#F5F5F5"/>
<path d="M248.546 52.0684C248.546 52.0684 248.546 51.8803 248.614 51.5126C248.683 51.1449 248.751 50.5977 248.862 49.8965C249.093 48.46 249.426 46.3737 249.863 43.6803L251.487 33.83C251.806 31.909 252.146 29.854 252.505 27.665C252.655 26.5174 252.993 25.4024 253.505 24.3645C254.038 23.2318 254.923 22.3019 256.028 21.7138C256.719 21.3719 257.517 21.3136 258.251 21.5514C258.975 21.7791 259.642 22.158 260.209 22.6629C260.82 23.1761 261.274 23.8521 261.517 24.6125C261.577 24.8091 261.594 25.0143 261.637 25.211C261.679 25.4077 261.637 25.63 261.637 25.8266L261.534 26.9981C261.26 30.1447 260.975 33.4395 260.679 36.8825L260.32 36.7201L278.045 18.1995C278.447 17.7891 278.84 17.3445 279.242 16.9511C279.634 16.5039 280.069 16.0971 280.542 15.737C281.574 15.0375 282.836 14.7648 284.065 14.976C284.687 15.0831 285.28 15.3145 285.811 15.6563C286.341 15.9981 286.797 16.4433 287.151 16.9653C287.506 17.4873 287.751 18.0754 287.873 18.6944C287.995 19.3134 287.991 19.9506 287.861 20.568C287.736 21.1942 287.496 21.7916 287.152 22.3295C286.789 22.8264 286.383 23.29 285.937 23.7147L283.424 26.4081L278.293 31.8719L277.994 31.4871C279.003 30.8994 280.195 30.7074 281.337 30.9484C281.816 31.0538 282.275 31.2357 282.697 31.4871C282.918 31.6073 283.115 31.7666 283.278 31.9574C283.454 32.1313 283.614 32.3202 283.757 32.5218C284.323 33.3211 284.622 34.2786 284.612 35.2579C284.517 37.1364 283.927 38.9564 282.902 40.5336L282.526 40.2258C282.993 39.8127 283.561 39.5315 284.173 39.4113C284.785 39.291 285.417 39.3361 286.006 39.5418C286.581 39.757 287.111 40.0758 287.571 40.4823C287.802 40.6652 288.014 40.8715 288.203 41.098L288.503 41.44L288.733 41.8333C288.994 42.3615 289.144 42.937 289.175 43.525C289.205 44.113 289.116 44.7011 288.913 45.2536C288.544 46.338 287.985 47.3483 287.263 48.2377L286.946 47.8871C287.448 47.5274 288.032 47.2996 288.645 47.2249C289.257 47.1502 289.879 47.2309 290.452 47.4596C291.29 47.7925 292.011 48.3651 292.525 49.1058C293.039 49.8465 293.324 50.7223 293.342 51.6237C293.329 52.2036 293.237 52.7789 293.069 53.3339C292.686 54.3986 292.144 55.399 291.461 56.3009C288.716 59.8152 285.151 62.2863 281.944 64.7232C278.738 67.1601 275.566 69.5543 272.539 71.7347L263.86 77.8484L263.68 77.5406L264.048 77.3695L264.005 77.6688L248.409 63.5518H248.571L248.486 63.6373L248.4 63.5604L244.749 60.1401L244.689 60.0803L244.741 60.0119C246.012 58.2352 247.047 56.3008 247.819 54.2573C248.084 53.5647 248.255 53.0175 248.366 52.6498C248.477 52.2821 248.546 52.1026 248.546 52.1026C248.389 52.8467 248.177 53.5784 247.913 54.2915C247.177 56.3662 246.161 58.3309 244.895 60.1316V60.0033C245.955 60.9866 247.135 62.0726 248.571 63.4235H248.409L248.486 63.338L248.58 63.415L264.262 77.4893L264.467 77.6688L264.219 77.78L263.851 77.951L263.629 77.5833L272.282 71.4354C275.292 69.2465 278.481 66.9806 281.645 64.4154C284.809 61.8502 288.4 59.4903 291.051 56.0529C291.703 55.1933 292.219 54.2388 292.581 53.2227C292.734 52.7114 292.82 52.1826 292.838 51.6494C292.821 51.1167 292.705 50.5918 292.496 50.1017C292.061 49.103 291.25 48.3163 290.238 47.9128C289.736 47.7144 289.191 47.6456 288.654 47.7129C288.118 47.7801 287.607 47.9812 287.169 48.2976L285.86 49.2638L286.904 47.9641C287.585 47.1242 288.109 46.1684 288.451 45.1424C288.643 44.646 288.729 44.1152 288.704 43.5837C288.679 43.0523 288.543 42.5319 288.306 42.0556C287.74 41.1279 286.879 40.4173 285.86 40.0377C285.357 39.8605 284.817 39.8194 284.293 39.9185C283.768 40.0176 283.28 40.2534 282.876 40.602L281.696 41.6709L282.509 40.3113C283.483 38.8139 284.044 37.0851 284.133 35.3007C284.184 34.4235 283.922 33.5567 283.395 32.854C282.867 32.1513 282.108 31.658 281.252 31.4615C280.227 31.2489 279.16 31.4257 278.259 31.9574L276.899 32.7099L277.96 31.5812L283.09 26.1174C283.939 25.2167 284.777 24.3189 285.604 23.4239C286.016 23.0064 286.388 22.5512 286.716 22.0644C287.026 21.5783 287.243 21.0391 287.357 20.474C287.473 19.9156 287.476 19.3398 287.365 18.7803C287.255 18.2208 287.034 17.689 286.716 17.2162C286.394 16.7539 285.985 16.3595 285.511 16.0558C285.037 15.7521 284.508 15.5449 283.954 15.4462C282.849 15.2506 281.711 15.4929 280.781 16.1217C280.334 16.4653 279.922 16.8519 279.55 17.2761L278.353 18.5245L260.611 37.0023L260.209 37.3956L260.269 36.8141C260.576 33.3939 260.876 30.0763 261.166 26.9382C261.308 26.1924 261.308 25.4267 261.166 24.6809C260.945 23.9884 260.533 23.3722 259.978 22.9024C259.445 22.4294 258.814 22.0791 258.131 21.8763C257.491 21.6613 256.793 21.7011 256.181 21.9874C255.154 22.5432 254.331 23.4118 253.83 24.4671C253.327 25.4711 252.995 26.5519 252.847 27.665C252.47 29.8454 252.111 31.9403 251.786 33.83C251.119 37.6607 250.547 40.9612 250.076 43.6632C249.606 46.3651 249.221 48.4344 248.982 49.8623C248.854 50.5635 248.76 51.0936 248.683 51.4698C248.606 51.8461 248.546 52.0684 248.546 52.0684Z" fill="#E0E0E0"/>
<path d="M239.724 60.1797L239.899 59.9923C240.557 59.2882 241.468 58.8744 242.431 58.842C243.395 58.8095 244.331 59.161 245.035 59.8192L264.312 77.8387C265.014 78.4953 265.427 79.4041 265.459 80.3651C265.492 81.3261 265.141 82.2605 264.484 82.9629L264.309 83.1503C263.651 83.8544 262.74 84.2682 261.777 84.3006C260.814 84.3331 259.877 83.9816 259.173 83.3234L239.903 65.3097C239.2 64.6531 238.788 63.7444 238.755 62.7834C238.723 61.8224 239.073 60.8879 239.73 60.1855L239.724 60.1797Z" fill="#F5F5F5"/>
<path d="M259.162 83.3051C259.162 83.3051 259.367 83.4761 259.804 83.724C260.347 84.0329 260.961 84.1952 261.586 84.1952C262.211 84.1952 262.826 84.0329 263.369 83.724C263.893 83.3942 264.344 82.9606 264.694 82.45C265.111 81.8311 265.317 81.0948 265.283 80.3497C265.249 79.6046 264.977 78.8901 264.506 78.3115L244.84 59.9876C244.39 59.5671 243.834 59.276 243.232 59.145C242.63 59.0141 242.004 59.0482 241.42 59.2437C240.865 59.448 240.364 59.7759 239.956 60.2026C239.547 60.6293 239.24 61.1435 239.06 61.7063C238.903 62.2549 238.885 62.8341 239.009 63.3912C239.133 63.9483 239.395 64.4655 239.77 64.8957C240.582 65.708 241.48 66.5117 242.292 67.2813L251.09 75.5839L256.99 81.2016L258.581 82.7493C258.773 82.9219 258.951 83.1107 259.111 83.3136C258.899 83.1637 258.699 82.9979 258.512 82.8177L256.862 81.3384L250.877 75.8319L242.01 67.6148C241.155 66.8281 240.3 66.0756 239.445 65.2035C239.009 64.7197 238.702 64.134 238.553 63.5003C238.403 62.8666 238.416 62.2055 238.59 61.578C238.793 60.9389 239.14 60.3548 239.604 59.8702C240.068 59.3856 240.636 59.0134 241.266 58.782C241.927 58.5691 242.632 58.5361 243.31 58.6864C243.988 58.8367 244.613 59.1648 245.122 59.6371C252.818 66.8281 259.744 73.318 264.712 78.1063C265.217 78.7421 265.504 79.5237 265.53 80.3353C265.556 81.147 265.32 81.9454 264.857 82.6125C264.479 83.1506 263.989 83.5999 263.42 83.9293C262.937 84.1964 262.399 84.3513 261.847 84.3824C261.088 84.4276 260.335 84.2332 259.692 83.8267C259.49 83.6812 259.311 83.5052 259.162 83.3051Z" fill="#E0E0E0"/>
<path d="M270.914 39.1012C271.974 37.6185 273.162 36.231 274.463 34.9542C275.646 33.5696 276.951 32.2934 278.362 31.1406C277.304 32.623 276.12 34.0106 274.822 35.2877C273.636 36.6736 272.329 37.95 270.914 39.1012Z" fill="#E0E0E0"/>
<path d="M278.283 44.9978C278.83 44.0461 279.516 43.1815 280.318 42.4326C281.005 41.5877 281.808 40.8449 282.704 40.2266C282.16 41.1805 281.474 42.0455 280.669 42.7917C279.987 43.6413 279.183 44.3847 278.283 44.9978Z" fill="#E0E0E0"/>
<path d="M282.672 52.833C283.219 51.8815 283.905 51.0169 284.707 50.2678C285.388 49.4177 286.196 48.6767 287.101 48.0703C286.553 49.0211 285.867 49.8856 285.066 50.6355C284.382 51.4837 283.575 52.2244 282.672 52.833Z" fill="#E0E0E0"/>
<path d="M281.882 11.644C281.013 9.96598 280.292 8.21496 279.728 6.41104C279.004 4.66491 278.432 2.85979 278.018 1.01562C278.885 2.69473 279.606 4.44554 280.172 6.24858C280.896 7.99471 281.468 9.79983 281.882 11.644Z" fill="#E0E0E0"/>
<path d="M286.973 12.88C288.126 10.7501 289.42 8.69915 290.846 6.7407C292.139 4.69226 293.567 2.73265 295.121 0.875C293.964 3.0048 292.667 5.05571 291.239 7.01432C289.951 9.06364 288.526 11.0234 286.973 12.88Z" fill="#E0E0E0"/>
<path d="M290.674 17.2338C292.536 16.598 294.446 16.1119 296.386 15.7802C298.291 15.2951 300.233 14.9662 302.191 14.7969C300.335 15.445 298.427 15.9341 296.488 16.259C294.58 16.7444 292.636 17.0705 290.674 17.2338Z" fill="#E0E0E0"/>
<path d="M45.5301 198.484L18.0742 309.497H25.2995L53.4309 198.484H45.5301Z" fill="#F5F5F5"/>
<path d="M97.2413 198.484L122.927 309.497H115.702L89.332 198.484H97.2413Z" fill="#F5F5F5"/>
<path d="M75.7801 307.865H67.3663L66.1094 180.453H74.5231L75.7801 307.865Z" fill="#F5F5F5"/>
<path d="M129.674 105.625H10.9668V181.674H129.674V105.625Z" fill="#EBEBEB"/>
<path d="M100.141 197.328H40.5605V204.673H100.141V197.328Z" fill="#F5F5F5"/>
<path d="M18.8493 171.757C18.9226 172.218 18.9512 172.685 18.9348 173.151H18.7724C18.6527 169.431 18.5586 157.11 18.5586 142.506C18.5586 133.698 18.627 125.721 18.6441 119.855C18.6441 117.016 18.7125 114.725 18.7382 113.015C18.7382 112.254 18.7382 111.638 18.7895 111.142C18.7893 110.924 18.8093 110.706 18.8493 110.492C18.9003 110.705 18.9204 110.924 18.9092 111.142C18.9092 111.638 18.9092 112.254 18.969 113.015C18.969 114.725 19.0203 117.042 19.0631 119.855C19.0631 125.721 19.1144 133.698 19.1486 142.506C19.1486 157.11 19.0545 169.431 18.9348 173.151H18.7724C18.7627 172.685 18.7884 172.219 18.8493 171.757Z" fill="#F5F5F5"/>
<path d="M27.6916 171.757C27.7525 172.219 27.7782 172.685 27.7685 173.151H27.6317C27.512 169.431 27.418 157.11 27.418 142.506C27.418 133.698 27.4864 125.721 27.5035 119.855C27.5462 117.016 27.5804 114.725 27.5975 113.015C27.5975 112.254 27.5975 111.638 27.6574 111.142C27.6461 110.924 27.6663 110.705 27.7172 110.492C27.7564 110.706 27.7736 110.924 27.7685 111.142C27.7685 111.638 27.7685 112.254 27.8284 113.015C27.8284 114.725 27.8797 117.042 27.9224 119.855C27.9224 125.721 27.9738 133.698 28.008 142.506C28.008 157.11 27.9139 169.431 27.7942 173.151H27.6317C27.6068 172.685 27.6269 172.219 27.6916 171.757Z" fill="#F5F5F5"/>
<path d="M36.5251 171.757C36.586 172.219 36.6117 172.685 36.6021 173.151H36.4396C36.3199 169.431 36.2344 157.11 36.2344 142.506C36.2344 133.698 36.2942 125.721 36.3199 119.855C36.3199 117.016 36.3883 114.725 36.4139 113.015C36.4139 112.254 36.4139 111.638 36.4652 111.142C36.4594 110.924 36.4795 110.706 36.5251 110.492C36.5707 110.706 36.5908 110.924 36.585 111.142C36.585 111.638 36.5849 112.254 36.6363 113.015C36.6363 114.725 36.6961 117.042 36.7303 119.855C36.7303 125.721 36.7816 133.698 36.8158 142.506C36.8158 157.11 36.7303 169.431 36.6021 173.151H36.4396C36.4289 172.685 36.4575 172.218 36.5251 171.757Z" fill="#F5F5F5"/>
<path d="M45.3571 171.757C45.4247 172.218 45.4533 172.685 45.4426 173.151H45.2802C45.1519 169.431 45.0664 157.11 45.0664 142.506C45.0664 133.698 45.1263 125.721 45.1519 119.855C45.1519 117.016 45.2203 114.725 45.246 113.015C45.246 112.254 45.2887 111.638 45.2973 111.142C45.2915 110.924 45.3116 110.706 45.3571 110.492C45.4027 110.706 45.4228 110.924 45.417 111.142C45.417 111.638 45.417 112.254 45.4683 113.015C45.4683 114.725 45.5281 117.042 45.5623 119.855C45.5623 125.721 45.6136 133.698 45.6478 142.506C45.6478 157.11 45.5623 169.431 45.4426 173.151H45.2802C45.2705 172.685 45.2963 172.219 45.3571 171.757Z" fill="#F5F5F5"/>
<path d="M54.1908 171.757C54.2641 172.218 54.2928 172.685 54.2764 173.151H54.1395C54.0198 169.431 53.9258 157.11 53.9258 142.506C53.9258 133.698 53.9942 125.721 54.0113 119.855C54.054 117.016 54.0797 114.725 54.1053 113.015C54.1053 112.254 54.1053 111.638 54.1566 111.142C54.1564 110.924 54.1765 110.706 54.2165 110.492C54.2675 110.705 54.2876 110.924 54.2764 111.142C54.2764 111.638 54.2764 112.254 54.3362 113.015C54.3362 114.725 54.3875 117.042 54.4303 119.855C54.4303 125.721 54.4816 133.698 54.5158 142.506C54.5158 157.11 54.4217 169.431 54.302 173.151H54.1395C54.1214 172.686 54.1385 172.22 54.1908 171.757Z" fill="#F5F5F5"/>
<path d="M63.0317 171.757C63.0926 172.219 63.1183 172.685 63.1086 173.151H62.9462C62.8265 169.431 62.7324 157.11 62.7324 142.506C62.7324 133.698 62.8008 125.721 62.8179 119.855C62.8179 117.016 62.8949 114.725 62.912 113.015C62.912 112.254 62.912 111.638 62.9718 111.142C62.9606 110.924 62.9807 110.705 63.0317 110.492C63.0708 110.706 63.088 110.924 63.083 111.142C63.083 111.638 63.083 112.254 63.1428 113.015C63.1428 114.725 63.1942 117.042 63.2369 119.855C63.2369 125.721 63.2882 133.698 63.3224 142.506C63.3224 157.11 63.2284 169.431 63.1086 173.151H62.9462C62.9298 172.685 62.9584 172.218 63.0317 171.757Z" fill="#F5F5F5"/>
<path d="M71.8649 171.757C71.9258 172.219 71.9515 172.685 71.9419 173.151H71.7794C71.6597 169.431 71.5742 157.11 71.5742 142.506C71.5742 133.698 71.6341 125.721 71.6597 119.855C71.6597 117.016 71.7281 114.725 71.7538 113.015C71.7538 112.254 71.7538 111.638 71.8051 111.142C71.7993 110.924 71.8194 110.706 71.8649 110.492C71.9105 110.706 71.9306 110.924 71.9248 111.142C71.9248 111.638 71.9248 112.254 71.9761 113.015C71.9761 114.725 72.036 117.042 72.0702 119.855C72.0702 125.721 72.1215 133.698 72.1557 142.506C72.1557 157.11 72.0702 169.431 71.9419 173.151H71.7794C71.7687 172.685 71.7974 172.218 71.8649 171.757Z" fill="#F5F5F5"/>
<path d="M80.6967 171.757C80.7643 172.218 80.7929 172.685 80.7822 173.151H80.6454C80.5171 169.431 80.4316 157.11 80.4316 142.506C80.4316 133.698 80.4915 125.721 80.5171 119.855C80.5171 117.016 80.5856 114.725 80.6112 113.015C80.6112 112.254 80.6112 111.638 80.6625 111.142C80.6567 110.924 80.6768 110.706 80.7224 110.492C80.7679 110.706 80.788 110.924 80.7822 111.142C80.7822 111.638 80.7822 112.254 80.8335 113.015C80.8335 114.725 80.8934 117.042 80.9276 119.855C80.9276 125.721 80.9789 133.698 81.0131 142.506C81.0131 157.11 80.9276 169.431 80.8079 173.151H80.6454C80.6273 172.686 80.6444 172.22 80.6967 171.757Z" fill="#F5F5F5"/>
<path d="M89.531 171.757C89.6042 172.218 89.6329 172.685 89.6165 173.151H89.454C89.3343 169.431 89.2402 157.11 89.2402 142.506C89.2402 133.698 89.3086 125.721 89.3257 119.855C89.3257 117.016 89.3941 114.725 89.4198 113.015C89.4198 112.254 89.4626 111.638 89.4711 111.142C89.4709 110.924 89.4909 110.706 89.531 110.492C89.5819 110.705 89.6021 110.924 89.5908 111.142C89.5908 111.638 89.5908 112.254 89.6507 113.015C89.6507 114.725 89.702 117.042 89.7447 119.855C89.7447 125.721 89.796 133.698 89.8302 142.506C89.8302 157.11 89.7362 169.431 89.6165 173.151H89.454C89.4444 172.685 89.4701 172.219 89.531 171.757Z" fill="#F5F5F5"/>
<path d="M98.3715 171.757C98.4324 172.219 98.4581 172.685 98.4485 173.151H98.286C98.1663 169.431 98.0723 157.11 98.0723 142.506C98.0723 133.698 98.1407 125.721 98.1578 119.855C98.2005 117.016 98.2347 114.725 98.2518 113.015C98.2518 112.254 98.2518 111.638 98.3117 111.142C98.3004 110.924 98.3206 110.705 98.3715 110.492C98.4115 110.706 98.4316 110.924 98.4314 111.142C98.4314 111.638 98.4314 112.254 98.4827 113.015C98.4827 114.725 98.534 117.042 98.5767 119.855C98.5767 125.721 98.6281 133.698 98.6623 142.506C98.6623 157.11 98.5682 169.431 98.4485 173.151H98.286C98.2696 172.685 98.2983 172.218 98.3715 171.757Z" fill="#F5F5F5"/>
<path d="M107.204 171.757C107.265 172.219 107.29 172.685 107.281 173.151H107.152C107.033 169.431 106.947 157.11 106.947 142.506C106.947 133.698 107.007 125.721 107.033 119.855C107.033 117.016 107.101 114.725 107.127 113.015C107.127 112.254 107.127 111.638 107.178 111.142C107.172 110.924 107.192 110.706 107.238 110.492C107.284 110.706 107.304 110.924 107.298 111.142C107.298 111.638 107.298 112.254 107.349 113.015C107.349 114.725 107.409 117.042 107.443 119.855C107.443 125.721 107.495 133.698 107.529 142.506C107.529 157.11 107.443 169.431 107.315 173.151H107.152C107.13 172.686 107.148 172.219 107.204 171.757Z" fill="#F5F5F5"/>
<path d="M116.039 171.757C116.106 172.218 116.135 172.685 116.124 173.151H115.962C115.834 169.431 115.748 157.11 115.748 142.506C115.748 133.698 115.808 125.721 115.834 119.855C115.834 117.016 115.902 114.725 115.928 113.015C115.928 112.254 115.97 111.638 115.979 111.142C115.973 110.924 115.993 110.706 116.039 110.492C116.084 110.706 116.104 110.924 116.099 111.142C116.099 111.638 116.099 112.254 116.15 113.015C116.15 114.725 116.21 117.042 116.244 119.855C116.244 125.721 116.295 133.698 116.329 142.506C116.329 157.11 116.244 169.431 116.124 173.151H115.962C115.952 172.685 115.978 172.219 116.039 171.757Z" fill="#F5F5F5"/>
<path d="M124.867 171.757C124.94 172.218 124.969 172.685 124.952 173.151H124.79C124.67 169.431 124.576 157.11 124.576 142.506C124.576 133.698 124.645 125.721 124.662 119.855C124.704 117.016 124.73 114.725 124.756 113.015C124.756 112.254 124.756 111.638 124.807 111.142C124.807 110.924 124.827 110.706 124.867 110.492C124.918 110.705 124.938 110.924 124.927 111.142C124.927 111.638 124.927 112.254 124.987 113.015C124.987 114.725 125.038 117.042 125.081 119.855C125.081 125.721 125.132 133.698 125.166 142.506C125.166 157.11 125.072 169.431 124.952 173.151H124.79C124.78 172.685 124.806 172.219 124.867 171.757Z" fill="#F5F5F5"/>
<path d="M214.622 51.3082L207.962 111.325C206.824 121.534 203.071 136.292 187.021 133.77C173.255 130.521 171.186 116.857 172.254 107.332C172.759 102.817 173.169 99.0461 173.195 98.5843C173.195 98.5843 158.077 95.4463 158.659 80.2006C158.941 72.8385 160.745 57.704 162.541 44.0402C163.473 36.9618 167.037 30.494 172.522 25.9244C178.008 21.3547 185.013 19.0183 192.143 19.3803L193.614 19.4487C209.415 21.1503 216.777 35.558 214.622 51.3082Z" fill="#936760"/>
<path d="M173.194 98.5848C180.231 98.9184 187.217 97.227 193.322 93.7109C193.322 93.7109 187.927 104.596 172.801 102.458L173.194 98.5848Z" fill="#6F4C47"/>
<path d="M187.526 53.4077C187.791 53.7497 189.706 52.5526 192.237 52.8091C194.768 53.0656 196.512 54.5192 196.812 54.2371C196.966 54.1003 196.718 53.5103 195.957 52.8262C194.939 51.9477 193.671 51.4122 192.331 51.2957C191.009 51.1646 189.681 51.4645 188.543 52.1507C187.748 52.7065 187.432 53.2538 187.526 53.4077Z" fill="#263238"/>
<path d="M186.99 58.6432C186.959 59.1797 187.138 59.7073 187.489 60.1143C187.84 60.5212 188.336 60.7756 188.871 60.8236C189.132 60.8569 189.397 60.8377 189.65 60.7673C189.904 60.6968 190.141 60.5763 190.347 60.413C190.553 60.2498 190.725 60.0469 190.852 59.8164C190.979 59.5859 191.058 59.3323 191.086 59.0707C191.116 58.535 190.937 58.0084 190.586 57.6029C190.235 57.1973 189.739 56.9447 189.204 56.8988C188.944 56.8655 188.68 56.8843 188.427 56.9543C188.174 57.0243 187.937 57.1439 187.731 57.3063C187.525 57.4687 187.353 57.6706 187.226 57.9001C187.099 58.1297 187.018 58.3823 186.99 58.6432Z" fill="#263238"/>
<path d="M179.052 70.2138C179.052 70.077 177.632 69.7521 175.289 69.3588C174.691 69.2647 174.135 69.1194 174.049 68.7089C174.038 68.103 174.207 67.5074 174.537 66.9988L176.538 62.5354C179.317 56.1738 181.36 50.9323 181.104 50.8297C180.847 50.7271 178.385 55.7804 175.606 62.1421C174.927 63.704 174.286 65.2003 173.682 66.6311C173.265 67.3333 173.114 68.1612 173.254 68.9654C173.329 69.1816 173.453 69.3775 173.616 69.5377C173.779 69.698 173.977 69.8182 174.195 69.8889C174.521 69.9984 174.86 70.0617 175.204 70.077C177.564 70.2566 179.034 70.3421 179.052 70.2138Z" fill="#263238"/>
<path d="M189.811 44.0415C189.991 44.6315 192.06 44.4605 194.471 44.8966C196.883 45.3327 198.806 46.1022 199.148 45.5977C199.311 45.3498 198.995 44.7427 198.234 44.1869C197.228 43.4363 196.053 42.9431 194.813 42.7504C193.582 42.5296 192.315 42.6207 191.128 43.0154C190.213 43.3318 189.743 43.7593 189.811 44.0415Z" fill="#263238"/>
<path d="M166.046 44.0403C166.259 44.5277 168.294 44.2626 170.689 44.4849C173.083 44.7073 175.041 45.263 175.349 44.8099C175.486 44.5961 175.144 44.1429 174.357 43.6726C173.302 43.0938 172.136 42.7469 170.937 42.6551C169.712 42.5405 168.476 42.6862 167.311 43.0826C166.396 43.3819 165.96 43.8009 166.046 44.0403Z" fill="#263238"/>
<path d="M212.811 62.5209C213.076 62.4183 223.44 59.9558 222.585 70.3533C221.729 80.7508 211.469 77.741 211.469 77.4417C211.469 77.1424 212.811 62.5209 212.811 62.5209Z" fill="#936760"/>
<path d="M214.964 73.7706C215.015 73.7706 215.135 73.916 215.434 74.0784C215.849 74.2991 216.334 74.3482 216.785 74.2152C217.914 73.9074 218.983 72.24 219.188 70.3675C219.289 69.4789 219.19 68.579 218.897 67.7339C218.826 67.4007 218.676 67.0897 218.458 66.8276C218.241 66.5654 217.963 66.36 217.649 66.229C217.445 66.1579 217.222 66.1599 217.019 66.2348C216.817 66.3097 216.646 66.4527 216.537 66.6394C216.375 66.913 216.426 67.1268 216.366 67.1439C216.306 67.161 216.161 66.9472 216.281 66.5283C216.357 66.275 216.521 66.0569 216.742 65.9126C217.044 65.7182 217.409 65.6506 217.76 65.7245C218.18 65.8451 218.562 66.0709 218.871 66.3807C219.179 66.6905 219.403 67.0738 219.521 67.4945C219.895 68.4299 220.03 69.4437 219.915 70.4444C219.675 72.5393 218.444 74.4119 216.905 74.7197C216.618 74.7778 216.322 74.7711 216.038 74.7001C215.754 74.6291 215.489 74.4956 215.263 74.3093C214.964 74.0271 214.93 73.7877 214.964 73.7706Z" fill="#6F4C47"/>
<path d="M180.611 77.6777C180.534 77.404 182.638 77.0449 184.297 75.3177C184.992 74.5576 185.584 73.7096 186.058 72.7953C186.451 72.077 186.742 71.6324 186.853 71.6837C186.965 71.735 186.853 72.2395 186.597 73.0347C186.244 74.101 185.66 75.0761 184.887 75.8906C184.1 76.7164 183.099 77.3083 181.997 77.6007C181.167 77.8145 180.629 77.7717 180.611 77.6777Z" fill="#263238"/>
<path d="M165.294 50.1342C165.559 50.4763 167.474 49.2792 170.005 49.5357C172.536 49.7922 174.281 51.2458 174.58 50.9551C174.734 50.8268 174.486 50.2368 173.725 49.5528C172.709 48.6707 171.44 48.1347 170.099 48.0222C168.778 47.8912 167.449 48.1911 166.312 48.8773C165.491 49.4331 165.174 49.9803 165.294 50.1342Z" fill="#263238"/>
<path d="M165.123 55.9392C165.092 56.4758 165.271 57.0034 165.622 57.4103C165.973 57.8173 166.468 58.0716 167.004 58.1196C167.261 58.1532 167.523 58.1356 167.774 58.0677C168.025 57.9999 168.26 57.8832 168.466 57.7243C168.672 57.5654 168.844 57.3675 168.973 57.1419C169.102 56.9163 169.186 56.6674 169.218 56.4095C169.254 55.8741 169.077 55.3463 168.727 54.94C168.377 54.5336 167.88 54.2814 167.346 54.2376C167.088 54.2016 166.825 54.2172 166.573 54.2835C166.321 54.3497 166.085 54.4654 165.878 54.6237C165.672 54.782 165.498 54.9798 165.369 55.2056C165.239 55.4315 165.155 55.6808 165.123 55.9392Z" fill="#263238"/>
<path d="M221.029 53.2216C220.268 56.1203 218.464 62.7299 215.899 62.1399C210.769 60.977 211.068 69.2026 208.588 68.2364C206.109 67.2702 205.527 60.729 205.809 58.1211C206.664 49.9724 209.794 44.1238 206.348 34.8208C205.279 32.9748 203.751 31.4359 201.913 30.3529C200.075 29.2699 197.989 28.6795 195.856 28.6387C193.707 28.6401 191.594 29.1907 189.717 30.2383C187.841 31.2858 186.263 32.7955 185.134 34.6241C184.604 31.7768 183.116 27.5015 180.542 26.1847C179.254 25.5127 177.797 25.2354 176.352 25.3875C174.907 25.5396 173.539 26.1143 172.419 27.0397C171.351 28.0211 170.675 29.3571 170.518 30.7994C170.36 32.2417 170.732 33.692 171.564 34.8806C170.979 35.0691 170.349 35.0654 169.765 34.87C169.182 34.6746 168.677 34.2978 168.323 33.7947C168.288 34.4639 168.391 35.1332 168.625 35.7612C168.859 36.3892 169.219 36.9625 169.683 37.4458C168.628 37.2107 167.693 36.6036 167.049 35.7357L167.905 39.2585C163.629 39.4723 159.277 35.4022 157.994 31.7169C156.053 26.1248 157.319 20.413 160.346 15.334C163.373 10.2549 168.896 6.59529 174.882 6.50979C180.867 6.42428 185.818 9.11771 188.221 14.5217C192 11.7171 199.755 10.597 204.073 12.4439C206.233 13.3948 208.113 14.8825 209.535 16.7653C210.956 18.6481 211.873 20.8635 212.197 23.2005C214.847 22.012 218.079 22.8157 220.379 24.5943L220.935 25.056C222.474 26.4557 223.633 28.223 224.303 30.1925C224.973 32.162 225.132 34.2693 224.766 36.3171C224.492 37.9588 223.962 39.6689 223.663 40.9943C222.654 44.919 221.029 53.2216 221.029 53.2216Z" fill="#263238"/>
<path d="M167.585 33.5685C167.585 33.5685 167.448 33.4916 167.234 33.3035C166.918 33.0319 166.632 32.7282 166.379 32.3971C165.401 31.1637 164.783 29.6842 164.592 28.1218C164.419 26.969 164.496 25.7925 164.816 24.6716C165.136 23.5507 165.692 22.5114 166.447 21.6234C167.373 20.5295 168.551 19.6776 169.88 19.1413C171.209 18.605 172.649 18.4004 174.074 18.5452C175.542 18.7289 176.948 19.2435 178.187 20.0501C179.343 20.7776 180.379 21.6805 181.257 22.7264C182.748 24.4674 183.847 26.5087 184.48 28.7118C184.907 30.1985 185.111 31.7399 185.088 33.2864C185.088 33.8336 185.036 34.2526 184.994 34.5348C184.985 34.6798 184.959 34.8234 184.917 34.9623C185.01 32.8809 184.761 30.7984 184.181 28.7973C183.522 26.6426 182.418 24.6501 180.941 22.9487C179.2 20.8139 176.74 19.3878 174.023 18.9385C172.669 18.8065 171.302 19.0017 170.039 19.5076C168.776 20.0135 167.653 20.8153 166.764 21.8457C166.036 22.6888 165.495 23.676 165.175 24.7428C164.855 25.8096 164.764 26.932 164.908 28.0363C165.061 29.5589 165.609 31.0151 166.499 32.2603C167.14 33.1581 167.61 33.5343 167.585 33.5685Z" fill="#455A64"/>
<path d="M165.714 38.121C165.59 37.9743 165.484 37.8136 165.398 37.6422C165.201 37.3173 164.919 36.7871 164.543 36.2057C163.532 34.4388 162.695 32.5773 162.046 30.6478C161.61 29.2995 161.354 27.8992 161.285 26.4837C161.201 24.8463 161.46 23.2095 162.046 21.6783C162.729 19.9811 163.898 18.5236 165.406 17.4885C167.018 16.3839 168.889 15.7179 170.836 15.556C172.774 15.4068 174.721 15.672 176.548 16.3341C178.244 16.9459 179.838 17.8108 181.276 18.8993C183.785 20.6718 185.637 23.2241 186.543 26.1588C187.108 28.1489 187.051 30.264 186.381 32.2211C186.193 32.7428 185.952 33.2442 185.663 33.7175C185.562 33.8836 185.448 34.041 185.321 34.1877C185.661 33.5369 185.947 32.8591 186.176 32.1613C186.761 30.2324 186.761 28.1731 186.176 26.2443C185.25 23.3998 183.422 20.9351 180.968 19.2242C178.099 17.0036 174.538 15.868 170.913 16.0178C169.041 16.1788 167.242 16.8176 165.689 17.8732C164.248 18.8582 163.127 20.2433 162.465 21.8578C161.889 23.3324 161.624 24.9103 161.687 26.4922C161.74 27.8788 161.973 29.2527 162.38 30.5794C162.999 32.5001 163.786 34.3627 164.731 36.1458L165.475 37.6251C165.569 37.7828 165.65 37.9488 165.714 38.121Z" fill="#455A64"/>
<path d="M217.326 46.7967C217.275 46.7283 218.241 46.0186 219.43 44.5308C220.992 42.6095 222.046 40.3258 222.495 37.8902C222.943 35.4545 222.771 32.9452 221.995 30.5934C221.405 28.7807 220.755 27.7717 220.832 27.7375C220.909 27.7033 221.037 27.9513 221.319 28.4215C221.708 29.0796 222.034 29.7723 222.294 30.4908C223.174 32.8819 223.396 35.4655 222.935 37.9715C222.475 40.4775 221.35 42.8138 219.678 44.736C219.179 45.314 218.629 45.8462 218.036 46.3265C217.823 46.5166 217.584 46.675 217.326 46.7967Z" fill="#455A64"/>
<path d="M208.15 46.7164C208.15 46.6736 208.646 46.477 209.433 45.9126C210.528 45.1232 211.384 44.046 211.904 42.8002L212.297 41.8255L212.229 42.8772C212.135 44.2966 212.024 45.9297 211.913 47.7083L211.579 47.5201C212.996 46.5007 214.197 45.2115 215.114 43.7266C216.031 42.2416 216.646 40.5901 216.923 38.867C217.155 37.2921 217.108 35.6888 216.786 34.1299C216.444 32.6981 215.933 31.3118 215.264 30C215.34 30.0746 215.406 30.1578 215.461 30.248C215.629 30.4903 215.783 30.7414 215.923 31.0004C216.444 31.9647 216.836 32.9941 217.086 34.0615C217.687 36.6248 217.507 39.3095 216.568 41.7693C215.629 44.2292 213.975 46.3513 211.819 47.8622L211.451 48.1187V47.674L211.853 42.8515L212.186 42.9285C211.621 44.2165 210.691 45.3105 209.51 46.0751C209.191 46.2802 208.853 46.4548 208.501 46.5967C208.389 46.6504 208.272 46.6906 208.15 46.7164Z" fill="#455A64"/>
<path d="M204.867 25.5656C204.258 24.4699 203.442 23.5029 202.464 22.7182C201.386 21.911 200.132 21.3717 198.805 21.1449C197.172 20.8797 195.497 21.069 193.965 21.6921C192.427 22.3077 191.058 23.2808 189.972 24.5309C189.088 25.5484 188.378 26.7038 187.868 27.9512C187.436 29.1346 187.096 30.3495 186.851 31.5852C186.817 31.2425 186.834 30.8967 186.902 30.5591C187.022 29.6306 187.246 28.7185 187.569 27.84C188.057 26.5266 188.765 25.3062 189.664 24.2317C190.78 22.9154 192.201 21.8912 193.802 21.2475C195.412 20.5967 197.171 20.4101 198.881 20.7088C200.267 20.9751 201.566 21.5802 202.661 22.4703C203.395 23.0648 204.01 23.793 204.474 24.6164C204.596 24.8404 204.705 25.0717 204.799 25.309C204.837 25.3898 204.86 25.4766 204.867 25.5656Z" fill="#455A64"/>
<path d="M202.337 17.9441C201.427 17.5123 200.476 17.1742 199.498 16.9351C197.155 16.4941 194.732 16.897 192.658 18.0723C190.601 19.317 188.942 21.1237 187.878 23.2796C187.023 24.9213 186.792 26.0585 186.715 26.0329C186.711 25.7596 186.755 25.4877 186.843 25.2291C187.032 24.5101 187.284 23.8091 187.596 23.1343C188.616 20.884 190.298 18.9986 192.418 17.7303C194.593 16.4835 197.159 16.1047 199.601 16.67C200.331 16.8518 201.032 17.1399 201.679 17.5251C201.917 17.6328 202.139 17.7738 202.337 17.9441Z" fill="#455A64"/>
<path d="M140.722 254.775L236.266 256.075C236.266 256.075 262.987 244.891 270.332 244.591C277.677 244.292 292.247 245.224 298.985 256.075C305.953 267.293 306.928 287.079 285.458 301.453C264.543 315.459 168.922 328.396 155.814 327.207L131.667 294.766C131.667 294.766 131.419 268.182 131.667 266.917C131.915 265.652 135.942 254.262 135.942 254.262L140.722 254.775Z" fill="#263238"/>
<path d="M197.926 299.648L247.443 318.041L224.878 379.75C219.115 377.236 218.952 340.982 218.952 340.982L186.742 330.499L197.926 299.648Z" fill="#084C3F"/>
<g opacity="0.6">
<path d="M223.253 320.92C223.651 320.392 224.229 320.03 224.877 319.902C225.526 319.774 226.199 319.89 226.767 320.228C227.311 320.603 227.689 321.173 227.822 321.819C227.956 322.466 227.835 323.139 227.485 323.699C226.741 324.794 224.775 325.255 223.757 324.417C222.74 323.579 222.432 321.596 223.415 320.715" fill="white"/>
</g>
<path d="M247.44 318.039L242.438 316.141L222.635 376.166C222.635 376.166 222.823 379.355 224.875 379.748L247.44 318.039Z" fill="#263238"/>
<path d="M218.308 341.864C218.616 341.967 219.3 340.513 220.814 339.385C222.327 338.256 223.883 337.931 223.866 337.606C223.849 337.281 221.942 337.102 220.138 338.461C218.334 339.821 217.966 341.796 218.308 341.864Z" fill="#263238"/>
<path d="M218.583 349.318C218.848 349.489 219.831 348.377 221.481 347.821C223.132 347.266 224.585 347.454 224.688 347.154C224.79 346.855 223.149 346.034 221.114 346.761C219.079 347.488 218.309 349.207 218.583 349.318Z" fill="#263238"/>
<path d="M224.978 355.83C225.149 355.582 223.79 354.607 221.857 354.778C219.925 354.949 218.754 356.12 218.959 356.343C219.164 356.565 220.361 356.009 221.951 355.889C223.542 355.77 224.842 356.12 224.978 355.83Z" fill="#263238"/>
<path d="M211.195 338.668C211.511 338.668 211.605 337.103 212.341 335.444C213.076 333.786 214.102 332.648 213.905 332.4C213.709 332.152 212.195 333.033 211.34 334.966C210.485 336.898 210.904 338.728 211.195 338.668Z" fill="#263238"/>
<path d="M204.405 334.517C204.533 334.56 205.149 333.44 205.525 331.422C205.73 330.233 205.793 329.025 205.713 327.822C205.66 327.11 205.563 326.402 205.423 325.701C205.351 325.285 205.219 324.882 205.029 324.504C204.89 324.227 204.662 324.005 204.381 323.874C204.1 323.742 203.784 323.708 203.482 323.777C203.216 323.851 202.972 323.986 202.768 324.172C202.565 324.358 202.408 324.589 202.31 324.846C202.167 325.237 202.077 325.645 202.045 326.06C201.963 326.779 201.949 327.503 202.002 328.224C202.096 329.442 202.385 330.637 202.857 331.764C203.661 333.679 204.568 334.577 204.704 334.5C204.841 334.423 204.157 333.354 203.601 331.499C203.275 330.418 203.091 329.3 203.054 328.172C203.034 327.512 203.068 326.852 203.157 326.197C203.225 325.479 203.422 324.923 203.772 324.863C203.909 324.863 203.952 324.863 204.097 325.06C204.226 325.332 204.321 325.62 204.379 325.915C204.529 326.564 204.64 327.22 204.713 327.882C204.836 329.018 204.853 330.163 204.764 331.302C204.627 333.243 204.243 334.457 204.405 334.517Z" fill="#263238"/>
<path d="M204.986 334.276C205.072 334.191 204.208 333.199 202.293 332.369C201.173 331.884 199.979 331.595 198.761 331.514C198.036 331.477 197.308 331.512 196.589 331.617C196.121 331.634 195.666 331.773 195.267 332.018C194.869 332.264 194.541 332.609 194.315 333.019C194.219 333.295 194.205 333.592 194.273 333.875C194.341 334.159 194.489 334.416 194.7 334.618C195.002 334.911 195.345 335.158 195.717 335.354C196.369 335.713 197.073 335.969 197.804 336.115C199.02 336.372 200.281 336.319 201.472 335.961C203.515 335.345 204.336 334.25 204.242 334.156C204.148 334.062 203.165 334.832 201.292 335.2C200.21 335.405 199.096 335.376 198.026 335.114C197.41 334.957 196.818 334.718 196.264 334.404C195.64 334.062 195.204 333.626 195.358 333.404C195.512 333.182 196.153 332.754 196.769 332.694C197.413 332.585 198.065 332.534 198.718 332.54C199.841 332.564 200.954 332.743 202.027 333.07C203.866 333.695 204.875 334.43 204.986 334.276Z" fill="#263238"/>
<path d="M157.084 292.023L109.201 314.255L136.563 374.006C142.104 371.048 139.419 334.887 139.419 334.887L170.705 321.908L157.084 292.023Z" fill="#084C3F"/>
<g opacity="0.6">
<path d="M133.512 315.22C133.075 314.725 132.47 314.408 131.814 314.331C131.157 314.254 130.496 314.421 129.955 314.801C129.442 315.219 129.11 315.819 129.029 316.475C128.948 317.131 129.123 317.794 129.519 318.324C130.374 319.35 132.332 319.658 133.281 318.743C134.23 317.828 134.384 315.827 133.332 315.032" fill="white"/>
</g>
<path d="M109.176 314.248L114.007 312.008L138.47 370.254C138.47 370.254 138.53 373.444 136.521 374L109.176 314.248Z" fill="#263238"/>
<path d="M140.13 335.706C139.831 335.834 139.027 334.431 137.437 333.423C135.846 332.414 134.264 332.217 134.256 331.892C134.247 331.567 136.137 331.234 138.044 332.49C139.951 333.747 140.421 335.646 140.13 335.706Z" fill="#263238"/>
<path d="M140.402 343.16C140.146 343.357 139.077 342.305 137.384 341.895C135.691 341.484 134.263 341.775 134.143 341.484C134.023 341.193 135.588 340.244 137.675 340.809C139.761 341.373 140.676 343.023 140.402 343.16Z" fill="#263238"/>
<path d="M134.515 350.159C134.335 349.92 135.601 348.842 137.542 348.86C139.483 348.877 140.748 349.954 140.56 350.193C140.372 350.433 139.132 349.971 137.542 349.98C135.951 349.988 134.695 350.433 134.515 350.159Z" fill="#263238"/>
<path d="M146.929 331.963C146.604 331.963 146.399 330.432 145.527 328.842C144.655 327.251 143.552 326.191 143.74 325.926C143.928 325.661 145.518 326.422 146.519 328.32C147.519 330.219 147.22 331.997 146.929 331.963Z" fill="#263238"/>
<path d="M153.365 327.259C153.245 327.319 152.51 326.241 152.014 324.258C151.708 323.09 151.547 321.89 151.535 320.683C151.533 319.972 151.576 319.261 151.664 318.554C151.694 318.131 151.792 317.715 151.954 317.323C152.07 317.034 152.28 316.792 152.55 316.637C152.82 316.482 153.134 316.423 153.442 316.468C153.714 316.516 153.97 316.628 154.189 316.797C154.408 316.965 154.583 317.184 154.699 317.434C154.873 317.84 154.985 318.269 155.032 318.708C155.169 319.418 155.241 320.14 155.246 320.863C155.25 322.078 155.066 323.287 154.699 324.446C154.049 326.421 153.177 327.396 153.074 327.319C152.972 327.242 153.519 326.139 153.929 324.24C154.169 323.14 154.264 322.013 154.212 320.889C154.182 320.227 154.097 319.569 153.955 318.922C153.835 318.221 153.596 317.674 153.237 317.639C153.1 317.639 153.057 317.639 152.929 317.862C152.825 318.137 152.756 318.424 152.724 318.717C152.624 319.377 152.564 320.042 152.544 320.709C152.506 321.853 152.577 322.999 152.758 324.129C153.091 326.062 153.528 327.259 153.365 327.259Z" fill="#263238"/>
<path d="M152.777 327.107C152.683 327.021 153.461 325.961 155.3 324.995C157.036 324.098 158.986 323.699 160.934 323.84C161.403 323.82 161.869 323.921 162.287 324.133C162.705 324.346 163.061 324.664 163.32 325.054C163.435 325.324 163.471 325.62 163.424 325.909C163.377 326.199 163.249 326.468 163.055 326.688C162.775 327.002 162.453 327.275 162.097 327.5C161.475 327.908 160.795 328.219 160.079 328.423C158.887 328.771 157.626 328.818 156.411 328.56C154.325 328.098 153.418 327.047 153.504 326.97C153.589 326.893 154.633 327.568 156.531 327.825C157.626 327.947 158.734 327.83 159.78 327.483C160.388 327.281 160.964 326.993 161.49 326.628C162.08 326.243 162.491 325.773 162.345 325.568C162.162 325.367 161.936 325.21 161.685 325.107C161.434 325.003 161.163 324.956 160.892 324.969C160.238 324.905 159.579 324.905 158.925 324.969C157.81 325.075 156.716 325.34 155.676 325.756C153.837 326.405 152.888 327.261 152.777 327.107Z" fill="#263238"/>
<path d="M135.967 254.27C135.967 254.27 94.7015 238.879 79.5328 240.845C71.042 241.966 57.763 248.447 56.7455 259.332C55.728 270.217 58.3957 284.778 73.0771 291.867C87.7584 298.955 146.364 325.257 160.293 329.301C174.222 333.346 208.903 342.837 208.903 342.837L222.088 305.214C222.088 305.214 150.135 280.298 146.338 277.51C142.542 274.723 132.923 270.935 132.923 270.935L135.967 254.27Z" fill="#263238"/>
<path d="M279.42 259.372L279.13 259.304L278.275 259.047C277.548 258.834 276.47 258.517 275.068 258.192C271.113 257.188 267.012 256.884 262.952 257.295C260.152 257.534 257.384 258.061 254.692 258.868C253.198 259.32 251.743 259.892 250.34 260.578L245.851 262.776C239.677 265.725 232.777 268.761 225.441 271.642C210.734 277.534 196.617 280.33 186.553 282.621C181.508 283.733 177.421 284.656 174.582 285.323L171.341 286.093L170.486 286.281L170.195 286.332C170.281 286.286 170.373 286.254 170.469 286.238L171.324 286.007C172.059 285.811 173.137 285.503 174.548 285.152C177.344 284.434 181.388 283.442 186.459 282.314C196.514 279.945 210.588 277.106 225.244 271.198C232.58 268.299 239.472 265.298 245.646 262.365L250.143 260.193C251.568 259.505 253.047 258.933 254.564 258.483C257.28 257.678 260.075 257.164 262.901 256.953C267.009 256.559 271.154 256.913 275.137 257.996C276.539 258.355 277.608 258.697 278.335 258.945L279.147 259.244L279.42 259.372Z" fill="#455A64"/>
<path d="M277.247 253.94C277.247 254.017 275.99 253.786 273.972 253.572C268.704 252.992 263.377 253.266 258.196 254.385C256.204 254.804 254.99 255.154 254.973 255.086C255.242 254.939 255.53 254.827 255.828 254.752C256.366 254.564 257.162 254.325 258.153 254.077C260.745 253.427 263.394 253.032 266.063 252.897C268.727 252.763 271.399 252.883 274.04 253.256C275.058 253.41 275.87 253.564 276.426 253.692C276.708 253.745 276.983 253.828 277.247 253.94Z" fill="#455A64"/>
<path d="M118.611 265.185C118.568 265.245 117.422 264.33 115.447 263.142C110.287 259.933 104.489 257.89 98.4568 257.156C96.1482 256.866 94.7031 256.84 94.7031 256.763C95.0387 256.703 95.3803 256.683 95.7206 256.703C96.379 256.703 97.3281 256.703 98.491 256.84C104.601 257.421 110.474 259.497 115.592 262.885C116.368 263.389 117.115 263.934 117.832 264.518C118.12 264.705 118.382 264.93 118.611 265.185Z" fill="#455A64"/>
<path d="M139.318 321.277L139.643 321.397L140.575 321.791C141.43 322.133 142.61 322.697 144.226 323.321C147.441 324.595 152.186 326.339 158.283 328.349C170.467 332.325 187.988 337.404 208.954 342.68L208.723 342.808L221.48 307.4L221.6 307.682L205.798 301.192L118.386 265.186C114.829 261.423 111.545 258.106 108.484 255.421C105.882 253.126 103.107 251.036 100.182 249.17C98.3413 248.012 96.4404 246.953 94.4869 245.998L92.9564 245.28L92.4434 245.023L92.9735 245.246L94.5211 245.921C96.4959 246.845 98.4145 247.884 100.267 249.034C103.218 250.88 106.017 252.959 108.638 255.25C111.733 257.918 115.025 261.235 118.6 264.98H118.548L205.969 300.756L221.771 307.246L221.959 307.323L221.891 307.528L209.065 342.919L209.005 343.09L208.825 343.047C187.859 337.729 170.348 332.598 158.172 328.511C152.084 326.476 147.347 324.689 144.14 323.381C142.533 322.748 141.336 322.158 140.515 321.799L139.591 321.38L139.318 321.277Z" fill="#455A64"/>
<path d="M241.31 122.758C241.31 122.758 253.195 129.598 255.606 137.644C257.068 142.527 268.15 204.997 269.903 217.31C271.656 229.623 267.953 238.755 262.703 242.842C257.453 246.929 241.523 252.368 241.523 252.368L219.164 259.627L212.742 243.278L234.033 212.684L231.99 192.018L241.31 122.758Z" fill="#084C3F"/>
<path d="M217.958 111.967L209.031 106.837C209.031 106.837 200.899 116.345 189.809 115.182C178.719 114.019 172.135 105.562 172.135 105.562L139.062 112.292C136.847 112.736 132.803 114.139 128.929 119.671C124.611 125.836 104.132 153.189 104.132 153.189H89.8359C87.8997 153.189 86.0002 153.718 84.3426 154.718C82.6849 155.719 81.3321 157.153 80.4302 158.867C77.9848 163.527 75.0519 169.752 75.2999 172.334C75.7873 176.703 74.9408 188.683 80.7979 192.419C82.6534 193.608 89.2886 197.165 94.4788 196.925C102.08 196.566 110.913 192.607 116.001 189.05C120.276 186.032 130.323 175.617 134.179 171.556V171.641L136.659 258.387L223.362 255.924L241.318 122.775C241.318 122.775 218.83 111.967 217.958 111.967Z" fill="#084C3F"/>
<path d="M133.862 135.211C133.982 135.211 134.213 145.959 134.367 159.221C134.521 172.483 134.555 183.24 134.427 183.24C134.298 183.24 134.076 172.491 133.922 159.23C133.768 145.968 133.743 135.211 133.862 135.211Z" fill="#263238"/>
<path d="M251.809 205.337C251.809 205.337 251.074 205.456 249.766 205.704C247.918 206.073 246.116 206.646 244.396 207.414C241.849 208.563 239.449 210.013 237.247 211.732C234.549 213.844 232.029 216.175 229.714 218.701C227.235 221.377 224.977 224.02 222.874 226.397C221.006 228.49 219.034 230.488 216.966 232.382C215.566 233.664 214.083 234.852 212.528 235.939C211.981 236.324 211.527 236.58 211.228 236.794C211.082 236.899 210.924 236.985 210.758 237.051C210.886 236.926 211.026 236.814 211.177 236.717C211.459 236.503 211.895 236.221 212.425 235.811C213.938 234.683 215.382 233.467 216.752 232.168C218.505 230.544 220.463 228.474 222.566 226.106C224.67 223.737 226.927 221.087 229.407 218.41C231.741 215.871 234.287 213.534 237.017 211.425C239.253 209.704 241.694 208.267 244.285 207.149C246.035 206.399 247.869 205.865 249.748 205.559C250.415 205.431 250.937 205.431 251.288 205.388C251.459 205.349 251.634 205.332 251.809 205.337Z" fill="#263238"/>
<path d="M253.776 199.462C253.776 199.539 252.459 199.727 250.356 200.317C244.95 201.813 240.045 204.734 236.153 208.773C234.666 210.321 233.87 211.398 233.811 211.338C233.943 211.054 234.109 210.787 234.306 210.543C234.801 209.844 235.341 209.179 235.923 208.551C239.742 204.329 244.74 201.35 250.27 200C251.102 199.796 251.944 199.639 252.793 199.53C253.116 199.462 253.447 199.439 253.776 199.462Z" fill="#263238"/>
<g opacity="0.3">
<path d="M92.4023 184.232C96.994 185.48 102.501 178.879 106.673 174.749C108.837 172.595 111.094 170.303 111.898 167.353C112.462 164.874 112.207 162.279 111.171 159.957C110.402 157.863 109.377 155.873 108.118 154.031C108.503 157.597 109.384 163.052 108.187 167.533C107.186 171.269 104.818 174.236 102.304 177.058C99.6532 180.042 96.5066 183.172 92.4023 184.232Z" fill="black"/>
</g>
<path d="M112.023 180.457C111.938 180.457 112.468 178.943 112.878 176.455C113.127 175 113.267 173.528 113.297 172.052C113.328 170.246 113.207 168.442 112.938 166.656C112.643 164.873 112.202 163.117 111.621 161.406C111.134 160.011 110.545 158.654 109.86 157.345C108.688 155.104 107.722 153.856 107.791 153.805C108.06 154.061 108.298 154.348 108.5 154.66C108.77 154.997 109.018 155.351 109.244 155.72C109.518 156.148 109.843 156.626 110.142 157.191C110.871 158.495 111.494 159.856 112.006 161.261C112.621 162.989 113.079 164.769 113.374 166.579C113.652 168.392 113.764 170.227 113.708 172.06C113.662 173.557 113.487 175.048 113.186 176.515C113.083 177.148 112.921 177.695 112.793 178.225C112.689 178.645 112.563 179.059 112.416 179.465C112.317 179.807 112.185 180.139 112.023 180.457Z" fill="#263238"/>
<path d="M175.762 108.914C175.822 109.025 174.805 109.615 173.744 110.573C172.684 111.531 171.966 112.463 171.863 112.386C172.236 111.567 172.775 110.836 173.446 110.238C174.118 109.64 174.907 109.189 175.762 108.914Z" fill="#263238"/>
<path d="M184.782 114.156C184.876 114.25 184.004 115.182 183.303 116.568C182.602 117.953 182.337 119.201 182.209 119.133C182.147 118.145 182.392 117.163 182.91 116.32C183.302 115.427 183.955 114.673 184.782 114.156Z" fill="#263238"/>
<path d="M200.234 119.589C199.82 118.768 199.488 117.909 199.242 117.023C198.864 116.181 198.578 115.301 198.387 114.398C198.991 115.123 199.434 115.969 199.686 116.878C200.064 117.731 200.251 118.656 200.234 119.589Z" fill="#263238"/>
<path d="M210.177 114.89C210.04 114.89 209.707 113.411 208.724 111.812C207.74 110.213 206.577 109.204 206.671 109.102C207.711 109.669 208.559 110.532 209.108 111.581C209.784 112.554 210.156 113.706 210.177 114.89Z" fill="#263238"/>
<path d="M238.72 142.984C238.848 142.984 237.378 154.853 235.445 169.448C233.513 184.044 231.845 195.87 231.726 195.853C231.606 195.836 233.068 183.993 235 169.389C236.933 154.784 238.6 142.967 238.72 142.984Z" fill="#263238"/>
<path d="M108.792 162.172C108.826 162.579 108.826 162.988 108.792 163.395C108.769 163.874 108.709 164.352 108.612 164.823C108.561 165.105 108.518 165.395 108.459 165.678C108.399 165.96 108.305 166.31 108.211 166.652C107.789 168.256 107.216 169.817 106.5 171.312C105.602 173.133 104.534 174.865 103.311 176.486C102.053 178.094 100.619 179.556 99.0358 180.846C97.7328 181.89 96.2946 182.753 94.7605 183.412C94.427 183.54 94.1192 183.685 93.8199 183.796L92.9649 184.036L92.2124 184.241C91.9816 184.292 91.7592 184.301 91.5626 184.335C91.1582 184.399 90.7493 184.431 90.3398 184.429C91.8056 184.139 93.238 183.701 94.6151 183.121C96.091 182.442 97.4756 181.58 98.7365 180.556C100.261 179.279 101.648 177.846 102.875 176.28C104.081 174.686 105.139 172.986 106.039 171.201C106.762 169.733 107.357 168.206 107.817 166.635C108.219 165.165 108.544 163.676 108.792 162.172Z" fill="#263238"/>
<g opacity="0.3">
<path d="M235.931 261.334C239.608 259.556 240.446 254.793 240.822 250.723C241.916 238.815 243.014 226.898 244.114 214.973C244.635 209.373 244.883 203.002 240.933 198.966C237.325 195.307 231.587 195.093 226.448 195.11C194.726 195.196 166.705 196.128 134.957 196.213L136.573 251.715L235.931 261.334Z" fill="black"/>
</g>
<path d="M121.303 204.817L124.68 269.186C124.75 270.388 125.279 271.518 126.157 272.342C127.035 273.166 128.196 273.622 129.4 273.615L231.939 273.795C233.145 273.799 234.307 273.34 235.185 272.513C236.063 271.686 236.591 270.553 236.659 269.349L240.566 206.074C240.703 203.441 238.856 199.944 236.171 199.892H126.117C125.47 199.875 124.827 199.991 124.228 200.234C123.629 200.477 123.086 200.841 122.634 201.304C122.182 201.766 121.831 202.317 121.601 202.921C121.372 203.526 121.271 204.172 121.303 204.817Z" fill="#E0E0E0"/>
<path d="M121.3 204.813C121.3 204.813 121.3 204.728 121.3 204.574C121.278 204.335 121.278 204.094 121.3 203.855C121.44 202.916 121.863 202.042 122.514 201.35C122.992 200.839 123.575 200.439 124.224 200.179C125.018 199.893 125.863 199.777 126.704 199.837H132.937L172.663 199.768L231.585 199.708H235.775C236.518 199.669 237.254 199.857 237.887 200.247C238.511 200.644 239.044 201.169 239.452 201.786C240.291 203.01 240.741 204.458 240.743 205.942C240.658 207.37 240.572 208.815 240.487 210.268C240.127 216.06 239.763 221.968 239.392 227.994C238.657 240.041 237.887 252.508 237.092 265.283L236.947 267.677C236.878 268.472 236.895 269.242 236.75 270.08C236.585 270.898 236.215 271.662 235.673 272.297C235.131 272.933 234.437 273.421 233.655 273.714C232.885 273.987 232.066 274.094 231.252 274.03H224.198H205.788L170.987 273.953L139.496 273.876H132.228H130.492C129.902 273.876 129.321 273.876 128.705 273.816C127.505 273.647 126.411 273.037 125.635 272.106C124.879 271.197 124.472 270.048 124.489 268.865C124.43 267.745 124.378 266.642 124.318 265.548C124.207 263.35 124.096 261.213 123.985 259.118C123.13 242.367 122.454 228.815 121.976 219.443C121.753 214.766 121.574 211.132 121.454 208.652C121.403 207.421 121.36 206.489 121.326 205.848C121.292 205.206 121.326 204.89 121.326 204.89C121.326 204.89 121.326 205.215 121.403 205.848C121.48 206.48 121.497 207.421 121.565 208.644C121.71 211.123 121.916 214.757 122.181 219.435C122.685 228.84 123.421 242.359 124.327 259.101C124.438 261.196 124.558 263.333 124.678 265.531C124.729 266.625 124.789 267.728 124.849 268.848C124.832 269.957 125.214 271.034 125.926 271.884C126.649 272.746 127.667 273.307 128.782 273.457C129.35 273.508 129.921 273.525 130.492 273.508H139.53H171.022L205.823 273.56H224.232H231.286C232.048 273.621 232.814 273.522 233.535 273.269C234.246 273.003 234.877 272.561 235.369 271.983C235.862 271.406 236.198 270.712 236.348 269.968C236.476 269.242 236.476 268.404 236.536 267.626L236.682 265.231C237.477 252.457 238.246 239.99 238.999 227.951C239.369 221.92 239.734 216.009 240.093 210.217C240.187 208.772 240.273 207.335 240.358 205.899C240.353 204.507 239.93 203.149 239.144 202C238.806 201.415 238.318 200.93 237.731 200.596C237.143 200.263 236.477 200.092 235.801 200.102H231.62H172.698L132.972 200.042H126.738C125.913 199.978 125.083 200.085 124.301 200.358C123.545 200.65 122.877 201.134 122.364 201.762C121.852 202.39 121.511 203.141 121.377 203.941C121.337 204.23 121.311 204.521 121.3 204.813Z" fill="#263238"/>
<path d="M181.695 242.253C185.029 242.253 187.732 239.55 187.732 236.216C187.732 232.882 185.029 230.18 181.695 230.18C178.361 230.18 175.658 232.882 175.658 236.216C175.658 239.55 178.361 242.253 181.695 242.253Z" fill="white"/>
<path d="M187.73 236.213C187.688 236.213 187.73 235.675 187.457 234.76C187.103 233.469 186.326 232.334 185.251 231.536C184.521 230.985 183.671 230.616 182.771 230.459C181.744 230.28 180.689 230.374 179.71 230.732C178.625 231.124 177.684 231.833 177.008 232.767C176.318 233.71 175.928 234.839 175.886 236.006C175.844 237.174 176.154 238.327 176.774 239.316C177.395 240.306 178.298 241.087 179.367 241.558C180.436 242.029 181.622 242.169 182.771 241.959C183.671 241.802 184.521 241.433 185.251 240.882C186.324 240.087 187.101 238.955 187.457 237.667C187.705 236.752 187.688 236.205 187.73 236.213C187.753 236.341 187.753 236.471 187.73 236.598C187.735 236.973 187.692 237.346 187.602 237.71C187.291 239.067 186.521 240.275 185.422 241.13C184.6 241.77 183.63 242.192 182.601 242.357C181.573 242.521 180.519 242.423 179.539 242.07C178.623 241.743 177.797 241.207 177.127 240.503C176.456 239.799 175.96 238.948 175.677 238.018C175.394 237.088 175.334 236.105 175.499 235.147C175.665 234.189 176.053 233.283 176.632 232.502C177.36 231.504 178.374 230.75 179.539 230.339C180.588 229.963 181.72 229.878 182.814 230.091C183.751 230.28 184.63 230.687 185.379 231.28C186.482 232.131 187.253 233.341 187.559 234.7C187.65 235.06 187.693 235.431 187.688 235.803C187.726 235.936 187.74 236.075 187.73 236.213Z" fill="#263238"/>
<path d="M124.758 211.938C124.877 211.938 125.391 222.754 125.886 236.101C126.382 249.449 126.69 260.274 126.571 260.274C126.451 260.274 125.963 249.449 125.442 236.11C124.92 222.771 124.638 211.946 124.758 211.938Z" fill="#263238"/>
<path d="M93.9415 127.955C93.3344 127.442 95.968 117.335 95.968 117.335C95.968 117.335 89.0078 105.988 88.8283 102.329C88.6487 98.669 91.573 91.1616 91.573 91.1616L111.521 86.0312C111.521 86.0312 117.934 97.9337 119.217 102.141C120.5 106.347 117.02 120.627 117.02 120.627L113.599 127.955C113.599 127.955 103.441 136.009 93.9415 127.955Z" fill="#936760"/>
<path d="M88.8597 104.52C88.0788 103.079 87.3766 101.598 86.7563 100.082C85.4993 97.0891 83.9431 94.1477 86.7563 92.4718C87.1952 92.1829 87.691 91.9914 88.2102 91.9103C88.7294 91.8291 89.2599 91.8602 89.7661 92.0015C89.7661 92.0015 89.3385 89.4363 90.8434 88.53C91.2812 88.2565 91.7776 88.0906 92.2919 88.046C92.8061 88.0015 93.3236 88.0794 93.802 88.2734C93.802 88.2734 93.3231 84.7164 95.5121 83.2115C96.3266 82.6736 97.2751 82.3734 98.2508 82.3447C99.2265 82.316 100.191 82.5599 101.036 83.049C101.036 83.049 99.3256 67.4784 99.1717 66.6576C98.6245 63.6307 99.7446 60.9458 102.754 61.6982C103.857 61.9719 104.465 63.1347 105.764 68.2052C107.064 73.2757 109.142 81.9289 109.142 81.9289C109.142 81.9289 112.647 88.0169 114.272 91.3346C115.897 94.6522 119.206 102.16 119.479 104.16C120.18 109.291 117.162 116.131 117.162 116.131L95.9567 117.363L88.8597 104.52Z" fill="#936760"/>
<path d="M90.1886 92.6641C90.7932 93.3852 91.342 94.1512 91.8303 94.9556L93.5404 97.5208C93.8869 98.026 94.1928 98.5577 94.4554 99.1112C94.7536 99.7425 94.8405 100.453 94.7033 101.138C94.6389 101.495 94.4807 101.829 94.2448 102.106C94.0089 102.382 93.7039 102.591 93.3609 102.711C92.7204 102.871 92.0433 102.786 91.4626 102.472C90.9634 102.232 90.4881 101.946 90.0433 101.617C89.6328 101.317 89.2481 101.027 88.906 100.761C88.2134 100.223 87.6833 99.761 87.3242 99.4276C86.965 99.0941 86.7769 98.906 86.794 98.8803C86.8111 98.8547 87.6491 99.5045 89.0941 100.505C89.9017 101.113 90.7599 101.651 91.6593 102.112C92.1505 102.371 92.7191 102.441 93.2583 102.309C93.5275 102.211 93.7655 102.043 93.9475 101.822C94.1295 101.601 94.2488 101.335 94.2929 101.052C94.4017 100.474 94.327 99.8759 94.0791 99.3421C93.8334 98.8082 93.5475 98.2937 93.2241 97.803L91.6251 95.2378C91.0751 94.4216 90.5946 93.5607 90.1886 92.6641Z" fill="#6F4C47"/>
<path d="M107.579 94.5216C107.397 93.4076 107.473 92.2667 107.802 91.1868C107.994 90.073 108.448 89.0208 109.127 88.1172C109.247 88.177 108.657 89.5366 108.272 91.2894C107.887 93.0423 107.716 94.5216 107.579 94.5216Z" fill="#6F4C47"/>
<path d="M115.995 99.0666C114.037 97.1715 111.572 95.8854 108.898 95.3642C106.235 94.8513 103.511 94.7475 100.817 95.0564C98.6625 95.253 96.1914 95.8088 95.2166 97.7412C94.2419 99.6737 95.4218 102.29 97.3286 103.427C99.2354 104.565 101.604 104.616 103.836 104.419C106.067 104.223 108.29 103.804 110.497 104.146" fill="#936760"/>
<path d="M110.493 104.152C110.493 104.152 109.894 104.092 108.783 104.152C107.263 104.218 105.748 104.361 104.242 104.579C103.185 104.715 102.118 104.76 101.053 104.716C99.8114 104.674 98.593 104.368 97.4788 103.818C96.2352 103.164 95.2875 102.06 94.8281 100.732C94.5842 100.023 94.5312 99.2618 94.6742 98.5257C94.8567 97.7667 95.2651 97.0809 95.8456 96.559C97.0235 95.6483 98.4403 95.0988 99.9243 94.9772C101.261 94.82 102.606 94.7401 103.952 94.7378C106.242 94.696 108.522 95.04 110.698 95.7553C112.162 96.2472 113.53 96.9877 114.742 97.9442C115.073 98.2062 115.385 98.492 115.674 98.7993C115.783 98.8975 115.878 99.0096 115.957 99.1328C115.957 99.1328 115.512 98.7309 114.64 98.0982C113.408 97.2122 112.043 96.5281 110.595 96.0717C108.448 95.4104 106.206 95.1042 103.96 95.1653C102.631 95.18 101.304 95.2685 99.9841 95.4304C98.5883 95.5419 97.2547 96.0558 96.1449 96.9096C95.6342 97.3612 95.2732 97.9577 95.1103 98.6197C94.9768 99.2778 95.0211 99.9596 95.2386 100.595C95.659 101.824 96.5299 102.847 97.6755 103.459C98.7415 103.985 99.9077 104.277 101.096 104.314C102.139 104.372 103.186 104.346 104.225 104.237C105.745 104.039 107.276 103.939 108.808 103.938C109.223 103.957 109.637 103.997 110.048 104.058C110.2 104.067 110.35 104.099 110.493 104.152Z" fill="#6F4C47"/>
<path d="M90.3398 92.9136C92.5715 96.3338 94.5382 100.028 96.4193 103.619C96.8685 104.719 97.6073 105.676 98.557 106.389C99.3607 106.885 101.353 105.987 102.251 105.68L96.12 91.7422" fill="#936760"/>
<path d="M96.12 91.7422C96.3344 92.0692 96.5176 92.4156 96.6673 92.7768L98.0183 95.7011C99.1555 98.1808 100.712 101.687 102.447 105.594L102.55 105.808L102.319 105.893C101.661 106.124 100.951 106.424 100.182 106.62C99.8734 106.697 99.5583 106.743 99.241 106.757C99.074 106.765 98.9068 106.748 98.7451 106.706C98.5759 106.664 98.4182 106.585 98.2833 106.475C97.7897 106.119 97.3689 105.672 97.0435 105.158C96.4193 104.166 95.9747 103.174 95.4702 102.259C94.5125 100.404 93.6318 98.7451 92.8623 97.3599C92.0927 95.9747 91.46 94.8717 91.0068 94.1107C90.757 93.7276 90.5342 93.3276 90.3398 92.9136C90.6473 93.2559 90.9194 93.6283 91.1521 94.0252C91.6481 94.752 92.3407 95.8379 93.1359 97.206C93.9311 98.5741 94.846 100.216 95.8379 102.063C96.3424 102.978 96.8126 103.987 97.4112 104.919C97.7085 105.383 98.0881 105.788 98.5313 106.116C98.7674 106.238 99.0275 106.308 99.2933 106.32C99.5591 106.332 99.8243 106.285 100.07 106.184C100.797 106.005 101.49 105.714 102.174 105.474L102.02 105.799C100.31 101.858 98.7878 98.3603 97.7446 95.8465L96.5134 92.8709C96.3492 92.507 96.2176 92.1293 96.12 91.7422Z" fill="#6F4C47"/>
<path d="M94.4707 87.5926C96.4373 92.5348 98.4068 97.4742 100.379 102.411C100.738 103.485 101.276 104.491 101.97 105.386C102.32 105.831 102.775 106.182 103.295 106.407C103.814 106.632 104.381 106.725 104.945 106.677C106.484 106.455 107.51 104.822 107.57 103.257C107.523 101.696 107.144 100.163 106.459 98.7597C104.692 94.253 103.276 89.6161 102.226 84.8906" fill="#936760"/>
<path d="M102.225 84.8984C102.285 85.0457 102.333 85.1971 102.37 85.3516C102.464 85.6936 102.576 86.1297 102.721 86.6599C103.029 87.7971 103.473 89.4388 104.098 91.4482C104.722 93.4576 105.526 95.8261 106.543 98.4084C107.173 99.7613 107.592 101.203 107.783 102.684C107.84 103.496 107.683 104.31 107.33 105.044C106.968 105.811 106.339 106.419 105.56 106.754C105.155 106.902 104.723 106.96 104.293 106.925C103.864 106.889 103.447 106.761 103.072 106.549C102.37 106.158 101.781 105.592 101.361 104.907C100.655 103.616 100.057 102.269 99.5744 100.879C98.5654 98.3143 97.6591 95.9714 96.881 93.9963C96.1029 92.0211 95.5471 90.4905 95.1024 89.3362L94.6322 88.0621C94.5711 87.9139 94.5281 87.7589 94.5039 87.6004C94.5904 87.7348 94.662 87.8781 94.7177 88.028L95.2649 89.2678C95.7352 90.4136 96.385 91.9783 97.1717 93.8765C97.9583 95.7748 98.8818 98.1518 99.9592 100.717C100.441 102.074 101.033 103.39 101.729 104.65C102.117 105.276 102.662 105.789 103.311 106.138C103.631 106.318 103.986 106.427 104.352 106.458C104.718 106.489 105.086 106.441 105.432 106.318C106.114 106.02 106.662 105.481 106.971 104.804C107.292 104.14 107.434 103.403 107.381 102.667C107.191 101.244 106.791 99.858 106.193 98.5537C105.192 95.9885 104.414 93.5516 103.833 91.5337C103.251 89.5158 102.841 87.8398 102.584 86.6941C102.464 86.1126 102.37 85.668 102.319 85.3602C102.264 85.2121 102.232 85.0563 102.225 84.8984Z" fill="#6F4C47"/>
<path d="M94.9405 122.34C94.9405 122.34 81.4135 162.237 80.8748 164.186C80.3361 166.136 83.5511 180.39 89.4254 183.767C95.2996 187.144 106.698 173.087 108.117 167.923C109.536 162.758 108.117 154.037 108.117 154.037L117.24 119.672" fill="#936760"/>
<path d="M108.119 116.134C107.688 116.189 107.249 116.133 106.845 115.971C105.847 115.66 104.93 115.132 104.16 114.424C103.381 113.714 102.773 112.837 102.382 111.858C102.182 111.471 102.088 111.037 102.108 110.602C102.672 111.896 103.469 113.076 104.46 114.082C105.541 114.988 106.782 115.684 108.119 116.134Z" fill="#6F4C47"/>
<path d="M351.114 309.488C351.114 309.616 275.775 309.719 182.855 309.719C89.9363 309.719 14.5801 309.616 14.5801 309.488C14.5801 309.36 89.9107 309.266 182.855 309.266C275.8 309.266 351.114 309.368 351.114 309.488Z" fill="#263238"/>
<path d="M130.615 23.4922H34.6522C32.154 23.4922 30.1289 25.5173 30.1289 28.0154V54.6249C30.1289 57.123 32.154 59.1481 34.6522 59.1481H130.615C133.113 59.1481 135.139 57.123 135.139 54.6249V28.0154C135.139 25.5173 133.113 23.4922 130.615 23.4922Z" fill="#084C3F"/>
<path d="M135.812 59.1428H43.5259C42.255 59.1293 41.0406 58.6156 40.1459 57.7129C39.2512 56.8102 38.7483 55.5913 38.7461 54.3203V28.1897C38.7484 26.9114 39.2572 25.6861 40.1611 24.7822C41.065 23.8783 42.2903 23.3694 43.5686 23.3672H135.812C137.091 23.3694 138.316 23.8783 139.22 24.7822C140.124 25.6861 140.633 26.9114 140.635 28.1897V54.3203C140.633 55.5986 140.124 56.8239 139.22 57.7278C138.316 58.6317 137.091 59.1406 135.812 59.1428ZM43.5259 24.2222C42.4818 24.2357 41.4848 24.6594 40.7505 25.4017C40.0162 26.1441 39.6033 27.1455 39.6012 28.1897V54.3203C39.6012 55.3725 40.0192 56.3817 40.7632 57.1257C41.5072 57.8698 42.5164 58.2878 43.5686 58.2878H135.812C136.865 58.2878 137.874 57.8698 138.618 57.1257C139.362 56.3817 139.78 55.3725 139.78 54.3203V28.1897C139.777 27.1382 139.359 26.1303 138.615 25.3868C137.872 24.6432 136.864 24.2245 135.812 24.2222H43.5259Z" fill="#084C3F"/>
<path d="M49.4355 40.8195C49.4808 40.0138 49.7622 39.2391 50.2446 38.5921C50.7269 37.9451 51.389 37.4543 52.1483 37.1808C52.9076 36.9073 53.7306 36.8633 54.5147 37.0542C55.2989 37.2451 56.0095 37.6625 56.5582 38.2544L55.4466 39.2804C55.2189 39.0062 54.9323 38.7869 54.6081 38.6388C54.2838 38.4908 53.9304 38.4178 53.574 38.4254C52.9413 38.4254 52.3345 38.6767 51.8871 39.1241C51.4398 39.5715 51.1884 40.1783 51.1884 40.811C51.1884 41.4437 51.4398 42.0505 51.8871 42.4979C52.3345 42.9453 52.9413 43.1966 53.574 43.1966C53.9303 43.2035 54.2835 43.1303 54.6077 42.9823C54.9318 42.8343 55.2185 42.6153 55.4466 42.3415L56.5582 43.3847C56.0113 43.9806 55.3005 44.4016 54.5151 44.5948C53.7297 44.7881 52.9047 44.745 52.1438 44.4709C51.3828 44.1969 50.7197 43.7041 50.2379 43.0544C49.7561 42.4048 49.4769 41.6273 49.4355 40.8195Z" fill="white"/>
<path d="M57.7144 37.0781H59.4245V43.1405H63.1696V44.5428H57.6973L57.7144 37.0781Z" fill="white"/>
<path d="M64.1504 37.0781H65.8605V44.5428H64.1504V37.0781Z" fill="white"/>
<path d="M67.1777 40.8151C67.2208 40.0092 67.5005 39.2339 67.9818 38.5861C68.4632 37.9383 69.1248 37.4468 69.884 37.173C70.6432 36.8993 71.4663 36.8554 72.2503 37.047C73.0342 37.2385 73.7444 37.6569 74.2918 38.2499L73.1888 39.276C72.9594 39.0015 72.6712 38.7822 72.3456 38.6342C72.02 38.4862 71.6653 38.4133 71.3077 38.4209C70.9944 38.4209 70.6842 38.4826 70.3947 38.6025C70.1053 38.7224 69.8423 38.8981 69.6208 39.1197C69.3993 39.3412 69.2235 39.6042 69.1036 39.8936C68.9838 40.183 68.9221 40.4932 68.9221 40.8065C68.9221 41.1198 68.9838 41.43 69.1036 41.7195C69.2235 42.0089 69.3993 42.2719 69.6208 42.4934C69.8423 42.7149 70.1053 42.8907 70.3947 43.0106C70.6842 43.1304 70.9944 43.1921 71.3077 43.1921C71.6652 43.1991 72.0197 43.126 72.3452 42.978C72.6707 42.83 72.959 42.611 73.1888 42.3371L74.2918 43.3803C73.7461 43.9773 73.0359 44.3994 72.2506 44.5933C71.4654 44.7872 70.6403 44.7443 69.8794 44.4699C69.1185 44.1956 68.4559 43.702 67.9751 43.0516C67.4943 42.4012 67.2169 41.623 67.1777 40.8151Z" fill="white"/>
<path d="M78.1742 41.6099L77.1652 42.6531V44.5428H75.4551V37.0781H77.1652V40.5668L80.4743 37.0781H82.3554L79.2686 40.4043L82.5435 44.5428H80.5598L78.1742 41.6099Z" fill="white"/>
<path d="M93.1979 37.0781V44.5428H91.4878V41.4817H88.0675V44.5428H86.3574V37.0781H88.0675V40.0281H91.4878V37.0781H93.1979Z" fill="white"/>
<path d="M100.739 43.1576V44.5428H94.959V37.0781H100.602V38.4719H96.6776V40.0879H100.141V41.4304H96.6776V43.1405L100.739 43.1576Z" fill="white"/>
<path d="M106.863 44.5428L105.443 42.465H103.853V44.5428H102.143V37.0781H105.375C107.367 37.0781 108.615 38.1128 108.615 39.7887C108.636 40.2932 108.499 40.7917 108.223 41.2147C107.947 41.6377 107.546 41.9641 107.076 42.1486L108.786 44.5428H106.863ZM105.246 38.489H103.836V41.0541H105.246C106.298 41.0541 106.828 40.5668 106.828 39.7545C106.828 38.9422 106.298 38.489 105.246 38.489Z" fill="white"/>
<path d="M115.702 43.1576V44.5428H109.922V37.0781H115.557V38.4719H111.641V40.0879H115.061V41.4304H111.641V43.1405L115.702 43.1576Z" fill="white"/>
<path d="M136.746 58.3535C136.035 57.7039 135.429 56.9482 134.95 56.1132C134.346 55.3628 133.861 54.5235 133.514 53.625C134.226 54.2755 134.834 55.0309 135.318 55.8652C135.921 56.6146 136.403 57.4543 136.746 58.3535Z" fill="#084C3F"/>
<path d="M140.21 30.7944C139.15 29.7182 138.202 28.5379 137.379 27.2715C136.439 26.0922 135.611 24.8268 134.908 23.4922C135.968 24.5684 136.916 25.7486 137.738 27.015C138.683 28.1918 139.51 29.4575 140.21 30.7944Z" fill="#084C3F"/>
<path d="M139.84 53.6405C139.712 53.7346 138.429 51.9304 137.027 49.5192C136.317 48.3392 135.693 47.2618 135.257 46.4752C134.985 46.066 134.761 45.627 134.59 45.1669C134.718 45.0814 136.001 46.9283 137.403 49.2883C138.113 50.4683 138.737 51.5457 139.182 52.3323C139.453 52.7402 139.674 53.1795 139.84 53.6405Z" fill="#084C3F"/>
<path d="M140.233 46.1723C140.105 46.2663 138.737 44.274 137.223 41.7345C136.462 40.4605 135.787 39.3061 135.308 38.4596C135.021 38.0183 134.78 37.5483 134.59 37.0573C134.718 36.9718 136.086 38.9641 137.608 41.5036C138.369 42.7691 139.036 43.932 139.515 44.77C139.805 45.21 140.045 45.6802 140.233 46.1723Z" fill="#084C3F"/>
<path d="M140.226 38.7939C140.098 38.8879 138.722 36.8785 137.2 34.3305C136.43 33.0564 135.754 31.885 135.276 31.0385C134.983 30.596 134.739 30.123 134.549 29.6276C134.677 29.5421 136.054 31.543 137.576 34.0996C138.345 35.3736 139.021 36.5365 139.5 37.3916C139.795 37.8294 140.039 38.2999 140.226 38.7939Z" fill="#084C3F"/>
<path d="M27.5371 29.0163C25.6981 28.7678 23.8822 28.3703 22.1075 27.8277C20.2945 27.4279 18.5161 26.8846 16.7891 26.2031C18.6281 26.4516 20.444 26.8491 22.2187 27.3917C24.0321 27.7899 25.8107 28.3332 27.5371 29.0163Z" fill="#263238"/>
<path d="M28.5725 22.5955C26.565 20.5033 24.6671 18.3085 22.8863 16.0202C20.9892 13.835 19.2083 11.5517 17.5508 9.17969C19.556 11.2771 21.4538 13.4745 23.2369 15.7636C25.1291 17.9499 26.9099 20.2301 28.5725 22.5955Z" fill="#263238"/>
<path d="M36.4997 19.5014C35.883 18.0675 35.488 16.548 35.3283 14.9953C35.0192 13.4646 34.9557 11.8944 35.1402 10.3438C35.2684 10.3437 35.3881 12.413 35.7644 14.9354C36.1406 17.4578 36.628 19.4416 36.4997 19.5014Z" fill="#263238"/>
</svg>
