<svg width="84" height="75" viewBox="0 0 84 75" fill="none" xmlns="http://www.w3.org/2000/svg">
<path fill-rule="evenodd" clip-rule="evenodd" d="M12.5814 1.04914C4.15751 2.602 -1.20741 11.1967 1.1721 19.3275C2.21038 22.8755 4.60061 26.0444 7.53489 27.7635L8.62883 28.4044L8.67711 41.1313L8.7254 53.8582L9.13732 54.6955C9.66375 55.7656 10.8395 56.94 11.9108 57.4658L12.7491 57.8773L22.623 57.9243L32.497 57.9714L32.3895 59.3477C32.2252 61.4495 31.8108 63.5721 31.2215 65.3292L30.688 66.9201L28.1732 67.0038C25.8237 67.082 25.6081 67.1172 24.8922 67.5375C22.5984 68.8844 22.2917 71.9342 24.2605 73.8193C25.4249 74.9341 24.423 74.8744 42.0046 74.8744C59.5863 74.8744 58.5844 74.9341 59.7487 73.8193C61.796 71.8592 61.3709 68.665 58.8992 67.4347C58.0945 67.0341 57.87 67.0038 55.7098 67.0038H53.3863L53.0439 66.231C52.5601 65.1385 51.7948 62.0013 51.5778 60.2217C51.2757 57.743 51.1411 57.961 52.974 57.961H54.5548L54.8299 58.9239C55.9111 62.7082 58.7494 66.0567 62.3745 67.8254C64.9688 69.0912 65.768 69.266 68.913 69.2558C71.3819 69.2478 71.709 69.2099 73.0205 68.7806C78.4092 67.0164 82.1268 62.8651 83.152 57.467C84.2268 51.8072 81.6634 45.8322 76.8261 42.7222L75.3935 41.8011L75.3387 27.2321C75.287 13.512 75.2659 12.6273 74.977 12.0471C74.5405 11.1704 73.589 10.2477 72.697 9.83542C71.9311 9.48158 71.9199 9.48141 50.2196 9.43503L28.5085 9.38881L27.9603 8.3941C25.3677 3.69133 20.4224 0.813696 15.0396 0.875991C14.1487 0.886206 13.0425 0.964243 12.5814 1.04914ZM18.9523 3.77706C23.2118 5.21889 26.2926 8.70189 27.1772 13.0759C27.7065 15.694 27.3182 18.3821 26.0391 20.9524C25.4701 22.0958 25.0332 22.6724 23.8181 23.8829C21.5179 26.1748 19.6153 27.1178 16.5037 27.5083C15.1656 27.6761 14.6828 27.6644 13.296 27.4294C10.4004 26.9389 8.33929 25.8427 6.32057 23.72C-0.205676 16.8577 3.27448 5.58429 12.5814 3.4388C14.2368 3.05715 17.3071 3.22026 18.9523 3.77706ZM12.9167 4.64317C12.2713 4.77613 11.1019 5.19578 10.3181 5.57558C9.17052 6.13172 8.6124 6.54668 7.4519 7.70634C5.20216 9.95449 4.22658 12.2929 4.23127 15.4262C4.23597 18.4278 5.30342 20.9732 7.46883 23.1451C9.57506 25.2578 12.1405 26.3111 15.1801 26.3111C18.2196 26.3111 20.785 25.2578 22.8913 23.1451C25.0567 20.9732 26.1241 18.4278 26.1288 15.4262C26.1335 12.2941 25.1585 9.95633 22.9082 7.704C21.7351 6.52993 21.202 6.1349 20.042 5.57994C17.6638 4.44255 15.3596 4.13961 12.9167 4.64317ZM17.9214 7.20915C20.517 8.10908 22.539 10.1507 23.406 12.7469C23.8965 14.2157 23.8995 16.4136 23.413 17.9502C22.758 20.02 21.1547 21.9694 19.2614 22.9983C16.8822 24.2912 13.4779 24.2912 11.0987 22.9983C8.29721 21.4759 6.6034 18.5966 6.59469 15.3425C6.58329 11.1279 9.53633 7.6551 13.8388 6.82299C14.6804 6.66022 16.9604 6.87591 17.9214 7.20915ZM14.3418 8.058C13.862 8.53727 13.8893 9.5643 14.3944 10.0384C15.2127 10.8062 16.3536 10.2075 16.3536 9.01018C16.3536 8.24656 15.8762 7.72309 15.1801 7.72309C14.9006 7.72309 14.5281 7.87196 14.3418 8.058ZM9.84079 9.8582C9.65017 10.0195 9.44513 10.3579 9.38528 10.6106C9.29575 10.9887 9.38042 11.1739 9.86427 11.6572C10.5394 12.3316 10.9297 12.387 11.5529 11.8974C12.1796 11.405 12.1485 10.6804 11.4739 10.0509C10.8804 9.49715 10.3431 9.43369 9.84079 9.8582ZM18.8555 10.0546C18.2151 10.6943 18.1961 11.4172 18.8072 11.8974C19.4304 12.387 19.8207 12.3316 20.4958 11.6572C20.9797 11.1739 21.0644 10.9887 20.9748 10.6106C20.7212 9.53986 19.6517 9.25936 18.8555 10.0546ZM14.7299 10.9075C14.1756 11.1282 14.007 11.5991 14.0006 12.9451C13.9969 13.69 13.9007 14.3344 13.755 14.5889C13.1639 15.6218 13.8769 16.9466 15.0625 17.0184C15.3995 17.0389 16.0844 17.2696 16.5847 17.5314C17.3741 17.9442 17.552 17.9807 17.9323 17.8075C18.1732 17.6978 18.4568 17.4187 18.5625 17.1871C18.8403 16.578 18.5326 16.0271 17.576 15.4212C16.531 14.7592 16.3667 14.4173 16.3595 12.8911C16.3551 11.9196 16.283 11.5301 16.0602 11.2729C15.6953 10.8512 15.2077 10.7173 14.7299 10.9075ZM72.0651 12.1437C73.0628 12.8192 73.0205 12.1561 73.0205 27.1514C73.0205 40.1701 73.0049 40.898 72.7271 40.8138C70.8482 40.2446 67.6211 40.1487 65.7276 40.6058C62.6714 41.3435 60.111 42.836 58.0608 45.075L56.842 46.4061H33.9153L10.9887 46.4063V37.8479C10.9887 29.7638 11.005 29.2961 11.2821 29.4074C11.4434 29.4723 12.2922 29.6419 13.1682 29.7844C19.1186 30.7525 25.4349 27.4219 28.2357 21.8394C29.2001 19.9172 29.6323 18.0964 29.6586 15.8449C29.6715 14.7396 29.618 13.3633 29.5396 12.7862L29.3971 11.7371L50.4963 11.7815C70.9032 11.8243 71.6109 11.8362 72.0651 12.1437ZM7.8033 14.5889C7.32079 15.0709 7.36925 15.8268 7.90976 16.2513C8.82029 16.9669 10.1504 16.4256 10.1504 15.3398C10.1504 14.9465 10.0376 14.6964 9.77776 14.5148C9.24378 14.141 8.21288 14.1798 7.8033 14.5889ZM20.5824 14.5148C20.037 14.8962 20.0729 15.7968 20.6514 16.2513C21.9095 17.2398 23.6715 15.7024 22.5568 14.5889C22.1472 14.1798 21.1163 14.141 20.5824 14.5148ZM41.2728 16.9456L40.831 17.2926V20.2826V23.2726L41.2728 23.6195C41.8529 24.0754 42.264 24.0578 42.7666 23.5556C43.1715 23.1513 43.1782 23.0981 43.1782 20.2826C43.1782 17.4671 43.1715 17.4138 42.7666 17.0096C42.264 16.5074 41.8529 16.4898 41.2728 16.9456ZM10.0432 18.8525C9.85102 18.9869 9.59669 19.3309 9.47816 19.6167C9.28754 20.0763 9.30145 20.1885 9.59753 20.5863C9.82923 20.8978 10.1137 21.0517 10.522 21.0867C11.0093 21.1286 11.1884 21.0464 11.5532 20.6135C11.796 20.3253 11.9946 19.9068 11.9946 19.6836C11.9946 18.797 10.831 18.3014 10.0432 18.8525ZM18.7008 18.9429C18.2428 19.4004 18.2801 19.988 18.8069 20.6135C19.1717 21.0464 19.3508 21.1286 19.8381 21.0867C20.2464 21.0517 20.5309 20.8978 20.7626 20.5863C21.0587 20.1885 21.0726 20.0763 20.882 19.6167C20.4714 18.6267 19.3608 18.2836 18.7008 18.9429ZM33.1482 20.3351C32.4648 21.0619 32.6298 21.3706 34.9283 23.6666C36.2965 25.0331 37.1988 25.8087 37.4206 25.8087C38.0111 25.8087 38.6516 25.1779 38.6516 24.5965C38.6516 24.1569 38.338 23.7651 36.5839 22.0129C34.8599 20.2911 34.4327 19.9476 34.0144 19.9476C33.7068 19.9476 33.3718 20.0975 33.1482 20.3351ZM47.3965 22.022C45.5659 23.8346 45.3019 24.1651 45.3019 24.6436C45.3019 25.0113 45.4273 25.2925 45.6836 25.4999C46.4587 26.1267 46.7952 25.9491 48.9968 23.75C50.88 21.8687 51.0579 21.6385 51.0579 21.0802C51.0579 20.6384 50.9546 20.3968 50.6852 20.2084C49.9132 19.6682 49.5985 19.8416 47.3965 22.022ZM14.7299 20.4527C13.9225 20.7742 13.7471 22.0483 14.4181 22.7183C14.6444 22.9443 14.9873 23.1294 15.1801 23.1294C15.3729 23.1294 15.7157 22.9443 15.942 22.7183C16.9367 21.7249 15.988 19.9518 14.7299 20.4527ZM45.8202 27.8095C41.707 27.9037 41.4879 27.9251 41.1471 28.2655C40.8029 28.6093 40.7863 28.8044 40.702 33.4972C40.6206 38.0283 40.6357 38.395 40.9164 38.7048C41.4621 39.3072 42.1409 39.1412 43.1326 38.1631L44.0196 37.2879L46.0719 39.317C48.3431 41.5628 48.6663 41.7919 49.2447 41.5654C49.4582 41.4818 50.7548 40.2799 52.1262 38.8949C54.4246 36.573 54.6105 36.3396 54.5054 35.9069C54.4353 35.618 53.5754 34.618 52.2677 33.3042L50.144 31.1708L50.9967 30.29C51.4656 29.8055 51.8955 29.2763 51.952 29.1141C52.1902 28.4305 51.363 27.6111 50.5052 27.6808C50.302 27.6973 48.1937 27.7553 45.8202 27.8095ZM30.0006 28.1138C29.6538 28.3452 29.4224 28.9833 29.53 29.4115C29.7329 30.2186 30.3396 30.3579 33.3988 30.2993C36.0752 30.2481 36.1777 30.2334 36.4873 29.851C36.9006 29.3406 36.8945 28.7426 36.4721 28.3206C36.1617 28.0107 35.9151 27.9859 33.1609 27.9882C31.5243 27.9897 30.1021 28.0462 30.0006 28.1138ZM47.647 30.469C47.0082 31.174 47.2401 31.5951 49.5472 33.9225L51.7248 36.1191L50.4237 37.411C49.708 38.1217 49.0476 38.7031 48.956 38.7031C48.8645 38.7031 47.8487 37.7612 46.6989 36.6099C44.9711 34.8799 44.5228 34.5166 44.116 34.5166C43.8453 34.5166 43.4858 34.6414 43.3172 34.7938C43.0219 35.0607 43.0105 35.0034 43.0124 33.2448C43.0134 32.2404 43.061 31.1361 43.1182 30.7907L43.2221 30.1627H45.5733C47.8405 30.1627 47.9146 30.1736 47.647 30.469ZM34.9283 34.4818C33.2367 36.1716 32.7837 36.7199 32.7837 37.0774C32.7837 37.693 33.3297 38.2008 33.9918 38.2008C34.4557 38.2008 34.8113 37.9191 36.5904 36.142C38.8524 33.8826 39.0227 33.5325 38.24 32.7508C37.5172 32.0287 37.2384 32.1746 34.9283 34.4818ZM70.4415 42.7356C77.6082 43.7311 82.4063 50.735 80.7175 57.7354C80.4883 58.6851 79.3352 61.2446 78.9399 61.6808C78.681 61.9665 78.6418 61.9385 78.1884 61.1458C77.5723 60.0682 76.0369 58.5042 74.864 57.7594C71.1118 55.3766 66.5466 55.3766 62.7943 57.7594C61.6214 58.5042 60.0861 60.0682 59.4699 61.1458C59.0166 61.9385 58.9774 61.9665 58.7185 61.6808C58.3232 61.2446 57.1701 58.6851 56.9409 57.7354C55.4934 51.7355 58.8469 45.4931 64.6551 43.3758C66.7072 42.6277 68.3541 42.4455 70.4415 42.7356ZM67.1265 44.4529C65.4521 45.0773 64.4849 45.9222 63.6653 47.4769C63.2678 48.2308 63.2143 48.5206 63.2136 49.9229C63.2128 51.4162 63.2478 51.5784 63.7842 52.5663C64.4316 53.7591 65.0992 54.4078 66.3625 55.0718C67.1376 55.4793 67.4167 55.5312 68.8292 55.5312C70.2417 55.5312 70.5208 55.4793 71.2959 55.0718C72.5591 54.4078 73.2267 53.7591 73.8742 52.5663C74.4105 51.5784 74.4456 51.4162 74.4447 49.9229C74.4441 48.5131 74.3916 48.2328 73.984 47.4591C73.3166 46.1924 72.6668 45.5276 71.4756 44.8935C70.58 44.4165 70.2207 44.3243 69.0807 44.2784C68.2307 44.244 67.5149 44.3078 67.1265 44.4529ZM70.1315 46.833C70.9601 47.1786 71.4909 47.6889 71.8654 48.4995C72.4466 49.7575 72.1296 51.4894 71.1542 52.3849C69.8961 53.5402 67.7622 53.5402 66.5042 52.3849C65.231 51.2159 65.1634 48.9053 66.3643 47.6006C67.2291 46.661 68.9025 46.3199 70.1315 46.833ZM55.3716 49.0438C55.3254 49.2049 55.0865 50.015 54.841 50.844C54.5647 51.7767 54.3562 52.9734 54.2936 53.9838L54.1927 55.6166H33.8414C14.1669 55.6166 13.4695 55.606 12.8681 55.2979C12.1474 54.9286 11.6424 54.4137 11.2598 53.6573C11.0514 53.2452 10.9887 52.6162 10.9887 50.9361V48.7507H33.2224C54.3176 48.7507 55.4518 48.7658 55.3716 49.0438ZM38.6516 51.4301C38.169 51.912 38.2175 52.6679 38.758 53.0924C39.1649 53.4123 39.4209 53.4396 42.0046 53.4396C44.5883 53.4396 44.8443 53.4123 45.2512 53.0924C45.7917 52.6679 45.8402 51.912 45.3577 51.4301C45.0472 51.1199 44.7989 51.0952 42.0046 51.0952C39.2103 51.0952 38.962 51.1199 38.6516 51.4301ZM49.1133 59.2588C49.2808 61.1756 49.6701 63.2923 50.1596 64.9501C50.398 65.7573 50.6311 66.5497 50.6773 66.7108C50.757 66.9873 50.2651 67.0038 42.0046 67.0038H33.2476L33.3542 66.6271C34.2114 63.6011 34.7955 60.3572 34.7955 58.6223V57.961H41.8977H48.9998L49.1133 59.2588ZM70.5248 58.4632C71.796 58.6987 73.6864 59.6703 74.7314 60.6251C75.6066 61.4249 76.8789 63.3212 76.874 63.8182C76.8707 64.1528 75.419 65.2078 74.0908 65.8408C70.8288 67.396 66.8296 67.396 63.5675 65.8408C62.2394 65.2078 60.7877 64.1528 60.7843 63.8182C60.7795 63.3212 62.0518 61.4249 62.9269 60.6251C63.9216 59.7163 65.8433 58.6998 66.985 58.4786C68.0459 58.2733 69.4658 58.2671 70.5248 58.4632ZM58.039 69.5928C58.6033 69.9876 58.8365 70.7327 58.61 71.4179C58.2181 72.6042 59.3269 72.53 42.0046 72.53C24.6823 72.53 25.7912 72.6042 25.3992 71.4179C25.2515 70.971 25.2549 70.7198 25.4138 70.3364C25.8489 69.2873 24.8257 69.3483 42.0046 69.3483C55.4851 69.3483 57.7386 69.3826 58.039 69.5928Z" fill="#084C3F"/>
</svg>
