<svg width="65" height="64" viewBox="0 0 65 64" fill="none" xmlns="http://www.w3.org/2000/svg">
<rect x="0.984863" width="64" height="64" rx="32" fill="#D1FAE5"/>
<path d="M37.9849 29.5C37.9849 32.9766 34.313 35.75 29.8599 35.75C28.2583 35.75 26.7349 35.3984 25.4849 34.8125C24.6255 35.2812 23.4536 35.75 22.0474 35.75H22.0083C21.8521 35.75 21.7349 35.6328 21.7349 35.4766C21.7349 35.3594 21.7349 35.2812 21.813 35.2422C21.813 35.2422 22.6724 34.3047 23.1802 33.0938C22.2817 32.0781 21.7349 30.8672 21.7349 29.5C21.7349 26.0625 25.3677 23.25 29.8599 23.25C34.313 23.25 37.9849 26.0625 37.9849 29.5ZM29.2349 33.25C29.2349 33.4453 29.3521 33.5625 29.5474 33.5625H30.1724C30.3286 33.5625 30.4849 33.4453 30.4849 33.25V32.625C31.3833 32.625 32.1255 31.8438 32.1255 30.8672C32.1255 30.0859 31.6177 29.3828 30.9146 29.1875L29.1567 28.6406C28.9224 28.6016 28.8052 28.4062 28.8052 28.1719C28.8052 27.8594 29.0005 27.625 29.2739 27.625H30.3677C30.5239 27.625 30.7192 27.7031 30.8755 27.7812C30.9927 27.8594 31.1489 27.8594 31.2661 27.7422L31.6958 27.3125C31.8521 27.1953 31.8521 26.9609 31.6958 26.8438C31.3442 26.5703 30.9146 26.4141 30.4458 26.4141V25.75C30.4458 25.5938 30.3286 25.4375 30.1333 25.4375H29.5083C29.3521 25.4375 29.1958 25.5938 29.1958 25.75V26.4141C28.2974 26.4141 27.5552 27.1953 27.5552 28.1719C27.5552 28.9531 28.063 29.6172 28.7661 29.8516L30.5239 30.3984C30.7583 30.4375 30.8755 30.6328 30.8755 30.8672C30.8755 31.1797 30.6802 31.375 30.4067 31.375H29.313C29.1567 31.375 28.9614 31.3359 28.8052 31.2578C28.688 31.1797 28.5317 31.1797 28.4146 31.2969L27.9849 31.7266C27.8286 31.8438 27.8286 32.0781 27.9849 32.1953C28.3364 32.4688 28.7661 32.625 29.2349 32.625V33.25ZM42.7505 38.0938C43.2583 39.3047 44.1177 40.2422 44.1177 40.2422C44.2349 40.3203 44.2349 40.4766 44.1958 40.5938C44.1567 40.7109 44.0396 40.75 43.9224 40.75C42.4771 40.75 41.3052 40.2812 40.4458 39.8125C39.1958 40.3984 37.6724 40.75 36.1099 40.75C32.7114 40.75 29.8208 39.1875 28.6099 36.9609C29.0005 37 29.4302 37 29.8599 37C35.0161 37 39.2349 33.6406 39.2349 29.5C39.2349 29.2656 39.1958 28.9922 39.1567 28.7188C42.1255 29.6562 44.2349 31.9219 44.2349 34.5C44.2349 35.8672 43.6489 37.0781 42.7505 38.0938Z" fill="#059669"/>
</svg>
