<svg width="98" height="27" viewBox="0 0 98 27" fill="none" xmlns="http://www.w3.org/2000/svg">
<g clip-path="url(#clip0_25913_175406)">
<path d="M24.7908 16.6863L13.6507 24.5024C13.4711 24.6285 13.2297 24.6283 13.0502 24.5024L1.91031 16.6863C1.73065 16.5603 1.65589 16.3386 1.72451 16.1348L5.97966 3.48782C6.04831 3.28388 6.24362 3.14689 6.46567 3.14689H20.2355C20.4574 3.14689 20.6527 3.28388 20.7213 3.48782L24.9765 16.1348C25.0451 16.3386 24.9704 16.5603 24.7908 16.6863ZM25.9482 15.8299L21.693 3.18292C21.4873 2.57114 20.9015 2.16016 20.2355 2.16016H6.46567C5.79945 2.16016 5.21386 2.57114 5.00797 3.18292L0.752814 15.8299C0.547112 16.4415 0.770716 17.1065 1.30968 17.4846L12.4496 25.3007C12.719 25.4898 13.0348 25.5842 13.3505 25.5842C13.6662 25.5842 13.9819 25.4896 14.2513 25.3007L25.3915 17.4846C25.9303 17.1065 26.1539 16.4415 25.9482 15.8299Z" fill="#56A3ED"/>
<path d="M24.7957 8.89789L13.6556 1.08177C13.4759 0.955635 13.2346 0.955828 13.0552 1.08177L1.91519 8.89789C1.73553 9.02395 1.66078 9.24556 1.72939 9.44942L5.98455 22.0964C6.05319 22.3003 6.24851 22.4374 6.47055 22.4374H20.2404C20.4622 22.4374 20.6576 22.3003 20.7262 22.0964L24.9813 9.44942C25.05 9.24556 24.9752 9.02395 24.7957 8.89789ZM25.953 9.75423L21.6979 22.4013C21.4922 23.0131 20.9064 23.424 20.2404 23.424H6.47055C5.80434 23.424 5.2187 23.013 5.01285 22.4013L0.757697 9.75423C0.551996 9.14274 0.775599 8.47774 1.31456 8.09957L12.4546 0.283508C12.724 0.094411 13.0397 0 13.3554 0C13.6711 0 13.9868 0.0945684 14.2562 0.283508L25.3964 8.09957C25.9351 8.47774 26.1588 9.14274 25.953 9.75423Z" fill="#56A3ED"/>
<path d="M35.5324 18.7184C36.4925 18.7184 37.2589 18.4218 37.8316 17.8278C38.4041 17.2343 38.6907 16.4491 38.6907 15.4732V13.2771C38.6907 12.3013 38.4041 11.5167 37.8316 10.9226C37.2589 10.329 36.4925 10.0321 35.5324 10.0321C34.6899 10.0321 33.9824 10.2315 33.4101 10.6297C32.8372 11.0287 32.551 11.5533 32.551 12.2037V16.5468C32.551 17.1976 32.8372 17.7222 33.4101 18.1206C33.9824 18.5193 34.6899 18.7184 35.5324 18.7184ZM29.7969 4.56641H32.551V10.1296H32.6773C32.9635 9.3652 33.431 8.7755 34.0797 8.36076C34.7278 7.94596 35.4901 7.73847 36.3662 7.73847C38.0338 7.73847 39.3223 8.32025 40.2321 9.48311C41.1416 10.6462 41.5964 12.2769 41.5964 14.3752C41.5964 16.4736 41.1416 18.1047 40.2321 19.2674C39.3223 20.4306 38.0338 21.0119 36.3662 21.0119C35.4901 21.0119 34.7278 20.8004 34.0797 20.3777C33.431 19.9549 32.9635 19.3692 32.6773 18.6208H32.551V20.7192H29.7969V4.56641Z" fill="#17568B"/>
<path d="M45.6645 20.7192C44.7208 20.7192 44.0177 20.4873 43.5544 20.0238C43.0911 19.5602 42.8599 18.9137 42.8599 18.0842V4.56641H45.6137V17.3487C45.6017 18.2666 45.7543 18.5342 46.438 18.5476H47.4328V20.7192H45.6645Z" fill="#17568B"/>
<path d="M56.0233 18.6247C55.9052 18.934 55.7494 19.2348 55.5557 19.5276C55.3616 19.8205 55.1176 20.0765 54.8232 20.2961C54.5284 20.5158 54.1743 20.6907 53.7618 20.8209C53.3489 20.9508 52.8731 21.0159 52.3343 21.0159C50.97 21.0159 49.9128 20.5932 49.1636 19.7471C48.4137 18.9015 48.0391 17.6894 48.0391 16.1115V8.03516H50.7933V15.7702C50.7933 17.7384 51.6355 18.7224 53.3198 18.7224C53.6735 18.7224 54.0186 18.6777 54.3557 18.5881C54.6923 18.4987 54.9914 18.3648 55.2524 18.1854C55.5135 18.0067 55.7238 17.7791 55.8843 17.5023C56.0442 17.2259 56.1244 16.9008 56.1244 16.5263V8.03516H58.8783V17.0628C58.8934 18.4531 59.8056 18.698 61.0042 18.7582V20.909C59.4675 20.9897 56.5273 20.8456 56.1244 18.6247H56.0233Z" fill="#17568B"/>
<path d="M78.3194 18.7221C79.1611 18.7221 79.8689 18.523 80.4418 18.1244C81.014 17.7259 81.3006 17.2013 81.3006 16.5506V12.2074C81.3006 11.557 81.014 11.0325 80.4418 10.6335C79.8689 10.2351 79.1611 10.0359 78.3194 10.0359C77.3591 10.0359 76.5925 10.3327 76.0203 10.9263C75.4474 11.5203 75.1611 12.3049 75.1611 13.2809V15.477C75.1611 16.4529 75.4474 17.238 76.0203 17.8315C76.5925 18.4255 77.3591 18.7221 78.3194 18.7221ZM81.3006 18.6245H81.1743C80.8873 19.3729 80.4201 19.9586 79.772 20.3814C79.1236 20.8042 78.3612 21.0157 77.4854 21.0157C75.8177 21.0157 74.5293 20.4343 73.6197 19.2712C72.7101 18.1085 72.2554 16.4774 72.2554 14.3789C72.2554 12.2806 72.7101 10.6498 73.6197 9.48683C74.5293 8.32397 75.8177 7.74219 77.4854 7.74219C78.3612 7.74219 79.1236 7.9497 79.772 8.36448C80.4201 8.77922 80.8873 9.36892 81.1743 10.1333H81.3006L81.9322 8.03509H84.0547V20.7229H81.3006V18.6245Z" fill="#17568B"/>
<path d="M88.9058 20.7192C87.9624 20.7192 87.2595 20.4873 86.7954 20.0238C86.3322 19.5602 86.1006 18.9137 86.1006 18.0842V4.56641H88.855V17.3487C88.8429 18.2666 88.9954 18.5342 89.6798 18.5476H90.6741V20.7192H88.9058Z" fill="#17568B"/>
<path d="M94.9188 20.7192C93.9584 20.7192 93.2345 20.4794 92.7462 19.9994C92.258 19.5196 92.0126 18.8403 92.0126 17.962V10.2028H89.9668V8.03137H91.0789C91.5333 8.03137 91.8488 7.93364 92.0264 7.73847C92.2031 7.54324 92.2911 7.22617 92.2911 6.78692V4.56641H94.7678V8.03137H97.5215V10.2028H94.7678V17.6167C94.7888 18.2097 94.8469 18.5462 95.6015 18.5476H97.3197V20.7192H94.9188Z" fill="#17568B"/>
<path d="M60.9683 16.5592C61.2235 16.541 61.4827 16.5511 61.7422 16.5926C62.178 16.6626 62.6185 16.8151 63.0186 17.0982C63.0186 17.0982 64.1726 18.1193 64.6882 18.3929C65.286 18.7099 65.9805 18.8684 66.7727 18.8684C67.5812 18.8684 68.1832 18.7183 68.579 18.4171C68.9749 18.1163 69.1729 17.6973 69.1729 17.1604C69.1729 16.7542 69.0338 16.4083 68.7561 16.1235C68.4783 15.8391 67.9937 15.656 67.3034 15.5745L66.0901 15.428C64.7424 15.2656 63.6857 14.8874 62.9194 14.2934C62.1528 13.6999 61.7697 12.8172 61.7697 11.646C61.7697 11.0282 61.8875 10.4792 62.1234 9.99913C62.3593 9.51959 62.6921 9.11261 63.1217 8.77906C63.5513 8.44591 64.0649 8.18968 64.6626 8.01052C65.2608 7.83163 65.922 7.74219 66.6464 7.74219C67.8252 7.74219 68.7894 7.92123 69.5394 8.27894C70.2886 8.63678 70.9579 9.13286 71.5479 9.76727L69.8551 11.329C69.5181 10.9383 69.0757 10.601 68.5286 10.3161C67.9809 10.0318 67.3538 9.8893 66.6464 9.8893C65.8884 9.8893 65.3282 10.0356 64.966 10.3285C64.6038 10.6213 64.4229 11.0037 64.4229 11.4753C64.4229 11.9632 64.5829 12.3294 64.9028 12.5733C65.2228 12.8172 65.7369 12.9965 66.4442 13.1102L67.6571 13.2563C69.1051 13.468 70.1622 13.8786 70.8277 14.4886C71.4933 15.0985 71.826 15.9161 71.826 16.941C71.826 17.5593 71.7036 18.1163 71.4596 18.6123C71.2151 19.1087 70.8657 19.5356 70.411 19.8932C69.9561 20.2511 69.4088 20.5277 68.7688 20.7229C68.1281 20.918 67.4127 21.0157 66.6212 21.0157C65.3743 21.0157 64.3299 20.8042 63.4881 20.3812C62.8451 20.0586 62.2664 19.6404 61.7515 19.1276C61.5431 18.9205 61.2556 18.8198 60.9683 18.8346V16.5592Z" fill="#17568B"/>
</g>
<defs>
<clipPath id="clip0_25913_175406">
<rect width="96.8442" height="26.6322" fill="white" transform="translate(0.677246)"/>
</clipPath>
</defs>
</svg>
