<svg width="20" height="20" viewBox="0 0 20 20" fill="none" xmlns="http://www.w3.org/2000/svg">
<path d="M1.6665 15.0001C1.6665 13.7164 1.6665 13.0745 1.95544 12.603C2.11712 12.3392 2.33895 12.1174 2.60278 11.9557C3.07429 11.6667 3.71614 11.6667 4.99984 11.6667C6.28354 11.6667 6.92538 11.6667 7.39689 11.9557C7.66073 12.1174 7.88255 12.3392 8.04423 12.603C8.33317 13.0745 8.33317 13.7164 8.33317 15.0001C8.33317 16.2838 8.33317 16.9256 8.04423 17.3971C7.88255 17.661 7.66073 17.8828 7.39689 18.0445C6.92538 18.3334 6.28354 18.3334 4.99984 18.3334C3.71614 18.3334 3.07429 18.3334 2.60278 18.0445C2.33895 17.8828 2.11712 17.661 1.95544 17.3971C1.6665 16.9256 1.6665 16.2838 1.6665 15.0001Z" stroke="white"/>
<path d="M11.6665 15.0001C11.6665 13.7164 11.6665 13.0745 11.9554 12.603C12.1171 12.3392 12.3389 12.1174 12.6028 11.9557C13.0743 11.6667 13.7161 11.6667 14.9998 11.6667C16.2835 11.6667 16.9254 11.6667 17.3969 11.9557C17.6607 12.1174 17.8826 12.3392 18.0442 12.603C18.3332 13.0745 18.3332 13.7164 18.3332 15.0001C18.3332 16.2838 18.3332 16.9256 18.0442 17.3971C17.8826 17.661 17.6607 17.8828 17.3969 18.0445C16.9254 18.3334 16.2835 18.3334 14.9998 18.3334C13.7161 18.3334 13.0743 18.3334 12.6028 18.0445C12.3389 17.8828 12.1171 17.661 11.9554 17.3971C11.6665 16.9256 11.6665 16.2838 11.6665 15.0001Z" stroke="white"/>
<path d="M1.6665 5.00008C1.6665 3.71638 1.6665 3.07453 1.95544 2.60303C2.11712 2.33919 2.33895 2.11737 2.60278 1.95569C3.07429 1.66675 3.71614 1.66675 4.99984 1.66675C6.28354 1.66675 6.92538 1.66675 7.39689 1.95569C7.66073 2.11737 7.88255 2.33919 8.04423 2.60303C8.33317 3.07453 8.33317 3.71638 8.33317 5.00008C8.33317 6.28378 8.33317 6.92563 8.04423 7.39714C7.88255 7.66097 7.66073 7.8828 7.39689 8.04447C6.92538 8.33341 6.28354 8.33341 4.99984 8.33341C3.71614 8.33341 3.07429 8.33341 2.60278 8.04447C2.33895 7.8828 2.11712 7.66097 1.95544 7.39714C1.6665 6.92563 1.6665 6.28378 1.6665 5.00008Z" stroke="white"/>
<path d="M11.6665 5.00008C11.6665 3.71638 11.6665 3.07453 11.9554 2.60303C12.1171 2.33919 12.3389 2.11737 12.6028 1.95569C13.0743 1.66675 13.7161 1.66675 14.9998 1.66675C16.2835 1.66675 16.9254 1.66675 17.3969 1.95569C17.6607 2.11737 17.8826 2.33919 18.0442 2.60303C18.3332 3.07453 18.3332 3.71638 18.3332 5.00008C18.3332 6.28378 18.3332 6.92563 18.0442 7.39714C17.8826 7.66097 17.6607 7.8828 17.3969 8.04447C16.9254 8.33341 16.2835 8.33341 14.9998 8.33341C13.7161 8.33341 13.0743 8.33341 12.6028 8.04447C12.3389 7.8828 12.1171 7.66097 11.9554 7.39714C11.6665 6.92563 11.6665 6.28378 11.6665 5.00008Z" stroke="white"/>
</svg>
