<svg width="20" height="20" viewBox="0 0 20 20" fill="none" xmlns="http://www.w3.org/2000/svg">
<path d="M2.80675 8.26714C2.60832 8.26714 2.42724 8.1063 2.43637 7.89604C2.48979 6.66487 2.63947 5.86337 3.05884 5.22934C3.30011 4.86458 3.59981 4.54732 3.94437 4.29191C4.87571 3.60156 6.18956 3.60156 8.81727 3.60156H12.0226C14.6503 3.60156 15.9641 3.60156 16.8955 4.29191C17.24 4.54732 17.5397 4.86458 17.781 5.22934C18.2003 5.8633 18.35 6.66469 18.4034 7.89563C18.4126 8.10612 18.2313 8.26714 18.0326 8.26714C16.9262 8.26714 16.0293 9.21661 16.0293 10.3879C16.0293 11.5591 16.9262 12.5086 18.0326 12.5086C18.2313 12.5086 18.4126 12.6696 18.4034 12.8801C18.35 14.111 18.2003 14.9124 17.781 15.5464C17.5397 15.9111 17.24 16.2284 16.8955 16.4838C15.9641 17.1741 14.6503 17.1741 12.0226 17.1741H8.81727C6.18956 17.1741 4.87571 17.1741 3.94437 16.4838C3.59981 16.2284 3.30011 15.9111 3.05884 15.5464C2.63947 14.9123 2.48979 14.1108 2.43637 12.8797C2.42724 12.6694 2.60832 12.5086 2.80675 12.5086C3.91314 12.5086 4.81005 11.5591 4.81005 10.3879C4.81005 9.21661 3.91314 8.26714 2.80675 8.26714Z" stroke="#737373" stroke-width="1.06452" stroke-linejoin="round"/>
<path d="M8.02466 3.60156L8.02466 17.1741" stroke="#737373" stroke-width="1.06452" stroke-linecap="round" stroke-linejoin="round"/>
</svg>
