<svg width="25" height="25" viewBox="0 0 25 25" fill="none" xmlns="http://www.w3.org/2000/svg">
<path d="M12.4982 2.5C9.49043 2.5 7.54018 4.51899 5.23371 5.2549C4.29589 5.55413 3.82697 5.70374 3.6372 5.91465C3.44743 6.12556 3.39186 6.43375 3.28072 7.05013C2.09143 13.646 4.6909 19.744 10.8903 22.1175C11.5564 22.3725 11.8894 22.5 12.5015 22.5C13.1135 22.5 13.4466 22.3725 14.1126 22.1175C20.3116 19.7439 22.9086 13.646 21.719 7.05013C21.6078 6.43364 21.5522 6.1254 21.3624 5.91449C21.1726 5.70358 20.7037 5.55405 19.7659 5.25499C17.4585 4.51915 15.5061 2.5 12.4982 2.5Z" stroke="#4CAF50" stroke-width="1.5" stroke-linecap="round" stroke-linejoin="round"/>
<path d="M12.5 7.5L12.5 9.5" stroke="#4CAF50" stroke-width="1.5" stroke-linecap="round"/>
</svg>
