<svg width="43" height="42" viewBox="0 0 43 42" fill="none" xmlns="http://www.w3.org/2000/svg">
<rect x="0.842041" y="0.0859375" width="41.6842" height="41.6842" rx="20.8421" fill="#96BAB3" fill-opacity="0.25"/>
<path d="M30.658 20.7167C30.658 25.2035 27.3652 28.9305 23.0593 29.5818V23.322H25.158L25.556 20.7167H23.0593V19.0522C23.0593 18.3285 23.4211 17.641 24.5429 17.641H25.6646V15.4338C25.6646 15.4338 24.6514 15.2529 23.6382 15.2529C21.6119 15.2529 20.2731 16.5193 20.2731 18.7627V20.7167H17.9935V23.322H20.2731V29.5818C15.9672 28.9305 12.7106 25.2035 12.7106 20.7167C12.7106 15.7595 16.7271 11.743 21.6843 11.743C26.6415 11.743 30.658 15.7595 30.658 20.7167Z" fill="white"/>
</svg>
