<svg width="65" height="64" viewBox="0 0 65 64" fill="none" xmlns="http://www.w3.org/2000/svg">
<rect x="0.324951" width="64" height="64" rx="32" fill="#D1FAE5"/>
<path d="M43.8093 26.6484C45.0984 28.7578 43.9265 31.6484 41.5046 31.9609C41.3093 32 41.1531 32 40.9578 32C39.7859 32 38.7703 31.4922 38.0671 30.7109C37.364 31.4922 36.3484 32 35.1765 32C34.0437 32 32.989 31.4922 32.2859 30.7109C31.5828 31.4922 30.5671 32 29.4343 32C28.2625 32 27.2468 31.4922 26.5437 30.7109C25.8406 31.4922 24.825 32 23.6531 32C23.4578 32 23.3015 32 23.1062 31.9609C20.6843 31.6484 19.5125 28.7578 20.8406 26.6484L23.3406 22.5859C23.575 22.2344 24.0046 22 24.4343 22H40.2156C40.6453 22 41.0359 22.2344 41.2703 22.5859L43.8093 26.6484ZM40.9578 33.25C41.1921 33.25 41.4265 33.25 41.6609 33.2109C41.8953 33.2109 42.0906 33.1328 42.325 33.0938V40.75C42.325 41.4531 41.739 42 41.075 42H23.575C22.8718 42 22.325 41.4531 22.325 40.75V33.0938C22.5203 33.1328 22.7156 33.1719 22.95 33.2109C23.1843 33.25 23.4187 33.25 23.6531 33.25C24.0437 33.25 24.4343 33.2109 24.825 33.1328V37H39.825V33.1328C40.1765 33.2109 40.5671 33.25 40.9578 33.25Z" fill="#059669"/>
</svg>
