<svg width="149" height="43" viewBox="0 0 149 43" fill="none" xmlns="http://www.w3.org/2000/svg">
<path d="M142.77 0.856979C145.306 0.856979 147.37 2.87201 147.37 5.34835V37.4391C147.37 39.9155 145.306 41.9305 142.77 41.9305H5.81791C3.28156 41.9305 1.2177 39.9155 1.2177 37.4391V5.34835C1.2177 2.87201 3.28156 0.856979 5.81791 0.856979H142.77ZM142.77 -0.000112522H5.81791C2.80634 -0.000112522 0.339844 2.40803 0.339844 5.34835V37.4391C0.339844 40.3795 2.80634 42.7876 5.81791 42.7876H142.77C145.781 42.7876 148.248 40.3795 148.248 37.4391V5.34835C148.248 2.40803 145.781 -0.000112522 142.77 -0.000112522Z" fill="white"/>
<path d="M52.2914 10.9577C52.2914 11.8509 52.0175 12.5663 51.4779 13.0998C50.8575 13.7322 50.0495 14.0505 49.0593 14.0505C48.113 14.0505 47.305 13.7269 46.6421 13.0891C45.9779 12.4419 45.6465 11.6477 45.6465 10.697C45.6465 9.7463 45.9779 8.95206 46.6421 8.31024C47.305 7.66709 48.113 7.34351 49.0593 7.34351C49.5304 7.34351 49.9796 7.43844 50.4083 7.61494C50.8356 7.79278 51.1834 8.03346 51.4354 8.3303L50.863 8.89456C50.4234 8.38779 49.8249 8.13775 49.0593 8.13775C48.3691 8.13775 47.7706 8.37308 47.2625 8.84776C46.7599 9.32377 46.5079 9.94018 46.5079 10.697C46.5079 11.4538 46.7599 12.0756 47.2625 12.5516C47.7706 13.0209 48.3691 13.2616 49.0593 13.2616C49.792 13.2616 50.4083 13.0209 50.8945 12.5462C51.2149 12.232 51.3971 11.7988 51.445 11.2452H49.0593V10.4724H52.2421C52.2804 10.6395 52.2914 10.8013 52.2914 10.9577Z" fill="white"/>
<path d="M57.3404 8.27804H54.3508V10.3105H57.046V11.0833H54.3508V13.1157H57.3404V13.9033H53.5044V7.49048H57.3404V8.27804Z" fill="white"/>
<path d="M60.9043 13.9033H60.0579V8.27804H58.2241V7.49048H62.7394V8.27804H60.9043V13.9033Z" fill="white"/>
<path d="M66.0068 13.9033V7.49048H66.8518V13.9033H66.0068Z" fill="white"/>
<path d="M70.5976 13.9033H69.7581V8.27804H67.9175V7.49048H72.4382V8.27804H70.5976V13.9033Z" fill="white"/>
<path d="M80.9862 13.0784C80.3384 13.7269 79.5359 14.0505 78.5786 14.0505C77.6158 14.0505 76.8133 13.7269 76.1655 13.0784C75.5191 12.4312 75.1973 11.637 75.1973 10.697C75.1973 9.757 75.5191 8.96275 76.1655 8.31559C76.8133 7.66709 77.6158 7.34351 78.5786 7.34351C79.5304 7.34351 80.333 7.66709 80.9807 8.32094C81.6326 8.97345 81.9545 9.76235 81.9545 10.697C81.9545 11.637 81.6326 12.4312 80.9862 13.0784ZM76.7914 12.5409C77.2789 13.0209 77.8719 13.2616 78.5786 13.2616C79.2798 13.2616 79.8783 13.0209 80.3603 12.5409C80.8465 12.0609 81.093 11.4444 81.093 10.697C81.093 9.94954 80.8465 9.33313 80.3603 8.85311C79.8783 8.37309 79.2798 8.1324 78.5786 8.1324C77.8719 8.1324 77.2789 8.37309 76.7914 8.85311C76.3052 9.33313 76.0587 9.94954 76.0587 10.697C76.0587 11.4444 76.3052 12.0609 76.7914 12.5409Z" fill="white"/>
<path d="M83.1421 13.9033V7.49048H84.1692L87.3629 12.4779H87.3999L87.3629 11.2451V7.49048H88.2079V13.9033H87.326L83.9816 8.66981H83.9446L83.9816 9.90798V13.9033H83.1421Z" fill="white"/>
<path d="M74.9893 23.2684C72.416 23.2684 70.3138 25.1805 70.3138 27.8186C70.3138 30.4354 72.416 32.3675 74.9893 32.3675C77.5681 32.3675 79.6703 30.4354 79.6703 27.8186C79.6703 25.1805 77.5681 23.2684 74.9893 23.2684ZM74.9893 30.5758C73.5774 30.5758 72.3626 29.4379 72.3626 27.8186C72.3626 26.178 73.5774 25.0602 74.9893 25.0602C76.4013 25.0602 77.6215 26.178 77.6215 27.8186C77.6215 29.4379 76.4013 30.5758 74.9893 30.5758ZM64.7878 23.2684C62.209 23.2684 60.1123 25.1805 60.1123 27.8186C60.1123 30.4354 62.209 32.3675 64.7878 32.3675C67.3652 32.3675 69.4633 30.4354 69.4633 27.8186C69.4633 25.1805 67.3652 23.2684 64.7878 23.2684ZM64.7878 30.5758C63.3745 30.5758 62.1556 29.4379 62.1556 27.8186C62.1556 26.178 63.3745 25.0602 64.7878 25.0602C66.1998 25.0602 67.4145 26.178 67.4145 27.8186C67.4145 29.4379 66.1998 30.5758 64.7878 30.5758ZM52.6484 24.663V26.5965H57.3774C57.239 27.6769 56.8693 28.4712 56.3023 29.0247C55.6121 29.6933 54.537 30.4354 52.6484 30.4354C49.7382 30.4354 47.4593 28.1422 47.4593 25.3008C47.4593 22.4595 49.7382 20.1663 52.6484 20.1663C54.222 20.1663 55.3669 20.7667 56.2119 21.5449L57.6074 20.1824C56.4255 19.0806 54.8533 18.2342 52.6484 18.2342C48.6577 18.2342 45.3037 21.4045 45.3037 25.3008C45.3037 29.1972 48.6577 32.3675 52.6484 32.3675C54.8054 32.3675 56.4255 31.6776 57.6992 30.3832C59.0043 29.109 59.4111 27.3172 59.4111 25.8705C59.4111 25.4212 59.3727 25.008 59.3043 24.663H52.6484ZM102.288 26.162C101.903 25.1444 100.716 23.2684 98.2971 23.2684C95.9005 23.2684 93.9051 25.1123 93.9051 27.8186C93.9051 30.3672 95.8799 32.3675 98.5272 32.3675C100.668 32.3675 101.903 31.0932 102.411 30.3511L100.823 29.3175C100.293 30.0744 99.5708 30.5758 98.5272 30.5758C97.4905 30.5758 96.7468 30.1118 96.2702 29.1972L102.503 26.6794L102.288 26.162ZM95.9333 27.6769C95.8799 25.9226 97.3289 25.0241 98.367 25.0241C99.1805 25.0241 99.8707 25.4212 100.101 25.9895L95.9333 27.6769ZM90.8675 32.0907H92.9163V18.7196H90.8675V32.0907ZM87.5122 24.282H87.4437C86.9835 23.7498 86.1057 23.2684 84.9936 23.2684C82.66 23.2684 80.5263 25.2688 80.5263 27.8333C80.5263 30.3832 82.66 32.3675 84.9936 32.3675C86.1057 32.3675 86.9835 31.8821 87.4437 31.3339H87.5122V31.9864C87.5122 33.726 86.5604 34.6607 85.0251 34.6607C83.7734 34.6607 82.9969 33.7782 82.6764 33.0361L80.8947 33.7621C81.4082 34.9682 82.7682 36.4524 85.0251 36.4524C87.4273 36.4524 89.4542 35.0725 89.4542 31.715V23.5452H87.5122V24.282ZM85.1689 30.5758C83.757 30.5758 82.5751 29.4218 82.5751 27.8333C82.5751 26.2301 83.757 25.0602 85.1689 25.0602C86.5604 25.0602 87.6574 26.2301 87.6574 27.8333C87.6574 29.4218 86.5604 30.5758 85.1689 30.5758ZM111.88 18.7196H106.98V32.0907H109.023V27.0244H111.88C114.149 27.0244 116.375 25.4212 116.375 22.8713C116.375 20.3228 114.144 18.7196 111.88 18.7196ZM111.933 25.1645H109.023V20.5795H111.933C113.459 20.5795 114.33 21.8163 114.33 22.8713C114.33 23.9062 113.459 25.1645 111.933 25.1645ZM124.564 23.243C123.088 23.243 121.553 23.8795 120.922 25.2901L122.735 26.0323C123.125 25.2902 123.843 25.0495 124.601 25.0495C125.661 25.0495 126.736 25.6712 126.753 26.769V26.9094C126.383 26.7008 125.592 26.3919 124.618 26.3919C122.665 26.3919 120.675 27.4416 120.675 29.4004C120.675 31.1922 122.275 32.3461 124.073 32.3461C125.448 32.3461 126.206 31.7404 126.683 31.0357H126.753V32.0693H128.726V26.9402C128.726 24.5694 126.913 23.243 124.564 23.243ZM124.318 30.5704C123.65 30.5704 122.718 30.2468 122.718 29.4379C122.718 28.403 123.88 28.0058 124.885 28.0058C125.785 28.0058 126.206 28.1997 126.753 28.4551C126.593 29.6933 125.501 30.5704 124.318 30.5704ZM135.916 23.5359L133.568 29.3323H133.498L131.07 23.5359H128.866L132.514 31.6361L130.433 36.1435H132.568L138.19 23.5359H135.916ZM117.498 32.0907H119.547V18.7196H117.498V32.0907Z" fill="white"/>
<path d="M11.7727 8.06405C11.4509 8.39298 11.2646 8.9051 11.2646 9.56831V33.2246C11.2646 33.8878 11.4509 34.3999 11.7727 34.7288L11.8522 34.801L25.4295 21.5502V21.2373L11.8522 7.9865L11.7727 8.06405Z" fill="url(#paint0_linear_18811_53224)"/>
<path d="M29.95 25.9695L25.4292 21.5503V21.2374L29.9554 16.8183L30.0568 16.8758L35.4171 19.8535C36.9468 20.6986 36.9468 22.0892 35.4171 22.9396L30.0568 25.912L29.95 25.9695Z" fill="url(#paint1_linear_18811_53224)"/>
<path d="M30.0569 25.9119L25.4293 21.3938L11.7725 34.7289C12.2806 35.2504 13.1091 35.3132 14.0513 34.7917L30.0569 25.9119Z" fill="url(#paint2_linear_18811_53224)"/>
<path d="M30.0569 16.8757L14.0513 7.9959C13.1091 7.47977 12.2806 7.54262 11.7725 8.06409L25.4293 21.3938L30.0569 16.8757Z" fill="url(#paint3_linear_18811_53224)"/>
<defs>
<linearGradient id="paint0_linear_18811_53224" x1="24.224" y1="33.4709" x2="6.27717" y2="15.0892" gradientUnits="userSpaceOnUse">
<stop stop-color="#00A0FF"/>
<stop offset="0.0066" stop-color="#00A1FF"/>
<stop offset="0.2601" stop-color="#00BEFF"/>
<stop offset="0.5122" stop-color="#00D2FF"/>
<stop offset="0.7604" stop-color="#00DFFF"/>
<stop offset="1" stop-color="#00E3FF"/>
</linearGradient>
<linearGradient id="paint1_linear_18811_53224" x1="37.4091" y1="21.3924" x2="10.8986" y2="21.3924" gradientUnits="userSpaceOnUse">
<stop stop-color="#FFE000"/>
<stop offset="0.4087" stop-color="#FFBD00"/>
<stop offset="0.7754" stop-color="#FFA500"/>
<stop offset="1" stop-color="#FF9C00"/>
</linearGradient>
<linearGradient id="paint2_linear_18811_53224" x1="27.5405" y1="18.9377" x2="3.20311" y2="-5.98943" gradientUnits="userSpaceOnUse">
<stop stop-color="#FF3A44"/>
<stop offset="1" stop-color="#C31162"/>
</linearGradient>
<linearGradient id="paint3_linear_18811_53224" x1="8.33476" y1="42.5992" x2="19.2025" y2="31.4682" gradientUnits="userSpaceOnUse">
<stop stop-color="#32A071"/>
<stop offset="0.0685" stop-color="#2DA771"/>
<stop offset="0.4762" stop-color="#15CF74"/>
<stop offset="0.8009" stop-color="#06E775"/>
<stop offset="1" stop-color="#00F076"/>
</linearGradient>
</defs>
</svg>
