<svg width="40" height="42" viewBox="0 0 40 42" fill="none" xmlns="http://www.w3.org/2000/svg">
<rect x="0.473633" y="0.0859375" width="39.3684" height="41.6842" rx="19.6842" fill="#96BAB3" fill-opacity="0.25"/>
<path d="M20.158 16.5555C22.4376 16.5555 24.3192 18.4371 24.3192 20.7167C24.3192 23.0325 22.4376 24.8779 20.158 24.8779C17.8422 24.8779 15.9968 23.0325 15.9968 20.7167C15.9968 18.4371 17.8422 16.5555 20.158 16.5555ZM20.158 23.4305C21.6416 23.4305 22.8356 22.2364 22.8356 20.7167C22.8356 19.2331 21.6416 18.0391 20.158 18.0391C18.6383 18.0391 17.4442 19.2331 17.4442 20.7167C17.4442 22.2364 18.6744 23.4305 20.158 23.4305ZM25.4409 16.4108C25.4409 16.9535 25.0067 17.3877 24.4639 17.3877C23.9212 17.3877 23.4869 16.9535 23.4869 16.4108C23.4869 15.868 23.9212 15.4338 24.4639 15.4338C25.0067 15.4338 25.4409 15.868 25.4409 16.4108ZM28.1909 17.3877C28.2633 18.7266 28.2633 22.743 28.1909 24.0818C28.1185 25.3845 27.8291 26.5062 26.8883 27.4831C25.9475 28.4239 24.7896 28.7134 23.4869 28.7858C22.1481 28.8581 18.1317 28.8581 16.7929 28.7858C15.4902 28.7134 14.3685 28.4239 13.3916 27.4831C12.4508 26.5062 12.1613 25.3845 12.0889 24.0818C12.0166 22.743 12.0166 18.7266 12.0889 17.3877C12.1613 16.0851 12.4508 14.9272 13.3916 13.9864C14.3685 13.0456 15.4902 12.7562 16.7929 12.6838C18.1317 12.6114 22.1481 12.6114 23.4869 12.6838C24.7896 12.7562 25.9475 13.0456 26.8883 13.9864C27.8291 14.9272 28.1185 16.0851 28.1909 17.3877ZM26.4541 25.493C26.8883 24.4437 26.7797 21.9108 26.7797 20.7167C26.7797 19.5588 26.8883 17.0259 26.4541 15.9404C26.1646 15.2529 25.6218 14.6739 24.9343 14.4206C23.8488 13.9864 21.3159 14.095 20.158 14.095C18.9639 14.095 16.431 13.9864 15.3817 14.4206C14.658 14.7101 14.1152 15.2529 13.8258 15.9404C13.3916 17.0259 13.5001 19.5588 13.5001 20.7167C13.5001 21.9108 13.3916 24.4437 13.8258 25.493C14.1152 26.2167 14.658 26.7595 15.3817 27.0489C16.431 27.4831 18.9639 27.3746 20.158 27.3746C21.3159 27.3746 23.8488 27.4831 24.9343 27.0489C25.6218 26.7595 26.2008 26.2167 26.4541 25.493Z" fill="white"/>
</svg>
