<svg width="14" height="14" viewBox="0 0 14 14" fill="none" xmlns="http://www.w3.org/2000/svg">
<path d="M3.53766 13.3447H0.822656V4.58473H3.53766V13.3447ZM2.17266 3.38473C1.89266 3.38473 1.63016 3.31223 1.38516 3.16723C1.14016 3.02223 0.947656 2.82973 0.807656 2.58973C0.667656 2.34973 0.597656 2.08473 0.597656 1.79473C0.597656 1.50473 0.667656 1.23973 0.807656 0.999727C0.947656 0.759727 1.13766 0.569727 1.37766 0.429727C1.61766 0.289727 1.88266 0.219727 2.17266 0.219727C2.46266 0.219727 2.72766 0.289727 2.96766 0.429727C3.20766 0.569727 3.39766 0.759727 3.53766 0.999727C3.67766 1.23973 3.74766 1.50473 3.74766 1.79473C3.74766 2.08473 3.67766 2.34973 3.53766 2.58973C3.39766 2.82973 3.20516 3.02223 2.96016 3.16723C2.71516 3.31223 2.45266 3.38473 2.17266 3.38473ZM13.7227 13.3447H11.0077V9.08473C11.0077 8.62473 10.9877 8.27473 10.9477 8.03473C10.8877 7.64473 10.7627 7.34473 10.5727 7.13473C10.3527 6.88473 10.0277 6.75973 9.59766 6.75973C8.94766 6.75973 8.49766 6.98973 8.24766 7.44973C8.05766 7.79973 7.96266 8.31973 7.96266 9.00973V13.3447H5.24766V4.58473H7.85766V5.76973H7.88766C8.08766 5.38973 8.39766 5.06973 8.81766 4.80973C9.29766 4.50973 9.84766 4.35973 10.4677 4.35973C11.3377 4.35973 12.0277 4.54473 12.5377 4.91473C12.9877 5.24473 13.3027 5.73973 13.4827 6.39973C13.6427 6.94973 13.7227 7.65973 13.7227 8.52973V13.3447Z" fill="#0077B5"/>
</svg>
