<svg width="44" height="44" viewBox="0 0 44 44" fill="none" xmlns="http://www.w3.org/2000/svg">
<circle cx="22" cy="22" r="22" fill="#084C3F" fill-opacity="0.2"/>
<path d="M38 22C38 30.8366 30.8366 38 22 38C13.1634 38 6 30.8366 6 22C6 13.1634 13.1634 6 22 6C30.8366 6 38 13.1634 38 22Z" fill="#112F29"/>
<path d="M21.5 25.7256C23.2807 25.7256 24.7242 24.2821 24.7242 22.5015C24.7242 20.7208 23.2807 19.2773 21.5 19.2773C19.7194 19.2773 18.2759 20.7208 18.2759 22.5015C18.2759 24.2821 19.7194 25.7256 21.5 25.7256Z" fill="white"/>
<path d="M22.35 15.7586V14H20.65V15.7586C19.1543 15.9496 17.7642 16.6317 16.698 17.698C15.6317 18.7642 14.9496 20.1543 14.7586 21.65H13V23.35H14.7586C14.9493 24.8459 15.6314 26.236 16.6977 27.3023C17.764 28.3686 19.1541 29.0507 20.65 29.2414V31H22.35V29.2414C23.8459 29.0508 25.2362 28.3688 26.3025 27.3025C27.3688 26.2362 28.0508 24.8459 28.2414 23.35H30V21.65H28.2414C28.0507 20.1541 27.3686 18.764 26.3023 17.6977C25.236 16.6314 23.8459 15.9493 22.35 15.7586ZM21.5 27.6C18.6874 27.6 16.4 25.3127 16.4 22.5C16.4 19.6874 18.6874 17.4 21.5 17.4C24.3127 17.4 26.6 19.6874 26.6 22.5C26.6 25.3127 24.3127 27.6 21.5 27.6Z" fill="white"/>
</svg>
