<svg width="42" height="42" viewBox="0 0 42 42" fill="none" xmlns="http://www.w3.org/2000/svg">
<g clip-path="url(#clip0_22304_143958)">
<path d="M32.1255 0.59375H10.1333C4.77478 0.59375 0.430847 4.93768 0.430847 10.2962V32.2884C0.430847 37.6469 4.77478 41.9908 10.1333 41.9908H32.1255C37.484 41.9908 41.8279 37.6469 41.8279 32.2884V10.2962C41.8279 4.93768 37.484 0.59375 32.1255 0.59375Z" fill="url(#paint0_radial_22304_143958)"/>
<path d="M32.1255 0.59375H10.1333C4.77478 0.59375 0.430847 4.93768 0.430847 10.2962V32.2884C0.430847 37.6469 4.77478 41.9908 10.1333 41.9908H32.1255C37.484 41.9908 41.8279 37.6469 41.8279 32.2884V10.2962C41.8279 4.93768 37.484 0.59375 32.1255 0.59375Z" fill="url(#paint1_radial_22304_143958)"/>
<path d="M21.1308 5.12109C16.7392 5.12109 16.1879 5.14034 14.4632 5.21876C12.7416 5.29768 11.5665 5.57015 10.5384 5.97006C9.47465 6.38306 8.57248 6.93561 7.67371 7.8347C6.77414 8.73363 6.22158 9.6358 5.80729 10.699C5.40625 11.7275 5.13345 12.9031 5.056 14.6238C4.97886 16.3488 4.95865 16.9002 4.95865 21.292C4.95865 25.6838 4.97805 26.2333 5.05632 27.958C5.13556 29.6796 5.40803 30.8547 5.80761 31.8828C6.22094 32.9466 6.77349 33.8487 7.67258 34.7475C8.57119 35.6471 9.47335 36.2009 10.5363 36.6139C11.5652 37.0138 12.7405 37.2863 14.4617 37.3652C16.1866 37.4436 16.7374 37.4629 21.1289 37.4629C25.521 37.4629 26.0705 37.4436 27.7953 37.3652C29.5168 37.2863 30.6932 37.0138 31.7222 36.6139C32.7854 36.2009 33.6863 35.6471 34.5847 34.7475C35.4843 33.8487 36.0367 32.9466 36.4511 31.8833C36.8486 30.8547 37.1216 29.6793 37.2024 27.9584C37.2799 26.2336 37.3001 25.6838 37.3001 21.292C37.3001 16.9002 37.2799 16.3491 37.2024 14.6241C37.1216 12.9026 36.8486 11.7276 36.4511 10.6995C36.0367 9.6358 35.4843 8.73363 34.5847 7.8347C33.6853 6.93529 32.7857 6.38273 31.7212 5.97022C30.6903 5.57015 29.5145 5.29752 27.793 5.21876C26.0681 5.14034 25.5189 5.12109 21.1258 5.12109H21.1308ZM19.6802 8.03522C20.1108 8.03457 20.5912 8.03522 21.1308 8.03522C25.4486 8.03522 25.9602 8.05075 27.6653 8.1282C29.2419 8.20032 30.0977 8.46375 30.6677 8.68512C31.4224 8.97814 31.9604 9.32856 32.526 9.89469C33.092 10.4607 33.4423 10.9996 33.7361 11.7543C33.9575 12.3235 34.2212 13.1793 34.293 14.7559C34.3705 16.4607 34.3873 16.9726 34.3873 21.2883C34.3873 25.6039 34.3705 26.116 34.293 27.8206C34.2209 29.3972 33.9575 30.253 33.7361 30.8224C33.4431 31.5771 33.092 32.1144 32.526 32.6801C31.96 33.246 31.4227 33.5963 30.6677 33.8895C30.0983 34.1118 29.2419 34.3746 27.6653 34.4467C25.9605 34.5242 25.4486 34.541 21.1308 34.541C16.8129 34.541 16.3011 34.5242 14.5966 34.4467C13.0199 34.3739 12.1642 34.1105 11.5937 33.8891C10.8391 33.596 10.3 33.2457 9.73403 32.6797C9.16805 32.1138 8.81779 31.5761 8.52397 30.8211C8.30259 30.2517 8.03885 29.3959 7.96705 27.8193C7.88959 26.1146 7.87407 25.6026 7.87407 21.2842C7.87407 16.966 7.88959 16.4566 7.96705 14.7519C8.03917 13.1752 8.30259 12.3195 8.52397 11.7495C8.81715 10.9948 9.16805 10.4558 9.73419 9.88984C10.3002 9.32387 10.8391 8.97345 11.5938 8.67979C12.1638 8.45744 13.0199 8.19466 14.5966 8.12222C16.0883 8.05479 16.6664 8.03457 19.6802 8.03118V8.03522ZM29.7628 10.7202C28.6915 10.7202 27.8223 11.5886 27.8223 12.66C27.8223 13.7314 28.6915 14.6005 29.7628 14.6005C30.8341 14.6005 31.7033 13.7314 31.7033 12.66C31.7033 11.5887 30.8341 10.7196 29.7628 10.7196V10.7202ZM21.1308 12.9875C16.5448 12.9875 12.8265 16.7058 12.8265 21.292C12.8265 25.8782 16.5448 29.5947 21.1308 29.5947C25.717 29.5947 29.434 25.8782 29.434 21.292C29.434 16.706 25.7167 12.9875 21.1305 12.9875H21.1308ZM21.1308 15.9016C24.1077 15.9016 26.5212 18.3148 26.5212 21.292C26.5212 24.2689 24.1077 26.6823 21.1308 26.6823C18.1538 26.6823 15.7406 24.2689 15.7406 21.292C15.7406 18.3148 18.1538 15.9016 21.1308 15.9016Z" fill="white"/>
</g>
<defs>
<radialGradient id="paint0_radial_22304_143958" cx="0" cy="0" r="1" gradientUnits="userSpaceOnUse" gradientTransform="translate(11.4269 45.1792) rotate(-90) scale(41.0276 38.1589)">
<stop stop-color="#FFDD55"/>
<stop offset="0.1" stop-color="#FFDD55"/>
<stop offset="0.5" stop-color="#FF543E"/>
<stop offset="1" stop-color="#C837AB"/>
</radialGradient>
<radialGradient id="paint1_radial_22304_143958" cx="0" cy="0" r="1" gradientUnits="userSpaceOnUse" gradientTransform="translate(-6.50332 3.57579) rotate(78.681) scale(18.3395 75.5962)">
<stop stop-color="#3771C8"/>
<stop offset="0.128" stop-color="#3771C8"/>
<stop offset="1" stop-color="#6600FF" stop-opacity="0"/>
</radialGradient>
<clipPath id="clip0_22304_143958">
<rect width="41.3971" height="41.3971" fill="white" transform="translate(0.431396 0.601562)"/>
</clipPath>
</defs>
</svg>
