<svg width="41" height="41" viewBox="0 0 41 41" fill="none" xmlns="http://www.w3.org/2000/svg">
<g clip-path="url(#clip0_22304_143953)">
<path d="M40.9538 20.3011C40.9538 9.12369 31.8926 0.0625 20.7152 0.0625C9.53781 0.0625 0.476624 9.12353 0.476624 20.3011C0.476624 30.4026 7.87761 38.7756 17.5529 40.2938V26.1513H12.4142V20.3011H17.5529V15.8423C17.5529 10.77 20.5745 7.96819 25.1972 7.96819C27.4116 7.96819 29.7277 8.36347 29.7277 8.36347V13.3441H27.1757C24.6614 13.3441 23.8775 14.9042 23.8775 16.5048V20.3011H29.4905L28.5932 26.1513H23.8775V40.2938C33.5528 38.7756 40.9538 30.4028 40.9538 20.3011Z" fill="#1877F2"/>
<path d="M28.5932 26.1518L29.4905 20.3016H23.8775V16.5053C23.8775 14.9046 24.6616 13.3446 27.1757 13.3446H29.7277V8.36403C29.7277 8.36403 27.4116 7.96875 25.1972 7.96875C20.5745 7.96875 17.5529 10.7705 17.5529 15.8428V20.3016H12.4142V26.1518H17.5529V40.2943C18.599 40.4583 19.6563 40.5405 20.7152 40.5402C21.7741 40.5405 22.8314 40.4583 23.8775 40.2943V26.1518H28.5932Z" fill="white"/>
</g>
<defs>
<clipPath id="clip0_22304_143953">
<rect width="40.4771" height="40.4771" fill="white" transform="translate(0.477127 0.0585938)"/>
</clipPath>
</defs>
</svg>
