<svg width="42" height="41" viewBox="0 0 42 41" fill="none" xmlns="http://www.w3.org/2000/svg">
<g clip-path="url(#clip0_22304_143956)">
<path d="M37.2871 12.0432C37.3118 12.4003 37.3118 12.757 37.3118 13.1172C37.3118 24.0903 28.958 36.7457 13.6833 36.7457V36.7394C9.17074 36.7457 4.75173 35.4531 0.953857 33.0161C1.61003 33.0952 2.26936 33.1347 2.93028 33.1363C6.67034 33.1393 10.3028 31.8848 13.244 29.5746C11.5111 29.5419 9.83171 28.9684 8.44068 27.9344C7.04964 26.9004 6.01651 25.4575 5.48571 23.8075C6.7307 24.0479 8.01332 23.9982 9.23523 23.6643C5.36081 22.8816 2.57358 19.4778 2.57358 15.5246V15.4193C3.72853 16.0627 5.02119 16.4192 6.34269 16.4587C2.69311 14.02 1.56892 9.16558 3.77239 5.37053C5.85725 7.93598 8.45844 10.0342 11.407 11.5288C14.3556 13.0235 17.5856 13.8812 20.8873 14.0462C20.5582 12.6291 20.6069 11.1505 21.0285 9.75813C21.4502 8.36577 22.23 7.10852 23.29 6.11208C26.6347 2.96783 31.8951 3.12911 35.0391 6.47227C36.8989 6.10504 38.6824 5.42317 40.3128 4.456C39.6928 6.37888 38.3956 8.01114 36.6623 9.04921C38.3085 8.85511 39.916 8.41431 41.431 7.7416C40.3165 9.41053 38.9133 10.8672 37.2871 12.0432Z" fill="#1D9BF0"/>
</g>
<defs>
<clipPath id="clip0_22304_143956">
<rect width="40.4771" height="40.4771" fill="white" transform="translate(0.954254 0.0585938)"/>
</clipPath>
</defs>
</svg>
