<svg width="41" height="41" viewBox="0 0 41 41" fill="none" xmlns="http://www.w3.org/2000/svg">
<g clip-path="url(#clip0_22304_143950)">
<path d="M0.862976 20.0557C0.862028 23.4565 1.75758 26.7772 3.46047 29.7041L0.700119 39.7045L11.0142 37.0211C13.8669 38.5621 17.0632 39.3695 20.3113 39.3697H20.3198C31.0423 39.3697 39.7707 30.7121 39.7753 20.0709C39.7773 14.9145 37.7554 10.0657 34.0817 6.41771C30.4088 2.77006 25.5238 0.760166 20.319 0.757812C9.59529 0.757812 0.867562 9.4149 0.863134 20.0557" fill="url(#paint0_linear_22304_143950)"/>
<path d="M15.2827 11.6953C14.9054 10.8633 14.5084 10.8465 14.1496 10.8319C13.8559 10.8194 13.52 10.8203 13.1845 10.8203C12.8487 10.8203 12.303 10.9457 11.8418 11.4454C11.3801 11.9455 10.0791 13.1542 10.0791 15.6125C10.0791 18.0709 11.8837 20.4467 12.1353 20.7804C12.3871 21.1134 15.619 26.3196 20.7374 28.3225C24.9913 29.9869 25.857 29.6558 26.7802 29.5724C27.7036 29.4892 29.7597 28.364 30.1792 27.1972C30.599 26.0306 30.599 25.0306 30.4731 24.8216C30.3473 24.6135 30.0114 24.4884 29.5079 24.2387C29.0041 23.9887 26.5284 22.7799 26.0668 22.6131C25.6051 22.4465 25.2695 22.3634 24.9336 22.8637C24.5978 23.3632 23.6335 24.4884 23.3395 24.8216C23.0459 25.1557 22.752 25.1972 22.2485 24.9473C21.7446 24.6966 20.1229 24.1696 18.1988 22.4675C16.7017 21.1431 15.6911 19.5075 15.3973 19.0072C15.1035 18.5077 15.3658 18.2369 15.6183 17.9879C15.8446 17.764 16.1221 17.4045 16.3741 17.1128C16.6252 16.821 16.709 16.6128 16.8769 16.2796C17.045 15.946 16.9609 15.6542 16.8352 15.4043C16.709 15.1544 15.7305 12.6832 15.2827 11.6953Z" fill="white"/>
</g>
<defs>
<linearGradient id="paint0_linear_22304_143950" x1="1954.46" y1="3895.43" x2="1954.46" y2="0.757812" gradientUnits="userSpaceOnUse">
<stop stop-color="#1FAF38"/>
<stop offset="1" stop-color="#60D669"/>
</linearGradient>
<clipPath id="clip0_22304_143950">
<rect width="40.4771" height="40.4771" fill="white" transform="translate(0 0.0585938)"/>
</clipPath>
</defs>
</svg>
