<svg width="52" height="52" viewBox="0 0 52 52" fill="none" xmlns="http://www.w3.org/2000/svg">
<rect x="0.263184" width="51.0978" height="51.0978" rx="25.5489" fill="#96BAB3" fill-opacity="0.25"/>
<path d="M36.7236 22.7959C36.901 22.6628 37.1672 22.7959 37.1672 23.0177V32.0662C37.1672 33.2638 36.1913 34.1953 35.0381 34.1953H16.5861C15.3885 34.1953 14.457 33.2638 14.457 32.0662V23.0177C14.457 22.7959 14.6788 22.6628 14.8562 22.7959C15.8764 23.5943 17.1627 24.5701 21.687 27.8524C22.6185 28.5178 24.2153 29.9815 25.8121 29.9815C27.3645 29.9815 29.0057 28.5178 29.8928 27.8524C34.4171 24.5701 35.7034 23.5943 36.7236 22.7959ZM25.8121 28.5178C24.7476 28.5621 23.2838 27.2315 22.5298 26.6992C16.6305 22.441 16.1869 22.0418 14.8562 20.9773C14.5901 20.7999 14.457 20.4894 14.457 20.1345V19.2918C14.457 18.1385 15.3885 17.1627 16.5861 17.1627H35.0381C36.1913 17.1627 37.1672 18.1385 37.1672 19.2918V20.1345C37.1672 20.4894 36.9897 20.7999 36.7236 20.9773C35.3929 22.0418 34.9494 22.441 29.0501 26.6992C28.296 27.2315 26.8323 28.5621 25.8121 28.5178Z" fill="white"/>
</svg>
