<svg width="18" height="18" viewBox="0 0 18 18" fill="none" xmlns="http://www.w3.org/2000/svg">
<g clip-path="url(#clip0_19060_6804)">
<path d="M1.46582 5.61189H3.49999C4.01595 5.61189 4.51079 5.35651 4.87563 4.90193C5.39668 4.25271 6.16741 4.02601 6.86647 4.31635L7.85582 4.72725M1.46582 11.9783H2.6165C3.43974 11.9783 3.85136 11.9783 4.24058 12.088C4.25951 12.0933 4.27837 12.0989 4.29718 12.1046C4.68396 12.222 5.02644 12.4428 5.71142 12.8842C7.05201 13.7482 7.72231 14.1802 8.45271 14.1276C8.48714 14.1251 8.52151 14.1218 8.55577 14.1177C9.28266 14.0309 9.8523 13.4802 10.9916 12.3788L12.1158 11.2919" stroke="#084C3F" stroke-width="1.06" stroke-linecap="round"/>
<path d="M15.6655 5.77792H13.8786C13.1219 5.77792 12.5876 5.36672 12.0448 4.81852C11.6932 4.46345 11.2444 4.25418 10.7728 4.22536C10.2454 4.19314 9.63431 4.14777 9.12217 4.28846C8.55216 4.44505 8.17575 4.87394 7.77759 5.32218L6.75014 6.47888C6.33068 6.95111 6.33068 7.71673 6.75014 8.18895C7.11218 8.59653 7.67942 8.65976 8.10543 8.34003C8.41199 8.10995 8.76029 7.73839 9.12153 7.62137C9.5281 7.48967 9.78027 7.78554 10.0107 8.09682L11.658 10.3223C12.2694 11.1482 12.5751 11.5612 12.993 11.7815C13.4109 12.0019 13.8884 12.0019 14.8434 12.0019H15.6655" stroke="#084C3F" stroke-width="1.06" stroke-linecap="round"/>
</g>
<defs>
<clipPath id="clip0_19060_6804">
<rect width="17.04" height="17.04" fill="white" transform="translate(0.0458984 0.64209)"/>
</clipPath>
</defs>
</svg>
