<svg width="52" height="52" viewBox="0 0 52 52" fill="none" xmlns="http://www.w3.org/2000/svg">
<rect x="0.263184" width="51.0978" height="51.0978" rx="25.5489" fill="#96BAB3" fill-opacity="0.25"/>
<path d="M36.5018 30.3807C36.8567 30.5581 37.1228 30.9573 37.1228 31.4009C37.1228 31.4453 37.1228 31.534 37.1228 31.6227L36.0583 36.2357C35.9252 36.7236 35.526 37.0341 35.0381 37.0341C23.6387 37.0341 14.457 27.8524 14.457 16.453C14.457 15.9651 14.7675 15.5659 15.2554 15.4328L19.8684 14.3683C19.9571 14.3683 20.0459 14.3239 20.0902 14.3239C20.5338 14.3239 20.933 14.5901 21.1104 14.9893L23.2395 19.9571C23.2838 20.0902 23.3282 20.2233 23.3282 20.3563C23.3282 20.7112 23.1508 21.0217 22.929 21.1991L20.2233 23.4169C21.8644 26.8766 24.6145 29.6267 28.0742 31.2678L30.292 28.5621C30.4694 28.3404 30.7799 28.1629 31.0904 28.1629C31.2679 28.1629 31.4009 28.2073 31.534 28.2516L36.5018 30.3807Z" fill="white"/>
</svg>
