<svg width="114" height="36" viewBox="0 0 114 36" fill="none" xmlns="http://www.w3.org/2000/svg">
<path d="M9.51035 3.83209C13.8471 2.30508 17.3898 1.5721 20.169 1.69426C22.9482 1.81642 24.3836 2.73264 24.5362 4.47344C24.6584 6.21426 23.4368 6.97777 20.8409 6.79453C18.2449 6.61128 15.4963 7.13048 12.5644 8.32156C9.63251 9.54317 8.62467 11.1313 9.60197 13.1164C10.5793 15.1015 12.5644 17.6365 15.649 20.6905C18.703 23.7751 19.8024 26.6765 18.9169 29.3945C18.0312 32.1126 15.2825 33.7618 10.6098 34.3726C5.9371 34.9529 3.06629 34.6475 1.99737 33.3954C0.928456 32.1432 0.745213 31.2575 1.44765 30.6772C2.15007 30.097 3.49386 29.9138 5.41792 30.1581C7.37251 30.3718 8.93008 30.1581 10.1212 29.4861C11.3122 28.8142 11.7398 28.0507 11.4649 27.2262C11.1595 26.371 9.14385 24.4469 5.32629 21.4235C1.53927 18.3388 0.195482 15.0404 1.32548 11.4672C2.45548 7.92453 5.20413 5.35912 9.51035 3.83209Z" fill="#084C3F"/>
<path d="M40.8452 12.2002C41.6392 12.6888 42.0057 13.2386 41.9446 13.8799L41.9141 14.0326C41.8835 14.3991 41.1811 16.2926 39.8373 19.7131L39.7458 20.4156C39.8069 21.3929 40.4481 21.9732 41.7003 22.1258C43.5633 22.4923 44.4794 22.8894 44.51 23.2558C44.5711 23.2558 44.5711 23.3475 44.5711 23.5001C44.449 24.7218 42.4332 25.4548 38.5241 25.7297C36.2336 25.0883 34.9203 24.3858 34.6454 23.6223C29.9422 26.1877 26.4911 27.3788 24.2922 27.1345L23.4981 27.0428C21.7573 26.8596 20.6885 25.8213 20.2914 23.8972C20.2303 23.4391 20.1997 23.0421 20.2608 22.7061C20.5662 19.4994 23.5898 16.4454 29.3008 13.5439C32.3855 12.3224 35.2868 11.8642 38.0355 12.1391C38.9516 12.4139 39.4098 12.5667 39.4098 12.5972C40.0206 12.2918 40.5092 12.1391 40.8452 12.2002ZM26.8271 21.6372L27.3768 21.6983C29.0871 21.8815 31.3165 21.2402 34.0957 19.8659L34.1263 19.6216C34.2484 19.1634 34.8592 17.9419 35.8976 15.9261C34.0957 16.0177 32.2633 16.598 30.4614 17.6669C29.4536 18.1251 28.69 18.797 28.1403 19.6216C27.7433 19.8353 27.3157 20.5072 26.8271 21.6372Z" fill="#084C3F"/>
<path d="M53.4581 0.533691H53.5803C54.13 0.533691 54.6797 1.60261 55.2294 3.77099C55.7792 5.90883 54.0995 13.0553 50.1902 25.1494L48.7854 30.4329C48.8159 30.9826 48.8465 31.4407 48.8465 31.7766L48.8159 31.8988C48.8159 32.8762 48.3273 33.3648 47.3805 33.3648C45.9757 33.3648 45.1511 30.7688 44.9067 25.6074C44.9678 21.7593 46.22 16.7202 48.6633 10.4899C51.2287 5.17585 52.603 1.96909 52.7863 0.900177C52.9695 0.655854 53.2138 0.533691 53.4581 0.533691Z" fill="#084C3F"/>
<path d="M65.4606 12.3225C68.9422 12.2614 70.8662 12.75 71.2022 13.7273C71.5381 14.7352 71.5381 15.7735 71.2022 16.873C70.8662 17.9725 70.0111 19.2246 68.5757 20.5684C67.1708 21.9427 64.4222 22.9506 60.3603 23.6224C60.4214 25.516 62.0095 25.974 65.1246 25.0884C68.2397 24.1721 70.3165 23.6224 71.3244 23.4087C72.3322 23.1949 72.7292 23.5003 72.5765 24.3249C72.3933 25.1495 70.8052 26.3406 67.7511 27.8982C64.7276 29.4557 61.4293 29.8222 57.9171 28.967C54.4048 28.1119 53.1528 25.4549 54.1605 20.9959C55.199 16.537 58.9554 13.6357 65.4606 12.3225ZM60.0854 20.4768L60.3297 21.1181C65.4911 19.2246 67.8122 17.7281 67.2625 16.5676C66.7128 15.407 65.5521 15.2544 63.7503 16.1095C61.979 16.9646 60.7573 18.4 60.0854 20.4768Z" fill="#084C3F"/>
<path d="M77.6157 25.2713C76.8216 27.6839 76.2415 29.3026 75.8749 30.0967C75.203 30.8602 74.4395 31.3489 73.615 31.5626C73.2485 31.6848 72.9736 31.7459 72.8208 31.7459C71.8741 31.7459 71.2938 31.1045 71.0189 29.7913C70.8968 28.9361 70.8357 28.4475 70.8357 28.3253C70.8357 27.0121 71.6603 24.2634 73.279 20.0793C74.8976 15.8954 76.4552 12.3527 77.8906 9.3902C78.6541 7.9548 79.8757 6.15291 81.525 3.98453C82.3801 3.19048 82.9298 2.79346 83.2047 2.79346C83.6627 2.88508 83.8765 3.09886 83.8765 3.43481V4.44264C83.8765 6.21399 82.9908 9.29859 81.2196 13.6658C81.189 13.7269 81.0363 14.1851 80.7614 15.0097L80.0895 17.178C81.6776 15.6511 83.113 14.4904 84.3958 13.6964C85.4035 13.0856 86.7779 12.4443 88.5187 11.7113C89.3128 11.528 89.7708 11.4975 89.9236 11.5891C90.1373 11.8029 90.1679 12.0167 90.0457 12.2305L89.6487 12.8718C88.9463 13.9713 87.236 15.4983 84.5484 17.5445C84.4873 17.5751 84.243 17.7888 83.7544 18.1859L80.8225 21.1789C80.7614 21.24 80.7003 21.301 80.6393 21.3621C81.3417 22.1561 82.1357 23.0723 83.0214 24.1108C86.5335 28.3559 89.3739 31.2878 91.5727 32.937L91.9392 33.6699C92.0309 33.9142 91.9698 34.1585 91.6949 34.4028C91.5116 34.4945 90.9925 34.4334 90.1373 34.1891C87.9995 33.6088 86.2281 32.8148 84.7622 31.8069C83.2962 30.7991 81.3722 29.1194 78.9289 26.7984C78.4403 26.2181 78.0127 25.7294 77.6157 25.2713Z" fill="#084C3F"/>
<path d="M99.1159 29.3941C97.6194 29.5162 96.0923 29.3636 94.5043 28.9971C90.9921 28.1725 89.7399 25.5154 90.7477 21.026C91.7556 16.5366 95.5121 13.6658 102.017 12.3525H102.109C103.819 12.0776 105.621 12.1387 107.484 12.5051C111.027 13.2382 112.34 15.8646 111.454 20.3847C110.569 24.8741 106.904 27.8976 100.429 29.3941C99.971 29.3941 99.5128 29.3941 99.1159 29.3941ZM100.796 25.9431C103.789 25.0878 105.499 23.3776 105.896 20.8427C106.293 18.2774 105.682 16.8114 104.063 16.3838C103.208 16.1701 102.384 16.1395 101.559 16.2923H101.529C98.5051 17.0252 96.7643 18.6743 96.3061 21.2093C95.848 23.7441 96.4283 25.2711 98.0469 25.7292C98.7799 25.9431 99.5128 26.0346 100.185 25.9735C100.368 25.9431 100.551 25.9431 100.796 25.9431Z" fill="#084C3F"/>
<path d="M108.584 9.5432L108.004 9.66537C107.729 9.57374 107.576 9.42104 107.545 9.23779V9.17671C107.454 8.62698 108.309 6.33644 110.08 2.3051C110.508 1.41942 110.905 0.93077 111.302 0.839148C111.272 0.747526 111.546 0.655905 112.096 0.533743C112.951 0.472662 113.47 0.747526 113.593 1.3278L113.806 2.24401C113.959 2.97699 113.562 4.25969 112.585 6.12266C111.546 7.25266 110.477 8.22995 109.317 9.02401C109.073 9.08509 108.828 9.26833 108.584 9.5432Z" fill="#084C3F"/>
<path d="M35.317 8.99329C34.1871 8.19924 33.0876 7.22194 32.0493 6.09194C31.072 4.22897 30.6443 2.91572 30.8276 2.21329L31.0414 1.29708C31.1941 0.716807 31.6828 0.472482 32.5379 0.503023C33.0876 0.625185 33.3625 0.747348 33.3319 0.808429C33.6984 0.90005 34.126 1.3887 34.5536 2.27437C36.3555 6.33627 37.18 8.6268 37.0884 9.146V9.20708C37.0274 9.39031 36.8746 9.54302 36.6303 9.63464L36.0501 9.51248C35.8363 9.26816 35.5919 9.08491 35.317 8.99329Z" fill="#084C3F"/>
<path d="M62.3148 8.99329C61.1848 8.19924 60.0854 7.22194 59.0471 6.09194C58.0697 4.22897 57.6421 2.91572 57.8254 2.21329L58.0392 1.29708C58.1918 0.716807 58.6806 0.472482 59.5357 0.503023C60.0854 0.625185 60.3603 0.747348 60.3297 0.808429C60.6962 0.90005 61.1237 1.3887 61.5513 2.27437C63.3533 6.33627 64.1778 8.6268 64.0862 9.146V9.20708C64.0252 9.39031 63.8724 9.54302 63.6281 9.63464L63.0478 9.51248C62.8341 9.26816 62.5897 9.08491 62.3148 8.99329Z" fill="#084C3F"/>
</svg>
