<svg width="114" height="36" viewBox="0 0 114 36" fill="none" xmlns="http://www.w3.org/2000/svg">
<path d="M8.91754 3.57234C13.2603 2.04321 16.8079 1.30922 19.591 1.43156C22.374 1.55388 23.8114 2.47137 23.9642 4.21458C24.0865 5.95781 22.8633 6.72237 20.2638 6.53888C17.6642 6.35538 14.9118 6.8753 11.9758 8.06803C9.03987 9.29133 8.03064 10.8816 9.00929 12.8695C9.98793 14.8574 11.9758 17.3958 15.0647 20.4541C18.1229 23.5429 19.2239 26.4483 18.3371 29.1702C17.4501 31.892 14.6977 33.5435 10.0185 34.1552C5.33934 34.7363 2.46456 34.4305 1.39417 33.1765C0.323767 31.9226 0.140271 31.0357 0.843675 30.4546C1.54707 29.8736 2.89273 29.6901 4.81944 29.9348C6.77674 30.1488 8.33646 29.9348 9.52919 29.2619C10.7219 28.5891 11.1501 27.8245 10.8748 26.9988C10.569 26.1424 8.55054 24.2157 4.72769 21.1881C0.935424 18.0991 -0.410221 14.7962 0.721344 11.218C1.8529 7.67044 4.60536 5.10149 8.91754 3.57234Z" fill="#084C3F"/>
<path d="M40.2957 11.9523C41.0909 12.4416 41.4578 12.9921 41.3967 13.6343L41.3661 13.7872C41.3355 14.1542 40.6321 16.0504 39.2865 19.4756L39.1948 20.1791C39.256 21.1577 39.8981 21.7388 41.152 21.8916C43.0176 22.2586 43.935 22.6562 43.9656 23.0232C44.0268 23.0232 44.0268 23.115 44.0268 23.2679C43.9045 24.4913 41.886 25.2252 37.9714 25.5005C35.6777 24.8582 34.3626 24.1548 34.0874 23.3902C29.3777 25.9592 25.9218 27.1519 23.7199 26.9073L22.9246 26.8155C21.1814 26.632 20.1111 25.5922 19.7135 23.6655C19.6523 23.2067 19.6217 22.8092 19.6829 22.4728C19.9887 19.2616 23.0164 16.2033 28.7354 13.2979C31.8243 12.0746 34.7296 11.6158 37.4821 11.8911C38.3996 12.1663 38.8583 12.3193 38.8583 12.3498C39.47 12.044 39.9593 11.8911 40.2957 11.9523ZM26.2582 21.4023L26.8087 21.4635C28.5214 21.647 30.7539 21.0048 33.5369 19.6286L33.5675 19.3839C33.6899 18.9252 34.3015 17.7019 35.3413 15.6834C33.5369 15.7751 31.702 16.3562 29.8976 17.4266C28.8884 17.8854 28.1238 18.5582 27.5733 19.3839C27.1757 19.598 26.7475 20.2708 26.2582 21.4023Z" fill="#084C3F"/>
<path d="M52.9261 0.269409H53.0484C53.5989 0.269409 54.1494 1.33981 54.6998 3.51119C55.2504 5.65199 53.5684 12.8084 49.6537 24.9192L48.2469 30.21C48.2775 30.7605 48.3081 31.2192 48.3081 31.5556L48.2775 31.6779C48.2775 32.6566 47.7881 33.146 46.8401 33.146C45.4333 33.146 44.6075 30.5463 44.3629 25.3779C44.424 21.5244 45.678 16.4783 48.1246 10.2394C50.6936 4.91799 52.0698 1.7068 52.2533 0.636402C52.4368 0.391741 52.6815 0.269409 52.9261 0.269409Z" fill="#084C3F"/>
<path d="M64.945 12.0745C68.4314 12.0133 70.3581 12.5026 70.6946 13.4813C71.0309 14.4905 71.0309 15.5303 70.6946 16.6314C70.3581 17.7323 69.5018 18.9862 68.0644 20.3318C66.6576 21.708 63.9052 22.7173 59.8377 23.3901C59.8988 25.2863 61.4891 25.7449 64.6085 24.8581C67.728 23.9406 69.8076 23.3901 70.8169 23.1761C71.8262 22.9619 72.2237 23.2678 72.0708 24.0935C71.8873 24.9193 70.297 26.112 67.2387 27.6718C64.211 29.2315 60.9081 29.5985 57.391 28.7421C53.8739 27.8858 52.6201 25.2251 53.6293 20.7599C54.6692 16.2949 58.4308 13.3896 64.945 12.0745ZM59.5624 20.2401L59.807 20.8823C64.9755 18.9862 67.2998 17.4876 66.7494 16.3255C66.1989 15.1633 65.0367 15.0105 63.2323 15.8668C61.4585 16.723 60.2352 18.1604 59.5624 20.2401Z" fill="#084C3F"/>
<path d="M77.1168 25.0413C76.3217 27.4574 75.7407 29.0782 75.3736 29.8735C74.7008 30.638 73.9362 31.1274 73.1106 31.3414C72.7436 31.4637 72.4683 31.5249 72.3154 31.5249C71.3674 31.5249 70.7863 30.8826 70.511 29.5677C70.3886 28.7113 70.3275 28.222 70.3275 28.0996C70.3275 26.7846 71.1533 24.0321 72.7741 19.8422C74.395 15.6525 75.9547 12.1049 77.3921 9.13829C78.1567 7.7009 79.38 5.89651 81.0315 3.72513C81.8878 2.92998 82.4383 2.53241 82.7136 2.53241C83.1723 2.62415 83.3864 2.83824 83.3864 3.17465V4.18388C83.3864 5.95768 82.4995 9.04654 80.7257 13.4198C80.6951 13.481 80.5422 13.9398 80.2669 14.7655L79.5941 16.9369C81.1844 15.4078 82.6218 14.2456 83.9063 13.4505C84.9155 12.8388 86.2917 12.1966 88.0349 11.4626C88.8302 11.2791 89.2888 11.2485 89.4418 11.3403C89.6558 11.5543 89.6864 11.7684 89.5641 11.9825L89.1665 12.6247C88.4632 13.7258 86.7505 15.2548 84.0592 17.3039C83.998 17.3345 83.7534 17.5485 83.2641 17.9462L80.3281 20.9433C80.2669 21.0044 80.2058 21.0656 80.1446 21.1268C80.848 21.9219 81.6432 22.8393 82.5301 23.8792C86.0471 28.1303 88.8913 31.0662 91.0932 32.7176L91.4602 33.4516C91.552 33.6962 91.4908 33.9409 91.2155 34.1856C91.032 34.2774 90.5122 34.2162 89.6558 33.9715C87.5151 33.3904 85.7412 32.5953 84.2733 31.5861C82.8053 30.5768 80.8786 28.8947 78.4319 26.5705C77.9426 25.9894 77.5145 25.5001 77.1168 25.0413Z" fill="#084C3F"/>
<path d="M98.6475 29.1702C97.149 29.2925 95.6198 29.1396 94.0295 28.7727C90.5125 27.9469 89.2586 25.2861 90.2678 20.7905C91.2771 16.2949 95.0388 13.4201 101.553 12.105H101.645C103.357 11.8297 105.162 11.8909 107.027 12.2578C110.575 12.9919 111.89 15.6219 111.003 20.1483C110.116 24.644 106.446 27.6716 99.9626 29.1702C99.5038 29.1702 99.0451 29.1702 98.6475 29.1702ZM100.33 25.7144C103.327 24.858 105.039 23.1454 105.437 20.6069C105.835 18.0381 105.223 16.57 103.602 16.1419C102.746 15.9279 101.92 15.8972 101.094 16.0502H101.064C98.0359 16.7842 96.2927 18.4356 95.8339 20.974C95.3751 23.5124 95.9562 25.0415 97.5771 25.5002C98.3111 25.7144 99.0451 25.8061 99.718 25.7449C99.9015 25.7144 100.085 25.7144 100.33 25.7144Z" fill="#084C3F"/>
<path d="M108.128 9.2914L107.547 9.41374C107.272 9.32198 107.119 9.16907 107.089 8.98557V8.92441C106.997 8.37391 107.853 6.0802 109.627 2.04328C110.055 1.15637 110.453 0.667049 110.85 0.5753C110.82 0.483552 111.095 0.391803 111.645 0.269472C112.502 0.208307 113.022 0.483552 113.144 1.06463L113.358 1.9821C113.511 2.7161 113.113 4.00058 112.135 5.86613C111.095 6.99769 110.024 7.97634 108.862 8.7715C108.618 8.83266 108.373 9.01615 108.128 9.2914Z" fill="#084C3F"/>
<path d="M34.7599 8.74082C33.6284 7.94568 32.5274 6.96703 31.4876 5.83546C30.509 3.9699 30.0807 2.65485 30.2642 1.95144L30.4783 1.03396C30.6313 0.452885 31.1206 0.208222 31.9769 0.238805C32.5274 0.361137 32.8027 0.483468 32.772 0.544634C33.139 0.636382 33.5673 1.12571 33.9954 2.01261C35.7998 6.08012 36.6254 8.37383 36.5337 8.89374V8.95491C36.4726 9.1384 36.3196 9.29132 36.075 9.38306L35.494 9.26073C35.2798 9.01607 35.0352 8.83257 34.7599 8.74082Z" fill="#084C3F"/>
<path d="M61.7954 8.74082C60.6638 7.94568 59.5629 6.96703 58.5231 5.83546C57.5444 3.9699 57.1162 2.65485 57.2997 1.95144L57.5138 1.03396C57.6667 0.452885 58.1561 0.208222 59.0124 0.238805C59.5629 0.361137 59.8382 0.483468 59.8075 0.544634C60.1745 0.636382 60.6026 1.12571 61.0308 2.01261C62.8353 6.08012 63.6609 8.37383 63.5692 8.89374V8.95491C63.5081 9.1384 63.3551 9.29132 63.1105 9.38306L62.5293 9.26073C62.3153 9.01607 62.0707 8.83257 61.7954 8.74082Z" fill="#084C3F"/>
</svg>
