<svg width="123" height="38" viewBox="0 0 123 38" fill="none" xmlns="http://www.w3.org/2000/svg">
<g clip-path="url(#clip0_16723_38993)">
<path d="M13.9177 3.57286C18.2605 2.04373 21.8081 1.30974 24.5912 1.43208C27.3742 1.5544 28.8116 2.47189 28.9644 4.2151C29.0867 5.95833 27.8635 6.72289 25.264 6.5394C22.6643 6.3559 19.912 6.87581 16.976 8.06855C14.0401 9.29185 13.0308 10.8822 14.0095 12.87C14.9881 14.8579 16.976 17.3963 20.0648 20.4546C23.1231 23.5434 24.2241 26.4489 23.3373 29.1707C22.4503 31.8925 19.6979 33.544 15.0187 34.1557C10.3395 34.7368 7.46474 34.431 6.39435 33.1771C5.32395 31.9232 5.14045 31.0362 5.84386 30.4551C6.54726 29.8741 7.89291 29.6906 9.81963 29.9353C11.7769 30.1493 13.3366 29.9353 14.5294 29.2624C15.7221 28.5896 16.1503 27.825 15.875 26.9993C15.5692 26.1429 13.5507 24.2162 9.72787 21.1886C5.93561 18.0997 4.58996 14.7967 5.72153 11.2186C6.85309 7.67096 9.60554 5.10201 13.9177 3.57286Z" fill="white"/>
<path d="M45.2961 11.9528C46.0912 12.4422 46.4582 12.9926 46.397 13.6349L46.3665 13.7878C46.3359 14.1547 45.6324 16.0509 44.2868 19.4762L44.1952 20.1796C44.2563 21.1582 44.8985 21.7393 46.1524 21.8922C48.0179 22.2592 48.9354 22.6568 48.966 23.0238C49.0272 23.0238 49.0272 23.1156 49.0272 23.2684C48.9049 24.4918 46.8863 25.2258 42.9718 25.5011C40.6781 24.8588 39.363 24.1554 39.0877 23.3908C34.378 25.9597 30.9221 27.1525 28.7202 26.9078L27.925 26.816C26.1818 26.6325 25.1115 25.5927 24.7139 23.666C24.6527 23.2073 24.6221 22.8098 24.6832 22.4733C24.989 19.2622 28.0168 16.2039 33.7358 13.2984C36.8247 12.0752 39.73 11.6164 42.4825 11.8917C43.3999 12.1669 43.8587 12.3198 43.8587 12.3504C44.4703 12.0445 44.9596 11.8917 45.2961 11.9528ZM31.2586 21.4029L31.809 21.464C33.5217 21.6475 35.7543 21.0054 38.5373 19.6291L38.5679 19.3845C38.6902 18.9257 39.3019 17.7024 40.3416 15.6839C38.5373 15.7756 36.7023 16.3567 34.898 17.4271C33.8887 17.8859 33.1241 18.5587 32.5736 19.3845C32.176 19.5985 31.7479 20.2713 31.2586 21.4029Z" fill="white"/>
<path d="M57.9265 0.269531H58.0488C58.5993 0.269531 59.1498 1.33993 59.7002 3.51131C60.2508 5.65211 58.5688 12.8085 54.6541 24.9193L53.2473 30.2101C53.2779 30.7606 53.3085 31.2194 53.3085 31.5557L53.2779 31.678C53.2779 32.6568 52.7885 33.1461 51.8405 33.1461C50.4337 33.1461 49.6079 30.5465 49.3633 25.378C49.4244 21.5246 50.6783 16.4784 53.125 10.2395C55.694 4.91811 57.0702 1.70692 57.2537 0.636524C57.4372 0.391863 57.6818 0.269531 57.9265 0.269531Z" fill="white"/>
<path d="M69.9452 12.0754C73.4316 12.0143 75.3583 12.5036 75.6948 13.4822C76.0311 14.4914 76.0311 15.5312 75.6948 16.6323C75.3583 17.7332 74.502 18.9871 73.0646 20.3327C71.6578 21.7089 68.9054 22.7182 64.8379 23.391C64.899 25.2872 66.4893 25.7458 69.6087 24.859C72.7282 23.9415 74.8079 23.391 75.8171 23.177C76.8264 22.9629 77.2239 23.2687 77.071 24.0944C76.8875 24.9202 75.2972 26.1129 72.2389 27.6727C69.2112 29.2324 65.9083 29.5994 62.3912 28.743C58.8742 27.8867 57.6204 25.226 58.6295 20.7609C59.6694 16.2958 63.431 13.3905 69.9452 12.0754ZM64.5626 20.241L64.8072 20.8832C69.9757 18.9871 72.3 17.4886 71.7496 16.3264C71.1991 15.1642 70.0369 15.0114 68.2325 15.8677C66.4588 16.724 65.2354 18.1614 64.5626 20.241Z" fill="white"/>
<path d="M82.117 25.0421C81.3219 27.4581 80.7409 29.079 80.3738 29.8743C79.701 30.6388 78.9364 31.1282 78.1107 31.3422C77.7438 31.4645 77.4685 31.5257 77.3155 31.5257C76.3675 31.5257 75.7864 30.8834 75.5111 29.5685C75.3888 28.7121 75.3276 28.2227 75.3276 28.1004C75.3276 26.7853 76.1534 24.0329 77.7743 19.843C79.3952 15.6533 80.9549 12.1057 82.3923 9.13908C83.1569 7.7017 84.3802 5.89731 86.0317 3.72592C86.888 2.93078 87.4384 2.5332 87.7137 2.5332C88.1724 2.62495 88.3865 2.83903 88.3865 3.17544V4.18467C88.3865 5.95847 87.4996 9.04734 85.7259 13.4206C85.6952 13.4818 85.5424 13.9406 85.2671 14.7663L84.5943 16.9377C86.1845 15.4086 87.6219 14.2464 88.9065 13.4513C89.9156 12.8396 91.2919 12.1974 93.0351 11.4634C93.8303 11.2799 94.289 11.2493 94.4419 11.341C94.656 11.5551 94.6866 11.7692 94.5643 11.9833L94.1667 12.6255C93.4633 13.7266 91.7506 15.2556 89.0593 17.3047C88.9982 17.3353 88.7535 17.5493 88.2642 17.9469L85.3283 20.9441C85.2671 21.0052 85.2059 21.0664 85.1448 21.1276C85.8482 21.9227 86.6433 22.8401 87.5303 23.88C91.0472 28.1311 93.8915 31.067 96.0934 32.7184L96.4603 33.4524C96.5521 33.697 96.491 33.9417 96.2157 34.1863C96.0322 34.2782 95.5124 34.217 94.656 33.9723C92.5152 33.3912 90.7414 32.5961 89.2735 31.5868C87.8054 30.5776 85.8787 28.8955 83.4321 26.5713C82.9428 25.9902 82.5146 25.5009 82.117 25.0421Z" fill="white"/>
<path d="M103.648 29.1708C102.149 29.2932 100.62 29.1403 99.0299 28.7733C95.5129 27.9476 94.259 25.2868 95.2682 20.7912C96.2775 16.2955 100.039 13.4207 106.553 12.1057H106.645C108.358 11.8304 110.162 11.8915 112.028 12.2585C115.575 12.9926 116.89 15.6226 116.003 20.1489C115.116 24.6446 111.447 27.6723 104.963 29.1708C104.504 29.1708 104.045 29.1708 103.648 29.1708ZM105.33 25.715C108.327 24.8586 110.04 23.1461 110.437 20.6076C110.835 18.0387 110.223 16.5707 108.602 16.1426C107.746 15.9285 106.92 15.8979 106.095 16.0509H106.064C103.036 16.7848 101.293 18.4363 100.834 20.9747C100.376 23.513 100.957 25.0421 102.578 25.5009C103.311 25.715 104.045 25.8067 104.718 25.7456C104.902 25.715 105.085 25.715 105.33 25.715Z" fill="white"/>
<path d="M113.129 9.29201L112.547 9.41435C112.272 9.32259 112.119 9.16968 112.089 8.98618V8.92502C111.997 8.37452 112.853 6.08081 114.627 2.04389C115.055 1.15698 115.453 0.667659 115.85 0.575911C115.82 0.484162 116.095 0.392413 116.646 0.270083C117.502 0.208917 118.022 0.484162 118.144 1.06524L118.358 1.98272C118.511 2.71671 118.114 4.00119 117.135 5.86674C116.095 6.9983 115.025 7.97695 113.863 8.77211C113.618 8.83327 113.373 9.01676 113.129 9.29201Z" fill="white"/>
<path d="M39.7603 8.74088C38.6288 7.94574 37.5278 6.96709 36.488 5.83552C35.5094 3.96997 35.0811 2.65491 35.2646 1.9515L35.4788 1.03402C35.6317 0.452946 36.121 0.208284 36.9773 0.238866C37.5278 0.361198 37.8031 0.483529 37.7724 0.544695C38.1394 0.636443 38.5677 1.12577 38.9958 2.01267C40.8002 6.08018 41.6259 8.37389 41.5342 8.8938V8.95497C41.473 9.13846 41.32 9.29138 41.0754 9.38312L40.4944 9.2608C40.2803 9.01613 40.0356 8.83263 39.7603 8.74088Z" fill="white"/>
<path d="M66.7955 8.74088C65.6639 7.94574 64.563 6.96709 63.5232 5.83552C62.5444 3.96997 62.1163 2.65491 62.2998 1.9515L62.5139 1.03402C62.6668 0.452946 63.1562 0.208284 64.0125 0.238866C64.563 0.361198 64.8382 0.483529 64.8076 0.544695C65.1746 0.636443 65.6027 1.12577 66.0309 2.01267C67.8354 6.08018 68.661 8.37389 68.5693 8.8938V8.95497C68.5082 9.13846 68.3552 9.29138 68.1105 9.38312L67.5294 9.2608C67.3154 9.01613 67.0708 8.83263 66.7955 8.74088Z" fill="white"/>
</g>
<defs>
<clipPath id="clip0_16723_38993">
<rect width="121.816" height="37.7641" fill="white" transform="translate(0.612793 0.236328)"/>
</clipPath>
</defs>
</svg>
