<svg width="65" height="64" viewBox="0 0 65 64" fill="none" xmlns="http://www.w3.org/2000/svg">
<rect x="0.655029" width="64" height="64" rx="32" fill="#D1FAE5"/>
<path d="M40.8582 25.2812C41.5613 25.5938 42.03 26.2578 42.03 27C42.03 35.6719 36.7175 40.4766 33.3582 41.8828C32.8894 42.0781 32.3816 42.0781 31.9128 41.8828C27.7332 40.125 23.28 34.7734 23.28 27C23.28 26.2578 23.7097 25.5938 24.4128 25.2812L31.9128 22.1562C32.1472 22.0781 32.3816 22.0391 32.655 22.0391C32.8894 22.0391 33.1238 22.0781 33.3582 22.1562L40.8582 25.2812ZM32.655 39.4609C36.2878 37.625 39.3738 33.3281 39.491 27.4297L32.655 24.5781V39.4609Z" fill="#059669"/>
</svg>
