<svg width="330" height="323" viewBox="0 0 330 323" fill="none" xmlns="http://www.w3.org/2000/svg">
<path d="M328.905 291.984H1.07812" stroke="#263238" stroke-linecap="round" stroke-linejoin="round"/>
<g opacity="0.3">
<path d="M10.8476 213.05C13.5011 214.204 19.9969 214.059 19.9969 214.059C19.9969 214.059 18.6148 209.809 18.4835 209.553C17.06 206.575 12.5544 201.655 8.89193 202.152C8.2886 202.251 7.71269 202.475 7.20133 202.81C6.68998 203.145 6.25455 203.584 5.92312 204.098C5.5917 204.611 5.37165 205.189 5.27716 205.793C5.18268 206.397 5.21586 207.014 5.37457 207.604C5.98959 210.175 8.58788 212.062 10.8476 213.05Z" fill="black"/>
<path d="M13.0925 231.843C15.8566 232.244 21.6336 230.564 22.0759 230.461C23.0354 233.765 24.2151 237.002 25.6071 240.149C26.4087 241.994 27.2656 243.832 28.1501 245.677C27.6249 244.903 27.1412 244.219 27.0652 244.129C24.9092 241.628 19.2634 238.076 15.8635 239.52C15.3049 239.776 14.8065 240.147 14.4005 240.608C13.9945 241.069 13.69 241.611 13.5069 242.197C13.3238 242.784 13.2661 243.402 13.3375 244.013C13.409 244.623 13.608 245.211 13.9217 245.74C15.1794 248.027 18.1923 249.153 20.6316 249.513C23.071 249.872 28.0741 248.538 29.3801 248.172C29.7326 248.863 30.0712 249.554 30.4167 250.245C32.0959 253.583 33.782 256.907 35.3369 260.224C35.8897 261.385 36.3872 262.559 36.8917 263.727C36.4218 263.036 36.021 262.463 35.945 262.345C33.7889 259.85 28.1432 256.299 24.7433 257.743C24.184 257.998 23.6847 258.368 23.2781 258.829C22.8715 259.29 22.5667 259.832 22.3834 260.419C22.2002 261.006 22.1427 261.624 22.2148 262.235C22.2868 262.846 22.4867 263.434 22.8015 263.962C24.0592 266.256 27.0721 267.383 29.5114 267.742C31.9508 268.101 36.4702 266.892 38.025 266.464C38.5087 267.673 38.9855 268.889 39.4071 270.085C39.6696 270.907 39.9806 271.681 40.1948 272.524C40.4091 273.367 40.6509 274.169 40.8859 274.984C41.2659 276.56 41.6667 278.191 41.9984 279.738C42.2334 280.816 42.4407 281.846 42.6895 282.89C42.1574 281.715 41.0655 279.434 40.955 279.275C39.1997 276.477 34.1552 272.109 30.5895 273.022C29.998 273.189 29.4486 273.48 28.9769 273.874C28.5052 274.268 28.1219 274.757 27.852 275.309C27.5821 275.862 27.4316 276.464 27.4103 277.079C27.389 277.693 27.4975 278.305 27.7286 278.875C28.6269 281.328 31.4325 282.903 33.7889 283.622C36.3872 284.417 42.1366 283.691 42.8553 283.622C43.1939 285.343 43.5464 287.015 43.7882 288.598C43.9955 289.772 44.189 290.899 44.3618 291.984H46.6629C46.4418 290.774 46.2068 289.517 45.9719 288.197C45.6264 286.448 45.2256 284.59 44.7971 282.668C46.5278 281.975 48.2168 281.181 49.8555 280.291C51.7489 282.364 56.6 284.735 57.2219 285.039C56.5309 286.663 55.909 288.238 55.2594 289.71C54.9208 290.491 54.5683 291.23 54.2643 291.963H56.6967L57.2841 290.581C57.9752 288.936 58.6662 287.167 59.3572 285.343C60.0483 285.488 65.7424 286.642 68.396 286.034C70.8008 285.488 73.7169 284.127 74.7949 281.749C75.0672 281.199 75.2204 280.597 75.2445 279.983C75.2687 279.369 75.1632 278.757 74.9351 278.186C74.7069 277.616 74.3611 277.1 73.9202 276.672C73.4794 276.244 72.9533 275.914 72.3763 275.703C68.8728 274.521 63.5173 278.502 61.5616 281.162C61.4441 281.314 60.38 283.159 59.7235 284.327C60.0068 283.581 60.2832 282.862 60.5596 282.088C61.1194 280.561 61.6376 279.027 62.1905 277.368C62.4323 276.567 62.6811 275.744 62.923 274.922C63.1648 274.1 63.3583 273.222 63.614 272.365C64.0908 270.361 64.4709 268.309 64.8164 266.236C66.1501 266.719 70.9251 268.378 73.399 268.205C75.8729 268.032 78.9273 267.127 80.3647 264.943C80.7174 264.44 80.9603 263.869 81.0774 263.266C81.1945 262.663 81.1833 262.042 81.0444 261.443C80.9056 260.845 80.6422 260.282 80.2715 259.792C79.9007 259.302 79.431 258.896 78.8928 258.6C75.6103 256.9 69.7158 260.03 67.3732 262.359C67.2281 262.504 65.7424 264.363 64.9408 265.399C65.1343 264.149 65.3347 262.905 65.4936 261.633C65.9497 257.971 66.2952 254.239 66.6615 250.528C66.772 249.388 66.8964 248.255 67.0139 247.122C67.4838 247.301 73.1157 249.395 75.8799 249.195C78.3399 249.022 81.4081 248.117 82.8524 245.933C83.2051 245.43 83.448 244.858 83.5651 244.255C83.6823 243.652 83.671 243.031 83.5322 242.433C83.3933 241.834 83.1299 241.272 82.7592 240.782C82.3885 240.292 81.9187 239.886 81.3805 239.589C78.0981 237.889 72.2036 241.013 69.8679 243.342C69.6882 243.521 67.546 246.203 67.0346 246.907C67.2972 244.413 67.5874 241.925 67.9675 239.486C68.4158 236.188 69.0807 232.924 69.9577 229.714C70.1788 229.797 76.0457 232.009 78.8789 231.788C81.339 231.615 84.4072 230.71 85.8515 228.526C86.2042 228.023 86.4471 227.451 86.5642 226.848C86.6813 226.245 86.6701 225.624 86.5312 225.026C86.3924 224.427 86.129 223.865 85.7583 223.375C85.3876 222.885 84.9178 222.478 84.3796 222.182C81.0902 220.482 75.2026 223.613 72.86 225.941C72.6804 226.121 70.3723 229.003 69.9922 229.556C70.0475 229.376 70.0821 229.175 70.1443 228.989C71.1536 225.8 72.4464 222.708 74.0071 219.75C74.8502 218.105 75.7486 216.578 76.6538 215.113C77.7042 215.638 82.5276 217.981 85.0982 218.084C87.5583 218.181 90.7302 217.621 92.3818 215.604C92.7881 215.143 93.0929 214.601 93.2761 214.015C93.4594 213.429 93.517 212.81 93.4453 212.2C93.3736 211.59 93.1741 211.001 92.8599 210.473C92.5457 209.945 92.1238 209.49 91.6216 209.135C88.5396 207.062 82.341 209.55 79.7566 211.609C79.6183 211.72 78.3192 212.991 77.3794 213.973C77.8009 213.282 78.2225 212.632 78.6302 212.017C80.1781 209.681 81.7398 207.65 83.1357 205.853C83.9373 204.837 84.6836 203.939 85.3885 203.089C86.6876 203.089 91.9188 202.909 94.2061 201.831C96.4934 200.753 98.995 198.832 99.534 196.303C99.6811 195.707 99.7013 195.087 99.5931 194.483C99.485 193.879 99.2509 193.304 98.9061 192.797C98.5613 192.289 98.1136 191.859 97.5919 191.536C97.0703 191.213 96.4865 191.003 95.8784 190.92C92.2021 190.519 87.8278 195.557 86.4872 198.576C86.3698 198.839 85.0222 203.123 85.1052 203.123H85.1812C84.4901 203.911 83.7507 204.768 82.963 205.715C81.5256 207.484 79.9155 209.495 78.3123 211.796C76.5523 214.261 74.9372 216.827 73.4751 219.48C71.8231 222.444 70.4356 225.547 69.3288 228.754C69.3288 228.754 69.3288 228.83 69.2943 228.871C69.2943 227.786 69.2943 224.725 69.239 224.525C68.8451 221.284 66.0948 215.203 62.4392 214.512C61.83 214.417 61.2076 214.452 60.6128 214.614C60.018 214.777 59.4642 215.063 58.9879 215.454C58.5116 215.846 58.1234 216.334 57.8488 216.886C57.5742 217.438 57.4195 218.042 57.3947 218.658C57.1805 221.256 59.067 223.861 60.9051 225.506C62.9782 227.358 68.7415 229.155 69.1975 229.293C68.1626 232.584 67.3499 235.941 66.7651 239.341C66.4127 241.317 66.1155 243.321 65.846 245.332C65.846 244.399 65.846 243.556 65.7977 243.438C65.3761 240.163 62.6327 234.089 58.991 233.418C58.3845 233.324 57.7649 233.358 57.1724 233.518C56.5799 233.678 56.0278 233.962 55.552 234.35C55.0762 234.737 54.6874 235.221 54.4107 235.769C54.1341 236.317 53.9759 236.917 53.9464 237.53C53.7322 240.135 55.6187 242.74 57.4569 244.378C59.295 246.016 64.2014 247.674 65.5005 248.089C65.4038 248.863 65.3001 249.637 65.2103 250.411C64.768 254.122 64.3396 257.826 63.8282 261.468C63.6485 262.746 63.4136 263.99 63.1925 265.247C63.1925 264.411 63.1925 263.713 63.1441 263.603C62.7226 260.327 59.9722 254.253 56.3374 253.583C55.7308 253.487 55.1108 253.52 54.5178 253.68C53.9249 253.84 53.3723 254.123 52.8963 254.511C52.4202 254.899 52.0313 255.383 51.7551 255.932C51.4788 256.48 51.3213 257.081 51.2929 257.694C51.0786 260.3 52.9651 262.905 54.8033 264.543C56.6415 266.18 61.0779 267.68 62.612 268.177C62.3425 269.456 62.073 270.727 61.7551 271.95C61.5202 272.787 61.3474 273.602 61.0641 274.417L60.2832 276.85C59.7235 278.377 59.1637 279.96 58.5833 281.431C58.1894 282.461 57.7886 283.435 57.3947 284.417C57.5951 283.152 57.9337 280.658 57.9406 280.45C57.9044 277.536 57.1191 274.681 55.6602 272.158C55.6739 271.834 55.6531 271.51 55.598 271.19C55.5214 270.581 55.3174 269.995 54.9992 269.47C54.6811 268.944 54.2559 268.492 53.7514 268.142C53.2469 267.792 52.6743 267.552 52.0709 267.438C51.4675 267.324 50.8469 267.338 50.2494 267.479C46.6767 268.433 44.4101 274.708 44.2443 278.004C44.2443 278.197 44.3618 280.319 44.4585 281.66C44.2789 280.879 44.113 280.125 43.9195 279.324C43.5463 277.741 43.1248 276.18 42.6826 274.487C42.4338 273.678 42.1919 272.863 41.9362 272.04C41.6806 271.218 41.3627 270.382 41.0724 269.539C40.3814 267.611 39.5591 265.683 38.7022 263.762C40.0843 263.43 44.9768 262.186 46.9462 260.673C48.9157 259.159 50.975 256.72 50.9542 254.108C50.9719 253.494 50.8597 252.883 50.625 252.315C50.3904 251.747 50.0384 251.235 49.5923 250.812C49.1462 250.389 48.6159 250.066 48.0361 249.862C47.4563 249.658 46.84 249.579 46.2276 249.63C42.5513 250.024 39.3656 255.884 38.6953 259.118C38.6538 259.318 38.4396 261.696 38.3429 263.002C37.8177 261.848 37.2994 260.7 36.7258 259.546C35.0881 256.236 33.319 252.94 31.5707 249.637C31.0409 248.628 30.5134 247.617 29.9883 246.603C30.4858 246.493 36.332 245.138 38.5364 243.445C40.492 241.946 42.5651 239.486 42.5443 236.88C42.5618 236.267 42.4498 235.656 42.2156 235.088C41.9814 234.52 41.6302 234.008 41.185 233.585C40.7398 233.162 40.2104 232.838 39.6315 232.633C39.0525 232.428 38.4368 232.347 37.8246 232.396C34.1414 232.796 30.9557 238.656 30.2854 241.89C30.237 242.132 29.9261 245.546 29.8915 246.424C28.7375 244.192 27.6042 241.96 26.5745 239.714C25.1703 236.693 23.9653 233.584 22.9673 230.405C23.1954 230.357 29.3041 228.968 31.5638 227.234C33.5194 225.734 35.5925 223.281 35.5718 220.669C35.5895 220.055 35.4773 219.443 35.2426 218.875C35.0079 218.307 34.656 217.795 34.2099 217.373C33.7638 216.95 33.2335 216.626 32.6537 216.423C32.0738 216.219 31.4576 216.14 30.8451 216.191C27.1688 216.585 23.9832 222.445 23.3129 225.679C23.2645 225.934 22.9328 229.611 22.919 230.274C22.8637 230.095 22.7808 229.908 22.7255 229.721C21.8136 226.503 21.1892 223.21 20.8597 219.881C20.6524 218.043 20.5556 216.281 20.5073 214.56C21.6682 214.415 26.9823 213.71 29.1867 212.376C31.3911 211.043 33.63 208.88 33.8995 206.288C33.9832 205.68 33.9378 205.06 33.7663 204.47C33.5948 203.879 33.3011 203.332 32.9042 202.863C32.5073 202.394 32.0161 202.013 31.4625 201.746C30.909 201.479 30.3054 201.331 29.6911 201.313C25.9941 201.313 22.1796 206.779 21.1637 209.916C21.1085 210.089 20.7353 211.886 20.4727 213.206C20.4727 212.425 20.4312 211.623 20.4312 210.877C20.4312 208.113 20.6178 205.521 20.7906 203.275C20.9012 201.99 21.0255 200.829 21.1568 199.737C22.221 199.005 26.4985 195.985 27.8184 193.829C29.1383 191.673 30.1472 188.681 29.2005 186.228C28.9938 185.649 28.6679 185.121 28.2438 184.676C27.8196 184.232 27.3068 183.882 26.7386 183.649C26.1703 183.415 25.5594 183.304 24.9454 183.322C24.3314 183.34 23.7281 183.487 23.1747 183.754C19.8922 185.447 19.0284 192.046 19.5675 195.322C19.6158 195.598 20.8597 199.917 20.9495 199.882L21.0117 199.834C20.8666 200.878 20.7284 201.997 20.5971 203.227C20.3691 205.494 20.1341 208.064 20.0719 210.863C19.9648 213.887 20.0364 216.914 20.2861 219.929C20.5479 223.308 21.1098 226.657 21.9653 229.936C21.9684 229.975 21.9684 230.014 21.9653 230.053C21.3849 229.141 19.6711 226.639 19.5191 226.46C17.3631 223.965 11.7173 220.406 8.31742 221.85C7.75885 222.106 7.26038 222.477 6.85439 222.938C6.44839 223.4 6.14394 223.941 5.96082 224.527C5.77769 225.114 5.71999 225.732 5.79145 226.343C5.86291 226.953 6.06194 227.541 6.37561 228.07C7.6402 230.357 10.6531 231.49 13.0925 231.843Z" fill="black"/>
<path d="M76.5023 214.469C76.5576 214.503 77.684 210.157 77.7254 209.873C78.1746 206.605 77.1381 200.019 73.8073 198.409C73.2467 198.157 72.6392 198.025 72.0244 198.023C71.4097 198.022 70.8014 198.149 70.2394 198.399C69.6773 198.648 69.1741 199.012 68.7625 199.469C68.3509 199.926 68.0401 200.464 67.8506 201.049C66.9591 203.495 68.0924 206.508 69.433 208.581C71.0017 211.007 76.4954 214.469 76.5023 214.469Z" fill="black"/>
</g>
<g opacity="0.3">
<path d="M140.949 29.667C143.602 30.8279 150.091 30.6828 150.098 30.6828C150.105 30.6828 148.716 26.433 148.578 26.1704C147.154 23.192 142.649 18.2718 138.986 18.7694C138.38 18.8694 137.802 19.0957 137.289 19.4336C136.776 19.7716 136.34 20.2136 136.009 20.731C135.678 21.2483 135.459 21.8296 135.368 22.4369C135.276 23.0442 135.313 23.6641 135.476 24.2562C136.084 26.7923 138.689 28.6788 140.949 29.667Z" fill="black"/>
<path d="M143.189 48.4671C145.953 48.8679 151.737 47.1886 152.172 47.085C153.145 50.3888 154.334 53.6252 155.731 56.7733C156.526 58.6184 157.383 60.4496 158.274 62.3016C157.742 61.5276 157.265 60.8435 157.189 60.7536C155.026 58.259 149.387 54.7002 145.981 56.1444C145.422 56.4005 144.923 56.7711 144.517 57.2323C144.111 57.6935 143.807 58.2349 143.624 58.8215C143.441 59.408 143.383 60.0265 143.455 60.6367C143.526 61.247 143.725 61.8354 144.039 62.3638C145.296 64.6511 148.309 65.7844 150.749 66.1368C153.188 66.4892 158.191 65.1694 159.504 64.7962C159.85 65.4872 160.195 66.1783 160.541 66.8693C162.22 70.207 163.906 73.5309 165.461 76.8478C166.007 78.0157 166.504 79.1835 167.009 80.3514C166.539 79.6604 166.138 79.0937 166.069 79.0108C163.906 76.5092 158.267 72.9573 154.86 74.4016C154.302 74.6576 153.803 75.0282 153.397 75.4894C152.991 75.9506 152.687 76.4921 152.504 77.0786C152.321 77.6651 152.263 78.2836 152.334 78.8939C152.406 79.5041 152.605 80.0925 152.918 80.6209C154.183 82.9082 157.189 84.0415 159.628 84.3939C162.068 84.7464 166.587 83.5509 168.149 83.1155C168.626 84.3317 169.109 85.5411 169.531 86.7365C169.794 87.5589 170.098 88.3328 170.312 89.1759C170.526 90.019 170.775 90.8275 171.003 91.636C171.383 93.2185 171.784 94.8424 172.109 96.3972C172.35 97.4752 172.558 98.5049 172.8 99.5414C172.261 98.3736 171.176 96.0862 171.058 95.9273C169.303 93.1632 164.265 88.7613 160.693 89.708C160.102 89.8773 159.554 90.1687 159.084 90.5634C158.614 90.9581 158.232 91.4473 157.963 91.9992C157.694 92.551 157.543 93.1533 157.522 93.7669C157.501 94.3806 157.609 94.9918 157.839 95.5611C158.73 98.0142 161.536 99.5898 163.892 100.308C166.49 101.103 172.24 100.378 172.958 100.308C173.304 102.029 173.65 103.701 173.898 105.284C174.106 106.459 174.292 107.585 174.465 108.67H176.766C176.554 107.468 176.324 106.205 176.075 104.883C175.736 103.142 175.336 101.283 174.907 99.3548C176.636 98.6621 178.323 97.8683 179.959 96.9777C181.852 99.0508 186.703 101.428 187.332 101.732C186.641 103.356 186.012 104.925 185.369 106.396C185.031 107.177 184.678 107.917 184.374 108.649H186.807C187 108.186 187.194 107.73 187.387 107.267C188.078 105.623 188.769 103.847 189.46 102.022C190.151 102.167 195.846 103.321 198.499 102.713C200.904 102.167 203.82 100.806 204.898 98.4289C205.17 97.8781 205.324 97.2762 205.348 96.6623C205.372 96.0483 205.266 95.4362 205.038 94.8658C204.81 94.2954 204.464 93.7794 204.023 93.3515C203.583 92.9236 203.056 92.5934 202.479 92.3823C198.976 91.2006 193.627 95.181 191.665 97.8415C191.547 98.0004 190.483 99.8386 189.834 101.013C190.11 100.267 190.393 99.5414 190.67 98.7675C191.229 97.2403 191.741 95.7062 192.301 94.0546L193.033 91.6014C193.296 90.7929 193.468 89.9015 193.69 89.0446C194.166 87.0406 194.553 84.9882 194.899 82.9151C196.233 83.3989 201.001 85.0642 203.475 84.8846C205.948 84.7049 209.003 83.8135 210.447 81.6229C210.8 81.1199 211.043 80.5482 211.16 79.9451C211.277 79.342 211.266 78.721 211.127 78.1226C210.988 77.5241 210.725 76.9616 210.354 76.4717C209.983 75.9818 209.513 75.5755 208.975 75.2792C205.686 73.5862 199.798 76.7096 197.456 79.0384C197.311 79.1835 195.818 81.0424 195.016 82.079C195.217 80.8282 195.417 79.5843 195.576 78.3128C196.032 74.6504 196.378 70.9257 196.737 67.2079C196.848 66.0677 196.972 64.9413 197.089 63.8011C197.566 63.9808 203.191 66.0746 205.962 65.8742C208.422 65.7015 211.491 64.7962 212.935 62.6125C213.287 62.1092 213.528 61.5375 213.645 60.9347C213.762 60.3318 213.75 59.7111 213.611 59.113C213.472 58.5148 213.21 57.9525 212.839 57.4626C212.469 56.9726 212 56.5659 211.463 56.2688C208.174 54.5758 202.286 57.6993 199.943 60.0281C199.764 60.2008 197.622 62.882 197.11 63.5869C197.38 61.0923 197.663 58.6045 198.043 56.1652C198.544 52.8679 199.257 49.6063 200.178 46.4009C200.399 46.4838 206.259 48.6951 209.093 48.474C211.553 48.3012 214.621 47.4029 216.065 45.2123C216.417 44.7009 216.656 44.1205 216.766 43.5097C216.876 42.8989 216.855 42.2717 216.704 41.6698C216.553 41.0678 216.275 40.5048 215.89 40.0183C215.505 39.5317 215.02 39.1328 214.469 38.8479C211.187 37.1548 205.292 40.2783 202.949 42.6071C202.77 42.7867 200.469 45.6753 200.089 46.2281C200.144 46.0415 200.178 45.8411 200.234 45.6545C201.25 42.4671 202.545 39.3754 204.103 36.4154C204.946 34.7707 205.838 33.2436 206.743 31.7786C207.794 32.3038 212.617 34.6464 215.188 34.75C217.655 34.8468 220.82 34.287 222.478 32.2692C222.884 31.8079 223.188 31.2663 223.371 30.6795C223.554 30.0928 223.611 29.4742 223.538 28.8639C223.466 28.2537 223.266 27.6655 222.951 27.1378C222.636 26.6101 222.214 26.1546 221.711 25.8011C218.629 23.728 212.43 26.2157 209.853 28.275C209.708 28.3856 208.409 29.6571 207.476 30.6384C207.89 29.9473 208.312 29.2978 208.726 28.6827C210.274 26.3539 211.836 24.3154 213.232 22.5187C214.034 21.5098 214.773 20.6045 215.485 19.7546C216.784 19.7546 222.015 19.5749 224.302 18.5038C226.59 17.4327 229.091 15.4909 229.672 12.9548C229.819 12.3585 229.839 11.7379 229.73 11.1333C229.622 10.5288 229.387 9.95391 229.041 9.4461C228.696 8.93828 228.247 8.50892 227.725 8.18596C227.203 7.863 226.618 7.65368 226.009 7.57163C222.298 7.19847 217.924 12.2154 216.583 15.2283C216.473 15.4909 215.125 19.7753 215.201 19.7753H215.284C214.593 20.5631 213.847 21.42 213.066 22.3736C211.622 24.1357 210.019 26.1466 208.415 28.4547C206.651 30.9151 205.036 33.4788 203.578 36.1321C201.922 39.0932 200.534 42.1969 199.432 45.4058C199.432 45.4058 199.432 45.4818 199.432 45.5232C199.432 44.4383 199.432 41.4116 199.37 41.1766C198.948 37.9011 196.205 31.8269 192.57 31.1497C191.96 31.0537 191.337 31.0877 190.741 31.2497C190.146 31.4117 189.591 31.6979 189.114 32.0895C188.637 32.4812 188.248 32.9693 187.973 33.522C187.698 34.0746 187.543 34.6792 187.519 35.2959C187.304 37.8942 189.191 40.4994 191.036 42.1441C193.109 43.9961 198.865 45.7928 199.328 45.931C198.297 49.223 197.485 52.5795 196.896 55.9786C196.544 57.955 196.253 59.959 195.984 61.9768C195.984 61.037 195.949 60.2008 195.935 60.0833C195.507 56.8078 192.764 50.7267 189.129 50.0564C188.519 49.9614 187.897 49.9963 187.302 50.1588C186.707 50.3213 186.154 50.6077 185.677 50.9992C185.201 51.3907 184.813 51.8785 184.538 52.4306C184.264 52.9827 184.109 53.5865 184.084 54.2026C183.87 56.8009 185.756 59.4061 187.595 61.0508C189.433 62.6955 194.339 64.347 195.631 64.7547C195.541 65.5287 195.438 66.3027 195.341 67.0766C194.899 70.7875 194.477 74.4914 193.959 78.1332C193.772 79.4116 193.544 80.6624 193.316 81.9131C193.316 81.077 193.282 80.379 193.268 80.2754C192.846 76.9999 190.103 70.9188 186.468 70.2485C185.859 70.1535 185.236 70.1884 184.641 70.3508C184.046 70.5133 183.491 70.7995 183.014 71.191C182.538 71.5824 182.149 72.0701 181.873 72.6222C181.598 73.1743 181.443 73.7783 181.417 74.3947C181.203 76.993 183.089 79.5982 184.934 81.2428C186.779 82.8875 191.202 84.3732 192.743 84.8708C192.473 86.1492 192.204 87.4276 191.886 88.6507C191.644 89.4799 191.478 90.2954 191.195 91.1177C190.912 91.94 190.67 92.7416 190.407 93.5432C189.854 95.0704 189.288 96.6529 188.707 98.1248C188.313 99.1544 187.919 100.129 187.526 101.11C187.726 99.8455 188.065 97.3508 188.065 97.1435C188.033 94.2298 187.25 91.3736 185.791 88.8511C185.798 88.5274 185.777 88.2038 185.729 87.8837C185.652 87.2742 185.448 86.6878 185.13 86.1623C184.812 85.6368 184.387 85.1841 183.883 84.8335C183.378 84.4829 182.806 84.2423 182.202 84.1273C181.599 84.0123 180.978 84.0255 180.38 84.1659C176.801 85.1195 174.534 91.3941 174.368 94.6904C174.368 94.8838 174.486 97.0053 174.589 98.3459C174.41 97.5651 174.244 96.8118 174.05 96.0102C173.67 94.4347 173.249 92.866 172.806 91.173C172.565 90.3645 172.316 89.5491 172.067 88.7267C171.818 87.9044 171.487 87.0682 171.203 86.2252C170.512 84.2972 169.683 82.3692 168.826 80.455C170.208 80.1233 175.108 78.8726 177.07 77.3661C179.033 75.8597 181.099 73.4065 181.085 70.7944C181.102 70.1804 180.989 69.5698 180.754 69.0023C180.519 68.4349 180.167 67.9233 179.721 67.5009C179.275 67.0785 178.745 66.7547 178.166 66.5506C177.586 66.3465 176.971 66.2668 176.358 66.3165C172.682 66.7173 169.49 72.5358 168.826 75.8044C168.785 76.0048 168.564 78.3819 168.467 79.688C167.942 78.5409 167.423 77.3868 166.857 76.2328C165.212 72.9228 163.45 69.6265 161.702 66.3303C161.163 65.3214 160.644 64.3056 160.119 63.2967C160.61 63.1792 166.463 61.8247 168.66 60.1317C170.616 58.6322 172.696 56.179 172.675 53.5669C172.692 52.9529 172.579 52.3423 172.344 51.7748C172.109 51.2074 171.757 50.6958 171.311 50.2734C170.865 49.851 170.335 49.5272 169.756 49.3231C169.176 49.1191 168.561 49.0393 167.948 49.089C164.272 49.4829 161.08 55.3083 160.416 58.5769C160.361 58.8187 160.057 62.2394 160.022 63.1101C158.861 60.878 157.728 58.646 156.698 56.4001C155.298 53.3755 154.093 50.2641 153.091 47.085C153.319 47.0297 159.435 45.6407 161.688 43.9131C163.643 42.4067 165.723 39.9535 165.703 37.3414C165.719 36.7274 165.606 36.1168 165.371 35.5494C165.136 34.9819 164.784 34.4703 164.338 34.0479C163.892 33.6255 163.363 33.3017 162.783 33.0976C162.204 32.8936 161.588 32.8138 160.976 32.8635C157.3 33.2643 154.107 39.0828 153.444 42.3514C153.388 42.6071 153.057 46.2834 153.05 46.9537C152.988 46.7671 152.912 46.5805 152.856 46.4009C151.942 43.1802 151.316 39.8849 150.984 36.5536C150.776 34.7224 150.686 32.9533 150.631 31.2327C151.799 31.0875 157.113 30.3827 159.311 29.049C161.508 27.7153 163.754 25.5593 164.023 22.961C164.107 22.3527 164.062 21.7336 163.891 21.1439C163.72 20.5541 163.427 20.007 163.03 19.5378C162.634 19.0687 162.144 18.6881 161.591 18.4207C161.038 18.1532 160.436 18.005 159.822 17.9855C156.118 17.9855 152.303 23.4516 151.288 26.5958C151.232 26.7617 150.859 28.5653 150.597 29.8782C150.597 29.0974 150.555 28.2958 150.562 27.5563C150.562 24.7922 150.742 22.1939 150.914 19.955C151.025 18.6696 151.149 17.5087 151.281 16.4238C152.352 15.6844 156.629 12.6646 157.942 10.5085C159.255 8.3525 160.278 5.36032 159.324 2.90715C159.119 2.32893 158.793 1.8005 158.37 1.35622C157.946 0.91194 157.434 0.561752 156.866 0.32842C156.299 0.0950873 155.688 -0.0161654 155.075 0.00189409C154.461 0.0199536 153.858 0.16692 153.305 0.433241C150.016 2.13319 149.159 8.72566 149.698 12.0012C149.747 12.2845 150.984 16.5965 151.039 16.562L151.108 16.5205C150.963 17.5571 150.818 18.6835 150.686 19.9066C150.458 22.1732 150.23 24.7438 150.161 27.5425C150.061 30.5686 150.133 33.5979 150.375 36.6158C150.635 39.9824 151.192 43.3194 152.041 46.5874C152.048 46.6277 152.06 46.6671 152.075 46.7049C151.495 45.7927 149.781 43.2912 149.629 43.1115C147.439 40.5824 141.827 37.0304 138.455 38.4747C137.896 38.7299 137.397 39.1001 136.99 39.5611C136.583 40.0222 136.278 40.5639 136.095 41.1507C135.912 41.7375 135.855 42.3564 135.927 42.9669C135.999 43.5774 136.199 44.1659 136.513 44.694C137.764 46.9813 140.749 48.1077 143.189 48.4671Z" fill="black"/>
<path d="M206.597 31.0926C206.659 31.0926 207.779 26.7736 207.82 26.4903C208.276 23.2217 207.233 16.6361 203.902 15.026C203.342 14.7737 202.735 14.6424 202.121 14.6406C201.506 14.6389 200.899 14.7668 200.337 15.0159C199.775 15.265 199.273 15.6298 198.862 16.0864C198.451 16.543 198.141 17.0812 197.952 17.6658C197.054 20.1189 198.187 23.1249 199.528 25.1981C201.103 27.6305 206.597 31.0857 206.597 31.0926Z" fill="black"/>
</g>
<path d="M164.879 29.9375H35.3309C30.8313 29.9375 27.1836 33.5852 27.1836 38.0848V211.306C27.1836 215.806 30.8313 219.454 35.3309 219.454H164.879C169.379 219.454 173.026 215.806 173.026 211.306V38.0848C173.026 33.5852 169.379 29.9375 164.879 29.9375Z" fill="#263238"/>
<path d="M166.053 41.1484H34.1621V210.466H166.053V41.1484Z" fill="white" stroke="#263238" stroke-linecap="round" stroke-linejoin="round"/>
<path d="M73.3242 66.5H126.893" stroke="#263238" stroke-linecap="round" stroke-linejoin="round"/>
<path d="M48.6961 102.951C53.5926 102.951 57.562 98.9813 57.562 94.0847C57.562 89.1882 53.5926 85.2188 48.6961 85.2188C43.7995 85.2188 39.8301 89.1882 39.8301 94.0847C39.8301 98.9813 43.7995 102.951 48.6961 102.951Z" stroke="#263238" stroke-linecap="round" stroke-linejoin="round"/>
<path d="M61.6172 94.8281H152.115" stroke="#263238" stroke-linecap="round" stroke-linejoin="round"/>
<path d="M44.998 91.8738L48.3219 97.0427L59.033 83.0078" stroke="#084C3F" stroke-width="4" stroke-linecap="round" stroke-linejoin="round"/>
<path d="M50.7294 124.518C55.495 123.393 58.4465 118.618 57.3217 113.853C56.1969 109.087 51.4218 106.135 46.6562 107.26C41.8906 108.385 38.9392 113.16 40.0639 117.926C41.1887 122.691 45.9638 125.643 50.7294 124.518Z" stroke="#263238" stroke-linecap="round" stroke-linejoin="round"/>
<path d="M61.6172 116.625H152.115" stroke="#263238" stroke-linecap="round" stroke-linejoin="round"/>
<path d="M44.998 113.663L48.3219 118.839L59.033 104.797" stroke="#084C3F" stroke-width="4" stroke-linecap="round" stroke-linejoin="round"/>
<path d="M50.7275 146.307C55.4931 145.182 58.4446 140.407 57.3198 135.642C56.195 130.876 51.4199 127.925 46.6543 129.049C41.8887 130.174 38.9372 134.949 40.062 139.715C41.1868 144.48 45.9619 147.432 50.7275 146.307Z" stroke="#263238" stroke-linecap="round" stroke-linejoin="round"/>
<path d="M61.6172 138.414H152.115" stroke="#263238" stroke-linecap="round" stroke-linejoin="round"/>
<path d="M44.998 135.46L48.3219 140.629L59.033 126.594" stroke="#084C3F" stroke-width="4" stroke-linecap="round" stroke-linejoin="round"/>
<path d="M54.9619 165.738C58.4242 162.276 58.4242 156.662 54.9619 153.2C51.4995 149.737 45.8859 149.737 42.4235 153.2C38.9611 156.662 38.9611 162.276 42.4235 165.738C45.8859 169.2 51.4995 169.2 54.9619 165.738Z" stroke="#263238" stroke-linecap="round" stroke-linejoin="round"/>
<path d="M61.6172 160.203H152.115" stroke="#263238" stroke-linecap="round" stroke-linejoin="round"/>
<path d="M44.998 157.257L48.3219 162.426L59.033 148.391" stroke="#084C3F" stroke-width="4" stroke-linecap="round" stroke-linejoin="round"/>
<path d="M48.6961 190.13C53.5926 190.13 57.562 186.161 57.562 181.264C57.562 176.368 53.5926 172.398 48.6961 172.398C43.7995 172.398 39.8301 176.368 39.8301 181.264C39.8301 186.161 43.7995 190.13 48.6961 190.13Z" stroke="#263238" stroke-linecap="round" stroke-linejoin="round"/>
<path d="M61.6172 182H152.115" stroke="#263238" stroke-linecap="round" stroke-linejoin="round"/>
<path d="M44.998 179.046L48.3219 184.222L59.033 170.18" stroke="#084C3F" stroke-width="4" stroke-linecap="round" stroke-linejoin="round"/>
<path d="M117.482 26.11C116.843 26.0991 116.219 25.9169 115.675 25.5824C115.131 25.2479 114.687 24.7734 114.389 24.2084C114.091 23.6435 113.95 23.0088 113.981 22.3708C114.012 21.7329 114.214 21.1149 114.566 20.5817C115.752 18.6822 116.406 16.4986 116.46 14.2595C116.513 12.0205 115.963 9.80828 114.868 7.85451C113.773 5.90073 112.173 4.2772 110.236 3.15387C108.298 2.03054 106.094 1.44871 103.855 1.46928C101.615 1.48984 99.422 2.11205 97.5054 3.27078C95.5887 4.4295 94.0188 6.08214 92.9599 8.0557C91.901 10.0293 91.3921 12.2512 91.4864 14.4889C91.5808 16.7266 92.2749 18.8978 93.4961 20.7752C93.8257 21.3115 94.0056 21.9263 94.0171 22.5556C94.0287 23.185 93.8715 23.806 93.5619 24.354C93.2522 24.9021 92.8014 25.3572 92.2564 25.6721C91.7113 25.9869 91.0919 26.1501 90.4625 26.1445H68.7363L74.6101 43.0127H133.348L139.222 26.1445L117.482 26.11ZM103.972 18.944C103.107 18.9453 102.26 18.6899 101.54 18.2101C100.82 17.7303 100.258 17.0476 99.926 16.2485C99.5938 15.4493 99.5062 14.5696 99.6742 13.7206C99.8422 12.8716 100.258 12.0915 100.87 11.4791C101.481 10.8667 102.261 10.4494 103.109 10.28C103.958 10.1107 104.838 10.1969 105.638 10.5278C106.437 10.8587 107.121 11.4193 107.602 12.1388C108.083 12.8583 108.34 13.7043 108.34 14.5697C108.34 15.7286 107.88 16.8402 107.061 17.6603C106.242 18.4805 105.131 18.9421 103.972 18.944Z" fill="white" stroke="#263238" stroke-linecap="round" stroke-linejoin="round"/>
<path d="M174.569 291.977H250.887V223.647H174.569V291.977Z" fill="#084C3F" stroke="#263238" stroke-linecap="round" stroke-linejoin="round"/>
<path d="M174.575 291.977H199.148V223.647H174.575V291.977Z" fill="#263238" stroke="#263238" stroke-linecap="round" stroke-linejoin="round"/>
<path d="M183.566 242.281H190.158V223.644H183.566V242.281Z" fill="white" stroke="#263238" stroke-linecap="round" stroke-linejoin="round"/>
<path d="M235.048 237.75H246.416V230.784H235.048V237.75Z" stroke="#263238" stroke-linecap="round" stroke-linejoin="round"/>
<path d="M120.702 291.977H197.02V223.647H120.702L120.702 291.977Z" fill="#084C3F" stroke="#263238" stroke-linecap="round" stroke-linejoin="round"/>
<path d="M120.71 291.977H145.283V223.647H120.71V291.977Z" fill="#263238" stroke="#263238" stroke-linecap="round" stroke-linejoin="round"/>
<path d="M129.699 242.281H136.291V223.644H129.699V242.281Z" fill="white" stroke="#263238" stroke-linecap="round" stroke-linejoin="round"/>
<path d="M180.593 237.75H191.961V230.784H180.593V237.75Z" stroke="#263238" stroke-linecap="round" stroke-linejoin="round"/>
<path d="M66.0142 291.977H142.332V223.647H66.0142L66.0142 291.977Z" fill="#084C3F" stroke="#263238" stroke-linecap="round" stroke-linejoin="round"/>
<path d="M66.0147 291.977H90.5879L90.5879 223.647H66.0147V291.977Z" fill="#263238" stroke="#263238" stroke-linecap="round" stroke-linejoin="round"/>
<path d="M75.0032 242.281H81.5957V223.644H75.0032V242.281Z" fill="white" stroke="#263238" stroke-linecap="round" stroke-linejoin="round"/>
<path d="M127.06 237.75H138.428V230.784H127.06V237.75Z" stroke="#263238" stroke-linecap="round" stroke-linejoin="round"/>
<path d="M148.426 223.57H224.744V155.241H148.426V223.57Z" fill="#084C3F" stroke="#263238" stroke-linecap="round" stroke-linejoin="round"/>
<path d="M148.433 223.57H173.006V155.241H148.433V223.57Z" fill="#263238" stroke="#263238" stroke-linecap="round" stroke-linejoin="round"/>
<path d="M157.423 173.875H164.016V155.238H157.423V173.875Z" fill="white" stroke="#263238" stroke-linecap="round" stroke-linejoin="round"/>
<path d="M214.151 195.227H221.85V155.99H214.151V195.227Z" stroke="#263238" stroke-linecap="round" stroke-linejoin="round"/>
<path d="M128.973 155.109H205.291V86.7799L128.973 86.7799V155.109Z" fill="#084C3F" stroke="#263238" stroke-linecap="round" stroke-linejoin="round"/>
<path d="M128.974 155.109H153.547V86.7799H128.974V155.109Z" fill="#263238" stroke="#263238" stroke-linecap="round" stroke-linejoin="round"/>
<path d="M137.958 105.422H144.551V86.7847H137.958V105.422Z" fill="white" stroke="#263238" stroke-linecap="round" stroke-linejoin="round"/>
<path d="M193.98 126.727H201.678V87.4896H193.98V126.727Z" stroke="#263238" stroke-linecap="round" stroke-linejoin="round"/>
<path d="M92.729 223.57H169.047V155.241H92.729L92.729 223.57Z" fill="#084C3F" stroke="#263238" stroke-linecap="round" stroke-linejoin="round"/>
<path d="M92.7354 223.57H117.309L117.309 155.241H92.7354V223.57Z" fill="#263238" stroke="#263238" stroke-linecap="round" stroke-linejoin="round"/>
<path d="M101.726 173.875H108.318V155.238H101.726V173.875Z" fill="white" stroke="#263238" stroke-linecap="round" stroke-linejoin="round"/>
<path d="M156.946 195.227H164.645V155.99H156.946V195.227Z" stroke="#263238" stroke-linecap="round" stroke-linejoin="round"/>
<path d="M243.451 138.378C243.478 138.284 243.524 138.196 243.587 138.121C243.65 138.046 243.728 137.986 243.816 137.943C243.904 137.901 244.001 137.878 244.098 137.875C244.196 137.873 244.294 137.891 244.384 137.929L248.793 139.891L244.073 135.434C243.922 135.318 243.823 135.146 243.798 134.957C243.774 134.768 243.825 134.577 243.942 134.425C244.058 134.274 244.23 134.175 244.419 134.151C244.608 134.126 244.799 134.178 244.95 134.294L250.092 137.507L247.113 133.852C247.015 133.718 246.967 133.553 246.98 133.387C246.993 133.221 247.066 133.066 247.184 132.949C247.302 132.832 247.459 132.762 247.625 132.751C247.791 132.741 247.955 132.79 248.088 132.891L254.017 137.901L253.457 135.718C253.409 135.51 253.44 135.293 253.545 135.107C253.649 134.922 253.819 134.783 254.021 134.717C254.224 134.651 254.443 134.663 254.637 134.751C254.83 134.839 254.984 134.997 255.067 135.192C255.447 136.146 256.173 137.957 256.449 138.53C256.932 139.584 257.234 140.713 257.341 141.868C257.292 142.559 257.285 144.121 257.285 144.121L268.37 152.841L269.227 151.826L272.226 154.666L272.136 155.785L274.865 157.858C274.865 157.858 293.157 148.564 295.541 148.405C297.925 148.246 301.228 152.427 299.798 156.614C298.367 160.802 274.167 167.402 273.373 167.457C272.578 167.512 255.123 147.12 255.123 147.12C253.665 146.577 252.241 145.947 250.859 145.233C249.774 144.584 245.365 142.828 243.948 142.276C243.832 142.226 243.738 142.135 243.685 142.02C243.633 141.905 243.626 141.774 243.665 141.654C243.705 141.536 243.787 141.437 243.896 141.377C244.005 141.317 244.132 141.3 244.253 141.329L247.915 142.193L243.672 139.083C243.572 138.998 243.499 138.887 243.459 138.763C243.42 138.638 243.417 138.504 243.451 138.378Z" fill="#263238" stroke="#263238" stroke-linecap="round" stroke-linejoin="round"/>
<path d="M201.727 239.246L207.808 234.381L215.25 228.431L236.907 211.1L237.073 211.21L237.094 211.224L237.108 211.238L258.488 226.04L266.117 231.32L272.482 235.728L246.685 125.094L245.2 125.135L243.306 125.184L217.752 125.875L201.727 239.246Z" fill="#263238" stroke="#263238" stroke-linecap="round" stroke-linejoin="round"/>
<path d="M236.961 211.122L236.975 211.102L237.1 211.241L236.961 211.122Z" fill="white" stroke="#263238" stroke-linecap="round" stroke-linejoin="round"/>
<path d="M207.807 234.376L215.249 228.426L224.606 125.87L237.107 125.352L220.764 125.87L207.807 234.376Z" fill="white" stroke="#263238" stroke-linecap="round" stroke-linejoin="round"/>
<path d="M243.299 125.156L243.306 125.184L258.488 226.04L266.117 231.32L245.199 125.135L245.192 125.094L243.299 125.156Z" fill="white" stroke="#263238" stroke-linecap="round" stroke-linejoin="round"/>
<path d="M188.631 113.788C188.631 112.267 186.081 110.636 186.233 109.158C186.385 107.679 189.225 106.573 189.536 105.122C189.847 103.671 187.691 101.515 188.154 100.091C188.617 98.6677 191.609 98.2047 192.224 96.8364C192.839 95.4682 191.174 92.9321 191.927 91.6329C192.68 90.3338 195.707 90.5065 196.585 89.2972C197.462 88.0879 196.371 85.2616 197.373 84.149C198.375 83.0365 201.305 83.8312 202.417 82.8292C203.53 81.8272 203.039 78.835 204.255 77.9504C205.471 77.0659 208.16 78.4549 209.459 77.7017C210.758 76.9484 210.896 73.9286 212.271 73.3136C213.646 72.6986 215.975 74.6197 217.413 74.1567C218.85 73.6937 219.603 70.7637 221.082 70.4527C222.561 70.1418 224.427 72.5258 225.919 72.3531C227.412 72.1803 228.759 69.4922 230.273 69.4922C231.786 69.4922 233.154 72.201 234.633 72.3531C236.112 72.5051 238.033 70.1418 239.47 70.4527C240.908 70.7637 241.723 73.6937 243.14 74.1567C244.556 74.6197 246.92 72.7055 248.281 73.3136C249.642 73.9217 249.829 76.9899 251.094 77.6809C252.358 78.372 255.088 77.0452 256.297 77.9297C257.506 78.8142 257.023 81.8064 258.135 82.8084C259.248 83.8104 262.171 83.0157 263.18 84.1283C264.189 85.2409 263.083 88.0672 263.968 89.2765C264.852 90.4858 267.872 90.3131 268.625 91.6122C269.378 92.9114 267.713 95.4405 268.328 96.8157C268.943 98.1909 271.935 98.64 272.398 100.077C272.861 101.515 270.705 103.622 271.016 105.101C271.327 106.58 274.16 107.63 274.312 109.137C274.464 110.643 271.921 112.246 271.921 113.767C271.921 115.287 274.471 116.918 274.312 118.397C274.153 119.876 271.327 120.974 271.016 122.432C270.705 123.89 272.861 126.04 272.398 127.456C271.935 128.873 268.943 129.35 268.328 130.711C267.713 132.072 269.378 134.622 268.625 135.914C267.872 137.207 264.845 137.041 263.968 138.25C263.09 139.459 264.182 142.293 263.18 143.405C262.178 144.518 259.248 143.716 258.135 144.725C257.023 145.734 257.513 148.719 256.297 149.604C255.081 150.488 252.393 149.092 251.094 149.846C249.794 150.599 249.656 153.626 248.281 154.241C246.906 154.856 244.57 152.928 243.14 153.398C241.709 153.868 240.949 156.784 239.47 157.095C237.992 157.406 236.126 155.022 234.633 155.194C233.141 155.367 231.793 158.055 230.273 158.055C228.752 158.055 227.398 155.353 225.919 155.194C224.44 155.035 222.519 157.406 221.082 157.095C219.645 156.784 218.829 153.854 217.413 153.391C215.996 152.928 213.633 154.842 212.271 154.234C210.91 153.626 210.751 150.599 209.459 149.846C208.167 149.092 205.465 150.481 204.255 149.597C203.046 148.712 203.53 145.727 202.417 144.76C201.305 143.792 198.375 144.552 197.373 143.44C196.371 142.327 197.469 139.501 196.585 138.285C195.7 137.068 192.68 137.248 191.927 135.949C191.174 134.65 192.839 132.121 192.224 130.745C191.609 129.37 188.617 128.921 188.154 127.491C187.691 126.06 189.847 123.946 189.536 122.467C189.225 120.988 186.392 119.938 186.24 118.431C186.088 116.925 188.631 115.301 188.631 113.788Z" fill="white" stroke="#263238" stroke-linecap="round" stroke-linejoin="round"/>
<path d="M230.287 149.206C249.846 149.206 265.702 133.35 265.702 113.791C265.702 94.2311 249.846 78.375 230.287 78.375C210.727 78.375 194.871 94.2311 194.871 113.791C194.871 133.35 210.727 149.206 230.287 149.206Z" fill="#084C3F" stroke="#263238" stroke-linecap="round" stroke-linejoin="round"/>
<path d="M260.811 121.144C264.873 104.288 254.502 87.3309 237.647 83.2687C220.791 79.2064 203.834 89.5776 199.771 106.433C195.709 123.289 206.08 140.246 222.936 144.308C239.792 148.371 256.749 138 260.811 121.144Z" fill="#263238"/>
<path d="M306.604 230.398C306.604 230.398 306.002 235.491 306.749 237.585C307.495 239.679 312.277 254.066 313.044 266.795C313.811 279.524 314.537 291.216 314.088 291.818C313.638 292.419 310.943 292.115 310.943 292.115H301.96C301.758 291.962 301.617 291.743 301.562 291.497C301.506 291.25 301.539 290.992 301.656 290.767C302.105 290.021 306.452 286.725 307.053 285.674C307.64 284.745 308.093 283.738 308.4 282.682C308.4 282.233 307.35 271.287 303.757 264.1C300.163 256.913 295.519 239.223 295.07 232.789L306.604 230.398Z" fill="white" stroke="#263238" stroke-linecap="round" stroke-linejoin="round"/>
<path d="M301.656 290.774C302.635 289.746 303.686 288.787 304.8 287.906V289.427H314.219C314.295 290.228 314.251 291.036 314.087 291.824C313.638 292.426 310.943 292.122 310.943 292.122H301.96C301.758 291.969 301.617 291.75 301.561 291.503C301.506 291.257 301.539 290.998 301.656 290.774Z" fill="#084C3F" stroke="#263238" stroke-linecap="round" stroke-linejoin="round"/>
<path d="M297.013 231.157C297.013 231.157 294.94 246.138 296.419 250.63C297.898 255.122 297.317 263.214 295.217 271.748C293.116 280.282 291.478 285.679 291.478 286.128C291.478 286.578 291.478 290.62 291.029 291.366C290.58 292.113 277.395 291.968 276.517 291.968C275.64 291.968 274.721 291.069 275.474 290.171C276.227 289.273 280.27 288.291 282.958 287.027C285.508 285.824 285.653 285.527 285.653 285.527C285.653 285.527 287.152 268.002 286.551 260.215C285.95 252.427 282.647 236.249 283.248 230.859L297.013 231.157Z" fill="white" stroke="#263238" stroke-linecap="round" stroke-linejoin="round"/>
<path d="M276.495 291.963C275.597 291.963 274.698 291.064 275.452 290.166C276.053 289.44 278.796 288.666 281.242 287.727L281.74 288.818L291.414 288.093C291.366 289.392 291.256 290.933 291 291.361C290.578 292.115 277.393 291.963 276.495 291.963Z" fill="#084C3F" stroke="#263238" stroke-linecap="round" stroke-linejoin="round"/>
<path d="M305.38 180.352C305.38 180.352 310.494 191.47 310.943 198.208C311.392 204.945 308.545 212.284 308.545 212.284L310.342 231.633C310.342 231.633 304.351 235.379 294.317 235.227C284.283 235.075 279.342 233.43 279.342 233.43C279.342 233.43 278.147 209.935 281.291 198.533C284.435 187.131 283.316 180.946 283.316 180.946C283.316 180.946 297.268 181.519 305.38 180.352Z" fill="#263238" stroke="#263238" stroke-linecap="round" stroke-linejoin="round"/>
<path d="M286.336 137.348C286.336 137.348 287.801 142.185 288.361 144.887C288.92 147.589 287.462 152.765 285.548 156.365C283.634 159.966 281.492 163.801 282.507 167.062C283.523 170.324 283.972 171.568 283.972 171.568C283.972 171.568 283.185 179.556 283.281 180.911C283.378 182.265 289.134 183.613 294.877 183.046C300.619 182.479 304.897 181.36 305.346 180.344C305.795 179.328 305.346 173.703 306.134 170.78C306.922 167.857 307.15 154.195 305.346 151.3C303.543 148.405 299.383 143.761 299.383 143.761L296.01 134.867L286.336 137.348Z" fill="#084C3F" stroke="#263238" stroke-linecap="round" stroke-linejoin="round"/>
<path d="M301.111 145.71C299.011 145.244 296.823 145.388 294.802 146.124C292.597 146.967 289.764 149.151 287.753 150.858C288.389 148.57 288.693 146.359 288.382 144.887C287.822 142.185 286.357 137.348 286.357 137.348L296.032 134.867L299.411 143.761C299.411 143.761 300.157 144.562 301.111 145.71Z" fill="white" stroke="#263238" stroke-linecap="round" stroke-linejoin="round"/>
<path d="M281.892 118.93C281.892 118.93 280.51 122.537 280.061 124.078C279.612 125.619 278.873 127.132 277.953 127.277C277.034 127.422 276.184 128.127 276.751 129.309C277.325 130.272 278.045 131.139 278.886 131.88C278.886 131.88 279.709 137.726 280.317 138.458C280.925 139.191 283.772 139.149 285.493 138.707C287.213 138.265 290.558 137.705 290.558 137.705C290.558 137.705 291.643 125.957 290.966 123.497C290.288 121.037 287.338 117.513 286.467 117.091C285.596 116.67 281.892 118.93 281.892 118.93Z" fill="white" stroke="#263238" stroke-linecap="round" stroke-linejoin="round"/>
<path d="M281.223 126.22C281.161 126.835 281.341 127.36 281.624 127.388C281.907 127.415 282.17 126.932 282.232 126.31C282.294 125.688 282.108 125.169 281.824 125.142C281.541 125.114 281.279 125.598 281.223 126.22Z" fill="#263238"/>
<path d="M284.076 124.671C284.076 124.671 282.445 122.715 281.25 123.393" stroke="#263238" stroke-linecap="round" stroke-linejoin="round"/>
<path d="M283.178 131.938C282.325 132.546 281.31 132.888 280.262 132.919" stroke="#263238" stroke-linecap="round" stroke-linejoin="round"/>
<path d="M285.888 118.505C285.888 118.505 288.949 124.552 289.219 125.257C289.488 125.962 289.702 138.386 288.99 141.289C288.663 142.877 287.814 144.309 286.579 145.359C290.517 146.203 294.542 146.574 298.568 146.465C305.368 146.306 308.457 144.668 308.457 144.668C307.743 139.188 307.309 133.676 307.158 128.152C306.999 119.998 303.364 114.124 298.824 113.032C294.284 111.941 288.776 112.894 288.776 112.894C288.776 112.894 285.604 109.322 281.624 112.01C277.644 114.698 279.102 118.561 280.933 119.742C282.303 120.574 283.752 121.268 285.259 121.815L285.888 118.505Z" fill="#263238" stroke="#263238" stroke-linecap="round" stroke-linejoin="round"/>
<path d="M274.513 159.87C274.513 159.87 292.1 149.056 294.464 148.717C296.827 148.378 300.427 152.317 299.301 156.595C298.174 160.872 274.513 169.441 273.733 169.552C272.952 169.662 253.769 150.991 253.769 150.991C252.273 150.556 250.805 150.03 249.374 149.415C248.247 148.848 243.721 147.418 242.277 146.969C242.157 146.93 242.056 146.847 241.995 146.737C241.935 146.626 241.919 146.496 241.952 146.374C241.98 146.253 242.054 146.146 242.158 146.077C242.262 146.008 242.388 145.98 242.512 146.001L246.223 146.603L241.772 143.804C241.66 143.731 241.571 143.626 241.517 143.504C241.464 143.381 241.446 143.245 241.468 143.113C241.488 143.017 241.527 142.927 241.584 142.848C241.641 142.769 241.714 142.703 241.798 142.654C241.882 142.605 241.976 142.575 242.072 142.564C242.169 142.554 242.267 142.564 242.36 142.595L246.9 144.239L241.869 140.134C241.729 140.028 241.634 139.873 241.605 139.699C241.575 139.526 241.613 139.348 241.71 139.202C241.754 139.12 241.814 139.049 241.886 138.991C241.958 138.933 242.041 138.89 242.13 138.865C242.219 138.84 242.312 138.833 242.404 138.845C242.495 138.856 242.584 138.886 242.664 138.932L248.026 141.765L244.785 138.31C244.715 138.235 244.662 138.145 244.63 138.047C244.599 137.949 244.59 137.845 244.604 137.743C244.618 137.641 244.654 137.544 244.711 137.458C244.767 137.372 244.842 137.299 244.93 137.246C245.046 137.177 245.18 137.143 245.316 137.149C245.451 137.155 245.581 137.201 245.69 137.28L251.965 141.855L251.274 139.713C251.236 139.6 251.223 139.48 251.234 139.362C251.246 139.244 251.282 139.129 251.341 139.025C251.399 138.922 251.479 138.832 251.575 138.761C251.67 138.69 251.78 138.64 251.896 138.614C252.081 138.573 252.274 138.596 252.445 138.679C252.615 138.762 252.753 138.9 252.836 139.07C253.285 139.996 254.142 141.738 254.46 142.304C255.019 143.319 255.4 144.422 255.586 145.566C255.586 146.257 255.704 147.819 255.704 147.819L274.513 159.87Z" fill="white" stroke="#263238" stroke-linecap="round" stroke-linejoin="round"/>
<path d="M264.541 161.297L264.762 160.93L268.293 156.052L274.513 159.846C274.513 159.846 292.099 149.031 294.463 148.692C296.826 148.354 300.426 152.293 299.3 156.57C298.174 160.848 274.513 169.416 273.732 169.527C273.345 169.589 270.498 166.763 264.541 161.297Z" fill="#084C3F" stroke="#263238" stroke-linecap="round" stroke-linejoin="round"/>
<path d="M270.456 157.367L265.508 163.358L262.668 161.105L267.609 154.969L270.456 157.367Z" fill="#084C3F" stroke="#263238" stroke-linecap="round" stroke-linejoin="round"/>
<path d="M205.16 115.374V104.456H208.615C209.174 104.432 209.728 104.561 210.219 104.829C210.635 105.077 210.96 105.452 211.145 105.9C211.36 106.441 211.463 107.019 211.449 107.6C211.483 108.236 211.345 108.869 211.048 109.431C210.805 109.858 210.421 110.188 209.963 110.364C209.461 110.558 208.925 110.652 208.387 110.641H207.378V115.374H205.16ZM207.385 109.079H208.166C208.424 109.095 208.681 109.043 208.912 108.927C209.002 108.873 209.08 108.802 209.142 108.718C209.204 108.634 209.248 108.538 209.272 108.436C209.342 108.154 209.374 107.864 209.369 107.573C209.373 107.292 209.347 107.012 209.293 106.736C209.254 106.525 209.135 106.337 208.961 106.211C208.718 106.065 208.435 105.998 208.152 106.018H207.385V109.079Z" fill="white"/>
<path d="M212.52 115.373V104.455H215.346C215.986 104.441 216.624 104.525 217.239 104.703C217.735 104.848 218.165 105.161 218.456 105.588C218.766 106.119 218.912 106.729 218.877 107.343C218.883 107.742 218.846 108.141 218.766 108.532C218.698 108.859 218.559 109.168 218.359 109.437C218.146 109.71 217.864 109.922 217.543 110.052L219.057 115.373H216.776L215.526 110.425H214.745V115.373H212.52ZM214.745 109.105H215.387C215.681 109.12 215.973 109.061 216.237 108.932C216.444 108.814 216.601 108.625 216.68 108.4C216.769 108.114 216.811 107.815 216.804 107.516C216.83 107.112 216.734 106.71 216.528 106.362C216.401 106.217 216.241 106.105 216.062 106.037C215.882 105.968 215.689 105.944 215.498 105.968H214.745V109.105Z" fill="white"/>
<path d="M223.341 115.519C222.68 115.554 222.023 115.406 221.441 115.09C220.976 114.807 220.623 114.372 220.439 113.86C220.221 113.244 220.118 112.593 220.135 111.939V107.869C220.117 107.217 220.22 106.568 220.439 105.955C220.621 105.445 220.976 105.015 221.441 104.738C222.04 104.463 222.692 104.32 223.352 104.32C224.011 104.32 224.663 104.463 225.262 104.738C225.728 105.017 226.084 105.446 226.271 105.955C226.487 106.567 226.59 107.213 226.575 107.862V111.932C226.588 112.585 226.485 113.236 226.271 113.853C226.085 114.366 225.729 114.8 225.262 115.083C224.674 115.402 224.009 115.552 223.341 115.519ZM223.341 113.915C223.57 113.936 223.798 113.867 223.977 113.722C224.116 113.577 224.21 113.394 224.246 113.197C224.288 112.969 224.309 112.737 224.309 112.506V107.344C224.309 107.112 224.289 106.881 224.246 106.653C224.208 106.458 224.115 106.278 223.977 106.134C223.798 105.99 223.57 105.92 223.341 105.941C223.121 105.923 222.903 105.993 222.733 106.134C222.595 106.278 222.502 106.458 222.464 106.653C222.419 106.88 222.396 107.112 222.394 107.344V112.506C222.394 112.737 222.415 112.969 222.457 113.197C222.488 113.395 222.58 113.578 222.719 113.722C222.894 113.864 223.117 113.934 223.341 113.915Z" fill="white"/>
<path d="M228.061 115.376V104.458H230.728C231.466 104.427 232.202 104.549 232.891 104.817C233.387 105.036 233.78 105.437 233.99 105.937C234.223 106.559 234.331 107.221 234.307 107.885V111.859C234.33 112.539 234.222 113.217 233.99 113.856C233.784 114.361 233.397 114.77 232.905 115.003C232.234 115.282 231.509 115.41 230.783 115.376H228.061ZM230.279 113.828H230.756C231.062 113.853 231.368 113.783 231.633 113.628C231.725 113.561 231.802 113.475 231.859 113.376C231.916 113.277 231.952 113.168 231.965 113.054C232.017 112.739 232.04 112.42 232.034 112.101V107.602C232.043 107.295 232.013 106.989 231.944 106.69C231.923 106.587 231.881 106.49 231.822 106.403C231.763 106.317 231.687 106.243 231.599 106.185C231.333 106.056 231.037 105.999 230.742 106.02H230.279V113.828Z" fill="white"/>
<path d="M238.854 115.524C238.185 115.563 237.518 115.417 236.927 115.103C236.469 114.823 236.126 114.39 235.959 113.88C235.764 113.249 235.671 112.591 235.683 111.931V104.461H237.88V112.235C237.88 112.501 237.901 112.767 237.942 113.03C237.972 113.26 238.065 113.478 238.212 113.659C238.391 113.815 238.62 113.901 238.858 113.901C239.096 113.901 239.325 113.815 239.504 113.659C239.651 113.479 239.742 113.261 239.767 113.03C239.802 112.766 239.821 112.501 239.822 112.235V104.461H242.019V111.931C242.035 112.591 241.942 113.25 241.743 113.88C241.577 114.388 241.236 114.821 240.782 115.103C240.19 115.415 239.523 115.561 238.854 115.524Z" fill="white"/>
<path d="M246.602 115.52C245.931 115.555 245.264 115.397 244.681 115.064C244.214 114.767 243.865 114.318 243.693 113.792C243.495 113.181 243.399 112.541 243.409 111.899V107.974C243.397 107.313 243.492 106.655 243.693 106.025C243.866 105.504 244.215 105.059 244.681 104.768C245.267 104.443 245.933 104.29 246.602 104.325C247.238 104.294 247.871 104.427 248.44 104.712C248.875 104.959 249.209 105.35 249.387 105.818C249.578 106.35 249.672 106.911 249.663 107.476V108.395H247.507V107.393C247.507 107.163 247.493 106.932 247.466 106.702C247.447 106.505 247.37 106.317 247.245 106.163C247.16 106.086 247.061 106.028 246.952 105.992C246.844 105.957 246.729 105.944 246.616 105.956C246.499 105.945 246.38 105.959 246.269 105.996C246.157 106.032 246.054 106.092 245.966 106.17C245.83 106.329 245.741 106.523 245.71 106.73C245.676 106.982 245.659 107.236 245.662 107.49V112.452C245.658 112.721 245.681 112.989 245.731 113.253C245.767 113.454 245.866 113.639 246.015 113.779C246.186 113.911 246.4 113.975 246.616 113.958C246.727 113.969 246.84 113.957 246.946 113.921C247.052 113.885 247.149 113.827 247.231 113.751C247.358 113.59 247.437 113.396 247.459 113.191C247.49 112.946 247.506 112.699 247.507 112.452V111.388H249.663V112.231C249.673 112.804 249.582 113.375 249.394 113.917C249.222 114.398 248.893 114.807 248.461 115.078C247.896 115.399 247.251 115.553 246.602 115.52Z" fill="white"/>
<path d="M252.047 115.379V106.119H250.361V104.461H255.931V106.119H254.273V115.379H252.047Z" fill="white"/>
<path d="M214.137 133.7C213.891 133.573 213.66 133.42 213.446 133.244C213.164 133.034 212.898 132.803 212.651 132.553C212.394 132.295 212.162 132.013 211.96 131.71H211.843H211.704C211.043 131.744 210.385 131.593 209.804 131.275C209.338 130.992 208.984 130.558 208.802 130.044C208.583 129.428 208.48 128.777 208.498 128.123V124.053C208.48 123.402 208.583 122.753 208.802 122.139C208.983 121.63 209.338 121.202 209.804 120.93C210.389 120.624 211.046 120.483 211.704 120.522C212.372 120.49 213.035 120.638 213.626 120.95C214.092 121.224 214.449 121.652 214.634 122.16C214.851 122.772 214.954 123.418 214.939 124.067V128.123C214.941 128.588 214.892 129.052 214.793 129.505C214.713 129.894 214.556 130.263 214.33 130.59C214.103 130.888 213.807 131.125 213.467 131.281L213.833 131.661C213.953 131.784 214.08 131.899 214.213 132.007C214.324 132.108 214.444 132.199 214.572 132.277L214.137 133.7ZM211.704 130.093C211.934 130.11 212.162 130.038 212.34 129.892C212.481 129.748 212.575 129.565 212.61 129.367C212.652 129.139 212.672 128.908 212.672 128.676V123.514C212.673 123.282 212.652 123.051 212.61 122.823C212.573 122.626 212.479 122.443 212.34 122.298C212.159 122.158 211.933 122.089 211.704 122.104C211.48 122.09 211.259 122.159 211.083 122.298C210.943 122.442 210.851 122.625 210.82 122.823C210.778 123.051 210.757 123.282 210.758 123.514V128.676C210.757 128.908 210.778 129.139 210.82 129.367C210.85 129.566 210.942 129.75 211.083 129.892C211.256 130.037 211.479 130.109 211.704 130.093Z" fill="white"/>
<path d="M219.513 131.696C218.843 131.733 218.176 131.585 217.585 131.268C217.129 130.988 216.788 130.554 216.624 130.045C216.424 129.415 216.331 128.756 216.348 128.096V120.633H218.545V128.407C218.546 128.673 218.565 128.938 218.6 129.202C218.63 129.434 218.723 129.654 218.87 129.837C218.953 129.922 219.054 129.987 219.165 130.029C219.276 130.071 219.394 130.088 219.513 130.079C219.633 130.089 219.754 130.073 219.868 130.031C219.981 129.989 220.084 129.923 220.169 129.837C220.314 129.654 220.405 129.434 220.432 129.202C220.465 128.938 220.481 128.673 220.48 128.407V120.633H222.678V128.124C222.694 128.784 222.601 129.443 222.401 130.072C222.237 130.582 221.897 131.016 221.441 131.295C220.847 131.603 220.18 131.742 219.513 131.696Z" fill="white"/>
<path d="M223.611 131.583L225.726 120.672H228.193L230.266 131.583H228.193L227.799 129.185H226.078L225.657 131.583H223.611ZM226.32 127.824H227.599L226.908 123.415L226.32 127.824Z" fill="white"/>
<path d="M231.322 131.579V120.633H233.54V130.038H236.104V131.579H231.322Z" fill="white"/>
<path d="M237.1 131.579V120.633H239.345V131.579H237.1Z" fill="white"/>
<path d="M242.006 131.579V122.291H240.32V120.633H245.904V122.291H244.245V131.579H242.006Z" fill="white"/>
<path d="M248.33 131.583V127.257L246.201 120.672H248.274L249.449 124.507L250.541 120.672H252.559L250.486 127.257V131.583H248.33Z" fill="white"/>
<path d="M214.24 93.9609L214.986 96.2483H217.384L215.442 97.658L216.182 99.9384L214.24 98.5287L212.298 99.9384L213.038 97.658L211.096 96.2483H213.501L214.24 93.9609Z" fill="white"/>
<path d="M222.65 93.9609L223.389 96.2483H225.794L223.846 97.658L224.592 99.9384L222.65 98.5287L220.708 99.9384L221.448 97.658L219.506 96.2483H221.904L222.65 93.9609Z" fill="white"/>
<path d="M231.052 93.9609L231.799 96.2483H234.197L232.255 97.658L232.994 99.9384L231.052 98.5287L229.111 99.9384L229.857 97.658L227.908 96.2483H230.313L231.052 93.9609Z" fill="white"/>
<path d="M239.463 93.9609L240.202 96.2483H242.607L240.665 97.658L241.404 99.9384L239.463 98.5287L237.521 99.9384L238.26 97.658L236.318 96.2483H238.723L239.463 93.9609Z" fill="white"/>
<path d="M247.873 93.9609L248.612 96.2483H251.01L249.068 97.658L249.815 99.9384L247.873 98.5287L245.924 99.9384L246.67 97.658L244.729 96.2483H247.126L247.873 93.9609Z" fill="white"/>
</svg>
