<svg width="538" height="513" viewBox="0 0 538 513" fill="none" xmlns="http://www.w3.org/2000/svg">
<path d="M495.477 52.6797H435.602V123.626H495.477V52.6797Z" fill="#EBEBEB"/>
<path d="M467.694 57.4982C467.694 57.9243 467.567 58.3408 467.33 58.6951C467.094 59.0494 466.757 59.3255 466.364 59.4886C465.97 59.6517 465.537 59.6943 465.119 59.6112C464.701 59.5281 464.317 59.3229 464.016 59.0216C463.714 58.7203 463.509 58.3364 463.426 57.9185C463.343 57.5006 463.386 57.0674 463.549 56.6737C463.712 56.2801 463.988 55.9436 464.342 55.7069C464.697 55.4701 465.113 55.3438 465.539 55.3438C465.823 55.3421 466.103 55.3967 466.366 55.5044C466.628 55.6121 466.866 55.7707 467.066 55.9711C467.267 56.1715 467.425 56.4097 467.533 56.6718C467.641 56.9339 467.695 57.2148 467.694 57.4982Z" fill="#C7C7C7"/>
<path d="M446.996 66.8863C453.048 66.4131 459.113 66.3882 465.165 66.3259C471.218 66.2636 477.27 66.4131 483.322 66.8863C477.27 67.3471 471.218 67.3844 465.165 67.4467C459.113 67.509 453.048 67.3471 446.996 66.8863Z" fill="#DBDBDB"/>
<path d="M446.996 72.4933C450.273 72.1022 453.571 71.9151 456.871 71.9329C460.172 71.9023 463.471 72.0895 466.747 72.4933C463.47 72.891 460.172 73.0782 456.871 73.0537C453.571 73.0716 450.273 72.8844 446.996 72.4933Z" fill="#DBDBDB"/>
<path d="M446.996 78.0943C451.205 77.6584 455.414 77.5588 459.611 77.5339C463.808 77.509 468.03 77.6584 472.226 78.0943C468.034 78.4986 463.823 78.6857 459.611 78.6547C455.399 78.679 451.189 78.492 446.996 78.0943Z" fill="#DBDBDB"/>
<path d="M446.996 83.7036C452.264 83.2678 457.519 83.1682 462.787 83.1433C468.054 83.1183 473.31 83.2678 478.565 83.7036C473.31 84.152 468.042 84.2516 462.787 84.2765C457.531 84.3014 452.264 84.2142 446.996 83.7036Z" fill="#DBDBDB"/>
<path d="M446.996 89.3177C451.566 88.8693 456.137 88.7697 460.695 88.7448C465.252 88.7199 469.848 88.8693 474.393 89.3177C469.823 89.7535 465.24 89.8532 460.695 89.8781C456.149 89.903 451.566 89.7535 446.996 89.3177Z" fill="#DBDBDB"/>
<path d="M446.996 94.9175C452.849 94.4568 458.702 94.4194 464.555 94.3571C470.408 94.2949 476.249 94.4443 482.102 94.9175C476.249 95.3908 470.408 95.4157 464.555 95.4779C458.702 95.5402 452.849 95.4157 446.996 94.9175Z" fill="#DBDBDB"/>
<path d="M446.996 100.521C454.537 99.7741 462.133 99.7741 469.673 100.521C465.91 100.925 462.126 101.112 458.341 101.082C454.552 101.106 450.764 100.919 446.996 100.521Z" fill="#DBDBDB"/>
<path d="M446.996 106.132C453.048 105.671 459.113 105.646 465.165 105.571C471.218 105.497 477.27 105.671 483.322 106.132C477.27 106.605 471.218 106.63 465.165 106.705C459.113 106.779 453.048 106.63 446.996 106.132Z" fill="#DBDBDB"/>
<path d="M446.996 111.746C453.048 111.273 459.113 111.248 465.165 111.173C471.218 111.098 477.27 111.273 483.322 111.746C477.27 112.207 471.218 112.244 465.165 112.306C459.113 112.368 453.048 112.207 446.996 111.746Z" fill="#DBDBDB"/>
<path d="M95.6158 131.711H24.7695V215.658H95.6158V131.711Z" fill="#EBEBEB"/>
<path d="M60.1993 145.192C61.3892 145.192 62.3537 144.227 62.3537 143.037C62.3537 141.847 61.3892 140.883 60.1993 140.883C59.0095 140.883 58.0449 141.847 58.0449 143.037C58.0449 144.227 59.0095 145.192 60.1993 145.192Z" fill="#C7C7C7"/>
<path d="M34.6953 152.701C39.9032 151.954 45.191 151.954 50.3988 152.701C47.7995 153.105 45.1712 153.292 42.5408 153.261C39.9149 153.286 37.2912 153.098 34.6953 152.701Z" fill="#DBDBDB"/>
<path d="M34.6953 158.929C38.0682 158.537 41.4617 158.35 44.8571 158.368C48.2567 158.35 51.6544 158.537 55.0314 158.929C51.6552 159.331 48.2572 159.522 44.8571 159.502C41.4612 159.522 38.0674 159.331 34.6953 158.929Z" fill="#DBDBDB"/>
<path d="M34.6953 165.322C37.8174 164.924 40.9627 164.737 44.1099 164.761C47.2615 164.73 50.4114 164.917 53.537 165.322C47.2787 166.069 40.9537 166.069 34.6953 165.322Z" fill="#DBDBDB"/>
<path d="M34.6953 171.649C37.818 171.257 40.9629 171.07 44.1099 171.088C47.2613 171.063 50.4108 171.251 53.537 171.649C50.4114 172.053 47.2615 172.24 44.1099 172.209C40.9629 172.227 37.818 172.04 34.6953 171.649Z" fill="#DBDBDB"/>
<path d="M34.6953 177.974C40.1242 177.227 45.6299 177.227 51.0588 177.974C45.6311 178.738 40.1231 178.738 34.6953 177.974Z" fill="#DBDBDB"/>
<path d="M34.6953 184.309C38.1716 183.907 41.6691 183.716 45.1685 183.736C48.672 183.716 52.1736 183.907 55.6541 184.309C52.1728 184.7 48.6716 184.887 45.1685 184.869C41.6694 184.887 38.1724 184.7 34.6953 184.309Z" fill="#DBDBDB"/>
<path d="M34.6953 190.639C37.5589 190.244 40.4471 190.052 43.3378 190.066C46.2536 190.033 49.1677 190.22 52.0551 190.627C49.167 191.027 46.2534 191.214 43.3378 191.187C40.4477 191.209 37.5595 191.026 34.6953 190.639Z" fill="#DBDBDB"/>
<path d="M34.6953 196.96C38.2932 196.568 41.9105 196.381 45.5296 196.4C49.1529 196.381 52.7743 196.568 56.3763 196.96C52.7753 197.364 49.1531 197.551 45.5296 197.52C41.9103 197.545 38.2927 197.358 34.6953 196.96Z" fill="#DBDBDB"/>
<path d="M34.6953 203.301C38.2925 202.899 41.9101 202.708 45.5296 202.728C49.1533 202.708 52.775 202.899 56.3763 203.301C52.7743 203.692 49.1529 203.88 45.5296 203.861C41.9105 203.88 38.2932 203.692 34.6953 203.301Z" fill="#DBDBDB"/>
<path d="M65.6543 152.701C72.4957 151.954 79.3981 151.954 86.2395 152.701C82.8218 153.105 79.382 153.292 75.9406 153.261C72.5036 153.286 69.0683 153.099 65.6543 152.701Z" fill="#DBDBDB"/>
<path d="M65.6543 158.928C70.1355 158.18 74.7097 158.18 79.1909 158.928C74.711 159.692 70.1342 159.692 65.6543 158.928Z" fill="#DBDBDB"/>
<path d="M65.6543 165.322C68.864 164.924 72.0963 164.737 75.3304 164.761C78.5689 164.73 81.8057 164.917 85.019 165.322C78.5857 166.069 72.0876 166.069 65.6543 165.322Z" fill="#DBDBDB"/>
<path d="M65.6543 171.649C68.777 171.257 71.9219 171.07 75.0689 171.088C78.2203 171.063 81.3698 171.251 84.496 171.649C81.3703 172.053 78.2204 172.24 75.0689 172.209C71.9219 172.227 68.777 172.04 65.6543 171.649Z" fill="#DBDBDB"/>
<path d="M65.6543 177.974C72.4957 177.227 79.3981 177.227 86.2395 177.974C79.399 178.738 72.4948 178.738 65.6543 177.974Z" fill="#DBDBDB"/>
<path d="M65.6543 184.307C71.0821 183.543 76.59 183.543 82.0178 184.307C76.5889 185.054 71.0832 185.054 65.6543 184.307Z" fill="#DBDBDB"/>
<path d="M65.6543 190.634C68.8646 190.243 72.0964 190.055 75.3304 190.074C78.5689 190.043 81.8057 190.23 85.019 190.634C81.8052 191.032 78.5687 191.219 75.3304 191.194C72.0964 191.213 68.8646 191.025 65.6543 190.634Z" fill="#DBDBDB"/>
<path d="M65.6543 196.964C70.6078 196.22 75.6446 196.22 80.5981 196.964C78.1283 197.366 75.6284 197.553 73.1262 197.524C70.6243 197.548 68.1248 197.36 65.6543 196.964Z" fill="#DBDBDB"/>
<path d="M65.6543 203.299C70.4142 202.536 75.2654 202.536 80.0253 203.299C75.2641 204.047 70.4155 204.047 65.6543 203.299Z" fill="#DBDBDB"/>
<path d="M113.637 204.945H77.6094V240.972H113.637V204.945Z" fill="#C7C7C7"/>
<path d="M97.7698 208.608C97.7697 209.034 97.6431 209.451 97.4058 209.806C97.1685 210.16 96.8313 210.436 96.4369 210.599C96.0425 210.762 95.6087 210.804 95.1904 210.72C94.7722 210.635 94.3883 210.429 94.0875 210.126C93.7867 209.824 93.5825 209.439 93.5008 209.02C93.4191 208.601 93.4636 208.168 93.6285 207.774C93.7935 207.381 94.0716 207.045 94.4275 206.81C94.7834 206.575 95.2012 206.451 95.6278 206.453C96.197 206.456 96.7418 206.685 97.1431 207.089C97.5445 207.492 97.7698 208.038 97.7698 208.608Z" fill="white"/>
<path d="M461.79 290.434C462.255 297.469 461.35 304.528 459.125 311.218C458.074 314.315 456.766 317.318 455.215 320.197C453.259 323.933 451.242 327.482 451.329 331.691C451.715 331.99 450.333 331.84 450.321 331.429C439.648 324.207 425.414 321.94 417.631 310.882C413.895 305.651 412.376 299.263 411.877 292.949C411.342 286.075 411.628 278.528 413.907 271.965C415.813 266.424 419.549 261.206 425.115 258.852C430.831 256.362 438.004 257.208 443.646 259.45C455.787 264.282 460.956 278.229 461.79 290.434Z" fill="#EBEBEB"/>
<path d="M461.143 373.515C460.01 368.322 458.889 363.129 457.706 357.936C455.415 347.774 452.986 337.65 450.234 327.613C448.574 321.602 446.793 315.633 444.892 309.705C445.424 306.107 446.148 302.541 447.058 299.02C448.304 294.761 449.997 290.689 451.591 286.567C451.691 286.305 451.28 286.143 451.156 286.38C448.192 292.021 444.344 299.232 443.684 306.143C441.455 299.431 439.039 292.806 436.386 286.218C436.442 280.857 437.022 275.514 438.117 270.265C438.118 270.221 438.104 270.178 438.077 270.142C438.05 270.107 438.012 270.081 437.969 270.07C437.926 270.058 437.881 270.062 437.84 270.079C437.799 270.096 437.765 270.127 437.743 270.166C436.435 274.735 435.702 279.45 435.564 284.201C433.534 279.219 431.367 274.4 429.026 269.581C428.815 269.145 428.217 269.581 428.391 269.954C431.965 278.36 435.215 286.903 438.229 295.546C433.431 290.691 427.756 286.791 421.504 284.051C421.231 283.939 420.994 284.325 421.268 284.462C428.047 288.015 434.133 292.756 439.238 298.46C441.38 304.769 443.406 311.129 445.315 317.538C438.852 310.153 429.636 304.91 420.583 301.785C420.272 301.672 420.147 302.146 420.446 302.27C430.894 306.305 438.74 313.017 446.324 320.95C447.071 323.532 447.802 326.122 448.515 328.721C451.23 338.542 453.771 348.418 456.137 358.347C457.283 363.104 458.403 367.861 459.499 372.618C460.67 377.749 461.492 383.129 463.148 388.123C463.31 388.596 464.144 388.559 464.082 387.998C463.35 383.123 462.369 378.289 461.143 373.515Z" fill="#DBDBDB"/>
<path d="M449.759 279.723C447.537 282.614 445.908 285.915 444.965 289.437C444.965 289.524 445.077 289.586 445.114 289.499C446.625 286.231 448.334 283.057 450.233 279.997C450.432 279.636 449.971 279.4 449.759 279.723Z" fill="#DBDBDB"/>
<path d="M428.042 301.397C425.071 299.433 421.767 298.028 418.291 297.25C418.204 297.25 418.13 297.362 418.229 297.412C419.786 298.196 421.442 298.794 423.024 299.554C424.605 300.313 426.149 301.198 427.756 301.895C427.822 301.933 427.9 301.943 427.974 301.923C428.047 301.903 428.11 301.855 428.148 301.789C428.186 301.723 428.196 301.645 428.176 301.571C428.157 301.498 428.108 301.435 428.042 301.397Z" fill="#DBDBDB"/>
<path d="M424.655 272.989C423.711 272.141 422.685 271.39 421.591 270.747C421.417 270.66 421.242 270.872 421.379 271.008C422.309 271.874 423.318 272.649 424.393 273.325C424.53 273.499 424.791 273.138 424.655 272.989Z" fill="#DBDBDB"/>
<path d="M496.286 312.014C488.142 314.094 479.96 315.987 471.803 318.042C471.094 318.216 458.491 291.591 463.945 278.328C468.927 266.062 479.761 257.158 492.351 253.422C498.179 251.691 505.315 250.333 511.342 251.903C516.697 253.31 520.346 257.88 521.903 263.036C524.02 270.034 522.899 278.241 521.33 285.252C520.035 291.835 517.058 297.97 512.687 303.06C508.217 307.967 502.65 310.395 496.286 312.014Z" fill="#EBEBEB"/>
<path d="M508.938 287.67C503.746 289.955 498.383 291.829 492.898 293.274C489.242 294.101 485.663 295.238 482.201 296.674C485.936 289.202 489.922 281.942 494.181 274.731C499.448 273.486 505.015 271.294 509.124 267.77C509.172 267.734 509.204 267.68 509.212 267.62C509.22 267.561 509.204 267.5 509.168 267.452C509.132 267.404 509.078 267.373 509.018 267.365C508.959 267.357 508.898 267.372 508.85 267.409C504.442 270.285 499.635 271.917 494.803 273.785C495.949 271.842 497.111 269.908 498.29 267.982C498.614 267.446 497.879 266.861 497.493 267.384C493.019 273.37 488.942 279.643 485.289 286.163C484.652 280.301 484.606 274.389 485.152 268.517C485.144 268.492 485.128 268.47 485.107 268.455C485.085 268.44 485.06 268.431 485.034 268.431C485.007 268.431 484.982 268.44 484.961 268.455C484.939 268.47 484.924 268.492 484.915 268.517C483.659 274.897 483.469 281.44 484.355 287.882C481.316 293.411 478.514 299.09 475.974 304.843C475.189 301.294 474.131 297.795 473.483 294.221C472.461 289.095 472.276 283.838 472.935 278.654C472.935 278.505 472.724 278.492 472.699 278.654C470.893 288.233 471.675 298.12 474.965 307.296C473.483 310.771 472.064 314.258 470.744 317.757C463.958 335.546 459.606 354.17 457.805 373.124C457.806 373.208 457.837 373.289 457.893 373.351C457.949 373.414 458.026 373.454 458.109 373.465C458.193 373.475 458.277 373.456 458.347 373.409C458.417 373.362 458.467 373.292 458.49 373.211C461.326 354.511 466.071 336.15 472.649 318.417C475.264 311.481 478.216 304.719 481.366 298.181C486.186 296.935 490.992 295.242 495.737 293.81C500.468 292.583 504.965 290.589 509.05 287.907C509.062 287.884 509.069 287.859 509.069 287.834C509.07 287.808 509.065 287.783 509.054 287.76C509.043 287.737 509.027 287.717 509.006 287.701C508.986 287.685 508.963 287.675 508.938 287.67Z" fill="#DBDBDB"/>
<path d="M516.809 280.374C511.828 281.943 507.046 284.21 502.065 285.791C501.828 285.866 501.94 286.24 502.177 286.202C507.432 285.331 512.662 283.923 516.996 280.673C517.096 280.549 516.921 280.324 516.809 280.374Z" fill="#DBDBDB"/>
<path d="M476.958 268.171C476.958 267.922 476.647 267.748 476.56 268.022C475.028 272.505 473.907 277.287 475.04 281.982C475.04 282.028 475.059 282.072 475.092 282.105C475.124 282.138 475.169 282.156 475.215 282.156C475.261 282.156 475.305 282.138 475.338 282.105C475.371 282.072 475.389 282.028 475.389 281.982C475.788 277.312 475.713 272.742 476.958 268.171Z" fill="#DBDBDB"/>
<path d="M497.704 258.481C496.016 260.661 495.136 263.358 495.214 266.115C495.214 266.289 495.488 266.401 495.538 266.202C496.235 263.624 497.331 261.295 498.227 258.805C498.236 258.74 498.226 258.674 498.199 258.615C498.171 258.556 498.127 258.507 498.071 258.472C498.016 258.438 497.952 258.42 497.887 258.422C497.821 258.423 497.758 258.444 497.704 258.481Z" fill="#DBDBDB"/>
<path d="M521.951 330.599C519.585 338.071 513.968 348.482 505.077 348.557C499.311 348.619 493.508 347.934 487.717 347.847C481.49 347.76 475.326 347.772 469.149 348.133C468.639 348.133 469.896 329.603 484.765 320.562C488.937 318.071 494.031 317.224 498.763 316.203C504.179 314.919 509.737 314.338 515.301 314.472C518.713 314.609 521.527 315.344 522.773 318.843C524.018 322.343 523.034 327.05 521.951 330.599Z" fill="#EBEBEB"/>
<path d="M515.563 321.209C511.951 322.143 508.303 323.214 504.679 324.36C505.625 323.334 506.623 322.358 507.667 321.433C509.237 320.188 510.943 319.104 512.649 317.971C512.798 317.884 512.711 317.61 512.537 317.685C509.038 319.152 506.019 321.567 503.819 324.658C499.299 326.115 494.816 327.734 490.507 329.503C487.528 330.724 484.672 332.225 481.976 333.986C482.849 332.111 483.883 330.315 485.065 328.619C487.045 326.066 489.71 324.633 492.3 322.828C492.34 322.791 492.367 322.742 492.375 322.688C492.383 322.634 492.372 322.579 492.344 322.532C492.316 322.485 492.273 322.45 492.222 322.431C492.171 322.412 492.115 322.412 492.064 322.429C489.36 323.602 486.931 325.327 484.933 327.493C482.934 329.659 481.41 332.218 480.457 335.007C477.363 337.229 474.535 339.799 472.026 342.666C462.176 353.874 454.43 368.73 454.393 383.911C454.393 384.272 454.978 384.372 455.053 383.998C457.576 369.116 464.058 355.188 473.82 343.674C474.529 342.853 475.252 342.068 475.986 341.308C478.682 340.941 481.398 340.741 484.118 340.711C487.281 340.711 490.432 341.171 493.583 341.433C498.776 341.856 504.517 341.919 509.199 339.303C509.237 339.273 509.264 339.232 509.276 339.185C509.289 339.138 509.286 339.088 509.267 339.044C509.249 338.999 509.217 338.961 509.175 338.936C509.134 338.911 509.085 338.9 509.037 338.905C498.589 342.703 487.643 337.896 477.17 340.15C481.64 335.882 486.88 332.501 492.611 330.188L493.57 329.802C500.27 330.611 507.356 332.292 513.882 330.175C513.921 330.162 513.953 330.134 513.973 330.097C513.992 330.061 513.997 330.018 513.985 329.978C513.974 329.938 513.948 329.904 513.913 329.883C513.877 329.862 513.835 329.855 513.794 329.864C507.481 331.445 501.441 329.465 495.214 329.142C501.989 326.501 508.913 324.409 515.7 321.782C516.16 321.582 516.173 321.059 515.563 321.209Z" fill="#DBDBDB"/>
<path d="M518.515 327.81C515.277 328.239 512.018 328.488 508.752 328.557C508.739 328.563 508.727 328.573 508.719 328.585C508.711 328.597 508.707 328.611 508.707 328.626C508.707 328.64 508.711 328.655 508.719 328.667C508.727 328.679 508.739 328.689 508.752 328.694C512.033 329.301 515.414 329.082 518.59 328.059C518.623 328.049 518.651 328.027 518.667 327.996C518.683 327.966 518.687 327.93 518.677 327.897C518.667 327.864 518.645 327.837 518.614 327.82C518.584 327.804 518.548 327.8 518.515 327.81Z" fill="#DBDBDB"/>
<path d="M496.473 321.383C494.668 322.189 493.029 323.325 491.641 324.733C491.479 324.882 491.641 325.194 491.89 325.057C492.712 324.459 493.559 323.898 494.381 323.351C495.193 322.898 495.979 322.399 496.735 321.856C496.984 321.682 496.747 321.283 496.473 321.383Z" fill="#DBDBDB"/>
<path d="M443.944 345.526C444.044 345.775 443.695 346.011 443.558 345.75C443.501 345.827 443.417 345.881 443.322 345.899C437.336 347.328 431.268 348.388 425.153 349.075C420.234 349.511 414.555 349.785 410.209 346.92C404.381 343.06 400.545 332.711 403.696 326.136C407.432 318.34 418.64 322.574 424.318 325.351C433.016 329.577 439.96 336.715 443.944 345.526Z" fill="#EBEBEB"/>
<path d="M448.315 349.14C445.033 345.975 441.393 343.204 437.468 340.884C434.637 336.408 430.884 332.587 426.459 329.676C426.248 329.527 426.061 329.863 426.26 330.012C429.776 332.833 432.893 336.117 435.525 339.776C431.147 337.369 426.598 335.288 421.914 333.549C420.239 330.451 417.699 327.907 414.604 326.227C414.542 326.227 414.467 326.227 414.529 326.326C417.089 328.267 419.318 330.61 421.13 333.263C418.365 332.229 415.563 331.27 412.773 330.336C412.524 330.261 412.425 330.635 412.674 330.735C417.655 332.677 422.724 334.72 427.618 337.086C421.611 338.038 415.492 338.038 409.486 337.086C409.469 337.081 409.452 337.079 409.435 337.081C409.418 337.083 409.402 337.088 409.387 337.096C409.372 337.104 409.358 337.115 409.348 337.128C409.337 337.141 409.329 337.157 409.324 337.173C409.319 337.189 409.317 337.206 409.319 337.223C409.321 337.24 409.326 337.257 409.334 337.272C409.342 337.287 409.353 337.3 409.366 337.311C409.379 337.322 409.395 337.33 409.411 337.335C415.681 339.19 422.341 339.289 428.664 337.621C431.801 339.153 434.849 340.862 437.792 342.74C435.314 342.536 432.82 342.738 430.407 343.337C426.158 344.329 421.807 344.822 417.443 344.807C417.281 344.807 417.232 345.081 417.443 345.106C424.915 346.351 432.076 342.976 439.535 343.86C442.302 345.743 444.898 347.864 447.294 350.199C451.943 354.849 455.775 360.251 458.626 366.176C461.764 372.565 463.458 379.34 465.998 385.94C466.017 386.001 466.058 386.052 466.114 386.083C466.17 386.113 466.236 386.12 466.297 386.102C466.358 386.083 466.41 386.042 466.44 385.986C466.471 385.93 466.477 385.864 466.459 385.803C464.267 372.764 457.779 358.418 448.315 349.14Z" fill="#DBDBDB"/>
<path d="M425.613 331.294C425.112 330.41 424.464 329.618 423.695 328.953C423.057 328.272 422.302 327.712 421.466 327.297C421.392 327.297 421.354 327.372 421.392 327.421C422.014 328.119 422.874 328.667 423.534 329.302C424.194 329.937 424.779 330.771 425.439 331.431C425.458 331.45 425.484 331.461 425.511 331.462C425.538 331.463 425.564 331.455 425.585 331.438C425.606 331.421 425.621 331.398 425.626 331.371C425.631 331.345 425.627 331.318 425.613 331.294Z" fill="#DBDBDB"/>
<path d="M413.21 335.333C412.089 335.06 410.919 335.084 409.786 334.848C408.661 334.574 407.551 334.242 406.461 333.852C406.311 333.852 406.224 334.013 406.349 334.101C408.403 335.362 410.811 335.921 413.21 335.695C413.447 335.657 413.372 335.383 413.21 335.333Z" fill="#DBDBDB"/>
<path d="M484.081 362.93L482.848 376.865L478.689 423.901H441.852L436.647 376.865L435.115 362.93H484.081Z" fill="#C7C7C7"/>
<path d="M484.081 362.93L482.848 376.865H436.647L435.115 362.93H484.081Z" fill="#A6A6A6"/>
<path d="M487.73 359.125H431.467V370.432H487.73V359.125Z" fill="#C7C7C7"/>
<path d="M11.5938 423.896L75.9395 423.585L140.298 423.485L268.989 423.273L397.681 423.473L462.039 423.585L526.385 423.896L462.039 424.195L397.681 424.307L268.989 424.519L140.298 424.307L75.9395 424.195L11.5938 423.896Z" fill="#263238"/>
<path d="M430.957 466.108C484.528 466.108 527.955 459.205 527.955 450.691C527.955 442.176 484.528 435.273 430.957 435.273C377.386 435.273 333.959 442.176 333.959 450.691C333.959 459.205 377.386 466.108 430.957 466.108Z" fill="#EBEBEB"/>
<path d="M232.128 512.431C354.352 512.431 453.434 498.726 453.434 481.821C453.434 464.916 354.352 451.211 232.128 451.211C109.904 451.211 10.8223 464.916 10.8223 481.821C10.8223 498.726 109.904 512.431 232.128 512.431Z" fill="#EBEBEB"/>
<path d="M416.771 33.2422H121.045V228.695H416.771V33.2422Z" fill="#EBEBEB"/>
<path d="M423.969 23.6641H113.996V33.2406H423.969V23.6641Z" fill="#455A64"/>
<path d="M188.031 66.6797H141.344V122.009H188.031V66.6797Z" fill="white"/>
<path d="M166.362 70.439C166.362 70.7715 166.264 71.0965 166.079 71.373C165.894 71.6495 165.632 71.865 165.325 71.9922C165.017 72.1195 164.679 72.1528 164.353 72.0879C164.027 72.023 163.728 71.8629 163.492 71.6278C163.257 71.3927 163.097 71.0931 163.032 70.767C162.967 70.4409 163.001 70.1028 163.128 69.7956C163.255 69.4884 163.471 69.2259 163.747 69.0411C164.024 68.8564 164.349 68.7578 164.681 68.7578C165.127 68.7578 165.555 68.9349 165.87 69.2502C166.185 69.5655 166.362 69.9931 166.362 70.439Z" fill="#455A64"/>
<path d="M150.223 77.764C154.942 77.4029 159.662 77.378 164.382 77.3282C169.102 77.2783 173.834 77.3282 178.554 77.764C173.834 78.1252 169.114 78.1501 164.382 78.1999C159.65 78.2497 154.942 78.1252 150.223 77.764Z" fill="#EBEBEB"/>
<path d="M150.223 82.1312C155.341 81.55 160.509 81.55 165.627 82.1312C163.07 82.4439 160.495 82.5895 157.919 82.5671C155.347 82.5833 152.776 82.4377 150.223 82.1312Z" fill="#EBEBEB"/>
<path d="M150.223 86.5062C156.768 85.925 163.353 85.925 169.899 86.5062C166.629 86.8192 163.345 86.9646 160.061 86.9421C156.785 86.9296 153.498 86.8424 150.223 86.5062Z" fill="#EBEBEB"/>
<path d="M150.223 90.8744C154.332 90.5381 158.429 90.451 162.539 90.4385C166.648 90.4261 170.746 90.5257 174.843 90.8744C170.746 91.2231 166.636 91.2978 162.539 91.3102C158.442 91.3227 154.332 91.2231 150.223 90.8744Z" fill="#EBEBEB"/>
<path d="M150.223 95.2415C153.784 94.9052 157.358 94.8181 160.92 94.8056C164.482 94.7932 168.043 94.9052 171.617 95.2415C168.043 95.5902 164.482 95.6649 160.92 95.6773C157.358 95.6898 153.784 95.5902 150.223 95.2415Z" fill="#EBEBEB"/>
<path d="M150.223 99.6182C154.793 99.2571 159.351 99.2322 163.921 99.1824C168.492 99.1326 173.049 99.2571 177.62 99.6182C173.062 99.9918 168.504 100.004 163.921 100.067C159.338 100.129 154.793 99.9794 150.223 99.6182Z" fill="#EBEBEB"/>
<path d="M150.223 103.984C153.16 103.684 156.112 103.538 159.064 103.548C162.017 103.532 164.969 103.677 167.906 103.984C162.027 104.582 156.102 104.582 150.223 103.984Z" fill="#EBEBEB"/>
<path d="M150.223 108.373C154.942 107.999 159.662 107.974 164.382 107.925C169.102 107.875 173.834 107.999 178.554 108.373C173.834 108.734 169.114 108.759 164.382 108.809C159.65 108.859 154.942 108.734 150.223 108.373Z" fill="#EBEBEB"/>
<path d="M150.223 112.744C154.942 112.37 159.662 112.358 164.382 112.296C169.102 112.233 173.834 112.37 178.554 112.744C173.834 113.105 169.114 113.13 164.382 113.18C159.65 113.23 154.942 113.105 150.223 112.744Z" fill="#EBEBEB"/>
<path d="M211.853 142.656H156.598V208.123H211.853V142.656Z" fill="white"/>
<path d="M185.901 151.462C185.901 151.795 185.803 152.12 185.618 152.396C185.433 152.673 185.171 152.888 184.864 153.016C184.556 153.143 184.218 153.176 183.892 153.111C183.566 153.047 183.267 152.886 183.031 152.651C182.796 152.416 182.636 152.117 182.571 151.79C182.506 151.464 182.54 151.126 182.667 150.819C182.794 150.512 183.01 150.249 183.286 150.065C183.563 149.88 183.888 149.781 184.22 149.781C184.441 149.78 184.661 149.822 184.866 149.906C185.07 149.99 185.256 150.114 185.413 150.27C185.569 150.426 185.693 150.612 185.777 150.817C185.861 151.022 185.903 151.241 185.901 151.462Z" fill="#455A64"/>
<path d="M164.381 158.99C168.445 158.409 172.571 158.409 176.635 158.99C174.608 159.303 172.559 159.449 170.508 159.426C168.457 159.442 166.409 159.297 164.381 158.99Z" fill="#EBEBEB"/>
<path d="M164.381 163.912C169.653 163.331 174.974 163.331 180.246 163.912C174.975 164.51 169.652 164.51 164.381 163.912Z" fill="#EBEBEB"/>
<path d="M164.381 168.894C169.261 168.296 174.196 168.296 179.076 168.894C174.195 169.475 169.262 169.475 164.381 168.894Z" fill="#EBEBEB"/>
<path d="M164.381 173.797C166.818 173.491 169.272 173.345 171.728 173.362C174.184 173.339 176.639 173.485 179.076 173.797C174.195 174.379 169.262 174.379 164.381 173.797Z" fill="#EBEBEB"/>
<path d="M164.381 178.734C166.497 178.434 168.632 178.288 170.769 178.298C172.903 178.282 175.034 178.428 177.145 178.734C172.912 179.332 168.615 179.332 164.381 178.734Z" fill="#EBEBEB"/>
<path d="M164.381 183.678C169.812 183.097 175.289 183.097 180.719 183.678C175.289 184.259 169.812 184.259 164.381 183.678Z" fill="#EBEBEB"/>
<path d="M164.381 188.608C168.858 188.027 173.391 188.027 177.868 188.608C173.391 189.189 168.858 189.189 164.381 188.608Z" fill="#EBEBEB"/>
<path d="M164.381 193.55C170.002 192.952 175.671 192.952 181.292 193.55C178.484 193.857 175.661 194.002 172.837 193.986C170.012 193.996 167.189 193.85 164.381 193.55Z" fill="#EBEBEB"/>
<path d="M164.381 198.483C170.003 197.902 175.67 197.902 181.292 198.483C178.485 198.796 175.661 198.941 172.837 198.919C170.012 198.935 167.189 198.79 164.381 198.483Z" fill="#EBEBEB"/>
<path d="M188.479 158.991C193.813 158.409 199.196 158.409 204.531 158.991C201.865 159.303 199.182 159.449 196.498 159.426C193.819 159.443 191.141 159.297 188.479 158.991Z" fill="#EBEBEB"/>
<path d="M188.479 163.912C191.97 163.331 195.534 163.331 199.026 163.912C195.536 164.51 191.969 164.51 188.479 163.912Z" fill="#EBEBEB"/>
<path d="M188.479 168.894C193.496 168.296 198.567 168.296 203.584 168.894C198.566 169.475 193.497 169.475 188.479 168.894Z" fill="#EBEBEB"/>
<path d="M188.479 173.797C190.915 173.491 193.37 173.345 195.826 173.362C198.282 173.34 200.737 173.485 203.173 173.797C198.292 174.379 193.36 174.379 188.479 173.797Z" fill="#EBEBEB"/>
<path d="M188.479 178.734C191.141 178.433 193.819 178.288 196.498 178.298C199.182 178.282 201.864 178.427 204.531 178.734C199.197 179.332 193.813 179.332 188.479 178.734Z" fill="#EBEBEB"/>
<path d="M188.479 183.678C192.714 183.097 197.008 183.097 201.243 183.678C197.008 184.259 192.714 184.259 188.479 183.678Z" fill="#EBEBEB"/>
<path d="M188.479 188.608C193.497 188.027 198.566 188.027 203.584 188.608C198.566 189.189 193.497 189.189 188.479 188.608Z" fill="#EBEBEB"/>
<path d="M188.479 193.55C192.349 192.952 196.289 192.952 200.16 193.55C198.228 193.855 196.275 194.001 194.319 193.986C192.364 193.996 190.411 193.85 188.479 193.55Z" fill="#EBEBEB"/>
<path d="M188.479 198.483C192.192 197.902 195.973 197.902 199.686 198.483C197.835 198.795 195.96 198.941 194.082 198.919C192.205 198.935 190.331 198.789 188.479 198.483Z" fill="#EBEBEB"/>
<path d="M211.829 51.4609H183.734V79.5554H211.829V51.4609Z" fill="#084C3F"/>
<path d="M199.462 54.325C199.464 54.658 199.368 54.9843 199.185 55.2624C199.001 55.5405 198.74 55.7579 198.433 55.8871C198.126 56.0162 197.787 56.0513 197.46 55.9879C197.134 55.9244 196.833 55.7653 196.596 55.5307C196.36 55.2961 196.199 54.9965 196.133 54.6701C196.067 54.3436 196.1 54.0049 196.226 53.697C196.353 53.3891 196.569 53.1258 196.845 52.9405C197.122 52.7552 197.448 52.6563 197.781 52.6563C198.001 52.6547 198.219 52.6966 198.423 52.7797C198.627 52.8629 198.812 52.9855 198.969 53.1406C199.125 53.2958 199.249 53.4803 199.334 53.6835C199.418 53.8868 199.462 54.1048 199.462 54.325Z" fill="#455A64"/>
<path d="M416.771 33.2422H121.045V45.6829H416.771V33.2422Z" fill="#DBDBDB"/>
<path d="M225.377 66.9993L311.055 66.8125L396.733 66.9993L311.055 67.1861L225.377 66.9993Z" fill="#C7C7C7"/>
<path d="M225.377 73.9837L311.055 73.7969L396.733 73.9837L311.055 74.1705L225.377 73.9837Z" fill="#C7C7C7"/>
<path d="M225.377 80.9759L311.055 80.7891L396.733 80.9759L311.055 81.1627L225.377 80.9759Z" fill="#C7C7C7"/>
<path d="M225.377 87.9602L311.055 87.7734L396.733 87.9602L311.055 88.147L225.377 87.9602Z" fill="#C7C7C7"/>
<path d="M225.377 94.9478L311.055 94.7734L396.733 94.9478L311.055 95.1346L225.377 94.9478Z" fill="#C7C7C7"/>
<path d="M225.377 101.945L311.055 101.758L396.733 101.945L311.055 102.119L225.377 101.945Z" fill="#C7C7C7"/>
<path d="M225.377 108.929L311.055 108.742L396.733 108.929L311.055 109.103L225.377 108.929Z" fill="#C7C7C7"/>
<path d="M225.377 115.921L311.055 115.734L396.733 115.921L311.055 116.096L225.377 115.921Z" fill="#C7C7C7"/>
<path d="M225.377 122.906L311.055 122.719L396.733 122.906L311.055 123.092L225.377 122.906Z" fill="#C7C7C7"/>
<path d="M225.377 129.89L311.055 129.703L396.733 129.89L311.055 130.077L225.377 129.89Z" fill="#C7C7C7"/>
<path d="M225.377 136.874L311.055 136.688L396.733 136.874L311.055 137.061L225.377 136.874Z" fill="#C7C7C7"/>
<path d="M225.377 143.859L311.055 143.672L396.733 143.859L311.055 144.045L225.377 143.859Z" fill="#C7C7C7"/>
<path d="M225.377 150.851L311.055 150.664L396.733 150.851L311.055 151.038L225.377 150.851Z" fill="#C7C7C7"/>
<path d="M225.377 157.835L311.055 157.648L396.733 157.835L311.055 158.022L225.377 157.835Z" fill="#C7C7C7"/>
<path d="M225.377 164.823L311.055 164.648L396.733 164.823L311.055 165.01L225.377 164.823Z" fill="#C7C7C7"/>
<path d="M256.485 115.914H243.496V172.975H256.485V115.914Z" fill="#084C3F"/>
<path d="M280.582 91.7812H267.594V172.976H280.582V91.7812Z" fill="white"/>
<path d="M304.692 80.8281H291.703V172.982H304.692V80.8281Z" fill="#084C3F"/>
<path d="M328.801 95.1094H315.812V172.967H328.801V95.1094Z" fill="white"/>
<path d="M352.911 99.3672H339.922V172.978H352.911V99.3672Z" fill="#084C3F"/>
<path d="M377.008 141.07H364.02V172.975H377.008V141.07Z" fill="white"/>
<path d="M230.023 62.0938L230.309 89.8146L230.508 117.535C230.65 136.016 230.716 154.497 230.708 172.977L230.023 172.292H271.704L313.372 172.379L355.053 172.604L396.734 173.014L355.053 173.413L313.372 173.637L271.704 173.724H230.023H229.338V173.039C229.338 154.559 229.404 136.078 229.537 117.598L229.736 89.8769L230.023 62.0938Z" fill="#C7C7C7"/>
<path d="M256.485 178.828H243.496V179.999H256.485V178.828Z" fill="#C7C7C7"/>
<path d="M280.582 178.828H267.594V179.999H280.582V178.828Z" fill="#C7C7C7"/>
<path d="M304.692 178.828H291.703V179.999H304.692V178.828Z" fill="#C7C7C7"/>
<path d="M328.801 178.828H315.812V179.999H328.801V178.828Z" fill="#C7C7C7"/>
<path d="M352.911 178.828H339.922V179.999H352.911V178.828Z" fill="#C7C7C7"/>
<path d="M377.008 178.828H364.02V179.999H377.008V178.828Z" fill="#C7C7C7"/>
<path d="M270.571 193.984H242.016V196.438H270.571V193.984Z" fill="#C7C7C7"/>
<path d="M280.596 199.102H242.016V201.555H280.596V199.102Z" fill="#C7C7C7"/>
<path d="M262.489 204.234H242.016V206.688H262.489V204.234Z" fill="#C7C7C7"/>
<path d="M235.652 193.984H229.699V199.937H235.652V193.984Z" fill="#084C3F"/>
<path d="M342.289 193.984H308.342V196.438H342.289V193.984Z" fill="#C7C7C7"/>
<path d="M335.191 199.102H308.342V201.555H335.191V199.102Z" fill="#C7C7C7"/>
<path d="M346.922 204.234H308.342V206.688H346.922V204.234Z" fill="#C7C7C7"/>
<path d="M301.964 193.984H296.012V199.937H301.964V193.984Z" fill="white"/>
<path d="M357.034 449.088C359.275 449.811 424.729 448.814 427.133 447.245C427.419 447.071 427.457 441.156 427.382 433.036L430.57 384.867L389.151 384.992L385.875 426.673C385.875 426.673 376.585 430.957 368.914 434.705C365.56 436.232 362.3 437.957 359.151 439.873C356.698 441.915 354.805 448.341 357.034 449.088Z" fill="#DD6A57"/>
<path d="M357.034 449.083C359.276 449.806 424.73 448.809 427.133 447.24C427.42 447.066 427.457 441.151 427.382 433.031C411.193 436.643 368.093 442.471 366.835 439.084C366.337 437.739 367.358 436.194 368.902 434.762C365.548 436.289 362.287 438.015 359.139 439.93C356.698 441.91 354.805 448.336 357.034 449.083Z" fill="#263238"/>
<path d="M448.054 209.537C448.054 209.537 436.348 334.069 436.061 335.526C436.061 335.726 435.937 338.017 435.825 341.753C435.177 362.301 433.571 426.335 433.571 426.335H384.355C384.355 426.335 387.556 350.483 389.411 332.787C391.753 310.222 406.211 209.5 406.211 209.5L448.054 209.537Z" fill="#455A64"/>
<path d="M430.196 339.73C431.716 313.878 433.999 288.091 437.046 262.371C438.764 247.876 440.844 233.43 442.911 218.972C442.911 218.847 443.135 218.86 443.11 218.972C439.3 244.687 436.61 270.603 434.281 296.493C431.952 322.383 430.333 348.261 429.3 374.201C428.702 388.896 428.254 403.603 427.78 418.31C427.78 418.383 427.751 418.452 427.7 418.504C427.649 418.555 427.579 418.584 427.506 418.584C427.434 418.584 427.364 418.555 427.313 418.504C427.261 418.452 427.232 418.383 427.232 418.31C427.905 392.109 428.652 365.895 430.196 339.73Z" fill="#263238"/>
<path d="M387.458 418.413C388.703 418.239 390.148 418.301 391.455 418.251C392.763 418.201 394.419 418.189 395.889 418.127C398.744 418.027 401.596 417.952 404.444 417.902C410.185 417.815 415.951 417.902 421.692 418.027L426.424 418.189C428.117 418.251 429.799 418.413 431.48 418.401C431.617 418.401 431.604 418.55 431.48 418.55C428.591 418.55 425.664 418.799 422.763 418.911C419.861 419.023 417.071 419.061 414.22 419.098C408.479 419.185 402.713 419.098 396.972 418.911L392.227 418.787L389.737 418.687C388.989 418.687 388.242 418.687 387.495 418.612C387.482 418.615 387.469 418.615 387.455 418.612C387.442 418.609 387.43 418.604 387.419 418.596C387.408 418.589 387.399 418.579 387.391 418.568C387.384 418.557 387.379 418.544 387.377 418.531C387.374 418.518 387.374 418.505 387.377 418.492C387.38 418.479 387.385 418.466 387.393 418.455C387.4 418.444 387.41 418.435 387.421 418.428C387.432 418.42 387.445 418.415 387.458 418.413Z" fill="#263238"/>
<path d="M412.514 209.539L434.929 371.68C435.253 359.588 435.565 348.417 435.776 341.792C435.888 338.056 435.976 335.752 436.013 335.566C436.287 334.059 448.005 209.576 448.005 209.576L412.514 209.539Z" fill="#263238"/>
<path d="M439.473 457.689C441.814 457.49 501.864 431.413 503.483 429.047C503.682 428.773 501.44 423.294 498.24 415.847L485.002 369.172L446.696 384.539L457.505 425.959C457.505 425.959 450.569 433.43 444.94 439.894C442.427 442.587 440.082 445.432 437.917 448.412C436.41 451.226 437.107 457.889 439.473 457.689Z" fill="#DD6A57"/>
<path d="M439.473 457.694C441.814 457.495 501.864 431.418 503.483 429.052C503.682 428.778 501.44 423.299 498.24 415.852C484.703 425.391 447.182 447.358 444.691 444.706C443.707 443.66 444.068 441.841 444.94 439.936C442.427 442.629 440.082 445.474 437.917 448.454C436.41 451.231 437.107 457.894 439.473 457.694Z" fill="#263238"/>
<path d="M502.562 411.027L454.543 425.971C454.543 425.971 431.106 343.693 429.3 324.365C427.495 305.038 425.813 266.097 425.041 237.716C425.041 237.716 417.021 232.971 414.991 230.381C412.962 227.791 411.131 218.451 407.121 209.547H465.863C479.898 236.807 469.337 248.936 469.337 254.889C469.337 283.594 473.671 321.688 475.053 327.329C477.93 339.123 502.562 411.027 502.562 411.027Z" fill="#455A64"/>
<path d="M454.654 415.459C455.9 414.961 457.22 414.662 458.465 414.276C459.71 413.89 461.317 413.454 462.724 413.03C465.451 412.183 468.179 411.374 470.931 410.54C476.447 408.971 482.026 407.514 487.618 406.206L492.238 405.147C493.882 404.761 495.551 404.475 497.219 404.039C497.344 404.039 497.369 404.151 497.219 404.189C494.43 404.923 491.665 405.932 488.901 406.779C486.136 407.626 483.434 408.398 480.694 409.17C475.165 410.739 469.586 412.183 463.982 413.454C462.438 413.802 460.906 414.201 459.374 414.562L456.883 415.11C456.149 415.272 455.439 415.521 454.692 415.621C454.676 415.615 454.663 415.605 454.652 415.593C454.641 415.581 454.633 415.566 454.63 415.55C454.626 415.534 454.626 415.517 454.63 415.501C454.635 415.485 454.643 415.471 454.654 415.459Z" fill="#263238"/>
<path d="M413.621 229.75C416.43 231.039 419.096 232.617 421.579 234.458C424.219 236.263 426.635 238.343 429.163 240.273C429.262 240.348 429.163 240.51 429.063 240.435C426.398 238.729 423.596 237.235 420.956 235.454C418.304 233.844 415.803 231.998 413.484 229.937C413.476 229.916 413.473 229.892 413.476 229.869C413.479 229.846 413.487 229.825 413.501 229.806C413.515 229.787 413.533 229.772 413.554 229.763C413.575 229.753 413.598 229.749 413.621 229.75Z" fill="#263238"/>
<path d="M413.26 213.237C413.596 215.068 414.044 216.873 414.43 218.692C414.816 220.51 415.078 222.141 415.526 223.822C415.892 225.459 416.722 226.955 417.917 228.131C418.59 228.741 419.324 229.302 420.034 229.862C420.42 230.173 420.844 230.472 421.28 230.784C421.28 230.535 421.18 230.298 421.143 230.049C421.018 229.351 420.906 228.654 420.781 227.969C420.52 226.425 420.283 224.881 420.047 223.337C419.573 220.298 419.15 217.235 418.515 214.233C418.515 214.109 418.677 214.059 418.702 214.233C419.461 217.21 420.296 220.161 420.956 223.162C421.28 224.632 422.438 231.879 422.488 232.415C422.537 232.95 422.575 233.473 422.6 234.009C422.668 234.551 422.668 235.099 422.6 235.64C422.6 235.777 422.413 235.752 422.351 235.64C422.125 235.136 421.966 234.604 421.877 234.059C421.753 233.536 421.628 233.013 421.541 232.477C421.541 232.29 421.479 232.091 421.454 231.904C420.732 231.469 420.072 230.896 419.399 230.41C418.727 229.924 417.942 229.376 417.257 228.804C415.998 227.735 415.091 226.311 414.654 224.719C414.213 223.009 413.926 221.262 413.795 219.501C413.559 217.434 413.397 215.354 413.11 213.274C413.048 213.162 413.235 213.113 413.26 213.237Z" fill="#263238"/>
<path d="M415.65 135.896C414.891 147.428 414.293 159.308 415.314 170.827C416.111 179.806 419.797 187.228 429.1 189.507C437.718 191.637 450.046 191.612 457.419 185.958C460.856 183.318 462.076 179.557 461.889 175.323C461.64 169.445 457.319 137.228 456.036 127.179C455.455 121.005 454.326 114.896 452.661 108.922C448.764 96.4692 442.637 96.4691 441.777 96.2699C441.055 95.7967 436.373 93.6423 429.648 95.7095C427.893 96.2469 426.271 97.1479 424.887 98.3537C423.503 99.5595 422.388 101.043 421.616 102.708C416.697 112.633 416.36 125.099 415.65 135.896Z" fill="#263238"/>
<path d="M443.683 98.0389C451.018 101.551 452.686 109.633 454.393 116.856C456.784 126.93 458.988 137.055 460.706 147.254C461.528 152.161 462.251 157.092 462.811 162.036C463.359 166.768 464.231 171.824 463.857 176.594C463.247 184.489 455.987 188.001 448.913 189.047C448.879 189.054 448.843 189.053 448.809 189.046C448.775 189.039 448.743 189.025 448.714 189.006C448.685 188.986 448.66 188.961 448.641 188.932C448.622 188.902 448.608 188.87 448.602 188.835C448.595 188.801 448.596 188.766 448.603 188.731C448.61 188.697 448.623 188.665 448.643 188.636C448.663 188.607 448.688 188.582 448.717 188.563C448.746 188.544 448.779 188.531 448.813 188.524C452.811 187.777 456.896 186.706 459.897 183.779C463.732 180.043 463.346 175.062 462.948 170.081C462.275 161.687 461.117 153.331 459.66 145.037C458.203 136.744 456.46 128.475 454.579 120.255C452.786 112.435 451.541 102.148 443.571 98.0888C443.558 98.1137 443.596 98.0016 443.683 98.0389Z" fill="#263238"/>
<path d="M418.141 111.127C419.598 105.112 422.799 99.2593 429.175 97.5781C420.931 100.069 418.838 109.06 417.668 116.544C416.431 124.415 415.493 132.327 414.853 140.28C414.218 147.926 413.745 155.635 413.82 163.306C413.894 171.575 415.314 179.346 420.134 186.22C420.233 186.357 420.034 186.531 419.922 186.394C415.165 180.828 413.695 173.206 413.334 166.083C413.089 156.658 413.467 147.227 414.467 137.852C415.252 129.035 416.024 119.795 418.141 111.127Z" fill="#263238"/>
<path d="M427.618 153.386C420.507 163.162 391.566 184.071 379.598 182.028C371.79 180.721 347.108 163.759 341.902 158.367C335.8 152.141 348.552 135.653 353.297 137.67C359.212 140.161 378.826 155.316 384.33 157.321C387.493 158.467 406.572 148.342 425.326 140.92C432.587 138.118 431.864 147.545 427.618 153.386Z" fill="#DD6A57"/>
<path d="M351.281 132.909C347.396 131.527 343.049 129.646 338.728 129.721C334.407 129.796 330.82 135.512 330.82 137.193C330.82 138.874 332.501 148.961 336.773 148.961C341.044 148.961 338.479 141.14 338.641 140.244C338.803 139.347 338.965 138.202 339.787 138.289C340.609 138.376 354.855 145.138 354.855 145.138L351.281 132.909Z" fill="#DD6A57"/>
<path d="M351.007 133.5C350.758 133.5 339.189 128.942 334.818 129.017C330.447 129.091 326.91 134.807 326.91 136.488C326.91 138.17 328.542 148.307 332.863 148.307C337.184 148.307 334.569 140.486 334.731 139.589C334.893 138.693 335.067 137.547 335.876 137.622C336.686 137.696 350.957 144.471 350.957 144.471L351.007 133.5Z" fill="#DD6A57"/>
<path d="M364.705 144.842C364.705 144.842 352.737 133.933 350.247 131.766C345.265 127.42 324.195 118.815 321.256 118.504C318.317 118.192 317.271 124.207 331.554 130.459C339.089 133.747 340.421 138.068 340.272 140.421C340.122 142.775 337.843 147.258 333.821 147.159C329.799 147.059 327.196 141.181 323.497 140.521C319.799 139.861 322.252 146.648 324.855 150.558C327.587 154.338 331.335 157.266 335.664 159.002C339.151 160.247 349.911 164.942 349.911 164.942L364.705 144.842Z" fill="#DD6A57"/>
<path d="M328.853 144.37C330.36 145.541 332.078 147.06 334.071 147.135C335.002 147.119 335.909 146.832 336.68 146.311C337.452 145.789 338.055 145.054 338.417 144.196C339.477 142.547 339.856 140.552 339.475 138.629C339.008 136.894 338.053 135.33 336.723 134.121C335.088 132.665 333.256 131.445 331.281 130.497C331.194 130.497 331.281 130.335 331.356 130.373C333.211 131.195 338.965 133.548 340.073 138.642C340.441 140.6 340.039 142.625 338.952 144.295C338.593 145.148 338.026 145.897 337.305 146.475C336.583 147.053 335.728 147.443 334.818 147.608C332.439 147.795 330.397 145.865 328.691 144.42C328.654 144.358 328.766 144.308 328.853 144.37Z" fill="#263238"/>
<path d="M384.355 156.612C381.354 156.226 369.66 146.014 364.704 142.913L347.27 170.709C350.794 174.083 374.318 182.029 380.806 183.162C394.704 185.528 419.411 165.528 428.464 155.105C436.435 145.952 434.367 139.787 428.826 139.75C427.983 139.759 427.145 139.88 426.335 140.111C418.988 141.992 387.294 156.998 384.355 156.612Z" fill="#084C3F"/>
<path d="M394.12 172.149C393.554 170.579 393.388 168.893 393.634 167.242C394.201 168.812 394.368 170.498 394.12 172.149Z" fill="white"/>
<path d="M353.521 171.289C352.939 169.723 352.772 168.033 353.035 166.383C353.603 167.953 353.77 169.639 353.521 171.289Z" fill="white"/>
<path d="M413.758 146.921C414.532 146.623 415.346 146.439 416.174 146.374C417.003 146.275 417.841 146.296 418.664 146.436C417.89 146.734 417.076 146.919 416.248 146.984C415.42 147.082 414.581 147.061 413.758 146.921Z" fill="white"/>
<path d="M374.568 162.995C375.345 162.7 376.157 162.512 376.984 162.435C377.813 162.338 378.652 162.359 379.475 162.497C378.675 162.798 377.836 162.987 376.984 163.058C376.18 163.137 375.368 163.116 374.568 162.995Z" fill="white"/>
<path d="M370.807 175.238C370.05 174.894 369.342 174.45 368.702 173.918C368.054 173.402 367.48 172.798 366.996 172.125C367.758 172.46 368.467 172.905 369.101 173.445C369.755 173.955 370.33 174.559 370.807 175.238Z" fill="white"/>
<path d="M397.333 157.582C396.573 157.243 395.864 156.799 395.228 156.262C394.573 155.749 393.994 155.145 393.51 154.469C394.272 154.803 394.982 155.248 395.614 155.789C396.27 156.301 396.849 156.905 397.333 157.582Z" fill="white"/>
<path d="M385.901 177.508C385.556 178.265 385.113 178.973 384.581 179.612C384.064 180.264 383.456 180.839 382.775 181.318C383.477 179.803 384.552 178.492 385.901 177.508Z" fill="white"/>
<path d="M408.678 157.68C407.972 159.192 406.902 160.505 405.564 161.503C405.899 160.74 406.343 160.031 406.884 159.398C407.397 158.743 408.001 158.164 408.678 157.68Z" fill="white"/>
<path d="M364.706 154.117C364.005 155.632 362.929 156.944 361.58 157.928C361.925 157.171 362.369 156.463 362.9 155.823C363.421 155.174 364.028 154.6 364.706 154.117Z" fill="white"/>
<path d="M366.983 147.161C365.738 149.651 364.306 152.017 362.948 154.421C361.591 156.824 360.196 159.228 358.801 161.606C355.987 166.376 355.215 167.385 352.301 172.092C352.284 172.122 352.257 172.143 352.224 172.153C352.191 172.162 352.156 172.158 352.127 172.142C352.097 172.125 352.075 172.097 352.065 172.065C352.056 172.032 352.06 171.997 352.077 171.967C354.567 167.048 355.265 165.952 358.054 161.17C359.416 158.837 360.806 156.525 362.226 154.234C363.733 151.83 365.165 149.365 366.834 147.073C366.847 147.056 366.865 147.045 366.886 147.041C366.907 147.037 366.929 147.04 366.947 147.051C366.965 147.062 366.979 147.079 366.986 147.099C366.992 147.119 366.992 147.141 366.983 147.161Z" fill="#263238"/>
<path d="M428.39 155.019C420.694 163.836 401.865 179.502 387.83 182.69L425.713 140.175L426.236 140.025C427.046 139.794 427.884 139.673 428.726 139.664C434.33 139.701 436.398 145.866 428.39 155.019Z" fill="#263238"/>
<path d="M409.873 181.642L403.123 219.848C403.123 219.848 462.226 220.296 475.352 219.462C475.352 219.462 462.226 162.949 447.407 144.158C447.07 143.722 446.722 143.311 446.386 142.912C446.325 142.828 446.259 142.749 446.186 142.676C439.225 134.88 430.42 136.897 424.381 141.679C422.886 142.925 408.54 158.566 406.797 166.586C405.315 173.759 409.873 181.642 409.873 181.642Z" fill="#084C3F"/>
<path d="M475.389 219.458C470.321 219.781 458.428 219.906 445.726 219.956C425.452 220.018 403.123 219.844 403.123 219.844L409.873 181.637C409.873 181.637 405.315 173.754 406.834 166.693C408.578 158.636 422.924 142.933 424.418 141.787C429.474 137.777 436.473 135.722 442.699 139.732C444.008 140.583 445.194 141.61 446.224 142.783C446.296 142.857 446.363 142.936 446.423 143.02C446.759 143.393 447.108 143.804 447.444 144.265C462.263 162.945 475.389 219.458 475.389 219.458Z" fill="#084C3F"/>
<path d="M447.482 201.993C446.904 200.425 446.732 198.737 446.983 197.086C447.277 197.863 447.466 198.675 447.544 199.502C447.629 200.331 447.608 201.168 447.482 201.993Z" fill="white"/>
<path d="M434.617 168.539C434.323 167.763 434.134 166.95 434.056 166.123C433.959 165.294 433.98 164.456 434.118 163.633C434.414 164.413 434.602 165.23 434.679 166.061C434.763 166.887 434.743 167.719 434.617 168.539Z" fill="white"/>
<path d="M414.803 198.524C414.238 196.954 414.071 195.268 414.318 193.617C414.885 195.187 415.052 196.873 414.803 198.524Z" fill="white"/>
<path d="M427.941 190.481C428.722 190.186 429.539 189.997 430.37 189.92C431.199 189.822 432.037 189.843 432.86 189.983C432.084 190.278 431.271 190.466 430.444 190.543C429.611 190.635 428.769 190.614 427.941 190.481Z" fill="white"/>
<path d="M408.465 171.903C409.265 171.602 410.103 171.413 410.955 171.342C411.784 171.244 412.623 171.265 413.446 171.405C412.67 171.7 411.857 171.888 411.03 171.965C410.177 172.069 409.312 172.048 408.465 171.903Z" fill="white"/>
<path d="M434.344 144.876C435.144 144.576 435.982 144.387 436.834 144.316C437.66 144.197 438.499 144.197 439.325 144.316C438.548 144.61 437.736 144.798 436.909 144.876C436.058 144.988 435.195 144.988 434.344 144.876Z" fill="white"/>
<path d="M410.857 214.392C411.638 214.097 412.455 213.908 413.286 213.832C414.112 213.712 414.95 213.712 415.776 213.832C415 214.127 414.187 214.315 413.36 214.392C412.53 214.505 411.688 214.505 410.857 214.392Z" fill="white"/>
<path d="M444.58 217.793C445.356 217.498 446.169 217.31 446.996 217.233C447.825 217.134 448.664 217.155 449.487 217.295C448.711 217.592 447.898 217.78 447.071 217.856C446.242 217.948 445.404 217.927 444.58 217.793Z" fill="white"/>
<path d="M434.343 212.027C433.586 211.683 432.878 211.239 432.238 210.707C431.583 210.195 431.004 209.591 430.52 208.914C431.287 209.246 432.001 209.691 432.637 210.234C433.285 210.75 433.859 211.354 434.343 212.027Z" fill="white"/>
<path d="M446.598 180.223C445.087 179.52 443.777 178.449 442.787 177.109C443.547 177.449 444.255 177.894 444.892 178.429C445.543 178.943 446.117 179.547 446.598 180.223Z" fill="white"/>
<path d="M426.548 159.137C425.785 158.803 425.076 158.358 424.443 157.817C423.788 157.304 423.209 156.7 422.725 156.023C423.487 156.358 424.196 156.802 424.829 157.343C425.482 157.859 426.06 158.463 426.548 159.137Z" fill="white"/>
<path d="M464.43 211.23C463.671 210.895 462.962 210.455 462.325 209.923C461.676 209.402 461.102 208.795 460.619 208.117C462.13 208.82 463.44 209.89 464.43 211.23Z" fill="white"/>
<path d="M462.811 183.656C462.476 184.419 462.032 185.128 461.49 185.761C460.978 186.416 460.374 186.995 459.697 187.479C460.403 185.967 461.473 184.654 462.811 183.656Z" fill="white"/>
<path d="M424.456 177.953C424.117 178.713 423.673 179.422 423.136 180.058C422.615 180.711 422.008 181.289 421.33 181.776C421.669 181.016 422.113 180.308 422.65 179.672C423.171 179.019 423.778 178.441 424.456 177.953Z" fill="white"/>
<path d="M449.948 155.039C449.603 155.796 449.159 156.504 448.628 157.144C448.107 157.793 447.5 158.367 446.822 158.85C447.167 158.093 447.611 157.385 448.142 156.745C448.663 156.096 449.271 155.522 449.948 155.039Z" fill="white"/>
<path d="M426.436 140.703C426.1 141.462 425.66 142.171 425.128 142.808C424.607 143.457 424 144.031 423.322 144.514C424.025 143.003 425.095 141.693 426.436 140.703Z" fill="white"/>
<path d="M475.389 219.461C470.32 219.785 458.428 219.909 445.725 219.959L442.699 139.648C444.008 140.5 445.194 141.526 446.223 142.699C446.296 142.773 446.363 142.852 446.423 142.936C446.759 143.31 447.108 143.721 447.444 144.181C462.263 162.948 475.389 219.461 475.389 219.461Z" fill="#263238"/>
<path d="M426.722 201.594C426.722 201.594 415.091 205.653 407.706 207.235C403.584 208.119 396.66 210.261 393.933 212.291C389.848 215.33 374.718 230.647 378.354 234.396C381.642 237.795 392.974 222.976 392.974 222.976C392.974 222.976 380.21 236.911 384.929 240.273C389.649 243.636 400.222 225.193 400.222 225.193C400.222 225.193 387.433 239.8 392.837 242.503C396.922 244.532 407.445 228.381 407.445 228.381C407.445 228.381 396.548 241.008 400.658 243.324C405.203 245.815 415.851 231.531 415.851 231.531C427.283 235.554 436.174 230.174 440.981 227.609C442.152 226.948 426.722 201.594 426.722 201.594Z" fill="#DD6A57"/>
<path d="M396.311 218.703C391.534 223.444 387.582 228.95 384.618 234.992C384.512 235.227 384.421 235.468 384.344 235.714C386.834 231.978 394.966 220.471 396.386 218.753C396.411 218.703 396.349 218.703 396.311 218.703Z" fill="#263238"/>
<path d="M403.36 222.86C398.279 226.596 394.369 233.582 392.725 235.886C392.601 236.06 392.725 236.073 392.862 235.886C394.606 233.657 401.579 225.027 403.41 222.885C403.485 222.872 403.398 222.835 403.36 222.86Z" fill="#263238"/>
<path d="M409.064 226.709C405.906 229.403 403.358 232.74 401.592 236.497C401.492 236.684 401.592 236.671 401.779 236.497C404.357 233.022 405.888 230.818 409.164 226.833C409.213 226.759 409.126 226.659 409.064 226.709Z" fill="#263238"/>
<path d="M440.295 142.622C440.644 151.265 453.272 191.75 453.06 193.394C452.848 195.038 424.779 201.563 418.527 204.216C414.281 206.022 422.462 234.415 430.632 231.688C443.334 227.416 481.777 219.309 485.04 207.491C487.804 197.379 462.375 157.977 456.397 150.717C450.42 143.457 440.009 135.474 440.295 142.622Z" fill="#DD6A57"/>
<path d="M486.311 208.002C481.666 223.121 436.038 234.59 436.038 234.59L412.514 205.3C412.514 205.3 435.452 197.318 450.596 192.847C452.214 192.374 442.538 156.994 440.371 147.567C438.205 138.14 441.779 135.961 453.634 146.77C465.49 157.579 489.051 199.086 486.311 208.002Z" fill="#084C3F"/>
<path d="M473.222 185.714C472.644 184.152 472.472 182.468 472.724 180.82C473.02 181.596 473.209 182.409 473.284 183.236C473.369 184.062 473.348 184.894 473.222 185.714Z" fill="white"/>
<path d="M458.055 211.364C457.754 210.564 457.566 209.726 457.495 208.873C457.396 208.045 457.417 207.206 457.557 206.383C457.852 207.159 458.04 207.972 458.117 208.799C458.215 209.653 458.194 210.516 458.055 211.364Z" fill="white"/>
<path d="M425.128 208.914C424.547 207.348 424.379 205.658 424.643 204.008C425.21 205.578 425.377 207.264 425.128 208.914Z" fill="white"/>
<path d="M479.1 197.335C479.876 197.04 480.689 196.851 481.516 196.774C482.345 196.683 483.183 196.704 484.006 196.837C483.206 197.137 482.368 197.326 481.516 197.397C480.711 197.488 479.898 197.467 479.1 197.335Z" fill="white"/>
<path d="M458.166 172.027C459.736 171.46 461.422 171.293 463.073 171.542C461.502 172.107 459.817 172.274 458.166 172.027Z" fill="white"/>
<path d="M445.141 149.751C446.708 149.173 448.396 149.002 450.047 149.253C449.267 149.548 448.45 149.737 447.619 149.813C446.793 149.898 445.961 149.877 445.141 149.751Z" fill="white"/>
<path d="M463.408 219.134C464.184 218.838 464.997 218.649 465.824 218.574C466.65 218.455 467.489 218.455 468.315 218.574C466.752 219.152 465.068 219.324 463.421 219.072L463.408 219.134Z" fill="white"/>
<path d="M445.938 199.25C446.714 198.958 447.527 198.774 448.353 198.702C449.182 198.603 450.021 198.624 450.844 198.764C450.068 199.06 449.255 199.249 448.428 199.324C447.598 199.412 446.76 199.387 445.938 199.25Z" fill="white"/>
<path d="M427.207 217.46C427.984 217.17 428.797 216.985 429.623 216.912C430.452 216.814 431.291 216.835 432.114 216.974C430.547 217.556 428.857 217.723 427.207 217.46Z" fill="white"/>
<path d="M441.154 209.149C440.397 208.804 439.69 208.361 439.05 207.829C438.401 207.308 437.827 206.701 437.344 206.023C438.859 206.725 440.17 207.8 441.154 209.149Z" fill="white"/>
<path d="M443.248 230.259C441.733 229.557 440.422 228.482 439.438 227.133C440.194 227.478 440.902 227.921 441.542 228.453C442.191 228.974 442.765 229.581 443.248 230.259Z" fill="white"/>
<path d="M462.524 158.579C461.767 158.234 461.06 157.79 460.42 157.259C459.764 156.742 459.185 156.134 458.701 155.453C459.464 155.795 460.176 156.239 460.818 156.773C461.464 157.297 462.038 157.904 462.524 158.579Z" fill="white"/>
<path d="M467.768 199.016C467.008 198.678 466.3 198.233 465.664 197.696C465.011 197.176 464.433 196.568 463.945 195.891C464.705 196.229 465.414 196.674 466.05 197.211C466.703 197.731 467.281 198.339 467.768 199.016Z" fill="white"/>
<path d="M457.955 183.93C457.621 184.692 457.176 185.401 456.635 186.034C456.122 186.69 455.519 187.268 454.842 187.753C455.176 186.99 455.621 186.281 456.162 185.648C456.674 184.993 457.278 184.414 457.955 183.93Z" fill="white"/>
<path d="M476.111 206.023C475.773 206.784 475.328 207.492 474.791 208.128C474.279 208.784 473.675 209.362 472.998 209.847C473.328 209.084 473.768 208.375 474.306 207.742C474.826 207.089 475.434 206.511 476.111 206.023Z" fill="white"/>
<path d="M450.882 216.609C450.547 217.368 450.102 218.073 449.562 218.702C449.041 219.354 448.434 219.933 447.756 220.42C448.095 219.66 448.539 218.951 449.076 218.315C449.596 217.666 450.204 217.092 450.882 216.609Z" fill="white"/>
<path d="M449.624 160.844C448.923 162.359 447.847 163.67 446.498 164.654C446.843 163.897 447.287 163.19 447.818 162.55C448.335 161.898 448.944 161.323 449.624 160.844Z" fill="white"/>
<path d="M419.375 204.383C421.355 206.475 423.111 208.754 424.991 210.946C426.871 213.138 428.727 215.367 430.508 217.596C434.144 222.066 437.768 226.55 441.317 231.095C441.339 231.121 441.349 231.155 441.345 231.189C441.342 231.223 441.325 231.254 441.298 231.276C441.272 231.297 441.238 231.307 441.204 231.304C441.17 231.3 441.139 231.283 441.118 231.257C437.245 226.998 433.509 222.614 429.848 218.156C428.054 215.989 426.299 213.793 424.58 211.568C422.774 209.24 420.844 206.948 419.238 204.507C419.175 204.408 419.3 204.296 419.375 204.383Z" fill="#263238"/>
<path d="M444.767 194.396C442.114 195.18 439.511 195.815 436.884 196.675C431.641 198.393 426.423 200.211 421.218 202.054C418.229 203.125 415.327 204.159 412.376 205.292C412.314 205.292 412.874 205.965 412.911 206.002C412.93 206.02 412.954 206.029 412.98 206.029C413.005 206.029 413.03 206.02 413.048 206.002C413.048 206.002 412.712 205.442 412.7 205.429C415.19 204.557 417.681 203.81 420.172 202.939L428.042 200.348C433.297 198.655 439.437 196.525 444.655 194.719C445.402 194.52 445.501 194.184 444.767 194.396Z" fill="#263238"/>
<path d="M449.325 143.071C449.525 142.623 437.507 158.949 426.137 156.321C420.446 155.076 421.293 141.789 422.402 141.265C429.724 137.754 439.263 134.728 449.325 143.071Z" fill="#DD6A57"/>
<path d="M440.234 139.924C439.848 140.908 434.008 146.798 429.437 145.914C427.943 145.628 429.163 137.359 429.163 137.359V136.736L428.479 127.894L439.45 122.913L441.031 122.266C441.031 122.266 441.031 124.694 441.031 127.72C441.031 127.857 441.031 127.994 441.031 128.144C441.031 128.293 441.031 128.48 441.031 128.642C441.031 129.09 441.031 129.551 441.031 130.012C441.031 130.472 441.031 130.696 441.031 131.07C441.031 131.444 441.031 131.792 441.031 132.166C440.941 134.767 440.675 137.359 440.234 139.924Z" fill="#DD6A57"/>
<path d="M441.005 127.708C439.795 129.984 438.104 131.97 436.051 133.529C433.998 135.087 431.63 136.182 429.113 136.736L428.428 127.894L439.399 122.913L440.981 122.266C440.981 122.266 441.005 124.682 441.005 127.708Z" fill="#263238"/>
<path d="M418.739 112.554C415.152 127.672 423.795 131.545 427.057 132.317C430.021 133.015 440.195 135.02 445.326 120.35C450.457 105.68 444.579 99.1792 437.854 97.2738C431.129 95.3685 422.337 97.4357 418.739 112.554Z" fill="#DD6A57"/>
<path d="M422.077 110.919C422.45 110.919 422.787 110.919 423.148 110.919C423.532 110.955 423.917 110.863 424.244 110.658C424.331 110.574 424.388 110.464 424.406 110.345C424.424 110.225 424.402 110.103 424.343 109.998C424.201 109.807 424.011 109.658 423.792 109.564C423.574 109.47 423.334 109.435 423.098 109.462C422.599 109.449 422.113 109.627 421.741 109.96C421.673 110.038 421.627 110.133 421.608 110.234C421.589 110.336 421.596 110.44 421.631 110.537C421.665 110.635 421.724 110.721 421.802 110.788C421.881 110.856 421.975 110.901 422.077 110.919Z" fill="#263238"/>
<path d="M432.636 112.996C432.288 112.884 431.976 112.734 431.64 112.597C431.269 112.51 430.937 112.304 430.694 112.012C430.638 111.903 430.618 111.778 430.639 111.657C430.659 111.536 430.717 111.425 430.806 111.339C431.006 111.201 431.241 111.12 431.485 111.104C431.728 111.089 431.971 111.14 432.188 111.252C432.668 111.4 433.073 111.725 433.321 112.161C433.595 112.597 433.109 113.12 432.636 112.996Z" fill="#263238"/>
<path d="M429.961 116.586C429.961 116.586 430.035 116.648 430.023 116.698C429.799 117.732 429.699 118.952 430.583 119.475C429.438 119.077 429.637 117.47 429.961 116.586Z" fill="#263238"/>
<path d="M431.094 115.615C432.787 115.802 432.339 119.189 430.72 119.015C429.101 118.84 429.636 115.453 431.094 115.615Z" fill="#263238"/>
<path d="M431.729 115.885C432.003 116.121 432.239 116.507 432.588 116.595C432.937 116.682 433.36 116.383 433.672 116.084H433.734C433.647 116.732 433.298 117.329 432.588 117.329C431.878 117.329 431.567 116.682 431.505 116.009C431.492 115.959 431.629 115.798 431.729 115.885Z" fill="#263238"/>
<path d="M423.472 115.062C423.472 115.062 423.385 115.063 423.385 115.15C423.261 116.196 422.962 117.391 421.953 117.64V117.703C423.136 117.665 423.535 116.084 423.472 115.062Z" fill="#263238"/>
<path d="M422.688 113.848C421.019 113.486 420.422 116.836 421.966 117.185C423.51 117.534 424.095 114.159 422.688 113.848Z" fill="#263238"/>
<path d="M421.952 113.934C421.653 114.071 421.33 114.345 421.006 114.308C420.682 114.27 420.433 113.859 420.259 113.461C420.259 113.461 420.259 113.461 420.196 113.461C420.072 114.109 420.196 114.818 420.757 115.042C421.317 115.267 421.803 114.781 422.077 114.171C422.164 114.096 422.064 113.884 421.952 113.934Z" fill="#263238"/>
<path d="M424.492 119.994C424.492 119.994 424.019 121.526 423.895 122.261C423.895 122.323 424.056 122.385 424.305 122.448C424.917 122.663 425.577 122.707 426.211 122.573C426.846 122.439 427.432 122.133 427.904 121.688C427.967 121.688 427.904 121.539 427.817 121.564C426.778 122.056 425.608 122.2 424.48 121.974C424.48 121.763 425.364 119.384 425.252 119.359C424.668 119.319 424.082 119.357 423.508 119.471C424.393 116.258 425.787 113.245 426.609 110.019C426.609 109.895 426.472 109.833 426.423 109.932C424.847 113.146 423.596 116.508 422.687 119.969C422.562 120.38 424.168 120.069 424.492 119.994Z" fill="#263238"/>
<path d="M424.455 121.892C424.738 122.581 425.188 123.188 425.763 123.661C426.088 123.902 426.479 124.036 426.883 124.047C427.78 124.047 428.004 123.312 428.042 122.627C428.054 122.26 428.025 121.892 427.954 121.531C426.856 122.019 425.63 122.145 424.455 121.892Z" fill="#263238"/>
<path d="M425.764 123.655C426.089 123.896 426.48 124.031 426.884 124.042C427.781 124.042 428.005 123.307 428.043 122.622C427.602 122.513 427.137 122.555 426.724 122.743C426.31 122.93 425.972 123.252 425.764 123.655Z" fill="#FFA2BE"/>
<path d="M445.203 120.408C443.459 120.01 439.686 114.431 440.944 105.937C440.944 105.937 440.346 113.646 440.732 114.854C441.118 116.062 438.627 111.716 439.487 104.891C437.079 106.084 434.512 106.923 431.865 107.382C428.491 107.743 426.523 107.382 426.336 107.12C426.149 106.859 431.131 106.137 432.662 104.866C432.662 104.866 423.422 107.444 419.412 107.096C418.951 107.096 419.96 97.544 426.735 94.5552C433.509 91.5664 442.488 97.4817 444.68 100.433C444.68 100.433 447.668 101.367 450.246 106.448C452.824 111.529 447.071 120.831 445.203 120.408Z" fill="#263238"/>
<path d="M442.65 120.942C442.65 120.942 446.723 116.633 448.715 118.153C450.708 119.672 447.171 126.26 444.469 126.87C444.127 126.967 443.77 126.994 443.419 126.949C443.067 126.905 442.728 126.789 442.422 126.61C442.116 126.431 441.849 126.192 441.638 125.907C441.427 125.622 441.276 125.297 441.193 124.952L442.65 120.942Z" fill="#DD6A57"/>
<path d="M166.101 303.031L165.865 321.699L163.262 463.927H160.335L157.733 321.699L157.496 303.031H166.101Z" fill="#37474F"/>
<path d="M157.496 303.031H166.101L165.865 321.699H157.733L157.496 303.031Z" fill="#263238"/>
<path d="M386.609 303.031L386.372 321.699L383.77 463.927H380.843L378.241 321.699L378.004 303.031H386.609Z" fill="#37474F"/>
<path d="M386.609 303.031L386.372 321.699H378.241L378.004 303.031H386.609Z" fill="#263238"/>
<path d="M136.238 303.031L136.001 321.699L133.399 463.927H130.472L127.869 321.699L127.633 303.031H136.238Z" fill="#37474F"/>
<path d="M127.633 303.031H136.238L136.001 321.699H127.869L127.633 303.031Z" fill="#263238"/>
<path d="M356.734 303.031L356.497 321.699L353.895 463.927H350.968L348.366 321.699L348.129 303.031H356.734Z" fill="#37474F"/>
<path d="M348.129 303.031H356.734L356.497 321.699H348.366L348.129 303.031Z" fill="#263238"/>
<path d="M406.087 295.312H109.152V307.442H406.087V295.312Z" fill="#37474F"/>
<path d="M378.205 292.453H314.195V295.33H378.205V292.453Z" fill="#455A64"/>
<path d="M346.412 292.453H314.195V295.33H346.412V292.453Z" fill="#263238"/>
<path d="M342.949 295.319H280.571L272.414 252.953H334.792L342.949 295.319Z" fill="#455A64"/>
<path d="M311.48 274.135C311.531 274.619 311.479 275.108 311.327 275.57C311.175 276.032 310.927 276.457 310.598 276.816C310.27 277.175 309.869 277.46 309.422 277.653C308.975 277.845 308.492 277.941 308.006 277.933C306.974 277.911 305.985 277.513 305.226 276.814C304.467 276.114 303.99 275.161 303.884 274.135C303.831 273.651 303.881 273.162 304.032 272.7C304.182 272.238 304.429 271.813 304.757 271.454C305.084 271.094 305.485 270.809 305.931 270.616C306.377 270.424 306.86 270.328 307.346 270.336C308.381 270.353 309.374 270.748 310.136 271.449C310.898 272.149 311.377 273.105 311.48 274.135Z" fill="white"/>
</svg>
