<svg width="444" height="335" viewBox="0 0 444 335" fill="none" xmlns="http://www.w3.org/2000/svg">
<path d="M444.001 294.141H0.824219V294.362H444.001V294.141Z" fill="#EBEBEB"/>
<path d="M76.6783 302.578H47.3223V302.8H76.6783V302.578Z" fill="#EBEBEB"/>
<path d="M160.217 300.172H136.826V300.393H160.217V300.172Z" fill="#EBEBEB"/>
<path d="M121.272 307.805H80.5703V308.026H121.272V307.805Z" fill="#EBEBEB"/>
<path d="M399.594 309.32H380.449V309.542H399.594V309.32Z" fill="#EBEBEB"/>
<path d="M376.141 309.32H347.805V309.542H376.141V309.32Z" fill="#EBEBEB"/>
<path d="M295.385 305.578H246.529V305.8H295.385V305.578Z" fill="#EBEBEB"/>
<path d="M210.89 254.606H39.7436C38.4029 254.604 37.1178 254.069 36.1706 253.12C35.2234 252.172 34.6914 250.886 34.6914 249.545V8.96207C34.7031 7.62902 35.2402 6.3544 36.1862 5.41508C37.1322 4.47576 38.4105 3.9476 39.7436 3.94531H210.89C212.232 3.94531 213.519 4.47853 214.468 5.42767C215.417 6.3768 215.951 7.66411 215.951 9.00639V249.545C215.951 250.887 215.417 252.174 214.468 253.124C213.519 254.073 212.232 254.606 210.89 254.606ZM39.7436 4.12258C38.4616 4.12493 37.233 4.63584 36.3273 5.54316C35.4216 6.45049 34.913 7.68009 34.913 8.96207V249.545C34.913 250.827 35.4216 252.056 36.3273 252.964C37.233 253.871 38.4616 254.382 39.7436 254.384H210.89C212.172 254.382 213.402 253.871 214.309 252.964C215.216 252.057 215.727 250.828 215.729 249.545V8.96207C215.727 7.67928 215.216 6.4497 214.309 5.54262C213.402 4.63555 212.172 4.12493 210.89 4.12258H39.7436Z" fill="#EBEBEB"/>
<path d="M402.616 254.606H231.461C230.12 254.604 228.834 254.07 227.885 253.121C226.937 252.172 226.403 250.886 226.4 249.545V8.96207C226.414 7.62821 226.953 6.3536 227.901 5.41452C228.848 4.47545 230.128 3.94757 231.461 3.94531H402.616C403.948 3.94993 405.224 4.47912 406.168 5.41819C407.112 6.35726 407.648 7.63055 407.66 8.96207V249.545C407.66 250.884 407.129 252.169 406.184 253.117C405.238 254.066 403.955 254.601 402.616 254.606ZM231.461 4.12258C230.179 4.12493 228.949 4.63555 228.042 5.54262C227.135 6.4497 226.624 7.67928 226.622 8.96207V249.545C226.624 250.828 227.135 252.057 228.042 252.964C228.949 253.871 230.179 254.382 231.461 254.384H402.616C403.899 254.382 405.129 253.871 406.036 252.964C406.943 252.057 407.453 250.828 407.456 249.545V8.96207C407.453 7.67928 406.943 6.4497 406.036 5.54262C405.129 4.63555 403.899 4.12493 402.616 4.12258H231.461Z" fill="#EBEBEB"/>
<path d="M63.1961 150.063L303.008 150.062V16.5511L63.1961 16.5511L63.1961 150.063Z" fill="#E0E0E0"/>
<path d="M50.0341 150.063L301.803 150.062V16.5511L50.0341 16.5511L50.0341 150.063Z" fill="#F5F5F5"/>
<path d="M297.682 145.941V20.6641L54.1384 20.6641V145.941H297.682Z" fill="white"/>
<path d="M199.074 145.95L153.09 20.6641H228.979L274.963 145.95H199.074Z" fill="#F5F5F5"/>
<path d="M126.031 145.95L80.0469 20.6641H137.296L183.272 145.95H126.031Z" fill="#F5F5F5"/>
<path d="M384.172 290H397.822V198.147H384.172V290Z" fill="#F0F0F0"/>
<path d="M245.298 294.141H395.189V290.001H245.298V294.141Z" fill="#F0F0F0"/>
<path d="M384.172 198.133H242.684V289.986H384.172V198.133Z" fill="#F5F5F5"/>
<path d="M385.59 198.133H399.541V194.516H385.59V198.133Z" fill="#F0F0F0"/>
<path d="M385.58 194.531H240.963V198.148H385.58V194.531Z" fill="#FAFAFA"/>
<path d="M379.36 241.673H247.488V205.625H379.36V241.673ZM248.605 240.6H378.243V206.742H248.605V240.6Z" fill="#E0E0E0"/>
<path d="M379.36 282.505H247.488V246.953H379.36V282.505ZM248.605 281.37H378.243V248.07H248.605V281.37Z" fill="#E0E0E0"/>
<path d="M273.644 212.817H353.203C353.593 212.817 353.968 212.662 354.244 212.386C354.52 212.11 354.675 211.736 354.675 211.345C354.672 210.957 354.516 210.585 354.241 210.311C353.965 210.037 353.592 209.883 353.203 209.883H273.644C273.256 209.883 272.884 210.037 272.61 210.311C272.336 210.585 272.182 210.957 272.182 211.345C272.18 211.538 272.217 211.729 272.29 211.908C272.363 212.086 272.471 212.248 272.607 212.385C272.743 212.522 272.904 212.63 273.082 212.704C273.26 212.779 273.451 212.817 273.644 212.817Z" fill="#E0E0E0"/>
<path d="M273.644 254.154H353.203C353.593 254.151 353.966 253.996 354.241 253.72C354.516 253.445 354.672 253.072 354.675 252.682C354.672 252.293 354.516 251.92 354.241 251.644C353.966 251.369 353.593 251.213 353.203 251.211H273.644C273.255 251.213 272.883 251.369 272.609 251.645C272.335 251.921 272.182 252.294 272.182 252.682C272.182 253.071 272.335 253.444 272.609 253.72C272.883 253.995 273.255 254.151 273.644 254.154Z" fill="#E0E0E0"/>
<path d="M126.34 183.985H103.428C99.392 184.039 95.4889 185.435 92.3328 187.951C89.1766 190.467 86.9465 193.96 85.9933 197.883L79.9395 223.153L67.5306 223.108C64.6489 223.104 61.8557 224.103 59.6303 225.934C57.4049 227.765 55.886 230.313 55.3344 233.142L53.6858 241.801C52.4326 241.989 51.2635 242.545 50.3275 243.399C49.3914 244.253 48.7308 245.366 48.4297 246.597H109.845C113.876 246.54 117.774 245.146 120.926 242.634C124.079 240.122 126.308 236.633 127.262 232.716L135.948 196.429C136.343 194.959 136.392 193.419 136.094 191.927C135.795 190.435 135.156 189.032 134.226 187.828C133.296 186.623 132.1 185.65 130.733 184.983C129.365 184.317 127.862 183.975 126.34 183.985ZM66.1656 241.73H56.9741L58.5164 233.753C58.9158 231.671 60.0277 229.792 61.6612 228.44C63.2948 227.088 65.348 226.347 67.4686 226.343H79.133L77.6616 232.495C77.0395 235.09 75.5728 237.406 73.4921 239.077C71.4113 240.749 68.8343 241.682 66.1656 241.73Z" fill="#E6E6E6"/>
<path d="M108.34 246.594H110.963L121.289 294.138H118.666L108.34 246.594Z" fill="#E0E0E0"/>
<path d="M98.4922 246.594H101.116L111.442 294.138H108.818L98.4922 246.594Z" fill="#E0E0E0"/>
<path d="M59.8383 246.594H57.2147L46.8887 294.138H49.5123L59.8383 246.594Z" fill="#E0E0E0"/>
<path d="M69.6859 246.594H67.0623L56.7363 294.138H59.3599L69.6859 246.594Z" fill="#E0E0E0"/>
<path d="M211.403 183.985H188.5C184.464 184.04 180.561 185.435 177.405 187.951C174.248 190.467 172.018 193.961 171.065 197.883L165.011 223.153L152.602 223.109C149.729 223.109 146.945 224.111 144.73 225.942C142.515 227.773 141.008 230.319 140.468 233.142L138.811 241.802C137.559 241.992 136.392 242.549 135.456 243.403C134.521 244.256 133.859 245.368 133.555 246.597H194.935C198.967 246.541 202.866 245.147 206.02 242.635C209.174 240.123 211.404 236.634 212.36 232.717L221.047 196.429C221.442 194.957 221.491 193.413 221.19 191.918C220.89 190.424 220.247 189.019 219.313 187.814C218.38 186.609 217.18 185.636 215.807 184.972C214.435 184.307 212.928 183.97 211.403 183.985ZM151.229 241.731H142.037L143.579 233.754C143.981 231.67 145.094 229.792 146.729 228.44C148.364 227.088 150.419 226.347 152.54 226.344H164.214L162.733 232.495C162.114 235.093 160.647 237.412 158.563 239.084C156.48 240.756 153.9 241.688 151.229 241.731Z" fill="#E6E6E6"/>
<path d="M193.402 246.594H196.035L206.361 294.138H203.737L193.402 246.594Z" fill="#E0E0E0"/>
<path d="M183.555 246.594H186.178L196.513 294.138H193.89L183.555 246.594Z" fill="#E0E0E0"/>
<path d="M144.911 246.594H142.287L131.961 294.138H134.585L144.911 246.594Z" fill="#E0E0E0"/>
<path d="M154.756 246.594H152.133L141.807 294.138H144.43L154.756 246.594Z" fill="#E0E0E0"/>
<path d="M320.045 194.494H362.856L366.33 156.328H323.519L320.045 194.494Z" fill="#E6E6E6"/>
<path d="M318.59 194.494H361.401L364.866 156.328H322.064L318.59 194.494Z" fill="#F0F0F0"/>
<path d="M357.554 190.266L360.258 160.547H325.903L323.199 190.266H357.554Z" fill="white"/>
<path d="M310.135 166.617L307.6 194.493H328.11L330.654 166.617H310.135Z" fill="#E6E6E6"/>
<path d="M309.07 166.617L306.535 194.493H327.054L329.589 166.617H309.07Z" fill="#F0F0F0"/>
<path d="M311.881 169.703L309.904 191.401H324.246L326.222 169.703H311.881Z" fill="white"/>
<path d="M222.412 334.169C317.325 334.169 394.267 329.676 394.267 324.135C394.267 318.594 317.325 314.102 222.412 314.102C127.499 314.102 50.5566 318.594 50.5566 324.135C50.5566 329.676 127.499 334.169 222.412 334.169Z" fill="#F5F5F5"/>
<path d="M362.111 232.125H128.619C127.246 232.135 125.885 231.862 124.621 231.324C123.357 230.785 122.218 229.993 121.273 228.995C120.329 227.998 119.6 226.816 119.132 225.525C118.663 224.234 118.465 222.86 118.551 221.489L127.263 43.3319C127.425 40.4811 128.662 37.7977 130.725 35.8235C132.788 33.8493 135.523 32.7315 138.378 32.6956H371.87C373.244 32.6844 374.606 32.9563 375.87 33.4943C377.135 34.0322 378.275 34.8249 379.219 35.8227C380.164 36.8206 380.893 38.0023 381.361 39.2942C381.829 40.5861 382.026 41.9605 381.939 43.3319L373.226 221.489C373.063 224.339 371.825 227.021 369.763 228.995C367.7 230.969 364.966 232.087 362.111 232.125Z" fill="#084C3F"/>
<path opacity="0.7" d="M362.111 232.125H128.619C127.246 232.135 125.885 231.862 124.621 231.324C123.357 230.785 122.218 229.993 121.273 228.995C120.329 227.998 119.6 226.816 119.132 225.525C118.663 224.234 118.465 222.86 118.551 221.489L127.263 43.3319C127.425 40.4811 128.662 37.7977 130.725 35.8235C132.788 33.8493 135.523 32.7315 138.378 32.6956H371.87C373.244 32.6844 374.606 32.9563 375.87 33.4943C377.135 34.0322 378.275 34.8249 379.219 35.8227C380.164 36.8206 380.893 38.0023 381.361 39.2942C381.829 40.5861 382.026 41.9605 381.939 43.3319L373.226 221.489C373.063 224.339 371.825 227.021 369.763 228.995C367.7 230.969 364.966 232.087 362.111 232.125Z" fill="white"/>
<path d="M380.912 34.6151C379.669 33.2375 378.117 32.1743 376.383 31.5129L376.702 30.6797C378.559 31.4004 380.225 32.541 381.568 34.0124L380.912 34.6151Z" fill="#084C3F"/>
<path d="M371.985 29.8203H353.318V30.7067H371.985V29.8203Z" fill="#084C3F"/>
<path d="M371.871 32.7427H138.379C135.523 32.7785 132.788 33.8964 130.725 35.8705C128.662 37.8447 127.425 40.5281 127.264 43.3789H381.957C382.044 42.0061 381.846 40.6301 381.377 39.337C380.908 38.0439 380.178 36.8613 379.231 35.8632C378.285 34.8651 377.143 34.0728 375.876 33.5359C374.61 32.999 373.246 32.729 371.871 32.7427Z" fill="#084C3F"/>
<path d="M125.677 220.099L133.778 55.3524C133.855 54.0243 134.433 52.7748 135.395 51.8566C136.358 50.9384 137.633 50.4201 138.964 50.4066H369.548C370.189 50.3993 370.824 50.5241 371.414 50.7732C372.005 51.0223 372.537 51.3904 372.979 51.8545C373.42 52.3186 373.762 52.8687 373.981 53.4705C374.201 54.0723 374.294 54.713 374.255 55.3524L366.198 220.108C366.122 221.438 365.543 222.69 364.578 223.61C363.614 224.53 362.336 225.049 361.004 225.062H130.384C129.742 225.069 129.106 224.942 128.515 224.692C127.924 224.441 127.391 224.071 126.949 223.606C126.508 223.14 126.167 222.588 125.948 221.985C125.729 221.381 125.637 220.739 125.677 220.099Z" fill="white"/>
<path opacity="0.3" d="M158.401 106.886H147.765C147.534 106.888 147.306 106.844 147.094 106.755C146.881 106.666 146.689 106.534 146.53 106.368C146.37 106.202 146.247 106.005 146.166 105.789C146.086 105.573 146.051 105.343 146.063 105.113L146.949 86.4995C146.981 86.0213 147.192 85.5727 147.54 85.2438C147.889 84.915 148.349 84.7303 148.828 84.7268H159.465C159.696 84.7228 159.925 84.7665 160.138 84.855C160.352 84.9435 160.545 85.0749 160.705 85.2412C160.866 85.4075 160.99 85.605 161.071 85.8215C161.152 86.038 161.187 86.2688 161.175 86.4995L160.289 105.113C160.257 105.593 160.045 106.043 159.695 106.372C159.344 106.701 158.882 106.884 158.401 106.886Z" fill="#084C3F"/>
<path opacity="0.3" d="M179.69 106.886H169.054C168.824 106.888 168.595 106.842 168.383 106.753C168.171 106.664 167.979 106.532 167.819 106.366C167.659 106.201 167.534 106.004 167.453 105.789C167.371 105.573 167.334 105.344 167.343 105.114L168.416 83.1321C168.451 82.6539 168.665 82.2064 169.015 81.8781C169.364 81.5499 169.824 81.3648 170.304 81.3594H180.94C181.17 81.358 181.398 81.4034 181.611 81.4928C181.823 81.5822 182.015 81.7137 182.175 81.8794C182.335 82.0452 182.459 82.2417 182.541 82.457C182.623 82.6723 182.66 82.902 182.651 83.1321L181.578 105.114C181.543 105.592 181.329 106.039 180.979 106.368C180.63 106.696 180.17 106.881 179.69 106.886Z" fill="#084C3F"/>
<path opacity="0.3" d="M200.981 106.885H190.345C190.115 106.887 189.886 106.841 189.674 106.752C189.462 106.662 189.27 106.531 189.11 106.365C188.95 106.199 188.825 106.003 188.744 105.788C188.662 105.572 188.625 105.343 188.634 105.112L189.822 80.8352C189.857 80.357 190.071 79.9095 190.421 79.5812C190.77 79.253 191.23 79.0679 191.71 79.0625H202.346C202.576 79.0611 202.805 79.1065 203.017 79.1959C203.229 79.2853 203.421 79.4168 203.581 79.5826C203.741 79.7483 203.866 79.9448 203.947 80.1601C204.029 80.3754 204.066 80.6051 204.057 80.8352L202.913 105.086C202.884 105.576 202.667 106.037 202.307 106.372C201.947 106.707 201.473 106.891 200.981 106.885Z" fill="#084C3F"/>
<path opacity="0.3" d="M222.279 106.89H211.643C211.413 106.891 211.185 106.846 210.974 106.757C210.762 106.667 210.57 106.535 210.411 106.369C210.252 106.204 210.128 106.007 210.047 105.792C209.967 105.576 209.93 105.347 209.941 105.117L211.227 78.7571C211.262 78.2789 211.476 77.8314 211.825 77.5031C212.175 77.1749 212.635 76.9898 213.114 76.9844H223.751C223.981 76.983 224.209 77.0284 224.422 77.1178C224.634 77.2072 224.826 77.3387 224.986 77.5044C225.146 77.6702 225.27 77.8667 225.352 78.082C225.434 78.2973 225.471 78.527 225.461 78.7571L224.185 105.091C224.16 105.578 223.948 106.037 223.593 106.372C223.238 106.708 222.768 106.893 222.279 106.89Z" fill="#084C3F"/>
<path d="M243.571 106.89H232.935C232.704 106.892 232.476 106.846 232.264 106.757C232.052 106.667 231.86 106.536 231.7 106.37C231.54 106.204 231.415 106.008 231.334 105.793C231.252 105.577 231.215 105.348 231.224 105.117L232.908 70.7181C232.942 70.2391 233.155 69.7904 233.505 69.4617C233.855 69.1331 234.316 68.9486 234.796 68.9453H245.432C245.663 68.9439 245.891 68.9893 246.103 69.0787C246.315 69.1681 246.507 69.2996 246.667 69.4654C246.827 69.6311 246.952 69.8276 247.034 70.0429C247.115 70.2582 247.153 70.4879 247.143 70.7181L245.459 105.091C245.43 105.574 245.219 106.028 244.869 106.362C244.518 106.695 244.055 106.884 243.571 106.89Z" fill="#084C3F"/>
<path d="M240.797 65.2499L241.807 63.6367C241.863 63.5495 241.894 63.4489 241.898 63.3454C241.901 63.242 241.877 63.1395 241.827 63.0488C241.777 62.9581 241.703 62.8826 241.614 62.83C241.525 62.7775 241.423 62.75 241.32 62.7503H239.45C239.345 62.7467 239.241 62.7718 239.149 62.823C239.057 62.8742 238.981 62.9496 238.929 63.0408C238.877 63.1321 238.851 63.2359 238.854 63.3409C238.856 63.4459 238.888 63.5482 238.944 63.6367L239.831 65.2499C239.882 65.3324 239.953 65.4005 240.037 65.4477C240.122 65.4949 240.217 65.5197 240.314 65.5197C240.411 65.5197 240.506 65.4949 240.59 65.4477C240.675 65.4005 240.746 65.3324 240.797 65.2499Z" fill="#263238"/>
<path opacity="0.3" d="M264.86 106.888H254.224C253.994 106.889 253.765 106.844 253.553 106.754C253.341 106.665 253.149 106.533 252.989 106.367C252.829 106.202 252.704 106.005 252.623 105.79C252.541 105.575 252.504 105.345 252.513 105.115L253.931 76.1399C253.967 75.6617 254.181 75.2142 254.53 74.8859C254.88 74.5577 255.34 74.3726 255.819 74.3672H266.456C266.686 74.3658 266.914 74.4112 267.126 74.5006C267.339 74.59 267.531 74.7215 267.69 74.8873C267.85 75.053 267.975 75.2495 268.057 75.4648C268.139 75.6801 268.176 75.9098 268.166 76.1399L266.73 105.088C266.704 105.569 266.496 106.022 266.149 106.355C265.802 106.689 265.341 106.879 264.86 106.888Z" fill="#084C3F"/>
<path opacity="0.1" d="M265.791 112.67H146.302C146.226 112.671 146.15 112.657 146.08 112.628C146.01 112.599 145.947 112.555 145.894 112.5C145.842 112.445 145.801 112.38 145.775 112.308C145.749 112.237 145.738 112.161 145.743 112.085C145.754 111.928 145.824 111.78 145.939 111.671C146.054 111.563 146.206 111.502 146.364 111.5H265.844C265.92 111.499 265.996 111.513 266.066 111.542C266.136 111.572 266.199 111.615 266.252 111.67C266.304 111.725 266.345 111.79 266.371 111.862C266.397 111.933 266.408 112.009 266.403 112.085C266.396 112.243 266.328 112.391 266.214 112.5C266.1 112.609 265.949 112.67 265.791 112.67Z" fill="#263238"/>
<path opacity="0.1" d="M274.299 216.303L281.993 59.1522C282 59.0018 282.065 58.8597 282.173 58.7557C282.282 58.6517 282.427 58.5937 282.578 58.5938H282.631C282.704 58.5925 282.776 58.6061 282.843 58.6341C282.91 58.662 282.97 58.7035 283.02 58.756C283.07 58.8086 283.109 58.8709 283.133 58.9391C283.158 59.0073 283.168 59.0799 283.163 59.1522L275.478 216.303C275.47 216.453 275.405 216.595 275.296 216.7C275.188 216.805 275.044 216.866 274.893 216.87H274.831C274.759 216.869 274.687 216.853 274.621 216.824C274.554 216.794 274.495 216.752 274.445 216.699C274.395 216.646 274.357 216.584 274.332 216.516C274.307 216.448 274.296 216.375 274.299 216.303Z" fill="#263238"/>
<path d="M313.753 88.4187C312.944 92.6763 313.699 97.0828 315.88 100.828L310.615 104.107C307.729 99.1308 306.726 93.2837 307.788 87.6299C308.881 81.8418 311.885 76.588 316.319 72.7101C320.753 68.8322 326.36 66.5547 332.242 66.2422V72.2871C327.795 72.506 323.552 74.2169 320.198 77.1438C316.843 80.0708 314.572 84.0428 313.753 88.4187Z" fill="#084C3F"/>
<path opacity="0.3" d="M355.366 81.4649L349.658 83.7694C348.564 80.7584 346.662 78.1068 344.16 76.1055C341.658 74.1042 338.654 72.8305 335.476 72.4241C334.408 72.2771 333.328 72.2266 332.25 72.2734V66.2284C337.219 65.9978 342.133 67.3482 346.287 70.0859C350.44 72.8235 353.619 76.8073 355.366 81.4649Z" fill="#084C3F"/>
<path d="M356.378 94.1274C353.931 107.547 340.955 117.111 327.624 115.329C324.122 114.878 320.768 113.633 317.821 111.688C314.873 109.743 312.408 107.15 310.615 104.108L315.88 100.864C317.229 103.163 319.088 105.123 321.313 106.592C323.538 108.061 326.07 109 328.715 109.337C333.68 109.922 338.681 108.599 342.709 105.638C346.737 102.676 349.49 98.2963 350.412 93.3828C351.013 90.1855 350.743 86.8857 349.632 83.8279L355.341 81.5234C356.796 85.5588 357.154 89.9084 356.378 94.1274Z" fill="#263238"/>
<path d="M313.602 70.1742C313.541 70.1752 313.481 70.164 313.425 70.1412C313.368 70.1183 313.317 70.0843 313.274 70.0413L309.348 65.902H295.857C295.74 65.902 295.627 65.8553 295.544 65.7722C295.461 65.6891 295.414 65.5763 295.414 65.4588C295.414 65.3413 295.461 65.2285 295.544 65.1454C295.627 65.0623 295.74 65.0156 295.857 65.0156H309.534C309.594 65.0154 309.653 65.0278 309.708 65.0523C309.763 65.0767 309.813 65.1126 309.853 65.1574L313.921 69.4297C313.984 69.4909 314.026 69.5697 314.043 69.6557C314.061 69.7416 314.051 69.8307 314.017 69.9112C313.982 69.9918 313.924 70.06 313.85 70.1069C313.776 70.1539 313.69 70.1773 313.602 70.1742Z" fill="#263238"/>
<path opacity="0.3" d="M339.262 140.231C335.559 137.94 331.148 137.073 326.853 137.794L326.197 131.811C331.876 130.889 337.697 132.033 342.604 135.037C352.522 141.189 356.271 153.899 351.467 165.023L345.927 162.86C349.535 154.626 346.902 144.965 339.262 140.231Z" fill="#084C3F"/>
<path d="M327.242 180.835L327.65 174.781C330.971 174.813 334.246 174.004 337.17 172.427C340.093 170.851 342.569 168.559 344.367 165.767C344.972 164.844 345.497 163.872 345.935 162.859L351.475 165.022C350.895 166.367 350.201 167.66 349.401 168.887C347.013 172.583 343.729 175.616 339.855 177.705C335.982 179.794 331.643 180.87 327.242 180.835Z" fill="#263238"/>
<path d="M315.135 177.318C303.878 170.342 300.829 155.053 308.372 143.459C310.369 140.377 312.99 137.747 316.066 135.741C319.143 133.735 322.606 132.397 326.232 131.812L326.888 137.795C324.15 138.232 321.535 139.24 319.213 140.753C316.89 142.267 314.912 144.252 313.406 146.579C307.68 155.389 309.967 166.832 318.512 172.133C321.259 173.835 324.418 174.755 327.65 174.792L327.242 180.846C322.962 180.787 318.777 179.568 315.135 177.318Z" fill="#084C3F"/>
<path d="M310.401 135.488C310.28 135.484 310.165 135.433 310.082 135.346L306.146 131.207H292.656C292.539 131.207 292.426 131.16 292.343 131.077C292.26 130.994 292.213 130.881 292.213 130.763C292.213 130.646 292.26 130.533 292.343 130.45C292.426 130.367 292.539 130.32 292.656 130.32H306.341C306.462 130.324 306.577 130.375 306.66 130.462L310.72 134.734C310.761 134.776 310.794 134.825 310.817 134.879C310.839 134.933 310.851 134.99 310.851 135.049C310.851 135.108 310.839 135.165 310.817 135.219C310.794 135.273 310.761 135.322 310.72 135.364C310.633 135.443 310.519 135.487 310.401 135.488Z" fill="#263238"/>
<path d="M298.694 202.852H294.209C293.603 202.862 293.022 203.1 292.583 203.519C292.145 203.938 291.88 204.506 291.842 205.112L291.621 209.606C291.604 209.898 291.647 210.191 291.748 210.465C291.849 210.74 292.005 210.992 292.207 211.204C292.409 211.415 292.652 211.584 292.922 211.698C293.192 211.812 293.482 211.869 293.775 211.866H298.26C298.868 211.858 299.45 211.621 299.891 211.202C300.331 210.783 300.597 210.213 300.635 209.606L300.857 205.112C300.872 204.819 300.828 204.526 300.726 204.251C300.624 203.976 300.467 203.725 300.265 203.514C300.062 203.302 299.818 203.134 299.548 203.02C299.278 202.906 298.987 202.849 298.694 202.852Z" fill="#084C3F"/>
<path d="M323.848 202.853H319.363C318.749 202.861 318.162 203.103 317.721 203.53C317.279 203.956 317.017 204.535 316.988 205.148L316.775 209.642C316.758 209.934 316.801 210.226 316.901 210.5C317.002 210.774 317.157 211.025 317.358 211.237C317.559 211.448 317.801 211.617 318.07 211.731C318.339 211.846 318.628 211.904 318.92 211.902H323.458C324.065 211.892 324.645 211.654 325.084 211.235C325.522 210.816 325.787 210.247 325.825 209.642L326.046 205.148C326.069 204.849 326.028 204.549 325.927 204.267C325.826 203.985 325.666 203.727 325.459 203.51C325.252 203.294 325.001 203.123 324.724 203.01C324.446 202.897 324.148 202.843 323.848 202.853Z" fill="#263238"/>
<path opacity="0.3" d="M349.011 202.852H344.518C343.911 202.862 343.331 203.1 342.892 203.519C342.453 203.938 342.189 204.506 342.151 205.112L341.929 209.606C341.912 209.897 341.955 210.189 342.056 210.463C342.156 210.738 342.311 210.988 342.512 211.2C342.713 211.412 342.956 211.58 343.224 211.695C343.493 211.809 343.782 211.867 344.074 211.866H348.568C349.18 211.857 349.765 211.616 350.205 211.191C350.644 210.766 350.905 210.19 350.935 209.579L351.156 205.085C351.17 204.796 351.124 204.507 351.022 204.236C350.92 203.965 350.764 203.717 350.563 203.508C350.363 203.299 350.121 203.133 349.855 203.02C349.588 202.908 349.301 202.85 349.011 202.852Z" fill="#084C3F"/>
<path d="M158.525 148.765L158.456 150.136H153.275C153.357 149.618 153.55 149.127 153.853 148.665C154.157 148.199 154.742 147.583 155.608 146.816C156.305 146.196 156.735 145.775 156.897 145.555C157.115 145.25 157.232 144.949 157.247 144.651C157.264 144.322 157.187 144.07 157.017 143.894C156.85 143.716 156.611 143.627 156.299 143.627C155.99 143.627 155.74 143.719 155.548 143.905C155.357 144.091 155.236 144.399 155.187 144.83L153.721 144.683C153.849 143.87 154.154 143.287 154.634 142.933C155.115 142.579 155.702 142.402 156.397 142.402C157.158 142.402 157.746 142.607 158.16 143.017C158.574 143.427 158.766 143.936 158.736 144.546C158.718 144.893 158.639 145.224 158.497 145.539C158.358 145.851 158.146 146.178 157.858 146.521C157.668 146.749 157.329 147.076 156.841 147.504C156.354 147.931 156.043 148.215 155.91 148.355C155.78 148.495 155.673 148.632 155.589 148.765H158.525ZM159.581 148.155L161.062 148.003C161.087 148.336 161.198 148.6 161.395 148.796C161.593 148.989 161.826 149.085 162.096 149.085C162.405 149.085 162.672 148.961 162.899 148.712C163.125 148.46 163.251 148.082 163.276 147.577C163.3 147.105 163.211 146.751 163.009 146.516C162.81 146.278 162.541 146.159 162.201 146.159C161.776 146.159 161.386 146.346 161.031 146.721L159.84 146.548L160.798 142.539H164.707L164.638 143.921H161.85L161.553 145.229C161.891 145.064 162.231 144.982 162.575 144.982C163.231 144.982 163.775 145.22 164.207 145.697C164.639 146.173 164.836 146.791 164.798 147.551C164.766 148.185 164.554 148.751 164.161 149.248C163.625 149.928 162.912 150.267 162.021 150.267C161.31 150.267 160.739 150.076 160.309 149.695C159.879 149.313 159.636 148.8 159.581 148.155ZM165.773 150.136L165.847 148.66H167.325L167.252 150.136H165.773ZM168.576 148.155L170.057 148.003C170.082 148.336 170.193 148.6 170.391 148.796C170.588 148.989 170.822 149.085 171.092 149.085C171.4 149.085 171.668 148.961 171.894 148.712C172.121 148.46 172.246 148.082 172.272 147.577C172.295 147.105 172.206 146.751 172.004 146.516C171.805 146.278 171.536 146.159 171.196 146.159C170.771 146.159 170.382 146.346 170.026 146.721L168.835 146.548L169.793 142.539H173.702L173.633 143.921H170.845L170.548 145.229C170.886 145.064 171.227 144.982 171.57 144.982C172.226 144.982 172.77 145.22 173.202 145.697C173.634 146.173 173.831 146.791 173.793 147.551C173.761 148.185 173.549 148.751 173.156 149.248C172.621 149.928 171.907 150.267 171.017 150.267C170.305 150.267 169.734 150.076 169.304 149.695C168.874 149.313 168.632 148.8 168.576 148.155ZM177.351 150.136L177.429 148.586H174.273L174.337 147.294L177.927 142.402H179.169L178.925 147.288H179.882L179.817 148.586H178.86L178.782 150.136H177.351ZM177.494 147.288L177.625 144.656L175.721 147.288H177.494ZM180.497 146.272C180.52 145.812 180.638 145.471 180.85 145.249C181.064 145.028 181.344 144.917 181.69 144.917C182.048 144.917 182.321 145.028 182.511 145.249C182.703 145.469 182.788 145.81 182.765 146.272C182.742 146.731 182.623 147.072 182.409 147.294C182.197 147.515 181.918 147.626 181.572 147.626C181.215 147.626 180.94 147.517 180.747 147.297C180.558 147.075 180.474 146.734 180.497 146.272ZM181.265 146.265C181.248 146.598 181.276 146.822 181.347 146.937C181.401 147.021 181.48 147.063 181.583 147.063C181.688 147.063 181.772 147.021 181.834 146.937C181.915 146.822 181.963 146.598 181.98 146.265C181.997 145.931 181.971 145.708 181.901 145.596C181.847 145.51 181.768 145.467 181.663 145.467C181.56 145.467 181.477 145.509 181.414 145.593C181.332 145.707 181.282 145.931 181.265 146.265ZM182.169 150.332H181.44L184.448 144.917H185.156L182.169 150.332ZM183.828 148.984C183.851 148.525 183.968 148.184 184.18 147.962C184.395 147.741 184.677 147.63 185.028 147.63C185.38 147.63 185.652 147.741 185.842 147.962C186.034 148.184 186.118 148.525 186.095 148.984C186.072 149.446 185.954 149.788 185.739 150.01C185.527 150.232 185.248 150.342 184.902 150.342C184.545 150.342 184.27 150.232 184.078 150.01C183.888 149.788 183.805 149.446 183.828 148.984ZM184.596 148.981C184.579 149.315 184.606 149.537 184.678 149.649C184.732 149.736 184.81 149.779 184.913 149.779C185.018 149.779 185.101 149.737 185.161 149.653C185.244 149.539 185.294 149.315 185.31 148.981C185.327 148.647 185.301 148.423 185.232 148.309C185.178 148.225 185.098 148.183 184.993 148.183C184.888 148.183 184.805 148.225 184.745 148.309C184.662 148.423 184.612 148.647 184.596 148.981Z" fill="#263238"/>
<path d="M192.055 163.302H191.949C191.892 163.289 191.838 163.266 191.791 163.232C191.743 163.198 191.703 163.155 191.672 163.106C191.641 163.056 191.621 163.001 191.612 162.943C191.604 162.885 191.607 162.827 191.621 162.77C194.617 150.175 200.972 137.27 208.462 136.853C213.47 136.569 216.324 140.753 219.63 145.584C222.023 149.067 224.726 153.011 228.688 155.989C231.418 158.037 234.201 158.569 236.967 157.576C243.127 155.351 249.021 145.327 252.354 131.42C252.368 131.362 252.393 131.307 252.428 131.258C252.463 131.21 252.508 131.169 252.559 131.137C252.61 131.106 252.667 131.085 252.726 131.076C252.785 131.067 252.845 131.069 252.903 131.083C252.962 131.097 253.016 131.122 253.065 131.157C253.113 131.193 253.154 131.237 253.186 131.288C253.217 131.339 253.238 131.396 253.247 131.455C253.257 131.514 253.254 131.574 253.24 131.632C249.792 146.036 243.827 156.051 237.286 158.409C234.219 159.508 231.152 158.932 228.174 156.698C224.097 153.641 221.349 149.608 218.921 146.062C215.623 141.258 213.035 137.473 208.533 137.713C201.539 138.103 195.468 150.671 192.578 162.947C192.568 163.005 192.546 163.06 192.513 163.11C192.481 163.159 192.44 163.201 192.391 163.234C192.342 163.267 192.288 163.29 192.23 163.302C192.172 163.313 192.113 163.313 192.055 163.302Z" fill="#084C3F"/>
<path opacity="0.1" d="M256.98 169.437H149.598C148.681 169.443 147.772 169.261 146.927 168.903C146.083 168.544 145.32 168.016 144.688 167.352C144.055 166.688 143.565 165.901 143.248 165.04C142.931 164.179 142.793 163.262 142.844 162.346L144.413 131.075C144.519 129.174 145.343 127.384 146.719 126.067C148.094 124.751 149.919 124.006 151.823 123.985H259.16C260.078 123.978 260.987 124.16 261.832 124.519C262.676 124.877 263.438 125.405 264.071 126.069C264.704 126.734 265.194 127.52 265.511 128.381C265.828 129.242 265.965 130.159 265.914 131.075L264.39 162.337C264.287 164.24 263.463 166.032 262.087 167.351C260.711 168.669 258.886 169.415 256.98 169.437ZM151.779 124.897C150.109 124.917 148.508 125.567 147.298 126.718C146.088 127.869 145.358 129.435 145.255 131.102L143.731 162.364C143.678 163.164 143.791 163.966 144.063 164.72C144.335 165.474 144.76 166.164 145.311 166.746C145.861 167.329 146.527 167.791 147.264 168.105C148.002 168.418 148.797 168.576 149.598 168.568H256.98C258.65 168.549 260.251 167.898 261.461 166.748C262.671 165.597 263.401 164.03 263.504 162.364L265.037 131.102C265.087 130.302 264.972 129.5 264.698 128.747C264.425 127.993 263.999 127.304 263.448 126.722C262.897 126.14 262.232 125.677 261.494 125.364C260.756 125.05 259.962 124.891 259.16 124.897H151.779Z" fill="#263238"/>
<path opacity="0.1" d="M172.83 132.88H155.475C155.211 132.88 154.95 132.827 154.707 132.723C154.464 132.618 154.245 132.466 154.064 132.274C153.882 132.083 153.741 131.856 153.65 131.608C153.559 131.36 153.52 131.096 153.534 130.832C153.563 130.293 153.797 129.785 154.187 129.411C154.577 129.038 155.095 128.826 155.635 128.82H172.981C173.246 128.819 173.508 128.871 173.752 128.975C173.996 129.079 174.216 129.231 174.398 129.423C174.581 129.615 174.722 129.842 174.814 130.09C174.905 130.339 174.945 130.603 174.931 130.868C174.899 131.407 174.665 131.913 174.276 132.287C173.886 132.66 173.37 132.872 172.83 132.88ZM155.635 129.707C155.324 129.713 155.026 129.835 154.801 130.05C154.576 130.266 154.44 130.557 154.421 130.868C154.41 131.013 154.429 131.159 154.478 131.297C154.527 131.434 154.604 131.56 154.704 131.666C154.805 131.768 154.925 131.85 155.057 131.907C155.189 131.963 155.331 131.992 155.475 131.993H172.83C173.141 131.985 173.437 131.862 173.661 131.647C173.886 131.433 174.022 131.142 174.044 130.832C174.054 130.686 174.032 130.54 173.982 130.403C173.932 130.265 173.853 130.14 173.752 130.035C173.654 129.929 173.534 129.845 173.401 129.789C173.268 129.732 173.125 129.704 172.981 129.707H155.635Z" fill="#263238"/>
<path d="M157.089 159.234H152.587L152.365 163.737H156.868L157.089 159.234Z" fill="#084C3F"/>
<path opacity="0.3" d="M162.026 216.826H152.843C152.446 216.829 152.053 216.751 151.687 216.596C151.322 216.441 150.992 216.213 150.718 215.926C150.443 215.638 150.231 215.298 150.094 214.925C149.956 214.553 149.897 214.156 149.918 213.759L150.37 204.568C150.42 203.744 150.779 202.969 151.375 202.398C151.972 201.828 152.762 201.504 153.588 201.492H162.779C163.177 201.489 163.571 201.568 163.937 201.723C164.302 201.879 164.632 202.108 164.906 202.396C165.179 202.685 165.391 203.026 165.526 203.4C165.662 203.774 165.72 204.171 165.696 204.568L165.252 213.759C165.199 214.583 164.837 215.356 164.239 215.924C163.641 216.492 162.851 216.815 162.026 216.826Z" fill="#084C3F"/>
<path opacity="0.1" d="M197.259 211.803H173.566C173.222 211.805 172.881 211.738 172.564 211.604C172.246 211.469 171.96 211.272 171.723 211.022C171.485 210.773 171.301 210.478 171.182 210.155C171.063 209.831 171.012 209.487 171.031 209.143C171.065 208.432 171.369 207.761 171.882 207.267C172.394 206.772 173.076 206.493 173.788 206.484H197.471C197.816 206.483 198.157 206.551 198.474 206.686C198.791 206.82 199.077 207.018 199.315 207.267C199.553 207.516 199.738 207.81 199.858 208.133C199.979 208.456 200.032 208.8 200.015 209.143C199.981 209.855 199.677 210.526 199.165 211.02C198.652 211.514 197.97 211.794 197.259 211.803ZM173.788 207.371C173.31 207.378 172.852 207.564 172.504 207.892C172.157 208.22 171.944 208.667 171.909 209.143C171.898 209.369 171.933 209.594 172.011 209.805C172.088 210.017 172.207 210.211 172.361 210.375C172.517 210.537 172.704 210.665 172.912 210.752C173.119 210.839 173.342 210.883 173.566 210.881H197.259C197.737 210.877 198.196 210.692 198.543 210.363C198.89 210.034 199.1 209.585 199.129 209.108C199.144 208.882 199.112 208.656 199.034 208.444C198.957 208.231 198.835 208.038 198.677 207.876C198.522 207.712 198.335 207.582 198.128 207.493C197.92 207.405 197.697 207.36 197.471 207.362L173.788 207.371Z" fill="#263238"/>
<path d="M157.709 211.806C157.651 211.804 157.594 211.79 157.541 211.766C157.488 211.742 157.44 211.707 157.401 211.664C157.361 211.621 157.331 211.571 157.31 211.516C157.29 211.462 157.281 211.404 157.284 211.345L157.479 207.419C157.478 207.36 157.49 207.302 157.514 207.249C157.538 207.195 157.572 207.147 157.616 207.108C157.659 207.068 157.711 207.039 157.766 207.02C157.822 207.002 157.881 206.996 157.939 207.002C157.998 207.005 158.055 207.018 158.108 207.043C158.161 207.067 158.208 207.102 158.248 207.145C158.287 207.187 158.318 207.238 158.338 207.292C158.358 207.347 158.367 207.405 158.365 207.463L158.17 211.39C158.163 211.506 158.111 211.614 158.025 211.692C157.938 211.77 157.825 211.811 157.709 211.806Z" fill="#084C3F"/>
<path d="M156.017 209.207C155.896 209.203 155.781 209.153 155.697 209.065C155.656 209.024 155.623 208.975 155.6 208.921C155.578 208.867 155.566 208.809 155.566 208.751C155.566 208.692 155.578 208.634 155.6 208.58C155.623 208.526 155.656 208.477 155.697 208.436L157.594 206.663C157.68 206.582 157.795 206.537 157.913 206.539C158.031 206.547 158.141 206.597 158.224 206.681L159.943 208.454C160.024 208.539 160.068 208.654 160.065 208.772C160.061 208.89 160.011 209.002 159.925 209.083C159.84 209.164 159.725 209.208 159.607 209.204C159.489 209.201 159.377 209.151 159.296 209.065L157.887 207.576L156.309 209.083C156.229 209.156 156.125 209.2 156.017 209.207Z" fill="#084C3F"/>
<path d="M152.253 189.847L152.363 187.646C151.686 187.45 151.195 187.154 150.892 186.758C150.593 186.359 150.458 185.876 150.486 185.308C150.515 184.734 150.72 184.252 151.1 183.863C151.485 183.471 151.98 183.245 152.586 183.186L152.612 182.666H153.375L153.349 183.186C153.903 183.252 154.337 183.443 154.651 183.758C154.965 184.07 155.155 184.489 155.22 185.014L153.88 185.187C153.82 184.774 153.624 184.494 153.291 184.347L153.188 186.401C154.018 186.629 154.577 186.925 154.864 187.289C155.151 187.65 155.28 188.114 155.252 188.681C155.22 189.315 155.001 189.849 154.593 190.284C154.189 190.718 153.643 190.984 152.954 191.082L152.905 192.065H152.142L152.19 191.108C151.587 191.035 151.106 190.809 150.746 190.431C150.386 190.052 150.171 189.518 150.1 188.828L151.48 188.681C151.522 188.961 151.615 189.203 151.76 189.406C151.904 189.609 152.068 189.756 152.253 189.847ZM152.529 184.331C152.318 184.401 152.148 184.52 152.016 184.688C151.885 184.856 151.815 185.042 151.805 185.245C151.795 185.431 151.843 185.604 151.947 185.765C152.051 185.923 152.215 186.051 152.438 186.149L152.529 184.331ZM153.012 189.921C153.278 189.872 153.497 189.751 153.672 189.558C153.847 189.362 153.94 189.133 153.954 188.87C153.965 188.636 153.905 188.434 153.773 188.266C153.645 188.094 153.426 187.963 153.115 187.872L153.012 189.921ZM156.128 188.944L157.567 188.77C157.595 189.135 157.703 189.413 157.894 189.606C158.084 189.798 158.321 189.895 158.605 189.895C158.91 189.895 159.172 189.779 159.39 189.548C159.612 189.317 159.733 189.005 159.753 188.613C159.771 188.242 159.686 187.947 159.497 187.73C159.308 187.513 159.07 187.404 158.782 187.404C158.593 187.404 158.365 187.441 158.098 187.515L158.321 186.312C158.721 186.322 159.03 186.236 159.25 186.054C159.469 185.869 159.587 185.623 159.602 185.319C159.615 185.059 159.548 184.853 159.402 184.699C159.255 184.545 159.054 184.468 158.798 184.468C158.545 184.468 158.325 184.555 158.137 184.73C157.95 184.905 157.828 185.161 157.773 185.497L156.422 185.266C156.54 184.8 156.701 184.429 156.904 184.152C157.111 183.872 157.388 183.653 157.736 183.496C158.088 183.334 158.476 183.254 158.9 183.254C159.626 183.254 160.197 183.485 160.612 183.947C160.954 184.326 161.114 184.753 161.09 185.229C161.056 185.905 160.659 186.445 159.899 186.848C160.336 186.942 160.678 187.154 160.925 187.483C161.175 187.812 161.288 188.21 161.265 188.676C161.231 189.352 160.955 189.928 160.437 190.404C159.918 190.881 159.291 191.119 158.554 191.119C157.857 191.119 157.288 190.919 156.848 190.52C156.409 190.117 156.169 189.592 156.128 188.944ZM167.136 189.616L167.067 190.988H161.886C161.968 190.469 162.16 189.979 162.464 189.516C162.768 189.051 163.353 188.434 164.219 187.667C164.916 187.047 165.346 186.627 165.508 186.406C165.726 186.101 165.843 185.8 165.858 185.503C165.874 185.173 165.798 184.921 165.627 184.746C165.461 184.567 165.222 184.478 164.91 184.478C164.601 184.478 164.351 184.571 164.159 184.757C163.968 184.942 163.847 185.25 163.797 185.681L162.332 185.534C162.46 184.721 162.765 184.138 163.245 183.785C163.726 183.431 164.313 183.254 165.008 183.254C165.769 183.254 166.356 183.459 166.771 183.869C167.185 184.278 167.377 184.788 167.347 185.397C167.329 185.744 167.25 186.075 167.108 186.39C166.969 186.702 166.756 187.03 166.469 187.373C166.279 187.601 165.94 187.928 165.452 188.355C164.964 188.783 164.654 189.066 164.521 189.206C164.391 189.347 164.284 189.483 164.2 189.616H167.136ZM168.121 188.944L169.561 188.77C169.588 189.135 169.697 189.413 169.887 189.606C170.078 189.798 170.315 189.895 170.599 189.895C170.904 189.895 171.166 189.779 171.384 189.548C171.606 189.317 171.727 189.005 171.747 188.613C171.765 188.242 171.68 187.947 171.491 187.73C171.302 187.513 171.063 187.404 170.776 187.404C170.587 187.404 170.358 187.441 170.092 187.515L170.315 186.312C170.714 186.322 171.024 186.236 171.243 186.054C171.463 185.869 171.58 185.623 171.596 185.319C171.609 185.059 171.542 184.853 171.395 184.699C171.249 184.545 171.047 184.468 170.791 184.468C170.539 184.468 170.319 184.555 170.131 184.73C169.943 184.905 169.822 185.161 169.767 185.497L168.416 185.266C168.534 184.8 168.694 184.429 168.897 184.152C169.104 183.872 169.382 183.653 169.73 183.496C170.082 183.334 170.47 183.254 170.894 183.254C171.62 183.254 172.191 183.485 172.606 183.947C172.948 184.326 173.107 184.753 173.083 185.229C173.05 185.905 172.653 186.445 171.893 186.848C172.33 186.942 172.672 187.154 172.918 187.483C173.168 187.812 173.282 188.21 173.258 188.676C173.225 189.352 172.948 189.928 172.43 190.404C171.912 190.881 171.285 191.119 170.548 191.119C169.85 191.119 169.282 190.919 168.842 190.52C168.403 190.117 168.163 189.592 168.121 188.944ZM174.421 189.511H175.899L175.847 190.567C175.825 190.995 175.772 191.331 175.686 191.576C175.6 191.825 175.448 192.047 175.231 192.243C175.018 192.439 174.751 192.593 174.43 192.706L174.171 192.096C174.474 191.998 174.693 191.863 174.828 191.692C174.963 191.52 175.041 191.285 175.063 190.988H174.347L174.421 189.511ZM179.952 183.254C180.699 183.254 181.27 183.52 181.664 184.053C182.134 184.683 182.333 185.728 182.26 187.189C182.187 188.646 181.882 189.693 181.345 190.331C180.901 190.856 180.306 191.119 179.559 191.119C178.809 191.119 178.218 190.832 177.787 190.257C177.357 189.679 177.179 188.651 177.252 187.173C177.325 185.723 177.63 184.679 178.166 184.042C178.61 183.517 179.205 183.254 179.952 183.254ZM179.891 184.478C179.712 184.478 179.55 184.536 179.404 184.651C179.258 184.764 179.139 184.967 179.047 185.261C178.926 185.643 178.843 186.285 178.798 187.189C178.753 188.093 178.768 188.714 178.842 189.054C178.916 189.39 179.019 189.615 179.15 189.727C179.285 189.839 179.441 189.895 179.62 189.895C179.799 189.895 179.962 189.839 180.107 189.727C180.253 189.611 180.372 189.406 180.464 189.112C180.585 188.734 180.668 188.093 180.713 187.189C180.758 186.285 180.744 185.665 180.669 185.329C180.595 184.989 180.491 184.764 180.356 184.651C180.225 184.536 180.07 184.478 179.891 184.478ZM183.375 184.762L183.444 183.391H188.499L188.445 184.462C188.007 184.872 187.554 185.461 187.084 186.228C186.614 186.995 186.244 187.811 185.973 188.676C185.705 189.537 185.556 190.308 185.526 190.988H184.1C184.178 189.923 184.451 188.837 184.921 187.73C185.393 186.623 185.998 185.634 186.736 184.762H183.375ZM190.536 186.832C190.162 186.671 189.894 186.45 189.733 186.17C189.575 185.886 189.505 185.576 189.522 185.24C189.55 184.665 189.774 184.191 190.192 183.816C190.614 183.441 191.195 183.254 191.935 183.254C192.668 183.254 193.227 183.441 193.612 183.816C194 184.191 194.179 184.665 194.151 185.24C194.133 185.597 194.024 185.916 193.824 186.196C193.624 186.473 193.353 186.685 193.009 186.832C193.428 187.003 193.74 187.254 193.944 187.583C194.152 187.912 194.245 188.292 194.224 188.723C194.188 189.434 193.931 190.012 193.453 190.457C192.979 190.902 192.364 191.124 191.61 191.124C190.909 191.124 190.334 190.94 189.886 190.572C189.357 190.138 189.112 189.543 189.15 188.786C189.17 188.369 189.293 187.988 189.517 187.641C189.742 187.291 190.081 187.021 190.536 186.832ZM190.916 185.345C190.901 185.639 190.972 185.869 191.128 186.033C191.289 186.198 191.507 186.28 191.784 186.28C192.065 186.28 192.293 186.198 192.47 186.033C192.647 185.865 192.742 185.634 192.757 185.34C192.771 185.063 192.698 184.842 192.538 184.678C192.381 184.51 192.166 184.426 191.893 184.426C191.609 184.426 191.378 184.51 191.201 184.678C191.025 184.846 190.929 185.068 190.916 185.345ZM190.614 188.644C190.594 189.051 190.681 189.368 190.877 189.595C191.076 189.823 191.331 189.937 191.643 189.937C191.948 189.937 192.206 189.828 192.417 189.611C192.628 189.39 192.744 189.073 192.765 188.66C192.783 188.299 192.695 188.01 192.503 187.793C192.31 187.573 192.058 187.462 191.746 187.462C191.385 187.462 191.109 187.587 190.917 187.835C190.73 188.084 190.628 188.354 190.614 188.644ZM195.373 190.988L195.447 189.511H196.925L196.851 190.988H195.373ZM200.941 183.254C201.688 183.254 202.259 183.52 202.653 184.053C203.123 184.683 203.321 185.728 203.248 187.189C203.176 188.646 202.871 189.693 202.334 190.331C201.89 190.856 201.295 191.119 200.548 191.119C199.797 191.119 199.207 190.832 198.776 190.257C198.346 189.679 198.167 188.651 198.241 187.173C198.314 185.723 198.618 184.679 199.155 184.042C199.599 183.517 200.194 183.254 200.941 183.254ZM200.88 184.478C200.701 184.478 200.539 184.536 200.393 184.651C200.247 184.764 200.128 184.967 200.036 185.261C199.915 185.643 199.832 186.285 199.787 187.189C199.742 188.093 199.756 188.714 199.831 189.054C199.905 189.39 200.008 189.615 200.139 189.727C200.274 189.839 200.43 189.895 200.609 189.895C200.788 189.895 200.95 189.839 201.096 189.727C201.242 189.611 201.361 189.406 201.453 189.112C201.574 188.734 201.657 188.093 201.702 187.189C201.747 186.285 201.732 185.665 201.658 185.329C201.584 184.989 201.479 184.764 201.345 184.651C201.214 184.536 201.059 184.478 200.88 184.478ZM206.938 183.254C207.685 183.254 208.256 183.52 208.65 184.053C209.12 184.683 209.318 185.728 209.245 187.189C209.172 188.646 208.867 189.693 208.331 190.331C207.887 190.856 207.292 191.119 206.545 191.119C205.794 191.119 205.204 190.832 204.773 190.257C204.342 189.679 204.164 188.651 204.238 187.173C204.311 185.723 204.615 184.679 205.152 184.042C205.596 183.517 206.191 183.254 206.938 183.254ZM206.877 184.478C206.698 184.478 206.535 184.536 206.389 184.651C206.244 184.764 206.125 184.967 206.033 185.261C205.912 185.643 205.829 186.285 205.784 187.189C205.739 188.093 205.753 188.714 205.827 189.054C205.902 189.39 206.005 189.615 206.136 189.727C206.27 189.839 206.427 189.895 206.606 189.895C206.785 189.895 206.947 189.839 207.093 189.727C207.239 189.611 207.358 189.406 207.45 189.112C207.571 188.734 207.653 188.093 207.699 187.189C207.744 186.285 207.729 185.665 207.655 185.329C207.581 184.989 207.476 184.764 207.342 184.651C207.211 184.536 207.056 184.478 206.877 184.478Z" fill="#263238"/>
<path opacity="0.4" d="M222.617 201.492H213.434C212.608 201.504 211.816 201.827 211.218 202.398C210.62 202.968 210.259 203.743 210.208 204.568L209.765 213.759C209.742 214.155 209.8 214.552 209.937 214.925C210.073 215.297 210.284 215.638 210.558 215.925C210.831 216.213 211.161 216.441 211.526 216.596C211.891 216.751 212.284 216.829 212.681 216.826H221.872C222.696 216.814 223.485 216.492 224.082 215.923C224.679 215.355 225.038 214.582 225.09 213.759L225.542 204.568C225.565 204.171 225.506 203.773 225.369 203.399C225.232 203.026 225.02 202.684 224.746 202.396C224.472 202.108 224.141 201.879 223.775 201.723C223.409 201.568 223.015 201.489 222.617 201.492Z" fill="#263238"/>
<path opacity="0.1" d="M257.095 211.802H233.412C233.068 211.804 232.727 211.736 232.41 211.601C232.093 211.466 231.806 211.269 231.568 211.02C231.33 210.771 231.146 210.476 231.025 210.154C230.905 209.831 230.851 209.487 230.868 209.143C230.902 208.432 231.206 207.761 231.719 207.267C232.231 206.772 232.913 206.493 233.625 206.484H257.317C257.661 206.484 258.002 206.553 258.318 206.688C258.634 206.823 258.92 207.021 259.158 207.27C259.396 207.518 259.58 207.812 259.701 208.135C259.822 208.457 259.876 208.8 259.861 209.143C259.825 209.855 259.519 210.527 259.005 211.021C258.491 211.515 257.808 211.794 257.095 211.802ZM233.625 207.371C233.148 207.378 232.691 207.565 232.345 207.893C231.998 208.221 231.788 208.667 231.755 209.143C231.744 209.369 231.779 209.593 231.856 209.805C231.934 210.017 232.053 210.211 232.207 210.375C232.363 210.537 232.55 210.666 232.757 210.753C232.964 210.84 233.187 210.883 233.412 210.881H257.095C257.575 210.877 258.035 210.693 258.383 210.364C258.732 210.035 258.943 209.586 258.975 209.108C258.992 208.881 258.961 208.652 258.886 208.437C258.81 208.222 258.691 208.024 258.535 207.858C258.379 207.691 258.19 207.559 257.981 207.469C257.771 207.379 257.545 207.333 257.317 207.335L233.625 207.371Z" fill="#263238"/>
<path d="M217.564 211.353C217.506 211.351 217.449 211.337 217.396 211.313C217.343 211.289 217.296 211.254 217.256 211.211C217.217 211.168 217.186 211.118 217.166 211.064C217.146 211.009 217.137 210.951 217.139 210.893L217.334 206.966C217.334 206.907 217.346 206.849 217.369 206.795C217.393 206.74 217.428 206.692 217.471 206.652C217.514 206.612 217.565 206.581 217.621 206.562C217.677 206.543 217.736 206.536 217.795 206.541C217.913 206.547 218.024 206.6 218.104 206.688C218.183 206.776 218.225 206.892 218.22 207.01L218.025 210.928C218.023 210.986 218.009 211.043 217.985 211.096C217.961 211.149 217.926 211.197 217.883 211.236C217.84 211.276 217.79 211.306 217.735 211.327C217.681 211.347 217.623 211.356 217.564 211.353Z" fill="white"/>
<path d="M217.548 211.809C217.431 211.804 217.321 211.757 217.237 211.676L215.518 209.903C215.476 209.862 215.443 209.813 215.421 209.759C215.398 209.705 215.387 209.647 215.387 209.588C215.387 209.53 215.398 209.472 215.421 209.418C215.443 209.364 215.476 209.315 215.518 209.274C215.559 209.232 215.608 209.199 215.662 209.177C215.716 209.154 215.774 209.143 215.832 209.143C215.891 209.143 215.949 209.154 216.003 209.177C216.057 209.199 216.106 209.232 216.147 209.274L217.556 210.763L219.134 209.256C219.175 209.215 219.224 209.182 219.278 209.159C219.332 209.137 219.39 209.125 219.449 209.125C219.507 209.125 219.565 209.137 219.619 209.159C219.673 209.182 219.722 209.215 219.763 209.256C219.805 209.297 219.837 209.345 219.86 209.398C219.882 209.451 219.894 209.509 219.894 209.566C219.894 209.624 219.882 209.681 219.86 209.735C219.837 209.788 219.805 209.836 219.763 209.877L217.867 211.694C217.778 211.77 217.665 211.811 217.548 211.809Z" fill="white"/>
<path d="M100.193 57.1304C96.6476 61.7483 95.9917 68.1123 96.1955 71.3652C96.4437 75.3981 91.1699 75.5842 92.6501 82.6042C93.9176 88.6845 90.2215 90.5813 90.3102 95.341C90.5052 106.376 100.406 109.638 118.868 106.376C137.331 103.114 126.243 86.2559 128.707 79.6171C131.171 72.9784 129.221 57.414 124.275 58.1142C124.816 46.3966 107.31 47.9212 100.193 57.1304Z" fill="#263238"/>
<path d="M106.432 106.764C106.308 109.007 106.069 111.027 105.776 113.146C105.484 115.264 105.103 117.321 104.633 119.395C104.163 121.469 103.631 123.561 102.975 125.599C102.307 127.719 101.499 129.791 100.556 131.804L100.352 132.247C99.8781 133.276 99.0279 134.085 97.9761 134.507C96.9243 134.929 95.7508 134.932 94.6969 134.516C93.4837 134.016 92.2999 133.448 91.1514 132.814C90.0258 132.211 88.9887 131.538 87.9428 130.882C86.897 130.226 85.9131 129.49 84.9381 128.746C83.9631 128.001 83.0236 127.239 82.0929 126.37C81.7024 125.957 81.4516 125.432 81.3758 124.869C81.3 124.305 81.4031 123.732 81.6705 123.231C81.938 122.729 82.3562 122.324 82.8662 122.073C83.3762 121.822 83.9521 121.738 84.5127 121.832H84.6013C85.7358 122.089 86.8792 122.426 87.996 122.718L91.3199 123.693L94.555 124.642C95.6009 124.943 96.6468 125.2 97.5775 125.404L91.7098 128.116C92.286 126.468 92.7557 124.704 93.1989 122.896C93.6421 121.088 93.97 119.217 94.298 117.338C94.6259 115.459 94.9007 113.554 95.1844 111.639C95.468 109.725 95.663 107.757 95.8668 105.975V105.878C95.9844 104.467 96.6574 103.161 97.7379 102.247C98.8183 101.333 100.218 100.885 101.628 101.003C103.039 101.12 104.345 101.793 105.259 102.874C106.173 103.954 106.621 105.354 106.503 106.764H106.432Z" fill="#B55B52"/>
<path d="M81.3932 118.776L79.2128 118.005C78.9452 117.91 78.6615 117.87 78.3782 117.886C78.0948 117.903 77.8176 117.975 77.5626 118.1C77.3076 118.224 77.08 118.398 76.8931 118.612C76.7062 118.826 76.5637 119.074 76.474 119.343L75.6408 121.834C75.4803 122.315 75.4966 122.837 75.6867 123.306C75.8768 123.776 76.2283 124.162 76.6778 124.396L79.4078 125.832C79.4078 125.832 83.8396 129.235 86.0643 127.152L87.2786 123.607L83.9902 120.407C83.2513 119.684 82.3656 119.128 81.3932 118.776Z" fill="#B55B52"/>
<path d="M105.351 94.5703C98.8187 95.8023 97.4359 98.4703 92.623 108.389C94.0767 114.912 106.477 120.647 106.477 120.647C106.477 120.647 116.12 103.008 105.351 94.5703Z" fill="#263238"/>
<path d="M116.564 318.348C120.658 312.888 120.995 311.381 123.575 308.509C124.991 306.863 126.598 305.39 128.361 304.122C130.08 302.73 129.052 300.718 127.475 299.867C126.242 299.211 124.886 298.626 123.397 297.758L116.643 303.271C117.308 306.4 115.916 312.923 113.098 317.266C111.033 320.378 114.924 320.528 116.564 318.348Z" fill="#263238"/>
<path d="M96.6206 144.234C96.6206 144.234 90.3275 188.392 85.6386 218.52C84.6835 224.381 85.2574 230.389 87.305 235.963C95.3265 257.333 116.12 303.796 116.12 303.796C117.078 304.735 122.83 299.266 123.388 297.76C123.388 297.76 116.2 239.039 105.023 225.876C127.829 178.829 127.475 144.234 127.475 144.234H96.6206Z" fill="#084C3F"/>
<g opacity="0.2">
<path d="M127.457 145.547L110.616 146.726C110.616 146.726 107.355 195.227 106.654 222.42C125.347 182.41 127.262 152.07 127.457 145.547Z" fill="black"/>
<path d="M106.556 227.984C106.326 241.927 105.626 260.07 104.252 276.831C108.515 286.643 112.353 295.321 114.454 300.036C116.475 294.195 118.726 287.219 120.756 279.827C117.928 262.765 112.974 238.16 106.556 227.984Z" fill="black"/>
</g>
<path d="M113.142 301.496C113.656 302.25 114.551 303.606 115.172 304.634C115.227 304.715 115.299 304.784 115.382 304.836C115.464 304.889 115.557 304.924 115.654 304.94C115.751 304.956 115.85 304.952 115.945 304.928C116.041 304.904 116.13 304.862 116.209 304.802C119.048 302.776 121.716 300.52 124.186 298.057C124.304 297.947 124.386 297.803 124.423 297.645C124.459 297.487 124.448 297.322 124.39 297.171L123.034 294.086C122.983 293.987 122.911 293.9 122.821 293.833C122.732 293.766 122.629 293.721 122.519 293.7C122.409 293.679 122.296 293.684 122.189 293.714C122.081 293.745 121.982 293.799 121.899 293.874L113.39 300.442C113.225 300.555 113.108 300.726 113.062 300.921C113.017 301.116 113.045 301.321 113.142 301.496Z" fill="#084C3F"/>
<path opacity="0.3" d="M113.142 301.496C113.656 302.25 114.551 303.606 115.172 304.634C115.227 304.715 115.299 304.784 115.382 304.836C115.464 304.889 115.557 304.924 115.654 304.94C115.751 304.956 115.85 304.952 115.945 304.928C116.041 304.904 116.13 304.862 116.209 304.802C119.048 302.776 121.716 300.52 124.186 298.057C124.304 297.947 124.386 297.803 124.423 297.645C124.459 297.487 124.448 297.322 124.39 297.171L123.034 294.086C122.983 293.987 122.911 293.9 122.821 293.833C122.732 293.766 122.629 293.721 122.519 293.7C122.409 293.679 122.296 293.684 122.189 293.714C122.081 293.745 121.982 293.799 121.899 293.874L113.39 300.442C113.225 300.555 113.108 300.726 113.062 300.921C113.017 301.116 113.045 301.321 113.142 301.496Z" fill="white"/>
<path d="M93.0672 320.526C99.5022 321.802 101.984 322.201 105.653 322.804C108.791 323.309 109.376 323.832 111.858 324.275C113.95 324.638 114.694 322.724 114.996 320.402C115.155 319.24 115.439 316.378 115.767 314.516L105.795 313.984C103.42 316.147 97.0824 316.856 93.2622 316.643C89.6371 316.36 90.5057 320.012 93.0672 320.526Z" fill="#263238"/>
<path d="M105.873 144.234C105.873 144.234 109.18 200.961 109.791 226.665C110.42 253.655 109.906 295.801 105.014 313.758C106.352 314.645 112.557 314.645 115.792 313.705C115.792 313.705 135.939 256.535 128.351 227.862C143.623 164.7 134.556 149.783 132.012 144.261L105.873 144.234Z" fill="#084C3F"/>
<path d="M105.865 310.063C105.456 311.276 104.968 312.461 104.403 313.609C104.347 313.691 104.312 313.786 104.301 313.885C104.29 313.984 104.302 314.084 104.338 314.177C104.374 314.27 104.431 314.354 104.506 314.42C104.58 314.486 104.67 314.533 104.766 314.557C108.214 315.444 113.727 315.116 115.491 314.974C115.662 314.957 115.826 314.897 115.967 314.799C116.108 314.701 116.222 314.569 116.298 314.415L117.884 311.1C117.942 311.009 117.975 310.905 117.979 310.797C117.984 310.689 117.959 310.582 117.909 310.486C117.859 310.391 117.784 310.311 117.692 310.253C117.601 310.196 117.496 310.164 117.388 310.161L106.84 309.399C106.629 309.395 106.421 309.456 106.247 309.576C106.072 309.695 105.939 309.865 105.865 310.063Z" fill="#084C3F"/>
<path opacity="0.3" d="M105.865 310.063C105.456 311.276 104.968 312.461 104.403 313.609C104.347 313.691 104.312 313.786 104.301 313.885C104.29 313.984 104.302 314.084 104.338 314.177C104.374 314.27 104.431 314.354 104.506 314.42C104.58 314.486 104.67 314.533 104.766 314.557C108.214 315.444 113.727 315.116 115.491 314.974C115.662 314.957 115.826 314.897 115.967 314.799C116.108 314.701 116.222 314.569 116.298 314.415L117.884 311.1C117.942 311.009 117.975 310.905 117.979 310.797C117.984 310.689 117.959 310.582 117.909 310.486C117.859 310.391 117.784 310.311 117.692 310.253C117.601 310.196 117.496 310.164 117.388 310.161L106.84 309.399C106.629 309.395 106.421 309.456 106.247 309.576C106.072 309.695 105.939 309.865 105.865 310.063Z" fill="white"/>
<path d="M131.765 94.0995C130.356 93.9577 128.875 93.8336 127.333 93.7627C121.983 93.3812 116.613 93.3812 111.264 93.7627C109.491 93.9222 107.718 94.1438 105.945 94.3831C102.89 94.8286 100.084 96.324 98.0106 98.6126C95.9372 100.901 94.725 103.84 94.5824 106.925C94.476 110.408 95.2294 115.664 95.9562 123.952C96.9135 134.757 94.281 140.252 96.5855 144.232C101.097 148.522 121.811 146.377 131.978 144.232C135.036 140.296 129.053 130.05 138.785 104.824C140.77 99.781 137.012 94.6313 131.765 94.0995Z" fill="#263238"/>
<path d="M110.731 102.386C110.544 103.051 110.163 103.512 109.844 103.432C109.525 103.352 109.463 102.75 109.649 102.094C109.835 101.438 110.225 100.968 110.536 101.048C110.846 101.128 110.926 101.73 110.731 102.386Z" fill="white"/>
<path d="M109.438 107.858C109.349 108.541 109.039 109.064 108.738 109.019C108.437 108.975 108.268 108.408 108.348 107.725C108.428 107.043 108.747 106.529 109.039 106.564C109.332 106.6 109.518 107.176 109.438 107.858Z" fill="white"/>
<path d="M123.948 76.2188C123.788 81.5369 123.106 90.3118 126.465 93.7597C126.465 93.7597 121.563 93.024 111.166 99.4589C108.153 95.1335 110.386 93.7597 110.386 93.7597C111.184 93.6435 111.944 93.3422 112.604 92.8799C113.265 92.4176 113.808 91.8072 114.19 91.0974C114.573 90.3877 114.784 89.5983 114.807 88.7924C114.83 87.9864 114.663 87.1864 114.322 86.4561L123.948 76.2188Z" fill="#B55B52"/>
<path d="M113.391 98.169C116.821 98.6565 117.893 103.824 117.893 103.824C117.893 103.824 126.119 98.0095 128.725 93.9057C127.69 93.3244 126.687 92.6883 125.72 92C125.72 92 115.349 96.1925 113.391 98.169Z" fill="white"/>
<path d="M110.094 97.6093C110.094 97.6093 107.373 98.2032 106.008 101.988C105.228 94.445 108.8 93.7448 108.8 93.7448C109.745 93.2242 110.849 93.0666 111.902 93.3016C111.146 93.6965 110.552 94.343 110.222 95.1295C109.891 95.916 109.846 96.7931 110.094 97.6093Z" fill="white"/>
<path opacity="0.2" d="M117.928 83.2457L116.572 84.07L114.32 86.4631C114.904 87.6808 114.98 89.0802 114.533 90.3542C117.103 89.3615 119.692 87.3495 120.374 85.1779C120.476 84.8553 120.478 84.5092 120.379 84.1856C120.28 83.862 120.084 83.5763 119.819 83.3665C119.553 83.1567 119.23 83.0328 118.892 83.0112C118.554 82.9896 118.218 83.0714 117.928 83.2457Z" fill="black"/>
<path d="M122.254 63.681C124.727 71.8088 125.941 75.2035 123.574 80.9471C120.029 89.6068 109.801 91.3352 105.023 84.2266C100.733 77.8183 97.4093 65.6132 103.764 59.1783C105.081 57.7499 106.755 56.6999 108.614 56.1376C110.473 55.5753 112.449 55.5211 114.336 55.9807C116.223 56.4403 117.953 57.3968 119.345 58.7509C120.738 60.1051 121.742 61.8074 122.254 63.681Z" fill="#B55B52"/>
<path opacity="0.4" d="M113.612 58.9038C111.529 64.4524 116.466 71.3571 123.53 70.8253C126.818 64.541 124.824 59.737 123.069 57.7782C121.314 55.8193 115.996 55.4825 113.612 58.9038Z" fill="#263238"/>
<path d="M123.025 58.8479C122.076 65.5753 100.237 61.4094 99.049 68.1546C98.9959 59.3442 108.843 47.5735 123.025 58.8479Z" fill="#263238"/>
<path d="M111.53 71.9788C111.761 72.6524 111.619 73.3438 111.202 73.521C110.786 73.6983 110.254 73.2995 110.014 72.6347C109.775 71.9699 109.926 71.2697 110.342 71.0836C110.759 70.8974 111.291 71.314 111.53 71.9788Z" fill="#263238"/>
<path d="M103.34 74.5384C103.579 75.2121 103.437 75.9034 103.02 76.0807C102.604 76.258 102.072 75.8591 101.833 75.1943C101.593 74.5296 101.744 73.8293 102.161 73.6521C102.577 73.4748 103.109 73.8648 103.34 74.5384Z" fill="#263238"/>
<path d="M102.355 73.6016L100.662 73.7966C100.662 73.7966 101.868 74.7184 102.355 73.6016Z" fill="#263238"/>
<path d="M105.635 74.1562C105.607 75.9395 105.351 77.7119 104.873 79.43C105.293 79.5324 105.731 79.5377 106.153 79.4455C106.576 79.3534 106.971 79.1662 107.311 78.8982L105.635 74.1562Z" fill="#A02724"/>
<path d="M109.437 81.113C109.073 81.264 108.696 81.3827 108.311 81.4675C108.285 81.474 108.258 81.4749 108.232 81.4702C108.206 81.4654 108.181 81.4552 108.16 81.4401C108.138 81.4249 108.119 81.4053 108.106 81.3826C108.092 81.3598 108.084 81.3343 108.081 81.308C108.072 81.253 108.085 81.197 108.116 81.151C108.148 81.1051 108.195 81.0725 108.249 81.0598C109.117 80.8688 109.93 80.4854 110.63 79.9377C111.33 79.39 111.897 78.692 112.291 77.8955C112.297 77.8664 112.309 77.839 112.327 77.8153C112.345 77.7916 112.368 77.7721 112.395 77.7581C112.421 77.7442 112.45 77.7362 112.48 77.7346C112.509 77.7331 112.539 77.7381 112.567 77.7493C112.594 77.7604 112.619 77.7775 112.639 77.7993C112.659 77.821 112.675 77.847 112.684 77.8752C112.693 77.9035 112.696 77.9335 112.692 77.963C112.689 77.9926 112.679 78.0209 112.663 78.0462C112.004 79.4323 110.854 80.5249 109.437 81.113Z" fill="#263238"/>
<path d="M127.422 70.6638C127.47 71.478 127.346 72.2932 127.059 73.0566C126.772 73.8201 126.328 74.5147 125.755 75.0955C124.284 76.4605 122.494 74.8917 122.015 72.6226C121.59 70.584 121.838 67.4109 123.788 66.9499C125.738 66.489 127.369 68.4745 127.422 70.6638Z" fill="#B55B52"/>
<path d="M111.36 68.1041C111.308 68.1146 111.254 68.1137 111.202 68.1015C111.15 68.0893 111.101 68.066 111.059 68.0332C110.663 67.7173 110.195 67.5049 109.697 67.4152C109.199 67.3254 108.686 67.3611 108.205 67.5191C108.156 67.5401 108.104 67.5504 108.051 67.5495C107.998 67.5486 107.946 67.5364 107.898 67.5137C107.85 67.4911 107.808 67.4585 107.774 67.4182C107.739 67.3778 107.714 67.3307 107.7 67.2798C107.667 67.1727 107.675 67.0571 107.722 66.9555C107.77 66.854 107.853 66.7737 107.957 66.7303C108.561 66.5231 109.208 66.4705 109.838 66.5773C110.468 66.6841 111.062 66.947 111.564 67.3419C111.65 67.4129 111.705 67.515 111.717 67.6261C111.728 67.7372 111.696 67.8484 111.626 67.9357C111.559 68.0202 111.465 68.0796 111.36 68.1041Z" fill="#263238"/>
<path d="M99.608 72.2776C99.5114 72.317 99.4033 72.317 99.3067 72.2776C99.2564 72.2581 99.2106 72.2288 99.1718 72.1914C99.1329 72.154 99.1019 72.1093 99.0805 72.0598C99.0591 72.0104 99.0476 71.9571 99.0469 71.9032C99.0462 71.8494 99.0561 71.7959 99.0762 71.7458C99.2895 71.1096 99.6444 70.5302 100.114 70.0511C100.584 69.5721 101.157 69.206 101.788 68.9804C101.84 68.9674 101.894 68.9653 101.947 68.974C102 68.9828 102.05 69.0024 102.095 69.0315C102.14 69.0606 102.179 69.0986 102.208 69.1432C102.238 69.1878 102.258 69.238 102.267 69.2906C102.287 69.3994 102.267 69.5119 102.21 69.6066C102.152 69.7014 102.063 69.7719 101.957 69.8047C101.456 69.9842 101.004 70.2768 100.635 70.6595C100.266 71.0423 99.9906 71.505 99.8296 72.0117C99.8124 72.0687 99.7839 72.1215 99.7459 72.1672C99.7078 72.2129 99.6609 72.2504 99.608 72.2776Z" fill="#263238"/>
<path d="M110.537 71.0469L108.844 71.233C108.844 71.233 110.076 72.1991 110.537 71.0469Z" fill="#263238"/>
<path d="M137.135 112.813C137.135 113.283 137.135 113.504 137.135 113.823V114.71C137.135 115.277 137.056 115.835 136.994 116.394C136.874 117.502 136.697 118.602 136.462 119.691C136 121.912 135.295 124.076 134.361 126.144C133.4 128.309 132.141 130.328 130.621 132.144C129.062 134.021 127.205 135.629 125.125 136.904L124.806 137.099C124.529 137.263 124.231 137.388 123.92 137.471C122.414 137.906 120.817 137.906 119.311 137.471C118.313 137.19 117.35 136.797 116.439 136.301C114.969 135.476 113.585 134.505 112.309 133.403C111.134 132.393 110.021 131.312 108.976 130.168C107.942 129.043 106.975 127.859 106.078 126.622C105.685 126.127 105.481 125.508 105.504 124.876C105.526 124.244 105.773 123.641 106.2 123.175C106.626 122.708 107.206 122.409 107.833 122.331C108.46 122.253 109.095 122.401 109.623 122.749L109.721 122.811L113.266 124.894C114.445 125.568 115.624 126.232 116.811 126.809C117.869 127.357 118.968 127.819 120.1 128.191C120.479 128.327 120.876 128.402 121.279 128.413C121.536 128.413 121.518 128.253 120.906 128.413L119.745 128.98C120.837 128.111 121.796 127.087 122.59 125.94C123.006 125.354 123.376 124.738 123.698 124.096C124.053 123.441 124.364 122.763 124.629 122.067C125.187 120.612 125.617 119.111 125.914 117.582C126.074 116.802 126.189 116.013 126.295 115.224C126.34 114.825 126.384 114.435 126.419 114.045L126.49 113.061V112.591C126.53 111.181 127.129 109.844 128.155 108.875C129.18 107.906 130.549 107.384 131.959 107.424C133.37 107.464 134.706 108.063 135.676 109.088C136.645 110.114 137.167 111.482 137.127 112.893L137.135 112.813Z" fill="#B55B52"/>
<path d="M103.932 130.86H84.734C83.8796 130.873 83.0448 130.604 82.3589 130.095C81.673 129.585 81.1744 128.863 80.9404 128.042L78.5916 115.863C78.2902 114.321 79.4779 113.071 81.3038 113.071H100.493C101.345 113.053 102.179 113.317 102.865 113.822C103.551 114.327 104.051 115.045 104.287 115.863L106.645 128.042C106.937 129.611 105.723 130.86 103.932 130.86Z" fill="#084C3F"/>
<path d="M103.339 130.069H84.7261C84.0721 130.084 83.4308 129.887 82.8986 129.506C82.3664 129.126 81.9719 128.583 81.7745 127.96L79.4788 116.109C79.4363 115.907 79.4396 115.697 79.4887 115.496C79.5378 115.295 79.6314 115.108 79.7625 114.948C79.9684 114.726 80.2203 114.553 80.5006 114.44C80.7809 114.326 81.0826 114.276 81.3845 114.292H99.9979C100.65 114.279 101.289 114.476 101.821 114.855C102.352 115.233 102.748 115.772 102.949 116.393L105.236 128.243C105.283 128.445 105.282 128.654 105.234 128.856C105.187 129.057 105.093 129.245 104.961 129.404C104.756 129.626 104.504 129.801 104.224 129.916C103.944 130.03 103.642 130.083 103.339 130.069ZM81.3402 114.514C81.0706 114.498 80.801 114.542 80.5499 114.642C80.2989 114.741 80.0726 114.894 79.8866 115.09C79.7771 115.226 79.6995 115.385 79.6596 115.555C79.6198 115.726 79.6186 115.903 79.6561 116.074L81.9429 127.915C82.1362 128.483 82.5066 128.974 82.9996 129.315C83.4927 129.657 84.0823 129.831 84.6817 129.812H103.295C103.564 129.828 103.834 129.783 104.083 129.682C104.333 129.581 104.558 129.426 104.74 129.227C104.853 129.094 104.933 128.937 104.974 128.768C105.016 128.598 105.017 128.422 104.979 128.252L102.754 116.437C102.567 115.865 102.201 115.369 101.709 115.022C101.217 114.676 100.626 114.497 100.025 114.514H81.3402Z" fill="white"/>
<path d="M104.34 119.247L102.089 118.68C101.814 118.612 101.527 118.599 101.247 118.642C100.967 118.686 100.698 118.785 100.456 118.933C100.214 119.082 100.004 119.277 99.8389 119.507C99.6734 119.738 99.5555 119.999 99.492 120.276L98.907 122.837C98.7943 123.33 98.8609 123.847 99.0948 124.295C99.3287 124.744 99.7146 125.094 100.183 125.284L103.037 126.454C103.037 126.454 107.815 129.405 109.8 127.127L110.687 123.475L107.141 120.604C106.32 119.95 105.363 119.487 104.34 119.247Z" fill="#B55B52"/>
<path d="M132.092 94.1406C139.865 94.6015 142.258 102.712 139.67 117.461C138.411 123 122.882 115.431 122.882 115.431C122.882 115.431 122.342 99.6715 132.092 94.1406Z" fill="#263238"/>
<path d="M351.714 251.652C348.887 233.924 356.633 210.675 366.454 212.386C374.591 213.804 353.398 246.236 351.714 251.652Z" fill="#084C3F"/>
<path d="M348.62 260.696C357.856 247.569 352.165 220.588 342.415 219.977C332.665 219.365 347.822 254.092 348.62 260.696Z" fill="#263238"/>
<path d="M349.081 268.378C348.027 240.014 365.302 225.753 373.013 229.139C380.946 232.631 355.117 252.68 349.081 268.378Z" fill="#084C3F"/>
<path d="M346.76 286.038C355.996 266.069 348.081 234.86 333.394 238.237C321.215 241.038 344.58 277.636 346.76 286.038Z" fill="#084C3F"/>
<path d="M347.389 292.02C346.37 272.874 340.564 248.464 328.634 250.724C317.253 252.852 343.843 275.276 347.389 292.02Z" fill="#263238"/>
<path d="M344.463 301.382C347.388 273.134 371.568 257.365 371.319 268.081C371.062 279.524 352.591 286.979 344.463 301.382Z" fill="#084C3F"/>
<path d="M346.813 295.403C350.208 285.299 342.23 271.578 333.854 274.512C326.914 276.95 344.632 291.716 346.813 295.403Z" fill="#084C3F"/>
<path d="M347.035 291.625C343.383 269.963 362.049 232.683 378.89 240.695C395.252 248.487 355.012 266.737 347.035 291.625Z" fill="#263238"/>
<path d="M355.366 324.325H339.235C337.826 324.328 336.454 323.878 335.321 323.042C334.188 322.206 333.354 321.027 332.941 319.681C330.833 313.236 329.867 306.472 330.087 299.694C330.2 297.557 330.497 295.433 330.974 293.347C331.066 292.931 331.297 292.557 331.628 292.288C331.96 292.02 332.373 291.871 332.8 291.867H361.845C362.272 291.87 362.684 292.018 363.015 292.287C363.345 292.557 363.574 292.931 363.662 293.347C364.139 295.433 364.436 297.557 364.549 299.694C364.768 306.471 363.805 313.234 361.704 319.681C361.287 321.033 360.445 322.215 359.303 323.052C358.162 323.888 356.781 324.335 355.366 324.325Z" fill="#084C3F"/>
<path opacity="0.5" d="M364.496 299.694H330.088C330.201 297.557 330.497 295.433 330.974 293.347C331.066 292.931 331.297 292.557 331.629 292.288C331.96 292.02 332.373 291.871 332.8 291.867H361.846C362.272 291.87 362.685 292.018 363.015 292.287C363.345 292.557 363.574 292.931 363.663 293.347C364.122 295.435 364.401 297.558 364.496 299.694Z" fill="white"/>
</svg>
