<svg width="491" height="408" viewBox="0 0 491 408" fill="none" xmlns="http://www.w3.org/2000/svg">
<path d="M71.9021 369.865C167.8 419.958 323.21 419.958 419.085 369.865C514.96 319.773 514.983 238.587 419.085 188.495C323.188 138.402 167.777 138.414 71.9021 188.495C-23.973 238.576 -23.9617 319.784 71.9021 369.865Z" fill="#F5F5F5"/>
<path d="M43.4602 290.014H47.4992C49.3504 283.832 50.5639 277.477 51.1207 271.049C52.0007 259.146 46.2356 240.925 35.6756 234.822C25.1155 228.718 19.3955 236.266 22.9381 242.719C26.4807 249.173 38.4284 267.529 38.5863 283.323L43.4602 290.014Z" fill="#084C3F"/>
<path d="M42.4883 290.012H43.6165C44.7189 282.217 44.7189 274.306 43.6165 266.511C41.7888 251.066 36.7119 243.891 31.996 238.904C31.8928 238.795 31.7504 238.731 31.6002 238.727C31.45 238.723 31.3042 238.778 31.195 238.881C31.0858 238.985 31.022 239.127 31.0178 239.277C31.0136 239.427 31.0692 239.573 31.1724 239.682C35.7642 244.522 40.7058 251.517 42.4545 266.635C43.5721 274.387 43.5835 282.257 42.4883 290.012Z" fill="white"/>
<path d="M43.7866 290.017C41.7107 280.224 32.2789 268.581 23.3774 266.573C13.0543 264.316 8.03375 269.766 9.5117 274.47C10.9896 279.175 19.1466 281.364 27.0666 285.053C29.7334 286.287 32.1712 287.966 34.2758 290.017H43.7866Z" fill="#084C3F"/>
<path d="M40.029 290.017H41.2361C36.87 279.039 26.9418 271.209 18.8187 270.487C18.7451 270.48 18.6708 270.487 18.6 270.508C18.5293 270.53 18.4635 270.565 18.4067 270.613C18.3499 270.66 18.3032 270.718 18.2693 270.784C18.2354 270.85 18.2151 270.921 18.2094 270.995C18.2 271.069 18.2059 271.144 18.2268 271.215C18.2476 271.287 18.283 271.353 18.3306 271.41C18.3782 271.467 18.4371 271.514 18.5036 271.548C18.5701 271.581 18.6428 271.6 18.7171 271.604C26.3889 272.293 35.7643 279.648 40.029 290.017Z" fill="white"/>
<path d="M407.984 186.796L416.434 191.23L417.145 185.938C412.959 174.137 416.4 160.757 420.924 155.184C425.448 149.61 424.58 145.515 422.944 143.687C421.308 141.859 415.103 140.472 408.965 147.647C402.828 154.822 401.418 163.532 402.444 172.321C403.099 177.815 405.987 183.456 407.984 186.796Z" fill="#084C3F"/>
<path opacity="0.2" d="M407.984 186.796L416.434 191.23L417.145 185.938C412.959 174.137 416.4 160.757 420.924 155.184C425.448 149.61 424.58 145.515 422.944 143.687C421.308 141.859 415.103 140.472 408.965 147.647C402.828 154.822 401.418 163.532 402.444 172.321C403.099 177.815 405.987 183.456 407.984 186.796Z" fill="black"/>
<path d="M411.47 188.623L413.14 189.503C413.124 189.472 413.105 189.441 413.084 189.413C410.692 186.57 407.601 172.648 408.898 164.491C410.5 154.416 415.667 147.839 420.09 145.052C420.144 145.019 420.191 144.975 420.228 144.923C420.265 144.871 420.291 144.812 420.304 144.75C420.318 144.688 420.319 144.624 420.307 144.561C420.296 144.499 420.272 144.439 420.236 144.386C420.165 144.278 420.054 144.203 419.928 144.175C419.801 144.148 419.669 144.171 419.56 144.24C415.047 147.139 409.586 153.942 407.928 164.344C406.732 171.937 409.124 183.964 411.47 188.623Z" fill="white"/>
<path d="M416.602 166.657C419.073 172.716 419.061 175.683 415.034 176.304C411.401 176.845 406.99 181.256 411.085 188.421L435.048 200.989C435.108 199.649 435.439 198.336 436.021 197.128C436.603 195.92 437.423 194.842 438.433 193.96C442.37 190.023 446.003 187.055 445.439 182.678C444.875 178.301 441.073 174.081 440.441 170.268C439.809 166.454 441.75 164.277 445.89 160.001C450.031 155.725 453.788 149.091 448.259 146.068C442.731 143.044 436.402 148.223 433.762 151.709C431.122 155.195 428.708 156.729 423.507 156.436C418.306 156.143 414.131 160.599 416.602 166.657Z" fill="#084C3F"/>
<path d="M423.382 194.873C423.27 176.28 436.594 154.506 444.006 150.106C444.115 150.036 444.194 149.927 444.225 149.801C444.257 149.675 444.239 149.542 444.175 149.429C444.107 149.32 444 149.242 443.876 149.211C443.752 149.179 443.621 149.197 443.51 149.26C435.996 153.773 422.559 175.558 422.412 194.388L423.382 194.873Z" fill="white"/>
<path d="M426.949 175.544C426.847 175.567 426.741 175.555 426.646 175.51C426.552 175.465 426.476 175.39 426.43 175.296C424.278 171.28 422.466 167.091 421.015 162.773C420.996 162.712 420.989 162.648 420.994 162.584C420.999 162.521 421.017 162.459 421.047 162.403C421.076 162.346 421.116 162.296 421.165 162.255C421.214 162.214 421.27 162.183 421.331 162.163C421.392 162.144 421.455 162.137 421.519 162.142C421.582 162.148 421.644 162.166 421.701 162.195C421.757 162.224 421.808 162.265 421.849 162.313C421.89 162.362 421.921 162.418 421.94 162.479C423.378 166.738 425.167 170.87 427.288 174.833C427.348 174.949 427.36 175.083 427.322 175.207C427.284 175.332 427.199 175.437 427.085 175.499L426.949 175.544Z" fill="white"/>
<path d="M423.744 186.939C423.652 186.956 423.556 186.947 423.469 186.913C423.381 186.879 423.305 186.822 423.248 186.747C423.173 186.639 423.145 186.506 423.168 186.377C423.191 186.249 423.265 186.134 423.372 186.059C428.23 182.658 434.125 181.061 440.035 181.546C440.164 181.563 440.281 181.629 440.36 181.732C440.44 181.835 440.475 181.965 440.459 182.093C440.442 182.222 440.375 182.339 440.273 182.418C440.17 182.497 440.04 182.533 439.911 182.516C434.252 182.086 428.615 183.602 423.936 186.815C423.881 186.869 423.816 186.911 423.744 186.939Z" fill="white"/>
<path d="M282.155 73.3582L254.661 57.4844L227.178 73.3582L254.661 89.2321L282.155 73.3582Z" fill="#F5F5F5"/>
<path d="M254.66 120.992L282.155 105.118V73.3594L254.66 89.2332V120.992Z" fill="#EBEBEB"/>
<path d="M259.964 110.455C259.818 110.458 259.674 110.423 259.546 110.354C259.371 110.225 259.231 110.054 259.14 109.857C259.049 109.659 259.01 109.442 259.027 109.225V105.841V105.593H259.196L261.836 104.047V107.804C261.833 108.288 261.713 108.764 261.487 109.192C261.262 109.62 260.936 109.987 260.539 110.263C260.368 110.379 260.169 110.445 259.964 110.455ZM259.456 106.089V109.203C259.437 109.348 259.455 109.495 259.509 109.631C259.562 109.767 259.648 109.888 259.761 109.981C259.852 110.022 259.953 110.037 260.052 110.025C260.151 110.013 260.246 109.975 260.325 109.914C260.663 109.678 260.941 109.366 261.136 109.004C261.332 108.641 261.441 108.238 261.453 107.826V107.556H260.471L260.28 106.236L259.456 106.089ZM260.81 107.127H261.419V104.814L259.84 105.728L260.618 105.875L260.81 107.127Z" fill="white"/>
<path d="M260.437 113.14C260.38 113.14 260.326 113.118 260.286 113.077C260.246 113.037 260.223 112.983 260.223 112.926V110.105C260.221 110.077 260.226 110.048 260.236 110.021C260.246 109.995 260.262 109.97 260.282 109.95C260.302 109.93 260.327 109.914 260.353 109.904C260.38 109.894 260.409 109.889 260.437 109.891C260.494 109.891 260.549 109.914 260.589 109.954C260.629 109.994 260.652 110.048 260.652 110.105V112.881C260.656 112.912 260.655 112.944 260.646 112.975C260.638 113.005 260.623 113.034 260.603 113.058C260.582 113.083 260.557 113.103 260.529 113.117C260.5 113.131 260.469 113.139 260.437 113.14Z" fill="white"/>
<path d="M259.208 113.853C259.17 113.853 259.133 113.842 259.101 113.822C259.07 113.802 259.044 113.774 259.027 113.74C259.012 113.717 259.001 113.691 258.997 113.663C258.992 113.636 258.994 113.608 259.001 113.581C259.009 113.554 259.022 113.529 259.04 113.508C259.058 113.487 259.081 113.47 259.106 113.458L261.554 112.037C261.579 112.022 261.606 112.013 261.634 112.01C261.662 112.006 261.69 112.008 261.717 112.015C261.745 112.023 261.77 112.035 261.793 112.052C261.815 112.07 261.834 112.091 261.848 112.116C261.873 112.166 261.88 112.223 261.865 112.278C261.85 112.332 261.816 112.379 261.769 112.409L259.309 113.819L259.208 113.853Z" fill="white"/>
<path d="M267.961 108.974C267.884 108.997 267.801 108.997 267.724 108.974C267.642 108.919 267.576 108.842 267.532 108.753C267.488 108.664 267.469 108.565 267.476 108.466V107.891C267.474 107.863 267.479 107.836 267.488 107.81C267.498 107.784 267.512 107.76 267.531 107.74C267.55 107.72 267.573 107.704 267.599 107.693C267.624 107.682 267.651 107.676 267.679 107.676C267.708 107.675 267.736 107.679 267.763 107.689C267.79 107.7 267.814 107.715 267.834 107.736C267.855 107.756 267.87 107.78 267.88 107.807C267.891 107.834 267.895 107.862 267.893 107.891V108.365C267.893 108.455 267.893 108.5 267.893 108.5C267.893 108.5 267.961 108.5 268.029 108.5C268.16 108.381 268.264 108.234 268.332 108.07C268.4 107.906 268.432 107.73 268.424 107.552V103.852C268.424 103.824 268.429 103.797 268.44 103.771C268.451 103.746 268.467 103.723 268.487 103.704C268.507 103.685 268.531 103.67 268.557 103.661C268.583 103.651 268.61 103.647 268.638 103.649C268.692 103.649 268.744 103.67 268.782 103.708C268.82 103.746 268.841 103.798 268.841 103.852V107.62C268.85 107.871 268.8 108.121 268.696 108.35C268.593 108.579 268.438 108.781 268.243 108.94C268.152 108.969 268.056 108.981 267.961 108.974Z" fill="white"/>
<path d="M265.729 105.694V105.333C265.781 104.394 266.054 103.48 266.524 102.664C266.994 101.849 267.649 101.156 268.436 100.64C268.718 100.403 269.066 100.258 269.432 100.226C269.799 100.193 270.167 100.274 270.486 100.458C270.805 100.641 271.06 100.918 271.216 101.252C271.372 101.585 271.422 101.958 271.358 102.321V102.445L265.729 105.694ZM269.7 100.685C269.327 100.697 268.964 100.81 268.651 101.012C267.981 101.454 267.413 102.034 266.985 102.713C266.557 103.392 266.278 104.155 266.169 104.95L270.93 102.208C270.948 101.942 270.897 101.675 270.782 101.434C270.668 101.193 270.493 100.986 270.275 100.832C270.1 100.732 269.901 100.682 269.7 100.685Z" fill="white"/>
<path d="M275.509 104.647C275.454 104.647 275.401 104.626 275.362 104.588C275.322 104.55 275.298 104.498 275.295 104.444V97.2456C275.295 97.1888 275.318 97.1342 275.358 97.094C275.398 97.0538 275.452 97.0312 275.509 97.0312C275.566 97.0312 275.621 97.0538 275.661 97.094C275.701 97.1342 275.724 97.1888 275.724 97.2456V104.444C275.721 104.498 275.697 104.55 275.657 104.588C275.617 104.626 275.564 104.647 275.509 104.647Z" fill="white"/>
<path d="M274.934 98.8789H274.855C274.829 98.8678 274.805 98.8517 274.786 98.8315C274.766 98.8114 274.75 98.7875 274.74 98.7613C274.729 98.7351 274.724 98.707 274.725 98.6788C274.725 98.6506 274.731 98.6227 274.742 98.5968L275.498 96.8594L276.333 97.8296C276.351 97.8504 276.364 97.8744 276.373 97.9004C276.381 97.9264 276.384 97.9537 276.382 97.981C276.38 98.0082 276.373 98.0348 276.36 98.0591C276.348 98.0835 276.331 98.1052 276.31 98.123C276.29 98.1407 276.266 98.1543 276.24 98.1627C276.214 98.1712 276.186 98.1745 276.159 98.1724C276.132 98.1703 276.105 98.1629 276.081 98.1505C276.056 98.1382 276.035 98.1211 276.017 98.1004L275.611 97.6491L275.126 98.7773C275.107 98.8107 275.078 98.8379 275.045 98.8559C275.011 98.8738 274.972 98.8818 274.934 98.8789Z" fill="white"/>
<path d="M277.506 103.543C277.451 103.54 277.399 103.516 277.361 103.476C277.323 103.436 277.302 103.383 277.303 103.328V96.1304C277.295 96.0989 277.295 96.0662 277.302 96.0347C277.309 96.0032 277.323 95.9737 277.343 95.9484C277.363 95.923 277.389 95.9026 277.418 95.8885C277.447 95.8745 277.479 95.8672 277.511 95.8672C277.544 95.8672 277.575 95.8745 277.604 95.8885C277.634 95.9026 277.659 95.923 277.679 95.9484C277.699 95.9737 277.713 96.0032 277.72 96.0347C277.727 96.0662 277.727 96.0989 277.72 96.1304V103.328C277.72 103.385 277.697 103.44 277.657 103.48C277.617 103.52 277.562 103.543 277.506 103.543Z" fill="white"/>
<path d="M276.885 97.7617H276.806C276.78 97.7506 276.757 97.7345 276.737 97.7143C276.717 97.6942 276.702 97.6703 276.691 97.6441C276.681 97.6179 276.675 97.5899 276.676 97.5616C276.676 97.5334 276.682 97.5056 276.693 97.4796L277.449 95.7422L278.284 96.7124C278.321 96.7522 278.342 96.8046 278.342 96.8591C278.342 96.9136 278.321 96.966 278.284 97.0058C278.242 97.0438 278.188 97.0649 278.132 97.0649C278.075 97.0649 278.021 97.0438 277.979 97.0058L277.585 96.5432L277.099 97.6714C277.076 97.7055 277.044 97.7321 277.006 97.7482C276.968 97.7642 276.926 97.7689 276.885 97.7617Z" fill="white"/>
<path d="M254.66 120.992L227.166 105.118L227.177 73.3594L254.66 89.2332V120.992Z" fill="#E0E0E0"/>
<path d="M242.409 82.1634L269.881 66.2782L266.778 64.4844L239.295 80.3695L242.409 82.1634Z" fill="white"/>
<path d="M231.34 91.5715L241.19 97.2126C241.756 97.5858 242.228 98.0861 242.567 98.6737C242.905 99.2614 243.102 99.92 243.142 100.597V106.667C243.142 107.919 242.262 108.427 241.19 107.795L231.34 102.154C230.773 101.782 230.301 101.281 229.963 100.694C229.624 100.106 229.427 99.4469 229.389 98.7695V92.6998C229.389 91.4474 230.269 90.951 231.34 91.5715Z" fill="#084C3F"/>
<path d="M230.584 93.0781L230.956 93.3038V100.039L230.584 99.8248V93.0781Z" fill="#084C3F"/>
<path d="M232.107 93.9609L232.751 94.3445V101.08L232.107 100.708V93.9609Z" fill="#084C3F"/>
<path d="M233.631 94.8438L234.003 95.0581V101.805L233.631 101.59V94.8438Z" fill="#084C3F"/>
<path d="M234.77 95.4922L235.525 95.9322V102.679L234.77 102.228V95.4922Z" fill="#084C3F"/>
<path d="M236.666 96.6016L237.05 96.8159V103.563L236.666 103.337V96.6016Z" fill="#084C3F"/>
<path d="M237.771 97.2188L238.561 97.6926V104.428L237.76 103.954L237.771 97.2188Z" fill="#084C3F"/>
<path d="M239.711 98.3594L240.083 98.5737V105.309L239.711 105.095V98.3594Z" fill="#084C3F"/>
<path d="M240.58 98.8438L240.772 98.9566V105.692L240.58 105.59V98.8438Z" fill="#084C3F"/>
<path d="M239.023 97.9922L239.204 98.105V104.84L239.023 104.739V97.9922Z" fill="#084C3F"/>
<path d="M235.955 96.1953L236.136 96.2968V103.044L235.955 102.931V96.1953Z" fill="#084C3F"/>
<path d="M234.273 95.2266L234.465 95.3394V102.086L234.273 101.973V95.2266Z" fill="#084C3F"/>
<path d="M233.066 94.5625L233.258 94.6753V101.422L233.066 101.309V94.5625Z" fill="#084C3F"/>
<path d="M231.43 93.5625L231.621 93.6753V100.422L231.43 100.309V93.5625Z" fill="#084C3F"/>
<path d="M241.234 99.2266L241.607 99.4409V106.188L241.234 105.973V99.2266Z" fill="#084C3F"/>
<path d="M245.499 68.0686L213.413 49.5547L181.338 68.0686L213.413 86.5937L245.499 68.0686Z" fill="#F5F5F5"/>
<path d="M199.659 78.6515L231.745 60.1376L228.632 58.3438L196.557 76.8576L199.659 78.6515Z" fill="white"/>
<path d="M213.412 144.8L245.498 126.286V68.0703L213.412 86.5955V144.8Z" fill="#EBEBEB"/>
<path d="M218.715 134.318C218.568 134.321 218.423 134.281 218.298 134.205C218.12 134.079 217.978 133.909 217.887 133.711C217.796 133.513 217.759 133.294 217.779 133.077V129.692V129.444H217.959L220.588 127.898V131.655C220.582 132.139 220.462 132.614 220.236 133.042C220.011 133.469 219.687 133.837 219.291 134.115C219.121 134.234 218.922 134.304 218.715 134.318ZM218.208 129.952V133.066C218.189 133.211 218.207 133.358 218.26 133.494C218.313 133.63 218.4 133.75 218.512 133.844C218.603 133.885 218.704 133.9 218.804 133.888C218.903 133.876 218.997 133.838 219.076 133.776C219.414 133.541 219.692 133.229 219.888 132.867C220.084 132.504 220.192 132.101 220.204 131.689V131.418H219.223L219.031 130.098L218.208 129.952ZM219.561 130.99H220.227V128.677L218.648 129.602L219.426 129.737L219.561 130.99Z" fill="white"/>
<path d="M219.189 136.96C219.132 136.96 219.078 136.938 219.037 136.898C218.997 136.857 218.975 136.803 218.975 136.746V133.914C218.975 133.887 218.98 133.859 218.991 133.834C219.002 133.809 219.018 133.786 219.038 133.767C219.058 133.748 219.082 133.733 219.108 133.723C219.134 133.714 219.161 133.71 219.189 133.711C219.244 133.711 219.297 133.732 219.337 133.77C219.377 133.808 219.4 133.859 219.403 133.914V136.746C219.401 136.802 219.377 136.855 219.338 136.895C219.298 136.934 219.245 136.958 219.189 136.96Z" fill="white"/>
<path d="M217.971 137.701C217.935 137.702 217.899 137.693 217.867 137.675C217.835 137.657 217.809 137.631 217.791 137.6C217.765 137.55 217.759 137.492 217.773 137.438C217.788 137.383 217.822 137.337 217.87 137.306L220.318 135.896C220.342 135.882 220.369 135.873 220.397 135.869C220.425 135.865 220.454 135.867 220.481 135.875C220.508 135.882 220.534 135.895 220.556 135.912C220.578 135.929 220.597 135.95 220.611 135.975C220.625 135.999 220.634 136.025 220.638 136.052C220.641 136.079 220.639 136.106 220.632 136.133C220.624 136.159 220.612 136.184 220.595 136.205C220.578 136.226 220.556 136.244 220.532 136.257L218.073 137.679C218.042 137.697 218.007 137.704 217.971 137.701Z" fill="white"/>
<path d="M226.715 132.796C226.633 132.797 226.551 132.777 226.478 132.74C226.396 132.685 226.329 132.609 226.286 132.52C226.242 132.43 226.223 132.331 226.23 132.232V131.646C226.23 131.618 226.235 131.591 226.246 131.565C226.257 131.54 226.273 131.517 226.293 131.498C226.313 131.479 226.337 131.464 226.363 131.455C226.389 131.445 226.417 131.441 226.444 131.443C226.471 131.443 226.497 131.448 226.522 131.458C226.547 131.468 226.569 131.483 226.588 131.502C226.607 131.521 226.622 131.543 226.632 131.568C226.642 131.593 226.647 131.619 226.647 131.646V132.232C226.647 132.311 226.647 132.356 226.647 132.368C226.647 132.379 226.715 132.368 226.783 132.368C226.914 132.246 227.018 132.098 227.086 131.932C227.154 131.766 227.186 131.588 227.178 131.409V127.652C227.178 127.595 227.2 127.54 227.24 127.5C227.281 127.46 227.335 127.438 227.392 127.438C227.448 127.44 227.501 127.464 227.54 127.503C227.58 127.543 227.604 127.596 227.606 127.652V131.409C227.617 131.661 227.567 131.913 227.461 132.142C227.355 132.372 227.196 132.573 226.997 132.729C226.909 132.773 226.813 132.796 226.715 132.796Z" fill="white"/>
<path d="M224.48 129.507V129.135C224.534 128.197 224.807 127.284 225.277 126.471C225.747 125.658 226.402 124.967 227.188 124.452C227.47 124.216 227.818 124.071 228.184 124.038C228.551 124.006 228.919 124.087 229.238 124.27C229.557 124.454 229.812 124.731 229.968 125.064C230.124 125.398 230.173 125.771 230.11 126.134V126.258L224.48 129.507ZM228.452 124.486C228.08 124.503 227.718 124.616 227.403 124.814C226.731 125.257 226.162 125.838 225.734 126.519C225.306 127.2 225.029 127.965 224.92 128.762L229.682 126.021C229.698 125.753 229.647 125.485 229.533 125.243C229.418 125 229.244 124.79 229.027 124.633C228.851 124.537 228.653 124.487 228.452 124.486Z" fill="white"/>
<path d="M234.308 128.463C234.251 128.463 234.197 128.44 234.157 128.4C234.116 128.36 234.094 128.305 234.094 128.248V121.05C234.094 120.993 234.116 120.939 234.157 120.899C234.197 120.859 234.251 120.836 234.308 120.836C234.365 120.836 234.419 120.859 234.46 120.899C234.5 120.939 234.522 120.993 234.522 121.05V128.248C234.522 128.305 234.5 128.36 234.46 128.4C234.419 128.44 234.365 128.463 234.308 128.463Z" fill="white"/>
<path d="M233.687 122.696H233.608C233.583 122.686 233.559 122.671 233.54 122.652C233.52 122.633 233.505 122.61 233.494 122.584C233.484 122.559 233.478 122.532 233.479 122.505C233.479 122.477 233.485 122.45 233.496 122.425L234.251 120.688L235.086 121.658C235.122 121.7 235.14 121.754 235.136 121.809C235.132 121.864 235.106 121.915 235.064 121.951C235.022 121.987 234.967 122.005 234.912 122.001C234.857 121.996 234.806 121.97 234.77 121.929L234.364 121.466L233.879 122.594C233.86 122.628 233.832 122.655 233.798 122.673C233.764 122.691 233.726 122.699 233.687 122.696Z" fill="white"/>
<path d="M236.26 127.342C236.206 127.342 236.155 127.321 236.116 127.283C236.078 127.245 236.057 127.193 236.057 127.139V119.941C236.055 119.914 236.06 119.886 236.069 119.86C236.079 119.834 236.093 119.81 236.112 119.79C236.131 119.77 236.154 119.754 236.18 119.743C236.205 119.732 236.232 119.727 236.26 119.727C236.289 119.725 236.317 119.73 236.344 119.74C236.371 119.75 236.395 119.766 236.415 119.786C236.435 119.806 236.451 119.831 236.461 119.857C236.472 119.884 236.476 119.913 236.474 119.941V127.139C236.474 127.167 236.469 127.194 236.458 127.22C236.447 127.245 236.431 127.268 236.411 127.287C236.391 127.306 236.367 127.321 236.341 127.33C236.315 127.34 236.288 127.344 236.26 127.342Z" fill="white"/>
<path d="M235.651 121.582H235.561C235.51 121.557 235.471 121.515 235.45 121.463C235.429 121.411 235.428 121.353 235.448 121.3L236.204 119.562L237.05 120.533C237.085 120.574 237.104 120.626 237.104 120.679C237.104 120.733 237.085 120.785 237.05 120.826C237.03 120.846 237.006 120.862 236.98 120.873C236.954 120.884 236.926 120.89 236.898 120.89C236.869 120.89 236.841 120.884 236.815 120.873C236.789 120.862 236.765 120.846 236.745 120.826L236.35 120.364L235.865 121.492C235.843 121.527 235.811 121.554 235.772 121.571C235.734 121.587 235.692 121.591 235.651 121.582Z" fill="white"/>
<path d="M213.413 144.8L181.338 126.286V68.0703L213.413 86.5955V144.8Z" fill="#E0E0E0"/>
<path d="M187.86 114.181L197.698 119.822C198.267 120.193 198.741 120.693 199.082 121.281C199.423 121.869 199.621 122.528 199.661 123.207V129.288C199.661 130.529 198.781 131.037 197.698 130.416L187.86 124.775C187.291 124.404 186.818 123.905 186.479 123.317C186.139 122.728 185.944 122.068 185.908 121.39V115.321C185.908 114.012 186.788 113.561 187.86 114.181Z" fill="#F5F5F5"/>
<path d="M187.104 115.688L187.476 115.913V122.649L187.104 122.434V115.688Z" fill="#E0E0E0"/>
<path d="M188.627 116.57L189.27 116.954V123.701L188.627 123.317V116.57Z" fill="#E0E0E0"/>
<path d="M190.139 117.453L190.522 117.667L190.511 124.414L190.139 124.2V117.453Z" fill="#E0E0E0"/>
<path d="M191.289 118.102L192.034 118.542V125.288L191.289 124.837V118.102Z" fill="#E0E0E0"/>
<path d="M193.184 119.211L193.556 119.425V126.172L193.184 125.946V119.211Z" fill="#E0E0E0"/>
<path d="M194.279 119.828L195.08 120.302V127.037L194.279 126.564V119.828Z" fill="#E0E0E0"/>
<path d="M196.23 120.961L196.603 121.187V127.922L196.23 127.708V120.961Z" fill="#E0E0E0"/>
<path d="M197.1 121.453L197.291 121.566V128.313L197.1 128.2V121.453Z" fill="#E0E0E0"/>
<path d="M195.543 120.602L195.723 120.714V127.45L195.543 127.348V120.602Z" fill="#E0E0E0"/>
<path d="M192.473 118.805L192.653 118.906V125.653L192.473 125.54V118.805Z" fill="#E0E0E0"/>
<path d="M190.793 117.836L190.973 117.949V124.695L190.793 124.583V117.836Z" fill="#E0E0E0"/>
<path d="M189.586 117.172L189.778 117.285V124.031L189.586 123.919V117.172Z" fill="#E0E0E0"/>
<path d="M187.949 116.172L188.141 116.285V123.031L187.949 122.919V116.172Z" fill="#E0E0E0"/>
<path d="M197.754 121.836L198.126 122.05V128.797L197.754 128.583V121.836Z" fill="#E0E0E0"/>
<path d="M196.557 84.3732L199.659 86.1671V78.6532L196.557 76.8594V84.3732Z" fill="#F0F0F0"/>
<path d="M149.252 128.926L126.339 115.703L94.2637 134.217L117.178 147.451L149.252 128.926Z" fill="#F5F5F5"/>
<path d="M117.178 200.36L149.253 181.846V128.922L117.178 147.447V200.36Z" fill="#EBEBEB"/>
<path d="M122.469 189.834C122.325 189.837 122.184 189.797 122.063 189.721C121.886 189.594 121.745 189.423 121.654 189.225C121.563 189.028 121.525 188.809 121.544 188.593V185.208V184.96H121.713L124.353 183.414V187.171C124.348 187.655 124.227 188.13 124.001 188.557C123.776 188.985 123.452 189.353 123.056 189.63C122.881 189.749 122.679 189.819 122.469 189.834ZM121.973 185.467V188.581C121.952 188.726 121.969 188.874 122.022 189.011C122.075 189.147 122.163 189.267 122.277 189.36C122.369 189.396 122.469 189.409 122.568 189.397C122.666 189.385 122.76 189.349 122.841 189.292C123.179 189.056 123.457 188.745 123.653 188.382C123.849 188.02 123.957 187.617 123.97 187.205V186.934H122.988L122.796 185.614L121.973 185.467ZM123.326 186.505H123.936V184.181L122.356 185.106L123.135 185.242L123.326 186.505Z" fill="white"/>
<path d="M122.953 192.523C122.896 192.523 122.841 192.5 122.801 192.46C122.761 192.42 122.738 192.365 122.738 192.309V189.477C122.738 189.449 122.744 189.422 122.755 189.396C122.766 189.371 122.782 189.348 122.802 189.329C122.822 189.31 122.846 189.295 122.871 189.286C122.897 189.276 122.925 189.272 122.953 189.274C123.007 189.274 123.058 189.295 123.096 189.333C123.134 189.371 123.156 189.423 123.156 189.477V192.309C123.156 192.364 123.135 192.416 123.097 192.456C123.059 192.496 123.008 192.52 122.953 192.523Z" fill="white"/>
<path d="M121.723 193.217C121.686 193.219 121.65 193.21 121.618 193.192C121.586 193.174 121.559 193.148 121.542 193.115C121.526 193.092 121.515 193.066 121.51 193.038C121.504 193.01 121.505 192.981 121.511 192.954C121.517 192.926 121.53 192.9 121.547 192.877C121.564 192.855 121.585 192.836 121.61 192.822L124.069 191.412C124.094 191.397 124.121 191.388 124.149 191.385C124.177 191.381 124.205 191.383 124.233 191.39C124.26 191.398 124.285 191.41 124.308 191.427C124.33 191.445 124.349 191.466 124.363 191.491C124.377 191.514 124.386 191.54 124.389 191.567C124.393 191.595 124.391 191.622 124.383 191.648C124.376 191.675 124.363 191.699 124.346 191.721C124.329 191.742 124.308 191.76 124.284 191.773L121.824 193.194C121.794 193.212 121.758 193.22 121.723 193.217Z" fill="white"/>
<path d="M130.479 188.361C130.396 188.361 130.315 188.342 130.242 188.305C130.159 188.249 130.093 188.173 130.049 188.084C130.006 187.995 129.987 187.896 129.994 187.797V187.21C129.994 187.156 130.015 187.105 130.053 187.067C130.091 187.028 130.143 187.007 130.197 187.007C130.224 187.006 130.252 187.01 130.278 187.019C130.304 187.029 130.328 187.043 130.348 187.062C130.368 187.081 130.384 187.104 130.395 187.13C130.405 187.155 130.411 187.183 130.411 187.21V187.797C130.411 187.876 130.411 187.921 130.411 187.932C130.411 187.944 130.479 187.932 130.546 187.932C130.676 187.809 130.778 187.66 130.846 187.495C130.914 187.33 130.946 187.152 130.941 186.973V183.216C130.934 183.185 130.934 183.152 130.941 183.121C130.948 183.089 130.962 183.06 130.982 183.034C131.002 183.009 131.028 182.989 131.057 182.974C131.086 182.96 131.118 182.953 131.15 182.953C131.182 182.953 131.214 182.96 131.243 182.974C131.272 182.989 131.298 183.009 131.318 183.034C131.338 183.06 131.352 183.089 131.359 183.121C131.366 183.152 131.366 183.185 131.359 183.216V186.973C131.368 187.225 131.319 187.475 131.215 187.704C131.111 187.933 130.956 188.135 130.761 188.293C130.673 188.337 130.577 188.36 130.479 188.361Z" fill="white"/>
<path d="M128.244 185.084V184.711C128.298 183.773 128.57 182.861 129.041 182.048C129.511 181.235 130.166 180.543 130.952 180.029C131.232 179.79 131.58 179.643 131.947 179.609C132.314 179.575 132.682 179.656 133.002 179.84C133.321 180.025 133.575 180.304 133.729 180.638C133.883 180.973 133.93 181.348 133.863 181.71V181.834L128.244 185.084ZM132.215 180.063C131.843 180.08 131.482 180.193 131.166 180.39C130.495 180.833 129.926 181.415 129.498 182.096C129.07 182.777 128.792 183.542 128.684 184.339L133.445 181.586C133.461 181.32 133.409 181.054 133.295 180.814C133.181 180.573 133.007 180.365 132.791 180.21C132.619 180.112 132.425 180.057 132.227 180.052L132.215 180.063Z" fill="white"/>
<path d="M138.072 184.025C138.015 184.025 137.96 184.003 137.92 183.962C137.88 183.922 137.857 183.868 137.857 183.811V176.613C137.857 176.556 137.88 176.501 137.92 176.461C137.96 176.421 138.015 176.398 138.072 176.398C138.129 176.398 138.183 176.421 138.223 176.461C138.264 176.501 138.286 176.556 138.286 176.613V183.811C138.286 183.868 138.264 183.922 138.223 183.962C138.183 184.003 138.129 184.025 138.072 184.025Z" fill="white"/>
<path d="M137.451 178.321H137.372C137.346 178.311 137.323 178.296 137.304 178.277C137.284 178.258 137.268 178.235 137.258 178.209C137.247 178.184 137.242 178.157 137.242 178.13C137.242 178.102 137.248 178.075 137.259 178.05L138.015 176.312L138.85 177.283C138.886 177.325 138.904 177.379 138.899 177.434C138.895 177.489 138.869 177.54 138.827 177.576C138.807 177.594 138.783 177.607 138.757 177.616C138.731 177.624 138.703 177.628 138.676 177.626C138.621 177.621 138.57 177.595 138.534 177.554L138.128 177.091L137.643 178.219C137.624 178.253 137.596 178.28 137.562 178.298C137.528 178.316 137.489 178.324 137.451 178.321Z" fill="white"/>
<path d="M140.023 182.913C139.968 182.913 139.915 182.892 139.875 182.854C139.835 182.816 139.811 182.764 139.809 182.71V175.512C139.809 175.455 139.831 175.4 139.871 175.36C139.912 175.32 139.966 175.297 140.023 175.297C140.052 175.296 140.08 175.3 140.107 175.31C140.134 175.32 140.158 175.336 140.178 175.356C140.198 175.377 140.214 175.401 140.224 175.428C140.235 175.454 140.239 175.483 140.237 175.512V182.71C140.237 182.737 140.232 182.765 140.221 182.79C140.21 182.815 140.194 182.838 140.174 182.857C140.154 182.876 140.13 182.891 140.104 182.901C140.078 182.91 140.051 182.914 140.023 182.913Z" fill="white"/>
<path d="M139.402 177.188C139.377 177.197 139.349 177.197 139.323 177.188C139.298 177.178 139.274 177.163 139.255 177.144C139.235 177.125 139.22 177.102 139.209 177.077C139.198 177.051 139.193 177.024 139.193 176.997C139.194 176.969 139.199 176.942 139.21 176.917L139.966 175.18L140.801 176.15C140.838 176.19 140.859 176.242 140.859 176.297C140.859 176.351 140.838 176.404 140.801 176.443C140.781 176.463 140.757 176.479 140.731 176.49C140.705 176.501 140.677 176.507 140.649 176.507C140.621 176.507 140.592 176.501 140.566 176.49C140.54 176.479 140.516 176.463 140.497 176.443L140.102 175.981L139.617 177.109C139.592 177.141 139.559 177.165 139.521 177.179C139.483 177.193 139.442 177.196 139.402 177.188Z" fill="white"/>
<path d="M117.178 200.366L94.2637 187.143V134.219L117.178 147.453V200.366Z" fill="#E0E0E0"/>
<path d="M104.902 147.881L108.005 149.675V142.161L104.902 140.367V147.881Z" fill="#F5F5F5"/>
<path d="M108.005 142.155L140.091 123.63L136.977 121.836L104.902 140.361L108.005 142.155Z" fill="white"/>
<path d="M108.005 173.907L66.7687 150.102L25.5215 173.907L66.7687 197.723L108.005 173.907Z" fill="#F5F5F5"/>
<path d="M66.7695 229.47L108.005 205.665V173.906L66.7695 197.723V229.47Z" fill="#EBEBEB"/>
<path d="M72.0603 218.931C71.9176 218.928 71.7778 218.889 71.6541 218.818C71.4778 218.69 71.3374 218.52 71.2465 218.322C71.1556 218.124 71.1172 217.907 71.1352 217.69V214.305V214.057H71.3044L73.9444 212.5V216.268C73.9371 216.75 73.8157 217.223 73.5901 217.648C73.3646 218.074 73.0414 218.44 72.647 218.716C72.4734 218.838 72.2712 218.912 72.0603 218.931ZM71.5526 214.565V217.678C71.5325 217.822 71.5501 217.968 71.6035 218.102C71.6569 218.237 71.7443 218.355 71.8572 218.446C71.9496 218.488 72.0515 218.505 72.1525 218.495C72.2536 218.485 72.3502 218.449 72.4326 218.389C72.7692 218.152 73.0463 217.84 73.242 217.478C73.4378 217.116 73.5469 216.713 73.5608 216.302V216.02H72.5454L72.3536 214.7L71.5526 214.565ZM72.9064 215.603H73.5608V213.29L71.9926 214.215L72.7711 214.35L72.9064 215.603Z" fill="white"/>
<path d="M72.5329 221.618C72.5063 221.618 72.4799 221.613 72.4552 221.603C72.4306 221.593 72.4082 221.578 72.3893 221.559C72.3705 221.54 72.3555 221.518 72.3453 221.493C72.3351 221.468 72.3299 221.442 72.3299 221.415V218.584C72.3225 218.552 72.3223 218.519 72.3294 218.488C72.3365 218.456 72.3505 218.427 72.3706 218.401C72.3907 218.376 72.4162 218.356 72.4453 218.342C72.4744 218.328 72.5063 218.32 72.5386 218.32C72.5709 218.32 72.6028 218.328 72.6318 218.342C72.6609 218.356 72.6865 218.376 72.7065 218.401C72.7266 218.427 72.7407 218.456 72.7478 218.488C72.7548 218.519 72.7547 218.552 72.7473 218.584V221.415C72.7473 221.443 72.7417 221.47 72.7308 221.496C72.7199 221.521 72.7039 221.544 72.6839 221.563C72.6638 221.582 72.6401 221.597 72.6141 221.606C72.5882 221.616 72.5605 221.62 72.5329 221.618Z" fill="white"/>
<path d="M71.3045 222.318C71.2593 222.315 71.2162 222.298 71.1813 222.269C71.1464 222.24 71.1215 222.201 71.1103 222.157C71.099 222.113 71.1019 222.067 71.1185 222.025C71.1352 221.983 71.1647 221.947 71.2029 221.923L73.6624 220.512C73.6848 220.496 73.7103 220.485 73.7373 220.48C73.7643 220.475 73.7922 220.475 73.8189 220.482C73.8457 220.488 73.8707 220.5 73.8924 220.517C73.9141 220.534 73.9318 220.556 73.9445 220.58C73.9607 220.603 73.9718 220.63 73.9772 220.658C73.9826 220.686 73.982 220.714 73.9757 220.742C73.9693 220.769 73.9572 220.795 73.9402 220.818C73.9231 220.841 73.9015 220.86 73.8768 220.873L71.4173 222.318H71.3045Z" fill="white"/>
<path d="M80.059 217.467C79.9847 217.483 79.9077 217.483 79.8334 217.467C79.7472 217.412 79.6775 217.334 79.6318 217.243C79.5861 217.152 79.5661 217.05 79.5739 216.948V216.372C79.5739 216.315 79.5965 216.261 79.6367 216.221C79.6769 216.18 79.7314 216.158 79.7883 216.158C79.8451 216.158 79.8996 216.18 79.9398 216.221C79.98 216.261 80.0026 216.315 80.0026 216.372V216.948C79.9871 216.995 79.9871 217.047 80.0026 217.094C80.0026 217.094 80.0703 217.094 80.1493 217.094C80.2766 216.97 80.3765 216.821 80.4426 216.655C80.5086 216.49 80.5394 216.313 80.5329 216.135V212.378C80.5356 212.322 80.5591 212.269 80.5987 212.23C80.6383 212.19 80.6913 212.167 80.7473 212.164C80.8041 212.164 80.8586 212.187 80.8988 212.227C80.939 212.267 80.9616 212.322 80.9616 212.378V216.135C80.9709 216.387 80.9217 216.637 80.818 216.866C80.7142 217.095 80.5587 217.297 80.3637 217.455C80.2644 217.483 80.1601 217.487 80.059 217.467Z" fill="white"/>
<path d="M77.8359 214.185V213.813C77.8849 212.874 78.1559 211.96 78.6266 211.146C79.0973 210.332 79.7543 209.641 80.5436 209.131C80.8239 208.891 81.1714 208.744 81.5385 208.711C81.9056 208.677 82.2742 208.758 82.5934 208.942C82.9126 209.126 83.1668 209.405 83.321 209.74C83.4752 210.075 83.5218 210.449 83.4544 210.812V210.936L77.8359 214.185ZM81.8072 209.165C81.432 209.184 81.0675 209.296 80.7467 209.492C80.0775 209.936 79.5108 210.518 79.0847 211.199C78.6586 211.88 78.3829 212.644 78.2759 213.44L83.0257 210.688C83.0439 210.423 82.9944 210.157 82.882 209.916C82.7695 209.676 82.5976 209.467 82.3826 209.311C82.2074 209.212 82.0087 209.161 81.8072 209.165Z" fill="white"/>
<path d="M87.6634 213.136C87.6348 213.138 87.6062 213.134 87.5794 213.123C87.5527 213.113 87.5284 213.098 87.5081 213.077C87.4879 213.057 87.4722 213.033 87.462 213.006C87.4518 212.979 87.4474 212.951 87.449 212.922V205.724C87.4416 205.693 87.4415 205.66 87.4485 205.628C87.4556 205.597 87.4697 205.567 87.4898 205.542C87.5098 205.517 87.5354 205.496 87.5644 205.482C87.5935 205.468 87.6254 205.461 87.6577 205.461C87.69 205.461 87.7219 205.468 87.751 205.482C87.7801 205.496 87.8056 205.517 87.8257 205.542C87.8458 205.567 87.8598 205.597 87.8669 205.628C87.874 205.66 87.8738 205.693 87.8664 205.724V212.922C87.868 212.95 87.8639 212.977 87.8543 213.003C87.8448 213.029 87.8301 213.053 87.8111 213.073C87.7921 213.093 87.7692 213.109 87.7438 213.12C87.7184 213.131 87.691 213.137 87.6634 213.136Z" fill="white"/>
<path d="M87.098 207.371H87.0077C86.9817 207.36 86.9582 207.344 86.9388 207.324C86.9193 207.303 86.9044 207.279 86.8948 207.252C86.8853 207.226 86.8813 207.198 86.8833 207.169C86.8853 207.141 86.8931 207.114 86.9062 207.089L87.6508 205.352L88.497 206.322C88.5344 206.365 88.553 206.422 88.5488 206.479C88.5445 206.536 88.5178 206.589 88.4744 206.626C88.431 206.664 88.3745 206.682 88.3174 206.678C88.2603 206.674 88.2072 206.647 88.1698 206.604L87.7749 206.141L87.2898 207.27C87.2697 207.302 87.2414 207.328 87.2077 207.346C87.174 207.364 87.1361 207.373 87.098 207.371Z" fill="white"/>
<path d="M89.6148 212.017C89.5579 212.017 89.5034 211.995 89.4632 211.955C89.423 211.914 89.4004 211.86 89.4004 211.803V204.605C89.4004 204.548 89.423 204.494 89.4632 204.453C89.5034 204.413 89.5579 204.391 89.6148 204.391C89.6716 204.391 89.7261 204.413 89.7663 204.453C89.8065 204.494 89.8291 204.548 89.8291 204.605V211.803C89.8291 211.86 89.8065 211.914 89.7663 211.955C89.7261 211.995 89.6716 212.017 89.6148 212.017Z" fill="white"/>
<path d="M88.994 206.254H88.915C88.8894 206.244 88.8661 206.229 88.8465 206.21C88.8269 206.191 88.8113 206.168 88.8008 206.143C88.7902 206.117 88.7849 206.09 88.7852 206.063C88.7854 206.035 88.7912 206.008 88.8022 205.983L89.5581 204.234L90.3929 205.205C90.4131 205.225 90.429 205.248 90.4399 205.274C90.4508 205.301 90.4565 205.329 90.4565 205.357C90.4565 205.385 90.4508 205.413 90.4399 205.439C90.429 205.466 90.4131 205.489 90.3929 205.509C90.374 205.529 90.3512 205.545 90.326 205.556C90.3008 205.566 90.2737 205.572 90.2463 205.572C90.2189 205.572 90.1917 205.566 90.1665 205.556C90.1413 205.545 90.1186 205.529 90.0996 205.509L89.6935 205.047L89.2083 206.175C89.1846 206.208 89.1515 206.233 89.1133 206.247C89.0751 206.261 89.0335 206.264 88.994 206.254Z" fill="white"/>
<path d="M66.7687 229.47L25.5215 205.665V173.906L66.7687 197.723V229.47Z" fill="#E0E0E0"/>
<path d="M44.5879 192.428L47.6905 194.222V186.708L44.5879 184.914V192.428Z" fill="#F5F5F5"/>
<path d="M47.6905 186.712L88.9377 162.907L85.8351 161.102L44.5879 184.918L47.6905 186.712Z" fill="white"/>
<path d="M32.0534 193.559L41.8913 199.2C42.4605 199.572 42.9346 200.071 43.2756 200.659C43.6165 201.247 43.8148 201.907 43.8544 202.585V208.666C43.8544 209.907 42.9744 210.415 41.8913 209.794L32.0534 204.153C31.4844 203.783 31.0111 203.283 30.6719 202.695C30.3327 202.107 30.1373 201.447 30.1016 200.769V194.699C30.1016 193.435 30.9816 192.984 32.0534 193.559Z" fill="#F5F5F5"/>
<path d="M31.2988 195.07L31.6711 195.285V202.031L31.2988 201.817V195.07Z" fill="#E0E0E0"/>
<path d="M32.8105 195.953L33.4649 196.337V203.072L32.8105 202.7V195.953Z" fill="#E0E0E0"/>
<path d="M34.332 196.828L34.7156 197.042L34.7043 203.789L34.332 203.575V196.828Z" fill="#E0E0E0"/>
<path d="M35.4844 197.484L36.2403 197.924L36.229 204.671L35.4844 204.22V197.484Z" fill="#E0E0E0"/>
<path d="M37.3789 198.594L37.7512 198.808V205.555L37.3789 205.329V198.594Z" fill="#E0E0E0"/>
<path d="M38.4727 199.211L39.2737 199.685V206.42L38.4727 205.946V199.211Z" fill="#E0E0E0"/>
<path d="M40.4258 200.352L40.7981 200.566V207.301L40.4258 207.087V200.352Z" fill="#E0E0E0"/>
<path d="M41.293 200.836L41.4848 200.949V207.684L41.293 207.583V200.836Z" fill="#E0E0E0"/>
<path d="M39.7363 199.977L39.9168 200.078V206.825L39.7363 206.723V199.977Z" fill="#E0E0E0"/>
<path d="M36.668 198.188L36.8485 198.289V205.036L36.668 204.923V198.188Z" fill="#E0E0E0"/>
<path d="M34.9863 197.211L35.1781 197.324V204.059L34.9863 203.958V197.211Z" fill="#E0E0E0"/>
<path d="M33.7793 196.547L33.9711 196.66V203.406L33.7793 203.294V196.547Z" fill="#E0E0E0"/>
<path d="M32.1445 195.555L32.3363 195.668V202.403L32.1445 202.301V195.555Z" fill="#E0E0E0"/>
<path d="M41.9473 201.219L42.3196 201.444V208.18L41.9473 207.965V201.219Z" fill="#E0E0E0"/>
<path d="M98.8428 110.408L66.7679 91.8828L34.6816 110.408L66.7679 128.922L98.8428 110.408Z" fill="#F5F5F5"/>
<path d="M66.7695 192.427L98.8445 173.902V110.406L66.7695 128.92V192.427Z" fill="#EBEBEB"/>
<path d="M72.0603 181.893C71.9185 181.894 71.7787 181.859 71.6541 181.791C71.4778 181.664 71.3374 181.493 71.2465 181.295C71.1556 181.097 71.1172 180.88 71.1352 180.663V177.278V177.03H71.3044L73.9444 175.484V179.241C73.938 179.725 73.817 180.2 73.5915 180.627C73.3659 181.055 73.0422 181.423 72.647 181.701C72.4716 181.815 72.2693 181.881 72.0603 181.893ZM71.5526 177.526V180.652C71.5347 180.795 71.5533 180.94 71.6065 181.074C71.6598 181.208 71.746 181.327 71.8572 181.419C71.9496 181.461 72.0515 181.478 72.1525 181.468C72.2536 181.458 72.3502 181.422 72.4326 181.362C72.7695 181.123 73.0465 180.809 73.2422 180.445C73.4379 180.081 73.5469 179.677 73.5608 179.264V178.993H72.5454L72.3536 177.673L71.5526 177.526ZM72.9064 178.564H73.5608V176.252L71.9926 177.177L72.7711 177.312L72.9064 178.564Z" fill="white"/>
<path d="M72.5335 184.578C72.5058 184.578 72.4785 184.572 72.453 184.561C72.4276 184.55 72.4047 184.534 72.3857 184.514C72.3667 184.494 72.352 184.47 72.3425 184.445C72.333 184.419 72.3289 184.391 72.3304 184.363V181.543C72.3289 181.515 72.333 181.488 72.3425 181.462C72.352 181.436 72.3667 181.412 72.3857 181.392C72.4047 181.372 72.4276 181.356 72.453 181.345C72.4785 181.334 72.5058 181.328 72.5335 181.328C72.562 181.327 72.5906 181.331 72.6174 181.341C72.6441 181.352 72.6684 181.367 72.6887 181.388C72.7089 181.408 72.7246 181.432 72.7348 181.459C72.745 181.486 72.7495 181.514 72.7478 181.543V184.363C72.7495 184.392 72.745 184.421 72.7348 184.447C72.7246 184.474 72.7089 184.498 72.6887 184.519C72.6684 184.539 72.6441 184.555 72.6174 184.565C72.5906 184.575 72.562 184.579 72.5335 184.578Z" fill="white"/>
<path d="M71.3045 185.29C71.2593 185.288 71.2162 185.27 71.1813 185.242C71.1464 185.213 71.1215 185.174 71.1103 185.13C71.099 185.086 71.1019 185.04 71.1185 184.998C71.1352 184.956 71.1647 184.92 71.2029 184.896L73.6624 183.474C73.7118 183.446 73.7704 183.438 73.8254 183.453C73.8805 183.468 73.9273 183.504 73.9557 183.553C73.9842 183.602 73.9918 183.661 73.977 183.716C73.9622 183.771 73.9261 183.818 73.8768 183.846L71.4173 185.257C71.3842 185.279 71.3447 185.291 71.3045 185.29Z" fill="white"/>
<path d="M80.0592 180.426C79.979 180.426 79.9004 180.403 79.8336 180.358C79.7474 180.306 79.6774 180.231 79.6316 180.142C79.5858 180.052 79.5658 179.951 79.5741 179.851V179.275C79.5741 179.219 79.5967 179.164 79.6369 179.124C79.6771 179.084 79.7316 179.061 79.7884 179.061C79.8453 179.061 79.8998 179.084 79.94 179.124C79.9802 179.164 80.0028 179.219 80.0028 179.275V179.851C79.9873 179.898 79.9873 179.95 80.0028 179.997C80.0508 180.011 80.1015 180.011 80.1495 179.997C80.2782 179.877 80.3792 179.729 80.4455 179.566C80.5117 179.402 80.5416 179.226 80.5331 179.05V175.293C80.5331 175.236 80.5556 175.181 80.5958 175.141C80.636 175.101 80.6906 175.078 80.7474 175.078C80.776 175.077 80.8046 175.081 80.8313 175.091C80.8581 175.102 80.8824 175.117 80.9026 175.138C80.9229 175.158 80.9386 175.182 80.9488 175.209C80.959 175.236 80.9634 175.264 80.9618 175.293V179.05C80.9711 179.301 80.9219 179.551 80.8181 179.78C80.7144 180.009 80.5588 180.211 80.3638 180.37C80.2683 180.413 80.1638 180.432 80.0592 180.426Z" fill="white"/>
<path d="M77.8359 177.185V176.824C77.8868 175.884 78.1584 174.969 78.6289 174.154C79.0993 173.339 79.7553 172.645 80.5436 172.131C80.8264 171.897 81.1741 171.755 81.5399 171.725C81.9057 171.695 82.272 171.777 82.5893 171.962C82.9066 172.146 83.1597 172.424 83.3144 172.757C83.4691 173.089 83.518 173.462 83.4544 173.823V173.936L77.8359 177.185ZM81.8072 172.176C81.432 172.195 81.0675 172.308 80.7467 172.503C80.0788 172.946 79.5129 173.527 79.0869 174.206C78.6609 174.885 78.3844 175.646 78.2759 176.441L83.0257 173.699C83.0461 173.434 82.9976 173.168 82.8849 172.926C82.7723 172.685 82.5992 172.477 82.3826 172.323C82.2131 172.203 82.014 172.133 81.8072 172.12V172.176Z" fill="white"/>
<path d="M87.6634 176.058C87.6065 176.058 87.552 176.036 87.5118 175.996C87.4716 175.955 87.449 175.901 87.449 175.844V168.646C87.4416 168.615 87.4415 168.582 87.4485 168.55C87.4556 168.519 87.4697 168.489 87.4898 168.464C87.5098 168.439 87.5354 168.418 87.5644 168.404C87.5935 168.39 87.6254 168.383 87.6577 168.383C87.69 168.383 87.7219 168.39 87.751 168.404C87.7801 168.418 87.8056 168.439 87.8257 168.464C87.8458 168.489 87.8598 168.519 87.8669 168.55C87.874 168.582 87.8738 168.615 87.8664 168.646V175.844C87.8665 175.899 87.8455 175.952 87.8077 175.992C87.7699 176.032 87.7182 176.055 87.6634 176.058Z" fill="white"/>
<path d="M87.098 170.316H87.0077C86.9817 170.306 86.9582 170.289 86.9388 170.269C86.9193 170.249 86.9044 170.224 86.8948 170.198C86.8853 170.171 86.8813 170.143 86.8833 170.115C86.8853 170.087 86.8931 170.059 86.9062 170.034L87.6508 168.297L88.497 169.267C88.5342 169.307 88.555 169.359 88.555 169.414C88.555 169.468 88.5342 169.521 88.497 169.56C88.4554 169.599 88.401 169.62 88.3447 169.62C88.2883 169.62 88.234 169.599 88.1924 169.56L87.7975 169.098L87.3124 170.226C87.2902 170.261 87.2577 170.289 87.2194 170.305C87.181 170.321 87.1387 170.325 87.098 170.316Z" fill="white"/>
<path d="M89.6148 174.931C89.5588 174.929 89.5058 174.905 89.4662 174.866C89.4266 174.826 89.4031 174.773 89.4004 174.717V167.519C89.4004 167.462 89.423 167.408 89.4632 167.367C89.5034 167.327 89.5579 167.305 89.6148 167.305C89.6716 167.305 89.7261 167.327 89.7663 167.367C89.8065 167.408 89.8291 167.462 89.8291 167.519V174.717C89.8264 174.773 89.8029 174.826 89.7633 174.866C89.7237 174.905 89.6707 174.929 89.6148 174.931Z" fill="white"/>
<path d="M88.9945 169.215H88.9155C88.8895 169.204 88.866 169.188 88.8463 169.167C88.8265 169.147 88.811 169.123 88.8005 169.097C88.79 169.071 88.7848 169.043 88.7852 169.015C88.7855 168.987 88.7915 168.959 88.8027 168.933L89.5586 167.195L90.3934 168.166C90.4136 168.186 90.4295 168.209 90.4404 168.235C90.4513 168.262 90.457 168.29 90.457 168.318C90.457 168.346 90.4513 168.374 90.4404 168.4C90.4295 168.427 90.4136 168.45 90.3934 168.47C90.3526 168.505 90.3006 168.524 90.2468 168.524C90.193 168.524 90.141 168.505 90.1001 168.47L89.694 168.008L89.2088 169.136C89.1842 169.168 89.151 169.192 89.113 169.206C89.0751 169.22 89.034 169.223 88.9945 169.215Z" fill="white"/>
<path d="M66.7679 192.427L34.6816 173.902V110.406L66.7679 128.92V192.427Z" fill="#E0E0E0"/>
<path d="M49.9023 126.701L53.0162 128.495V120.993L49.9023 119.188V126.701Z" fill="#F5F5F5"/>
<path d="M53.0162 120.991L85.0911 102.466L81.9886 100.672L49.9023 119.186L53.0162 120.991Z" fill="white"/>
<path d="M41.215 161.796L51.053 167.437C51.6226 167.807 52.0964 168.307 52.4357 168.895C52.7749 169.483 52.97 170.144 53.0048 170.822V176.891C53.0048 178.133 52.1361 178.64 51.053 178.02L41.215 172.379C40.644 172.009 40.1685 171.51 39.8273 170.922C39.4861 170.334 39.2889 169.673 39.252 168.994V162.924C39.2632 161.683 40.132 161.176 41.215 161.796Z" fill="#F5F5F5"/>
<path d="M40.4473 163.32L40.8196 163.535V170.281L40.4473 170.056V163.32Z" fill="#E0E0E0"/>
<path d="M41.9707 164.203L42.6138 164.575V171.322L41.9707 170.939V164.203Z" fill="#E0E0E0"/>
<path d="M43.4941 165.07L43.8665 165.296V172.031L43.4941 171.817V165.07Z" fill="#E0E0E0"/>
<path d="M44.6445 165.727L45.3891 166.178V172.913L44.6445 172.473V165.727Z" fill="#E0E0E0"/>
<path d="M46.5391 166.828L46.9114 167.042V173.789L46.5391 173.575V166.828Z" fill="#E0E0E0"/>
<path d="M47.6348 167.453L48.4358 167.927V174.674L47.6348 174.2V167.453Z" fill="#E0E0E0"/>
<path d="M49.5859 168.594L49.9582 168.808V175.555L49.5859 175.329V168.594Z" fill="#E0E0E0"/>
<path d="M50.4551 169.086L50.6356 169.187V175.934L50.4551 175.821V169.086Z" fill="#E0E0E0"/>
<path d="M48.8867 168.219L49.0785 168.332V175.078L48.8867 174.965V168.219Z" fill="#E0E0E0"/>
<path d="M45.8184 166.43L46.0102 166.542V173.278L45.8184 173.176V166.43Z" fill="#E0E0E0"/>
<path d="M44.1367 165.469L44.3285 165.57V172.317L44.1367 172.204V165.469Z" fill="#E0E0E0"/>
<path d="M42.9414 164.805L43.1219 164.906V171.653L42.9414 171.54V164.805Z" fill="#E0E0E0"/>
<path d="M41.3047 163.805L41.4852 163.906V170.653L41.3047 170.54V163.805Z" fill="#E0E0E0"/>
<path d="M51.0977 169.469L51.4813 169.683V176.419L51.0977 176.204V169.469Z" fill="#E0E0E0"/>
<path d="M34.9872 285.221L158.12 356.298C159.634 357.066 161.307 357.467 163.005 357.467C164.702 357.467 166.376 357.066 167.89 356.298L437.678 200.606C440.375 199.049 440.375 196.522 437.678 194.965L314.546 123.888C313.033 123.114 311.359 122.711 309.66 122.711C307.962 122.711 306.288 123.114 304.775 123.888L34.9872 279.58C32.2907 281.137 32.2907 283.664 34.9872 285.221Z" fill="#455A64"/>
<path d="M101.538 318.218C103.638 319.277 105.956 319.829 108.308 319.829C110.659 319.829 112.978 319.277 115.077 318.218C118.834 316.052 118.834 312.577 115.077 310.377C112.979 309.313 110.66 308.758 108.308 308.758C105.955 308.758 103.636 309.313 101.538 310.377C97.7815 312.577 97.7815 316.074 101.538 318.218Z" fill="#263238"/>
<path d="M160.432 356.301L37.2992 285.224C34.8848 283.825 34.6366 281.658 36.5433 280.102C35.339 281.054 34.3489 282.25 33.6374 283.61C32.926 284.971 32.5091 286.466 32.4141 287.999V292.591C32.5067 294.286 32.9972 295.935 33.8459 297.405C34.6946 298.875 35.8777 300.125 37.2992 301.052L160.432 372.129C161.937 372.916 163.619 373.304 165.317 373.258V357.474C163.615 357.507 161.933 357.103 160.432 356.301Z" fill="#37474F"/>
<path d="M437.666 216.42C439.091 215.494 440.277 214.246 441.128 212.775C441.979 211.305 442.47 209.654 442.562 207.958V203.366C442.471 201.832 442.054 200.334 441.341 198.973C440.627 197.611 439.632 196.417 438.422 195.469C440.34 197.026 440.092 199.192 437.677 200.58L167.889 356.295C166.382 357.078 164.702 357.466 163.004 357.423V373.297C164.702 373.34 166.382 372.952 167.889 372.169L437.666 216.42Z" fill="#263238"/>
<path d="M178.405 341.575L60.5524 273.499C58.9278 272.562 58.9278 271.039 60.5524 270.114L288.36 138.554C289.269 138.092 290.274 137.852 291.293 137.852C292.313 137.852 293.318 138.092 294.227 138.554L412.124 206.619C413.738 207.555 413.738 209.067 412.124 210.003L184.227 341.575C183.323 342.029 182.327 342.266 181.316 342.266C180.305 342.266 179.308 342.029 178.405 341.575Z" fill="white"/>
<path d="M130.918 303.567L144.671 295.624L140.091 292.984L126.338 300.916L130.918 303.567Z" fill="#084C3F"/>
<path d="M295.907 208.309L309.66 200.367L305.068 197.727L291.326 205.669L295.907 208.309Z" fill="#084C3F"/>
<path d="M323.401 192.434L337.154 184.492L332.573 181.852L318.82 189.783L323.401 192.434Z" fill="#084C3F"/>
<path d="M367.536 164.627C368.07 164.894 368.659 165.033 369.257 165.033C369.854 165.033 370.443 164.894 370.977 164.627C371.184 164.556 371.364 164.422 371.491 164.244C371.618 164.066 371.687 163.853 371.687 163.634C371.687 163.415 371.618 163.201 371.491 163.023C371.364 162.845 371.184 162.712 370.977 162.641C370.444 162.369 369.855 162.227 369.257 162.227C368.658 162.227 368.069 162.369 367.536 162.641C367.329 162.712 367.149 162.845 367.022 163.023C366.895 163.201 366.826 163.415 366.826 163.634C366.826 163.853 366.895 164.066 367.022 164.244C367.149 164.422 367.329 164.556 367.536 164.627Z" fill="#263238"/>
<path d="M373.031 180.206C374.096 180.745 375.273 181.026 376.466 181.026C377.66 181.026 378.837 180.745 379.902 180.206C381.797 179.077 381.797 177.329 379.902 176.234C378.837 175.695 377.66 175.414 376.466 175.414C375.273 175.414 374.096 175.695 373.031 176.234C371.136 177.329 371.136 179.111 373.031 180.206Z" fill="#263238"/>
<path d="M368.179 173.299C369.443 172.566 369.375 171.347 368.032 170.569L345.468 157.516C344.742 157.126 343.934 156.915 343.11 156.899C342.286 156.884 341.47 157.064 340.73 157.425C339.466 158.159 339.534 159.377 340.877 160.156L363.508 173.209C364.226 173.586 365.022 173.791 365.833 173.807C366.644 173.822 367.447 173.649 368.179 173.299Z" fill="#263238"/>
<path d="M329.663 120.362L330.43 119.911C329.901 121.836 329.642 123.826 329.663 125.823V128.576C329.663 138.459 341.521 163.708 345.887 172.643C346.338 173.58 340.347 179.954 340.347 179.954L347.466 175.847C347.466 175.847 365.258 161.181 365.258 149.131V146.379C365.258 134.273 357.293 119.866 347.466 114.191C342.502 111.337 338.023 111.235 334.797 113.401L328.027 117.282L329.663 120.362ZM338.565 129.602C338.565 123.961 342.547 121.626 347.466 124.469C347.06 128.113 353.717 139.463 356.357 139.88C356.357 145.521 352.374 147.857 347.466 145.013C344.883 143.321 342.735 141.044 341.196 138.366C339.658 135.689 338.772 132.686 338.61 129.602H338.565Z" fill="#084C3F"/>
<path d="M322.342 132.989C322.545 145.084 340.912 179.957 340.912 179.957C340.912 179.957 358.467 165.042 358.275 152.947V150.195C358.072 138.1 349.87 123.817 339.942 118.311C330.014 112.806 322.139 118.131 322.342 130.237V132.989ZM331.255 133.869C331.164 128.228 335.113 125.825 340.066 128.578C342.684 130.224 344.877 132.464 346.466 135.116C348.056 137.768 348.998 140.758 349.216 143.843C349.317 149.484 345.368 151.887 340.404 149.134C337.789 147.485 335.599 145.244 334.01 142.593C332.42 139.941 331.477 136.953 331.255 133.869Z" fill="#084C3F"/>
<path opacity="0.1" d="M322.342 132.989C322.545 145.084 340.912 179.957 340.912 179.957C340.912 179.957 358.467 165.042 358.275 152.947V150.195C358.072 138.1 349.87 123.817 339.942 118.311C330.014 112.806 322.139 118.131 322.342 130.237V132.989ZM331.255 133.869C331.164 128.228 335.113 125.825 340.066 128.578C342.684 130.224 344.877 132.464 346.466 135.116C348.056 137.768 348.998 140.758 349.216 143.843C349.317 149.484 345.368 151.887 340.404 149.134C337.789 147.485 335.599 145.244 334.01 142.593C332.42 139.941 331.477 136.953 331.255 133.869Z" fill="black"/>
<path d="M150.278 294.291C161.684 300.857 188.422 296.084 210.005 283.618L269.292 249.399C290.875 236.932 299.111 221.521 287.682 214.966C276.253 208.411 249.492 213.206 227.887 225.662L168.713 259.835C147.141 272.29 138.883 287.758 150.278 294.291Z" fill="#F0F0F0"/>
<path d="M322.895 7.41995H322.951L332.71 1.77891H332.789C338.938 -1.33494 347.151 -0.477495 355.996 5.27636C373.777 16.7164 387.349 43.1164 386.322 64.2252C385.803 74.7513 381.81 81.9719 375.638 85.1534H375.582L365.812 90.7944H365.744C359.595 93.9196 351.371 93.0509 342.514 87.3083C324.745 75.857 311.172 49.4682 312.199 28.3595C312.741 17.822 316.791 10.6015 322.895 7.41995Z" fill="#37474F"/>
<path d="M366.309 90.5034L375.616 85.088H375.684C381.799 81.8951 385.838 74.6746 386.357 64.1597C386.808 54.7505 384.36 44.292 379.937 34.5781L370.167 40.2192C374.601 49.933 377.049 60.3915 376.587 69.812C376.101 80.0787 372.22 87.2203 366.309 90.5034Z" fill="#263238"/>
<path d="M342.559 87.2965C324.79 75.8452 311.217 49.4565 312.244 28.3477C313.271 7.23895 328.535 -0.602087 346.271 10.8379C364.006 22.278 377.624 48.678 376.597 69.7868C375.57 90.8955 360.328 98.7365 342.559 87.2965Z" fill="#455A64"/>
<path d="M357.451 85.8076C367.932 86.3153 369.636 74.5256 369.862 69.4486C370.764 50.8332 358.286 26.5768 342.615 16.4793C339.276 14.1404 335.391 12.7026 331.333 12.305C320.864 11.7973 319.16 23.587 318.923 28.664C318.02 47.2794 330.487 71.5358 346.169 81.6897C349.508 84.0286 353.394 85.4664 357.451 85.8641V85.8076Z" fill="#FAFAFA"/>
<path d="M342.367 52.5608C342.49 52.5612 342.613 52.5382 342.728 52.4932C342.963 52.4167 343.167 52.2647 343.308 52.0608C343.449 51.8569 343.518 51.6124 343.506 51.3649V24.4798C343.506 24.1806 343.387 23.8936 343.176 23.682C342.964 23.4704 342.677 23.3516 342.378 23.3516C342.079 23.3516 341.792 23.4704 341.58 23.682C341.369 23.8936 341.25 24.1806 341.25 24.4798V48.0931L328.693 31.9598C328.507 31.7204 328.234 31.5645 327.934 31.5265C327.633 31.4884 327.33 31.5712 327.091 31.7567C326.851 31.9422 326.696 32.2152 326.658 32.5157C326.619 32.8161 326.702 33.1194 326.888 33.3588L341.498 52.1208C341.601 52.2544 341.732 52.3633 341.882 52.4394C342.033 52.5155 342.198 52.557 342.367 52.5608Z" fill="#37474F"/>
<path d="M348.844 72.4506C348.896 72.461 348.95 72.461 349.002 72.4506C349.122 72.4139 349.223 72.3324 349.283 72.2231C349.344 72.1137 349.361 71.9851 349.329 71.8639L343 50.5521C342.964 50.4309 342.881 50.329 342.77 50.2687C342.659 50.2084 342.529 50.1947 342.408 50.2306C342.286 50.2665 342.184 50.3491 342.124 50.4601C342.064 50.5712 342.05 50.7017 342.086 50.8229L348.404 72.1347C348.436 72.226 348.496 72.3053 348.574 72.3617C348.653 72.4182 348.747 72.4492 348.844 72.4506Z" fill="#084C3F"/>
<path d="M342.728 46.0301C340.629 44.6875 338.835 45.6126 338.723 48.0947C338.729 49.4485 339.056 50.7815 339.675 51.9853C340.295 53.1891 341.19 54.2295 342.288 55.0219C344.375 56.3757 346.169 55.4506 346.293 52.9685C346.283 51.6136 345.956 50.2799 345.337 49.0748C344.717 47.8696 343.824 46.8267 342.728 46.0301Z" fill="#084C3F"/>
<path d="M158.424 287.692L172.166 279.749L167.585 277.109L153.844 285.041L158.424 287.692Z" fill="#084C3F"/>
<path d="M185.92 271.817L199.673 263.874L195.081 261.234L181.34 269.166L185.92 271.817Z" fill="#084C3F"/>
<path d="M180.267 268.58C180.267 275.213 175.619 283.246 169.876 286.631C166.819 288.402 164.066 288.459 162.171 287.127C161.406 286.527 160.779 285.771 160.329 284.909C159.88 284.047 159.619 283.1 159.564 282.129C159.95 281.949 160.327 281.75 160.693 281.531C166.435 278.226 171.083 270.159 171.083 263.48C171.089 262.986 171.059 262.492 170.993 262.002C171.854 261.547 172.8 261.276 173.771 261.206C174.742 261.136 175.717 261.269 176.634 261.596C178.891 262.544 180.267 264.992 180.267 268.58Z" fill="#263238"/>
<path d="M181.204 254.947L181.013 254.834C178.124 253.3 174.243 253.582 169.877 256.086C161.021 261.197 153.834 273.63 153.834 283.863C153.834 289.007 155.65 292.606 158.584 294.276C161.517 295.946 165.477 295.664 169.866 293.148C178.722 288.037 185.898 275.593 185.898 265.36C185.909 260.216 184.126 256.617 181.204 254.947ZM169.922 286.604C166.854 288.376 164.101 288.432 162.205 287.09C160.536 285.961 159.52 283.705 159.52 280.602C159.52 273.98 164.18 265.936 169.922 262.551C172.54 261.039 174.92 260.78 176.691 261.558C178.88 262.495 180.257 264.943 180.257 268.553C180.268 275.232 175.62 283.299 169.877 286.627L169.922 286.604Z" fill="#37474F"/>
<path d="M177.221 261.864L177.097 261.796C175.224 260.792 172.686 260.984 169.877 262.597C164.134 265.914 159.475 273.981 159.475 280.649C159.475 284.033 160.603 286.29 162.555 287.418C164.506 288.546 167.067 288.32 169.877 286.673C175.619 283.356 180.267 275.29 180.267 268.622C180.267 265.282 179.105 262.936 177.221 261.864ZM169.877 284.259C167.417 285.68 165.206 285.725 163.672 284.642C162.34 283.706 161.517 281.912 161.517 279.43C161.675 276.53 162.514 273.708 163.967 271.193C165.419 268.678 167.444 266.541 169.877 264.955C170.667 264.403 171.575 264.044 172.529 263.905C173.483 263.765 174.456 263.851 175.371 264.154C177.131 264.91 178.237 266.873 178.237 269.795C178.08 272.694 177.241 275.514 175.788 278.028C174.335 280.541 172.31 282.676 169.877 284.259Z" fill="#084C3F"/>
<path d="M213.415 255.934L227.167 248.003L222.587 245.352L208.834 253.294L213.415 255.934Z" fill="#084C3F"/>
<path d="M240.92 240.059L254.661 232.128L250.081 229.477L236.328 237.419L240.92 240.059Z" fill="#084C3F"/>
<path d="M268.414 224.184L282.156 216.253L277.575 213.602L263.822 221.544L268.414 224.184Z" fill="#084C3F"/>
<path d="M199.988 150.366C200.132 150.174 200.333 150.033 200.562 149.963C200.792 149.893 201.037 149.898 201.264 149.977C201.49 150.057 201.685 150.206 201.821 150.404C201.957 150.601 202.026 150.837 202.019 151.077C202.107 151.719 202.041 152.373 201.828 152.985C201.614 153.597 201.258 154.149 200.789 154.597C199.886 155.375 198.972 155.059 198.758 153.886C198.671 153.244 198.737 152.59 198.95 151.978C199.164 151.367 199.52 150.814 199.988 150.366Z" fill="#084C3F"/>
<path d="M210.57 155.353L201.375 150.039L199.355 154.902L208.584 160.227L210.57 155.353Z" fill="#084C3F"/>
<path d="M209.161 155.653C210.064 154.885 210.966 155.201 211.192 156.375C211.275 157.016 211.206 157.668 210.991 158.277C210.775 158.887 210.419 159.437 209.951 159.883C209.048 160.662 208.135 160.346 207.92 159.173C207.838 158.53 207.907 157.876 208.123 157.265C208.338 156.654 208.694 156.102 209.161 155.653Z" fill="#084C3F"/>
<path d="M279.831 200.154C279.831 200.38 279.831 200.583 279.831 200.809C279.831 201.26 279.831 201.722 279.831 202.185C278.003 201.407 275.622 201.666 273.005 203.178C267.262 206.495 262.603 214.561 262.603 221.229C262.603 224.32 263.618 226.554 265.288 227.716C264.819 228.05 264.333 228.358 263.833 228.641L263.302 228.912L261.712 234.903L252.505 229.77C249.595 228.089 247.801 224.501 247.801 219.379C247.801 209.146 254.976 196.713 263.833 191.591C268.21 189.064 272.17 188.804 275.115 190.463L284.14 195.517L284.332 195.63L279.831 200.154Z" fill="#455A64"/>
<path d="M284.321 195.525L284.13 195.412C281.242 193.878 277.36 194.16 272.994 196.665C264.138 201.775 256.951 214.208 256.951 224.441C256.951 229.586 258.768 233.185 261.701 234.854C264.634 236.524 268.594 236.242 272.983 233.726C281.839 228.615 289.015 216.171 289.015 205.938C289.049 200.794 287.232 197.195 284.321 195.525ZM273.039 227.183C269.971 228.954 267.218 229.01 265.322 227.668C263.653 226.539 262.637 224.283 262.637 221.18C262.637 214.558 267.297 206.514 273.039 203.129C275.657 201.617 278.037 201.358 279.865 202.136C282.054 203.073 283.43 205.521 283.43 209.131C283.408 215.81 278.737 223.877 272.994 227.183H273.039Z" fill="#37474F"/>
<path d="M283.408 209.181C283.408 215.815 278.759 223.848 273.017 227.232C269.959 229.004 267.207 229.06 265.311 227.729C264.547 227.128 263.919 226.372 263.47 225.51C263.021 224.649 262.76 223.701 262.705 222.731C263.091 222.551 263.468 222.351 263.833 222.133C269.576 218.827 274.224 210.761 274.224 204.082C274.229 203.587 274.199 203.094 274.134 202.604C274.994 202.148 275.94 201.877 276.912 201.807C277.883 201.737 278.858 201.87 279.775 202.198C282.009 203.145 283.408 205.571 283.408 209.181Z" fill="#263238"/>
<path d="M280.339 202.44L280.214 202.361C278.342 201.368 275.792 201.549 272.994 203.173C267.251 206.49 262.592 214.546 262.592 221.225C262.592 224.609 263.72 226.866 265.672 227.994C267.624 229.122 270.185 228.885 272.994 227.238C278.736 223.932 283.385 215.866 283.385 209.187C283.407 205.858 282.279 203.523 280.339 202.44ZM272.994 224.824C270.523 226.256 268.312 226.301 266.789 225.218C265.446 224.282 264.634 222.488 264.634 220.006C264.792 217.106 265.631 214.284 267.084 211.769C268.536 209.254 270.561 207.117 272.994 205.531C275.092 204.313 277.01 204.098 278.477 204.73C280.237 205.486 281.343 207.449 281.343 210.371C281.186 213.267 280.348 216.085 278.898 218.596C277.447 221.108 275.424 223.241 272.994 224.824Z" fill="#084C3F"/>
<path d="M263.822 212.551L289.771 197.569C292.783 195.82 283.001 185.61 275.724 184.922C271.718 184.438 267.655 184.822 263.811 186.05C263.811 186.05 269.35 193.146 268.402 197.174C267.455 201.202 263.822 212.551 263.822 212.551Z" fill="#084C3F"/>
<path d="M227.167 170.211C227.167 170.211 264.781 189.187 266.406 190.327C268.03 191.466 266.406 204.7 263.822 212.553C261.239 220.405 257.267 232.477 255.676 235.861C254.086 239.246 252.01 240.51 248.196 242.71L221.119 258.358L184.464 262.825L169.91 254.928L173.701 231.112C173.701 231.112 212.658 210.386 217.994 207.306C223.331 204.226 239.114 189.774 227.167 170.211Z" fill="#084C3F"/>
<path opacity="0.2" d="M227.167 170.211C227.167 170.211 264.781 189.187 266.406 190.327C268.03 191.466 266.406 204.7 263.822 212.553C261.239 220.405 257.267 232.477 255.676 235.861C254.086 239.246 252.01 240.51 248.196 242.71L221.119 258.358L184.464 262.825L169.91 254.928L173.701 231.112C173.701 231.112 212.658 210.386 217.994 207.306C223.331 204.226 239.114 189.774 227.167 170.211Z" fill="black"/>
<path d="M267.128 208.025C270.513 198.932 273.04 191.395 272.611 186.307C272.093 180.271 269.836 175.341 259.885 172.859C249.935 170.377 236.024 170.422 236.024 170.422L231.793 172.87C231.793 172.87 260.404 189.455 263.654 191.26C265.639 192.388 267.76 197.364 263.868 212.56L264.534 212.944C264.861 213.147 266.045 210.947 267.128 208.025Z" fill="#084C3F"/>
<path opacity="0.3" d="M267.128 208.025C270.513 198.932 273.04 191.395 272.611 186.307C272.093 180.271 269.836 175.341 259.885 172.859C249.935 170.377 236.024 170.422 236.024 170.422L231.793 172.87C231.793 172.87 260.404 189.455 263.654 191.26C265.639 192.388 267.76 197.364 263.868 212.56L264.534 212.944C264.861 213.147 266.045 210.947 267.128 208.025Z" fill="white"/>
<path d="M245.456 180.788L250.081 178.148C250.081 178.148 249.81 162.117 243.064 158.224C236.317 154.332 213.415 156.983 213.415 156.983L208.834 159.623L245.456 180.788Z" fill="#084C3F"/>
<path d="M230.449 161.893C228.249 163.167 228.249 165.221 230.449 166.484C231.682 167.113 233.047 167.44 234.431 167.44C235.816 167.44 237.18 167.113 238.414 166.484C240.603 165.221 240.603 163.156 238.414 161.893C237.179 161.27 235.815 160.945 234.431 160.945C233.048 160.945 231.684 161.27 230.449 161.893Z" fill="#F0F0F0"/>
<path d="M237.489 169.554C235.944 170.457 235.944 171.912 237.489 172.803C238.362 173.25 239.329 173.483 240.31 173.483C241.291 173.483 242.257 173.25 243.13 172.803C244.687 171.912 244.687 170.457 243.13 169.554C242.256 169.113 241.29 168.883 240.31 168.883C239.33 168.883 238.364 169.113 237.489 169.554Z" fill="#F0F0F0"/>
<path d="M219.765 159.851C218.208 160.743 218.208 162.198 219.765 163.101C220.64 163.542 221.606 163.772 222.586 163.772C223.566 163.772 224.532 163.542 225.406 163.101C226.963 162.198 226.963 160.743 225.406 159.851C224.533 159.405 223.567 159.172 222.586 159.172C221.605 159.172 220.638 159.405 219.765 159.851Z" fill="#F0F0F0"/>
<path d="M246.176 176.145C247.079 175.367 247.981 175.683 248.207 176.856C248.29 177.499 248.221 178.153 248.006 178.764C247.79 179.375 247.434 179.928 246.966 180.376C246.822 180.568 246.621 180.709 246.392 180.779C246.162 180.849 245.917 180.844 245.69 180.765C245.464 180.686 245.269 180.536 245.133 180.339C244.997 180.141 244.928 179.905 244.935 179.665C244.848 179.022 244.916 178.368 245.131 177.756C245.347 177.144 245.705 176.592 246.176 176.145Z" fill="#084C3F"/>
<path d="M256.703 181.126L247.496 175.812L245.488 180.675L254.706 185.989L256.703 181.126Z" fill="#084C3F"/>
<path d="M255.282 181.436C255.425 181.244 255.627 181.103 255.856 181.033C256.085 180.963 256.331 180.968 256.558 181.048C256.784 181.127 256.979 181.276 257.115 181.474C257.251 181.672 257.32 181.907 257.312 182.147C257.398 182.79 257.331 183.444 257.115 184.056C256.899 184.668 256.542 185.22 256.071 185.667C255.169 186.446 254.266 186.118 254.041 184.956C253.957 184.313 254.025 183.66 254.241 183.048C254.456 182.437 254.813 181.884 255.282 181.436Z" fill="#084C3F"/>
<path d="M255.282 181.436C255.425 181.244 255.627 181.103 255.856 181.033C256.085 180.963 256.331 180.968 256.558 181.048C256.784 181.127 256.979 181.276 257.115 181.474C257.251 181.672 257.32 181.907 257.312 182.147C257.398 182.79 257.331 183.444 257.115 184.056C256.899 184.668 256.542 185.22 256.071 185.667C255.169 186.446 254.266 186.118 254.041 184.956C253.957 184.313 254.025 183.66 254.241 183.048C254.456 182.437 254.813 181.884 255.282 181.436Z" fill="black"/>
<path d="M176.714 259.553C176.714 259.778 176.714 259.981 176.714 260.207C176.714 260.658 176.714 261.121 176.714 261.583C174.886 260.805 172.505 261.064 169.944 262.576C164.202 265.893 159.542 273.96 159.542 280.628C159.542 283.719 160.558 285.953 162.227 287.115C161.759 287.448 161.273 287.757 160.772 288.04L160.242 288.311L158.651 294.301L149.445 289.168C146.534 287.487 144.74 283.899 144.74 278.777C144.74 268.544 151.916 256.112 160.772 250.99C165.15 248.462 169.11 248.203 172.054 249.861L181.08 254.916L181.272 255.029L176.714 259.553Z" fill="#455A64"/>
<path d="M149.252 241.648L142.381 265.465L156.134 273.407L163.253 249.738L149.252 241.648Z" fill="#084C3F"/>
<path opacity="0.2" d="M149.252 241.648L142.381 265.465L156.134 273.407L163.253 249.738L149.252 241.648Z" fill="black"/>
<path d="M149.252 241.647C149.252 241.647 157.048 248.27 163.253 249.737C171.399 251.711 184.35 251.925 188.942 252.241C195.96 252.726 201.262 252.715 203.744 251.824C206.96 250.696 215.602 245.675 217.994 244.299C222.574 241.659 224.526 231.268 211.901 228.425C203.365 226.656 194.67 225.768 185.953 225.773L149.252 241.647Z" fill="#084C3F"/>
<path d="M226.997 238.604C226.605 239.585 226.34 240.613 226.208 241.662C225.844 242.751 225.759 243.915 225.959 245.046C226.82 246.468 228.173 247.525 229.761 248.013C230.906 248.268 232.091 248.284 233.242 248.061C234.393 247.838 235.485 247.38 236.452 246.716C238.787 245.317 240.547 243.625 243.864 242.677C246.235 242.175 248.468 241.163 250.408 239.71C252.247 238.232 254.706 234.148 251.186 233.2C247.666 232.252 240.017 235.592 233.045 235.896L226.997 238.604Z" fill="#37474F"/>
<path d="M226.998 234.25V239.462C227.212 240.048 227.583 240.563 228.07 240.952C228.558 241.34 229.144 241.586 229.762 241.662C230.329 241.745 230.907 241.683 231.443 241.482C232.288 241.159 233.021 240.596 233.55 239.863C234.079 239.129 234.382 238.256 234.422 237.353L234.625 234.25H226.998Z" fill="#FFA8A7"/>
<path d="M236.925 202.016C236.925 208.503 235.097 236.55 235.097 236.55C235.097 236.55 232.446 239.935 226.681 236.55L224.74 205.208L236.925 202.016Z" fill="#37474F"/>
<path d="M206.69 229.656L224.742 219.254C225.481 218.866 226.101 218.283 226.533 217.568C226.965 216.853 227.194 216.034 227.194 215.198C227.194 214.363 226.965 213.544 226.533 212.829C226.101 212.114 225.481 211.531 224.742 211.142L211.293 203.38C210.536 202.997 209.7 202.797 208.851 202.797C208.002 202.797 207.165 202.997 206.408 203.38L188.357 213.782C187.621 214.173 187.004 214.757 186.575 215.472C186.145 216.186 185.918 217.005 185.918 217.838C185.918 218.672 186.145 219.49 186.575 220.205C187.004 220.919 187.621 221.503 188.357 221.894L201.805 229.656C202.562 230.04 203.399 230.24 204.248 230.24C205.097 230.24 205.933 230.04 206.69 229.656Z" fill="#084C3F"/>
<path d="M206.69 229.656L224.742 219.254C225.481 218.866 226.101 218.283 226.533 217.568C226.965 216.853 227.194 216.034 227.194 215.198C227.194 214.363 226.965 213.544 226.533 212.829C226.101 212.114 225.481 211.531 224.742 211.142L211.293 203.38C210.536 202.997 209.7 202.797 208.851 202.797C208.002 202.797 207.165 202.997 206.408 203.38L188.357 213.782C187.621 214.173 187.004 214.757 186.575 215.472C186.145 216.186 185.918 217.005 185.918 217.838C185.918 218.672 186.145 219.49 186.575 220.205C187.004 220.919 187.621 221.503 188.357 221.894L201.805 229.656C202.562 230.04 203.399 230.24 204.248 230.24C205.097 230.24 205.933 230.04 206.69 229.656Z" fill="white"/>
<path d="M188.356 216.603L201.805 224.365C202.562 224.749 203.399 224.949 204.247 224.949C205.096 224.949 205.933 224.749 206.69 224.365L224.741 213.963C225.036 213.863 225.292 213.673 225.473 213.42C225.654 213.167 225.752 212.864 225.752 212.553C225.752 212.241 225.654 211.938 225.473 211.685C225.292 211.432 225.036 211.242 224.741 211.142L211.293 203.38C210.536 202.997 209.699 202.797 208.85 202.797C208.002 202.797 207.165 202.997 206.408 203.38L188.356 213.782C188.062 213.882 187.806 214.072 187.624 214.325C187.443 214.578 187.346 214.881 187.346 215.193C187.346 215.504 187.443 215.807 187.624 216.06C187.806 216.313 188.062 216.503 188.356 216.603Z" fill="#084C3F"/>
<path d="M199.357 147.554L197.066 156.997L187.229 157.595L189.35 144.508L199.357 147.554Z" fill="#FFA8A7"/>
<path d="M208.947 140.445C208.947 140.445 210.075 144.439 209.612 144.665C208.902 144.773 208.179 144.773 207.469 144.665L208.947 140.445Z" fill="#F28F8F"/>
<path d="M207.061 127.701C208.641 129.563 210.085 132.62 208.968 140.112C207.75 148.302 206.238 149.25 205.019 150.04C203.428 151.078 197.065 150.525 195.272 149.216C193.117 147.648 189.788 142.673 188.999 137.765C188.074 132 190.003 125.603 194.245 124.508C200.213 122.963 205.719 126.122 207.061 127.701Z" fill="#FFA8A7"/>
<path d="M188.356 147.16C189.879 148.739 193.004 149.168 194.967 149.529C196.93 149.89 202.966 150.285 204.749 145.986C206.531 141.688 205.313 138.597 207.501 137.559C209.69 136.521 211.879 135.844 212.454 135.302C213.03 134.761 213.041 127.687 207.163 124.02C201.285 120.354 192.282 119.507 186.359 126.942C181.869 132.685 183.707 142.309 188.356 147.16Z" fill="#455A64"/>
<path d="M194.279 149.582C195.802 149.717 200.62 148.961 202.075 146.975C203.531 144.99 204.117 141.436 204.332 139.574C204.351 138.841 204.62 138.137 205.094 137.577C205.568 137.017 206.218 136.635 206.938 136.494C208.393 136.032 211.609 134.452 211.609 134.452V133.572C212.645 133.507 213.685 133.507 214.722 133.572C215.399 133.696 215.027 134.701 213.312 135.569C211.597 136.438 206.893 138.119 206.171 138.694C205.449 139.27 205.11 141.695 204.535 144.279C203.959 146.863 202.177 150.721 194.279 149.582Z" fill="#37474F"/>
<path d="M207.818 160.268L213.459 157.03C214 155.394 213.132 154.57 211.597 154.672C210.063 154.773 210.537 153.284 209.6 152.867C208.37 152.302 207.671 152.618 207.118 152.359C206.565 152.099 206.328 151.445 205.606 151.366C202.38 151.061 200.18 155.665 200.18 155.665L207.818 160.268Z" fill="#F28F8F"/>
<path d="M169.527 201.7C169.527 201.7 194.449 189.346 198.793 187.35C203.137 185.353 209.951 182.453 213.573 182.453C214.988 182.57 216.313 183.193 217.306 184.209C218.299 185.224 218.892 186.564 218.977 187.981C219.024 190.158 218.899 192.334 218.604 194.491C211.757 196.737 204.76 198.498 197.665 199.76C187.297 201.565 169.527 201.7 169.527 201.7Z" fill="#37474F"/>
<path d="M172.235 194.555C172.235 199.677 171.75 205.002 173.882 208.748C176.014 212.493 187.567 221.158 198.443 219.341C205.551 218.145 226.648 208.432 226.648 208.432C226.648 208.432 236.881 204.675 236.926 202.001C236.994 198.063 236.723 192.513 227.799 192.75C219.665 192.964 195.668 197.973 195.668 197.973L172.235 194.555Z" fill="#455A64"/>
<path d="M179.196 153.975C183.055 149.948 185.661 149.609 187.511 150.106C191.763 151.323 195.88 152.971 199.797 155.025C199.797 155.025 198.308 169.443 205.359 173.595V196.069C205.359 196.069 205.145 198.506 202.076 200.931C199.368 203.064 193.242 205.219 185.931 204.609C177.244 203.887 172.235 194.557 172.235 194.557C172.235 194.557 172.009 176.179 173.239 168.879C174.683 160.361 177.865 155.374 179.196 153.975Z" fill="#455A64"/>
<path d="M205.359 174.691C205.359 174.691 201.094 171.306 199.797 166.906C199.797 166.906 200.305 173.811 205.359 177.308V174.691Z" fill="#37474F"/>
<path d="M244.833 185.289C246.859 185.373 248.851 184.755 250.474 183.541C250.474 183.541 252.437 179.727 254.852 180.054C254.852 180.054 255.28 178.43 254.288 177.9C253.295 177.369 252.866 177.516 252.46 176.952C252.054 176.388 252.009 175.339 250.204 175.339C249.459 175.339 249.56 174.808 247.755 174.594C245.95 174.38 244.168 178.543 242.848 178.543L244.833 185.289Z" fill="#FFA8A7"/>
<path d="M199.796 155.023C205.989 155.982 208.235 157.821 210.491 159.909C212.747 161.996 226.557 175.85 226.557 175.85L243.277 178.253C244.155 178.965 244.8 179.924 245.127 181.006C245.804 182.969 245.195 185.113 244.552 185.62C244.552 185.62 227.967 186.613 224.706 185.993C221.446 185.372 205.301 174.654 205.301 174.654C203.758 173.491 202.464 172.029 201.495 170.357C200.526 168.685 199.902 166.835 199.66 164.918C198.611 158.115 199.796 155.023 199.796 155.023Z" fill="#455A64"/>
<path d="M184.927 214.613L159.305 245.887C159.021 245.923 158.734 245.941 158.448 245.943C157.432 245.959 156.428 245.723 155.525 245.255L133.886 232.754L132.42 231.908C131.619 231.446 130.953 229.55 130.953 227.677V222.409C130.952 216.996 132.376 211.679 135.081 206.992C137.786 202.304 141.678 198.411 146.364 195.704L172.2 180.789L199.695 196.663L184.927 214.613Z" fill="#084C3F"/>
<g opacity="0.1">
<path d="M184.927 214.613L159.305 245.887C159.021 245.923 158.734 245.941 158.448 245.943C157.432 245.959 156.428 245.723 155.525 245.255L133.886 232.754L132.42 231.908C131.619 231.446 130.953 229.55 130.953 227.677V222.409C130.952 216.996 132.376 211.679 135.081 206.992C137.786 202.304 141.678 198.411 146.364 195.704L172.2 180.789L199.695 196.663L184.927 214.613Z" fill="black"/>
</g>
<path d="M176.092 225.403L199.661 196.679L172.166 180.805L146.341 195.708C143.001 197.642 140.054 200.187 137.654 203.211L176.092 225.403Z" fill="#084C3F"/>
<path d="M199.661 219.736C199.661 221.609 199.007 223.504 198.195 223.967L196.728 224.813L161.347 245.245C160.704 245.592 159.999 245.81 159.271 245.888C158.987 245.924 158.701 245.943 158.414 245.944V238.284C158.413 232.87 159.838 227.552 162.546 222.864C165.253 218.176 169.147 214.284 173.837 211.579L176.759 209.898L199.661 196.664V219.736Z" fill="#084C3F"/>
<g opacity="0.2">
<path d="M199.661 219.736C199.661 221.609 199.007 223.504 198.195 223.967L196.728 224.813L161.347 245.245C160.704 245.592 159.999 245.81 159.271 245.888C158.987 245.924 158.701 245.943 158.414 245.944V238.284C158.413 232.87 159.838 227.552 162.546 222.864C165.253 218.176 169.147 214.284 173.837 211.579L176.759 209.898L199.661 196.664V219.736Z" fill="black"/>
</g>
<path d="M207.254 258.438L221.097 258.393L240.908 246.953L221.503 260.977L206.893 261.18L207.254 258.438Z" fill="#E0E0E0"/>
<path d="M173.644 278.136C173.644 278.136 198.6 268.727 200.721 267.621C203.211 266.096 205.573 264.371 207.784 262.465C208.235 261.868 208.447 261.124 208.378 260.379C208.309 259.634 207.965 258.942 207.412 258.438C207.412 258.438 197.258 257.975 194.652 258.776C193.196 259.216 169.707 266.752 169.707 266.752L173.644 278.136Z" fill="#E0E0E0"/>
<path d="M172.528 267.615C170.463 265.844 168.388 266.577 167.88 269.24C167.686 270.709 167.841 272.203 168.333 273.601C168.825 274.998 169.64 276.26 170.712 277.284C172.776 279.055 174.852 278.333 175.36 275.659C175.553 274.19 175.397 272.696 174.905 271.299C174.413 269.901 173.599 268.639 172.528 267.615Z" fill="#455A64"/>
</svg>
