<svg width="446" height="332" viewBox="0 0 446 332" fill="none" xmlns="http://www.w3.org/2000/svg">
<path d="M445.73 291.383H0.730469V291.605H445.73V291.383Z" fill="#EBEBEB"/>
<path d="M401.142 305.703H387.881V305.926H401.142V305.703Z" fill="#EBEBEB"/>
<path d="M295.515 308.125H287.781V308.347H295.515V308.125Z" fill="#EBEBEB"/>
<path d="M384.124 297.445H353.695V297.668H384.124V297.445Z" fill="#EBEBEB"/>
<path d="M98.3004 302.039H59.8613V302.262H98.3004V302.039Z" fill="#EBEBEB"/>
<path d="M120.089 302.039H106.223V302.262H120.089V302.039Z" fill="#EBEBEB"/>
<path d="M227.467 299.047H144.092V299.269H227.467V299.047Z" fill="#EBEBEB"/>
<path d="M211.661 251.692H39.8113C38.465 251.69 37.1747 251.153 36.2236 250.2C35.2725 249.248 34.7383 247.956 34.7383 246.61V5.0374C34.75 3.69886 35.2894 2.419 36.2392 1.47581C37.1891 0.532628 38.4727 0.00229298 39.8113 0H211.661C213.009 0 214.302 0.535413 215.255 1.48845C216.208 2.4415 216.743 3.7341 216.743 5.0819V246.61C216.743 247.958 216.208 249.251 215.255 250.204C214.302 251.157 213.009 251.692 211.661 251.692ZM39.8113 0.178001C38.524 0.180358 37.2903 0.693368 36.3809 1.60443C35.4715 2.51549 34.9608 3.75015 34.9608 5.0374V246.61C34.9608 247.897 35.4715 249.132 36.3809 250.043C37.2903 250.954 38.524 251.467 39.8113 251.469H211.661C212.949 251.467 214.184 250.954 215.095 250.044C216.006 249.133 216.518 247.898 216.521 246.61V5.0374C216.518 3.74933 216.006 2.51469 215.095 1.60388C214.184 0.693079 212.949 0.180353 211.661 0.178001H39.8113Z" fill="#EBEBEB"/>
<path d="M404.177 251.692H232.318C230.971 251.69 229.68 251.153 228.727 250.201C227.775 249.248 227.239 247.957 227.236 246.61V5.0374C227.25 3.69805 227.792 2.4182 228.743 1.47526C229.694 0.532317 230.979 0.00226798 232.318 0H404.177C405.514 0.004632 406.796 0.536002 407.744 1.47894C408.691 2.42187 409.23 3.7004 409.241 5.0374V246.61C409.241 247.955 408.708 249.245 407.759 250.197C406.81 251.15 405.522 251.687 404.177 251.692ZM232.318 0.178001C231.03 0.180353 229.796 0.693079 228.885 1.60388C227.974 2.51469 227.461 3.74933 227.459 5.0374V246.61C227.461 247.898 227.974 249.133 228.885 250.044C229.796 250.954 231.03 251.467 232.318 251.469H404.177C405.465 251.467 406.7 250.954 407.611 250.044C408.522 249.133 409.034 247.898 409.037 246.61V5.0374C409.034 3.74933 408.522 2.51469 407.611 1.60388C406.7 0.693079 405.465 0.180353 404.177 0.178001H232.318Z" fill="#EBEBEB"/>
<path d="M197.865 284.891H204.896V236.742H197.865V284.891Z" fill="#F0F0F0"/>
<path d="M55.6526 291.383H200.26V284.886H55.6526V291.383Z" fill="#F0F0F0"/>
<path d="M197.865 236.742H51.0059V284.891H197.865V236.742Z" fill="#F5F5F5"/>
<path d="M188.359 245.125H60.502V272.626H188.359V245.125Z" fill="#F0F0F0"/>
<path d="M93.334 248.797H155.545C156.71 248.797 157.654 247.853 157.654 246.688V246.296C157.654 245.131 156.71 244.187 155.545 244.187H93.334C92.1691 244.187 91.2247 245.131 91.2247 246.296V246.688C91.2247 247.853 92.1691 248.797 93.334 248.797Z" fill="#F5F5F5"/>
<path d="M47.7845 236.742L197.865 236.742V232.443L47.7845 232.443V236.742Z" fill="#F0F0F0"/>
<path d="M208.269 232.438H197.865V236.736H208.269V232.438Z" fill="#E6E6E6"/>
<path d="M192.499 168.93L380.672 168.93V24.6162L192.499 24.6162L192.499 168.93Z" fill="#E6E6E6"/>
<path d="M174.886 19H391.316C391.748 19 392.162 19.1716 392.467 19.4771C392.773 19.7825 392.945 20.1968 392.945 20.6287C392.942 21.0591 392.77 21.4711 392.464 21.7746C392.159 22.0782 391.746 22.2485 391.316 22.2485H174.886C174.671 22.2497 174.458 22.2084 174.26 22.1271C174.061 22.0458 173.88 21.926 173.728 21.7746C173.576 21.6233 173.455 21.4433 173.373 21.2452C173.29 21.047 173.248 20.8345 173.248 20.6198C173.249 20.4059 173.293 20.1944 173.375 19.9972C173.458 19.8001 173.579 19.6212 173.731 19.4708C173.883 19.3203 174.064 19.2014 174.262 19.1206C174.46 19.0398 174.672 18.9989 174.886 19Z" fill="#E6E6E6"/>
<path d="M185.521 168.93L377.414 168.93V24.6162L185.521 24.6162L185.521 168.93Z" fill="#F0F0F0"/>
<path d="M192.499 168.93H380.672V173.549H187.693L192.499 168.93Z" fill="#E6E6E6"/>
<path d="M173.897 168.93H365.79L360.984 173.549H169.1L173.897 168.93Z" fill="#F0F0F0"/>
<path d="M367.643 159.17V34.3828L195.285 34.3828V159.17H367.643Z" fill="#FAFAFA"/>
<path d="M310.13 159.161L252.823 34.3828H225.758L283.074 159.161H310.13Z" fill="white"/>
<path d="M277.263 159.161L219.947 34.3828H209.4L266.716 159.161H277.263Z" fill="white"/>
<path d="M196.531 159.17V34.3828H195.294V159.17H196.531Z" fill="#E6E6E6"/>
<g opacity="0.4">
<path d="M367.535 135.164H384.338V16.0732H367.535V135.164Z" fill="#F0F0F0"/>
<path d="M360.984 135.164H374.076V16.0732H360.984V135.164Z" fill="#E6E6E6"/>
<path d="M350.732 135.164H367.535V16.0732H350.732V135.164Z" fill="#F0F0F0"/>
<path d="M344.182 135.164H357.273V16.0732H344.182V135.164Z" fill="#E6E6E6"/>
<path d="M333.919 135.164H350.723V16.0732H333.919V135.164Z" fill="#F0F0F0"/>
</g>
<g opacity="0.4">
<path d="M201.549 135.164H211.232L211.232 16.0732H201.549V135.164Z" fill="#F0F0F0"/>
<path d="M197.767 135.164H205.314L205.314 16.0732H197.767V135.164Z" fill="#E6E6E6"/>
<path d="M191.858 135.164H201.541L201.541 16.0732H191.858V135.164Z" fill="#F0F0F0"/>
<path d="M188.084 135.164H195.631L195.631 16.0732H188.084V135.164Z" fill="#E6E6E6"/>
<path d="M182.174 135.164H191.857L191.857 16.0732H182.174V135.164Z" fill="#F0F0F0"/>
</g>
<path d="M140.639 16.1562H63.3242V213.701H140.639V16.1562Z" fill="#F5F5F5"/>
<path d="M140.647 213.688H142.766L142.766 16.1431H140.647L140.647 213.688Z" fill="#E0E0E0"/>
<path d="M133.475 206.537V23.3125L70.4804 23.3125L70.4804 206.537H133.475Z" fill="white"/>
<path d="M92.6582 206.537L113.564 23.3125H125.624L104.727 206.537H92.6582Z" fill="#FAFAFA"/>
<path d="M82.2109 206.537L103.108 23.3125H109.142L88.2451 206.537H82.2109Z" fill="#FAFAFA"/>
<path d="M223.23 331.579C318.533 331.579 395.792 327.069 395.792 321.504C395.792 315.94 318.533 311.43 223.23 311.43C127.927 311.43 50.668 315.94 50.668 321.504C50.668 327.069 127.927 331.579 223.23 331.579Z" fill="#F5F5F5"/>
<path d="M354.995 321.509H251.043C249.595 321.525 248.159 321.239 246.828 320.669C245.496 320.099 244.298 319.258 243.309 318.2C242.32 317.142 241.563 315.889 241.085 314.522C240.607 313.155 240.418 311.703 240.532 310.26L255.039 90.3673C255.282 87.3377 256.645 84.5071 258.861 82.4273C261.077 80.3476 263.989 79.1677 267.028 79.1177H370.971C372.418 79.1033 373.853 79.3904 375.183 79.9607C376.514 80.5309 377.711 81.3719 378.699 82.43C379.687 83.4881 380.443 84.7403 380.921 86.1068C381.398 87.4733 381.586 88.9242 381.473 90.3673L366.983 310.26C366.741 313.289 365.378 316.12 363.162 318.2C360.945 320.279 358.034 321.459 354.995 321.509Z" fill="#263238"/>
<path d="M376.879 138.243H364.294C363.945 138.247 363.598 138.177 363.277 138.04C362.956 137.902 362.667 137.699 362.428 137.444C362.19 137.189 362.007 136.887 361.892 136.557C361.776 136.227 361.73 135.877 361.758 135.529L363.013 116.483C363.083 115.758 363.417 115.086 363.953 114.593C364.488 114.1 365.186 113.822 365.914 113.813H378.49C378.835 113.81 379.177 113.878 379.495 114.012C379.813 114.147 380.1 114.346 380.338 114.596C380.576 114.847 380.76 115.144 380.878 115.468C380.997 115.792 381.047 116.138 381.026 116.483L379.771 135.529C379.714 136.26 379.385 136.944 378.85 137.446C378.315 137.948 377.612 138.232 376.879 138.243Z" fill="#263238"/>
<path d="M294.234 76H289.633V76.89H294.234V76Z" fill="#084C3F"/>
<path d="M283.964 76H267.232V76.89H283.964V76Z" fill="#084C3F"/>
<path d="M353.41 321.509H249.458C248.011 321.523 246.576 321.236 245.245 320.666C243.914 320.096 242.716 319.255 241.728 318.197C240.739 317.139 239.981 315.887 239.503 314.52C239.024 313.154 238.835 311.703 238.948 310.259L253.49 90.3669C253.733 87.3373 255.095 84.5067 257.312 82.4269C259.528 80.3472 262.439 79.1673 265.478 79.1173H369.43C370.873 79.1116 372.3 79.4051 373.623 79.9792C374.947 80.5532 376.136 81.3955 377.117 82.4527C378.098 83.5098 378.85 84.759 379.323 86.1212C379.797 87.4834 379.983 88.9291 379.87 90.3669L365.399 310.259C365.156 313.289 363.793 316.119 361.577 318.199C359.361 320.279 356.449 321.459 353.41 321.509Z" fill="#084C3F"/>
<path d="M358.127 295.892H248.15C247.328 295.9 246.512 295.738 245.756 295.414C244.999 295.09 244.319 294.613 243.757 294.012C243.195 293.411 242.765 292.699 242.493 291.923C242.221 291.146 242.114 290.322 242.178 289.501L254.807 98.0624C254.944 96.3458 255.714 94.7413 256.967 93.5604C258.22 92.3795 259.868 91.7065 261.589 91.6722H371.593C372.416 91.6635 373.231 91.8262 373.988 92.1498C374.744 92.4735 375.425 92.951 375.986 93.5521C376.548 94.1532 376.979 94.8646 377.25 95.6411C377.522 96.4176 377.629 97.2422 377.565 98.0624L364.936 289.501C364.799 291.222 364.026 292.831 362.767 294.012C361.508 295.194 359.854 295.864 358.127 295.892Z" fill="white"/>
<path d="M337.612 91.6719H315.772L262.861 295.891H284.702L337.612 91.6719Z" fill="#FAFAFA"/>
<path d="M356.854 91.6719H345.934L293.023 295.891H303.944L356.854 91.6719Z" fill="#FAFAFA"/>
<path d="M342.347 232.613L318.602 142.803C317.967 140.416 316.411 138.377 314.276 137.134C312.14 135.892 309.599 135.546 307.21 136.173L251.033 151.018L243.539 268.374L335.716 244.014C338.103 243.375 340.141 241.817 341.383 239.681C342.625 237.545 342.972 235.004 342.347 232.613Z" fill="#F0F0F0"/>
<path opacity="0.2" d="M307.115 311.094C309.969 308.332 310.189 303.929 307.605 301.258C305.021 298.587 300.613 298.661 297.758 301.422C294.904 304.183 294.684 308.587 297.268 311.258C299.852 313.929 304.26 313.855 307.115 311.094Z" fill="white"/>
<path opacity="0.2" d="M319.91 85.031C319.848 85.8064 319.499 86.5308 318.932 87.0625C318.364 87.5942 317.618 87.8948 316.84 87.9057C316.471 87.9068 316.107 87.8315 315.769 87.6847C315.431 87.5379 315.127 87.3227 314.876 87.0527C314.625 86.7827 314.433 86.4636 314.311 86.1157C314.19 85.7678 314.142 85.3984 314.17 85.031C314.23 84.2548 314.578 83.5292 315.147 82.9971C315.715 82.465 316.462 82.1651 317.24 82.1563C317.609 82.1552 317.974 82.2304 318.312 82.3772C318.65 82.524 318.954 82.7392 319.205 83.0092C319.455 83.2792 319.648 83.5983 319.769 83.9462C319.891 84.2942 319.939 84.6635 319.91 85.031Z" fill="white"/>
<path opacity="0.2" d="M318.612 85.0297C318.581 85.4564 318.391 85.8559 318.079 86.1492C317.768 86.4425 317.358 86.6084 316.93 86.6139C316.726 86.6171 316.523 86.5775 316.336 86.4976C316.148 86.4177 315.979 86.2993 315.839 86.15C315.7 86.0007 315.594 85.8238 315.527 85.6309C315.461 85.4379 315.435 85.2331 315.453 85.0297C315.484 84.603 315.674 84.2035 315.985 83.9102C316.297 83.6169 316.707 83.451 317.135 83.4455C317.339 83.4423 317.541 83.4819 317.729 83.5618C317.917 83.6417 318.086 83.7601 318.225 83.9094C318.365 84.0587 318.471 84.2356 318.538 84.4285C318.604 84.6215 318.63 84.8263 318.612 85.0297Z" fill="white"/>
<path d="M151.426 73.9253C154.746 65.764 153.553 55.8227 144.137 53.5977C142.062 53.0632 139.89 53.0222 137.797 53.4781C135.703 53.9341 133.746 54.8742 132.081 56.2231C130.416 57.5721 129.091 59.2923 128.21 61.2459C127.33 63.1995 126.92 65.3321 127.013 67.4728C127.387 76.3728 133.243 83.7865 122.981 90.239C112.72 96.6915 113.814 116.138 133.661 112.382C153.508 108.626 142.784 98.4181 142.784 98.4181C142.784 98.4181 137.916 102.388 136.349 98.3469C134.365 93.1137 147.581 83.475 151.426 73.9253Z" fill="#263238"/>
<path d="M116.503 100.699L116.066 100.601C117.393 94.6652 119.475 93.1344 121.673 91.5146C123.872 89.8948 125.954 88.3551 127.636 82.5167C128.429 79.7666 127.93 76.7228 127.441 73.7858C126.818 70.0389 126.177 66.1585 128.108 62.6875L128.491 62.91C126.64 66.2386 127.272 70.03 127.877 73.7146C128.375 76.705 128.891 79.7933 128.064 82.6146C126.346 88.5954 124.103 90.2419 121.94 91.8439C119.778 93.4459 117.793 94.9322 116.503 100.699Z" fill="#263238"/>
<path d="M176.702 118.758C176.764 119.06 176.871 119.514 176.969 119.924L177.28 121.179C177.494 122.024 177.734 122.87 177.983 123.715C178.49 125.397 179.033 127.097 179.621 128.77C180.795 132.137 182.138 135.443 183.644 138.676L184.765 141.017C184.955 141.435 185.224 141.813 185.557 142.129C186.557 142.934 187.751 143.462 189.019 143.66C192.347 144.198 195.74 144.198 199.067 143.66L200.269 147.443C199.348 147.848 198.406 148.205 197.447 148.511C196.495 148.827 195.526 149.095 194.546 149.312C192.505 149.782 190.409 149.976 188.316 149.89C185.853 149.821 183.458 149.066 181.401 147.71C180.243 146.906 179.267 145.87 178.535 144.666L178.393 144.443L178.304 144.292L178.126 143.972L177.761 143.349L177.04 142.085C175.177 138.69 173.542 135.176 172.145 131.565C171.468 129.785 170.801 127.925 170.258 126.047C169.991 125.157 169.724 124.169 169.484 123.208C169.243 122.247 169.03 121.339 168.834 120.2L176.702 118.758Z" fill="#FFC3BD"/>
<path d="M169.832 106.315C178.812 110.32 178.732 123.777 178.732 123.777L169.271 129.464C169.271 129.464 162.151 118.926 162.685 114.138C163.21 109.145 164.741 104.063 169.832 106.315Z" fill="#084C3F"/>
<path opacity="0.2" d="M171.245 117.792C168.789 115.309 166.626 118.175 164.65 121.352C166.005 124.162 167.549 126.877 169.269 129.478L173.15 127.146C173.915 124.183 173.693 120.284 171.245 117.792Z" fill="black"/>
<path d="M198.133 143.994L204.452 140.844L204.523 149.112C204.523 149.112 199.806 149.931 196.664 146.62L198.133 143.994Z" fill="#FFC3BD"/>
<path d="M211.242 142.312L210.156 148.453L204.522 149.112L204.451 140.844L211.242 142.312Z" fill="#FFC3BD"/>
<path d="M140.291 314.941L148.105 315.688L151.745 297.505L143.931 296.758L140.291 314.941Z" fill="#FFC3BD"/>
<path d="M89.0547 293.619L95.4093 298.247L106.009 283.206L99.6457 278.578L89.0547 293.619Z" fill="#FFC3BD"/>
<path d="M97.7407 295.357L92.5075 288.193C92.4205 288.066 92.2896 287.975 92.1401 287.939C91.9905 287.903 91.8329 287.924 91.6976 287.997L85.4231 291.325C85.268 291.415 85.1336 291.537 85.0289 291.683C84.9241 291.828 84.8513 291.994 84.8152 292.17C84.779 292.345 84.7804 292.527 84.8192 292.702C84.858 292.877 84.9334 293.042 85.0404 293.185C86.9094 295.651 87.9329 296.745 90.238 299.905C91.662 301.845 94.51 306.34 96.468 309.019C98.426 311.697 101.176 309.909 100.606 308.618C98.0255 302.824 97.9365 299.433 98.1323 296.719C98.1696 296.233 98.0306 295.749 97.7407 295.357Z" fill="#263238"/>
<path d="M149.138 313.329H139.757C139.589 313.329 139.425 313.385 139.291 313.488C139.158 313.591 139.062 313.736 139.019 313.899L136.98 321.295C136.93 321.47 136.922 321.654 136.956 321.833C136.99 322.012 137.065 322.18 137.176 322.324C137.287 322.469 137.43 322.585 137.594 322.665C137.758 322.744 137.938 322.784 138.12 322.781C141.43 322.781 142.997 322.781 147.118 322.781H159.729C163.155 322.781 163.867 319.319 162.452 318.998C156.098 317.592 152.431 315.652 150.464 313.801C150.097 313.482 149.624 313.313 149.138 313.329Z" fill="#263238"/>
<path opacity="0.2" d="M151.746 297.513L149.868 306.885H141.902L143.932 296.766L151.746 297.513Z" fill="black"/>
<path opacity="0.2" d="M99.6443 278.578L106.008 283.215L100.543 290.967L94.1797 286.33L99.6443 278.578Z" fill="black"/>
<path d="M173.532 113.405C172.98 119.412 170.987 131.205 165.157 154.247L133.171 151.479C134.71 139.473 135.431 131.694 132.423 108.964C132.325 108.212 132.383 107.449 132.593 106.721C132.802 105.993 133.16 105.315 133.642 104.731C134.124 104.147 134.722 103.668 135.397 103.325C136.072 102.981 136.811 102.78 137.567 102.734C139.872 102.609 142.614 102.529 145.364 102.636C150.229 102.709 155.083 103.128 159.889 103.891C162.71 104.398 165.718 105.128 168.166 105.769C169.818 106.201 171.265 107.206 172.247 108.604C173.229 110.002 173.685 111.703 173.532 113.405Z" fill="#084C3F"/>
<path opacity="0.2" d="M133.242 115.618C133.652 119.178 133.954 122.356 134.132 125.204C137.078 124.945 139.25 121.715 139.472 114.96C138.369 111.693 135.743 112.877 133.242 115.618Z" fill="black"/>
<path d="M165.159 154.251C165.159 154.251 175.981 202.133 168.719 235.891C163.886 258.497 153.126 304.163 153.126 304.163L139.482 303.816C139.482 303.816 145.997 255.889 148.73 237.066C153.402 204.83 141.699 152.258 141.699 152.258L165.159 154.251Z" fill="#263238"/>
<path opacity="0.2" d="M152.68 163.922L145.854 174.682C147.909 187.44 149.214 200.308 149.761 213.219C159.355 196.042 154.807 173.009 152.68 163.922Z" fill="black"/>
<path d="M155.083 304.873L138.227 304.445L139.206 299.266L156.4 300.076L155.083 304.873Z" fill="#084C3F"/>
<path d="M158.163 153.737C158.163 153.737 151.817 204.512 138.049 232.235C126.933 254.628 103.677 290.219 103.677 290.219L95.1777 283.41C95.1777 283.41 109.72 244.045 117.98 229.174C138.245 192.684 121.682 164.871 133.172 151.477L158.163 153.737Z" fill="#263238"/>
<path d="M291.269 108.553L139.99 172.114C135.241 174.109 133.008 179.576 135.004 184.326L170.985 269.963C172.98 274.712 178.448 276.945 183.197 274.949L334.476 211.388C339.225 209.393 341.457 203.926 339.462 199.176L303.481 113.539C301.485 108.79 296.018 106.558 291.269 108.553Z" fill="#084C3F"/>
<path opacity="0.1" d="M291.269 108.553L139.99 172.114C135.241 174.109 133.008 179.576 135.004 184.326L170.985 269.963C172.98 274.712 178.448 276.945 183.197 274.949L334.476 211.388C339.225 209.393 341.457 203.926 339.462 199.176L303.481 113.539C301.485 108.79 296.018 106.558 291.269 108.553Z" fill="black"/>
<path opacity="0.2" d="M181.719 168.302L152.098 180.747C149.814 181.706 148.741 184.336 149.7 186.62L155.944 201.479C156.903 203.763 159.533 204.837 161.817 203.877L191.437 191.432C193.721 190.472 194.795 187.843 193.835 185.559L187.592 170.699C186.632 168.416 184.003 167.342 181.719 168.302Z" fill="white"/>
<path opacity="0.4" d="M202.502 227.045L173.48 239.239C172.624 239.599 172.221 240.585 172.581 241.441L174.784 246.685C175.144 247.541 176.13 247.944 176.987 247.584L206.008 235.39C206.865 235.03 207.267 234.044 206.907 233.188L204.705 227.945C204.345 227.088 203.359 226.686 202.502 227.045Z" fill="white"/>
<path opacity="0.4" d="M240.262 211.186L211.24 223.38C210.384 223.74 209.981 224.726 210.341 225.582L212.544 230.825C212.904 231.682 213.89 232.084 214.746 231.724L243.768 219.531C244.625 219.171 245.027 218.185 244.667 217.328L242.464 212.085C242.104 211.229 241.118 210.826 240.262 211.186Z" fill="white"/>
<path opacity="0.4" d="M278.012 195.319L248.99 207.512C248.134 207.872 247.731 208.858 248.091 209.715L250.294 214.958C250.654 215.814 251.64 216.217 252.496 215.857L281.518 203.664C282.374 203.304 282.777 202.318 282.417 201.461L280.214 196.218C279.854 195.362 278.868 194.959 278.012 195.319Z" fill="white"/>
<path opacity="0.4" d="M315.77 179.459L286.748 191.653C285.892 192.013 285.489 192.999 285.849 193.855L288.052 199.099C288.412 199.955 289.398 200.358 290.254 199.998L319.276 187.804C320.132 187.444 320.535 186.458 320.175 185.602L317.972 180.359C317.612 179.502 316.626 179.1 315.77 179.459Z" fill="white"/>
<path d="M104.567 291.163L93.6641 282.913L96.343 278.125L107.931 287.114L104.567 291.163Z" fill="#084C3F"/>
<path d="M132.851 149.563L131.16 152.304C131.026 152.509 131.275 152.767 131.64 152.793L165.193 155.695C165.478 155.695 165.727 155.597 165.763 155.419L166.297 152.58C166.341 152.384 166.101 152.197 165.789 152.17L133.393 149.367C133.294 149.351 133.192 149.36 133.097 149.395C133.002 149.429 132.917 149.487 132.851 149.563Z" fill="#084C3F"/>
<path opacity="0.5" d="M132.851 149.563L131.16 152.304C131.026 152.509 131.275 152.767 131.64 152.793L165.193 155.695C165.478 155.695 165.727 155.597 165.763 155.419L166.297 152.58C166.341 152.384 166.101 152.197 165.789 152.17L133.393 149.367C133.294 149.351 133.192 149.36 133.097 149.395C133.002 149.429 132.917 149.487 132.851 149.563Z" fill="black"/>
<path d="M136.9 153.564L136.01 153.493C135.841 153.493 135.716 153.377 135.734 153.27L136.464 149.586C136.464 149.47 136.642 149.399 136.82 149.417L137.71 149.488C137.888 149.488 138.013 149.604 137.986 149.71L137.256 153.395C137.22 153.502 137.06 153.582 136.9 153.564Z" fill="#084C3F"/>
<path d="M162.711 155.796L161.821 155.724C161.651 155.724 161.527 155.609 161.545 155.502L162.274 151.817C162.306 151.754 162.359 151.702 162.423 151.672C162.488 151.641 162.561 151.633 162.63 151.648L163.52 151.719C163.698 151.719 163.823 151.835 163.796 151.942L163.067 155.627C163.058 155.751 162.897 155.813 162.711 155.796Z" fill="#084C3F"/>
<path d="M149.806 154.682L148.916 154.602C148.738 154.602 148.614 154.486 148.64 154.38L149.37 150.695C149.37 150.588 149.548 150.508 149.717 150.526L150.607 150.606C150.776 150.606 150.901 150.722 150.883 150.829L150.153 154.513C150.136 154.62 149.984 154.691 149.806 154.682Z" fill="#084C3F"/>
<path d="M99.7348 299.32C99.6347 299.337 99.5324 299.337 99.4323 299.32C98.4622 299.124 97.6522 297.477 97.225 296.516C97.2082 296.491 97.1992 296.462 97.1992 296.432C97.1992 296.401 97.2082 296.372 97.225 296.347C97.2482 296.33 97.2763 296.32 97.3052 296.32C97.334 296.32 97.3621 296.33 97.3852 296.347C97.6878 296.454 100.34 297.477 100.545 298.447C100.569 298.552 100.564 298.662 100.529 298.765C100.495 298.867 100.432 298.957 100.349 299.026C100.181 299.187 99.9656 299.289 99.7348 299.32ZM97.6612 296.721C98.2664 298.047 98.9428 298.892 99.4946 298.999C99.6192 299.018 99.7465 299.005 99.8648 298.962C99.983 298.918 100.088 298.845 100.171 298.75C100.215 298.717 100.249 298.671 100.268 298.619C100.287 298.567 100.291 298.51 100.278 298.456C100.153 297.86 98.5779 297.095 97.6612 296.721Z" fill="#084C3F"/>
<path d="M99.8149 296.845C98.9689 296.95 98.1101 296.858 97.3051 296.578C97.2805 296.567 97.2593 296.549 97.2436 296.528C97.228 296.506 97.2185 296.48 97.2161 296.453C97.2126 296.426 97.2166 296.398 97.2275 296.373C97.2385 296.348 97.2561 296.327 97.2784 296.311C97.3585 296.257 99.1919 294.922 100.295 295.172C100.432 295.198 100.561 295.253 100.673 295.335C100.785 295.416 100.878 295.522 100.945 295.643C101.033 295.755 101.081 295.893 101.081 296.035C101.081 296.177 101.033 296.315 100.945 296.426C100.628 296.693 100.229 296.841 99.8149 296.845ZM97.7412 296.373C98.6312 296.631 100.295 296.649 100.705 296.195C100.776 296.124 100.838 296.008 100.705 295.777C100.661 295.694 100.599 295.622 100.523 295.567C100.448 295.511 100.361 295.474 100.269 295.456C99.5212 295.305 98.2396 296.044 97.7412 296.373Z" fill="#084C3F"/>
<path d="M153.304 314.839C152.441 314.818 151.582 314.71 150.741 314.519C150.712 314.507 150.688 314.486 150.671 314.46C150.654 314.434 150.645 314.403 150.645 314.372C150.645 314.341 150.654 314.31 150.671 314.284C150.688 314.258 150.712 314.238 150.741 314.225C151.132 314.038 154.532 312.445 155.387 313.051C155.466 313.101 155.529 313.173 155.568 313.258C155.608 313.343 155.622 313.438 155.609 313.531C155.607 313.705 155.564 313.877 155.484 314.031C155.403 314.186 155.288 314.319 155.146 314.421C154.592 314.754 153.947 314.9 153.304 314.839ZM151.275 314.305C152.289 314.492 154.158 314.742 154.924 314.163C155.023 314.085 155.104 313.987 155.163 313.875C155.221 313.763 155.255 313.639 155.262 313.513C155.262 313.389 155.262 313.335 155.182 313.309C154.701 312.979 152.69 313.682 151.275 314.305Z" fill="#084C3F"/>
<path d="M150.775 314.517C150.744 314.529 150.709 314.529 150.677 314.517C150.654 314.5 150.637 314.476 150.627 314.449C150.618 314.422 150.617 314.393 150.624 314.365C150.624 314.214 151.425 310.859 153.294 311.072C153.757 311.135 153.881 311.357 153.908 311.544C154.024 312.434 151.879 314.125 150.846 314.543L150.775 314.517ZM153.107 311.339C151.923 311.339 151.238 313.297 151.007 314.08C152.119 313.493 153.677 312.096 153.579 311.553C153.579 311.508 153.579 311.384 153.232 311.348L153.107 311.339Z" fill="#084C3F"/>
<path d="M136.714 115.784L136.242 116.452L135.726 117.208C135.379 117.725 135.031 118.25 134.702 118.793C134.026 119.861 133.412 120.973 132.789 122.086C131.558 124.323 130.476 126.639 129.549 129.019C128.614 131.384 127.832 133.807 127.208 136.272L126.79 138.052C126.79 137.999 126.737 138.186 126.835 138.524C127.141 139.475 127.588 140.375 128.161 141.194C129.598 143.261 131.212 145.199 132.984 146.988C134.764 148.875 136.74 150.699 138.707 152.515C140.674 154.33 142.739 156.075 144.804 157.792C146.868 159.51 148.978 161.246 151.034 162.919L148.809 166.203C144.041 163.375 139.439 160.279 135.023 156.929C132.798 155.256 130.617 153.494 128.508 151.589C126.296 149.651 124.278 147.501 122.482 145.172C121.406 143.804 120.564 142.267 119.99 140.624C119.601 139.481 119.47 138.265 119.608 137.064V136.815V136.682L119.652 136.415L119.741 135.872L119.928 134.795C120.452 131.928 121.19 129.105 122.135 126.349C123.113 123.606 124.27 120.93 125.597 118.339C126.265 117.039 126.995 115.784 127.778 114.547C128.161 113.924 128.561 113.31 128.979 112.696L129.638 111.806C129.869 111.495 130.065 111.219 130.377 110.836L136.714 115.784Z" fill="#FFC3BD"/>
<path d="M135.921 103.242C129.816 104.844 123.924 119.645 123.924 119.645L131.827 126.871C131.827 126.871 144.243 115.551 143.824 110.442C143.477 106.099 140.825 101.942 135.921 103.242Z" fill="#084C3F"/>
<path opacity="0.2" d="M145.365 102.352C144.247 102.58 143.107 102.684 141.965 102.663C141.725 107.06 144.546 111.305 151.479 117.001C153.144 111.812 156.819 110.691 156.819 110.691L145.365 102.352Z" fill="black"/>
<path opacity="0.2" d="M159.888 103.75C159.888 103.75 160.698 103.866 162.629 104.311C163.92 106.295 165.593 112.41 161.793 116.771C160.315 111.431 156.791 110.754 156.791 110.754L159.888 103.75Z" fill="black"/>
<path d="M145.364 102.352C145.364 102.352 143.584 102.352 141.412 102.352C140.122 104.336 144.563 109.836 151.487 115.532C153.151 110.344 156.827 110.655 156.827 110.655L145.364 102.352Z" fill="white"/>
<path d="M159.888 103.75C159.888 103.75 160.698 103.866 162.629 104.311C163.92 106.295 166.706 111.671 162.905 115.996C161.428 110.656 156.791 110.728 156.791 110.728L159.888 103.75Z" fill="white"/>
<path d="M148.222 86.375C148.738 91.1276 148.907 99.725 145.365 102.609C145.365 102.609 147.208 107.949 156.793 110.725C162.56 107.397 159.89 103.863 159.89 103.863C154.79 102.172 155.262 98.3188 156.481 94.7588L148.222 86.375Z" fill="#FFC3BD"/>
<path opacity="0.2" d="M151.586 89.8047L156.481 94.762C156.181 95.5859 155.955 96.4347 155.804 97.2985C153.838 96.8446 150.99 94.7976 150.963 92.6972C150.999 91.7039 151.21 90.7248 151.586 89.8047Z" fill="black"/>
<path d="M159.043 67.3851C160.601 65.6674 163.689 67.8568 164.828 72.0665C166.537 78.2965 161.98 78.7415 159.595 75.6265C157.21 72.5115 157.744 68.818 159.043 67.3851Z" fill="#263238"/>
<path d="M163.867 78.3227C165.43 78.8635 166.907 79.6247 168.255 80.5833C167.481 78.6965 166.786 77.5484 163.867 78.3227Z" fill="#263238"/>
<path d="M164.768 78.6128C166.033 78.3609 167.327 78.289 168.612 78.3992C167.349 77.4291 166.432 76.9485 164.768 78.6128Z" fill="#263238"/>
<path d="M144.02 78.9508C146.005 86.5425 146.69 89.7999 151.336 92.9772C158.34 97.7654 167.231 93.6714 167.561 85.6347C167.854 78.4079 164.561 67.2117 156.436 65.6275C154.645 65.264 152.791 65.366 151.051 65.9238C149.311 66.4815 147.743 67.4763 146.497 68.813C145.252 70.1498 144.37 71.7838 143.936 73.5587C143.502 75.3337 143.531 77.1902 144.02 78.9508Z" fill="#FFC3BD"/>
<path d="M147.688 68.9389L145.489 71.4932C144.83 72.2478 143.899 72.7122 142.9 72.7855C141.9 72.8588 140.912 72.5352 140.149 71.8848C139.393 71.2264 138.927 70.2966 138.852 69.297C138.778 68.2974 139.1 67.3085 139.749 66.5448L141.947 63.9994C142.607 63.2454 143.536 62.7809 144.535 62.706C145.534 62.6311 146.523 62.9518 147.287 63.5989C148.041 64.2585 148.506 65.188 148.581 66.1869C148.655 67.1858 148.335 68.1742 147.688 68.9389Z" fill="white"/>
<path d="M149.717 71.7924L147.047 73.1274C145.951 73.6642 144.688 73.7455 143.532 73.3536C142.377 72.9617 141.423 72.1285 140.88 71.0359C140.342 69.9388 140.261 68.6737 140.653 67.5167C141.044 66.3596 141.878 65.4044 142.971 64.8593L145.641 63.5243C146.739 62.9878 148.005 62.9076 149.162 63.3011C150.32 63.6946 151.274 64.5299 151.818 65.6247C152.354 66.7217 152.434 67.9862 152.04 69.142C151.647 70.2977 150.811 71.2507 149.717 71.7924Z" fill="#084C3F"/>
<path d="M146.299 84.6297C146.299 84.6297 151.781 83.3748 149.449 75.3559C149.362 75.0473 149.347 74.7229 149.405 74.4075C149.463 74.0921 149.592 73.7941 149.782 73.5364C149.973 73.2786 150.22 73.068 150.505 72.9206C150.79 72.7731 151.105 72.6929 151.425 72.6859C157.602 72.5168 163.378 71.2263 162.559 67.6485C161.535 63.1273 146.147 59.6385 143.353 68.6898C137.897 69.9625 137.692 80.7137 146.299 84.6297Z" fill="#263238"/>
<path d="M146.326 83.0481C147.889 83.5889 149.366 84.3501 150.714 85.3087C149.94 83.4397 149.245 82.2916 146.326 83.0481Z" fill="#263238"/>
<path d="M147.225 83.3608C148.49 83.1089 149.784 83.037 151.069 83.1472C149.815 82.1949 148.898 81.7054 147.225 83.3608Z" fill="#263238"/>
<path d="M142.774 84.9133C143.485 86.254 144.698 87.2588 146.148 87.7079C148.079 88.2864 149.076 86.5776 148.577 84.7353C148.123 83.0799 146.575 80.7926 144.626 81.0151C144.202 81.0737 143.799 81.2369 143.454 81.49C143.108 81.743 142.832 82.0779 142.648 82.4645C142.464 82.8512 142.38 83.2774 142.402 83.7049C142.424 84.1324 142.552 84.5476 142.774 84.9133Z" fill="#FFC3BD"/>
<path d="M156.889 78.6972C157.014 79.3202 157.45 79.7652 157.85 79.6851C158.251 79.605 158.491 79.0265 158.375 78.4035C158.26 77.7805 157.815 77.3355 157.405 77.4156C156.996 77.4957 156.765 78.0653 156.889 78.6972Z" fill="#263238"/>
<path d="M163.965 77.2977C164.09 77.9296 164.517 78.3657 164.927 78.2856C165.336 78.2055 165.567 77.6358 165.443 77.0128C165.318 76.3898 164.891 75.9448 164.482 76.0249C164.072 76.105 163.841 76.6747 163.965 77.2977Z" fill="#263238"/>
<path d="M164.312 76.097L165.728 75.3672C165.728 75.3672 165.185 76.6933 164.312 76.097Z" fill="#263238"/>
<path d="M161.535 78.8672C162.373 80.1866 163.388 81.3845 164.552 82.4272C164.281 82.7247 163.947 82.9586 163.575 83.1125C163.202 83.2663 162.801 83.3362 162.398 83.3172L161.535 78.8672Z" fill="#ED847E"/>
<path d="M159.507 86.2619C158.19 86.2788 156.917 85.7917 155.947 84.9002C155.918 84.8704 155.902 84.8305 155.902 84.789C155.902 84.7475 155.918 84.7076 155.947 84.6777C155.977 84.6489 156.017 84.6328 156.059 84.6328C156.1 84.6328 156.14 84.6489 156.17 84.6777C156.769 85.2059 157.484 85.5851 158.257 85.7846C159.031 85.9841 159.84 85.9982 160.62 85.8258C160.66 85.8187 160.701 85.8279 160.735 85.8513C160.768 85.8746 160.791 85.9103 160.798 85.9504C160.805 85.9906 160.796 86.0319 160.772 86.0652C160.749 86.0986 160.713 86.1214 160.673 86.1284C160.29 86.2145 159.9 86.2593 159.507 86.2619Z" fill="#263238"/>
<path d="M152.645 76.2673C152.589 76.265 152.534 76.2498 152.485 76.2228C152.414 76.1803 152.363 76.1114 152.343 76.0313C152.323 75.9512 152.336 75.8664 152.378 75.7956C152.673 75.2955 153.082 74.873 153.573 74.5634C154.064 74.2538 154.622 74.066 155.2 74.0156C155.282 74.0155 155.36 74.0468 155.42 74.1031C155.48 74.1594 155.515 74.2364 155.52 74.3182C155.521 74.3591 155.514 74.3999 155.5 74.4381C155.485 74.4764 155.463 74.5114 155.435 74.5411C155.407 74.5709 155.373 74.5948 155.336 74.6115C155.299 74.6283 155.258 74.6375 155.217 74.6386C154.74 74.6911 154.282 74.8566 153.881 75.1212C153.48 75.3859 153.148 75.7421 152.912 76.1605C152.88 76.1985 152.838 76.228 152.792 76.2466C152.745 76.2652 152.695 76.2723 152.645 76.2673Z" fill="#263238"/>
<path d="M165.932 73.7542C165.883 73.7674 165.83 73.7674 165.781 73.7542C165.366 73.5095 164.899 73.3658 164.418 73.3349C163.937 73.304 163.456 73.3866 163.013 73.5762C162.934 73.6163 162.842 73.6234 162.758 73.5959C162.674 73.5683 162.604 73.5085 162.564 73.4294C162.523 73.3503 162.516 73.2585 162.544 73.1742C162.571 73.0899 162.631 73.02 162.71 72.9799C163.243 72.7384 163.827 72.6293 164.411 72.6619C164.995 72.6944 165.563 72.8677 166.066 73.1668C166.101 73.1863 166.132 73.2126 166.158 73.2444C166.183 73.2761 166.201 73.3125 166.212 73.3515C166.223 73.3905 166.226 73.4313 166.22 73.4714C166.215 73.5115 166.202 73.5502 166.181 73.5851C166.159 73.6332 166.124 73.6743 166.08 73.704C166.036 73.7338 165.985 73.7512 165.932 73.7542Z" fill="#263238"/>
<path d="M148.124 161.594L155.244 162.092L152.031 169.702C152.031 169.702 146.086 167.824 145.846 163.472L148.124 161.594Z" fill="#FFC3BD"/>
<path d="M157.975 166.394L154.531 171.591L152.039 169.695L155.27 162.086L157.975 166.394Z" fill="#FFC3BD"/>
<path d="M157.236 77.4876L158.651 76.7578C158.651 76.7578 158.109 78.0839 157.236 77.4876Z" fill="#263238"/>
</svg>
