<svg width="22" height="17" viewBox="0 0 22 17" fill="none" xmlns="http://www.w3.org/2000/svg">
<path d="M11.8308 4.2824V1.08092C11.8308 0.802528 11.9414 0.535541 12.1383 0.33869C12.3351 0.14184 12.6021 0.03125 12.8805 0.03125C13.1559 0.0324095 13.4198 0.141734 13.6153 0.335653L20.9629 7.68332C21.0613 7.7809 21.1394 7.897 21.1927 8.02491C21.246 8.15282 21.2734 8.29002 21.2734 8.42859C21.2734 8.56715 21.246 8.70435 21.1927 8.83226C21.1394 8.96018 21.0613 9.07627 20.9629 9.17385L13.6153 16.5215C13.4679 16.666 13.2813 16.7638 13.0786 16.8027C12.876 16.8417 12.6664 16.82 12.476 16.7405C12.2856 16.661 12.1228 16.5271 12.0081 16.3556C11.8933 16.1841 11.8317 15.9826 11.8308 15.7763V12.5223H10.9386C9.28024 12.4976 7.63633 12.834 6.121 13.5083C4.60568 14.1826 3.25524 15.1785 2.16341 16.427C2.03183 16.6022 1.84874 16.7318 1.6398 16.7977C1.43086 16.8636 1.20654 16.8624 0.998282 16.7944C0.786348 16.7229 0.602802 16.5856 0.474405 16.4024C0.346009 16.2193 0.279476 15.9999 0.284508 15.7763C0.284508 6.20329 8.76582 4.56581 11.8308 4.2824V4.2824ZM10.9386 10.402C11.6407 10.3998 12.3421 10.4454 13.038 10.5384C13.2865 10.5761 13.5132 10.7017 13.6769 10.8924C13.8406 11.0831 13.9305 11.3262 13.9302 11.5776V13.2466L18.7377 8.42859L13.9302 3.61061V5.27959C13.9302 5.55797 13.8196 5.82496 13.6227 6.02181C13.4259 6.21866 13.1589 6.32925 12.8805 6.32925C11.9253 6.32925 4.36771 6.53919 2.73023 13.0786C5.107 11.3263 7.98574 10.3875 10.9386 10.402V10.402Z" fill="#084C3F"/>
</svg>
