<svg width="21" height="20" viewBox="0 0 21 20" fill="none" xmlns="http://www.w3.org/2000/svg">
<path d="M3.30811 9.1665L3.30811 12.9165C3.30811 15.2735 3.30811 16.452 4.04034 17.1843C4.77257 17.9165 5.95108 17.9165 8.30811 17.9165H13.3081C15.6651 17.9165 16.8436 17.9165 17.5759 17.1843C18.3081 16.452 18.3081 15.2735 18.3081 12.9165V9.1665" stroke="#8E8E8E" stroke-width="1.5"/>
<path d="M7.4502 7.49992L8.17469 7.30597C8.07736 6.94237 7.72559 6.70724 7.3524 6.75632C6.9792 6.80541 6.7002 7.12351 6.7002 7.49992H7.4502ZM2.56917 8.36696L3.272 8.10516L3.272 8.10516L2.56917 8.36696ZM19.0467 8.36696L18.3439 8.10516L18.3439 8.10517L19.0467 8.36696ZM14.1657 7.49992H14.9157C14.9157 7.12351 14.6367 6.80541 14.2635 6.75632C13.8903 6.70724 13.5385 6.94237 13.4412 7.30597L14.1657 7.49992ZM2.856 6.73134L3.50601 7.10549H3.50601L2.856 6.73134ZM3.65906 5.33621L3.00905 4.96206L3.00905 4.96206L3.65906 5.33621ZM18.7599 6.73134L18.1099 7.10549H18.1099L18.7599 6.73134ZM17.9568 5.33621L18.6068 4.96206L18.6068 4.96205L17.9568 5.33621ZM19.1307 7.69069L18.3832 7.75293L18.3832 7.75293L19.1307 7.69069ZM2.48523 7.69069L1.73781 7.62845L2.48523 7.69069ZM6.7002 7.49992C6.7002 8.46127 5.91368 9.24992 4.9319 9.24992V10.7499C6.73177 10.7499 8.2002 9.29999 8.2002 7.49992H6.7002ZM4.9319 9.24992C4.16872 9.24992 3.52035 8.77191 3.272 8.10516L1.86635 8.62876C2.32822 9.8687 3.52757 10.7499 4.9319 10.7499V9.24992ZM18.3439 8.10517C18.0955 8.77191 17.4472 9.24992 16.684 9.24992V10.7499C18.0883 10.7499 19.2877 9.8687 19.7495 8.62876L18.3439 8.10517ZM16.684 9.24992C15.7022 9.24992 14.9157 8.46127 14.9157 7.49992H13.4157C13.4157 9.29999 14.8841 10.7499 16.684 10.7499V9.24992ZM10.8079 9.24992C9.52237 9.24992 8.4693 8.40648 8.17469 7.30597L6.72571 7.69386C7.20085 9.46873 8.86259 10.7499 10.8079 10.7499V9.24992ZM13.4412 7.30597C13.1466 8.40648 12.0935 9.24992 10.8079 9.24992V10.7499C12.7533 10.7499 14.415 9.46873 14.8902 7.69386L13.4412 7.30597ZM3.50601 7.10549L4.30906 5.71036L3.00905 4.96206L2.20599 6.35718L3.50601 7.10549ZM19.4099 6.35718L18.6068 4.96206L17.3068 5.71036L18.1099 7.10549L19.4099 6.35718ZM5.7372 2.83325H15.8787V1.33325H5.7372V2.83325ZM18.2734 3.71603C18.2734 2.39491 17.1961 1.33325 15.8787 1.33325V2.83325C16.378 2.83325 16.7734 3.23364 16.7734 3.71603H18.2734ZM18.6068 4.96205C18.3882 4.58223 18.2734 4.15276 18.2734 3.71603H16.7734C16.7734 4.4159 16.9574 5.10334 17.3068 5.71036L18.6068 4.96205ZM4.84247 3.71603C4.84247 3.23364 5.23789 2.83325 5.7372 2.83325V1.33325C4.41979 1.33325 3.34247 2.39491 3.34247 3.71603H4.84247ZM19.7495 8.62876C19.7848 8.53418 19.8411 8.38933 19.8698 8.2063C19.8983 8.02448 19.8956 7.83947 19.8781 7.62845L18.3832 7.75293C18.3964 7.91044 18.3899 7.96099 18.3879 7.97388C18.3861 7.98556 18.3851 7.99458 18.3439 8.10516L19.7495 8.62876ZM18.1099 7.10549C18.3396 7.50453 18.368 7.56981 18.3832 7.75293L19.8781 7.62846C19.8319 7.07451 19.6336 6.74592 19.4099 6.35718L18.1099 7.10549ZM4.30906 5.71036C4.65847 5.10334 4.84247 4.4159 4.84247 3.71603H3.34247C3.34247 4.15276 3.22768 4.58223 3.00905 4.96206L4.30906 5.71036ZM3.272 8.10516C3.23081 7.99458 3.22981 7.98556 3.22798 7.97388C3.22595 7.96099 3.21953 7.91043 3.23264 7.75293L1.73781 7.62845C1.72024 7.83948 1.71758 8.02448 1.74609 8.2063C1.7748 8.38933 1.83112 8.53418 1.86635 8.62876L3.272 8.10516ZM2.20599 6.35718C1.98224 6.74591 1.78394 7.07451 1.73781 7.62845L3.23264 7.75293C3.24789 7.56981 3.27632 7.50453 3.50601 7.10549L2.20599 6.35718Z" fill="#8E8E8E"/>
<path d="M6.64111 15H9.97445" stroke="#8E8E8E" stroke-width="1.5" stroke-linecap="round"/>
</svg>
