<svg width="18" height="16" viewBox="0 0 18 16" fill="none" xmlns="http://www.w3.org/2000/svg">
<path d="M15.75 8.93165V14H16.5V15.5H1.5V14H2.25V8.93165C1.34551 8.32625 0.75 7.29515 0.75 6.125C0.75 5.50464 0.918322 4.90716 1.22491 4.3981L3.25898 0.875C3.39295 0.64295 3.64054 0.5 3.90849 0.5H14.0915C14.3594 0.5 14.6071 0.64295 14.741 0.875L16.7681 4.38629C17.0817 4.90716 17.25 5.50464 17.25 6.125C17.25 7.29515 16.6545 8.32625 15.75 8.93165ZM14.25 9.47937C14.1269 9.49302 14.0017 9.5 13.875 9.5C12.9307 9.5 12.0592 9.1085 11.4375 8.4599C10.8158 9.1085 9.94432 9.5 9 9.5C8.05568 9.5 7.18418 9.1085 6.5625 8.4599C5.94082 9.1085 5.06933 9.5 4.125 9.5C3.99825 9.5 3.87313 9.49302 3.75 9.47937V14H14.25V9.47937ZM4.34149 2L2.51698 5.15991C2.34307 5.44882 2.25 5.77917 2.25 6.125C2.25 7.16052 3.08947 8 4.125 8C4.89822 8 5.5835 7.52772 5.86634 6.82212C6.11805 6.19417 7.00695 6.19417 7.25866 6.82212C7.54148 7.52772 8.22675 8 9 8C9.77325 8 10.4585 7.52772 10.7414 6.82212C10.9931 6.19417 11.8819 6.19417 12.1336 6.82212C12.4165 7.52772 13.1018 8 13.875 8C14.9105 8 15.75 7.16052 15.75 6.125C15.75 5.77917 15.6569 5.44882 15.476 5.1481L13.6585 2H4.34149Z" fill="#084C3F"/>
</svg>
