<svg width="20" height="20" viewBox="0 0 20 20" fill="none" xmlns="http://www.w3.org/2000/svg">
<path d="M2.5 8.32813L2.5 12.4948C2.5 14.8518 2.5 16.0303 3.23223 16.7626C3.96447 17.4948 5.14298 17.4948 7.5 17.4948H10.4167M17.5 8.32812V9.57813" stroke="#1C1C1C" stroke-linecap="round"/>
<path d="M2.4265 3.9433L1.95054 3.79011H1.95054L2.4265 3.9433ZM1.85672 5.7135L2.33268 5.8667L1.85672 5.7135ZM17.5732 3.9433L17.0972 4.0965L17.0972 4.0965L17.5732 3.9433ZM18.143 5.7135L18.6189 5.56031L18.143 5.7135ZM7.95785 7.81286C7.76384 7.61635 7.44726 7.61433 7.25076 7.80834C7.05425 8.00236 7.05223 8.31893 7.24624 8.51544L7.95785 7.81286ZM12.7535 7.81237C12.5595 7.61582 12.243 7.61373 12.0464 7.80769C11.8499 8.00166 11.8478 8.31823 12.0417 8.51478L12.7535 7.81237ZM1.97928 7.55576L2.38461 7.26301H2.38461L1.97928 7.55576ZM8.93941 6.78952C9.0087 6.52221 8.84817 6.24934 8.58086 6.18006C8.31355 6.11077 8.04069 6.2713 7.9714 6.53861L8.93941 6.78952ZM13.7344 6.78952C13.8037 6.52221 13.6432 6.24934 13.3759 6.18006C13.1086 6.11077 12.8357 6.2713 12.7664 6.53861L13.7344 6.78952ZM18.0204 7.55576L17.6151 7.26301V7.26301L18.0204 7.55576ZM18.3111 6.83629L17.8171 6.75919V6.75919L18.3111 6.83629ZM1.68859 6.83629L1.19457 6.91338H1.19457L1.68859 6.83629ZM3.37906 1.97866L3.07998 1.57797L3.07998 1.57797L3.37906 1.97866ZM1.95054 3.79011L1.38077 5.56031L2.33268 5.8667L2.90245 4.0965L1.95054 3.79011ZM17.0972 4.0965L17.667 5.8667L18.6189 5.56031L18.0491 3.79011L17.0972 4.0965ZM5.48002 2.16406H14.5197V1.16406H5.48002V2.16406ZM9.99928 8.66406C9.19885 8.66406 8.47663 8.3383 7.95785 7.81286L7.24624 8.51544C7.94596 9.22414 8.92168 9.66406 9.99928 9.66406V8.66406ZM14.7954 8.66406C13.9947 8.66406 13.2723 8.3381 12.7535 7.81237L12.0417 8.51478C12.7415 9.22387 13.7175 9.66406 14.7954 9.66406V8.66406ZM5.20426 8.66406C4.13784 8.66406 2.98184 8.0899 2.38461 7.26301L1.57395 7.84851C2.36931 8.94974 3.83445 9.66406 5.20426 9.66406V8.66406ZM7.9714 6.53861C7.65506 7.75904 6.53725 8.66406 5.20426 8.66406V9.66406C6.99963 9.66406 8.51044 8.44446 8.93941 6.78952L7.9714 6.53861ZM12.7664 6.53861C12.4501 7.75904 11.3323 8.66406 9.99928 8.66406V9.66406C11.7947 9.66406 13.3055 8.44446 13.7344 6.78952L12.7664 6.53861ZM17.6151 7.26301C17.0178 8.0899 15.8618 8.66406 14.7954 8.66406V9.66406C16.1652 9.66406 17.6304 8.94974 18.4257 7.84851L17.6151 7.26301ZM17.667 5.8667C17.8226 6.35001 17.8598 6.48522 17.8171 6.75919L18.8051 6.91338C18.8886 6.37863 18.7717 6.0349 18.6189 5.56031L17.667 5.8667ZM18.4257 7.84851C18.4974 7.74932 18.5856 7.62996 18.6559 7.472C18.7268 7.31236 18.7702 7.13677 18.8051 6.91338L17.8171 6.75919C17.7888 6.94017 17.7628 7.01928 17.7421 7.06576C17.7207 7.11393 17.6951 7.15212 17.6151 7.26301L18.4257 7.84851ZM18.0491 3.79011C17.8755 3.25082 17.7335 2.80712 17.5783 2.46156C17.4182 2.10531 17.2242 1.80527 16.9197 1.57797L16.3215 2.37934C16.4385 2.46665 16.5437 2.59891 16.6661 2.87132C16.7932 3.15443 16.9167 3.53575 17.0972 4.0965L18.0491 3.79011ZM14.5197 2.16406C15.0914 2.16406 15.4767 2.16487 15.7732 2.19993C16.0559 2.23334 16.206 2.29313 16.3215 2.37934L16.9197 1.57797C16.6137 1.34959 16.2732 1.25208 15.8907 1.20685C15.522 1.16325 15.0676 1.16406 14.5197 1.16406V2.16406ZM1.38077 5.56031C1.22802 6.0349 1.11112 6.37863 1.19457 6.91338L2.18261 6.75919C2.13985 6.48522 2.17712 6.35 2.33268 5.8667L1.38077 5.56031ZM2.38461 7.26301C2.30453 7.15212 2.279 7.11393 2.25758 7.06576C2.23692 7.01928 2.21085 6.94017 2.18261 6.75919L1.19457 6.91338C1.22943 7.13677 1.27284 7.31236 1.34382 7.472C1.41404 7.62996 1.50231 7.74932 1.57395 7.84851L2.38461 7.26301ZM2.90245 4.0965C3.08294 3.53575 3.20643 3.15443 3.3336 2.87132C3.45597 2.59891 3.56119 2.46665 3.67815 2.37934L3.07998 1.57797C2.77548 1.80527 2.58144 2.10531 2.42141 2.46156C2.26618 2.80712 2.12412 3.25082 1.95054 3.79011L2.90245 4.0965ZM5.48002 1.16406C4.93211 1.16406 4.47771 1.16325 4.10901 1.20685C3.72644 1.25208 3.38595 1.34959 3.07998 1.57797L3.67815 2.37934C3.79365 2.29313 3.9438 2.23334 4.22643 2.19993C4.52293 2.16487 4.90827 2.16406 5.48002 2.16406V1.16406Z" fill="#1C1C1C"/>
<path d="M17.5 8.32812V10.4115" stroke="#1C1C1C" stroke-linecap="round"/>
<path d="M12.5 15.4167H18.3333M15.4167 18.3333L15.4167 12.5" stroke="#1C1C1C" stroke-linecap="round"/>
<path d="M5.83301 14.1641H9.16634" stroke="#1C1C1C" stroke-linecap="round"/>
</svg>
