<svg width="40" height="42" viewBox="0 0 40 42" fill="none" xmlns="http://www.w3.org/2000/svg">
<rect x="0.210449" y="0.0859375" width="39.3684" height="41.6842" rx="19.6842" fill="#96BAB3" fill-opacity="0.25"/>
<path d="M28.0001 19.0522H27.9639C26.2994 19.0522 24.7797 18.5456 23.5494 17.641V24.118C23.5494 27.3746 20.908 29.9799 17.6514 29.9799C14.3948 29.9799 11.7896 27.3746 11.7896 24.118C11.7896 20.8614 14.3948 18.22 17.6514 18.22C17.9409 18.22 18.1942 18.2562 18.4836 18.2924V21.5489C18.1942 21.4404 17.9409 21.4042 17.6514 21.4042C16.1678 21.4042 14.9376 22.6345 14.9376 24.118C14.9376 25.6016 16.1678 26.8318 17.6514 26.8318C19.1349 26.8318 20.3652 25.6016 20.3652 24.118V11.4535H23.5494C23.5494 11.4897 23.5494 11.4897 23.5494 11.5259C23.5494 11.7792 23.5494 12.0325 23.6218 12.2858C23.8389 13.4799 24.5626 14.5292 25.5757 15.1805C26.2632 15.6509 27.0955 15.9042 27.9639 15.9042C27.9639 15.9042 27.9639 15.9042 28.0001 15.9042V19.0522Z" fill="white"/>
</svg>
