<svg width="444" height="302" viewBox="0 0 444 302" fill="none" xmlns="http://www.w3.org/2000/svg">
<path d="M368.192 199.417C368.98 203.594 378.442 217.199 381.931 224.854C381.124 223.858 380.186 222.682 379.259 221.595C378.531 220.329 377.883 218.914 377.156 217.827C376.029 216.143 374.842 214.498 373.556 212.933C371.585 210.449 369.33 208.205 366.836 206.245C363.954 203.893 360.447 202.434 356.747 202.049C355.75 201.979 350.057 201.55 351.383 203.843C351.626 204.194 351.951 204.481 352.33 204.68C355.829 206.823 359.698 207.969 363.387 209.664C368.91 212.246 376.208 219.123 379.249 222.113L380.795 224.157C375.361 219.093 366.488 216.183 363.447 217.608C359.688 219.323 367.774 221.077 374.633 222.851C377.702 223.549 380.556 224.982 382.948 227.027C384.264 228.802 385.75 230.795 387.235 232.839C387.415 233.157 387.594 233.456 387.774 233.755C386.721 232.533 385.53 231.436 384.224 230.486C380.715 228.084 371.054 226.629 370.037 229.878C369.02 233.128 375.869 231.642 381.762 232.579C384.951 233.169 387.882 234.724 390.157 237.035L390.545 237.453C391.213 238.45 391.852 239.317 392.45 240.195C393.856 242.248 395.192 244.182 396.438 246.046C394.455 243.449 392.104 241.155 389.459 239.238C384.314 235.709 377.445 234.962 374.942 236.855C372.44 238.749 383.985 240.464 389.658 242.457C392.927 243.701 395.824 245.759 398.073 248.438C399.937 251.079 401.782 253.651 403.766 256.342C400.604 253.543 397.22 251.006 393.646 248.757C387.834 244.949 381.812 245.467 380.206 247.76C378.601 250.052 383.516 250.202 392.659 252.166C397.48 253.188 401.95 255.456 405.62 258.744L408.242 262.233C409.239 263.598 410.486 264.994 411.752 266.369C410.207 265.672 407.923 264.675 405.391 263.588C402.56 262.426 399.823 261.046 397.205 259.462C394.214 257.588 390.147 255.604 386.567 257.199C386.296 257.287 386.046 257.433 385.836 257.625C385.625 257.818 385.459 258.054 385.347 258.317C385.236 258.579 385.182 258.863 385.189 259.148C385.197 259.433 385.266 259.714 385.391 259.97C385.786 260.692 386.406 261.265 387.156 261.605C391.144 263.788 396.059 264.366 400.416 265.333C404.415 266.227 408.468 266.856 412.55 267.217C413.736 268.463 414.972 269.689 416.199 270.845L414.364 271.184C412.201 271.592 401.652 268.672 396.418 268.024C391.183 267.376 386.946 270.815 392.629 272.808C398.312 274.802 412.46 271.951 412.46 271.951L416.548 271.184C421.403 275.759 425.9 279.257 425.9 279.257L427.794 277.982C427.794 277.982 423.876 276.905 417.295 270.685C417.141 269.455 417.121 268.212 417.235 266.977C417.654 260 423.407 252.126 418.99 245.378C417.923 243.743 415.62 242.846 414.344 244.64C413.427 245.936 413.477 248.119 413.766 249.624C414.763 254.558 416.308 258.934 415.929 264.077C415.929 264.306 415.929 267.755 416.169 269.629C415.271 268.742 414.344 267.775 413.367 266.708C412.562 264.77 411.915 262.77 411.433 260.728C410.167 255.295 411.433 249.534 410.526 244.002C410.236 242.308 407.594 238.291 406.298 241.779C405.73 243.324 406.458 246.255 406.557 247.899C406.857 252.554 407.315 257.418 409.15 261.764L408.362 260.768C406.784 256.431 405.557 251.974 404.693 247.441C403.287 239.955 403.527 233.586 401.114 231.593C398.701 229.599 398.831 237.932 401.114 246.693C402.16 250.687 403.862 254.479 406.149 257.917C403.576 254.628 401.014 251.249 398.571 247.949C396.304 244.356 394.888 240.292 394.434 236.068C394.005 229.42 393.606 223.987 390.535 220.688C387.465 217.389 387.325 219.861 389.748 227.366C391.413 232.51 393.407 239.427 395.73 244.082C393.826 241.5 392.041 239.048 390.436 236.826C389.369 234.523 386.777 228.572 385.969 223.429C384.972 216.89 383.696 213.462 381.981 215.196C380.795 216.412 382.978 224.346 386.159 230.805C384.813 228.901 383.806 227.436 383.168 226.569C382.902 226.17 382.603 225.752 382.27 225.313C380.724 220.035 378.843 214.861 376.637 209.823C372.779 201.012 367.345 194.862 368.192 199.417Z" fill="#084C3F"/>
<g opacity="0.6">
<path d="M368.192 199.417C368.98 203.594 378.442 217.199 381.931 224.854C381.124 223.858 380.186 222.682 379.259 221.595C378.531 220.329 377.883 218.914 377.156 217.827C376.029 216.143 374.842 214.498 373.556 212.933C371.585 210.449 369.33 208.205 366.836 206.245C363.954 203.893 360.447 202.434 356.747 202.049C355.75 201.979 350.057 201.55 351.383 203.843C351.626 204.194 351.951 204.481 352.33 204.68C355.829 206.823 359.698 207.969 363.387 209.664C368.91 212.246 376.208 219.123 379.249 222.113L380.795 224.157C375.361 219.093 366.488 216.183 363.447 217.608C359.688 219.323 367.774 221.077 374.633 222.851C377.702 223.549 380.556 224.982 382.948 227.027C384.264 228.802 385.75 230.795 387.235 232.839C387.415 233.157 387.594 233.456 387.774 233.755C386.721 232.533 385.53 231.436 384.224 230.486C380.715 228.084 371.054 226.629 370.037 229.878C369.02 233.128 375.869 231.642 381.762 232.579C384.951 233.169 387.882 234.724 390.157 237.035L390.545 237.453C391.213 238.45 391.852 239.317 392.45 240.195C393.856 242.248 395.192 244.182 396.438 246.046C394.455 243.449 392.104 241.155 389.459 239.238C384.314 235.709 377.445 234.962 374.942 236.855C372.44 238.749 383.985 240.464 389.658 242.457C392.927 243.701 395.824 245.759 398.073 248.438C399.937 251.079 401.782 253.651 403.766 256.342C400.604 253.543 397.22 251.006 393.646 248.757C387.834 244.949 381.812 245.467 380.206 247.76C378.601 250.052 383.516 250.202 392.659 252.166C397.48 253.188 401.95 255.456 405.62 258.744L408.242 262.233C409.239 263.598 410.486 264.994 411.752 266.369C410.207 265.672 407.923 264.675 405.391 263.588C402.56 262.426 399.823 261.046 397.205 259.462C394.214 257.588 390.147 255.604 386.567 257.199C386.296 257.287 386.046 257.433 385.836 257.625C385.625 257.818 385.459 258.054 385.347 258.317C385.236 258.579 385.182 258.863 385.189 259.148C385.197 259.433 385.266 259.714 385.391 259.97C385.786 260.692 386.406 261.265 387.156 261.605C391.144 263.788 396.059 264.366 400.416 265.333C404.415 266.227 408.468 266.856 412.55 267.217C413.736 268.463 414.972 269.689 416.199 270.845L414.364 271.184C412.201 271.592 401.652 268.672 396.418 268.024C391.183 267.376 386.946 270.815 392.629 272.808C398.312 274.802 412.46 271.951 412.46 271.951L416.548 271.184C421.403 275.759 425.9 279.257 425.9 279.257L427.794 277.982C427.794 277.982 423.876 276.905 417.295 270.685C417.141 269.455 417.121 268.212 417.235 266.977C417.654 260 423.407 252.126 418.99 245.378C417.923 243.743 415.62 242.846 414.344 244.64C413.427 245.936 413.477 248.119 413.766 249.624C414.763 254.558 416.308 258.934 415.929 264.077C415.929 264.306 415.929 267.755 416.169 269.629C415.271 268.742 414.344 267.775 413.367 266.708C412.562 264.77 411.915 262.77 411.433 260.728C410.167 255.295 411.433 249.534 410.526 244.002C410.236 242.308 407.594 238.291 406.298 241.779C405.73 243.324 406.458 246.255 406.557 247.899C406.857 252.554 407.315 257.418 409.15 261.764L408.362 260.768C406.784 256.431 405.557 251.974 404.693 247.441C403.287 239.955 403.527 233.586 401.114 231.593C398.701 229.599 398.831 237.932 401.114 246.693C402.16 250.687 403.862 254.479 406.149 257.917C403.576 254.628 401.014 251.249 398.571 247.949C396.304 244.356 394.888 240.292 394.434 236.068C394.005 229.42 393.606 223.987 390.535 220.688C387.465 217.389 387.325 219.861 389.748 227.366C391.413 232.51 393.407 239.427 395.73 244.082C393.826 241.5 392.041 239.048 390.436 236.826C389.369 234.523 386.777 228.572 385.969 223.429C384.972 216.89 383.696 213.462 381.981 215.196C380.795 216.412 382.978 224.346 386.159 230.805C384.813 228.901 383.806 227.436 383.168 226.569C382.902 226.17 382.603 225.752 382.27 225.313C380.724 220.035 378.843 214.861 376.637 209.823C372.779 201.012 367.345 194.862 368.192 199.417Z" fill="white"/>
</g>
<path d="M438.859 179.99C436.546 183.548 434.014 199.925 431.262 207.899C431.402 206.583 431.501 205.128 431.571 203.703C431.92 202.287 432.429 200.822 432.658 199.517C432.997 197.523 433.266 195.53 433.426 193.536C433.713 190.377 433.626 187.195 433.166 184.057C432.692 180.376 431.158 176.913 428.75 174.089C428.122 173.382 424.253 169.106 423.635 171.687C423.567 172.108 423.604 172.54 423.745 172.943C424.791 176.93 426.805 180.409 428.291 184.206C430.504 189.888 431.043 199.895 431.182 204.141C431.103 204.829 431.003 205.696 430.893 206.683C430.455 199.277 426.008 191.064 422.847 189.978C418.939 188.642 423.585 195.48 427.334 201.49C429.072 204.111 430.149 207.114 430.474 210.242C430.205 212.444 429.896 214.906 429.567 217.408C429.477 217.767 429.398 218.106 429.328 218.455C429.406 216.84 429.299 215.221 429.009 213.631C428.122 209.474 422.129 201.759 419.148 203.414C416.167 205.068 422.139 208.717 425.779 213.451C427.681 216.078 428.725 219.229 428.77 222.472C428.77 222.661 428.77 222.851 428.77 223.04C428.6 224.186 428.431 225.293 428.261 226.339C427.862 228.791 427.503 231.104 427.154 233.316C427.51 230.074 427.396 226.798 426.815 223.588C425.509 217.488 421.053 212.205 417.932 211.856C414.811 211.507 421.99 220.698 424.732 226.06C426.252 229.203 426.939 232.683 426.726 236.167C426.257 239.357 425.818 242.497 425.4 245.816C425.036 241.607 424.336 237.434 423.306 233.336C421.721 226.578 416.995 222.791 414.223 223.369C411.451 223.947 414.941 227.416 420.205 235.141C422.98 239.2 424.643 243.915 425.031 248.816C424.861 250.211 424.692 251.647 424.522 253.142C424.333 254.846 424.233 256.69 424.213 258.564C423.565 256.989 422.608 254.687 421.521 252.165C420.275 249.371 419.245 246.485 418.44 243.533C417.543 240.094 415.988 235.868 412.299 234.562C412.042 234.439 411.761 234.373 411.476 234.367C411.19 234.362 410.907 234.418 410.645 234.531C410.384 234.645 410.149 234.813 409.958 235.025C409.767 235.236 409.623 235.487 409.537 235.759C409.324 236.553 409.373 237.396 409.677 238.161C411.033 242.467 414.223 246.294 416.706 250.002C418.991 253.404 421.496 256.654 424.203 259.73C424.203 261.455 424.253 263.189 424.343 264.874L422.778 263.877C420.923 262.681 415.31 253.291 411.97 249.225C408.63 245.158 403.186 244.709 405.918 250.072C408.65 255.435 420.873 263.119 420.873 263.119L424.363 265.392C424.732 272.05 425.569 277.682 425.569 277.682L427.822 278.061C427.822 278.061 425.729 274.582 425.25 265.552C425.987 264.551 426.833 263.635 427.773 262.82C432.877 258.056 442.478 256.322 443.934 248.377C444.283 246.464 443.246 244.231 441.073 244.65C439.517 244.949 438.082 246.573 437.244 247.839C434.542 252.075 432.658 256.332 428.849 259.8C428.68 259.96 426.317 262.472 425.19 263.987C425.19 262.731 425.14 261.385 425.19 259.94C425.949 257.977 426.862 256.077 427.922 254.258C430.754 249.454 435.649 246.165 438.8 241.52C439.797 240.094 440.614 235.37 437.274 237.004C435.789 237.732 434.283 240.354 433.286 241.609C430.295 245.188 427.304 249.035 425.589 253.441C425.589 253.022 425.669 252.604 425.699 252.185C427.551 247.957 429.738 243.884 432.239 240.005C436.387 233.616 440.943 229.16 440.574 226.05C440.205 222.94 434.592 229.04 430.135 237.014C428.142 240.63 426.761 244.55 426.048 248.617C426.456 244.45 426.925 240.244 427.404 236.197C428.234 232.03 430.015 228.111 432.608 224.744C436.875 219.631 440.335 215.425 440.385 210.919C440.435 206.414 438.63 208.099 435.21 215.205C432.867 220.08 429.547 226.469 427.992 231.423C428.401 228.243 428.799 225.233 429.178 222.522C429.986 220.119 432.169 214.019 435.16 209.743C438.929 204.301 440.385 200.942 437.942 201.032C436.247 201.091 432.319 208.308 430.205 215.205C430.544 212.903 430.823 211.149 431.003 210.112C431.083 209.647 431.152 209.139 431.212 208.587C433.718 203.667 435.909 198.593 437.773 193.396C441.083 184.296 441.372 176.123 438.859 179.99Z" fill="#084C3F"/>
<g opacity="0.6">
<path d="M438.859 179.99C436.546 183.548 434.014 199.925 431.262 207.899C431.402 206.583 431.501 205.128 431.571 203.703C431.92 202.287 432.429 200.822 432.658 199.517C432.997 197.523 433.266 195.53 433.426 193.536C433.713 190.377 433.626 187.195 433.166 184.057C432.692 180.376 431.158 176.913 428.75 174.089C428.122 173.382 424.253 169.106 423.635 171.687C423.567 172.108 423.604 172.54 423.745 172.943C424.791 176.93 426.805 180.409 428.291 184.206C430.504 189.888 431.043 199.895 431.182 204.141C431.103 204.829 431.003 205.696 430.893 206.683C430.455 199.277 426.008 191.064 422.847 189.978C418.939 188.642 423.585 195.48 427.334 201.49C429.072 204.111 430.149 207.114 430.474 210.242C430.205 212.444 429.896 214.906 429.567 217.408C429.477 217.767 429.398 218.106 429.328 218.455C429.406 216.84 429.299 215.221 429.009 213.631C428.122 209.474 422.129 201.759 419.148 203.414C416.167 205.068 422.139 208.717 425.779 213.451C427.681 216.078 428.725 219.229 428.77 222.472C428.77 222.661 428.77 222.851 428.77 223.04C428.6 224.186 428.431 225.293 428.261 226.339C427.862 228.791 427.503 231.104 427.154 233.316C427.51 230.074 427.396 226.798 426.815 223.588C425.509 217.488 421.053 212.205 417.932 211.856C414.811 211.507 421.99 220.698 424.732 226.06C426.252 229.203 426.939 232.683 426.726 236.167C426.257 239.357 425.818 242.497 425.4 245.816C425.036 241.607 424.336 237.434 423.306 233.336C421.721 226.578 416.995 222.791 414.223 223.369C411.451 223.947 414.941 227.416 420.205 235.141C422.98 239.2 424.643 243.915 425.031 248.816C424.861 250.211 424.692 251.647 424.522 253.142C424.333 254.846 424.233 256.69 424.213 258.564C423.565 256.989 422.608 254.687 421.521 252.165C420.275 249.371 419.245 246.485 418.44 243.533C417.543 240.094 415.988 235.868 412.299 234.562C412.042 234.439 411.761 234.373 411.476 234.367C411.19 234.362 410.907 234.418 410.645 234.531C410.384 234.645 410.149 234.813 409.958 235.025C409.767 235.236 409.623 235.487 409.537 235.759C409.324 236.553 409.373 237.396 409.677 238.161C411.033 242.467 414.223 246.294 416.706 250.002C418.991 253.404 421.496 256.654 424.203 259.73C424.203 261.455 424.253 263.189 424.343 264.874L422.778 263.877C420.923 262.681 415.31 253.291 411.97 249.225C408.63 245.158 403.186 244.709 405.918 250.072C408.65 255.435 420.873 263.119 420.873 263.119L424.363 265.392C424.732 272.05 425.569 277.682 425.569 277.682L427.822 278.061C427.822 278.061 425.729 274.582 425.25 265.552C425.987 264.551 426.833 263.635 427.773 262.82C432.877 258.056 442.478 256.322 443.934 248.377C444.283 246.464 443.246 244.231 441.073 244.65C439.517 244.949 438.082 246.573 437.244 247.839C434.542 252.075 432.658 256.332 428.849 259.8C428.68 259.96 426.317 262.472 425.19 263.987C425.19 262.731 425.14 261.385 425.19 259.94C425.949 257.977 426.862 256.077 427.922 254.258C430.754 249.454 435.649 246.165 438.8 241.52C439.797 240.094 440.614 235.37 437.274 237.004C435.789 237.732 434.283 240.354 433.286 241.609C430.295 245.188 427.304 249.035 425.589 253.441C425.589 253.022 425.669 252.604 425.699 252.185C427.551 247.957 429.738 243.884 432.239 240.005C436.387 233.616 440.943 229.16 440.574 226.05C440.205 222.94 434.592 229.04 430.135 237.014C428.142 240.63 426.761 244.55 426.048 248.617C426.456 244.45 426.925 240.244 427.404 236.197C428.234 232.03 430.015 228.111 432.608 224.744C436.875 219.631 440.335 215.425 440.385 210.919C440.435 206.414 438.63 208.099 435.21 215.205C432.867 220.08 429.547 226.469 427.992 231.423C428.401 228.243 428.799 225.233 429.178 222.522C429.986 220.119 432.169 214.019 435.16 209.743C438.929 204.301 440.385 200.942 437.942 201.032C436.247 201.091 432.319 208.308 430.205 215.205C430.544 212.903 430.823 211.149 431.003 210.112C431.083 209.647 431.152 209.139 431.212 208.587C433.718 203.667 435.909 198.593 437.773 193.396C441.083 184.296 441.372 176.123 438.859 179.99Z" fill="white"/>
</g>
<path d="M13.6233 215.796C14.0919 218.926 20.7619 229.362 23.1348 235.163C22.5665 234.356 21.9085 233.499 21.2405 232.661C20.732 231.664 20.2933 230.618 19.7748 229.781C18.9872 228.495 18.1497 227.239 17.2424 226.033C15.8398 224.121 14.2168 222.382 12.4069 220.85C10.3272 219.013 7.75574 217.825 5.00908 217.431C4.3012 217.351 0.0240147 216.863 0.951237 218.607C1.11853 218.881 1.35608 219.104 1.63917 219.255C4.19153 220.959 7.03301 221.926 9.74489 223.332C13.7928 225.365 19.0271 230.747 21.2205 233.03L22.3073 234.595C18.4089 230.658 11.8685 228.256 9.55546 229.203C6.704 230.379 12.6861 231.924 17.7509 233.449C20.0219 234.05 22.1103 235.2 23.8327 236.798C24.7699 238.153 25.8267 239.698 26.8237 241.263C26.9434 241.502 27.073 241.732 27.2026 241.961C26.4544 241.017 25.5977 240.164 24.6502 239.419C22.0979 237.525 14.9294 236.16 14.0719 238.552C13.2145 240.944 18.379 240.037 22.7459 240.904C25.1101 241.438 27.2537 242.683 28.8875 244.473C28.9773 244.592 29.067 244.692 29.1667 244.802C29.6353 245.519 30.084 246.227 30.5027 246.895C31.4997 248.47 32.4269 249.945 33.3542 251.37C31.9493 249.387 30.271 247.611 28.3691 246.097C24.6303 243.317 19.5156 242.559 17.6014 243.905C15.6871 245.25 24.2415 246.895 28.4189 248.51C30.8212 249.522 32.9249 251.131 34.5306 253.184C35.8367 255.178 37.1428 257.171 38.5187 259.245C36.2394 257.055 33.7853 255.055 31.1807 253.264C26.9533 250.274 22.4468 250.463 21.2105 252.158C19.9742 253.852 23.6133 254.082 30.3731 255.806C33.9343 256.711 37.1965 258.532 39.8347 261.089C40.423 261.956 41.0411 262.843 41.6892 263.77C42.4663 264.871 43.2982 265.932 44.1817 266.95C43.0451 266.391 41.3801 265.574 39.5157 264.697C37.4401 263.744 35.4402 262.635 33.5336 261.378C31.3302 259.893 28.3791 258.298 25.6572 259.384C25.4515 259.435 25.2593 259.53 25.0939 259.663C24.9285 259.795 24.7937 259.962 24.6989 260.151C24.6042 260.341 24.5516 260.548 24.5449 260.76C24.5382 260.972 24.5776 261.183 24.6602 261.378C24.9447 261.965 25.4189 262.439 26.0062 262.723C28.8975 264.468 32.5665 265.036 35.7968 265.883C38.7462 266.664 41.7437 267.25 44.77 267.637C45.6274 268.634 46.5147 269.551 47.3921 270.448L46.0162 270.658C44.3811 270.897 36.6044 268.415 32.726 267.767C28.8477 267.119 25.5775 269.581 29.735 271.236C33.8925 272.89 44.5506 271.166 44.5506 271.166L47.6314 270.717C51.1209 274.266 54.3712 277.007 54.3712 277.007L55.8169 276.11C55.8169 276.11 52.9355 275.193 48.1997 270.368C48.1224 269.445 48.1458 268.516 48.2695 267.598C48.778 262.404 53.2545 256.693 50.1937 251.53C49.4459 250.284 47.761 249.536 46.744 250.852C46.1137 251.968 45.9117 253.276 46.1758 254.53C46.754 258.238 47.8009 261.507 47.3821 265.365C47.3821 265.544 47.2824 268.116 47.3821 269.511C46.744 268.833 46.076 268.086 45.3881 267.259C44.8447 265.783 44.418 264.266 44.1119 262.723C43.3343 258.637 44.4509 254.371 43.9225 250.224C43.753 248.948 41.9285 245.878 40.8318 248.44C40.3632 249.576 40.8318 251.789 40.8318 253.015C40.7603 256.548 41.2792 260.069 42.3672 263.431C42.1777 263.182 41.9883 262.933 41.8088 262.674C40.7733 259.408 39.9998 256.065 39.4958 252.676C38.6682 247.054 39.0272 242.31 37.2824 240.715C35.5376 239.12 35.398 245.39 36.8238 251.978C37.4953 254.992 38.6573 257.874 40.2635 260.511C38.4389 257.969 36.6244 255.387 34.8995 252.875C33.3091 250.135 32.371 247.066 32.1577 243.905C32.0281 238.921 31.8786 234.874 29.6852 232.322C27.4917 229.771 27.3123 231.605 28.9075 237.306C30.0042 241.193 31.2903 246.406 32.8955 249.955C31.5595 247.961 30.2933 246.088 29.1667 244.383C27.7461 241.147 26.7411 237.744 26.1757 234.256C25.6074 229.352 24.7699 226.75 23.4339 228.006C22.5166 228.874 23.8825 234.854 26.1059 239.768C25.1089 238.303 24.4409 237.187 24.0321 236.519C23.846 236.22 23.6366 235.887 23.404 235.522C22.4005 231.53 21.1485 227.606 19.6552 223.77C17.0331 217.062 13.1248 212.337 13.6233 215.796Z" fill="#084C3F"/>
<path opacity="0.6" d="M13.6233 215.796C14.0919 218.926 20.7619 229.362 23.1348 235.163C22.5665 234.356 21.9085 233.499 21.2405 232.661C20.732 231.664 20.2933 230.618 19.7748 229.781C18.9872 228.495 18.1497 227.239 17.2424 226.033C15.8398 224.121 14.2168 222.382 12.4069 220.85C10.3272 219.013 7.75574 217.825 5.00908 217.431C4.3012 217.351 0.0240147 216.863 0.951237 218.607C1.11853 218.881 1.35608 219.104 1.63917 219.255C4.19153 220.959 7.03301 221.926 9.74489 223.332C13.7928 225.365 19.0271 230.747 21.2205 233.03L22.3073 234.595C18.4089 230.658 11.8685 228.256 9.55546 229.203C6.704 230.379 12.6861 231.924 17.7509 233.449C20.0219 234.05 22.1103 235.2 23.8327 236.798C24.7699 238.153 25.8267 239.698 26.8237 241.263C26.9434 241.502 27.073 241.732 27.2026 241.961C26.4544 241.017 25.5977 240.164 24.6502 239.419C22.0979 237.525 14.9294 236.16 14.0719 238.552C13.2145 240.944 18.379 240.037 22.7459 240.904C25.1101 241.438 27.2537 242.683 28.8875 244.473C28.9773 244.592 29.067 244.692 29.1667 244.802C29.6353 245.519 30.084 246.227 30.5027 246.895C31.4997 248.47 32.4269 249.945 33.3542 251.37C31.9493 249.387 30.271 247.611 28.3691 246.097C24.6303 243.317 19.5156 242.559 17.6014 243.905C15.6871 245.25 24.2415 246.895 28.4189 248.51C30.8212 249.522 32.9249 251.131 34.5306 253.184C35.8367 255.178 37.1428 257.171 38.5187 259.245C36.2394 257.055 33.7853 255.055 31.1807 253.264C26.9533 250.274 22.4468 250.463 21.2105 252.158C19.9742 253.852 23.6133 254.082 30.3731 255.806C33.9343 256.711 37.1965 258.532 39.8347 261.089C40.423 261.956 41.0411 262.843 41.6892 263.77C42.4663 264.871 43.2982 265.932 44.1817 266.95C43.0451 266.391 41.3801 265.574 39.5157 264.697C37.4401 263.744 35.4402 262.635 33.5336 261.378C31.3302 259.893 28.3791 258.298 25.6572 259.384C25.4515 259.435 25.2593 259.53 25.0939 259.663C24.9285 259.795 24.7937 259.962 24.6989 260.151C24.6042 260.341 24.5516 260.548 24.5449 260.76C24.5382 260.972 24.5776 261.183 24.6602 261.378C24.9447 261.965 25.4189 262.439 26.0062 262.723C28.8975 264.468 32.5665 265.036 35.7968 265.883C38.7462 266.664 41.7437 267.25 44.77 267.637C45.6274 268.634 46.5147 269.551 47.3921 270.448L46.0162 270.658C44.3811 270.897 36.6044 268.415 32.726 267.767C28.8477 267.119 25.5775 269.581 29.735 271.236C33.8925 272.89 44.5506 271.166 44.5506 271.166L47.6314 270.717C51.1209 274.266 54.3712 277.007 54.3712 277.007L55.8169 276.11C55.8169 276.11 52.9355 275.193 48.1997 270.368C48.1224 269.445 48.1458 268.516 48.2695 267.598C48.778 262.404 53.2545 256.693 50.1937 251.53C49.4459 250.284 47.761 249.536 46.744 250.852C46.1137 251.968 45.9117 253.276 46.1758 254.53C46.754 258.238 47.8009 261.507 47.3821 265.365C47.3821 265.544 47.2824 268.116 47.3821 269.511C46.744 268.833 46.076 268.086 45.3881 267.259C44.8447 265.783 44.418 264.266 44.1119 262.723C43.3343 258.637 44.4509 254.371 43.9225 250.224C43.753 248.948 41.9285 245.878 40.8318 248.44C40.3632 249.576 40.8318 251.789 40.8318 253.015C40.7603 256.548 41.2792 260.069 42.3672 263.431C42.1777 263.182 41.9883 262.933 41.8088 262.674C40.7733 259.408 39.9998 256.065 39.4958 252.676C38.6682 247.054 39.0272 242.31 37.2824 240.715C35.5376 239.12 35.398 245.39 36.8238 251.978C37.4953 254.992 38.6573 257.874 40.2635 260.511C38.4389 257.969 36.6244 255.387 34.8995 252.875C33.3091 250.135 32.371 247.066 32.1577 243.905C32.0281 238.921 31.8786 234.874 29.6852 232.322C27.4917 229.771 27.3123 231.605 28.9075 237.306C30.0042 241.193 31.2903 246.406 32.8955 249.955C31.5595 247.961 30.2933 246.088 29.1667 244.383C27.7461 241.147 26.7411 237.744 26.1757 234.256C25.6074 229.352 24.7699 226.75 23.4339 228.006C22.5166 228.874 23.8825 234.854 26.1059 239.768C25.1089 238.303 24.4409 237.187 24.0321 236.519C23.846 236.22 23.6366 235.887 23.404 235.522C22.4005 231.53 21.1485 227.606 19.6552 223.77C17.0331 217.062 13.1248 212.337 13.6233 215.796Z" fill="white"/>
<path d="M85.8259 213.32C83.1639 215.034 76.4141 225.41 72.107 229.976C72.6055 229.118 73.104 228.161 73.6025 227.215C74.2705 226.347 75.0681 225.51 75.5965 224.693C76.444 223.437 77.2416 222.151 77.9694 220.825C79.1291 218.763 80.0426 216.572 80.6913 214.297C81.5131 211.644 81.5339 208.808 80.7511 206.143C80.5417 205.465 79.2157 201.369 78.0093 202.944C77.8306 203.207 77.724 203.513 77.7002 203.831C77.1917 206.821 77.4909 209.811 77.3313 212.891C77.102 217.436 74.4001 224.414 73.1838 227.364C72.9245 227.803 72.5955 228.361 72.1867 228.999C74.1808 223.826 73.6523 216.878 71.8378 215.164C69.5845 213.051 70.6513 219.151 71.3592 224.374C71.7387 226.693 71.5505 229.07 70.8109 231.301C69.9534 232.707 68.9863 234.292 67.9993 235.896L67.5107 236.534C68.0987 235.466 68.5572 234.332 68.8767 233.155C69.5447 230.055 67.8796 222.968 65.2974 223.188C62.7151 223.407 65.7261 227.713 66.7331 232.049C67.2307 234.422 66.9799 236.891 66.0152 239.116L65.8358 239.505C65.3672 240.232 64.9185 240.93 64.4798 241.588C63.4828 243.143 62.4858 244.578 61.5685 246.023C62.8041 243.928 63.7309 241.665 64.3203 239.305C65.3173 234.75 63.8916 229.786 61.8776 228.59C59.8637 227.394 61.8776 235.856 62.1468 240.342C62.2153 242.948 61.6146 245.529 60.402 247.837C59.1059 249.831 57.8497 251.824 56.5436 253.997C57.5764 251.016 58.3666 247.956 58.9065 244.847C59.9035 239.764 57.8497 235.737 55.7759 235.288C53.7021 234.84 55.0182 238.279 56.2345 245.136C56.8806 248.752 56.5678 252.474 55.3273 255.931C54.7789 256.828 54.2305 257.755 53.6523 258.722C53.074 259.689 52.3761 261.044 51.7779 262.32C51.7779 261.044 51.8776 259.19 51.9075 257.137C51.92 254.851 52.1033 252.568 52.4558 250.309C52.9045 247.698 53.1438 244.329 51.0301 242.335C50.8935 242.17 50.7222 242.037 50.5283 241.946C50.3344 241.855 50.1228 241.808 49.9085 241.808C49.6942 241.808 49.4826 241.855 49.2887 241.946C49.0948 242.037 48.9234 242.17 48.7868 242.335C48.3965 242.809 48.1723 243.397 48.1488 244.01C47.7499 247.369 48.747 250.987 49.2953 254.237C49.8085 257.27 50.5179 260.266 51.419 263.207C50.8905 264.374 50.4219 265.58 49.9334 266.746L49.1757 265.58C48.2883 264.194 47.3412 256.081 46.3242 252.283C45.3073 248.485 41.718 246.522 41.9374 251.007C42.1567 255.492 48.1188 264.483 48.1188 264.483L49.8038 267.095C48.0092 271.73 46.8128 275.826 46.8128 275.826L48.2185 276.773C48.2185 276.773 47.8696 273.783 50.3123 267.474C51.1333 266.977 52.0101 266.579 52.9244 266.287C57.9095 264.613 64.8886 266.367 68.3582 261.413C69.1857 260.217 69.1658 258.423 67.5606 257.994C66.2824 257.875 65.005 258.23 63.9714 258.991C60.8308 261.044 58.2485 263.367 54.5895 264.553C54.42 264.613 52.0471 265.6 50.8108 266.277C51.1697 265.42 51.5785 264.493 52.0471 263.526C53.1616 262.431 54.3656 261.431 55.6463 260.536C59.0461 258.134 63.3931 257.396 66.9624 255.193C68.0491 254.526 70.083 251.565 67.3113 251.655C66.075 251.655 64.2505 253.021 63.1538 253.559C59.9031 254.95 56.9075 256.873 54.2904 259.25C54.4399 258.981 54.5895 258.702 54.749 258.433C57.2908 256.106 60.0146 253.986 62.8946 252.094C67.6802 249.024 72.1469 247.389 72.8647 245.116C73.5826 242.844 67.8796 245.326 62.416 249.353C59.946 251.202 57.7999 253.449 56.065 256.001C57.6204 253.29 59.2355 250.569 60.8009 247.967C62.6554 245.394 65.0775 243.283 67.8796 241.797C72.3662 239.624 76.0053 237.81 77.4211 234.82C78.8368 231.83 77.092 232.368 72.5855 236.155C69.4948 238.757 65.2774 242.076 62.6952 244.977C63.9514 242.983 65.1478 240.99 66.2346 239.285C68.5925 236.668 71.2725 234.361 74.2107 232.418C78.448 229.876 80.4719 228.032 78.777 227.344C77.6005 226.866 72.7152 230.574 69.1558 234.62L71.2595 231.401C71.4589 231.102 71.6683 230.773 71.8777 230.404C75.0884 227.843 78.1353 225.083 81.0003 222.141C86.0353 216.928 88.7372 211.456 85.8259 213.32Z" fill="#084C3F"/>
<path opacity="0.6" d="M85.8259 213.32C83.1639 215.034 76.4141 225.41 72.107 229.976C72.6055 229.118 73.104 228.161 73.6025 227.215C74.2705 226.347 75.0681 225.51 75.5965 224.693C76.444 223.437 77.2416 222.151 77.9694 220.825C79.1291 218.763 80.0426 216.572 80.6913 214.297C81.5131 211.644 81.5339 208.808 80.7511 206.143C80.5417 205.465 79.2157 201.369 78.0093 202.944C77.8306 203.207 77.724 203.513 77.7002 203.831C77.1917 206.821 77.4909 209.811 77.3313 212.891C77.102 217.436 74.4001 224.414 73.1838 227.364C72.9245 227.803 72.5955 228.361 72.1867 228.999C74.1808 223.826 73.6523 216.878 71.8378 215.164C69.5845 213.051 70.6513 219.151 71.3592 224.374C71.7387 226.693 71.5505 229.07 70.8109 231.301C69.9534 232.707 68.9863 234.292 67.9993 235.896L67.5107 236.534C68.0987 235.466 68.5572 234.332 68.8767 233.155C69.5447 230.055 67.8796 222.968 65.2974 223.188C62.7151 223.407 65.7261 227.713 66.7331 232.049C67.2307 234.422 66.9799 236.891 66.0152 239.116L65.8358 239.505C65.3672 240.232 64.9185 240.93 64.4798 241.588C63.4828 243.143 62.4858 244.578 61.5685 246.023C62.8041 243.928 63.7309 241.665 64.3203 239.305C65.3173 234.75 63.8916 229.786 61.8776 228.59C59.8637 227.394 61.8776 235.856 62.1468 240.342C62.2153 242.948 61.6146 245.529 60.402 247.837C59.1059 249.831 57.8497 251.824 56.5436 253.997C57.5764 251.016 58.3666 247.956 58.9065 244.847C59.9035 239.764 57.8497 235.737 55.7759 235.288C53.7021 234.84 55.0182 238.279 56.2345 245.136C56.8806 248.752 56.5678 252.474 55.3273 255.931C54.7789 256.828 54.2305 257.755 53.6523 258.722C53.074 259.689 52.3761 261.044 51.7779 262.32C51.7779 261.044 51.8776 259.19 51.9075 257.137C51.92 254.851 52.1033 252.568 52.4558 250.309C52.9045 247.698 53.1438 244.329 51.0301 242.335C50.8935 242.17 50.7222 242.037 50.5283 241.946C50.3344 241.855 50.1228 241.808 49.9085 241.808C49.6942 241.808 49.4826 241.855 49.2887 241.946C49.0948 242.037 48.9234 242.17 48.7868 242.335C48.3965 242.809 48.1723 243.397 48.1488 244.01C47.7499 247.369 48.747 250.987 49.2953 254.237C49.8085 257.27 50.5179 260.266 51.419 263.207C50.8905 264.374 50.4219 265.58 49.9334 266.746L49.1757 265.58C48.2883 264.194 47.3412 256.081 46.3242 252.283C45.3073 248.485 41.718 246.522 41.9374 251.007C42.1567 255.492 48.1188 264.483 48.1188 264.483L49.8038 267.095C48.0092 271.73 46.8128 275.826 46.8128 275.826L48.2185 276.773C48.2185 276.773 47.8696 273.783 50.3123 267.474C51.1333 266.977 52.0101 266.579 52.9244 266.287C57.9095 264.613 64.8886 266.367 68.3582 261.413C69.1857 260.217 69.1658 258.423 67.5606 257.994C66.2824 257.875 65.005 258.23 63.9714 258.991C60.8308 261.044 58.2485 263.367 54.5895 264.553C54.42 264.613 52.0471 265.6 50.8108 266.277C51.1697 265.42 51.5785 264.493 52.0471 263.526C53.1616 262.431 54.3656 261.431 55.6463 260.536C59.0461 258.134 63.3931 257.396 66.9624 255.193C68.0491 254.526 70.083 251.565 67.3113 251.655C66.075 251.655 64.2505 253.021 63.1538 253.559C59.9031 254.95 56.9075 256.873 54.2904 259.25C54.4399 258.981 54.5895 258.702 54.749 258.433C57.2908 256.106 60.0146 253.986 62.8946 252.094C67.6802 249.024 72.1469 247.389 72.8647 245.116C73.5826 242.844 67.8796 245.326 62.416 249.353C59.946 251.202 57.7999 253.449 56.065 256.001C57.6204 253.29 59.2355 250.569 60.8009 247.967C62.6554 245.394 65.0775 243.283 67.8796 241.797C72.3662 239.624 76.0053 237.81 77.4211 234.82C78.8368 231.83 77.092 232.368 72.5855 236.155C69.4948 238.757 65.2774 242.076 62.6952 244.977C63.9514 242.983 65.1478 240.99 66.2346 239.285C68.5925 236.668 71.2725 234.361 74.2107 232.418C78.448 229.876 80.4719 228.032 78.777 227.344C77.6005 226.866 72.7152 230.574 69.1558 234.62L71.2595 231.401C71.4589 231.102 71.6683 230.773 71.8777 230.404C75.0884 227.843 78.1353 225.083 81.0003 222.141C86.0353 216.928 88.7372 211.456 85.8259 213.32Z" fill="white"/>
<path d="M115.062 213.589C112.39 215.314 105.64 225.69 101.333 230.245C101.831 229.398 102.33 228.441 102.828 227.484C103.496 226.627 104.294 225.779 104.822 224.972C105.67 223.716 106.467 222.43 107.195 221.105C108.353 219.042 109.267 216.851 109.917 214.576C110.738 211.923 110.762 209.089 109.987 206.423C109.768 205.745 108.442 201.648 107.235 203.213C107.058 203.481 106.951 203.79 106.926 204.11C106.428 207.1 106.717 210.091 106.557 213.161C106.328 217.716 103.626 224.693 102.41 227.643C102.15 228.082 101.821 228.64 101.413 229.278C103.407 224.095 102.888 217.148 101.064 215.443C98.8104 213.33 99.8772 219.43 100.585 224.653C100.971 226.969 100.782 229.344 100.037 231.571C99.1793 232.986 98.2122 234.561 97.2251 236.176C97.0556 236.385 96.8961 236.604 96.7366 236.814C97.2901 235.741 97.7151 234.607 98.0028 233.435C98.6808 230.335 97.0058 223.248 94.4235 223.467C91.8413 223.686 94.8522 227.992 95.8592 232.328C96.358 234.698 96.1071 237.164 95.1414 239.385L94.9619 239.784C94.4933 240.502 94.0447 241.209 93.606 241.867C92.609 243.412 91.6119 244.857 90.6947 246.303C91.932 244.205 92.8589 241.938 93.4464 239.575C94.4435 235.029 93.0177 230.066 91.0038 228.869C88.9898 227.673 91.0536 236.136 91.273 240.621C91.3414 243.228 90.7407 245.808 89.5282 248.117C88.2321 250.11 86.9758 252.104 85.6697 254.277C86.7143 251.299 87.5178 248.243 88.0725 245.136C89.0696 240.053 87.0157 236.026 84.9419 235.578C82.8681 235.129 84.1842 238.568 85.4105 245.426C86.0483 249.042 85.7321 252.763 84.4933 256.22C83.9449 257.117 83.3966 258.044 82.8183 259.011C82.24 259.978 81.5421 261.334 80.9439 262.6C80.9439 261.334 81.0436 259.48 81.0735 257.417C81.0864 255.133 81.2697 252.855 81.6219 250.599C82.0705 247.987 82.3098 244.618 80.1961 242.625C80.0596 242.46 79.8882 242.327 79.6943 242.235C79.5004 242.144 79.2888 242.097 79.0745 242.097C78.8602 242.097 78.6486 242.144 78.4547 242.235C78.2608 242.327 78.0894 242.46 77.9529 242.625C77.5625 243.098 77.3383 243.686 77.3148 244.299C76.916 247.648 77.913 251.276 78.4613 254.526C78.9751 257.539 79.6845 260.516 80.585 263.437C80.0566 264.613 79.588 265.809 79.0994 266.985L78.3417 265.809C77.4544 264.424 76.5072 256.32 75.4902 252.522C74.4733 248.725 70.884 246.761 71.1034 251.247C71.3227 255.732 77.2849 264.713 77.2849 264.713L78.9698 267.324C77.1752 271.969 75.9788 276.066 75.9788 276.066L77.3846 277.013C77.3846 277.013 77.0356 274.022 79.4783 267.713C80.2859 267.254 81.1419 266.887 82.0306 266.617C87.0157 264.942 93.9948 266.706 97.4644 261.752C98.2919 260.546 98.272 258.712 96.6668 258.334C95.3882 258.21 94.1091 258.565 93.0775 259.33C89.937 261.384 87.3547 263.706 83.6957 264.892C83.5262 264.942 81.1533 265.939 79.917 266.617C80.2759 265.749 80.6847 264.832 81.1533 263.856C82.2702 262.763 83.4739 261.763 84.7525 260.865C88.1623 258.463 92.4993 257.725 96.0686 255.523C97.1653 254.855 99.1892 251.894 96.4175 251.974C95.1812 251.974 93.3567 253.35 92.26 253.878C89.0109 255.276 86.0159 257.203 83.3965 259.579L83.8552 258.752C86.4124 256.442 89.1495 254.339 92.0407 252.463C96.8263 249.383 101.293 247.758 102.011 245.485C102.729 243.213 97.0257 245.695 91.5621 249.722C89.0921 251.571 86.946 253.818 85.2111 256.37C86.7665 253.659 88.3816 250.938 89.9469 248.326C91.7921 245.748 94.2034 243.628 96.9958 242.126C101.482 239.953 105.121 238.139 106.537 235.099C107.953 232.059 106.208 232.637 101.702 236.435C98.611 239.026 94.3936 242.356 91.8113 245.256C93.0676 243.213 94.264 241.269 95.3507 239.555C97.712 236.944 100.392 234.64 103.327 232.697C107.564 230.145 109.588 228.311 107.893 227.623C106.717 227.145 101.831 230.853 98.272 234.9C99.269 233.435 99.947 232.328 100.376 231.68C100.575 231.381 100.784 231.052 100.994 230.684C104.207 228.125 107.257 225.369 110.126 222.43C115.251 217.207 117.953 211.735 115.062 213.589Z" fill="#084C3F"/>
<path opacity="0.6" d="M115.062 213.589C112.39 215.314 105.64 225.69 101.333 230.245C101.831 229.398 102.33 228.441 102.828 227.484C103.496 226.627 104.294 225.779 104.822 224.972C105.67 223.716 106.467 222.43 107.195 221.105C108.353 219.042 109.267 216.851 109.917 214.576C110.738 211.923 110.762 209.089 109.987 206.423C109.768 205.745 108.442 201.648 107.235 203.213C107.058 203.481 106.951 203.79 106.926 204.11C106.428 207.1 106.717 210.091 106.557 213.161C106.328 217.716 103.626 224.693 102.41 227.643C102.15 228.082 101.821 228.64 101.413 229.278C103.407 224.095 102.888 217.148 101.064 215.443C98.8104 213.33 99.8772 219.43 100.585 224.653C100.971 226.969 100.782 229.344 100.037 231.571C99.1793 232.986 98.2122 234.561 97.2251 236.176C97.0556 236.385 96.8961 236.604 96.7366 236.814C97.2901 235.741 97.7151 234.607 98.0028 233.435C98.6808 230.335 97.0058 223.248 94.4235 223.467C91.8413 223.686 94.8522 227.992 95.8592 232.328C96.358 234.698 96.1071 237.164 95.1414 239.385L94.9619 239.784C94.4933 240.502 94.0447 241.209 93.606 241.867C92.609 243.412 91.6119 244.857 90.6947 246.303C91.932 244.205 92.8589 241.938 93.4464 239.575C94.4435 235.029 93.0177 230.066 91.0038 228.869C88.9898 227.673 91.0536 236.136 91.273 240.621C91.3414 243.228 90.7407 245.808 89.5282 248.117C88.2321 250.11 86.9758 252.104 85.6697 254.277C86.7143 251.299 87.5178 248.243 88.0725 245.136C89.0696 240.053 87.0157 236.026 84.9419 235.578C82.8681 235.129 84.1842 238.568 85.4105 245.426C86.0483 249.042 85.7321 252.763 84.4933 256.22C83.9449 257.117 83.3966 258.044 82.8183 259.011C82.24 259.978 81.5421 261.334 80.9439 262.6C80.9439 261.334 81.0436 259.48 81.0735 257.417C81.0864 255.133 81.2697 252.855 81.6219 250.599C82.0705 247.987 82.3098 244.618 80.1961 242.625C80.0596 242.46 79.8882 242.327 79.6943 242.235C79.5004 242.144 79.2888 242.097 79.0745 242.097C78.8602 242.097 78.6486 242.144 78.4547 242.235C78.2608 242.327 78.0894 242.46 77.9529 242.625C77.5625 243.098 77.3383 243.686 77.3148 244.299C76.916 247.648 77.913 251.276 78.4613 254.526C78.9751 257.539 79.6845 260.516 80.585 263.437C80.0566 264.613 79.588 265.809 79.0994 266.985L78.3417 265.809C77.4544 264.424 76.5072 256.32 75.4902 252.522C74.4733 248.725 70.884 246.761 71.1034 251.247C71.3227 255.732 77.2849 264.713 77.2849 264.713L78.9698 267.324C77.1752 271.969 75.9788 276.066 75.9788 276.066L77.3846 277.013C77.3846 277.013 77.0356 274.022 79.4783 267.713C80.2859 267.254 81.1419 266.887 82.0306 266.617C87.0157 264.942 93.9948 266.706 97.4644 261.752C98.2919 260.546 98.272 258.712 96.6668 258.334C95.3882 258.21 94.1091 258.565 93.0775 259.33C89.937 261.384 87.3547 263.706 83.6957 264.892C83.5262 264.942 81.1533 265.939 79.917 266.617C80.2759 265.749 80.6847 264.832 81.1533 263.856C82.2702 262.763 83.4739 261.763 84.7525 260.865C88.1623 258.463 92.4993 257.725 96.0686 255.523C97.1653 254.855 99.1892 251.894 96.4175 251.974C95.1812 251.974 93.3567 253.35 92.26 253.878C89.0109 255.276 86.0159 257.203 83.3965 259.579L83.8552 258.752C86.4124 256.442 89.1495 254.339 92.0407 252.463C96.8263 249.383 101.293 247.758 102.011 245.485C102.729 243.213 97.0257 245.695 91.5621 249.722C89.0921 251.571 86.946 253.818 85.2111 256.37C86.7665 253.659 88.3816 250.938 89.9469 248.326C91.7921 245.748 94.2034 243.628 96.9958 242.126C101.482 239.953 105.121 238.139 106.537 235.099C107.953 232.059 106.208 232.637 101.702 236.435C98.611 239.026 94.3936 242.356 91.8113 245.256C93.0676 243.213 94.264 241.269 95.3507 239.555C97.712 236.944 100.392 234.64 103.327 232.697C107.564 230.145 109.588 228.311 107.893 227.623C106.717 227.145 101.831 230.853 98.272 234.9C99.269 233.435 99.947 232.328 100.376 231.68C100.575 231.381 100.784 231.052 100.994 230.684C104.207 228.125 107.257 225.369 110.126 222.43C115.251 217.207 117.953 211.735 115.062 213.589Z" fill="white"/>
<path d="M425.26 24.8051C425.26 24.8051 421.442 13.8408 410.455 13.3524C399.468 12.864 401.382 23.3798 393.745 26.2405C386.108 29.1011 383.236 20.9876 376.546 22.9013C369.856 24.8151 374.164 30.058 368.431 31.9718C362.698 33.8856 363.176 28.6327 354.582 32.9685C345.988 37.3044 344.074 38.6999 342.159 39.1783C340.245 39.6568 323.057 42.5175 323.057 42.5175H441.98C441.98 42.5175 445.33 32.0117 438.64 27.7156C431.95 23.4196 432.429 28.6327 425.26 24.8051Z" fill="#084C3F"/>
<path opacity="0.7" d="M425.26 24.8051C425.26 24.8051 421.442 13.8408 410.455 13.3524C399.468 12.864 401.382 23.3798 393.745 26.2405C386.108 29.1011 383.236 20.9876 376.546 22.9013C369.856 24.8151 374.164 30.058 368.431 31.9718C362.698 33.8856 363.176 28.6327 354.582 32.9685C345.988 37.3044 344.074 38.6999 342.159 39.1783C340.245 39.6568 323.057 42.5175 323.057 42.5175H441.98C441.98 42.5175 445.33 32.0117 438.64 27.7156C431.95 23.4196 432.429 28.6327 425.26 24.8051Z" fill="white"/>
<path d="M206.736 7.05913C206.736 7.05913 204.413 0.400806 197.763 0.0818444C191.112 -0.237117 192.269 6.15209 187.633 7.89641C182.997 9.64073 181.262 4.70679 177.204 5.9029C173.146 7.09901 175.758 10.2487 172.289 11.405C168.819 12.5612 169.098 9.41148 163.884 11.9831C158.67 14.5547 157.523 15.4618 156.357 15.7508C155.19 16.0399 144.781 17.7444 144.781 17.7444H216.875C216.875 17.7444 218.869 11.3751 214.881 8.77355C210.893 6.17202 211.073 9.3716 206.736 7.05913Z" fill="#084C3F"/>
<path opacity="0.8" d="M206.736 7.05913C206.736 7.05913 204.413 0.400806 197.763 0.0818444C191.112 -0.237117 192.269 6.15209 187.633 7.89641C182.997 9.64073 181.262 4.70679 177.204 5.9029C173.146 7.09901 175.758 10.2487 172.289 11.405C168.819 12.5612 169.098 9.41148 163.884 11.9831C158.67 14.5547 157.523 15.4618 156.357 15.7508C155.19 16.0399 144.781 17.7444 144.781 17.7444H216.875C216.875 17.7444 218.869 11.3751 214.881 8.77355C210.893 6.17202 211.073 9.3716 206.736 7.05913Z" fill="white"/>
<path d="M85.4576 124.088C85.4576 124.088 82.337 115.118 73.3738 114.739C64.4107 114.36 65.956 122.922 59.7247 125.264C53.4934 127.607 51.1404 120.968 45.6867 122.533C40.2331 124.098 43.6927 128.374 39.0566 129.939C34.4205 131.504 34.7695 127.208 27.7505 130.717C20.7315 134.225 19.1762 135.392 17.6109 135.79C16.0456 136.189 2.01758 138.511 2.01758 138.511H99.1067C99.1067 138.511 101.829 129.939 96.3749 126.431C90.9212 122.922 91.3001 127.228 85.4576 124.088Z" fill="#084C3F"/>
<g opacity="0.7">
<path d="M85.4576 124.088C85.4576 124.088 82.337 115.118 73.3738 114.739C64.4107 114.36 65.956 122.922 59.7247 125.264C53.4934 127.607 51.1404 120.968 45.6867 122.533C40.2331 124.098 43.6927 128.374 39.0566 129.939C34.4205 131.504 34.7695 127.208 27.7505 130.717C20.7315 134.225 19.1762 135.392 17.6109 135.79C16.0456 136.189 2.01758 138.511 2.01758 138.511H99.1067C99.1067 138.511 101.829 129.939 96.3749 126.431C90.9212 122.922 91.3001 127.228 85.4576 124.088Z" fill="white"/>
</g>
<path d="M200.784 302.007C259.185 302.007 306.527 298.651 306.527 294.511C306.527 290.372 259.185 287.016 200.784 287.016C142.384 287.016 95.041 290.372 95.041 294.511C95.041 298.651 142.384 302.007 200.784 302.007Z" fill="#084C3F"/>
<path d="M299.868 289.527C332.978 289.527 359.819 287.849 359.819 285.779C359.819 283.709 332.978 282.031 299.868 282.031C266.759 282.031 239.918 283.709 239.918 285.779C239.918 287.849 266.759 289.527 299.868 289.527Z" fill="#084C3F"/>
<g opacity="0.6">
<path d="M200.786 302.007C259.187 302.007 306.529 298.651 306.529 294.511C306.529 290.372 259.187 287.016 200.786 287.016C142.386 287.016 95.043 290.372 95.043 294.511C95.043 298.651 142.386 302.007 200.786 302.007Z" fill="white"/>
<path d="M299.87 289.527C332.98 289.527 359.821 287.849 359.821 285.779C359.821 283.709 332.98 282.031 299.87 282.031C266.761 282.031 239.92 283.709 239.92 285.779C239.92 287.849 266.761 289.527 299.87 289.527Z" fill="white"/>
</g>
<path d="M200.012 182.746L218.606 169.43" stroke="#263238" stroke-width="0.835087" stroke-linecap="round" stroke-linejoin="round"/>
<path d="M258.788 275.255L257.741 287.067C257.741 287.067 252.447 289.389 252.457 290.167C252.467 290.944 253.454 292.011 257.771 292.011C262.088 292.011 263.494 290.376 263.494 289.15C263.494 287.924 272.686 277.707 272.686 277.707C272.912 277.094 272.974 276.433 272.868 275.788C272.761 275.143 272.489 274.537 272.078 274.029C270.643 272.395 265.737 272.195 265.737 272.195L258.788 275.255Z" fill="#084C3F"/>
<path d="M252.465 290.951C252.465 290.951 259.653 290.483 261.578 289.386C263.502 288.29 270.351 277.864 270.9 277.037C271.258 276.361 271.447 275.608 271.448 274.844" stroke="#263238" stroke-width="0.417543" stroke-linecap="round" stroke-linejoin="round"/>
<path d="M268 272.367C268 272.367 273.833 273.474 273.274 275.975C272.716 278.477 263.563 289.571 262.178 290.927C260.792 292.282 252.207 292.312 252.467 290.927C252.726 289.541 257.741 287.039 257.741 287.039L259.406 277.072" stroke="#263238" stroke-width="0.835087" stroke-linecap="round" stroke-linejoin="round"/>
<path d="M145.166 284.852L127.997 293.234C127.997 293.234 125.754 294.869 130.25 294.869C134.747 294.869 158.446 295.068 158.446 295.068C158.446 295.068 161.108 295.686 161.716 294.46C162.713 292.467 163.152 291.191 162.534 290.573C161.915 289.955 145.166 284.852 145.166 284.852Z" fill="#084C3F"/>
<path d="M129.615 292.945H160.074" stroke="#263238" stroke-width="0.417543" stroke-linecap="round" stroke-linejoin="round"/>
<path d="M144.013 285.922C144.013 285.922 126.525 293.417 126.804 294.245C127.083 295.072 144.561 295.082 151.221 295.082C157.881 295.082 162.607 295.361 162.607 293.697" stroke="#263238" stroke-width="0.835087" stroke-linecap="round" stroke-linejoin="round"/>
<path d="M267.999 272.367L210.282 230.194L208.288 187.742C206.161 189.614 203.76 191.15 201.169 192.297C197.6 193.663 176.922 204.109 176.922 204.109C176.922 204.109 186.084 236.573 187.749 239.354C189.414 242.135 259.355 277.081 259.355 277.081L267.999 272.367Z" fill="#263238"/>
<path d="M162.597 292.028C162.597 292.028 160.373 291.47 157.881 290.912C155.388 290.353 144.002 285.928 144.002 285.928C143.777 285.022 143.683 284.089 143.723 283.157C143.753 282.556 143.918 281.969 144.206 281.441C144.494 280.913 144.899 280.457 145.388 280.107C145.388 280.107 102.088 222.395 100.981 220.73C99.8747 219.065 100.702 216.284 108.2 210.463C115.697 204.642 164.75 174.71 164.75 174.71C162.866 172.477 166.415 171.102 166.415 171.102L170.862 172.487L200.005 182.754L211.66 174.989C211.66 174.989 213.604 182.195 206.386 187.747C199.167 193.299 133.175 222.634 133.175 222.634L132.078 222.704L161.769 287.552C161.769 287.552 163.763 291.101 162.597 292.028Z" fill="#263238"/>
<path d="M125.775 215.333L131.259 222.191L129.066 213.141" stroke="white" stroke-width="0.835087" stroke-linecap="round" stroke-linejoin="round"/>
<path d="M179.822 204.633C179.822 204.633 191.069 222.186 195.186 225.754" stroke="white" stroke-width="0.835087" stroke-linecap="round" stroke-linejoin="round"/>
<path d="M181.469 204.086C184.569 206.798 187.868 209.274 191.339 211.492" stroke="white" stroke-width="0.835087" stroke-linecap="round" stroke-linejoin="round"/>
<g style="mix-blend-mode:multiply">
<path d="M201.191 111.164L162.248 137.698L170.763 172.783L199.666 182.472L238.23 155.001L233.574 119.706L201.191 111.164Z" fill="#084C3F"/>
</g>
<path d="M162.455 137.695L164.928 148.66" stroke="#263238" stroke-width="0.835087" stroke-linecap="round" stroke-linejoin="round"/>
<path d="M166.984 156.664L170.873 172.483L200.015 182.749L196.406 156.664" stroke="#263238" stroke-width="0.835087" stroke-linecap="round" stroke-linejoin="round"/>
<path d="M196.124 154.447L195.018 147.789" stroke="#263238" stroke-width="0.835087" stroke-linecap="round" stroke-linejoin="round"/>
<path d="M230.541 161.109L238.308 155.278L234.419 122.266" stroke="#263238" stroke-width="0.835087" stroke-linecap="round" stroke-linejoin="round"/>
<path d="M198.896 145.85L219.993 130.031" stroke="#263238" stroke-width="0.835087" stroke-linecap="round" stroke-linejoin="round"/>
<path d="M218.887 115.879L201.399 111.164L163.094 137.249" stroke="#263238" stroke-width="0.835087" stroke-linecap="round" stroke-linejoin="round"/>
<path d="M163.373 138.352L169.206 140.016" stroke="#263238" stroke-width="0.835087" stroke-linecap="round" stroke-linejoin="round"/>
<path d="M179.197 142.242L195.02 146.678" stroke="#263238" stroke-width="0.835087" stroke-linecap="round" stroke-linejoin="round"/>
<path d="M216.105 115.328L192.236 133.639" stroke="#263238" stroke-width="0.417543" stroke-linecap="round" stroke-linejoin="round"/>
<path d="M190.292 135.305L181.688 141.963" stroke="#263238" stroke-width="0.417543" stroke-linecap="round" stroke-linejoin="round"/>
<path d="M216.705 100.02C216.705 100.02 222.767 150.007 222.767 152.23C222.767 154.453 217.213 155.559 217.213 158.33C217.058 160.603 216.592 162.843 215.827 164.989C215.827 164.989 214.721 166.105 214.721 166.982C214.721 167.859 216.665 167.54 218.33 166.713C219.995 165.886 220.543 162.826 220.543 162.826C220.162 164.659 219.886 166.513 219.716 168.377L218.609 169.484C218.609 169.484 215.279 172.534 217.492 172.813C219.706 173.092 229.985 169.205 230.543 166.713C231.102 164.221 229.147 152.28 229.147 152.28C229.147 152.28 237.203 95.9532 237.203 90.6804C237.242 89.2068 236.839 87.7552 236.047 86.512C235.255 85.2688 234.109 84.2907 232.757 83.7031" fill="white"/>
<mask id="mask0_23153_161047" style="mask-type:luminance" maskUnits="userSpaceOnUse" x="214" y="83" width="24" height="90">
<path d="M216.701 100.02C216.701 100.02 222.763 150.007 222.763 152.23C222.763 154.453 217.209 155.559 217.209 158.33C217.054 160.603 216.588 162.843 215.823 164.989C215.823 164.989 214.717 166.105 214.717 166.982C214.717 167.859 216.661 167.54 218.326 166.713C219.991 165.886 220.539 162.826 220.539 162.826C220.158 164.659 219.882 166.513 219.712 168.377L218.605 169.484C218.605 169.484 215.275 172.534 217.488 172.813C219.702 173.092 229.981 169.205 230.539 166.713C231.098 164.221 229.144 152.28 229.144 152.28C229.144 152.28 237.199 95.9532 237.199 90.6804C237.238 89.2068 236.836 87.7552 236.043 86.512C235.251 85.2688 234.105 84.2907 232.753 83.7031" fill="white"/>
</mask>
<g mask="url(#mask0_23153_161047)">
<g style="mix-blend-mode:multiply" opacity="0.3">
<path d="M237.159 97.6957C235.992 93.2601 234.726 85.2063 234.726 85.2063L229.442 83.6016L222.463 91.9843L227.976 88.5953V155.109C227.976 158.498 223.739 171.625 223.739 171.625C223.739 171.625 232.503 169.781 231.087 161.807C229.671 153.833 227.976 155.109 230.519 139.011C233.061 122.914 238.365 102.161 237.159 97.6957Z" fill="#084C3F"/>
</g>
</g>
<path d="M216.705 100.02C216.705 100.02 222.767 150.007 222.767 152.23C222.767 154.453 217.213 155.559 217.213 158.33C217.058 160.603 216.592 162.843 215.827 164.989C215.827 164.989 214.721 166.105 214.721 166.982C214.721 167.859 216.665 167.54 218.33 166.713C219.995 165.886 220.543 162.826 220.543 162.826C220.162 164.659 219.886 166.513 219.716 168.377L218.609 169.484C218.609 169.484 215.279 172.534 217.492 172.813C219.706 173.092 229.985 169.205 230.543 166.713C231.102 164.221 229.147 152.28 229.147 152.28C229.147 152.28 237.203 95.9532 237.203 90.6804C237.242 89.2068 236.839 87.7552 236.047 86.512C235.255 85.2688 234.109 84.2907 232.757 83.7031" stroke="#263238" stroke-width="0.835087" stroke-linecap="round" stroke-linejoin="round"/>
<path d="M223.414 166.242C223.716 167.427 223.618 168.678 223.135 169.801C222.589 170.692 221.947 171.521 221.221 172.273" stroke="#263238" stroke-width="0.417543" stroke-linecap="round" stroke-linejoin="round"/>
<path d="M226.734 166.242C226.57 167.364 226.293 168.466 225.906 169.531" stroke="#263238" stroke-width="0.417543" stroke-linecap="round" stroke-linejoin="round"/>
<path d="M229.206 165.414C229.039 166.535 228.762 167.637 228.379 168.703" stroke="#263238" stroke-width="0.417543" stroke-linecap="round" stroke-linejoin="round"/>
<path d="M139.546 61.5287C139.227 58.658 133.484 53.2357 125.508 51.6409C117.532 50.046 108.907 50.046 105.717 52.6376C104.521 53.5845 103.723 55.7873 103.205 58.1596C103.773 56.9436 104.919 54.4816 106.106 53.4948C111.978 48.6007 113.613 51.5013 114.59 55.7774C115.567 60.0535 114.261 71.7255 114.261 71.7255C114.261 71.7255 100.881 75.6427 102.836 68.785C102.549 67.8078 102.349 66.8072 102.237 65.7948C102.237 66.3031 102.237 66.6121 102.237 66.6121L101.599 70.7586L96.1756 71.7554L77.332 71.1573C77.332 71.1573 86.9233 77.1378 92.347 77.1378C95.852 76.9935 99.2105 75.6932 101.898 73.4399L136.794 76.1012C136.794 76.1012 139.865 64.3993 139.546 61.5287Z" fill="#084C3F"/>
<path d="M98.8664 71.4807L77.291 71.1518C77.291 71.1518 83.2731 76.7934 91.2492 76.7934C99.2253 76.7934 101.877 73.4742 101.877 73.4742L136.773 76.1356C136.773 76.1356 141.329 67.4538 139.006 59.8286C136.683 52.2035 115.746 49.6418 109.923 51.0472C102.725 52.7916 102.246 58.8718 102.246 62.191C102.194 64.6389 101.97 67.0802 101.578 69.4972" stroke="#263238" stroke-width="0.835087" stroke-linecap="round" stroke-linejoin="round"/>
<mask id="mask1_23153_161047" style="mask-type:luminance" maskUnits="userSpaceOnUse" x="98" y="74" width="41" height="43">
<path d="M100.532 74.4688C100.532 74.4688 96.8728 83.1007 98.5378 84.4363C100.203 85.772 101.19 86.4298 101.19 86.4298C101.19 86.4298 102.187 98.042 103.842 100.036C105.497 102.029 116.125 98.7098 116.125 98.7098C116.125 98.7098 137.671 120.27 138.368 116.283C139.066 112.296 136.374 97.3443 136.374 95.7096C136.374 94.0749 131.728 89.7291 131.728 89.7291" fill="white"/>
</mask>
<g mask="url(#mask1_23153_161047)">
<g style="mix-blend-mode:multiply" opacity="0.3">
<path d="M119.039 74.9596L104.952 75.2088C104.952 75.2088 100.963 81.1395 101.96 82.8738C102.732 84.073 103.752 85.0927 104.952 85.8641C104.952 85.8641 103.955 93.7783 105.201 96.4995C106.447 99.2206 116.327 97.9747 116.327 97.9747C114.141 99.2672 111.683 100.032 109.149 100.207C104.453 100.696 102.977 99.709 102.23 96.9879C101.482 94.2667 101.233 86.4522 101.233 86.4522L97.793 82.8738L100.266 76.1956L102.987 73.4844L119.039 74.9596Z" fill="#084C3F"/>
</g>
</g>
<path d="M100.532 74.4688C100.532 74.4688 96.8728 83.1007 98.5378 84.4363C100.203 85.772 101.19 86.4298 101.19 86.4298C101.19 86.4298 102.187 98.042 103.842 100.036C105.497 102.029 116.125 98.7098 116.125 98.7098C116.125 98.7098 137.671 120.27 138.368 116.283C139.066 112.296 136.374 97.3443 136.374 95.7096C136.374 94.0749 131.728 89.7291 131.728 89.7291" stroke="#263238" stroke-width="0.835087" stroke-linecap="round" stroke-linejoin="round"/>
<path d="M119.783 74.7969C119.783 74.7969 120.441 77.7871 122.435 78.1161C124.429 78.445 126.084 75.1258 126.084 75.1258L119.783 74.7969Z" fill="#263238"/>
<path d="M136.672 76.136C136.672 76.136 138.666 82.1166 136.333 85.4258C134 88.735 133.023 88.745 133.023 88.745C131.029 92.0642 125.715 84.758 125.715 84.758C125.715 84.758 129.703 84.5786 130.7 81.9272C131.697 79.2758 130.301 75.3984 130.301 75.3984L136.672 76.136Z" fill="#263238"/>
<path d="M130.69 76.1328C130.69 76.1328 131.687 80.7777 130.69 83.1101C129.693 85.4425 125.705 84.7647 125.705 84.7647L123.711 89.7485" stroke="#263238" stroke-width="0.835087" stroke-linecap="round" stroke-linejoin="round"/>
<path d="M103.551 88.3418C103.551 88.3418 107.399 89.1691 109.862 84.7734" stroke="#263238" stroke-width="0.626315" stroke-linecap="round" stroke-linejoin="round"/>
<path d="M171.885 109.933L163.727 112.938L168.334 125.443L176.492 122.439L171.885 109.933Z" fill="#263238"/>
<path d="M170.458 112.735L166.557 114.172L168.693 119.971L172.594 118.534L170.458 112.735Z" fill="white"/>
<path d="M167.581 108.03L165.859 108.664L167.262 112.471L168.983 111.837L167.581 108.03Z" fill="white" stroke="#263238" stroke-width="0.417543" stroke-linecap="round" stroke-linejoin="round"/>
<path d="M159.037 162.672L166.425 171.094" stroke="#263238" stroke-width="0.835087" stroke-linecap="round" stroke-linejoin="round"/>
<mask id="mask2_23153_161047" style="mask-type:luminance" maskUnits="userSpaceOnUse" x="201" y="-1" width="206" height="273">
<path d="M202.687 76.0945L204.552 76.8121L231.152 81.6763C231.152 81.6763 235.489 83.9589 237.014 86.3909C238.54 88.823 237.164 97.6942 237.164 97.6942L234.382 118.566L238.839 155.984L231.062 161.815L231.361 165.513C231.571 165.573 231.311 170.447 219.776 172.491C219.776 172.491 217.383 173.687 216.685 173.159C214.92 171.833 216.336 171.942 216.336 171.942L211.67 174.933C211.918 177.284 211.667 179.662 210.932 181.91C209.716 185.897 208.879 186.675 208.879 186.675L211.002 223.764L216.117 231.05L282.917 271.588H406.068V-0.0078125H201.182V75.5263L202.687 76.0945Z" fill="white"/>
</mask>
<g mask="url(#mask2_23153_161047)">
<path d="M234.93 58.7477L227.602 62.974L223.465 55.7475L230.783 51.5312L234.93 58.7477Z" stroke="#263238" stroke-width="0.835087" stroke-linecap="round" stroke-linejoin="round"/>
<path d="M232.46 50.5311L220.924 57.1894L214.055 44.4708L225.59 37.8125L232.46 50.5311Z" stroke="#263238" stroke-width="0.835087" stroke-linecap="round" stroke-linejoin="round"/>
<path d="M343.522 212.13C378.159 177.502 378.159 121.358 343.522 86.7296C308.885 52.1013 252.727 52.1013 218.089 86.7296C183.452 121.358 183.452 177.501 218.089 212.13C252.727 246.758 308.885 246.758 343.522 212.13Z" fill="white"/>
<path d="M281.583 45.5469C261.332 45.541 241.535 51.5391 224.694 62.7826C207.853 74.0261 194.726 90.01 186.972 108.713C179.218 127.415 177.186 147.997 181.134 167.854C185.081 187.711 194.829 205.952 209.147 220.27C223.464 234.588 241.707 244.34 261.568 248.292C281.429 252.243 302.017 250.218 320.727 242.472C339.437 234.726 355.428 221.606 366.68 204.773C377.931 187.94 383.937 168.149 383.937 147.904C383.937 120.762 373.154 94.7318 353.96 75.5371C334.766 56.3423 308.732 45.5548 281.583 45.5469ZM281.583 236.575C264.033 236.575 246.877 231.372 232.285 221.624C217.693 211.877 206.32 198.022 199.603 181.812C192.887 165.602 191.13 147.765 194.554 130.557C197.978 113.349 206.429 97.542 218.839 85.1355C231.248 72.729 247.059 64.2801 264.272 60.8571C281.485 57.4342 299.326 59.191 315.54 65.9053C331.754 72.6197 345.613 83.99 355.363 98.5785C365.113 113.167 370.317 130.318 370.317 147.864C370.317 159.514 368.022 171.049 363.563 181.812C359.104 192.575 352.567 202.355 344.328 210.592C336.088 218.83 326.306 225.364 315.54 229.822C304.775 234.28 293.236 236.575 281.583 236.575Z" fill="#263238" stroke="#263238" stroke-width="0.835087" stroke-linecap="round" stroke-linejoin="round"/>
<path d="M344.403 70.6881C334.199 62.3765 322.446 56.173 309.826 52.4375" stroke="white" stroke-width="1.67017" stroke-linecap="round" stroke-linejoin="round"/>
<path d="M300.385 50.1449C296.759 49.457 293.098 48.9679 289.418 48.6797" stroke="white" stroke-width="1.67017" stroke-linecap="round" stroke-linejoin="round"/>
<path d="M356.258 202.626C368.219 186.296 374.5 166.499 374.14 146.262C373.78 126.026 366.799 106.464 354.264 90.5703" stroke="white" stroke-width="0.835087" stroke-linecap="round" stroke-linejoin="round"/>
<path d="M343.318 216.862C346.226 214.266 348.963 211.486 351.514 208.539" stroke="white" stroke-width="0.835087" stroke-linecap="round" stroke-linejoin="round"/>
<path d="M243.945 232.483C259.506 239.391 276.668 241.884 293.551 239.686C310.435 237.488 326.387 230.685 339.659 220.023" stroke="white" stroke-width="0.835087" stroke-linecap="round" stroke-linejoin="round"/>
<path d="M230.736 225.258C233.506 227.073 236.371 228.736 239.321 230.242" stroke="white" stroke-width="0.835087" stroke-linecap="round" stroke-linejoin="round"/>
<path d="M220.805 217.727C223.14 219.758 225.575 221.671 228.103 223.458" stroke="white" stroke-width="0.835087" stroke-linecap="round" stroke-linejoin="round"/>
<path d="M255.98 58.9297C240.247 63.459 225.996 72.0773 214.681 83.9063C203.365 95.7353 195.388 110.352 191.564 126.267C187.739 142.182 188.204 158.826 192.91 174.503C197.616 190.18 206.395 204.33 218.352 215.51" stroke="white" stroke-width="0.835087" stroke-linecap="round" stroke-linejoin="round"/>
<path d="M347.045 82.4525C336.215 71.6388 322.875 63.6738 308.217 59.2683C293.558 54.8628 278.036 54.1538 263.037 57.2047" stroke="white" stroke-width="0.835087" stroke-linecap="round" stroke-linejoin="round"/>
<path d="M294.853 180.68H268.213V187.896H294.853V180.68Z" fill="#084C3F"/>
<path d="M289.02 147.9C289.02 146.161 288.41 144.477 287.294 143.142C286.179 141.806 284.631 140.905 282.919 140.594L282.131 91.8828H281.024L280.247 140.594C278.552 140.899 277.016 141.783 275.9 143.094C274.785 144.406 274.161 146.065 274.134 147.786C274.107 149.508 274.679 151.185 275.752 152.531C276.825 153.877 278.333 154.809 280.017 155.167L279.738 172.451H283.427L283.148 155.167C284.809 154.807 286.298 153.891 287.366 152.569C288.434 151.247 289.018 149.6 289.02 147.9ZM281.583 151.887C280.794 151.887 280.023 151.654 279.367 151.216C278.711 150.777 278.2 150.155 277.898 149.426C277.596 148.698 277.518 147.896 277.671 147.123C277.825 146.349 278.205 145.639 278.763 145.081C279.321 144.524 280.031 144.144 280.805 143.99C281.578 143.836 282.38 143.915 283.109 144.217C283.838 144.519 284.461 145.03 284.899 145.685C285.337 146.341 285.571 147.112 285.571 147.9C285.571 148.424 285.468 148.942 285.267 149.426C285.067 149.91 284.773 150.349 284.403 150.72C284.032 151.09 283.593 151.384 283.109 151.584C282.625 151.784 282.107 151.887 281.583 151.887Z" fill="#263238"/>
<path d="M281.58 151.998C283.843 151.998 285.678 150.164 285.678 147.901C285.678 145.639 283.843 143.805 281.58 143.805C279.317 143.805 277.482 145.639 277.482 147.901C277.482 150.164 279.317 151.998 281.58 151.998Z" fill="#084C3F"/>
<path d="M281.58 64.2031V78.9651" stroke="#263238" stroke-width="3.34035" stroke-linecap="round" stroke-linejoin="round"/>
<path d="M281.58 217.344V232.106" stroke="#263238" stroke-width="3.34035" stroke-linecap="round" stroke-linejoin="round"/>
<path d="M239.598 75.4531L246.976 88.2315" stroke="#263238" stroke-width="3.34035" stroke-linecap="round" stroke-linejoin="round"/>
<path d="M316.188 208.078L323.565 220.866" stroke="#263238" stroke-width="3.34035" stroke-linecap="round" stroke-linejoin="round"/>
<path d="M208.859 106.18L221.641 113.566" stroke="#263238" stroke-width="3.34035" stroke-linecap="round" stroke-linejoin="round"/>
<path d="M341.512 182.75L354.303 190.136" stroke="#263238" stroke-width="3.34035" stroke-linecap="round" stroke-linejoin="round"/>
<path d="M365.551 148.156H350.785" stroke="#263238" stroke-width="3.34035" stroke-linecap="round" stroke-linejoin="round"/>
<path d="M212.371 148.156H197.605" stroke="#263238" stroke-width="3.34035" stroke-linecap="round" stroke-linejoin="round"/>
<path d="M365.551 148.156H350.785" stroke="#263238" stroke-width="3.34035" stroke-linecap="round" stroke-linejoin="round"/>
<path d="M212.371 148.156H197.605" stroke="#263238" stroke-width="3.34035" stroke-linecap="round" stroke-linejoin="round"/>
<path d="M354.303 106.18L341.512 113.566" stroke="#263238" stroke-width="3.34035" stroke-linecap="round" stroke-linejoin="round"/>
<path d="M221.641 182.75L208.859 190.136" stroke="#263238" stroke-width="3.34035" stroke-linecap="round" stroke-linejoin="round"/>
<path d="M323.565 75.4531L316.188 88.2315" stroke="#263238" stroke-width="3.34035" stroke-linecap="round" stroke-linejoin="round"/>
<path d="M246.976 208.078L239.598 220.866" stroke="#263238" stroke-width="3.34035" stroke-linecap="round" stroke-linejoin="round"/>
<path d="M285.81 42.3203H277.355V49.796H285.81V42.3203Z" stroke="#263238" stroke-width="0.835087" stroke-linecap="round" stroke-linejoin="round"/>
<path d="M288.242 22.3516H274.922V41.8979H288.242V22.3516Z" stroke="#263238" stroke-width="0.835087" stroke-linecap="round" stroke-linejoin="round"/>
<path d="M291.015 8.59375H271.732V21.9104H291.015V8.59375Z" fill="#084C3F"/>
<path d="M291.224 8.59375H271.941V21.9104H291.224V8.59375Z" stroke="#263238" stroke-width="0.835087" stroke-linecap="round" stroke-linejoin="round"/>
<path d="M274.084 16.8746V8.89062" stroke="#263238" stroke-width="0.835087" stroke-linecap="round" stroke-linejoin="round"/>
<path d="M274.084 22.1576V18.7188" stroke="#263238" stroke-width="0.835087" stroke-linecap="round" stroke-linejoin="round"/>
<path d="M276.537 22.1574V8.89062" stroke="#263238" stroke-width="0.835087" stroke-linecap="round" stroke-linejoin="round"/>
<path d="M278.988 12.2098V8.89062" stroke="#263238" stroke-width="0.835087" stroke-linecap="round" stroke-linejoin="round"/>
<path d="M278.988 22.1575V13.8047" stroke="#263238" stroke-width="0.835087" stroke-linecap="round" stroke-linejoin="round"/>
<path d="M283.049 22.1574V8.89062" stroke="#263238" stroke-width="0.835087" stroke-linecap="round" stroke-linejoin="round"/>
</g>
<g style="mix-blend-mode:multiply" opacity="0.3">
<path d="M140.791 114.259L147.96 114.757L147.72 112.036C147.72 112.036 141.29 111.537 140.791 114.259Z" fill="#084C3F"/>
</g>
<mask id="mask3_23153_161047" style="mask-type:luminance" maskUnits="userSpaceOnUse" x="112" y="112" width="24" height="64">
<path d="M125.083 112.828C125.083 112.828 113.428 122.267 113.428 124.789C113.428 127.311 112.591 174.178 113.149 175.285C113.707 176.391 135.681 161.111 135.681 161.111L133.458 140.857" fill="white"/>
</mask>
<g mask="url(#mask3_23153_161047)">
<g style="mix-blend-mode:multiply" opacity="0.3">
<path d="M121.044 170.813L135.68 161.114L116.986 168.241C116.986 168.241 115.291 130.115 116.567 127.155C117.843 124.194 125.889 118.682 125.889 118.682C125.889 118.682 125.411 115.612 128.003 114.446C129.781 113.782 131.739 113.782 133.516 114.446L135.361 115.144C133.237 113.948 129.808 111.526 124.533 106.602H124.414L125.69 107.828L125.132 112.811L119.528 117.386C118.262 118.662 113.476 124.743 113.476 124.743L113.197 175.238L120.804 170.344L121.044 170.813Z" fill="#084C3F"/>
</g>
</g>
<path d="M125.079 112.828C125.079 112.828 113.424 122.267 113.424 124.789C113.424 127.311 112.587 174.178 113.145 175.285C113.703 176.391 135.678 161.111 135.678 161.111L133.454 140.857" stroke="#263238" stroke-width="0.835087" stroke-linecap="round" stroke-linejoin="round"/>
<path d="M127.303 135.859L150.892 154.728" stroke="#263238" stroke-width="0.835087" stroke-linecap="round" stroke-linejoin="round"/>
<mask id="mask4_23153_161047" style="mask-type:luminance" maskUnits="userSpaceOnUse" x="143" y="71" width="87" height="35">
<path d="M143.277 93.1924C143.277 93.1924 166.159 71.4531 168.931 71.4531C171.702 71.4531 217.495 80.6033 220.825 81.1615C224.155 81.7197 229.708 82.8261 229.708 82.8261C229.708 82.8261 219.998 95.0364 216.667 99.1928C213.337 103.349 211.682 105.851 211.682 105.851L174.215 88.6571" fill="white"/>
</mask>
<g mask="url(#mask4_23153_161047)">
<g style="mix-blend-mode:multiply" opacity="0.3">
<path d="M229.447 83.6036L215.239 79.2378L168.928 71.4531L157.193 84.3212C157.193 84.3212 167.363 77.9719 170.324 77.9719C173.285 77.9719 217.951 90.6706 222.169 91.8567L229.447 83.6036Z" fill="#084C3F"/>
</g>
</g>
<path d="M143.273 93.1924C143.273 93.1924 166.155 71.4531 168.927 71.4531C171.698 71.4531 217.491 80.6033 220.821 81.1615C224.151 81.7197 229.705 82.8261 229.705 82.8261C229.705 82.8261 219.994 95.0364 216.664 99.1928C213.334 103.349 211.679 105.851 211.679 105.851L174.211 88.6571" stroke="#263238" stroke-width="0.835087" stroke-linecap="round" stroke-linejoin="round"/>
<path d="M180.582 92.8516L190.024 117.82" stroke="#263238" stroke-width="0.835087" stroke-linecap="round" stroke-linejoin="round"/>
<path d="M151.719 130.308L149.495 132.531L138.678 118.656" stroke="#263238" stroke-width="0.835087" stroke-linecap="round" stroke-linejoin="round"/>
<path d="M169.941 93.8378L180.919 91.9141L171.586 98.4927" stroke="#263238" stroke-width="0.417543" stroke-linecap="round" stroke-linejoin="round"/>
<path d="M133.405 140.856L119.467 138.812" stroke="#263238" stroke-width="0.417543" stroke-linecap="round" stroke-linejoin="round"/>
<path d="M125.635 107.828C124.634 110.307 124.535 113.059 125.356 115.603C126.742 119.759 131.458 126.976 131.458 126.976L137.56 118.374" stroke="#263238" stroke-width="0.835087" stroke-linecap="round" stroke-linejoin="round"/>
<path d="M139.504 115.047C139.504 115.047 142.565 112.276 145.336 112.276H150.052C150.052 112.276 149.225 101.451 145.336 95.6203C141.448 89.7893 136.174 92.8493 136.174 92.8493" stroke="#263238" stroke-width="0.835087" stroke-linecap="round" stroke-linejoin="round"/>
<path d="M134.51 162.77L167.82 147.231L170.592 137.522L181.968 135.05C181.968 135.05 184.191 132.828 183.912 135.05C183.633 137.273 180.582 138.1 179.475 140.323C178.369 142.546 178.359 146.982 176.973 148.925C175.587 150.869 170.592 153.092 170.592 153.092C170.592 153.092 133.124 184.44 130.352 186.104C127.581 187.769 122.027 171.95 122.027 171.95" fill="white"/>
<mask id="mask5_23153_161047" style="mask-type:luminance" maskUnits="userSpaceOnUse" x="122" y="134" width="62" height="53">
<path d="M134.514 162.77L167.824 147.231L170.596 137.522L181.972 135.05C181.972 135.05 184.195 132.828 183.916 135.05C183.637 137.273 180.586 138.1 179.479 140.323C178.372 142.546 178.362 146.982 176.977 148.925C175.591 150.869 170.596 153.092 170.596 153.092C170.596 153.092 133.128 184.44 130.356 186.104C127.585 187.769 122.031 171.95 122.031 171.95" fill="white"/>
</mask>
<g mask="url(#mask5_23153_161047)">
<g style="mix-blend-mode:multiply" opacity="0.3">
<path d="M121.043 170.804C122.329 172.868 127.583 181.41 127.952 184.759C128.381 188.576 131.771 184.759 131.771 184.759L162.279 159.352C162.279 159.352 132.19 178.4 129.697 177.552C127.205 176.705 126.706 170.356 126.706 170.356L135.679 161.106L121.043 170.804Z" fill="#084C3F"/>
</g>
</g>
<path d="M134.51 162.77L167.82 147.231L170.592 137.522L181.968 135.05C181.968 135.05 184.191 132.828 183.912 135.05C183.633 137.273 180.582 138.1 179.475 140.323C178.369 142.546 178.359 146.982 176.973 148.925C175.587 150.869 170.592 153.092 170.592 153.092C170.592 153.092 133.124 184.44 130.352 186.104C127.581 187.769 122.027 171.95 122.027 171.95" stroke="#263238" stroke-width="0.835087" stroke-linecap="round" stroke-linejoin="round"/>
<path d="M181.967 135.055C181.967 135.055 176.533 138.294 177.082 139.391" stroke="#263238" stroke-width="0.417543" stroke-linecap="round" stroke-linejoin="round"/>
<path d="M177.631 136.07L173.514 138.263" stroke="#263238" stroke-width="0.417543" stroke-linecap="round" stroke-linejoin="round"/>
</svg>
