<svg width="382" height="284" viewBox="0 0 382 284" fill="none" xmlns="http://www.w3.org/2000/svg">
<path d="M87.1259 214.708L86.1857 267.22L3.77554 267.416L3.65625 214.195L87.1259 214.708Z" fill="#EBEBEB"/>
<path d="M38.5783 267.272C38.466 267.272 38.5783 255.547 38.8519 241.086C39.1256 226.625 39.4063 214.907 39.5115 214.914C39.6168 214.921 39.5115 226.632 39.2379 241.093C38.9642 255.554 38.6835 267.272 38.5783 267.272Z" fill="#E0E0E0"/>
<path d="M3.77539 267.416C3.87532 267.224 3.98783 267.038 4.11219 266.861L5.12959 265.325L8.95365 259.711L21.6748 241.223C26.6425 234.016 31.1121 227.477 34.3047 222.706C35.9045 220.327 37.1675 218.376 38.0375 217.036C38.4515 216.384 38.7813 215.857 39.0269 215.479C39.1343 215.29 39.2587 215.111 39.3987 214.945C39.3087 215.14 39.208 215.33 39.097 215.514L38.1638 217.113C37.3359 218.517 36.1009 220.453 34.5362 222.86C31.4068 227.666 26.9723 234.234 21.9975 241.447C17.0228 248.66 12.49 255.143 9.1852 259.831L5.26291 265.381L4.18235 266.875C4.0628 267.067 3.92662 267.248 3.77539 267.416Z" fill="#E0E0E0"/>
<path d="M38.5773 267.269C38.435 267.108 38.3081 266.934 38.1984 266.75L37.174 265.227L33.4482 259.614L21.0849 241.146C16.2364 233.94 11.8861 227.393 8.79879 222.615C7.26215 220.222 5.99214 218.279 5.18523 216.932L4.22395 215.367C4.10308 215.191 3.99744 215.006 3.9082 214.812C4.04911 214.972 4.17589 215.143 4.2871 215.325L5.31153 216.847C6.20965 218.202 7.47265 220.117 9.03034 222.461L21.4006 240.928C26.2491 248.134 30.5924 254.681 33.6797 259.466C35.2234 261.852 36.4864 263.796 37.3003 265.15L38.2616 266.707C38.3801 266.887 38.4857 267.074 38.5773 267.269Z" fill="#E0E0E0"/>
<path d="M47.0852 261.309L60.3164 261.547L60.3651 258.839L47.1339 258.601L47.0852 261.309Z" fill="#E0E0E0"/>
<path d="M47.7559 256.414C49.9056 256.205 52.066 256.128 54.2252 256.183C56.3851 256.106 58.5477 256.158 60.7015 256.337C58.5515 256.542 56.3913 256.619 54.2322 256.568C52.0723 256.645 49.9097 256.593 47.7559 256.414Z" fill="#E0E0E0"/>
<path d="M65.3473 214.408L64.9824 234.679L62.1267 232.413L58.4219 234.56L58.7867 214.289L65.3473 214.408Z" fill="#E0E0E0"/>
<path d="M77.239 174.932L76.5233 215.011L13.6334 215.158L13.5352 174.539L77.239 174.932Z" fill="#F5F5F5"/>
<path d="M40.1924 215.046C40.1082 215.046 40.1924 206.099 40.4029 195.062C40.6134 184.025 40.8239 175.086 40.9081 175.086C40.9923 175.086 40.9081 184.032 40.6976 195.069C40.4871 206.106 40.2696 215.046 40.1924 215.046Z" fill="#E0E0E0"/>
<path d="M13.6348 215.156C13.7079 215.009 13.7924 214.868 13.8874 214.735C14.0838 214.445 14.3434 214.052 14.6662 213.556C15.3679 212.524 16.3642 211.065 17.5851 209.276C20.083 205.648 23.5071 200.68 27.2961 195.193C31.0851 189.706 34.4952 184.668 36.9299 181.062C38.1438 179.238 39.1121 177.757 39.7787 176.733L40.5294 175.54C40.6161 175.4 40.7098 175.264 40.8101 175.133C40.7441 175.286 40.6667 175.434 40.5786 175.575L39.8769 176.789C39.2454 177.834 38.3052 179.343 37.1124 181.174C34.7197 184.844 31.3377 189.861 27.5417 195.362C23.7457 200.863 20.2795 205.809 17.7605 209.395L14.7715 213.605C14.4206 214.082 14.147 214.468 13.9435 214.749C13.8525 214.893 13.7492 215.029 13.6348 215.156Z" fill="#E0E0E0"/>
<path d="M40.1921 215.045C40.081 214.925 39.9823 214.793 39.8974 214.652L39.1186 213.488C38.4169 212.456 37.4697 210.997 36.2769 209.208L26.8185 195.111C23.1207 189.617 19.8018 184.586 17.4443 180.966C16.2725 179.141 15.3393 177.661 14.6867 176.629L13.9851 175.437C13.8237 175.163 13.7395 175.016 13.7465 175.016C13.8559 175.136 13.9523 175.268 14.0342 175.409L14.82 176.566C15.5217 177.605 16.4689 179.057 17.6267 180.853L27.0711 194.95C30.7688 200.444 34.0877 205.44 36.4382 209.088C37.617 210.913 38.5432 212.4 39.2028 213.432L39.9395 214.617C40.0336 214.754 40.118 214.897 40.1921 215.045Z" fill="#E0E0E0"/>
<path d="M47.1511 210.204L57.248 210.406L57.2894 208.336L47.1925 208.134L47.1511 210.204Z" fill="#E0E0E0"/>
<path d="M47.166 206.761C48.7984 206.607 50.4384 206.549 52.0776 206.586C53.7158 206.532 55.3557 206.572 56.9893 206.705C55.3571 206.863 53.7169 206.922 52.0776 206.88C50.4395 206.943 48.7992 206.903 47.166 206.761Z" fill="#EBEBEB"/>
<path d="M64.5257 174.708L64.245 190.18L62.0699 188.447L59.2422 190.089L59.5158 174.617L64.5257 174.708Z" fill="#E0E0E0"/>
<path d="M84.0595 263.626C83.3225 261.441 81.9427 259.53 80.101 258.142C78.2592 256.755 76.0414 255.956 73.738 255.851L71.8084 149.655H81.0984V151.241H82.8456V147.438H68.4124C68.4124 147.438 70.1315 225.785 71.3804 255.956C70.7597 256.057 70.1474 256.205 69.5491 256.399C67.2413 257.175 65.2412 258.668 63.8394 260.659C62.4376 262.65 61.7069 265.036 61.7536 267.471L28.8457 267.036L29.7859 271.358L62.2238 270.467C62.2659 270.614 62.3009 270.762 62.35 270.916C62.8034 272.375 63.5439 273.728 64.528 274.897C65.5121 276.065 66.72 277.025 68.0805 277.72C69.441 278.415 70.9268 278.831 72.4504 278.943C73.974 279.055 75.5046 278.862 76.9523 278.374C78.3999 277.886 79.7354 277.113 80.8801 276.101C82.0248 275.09 82.9556 273.859 83.6178 272.482C84.28 271.106 84.6602 269.61 84.7361 268.085C84.8119 266.559 84.5819 265.033 84.0595 263.598V263.626Z" fill="#E0E0E0"/>
<path d="M35.1543 277.683H36.8944L40.2484 271.102L37.4768 271.179L35.1543 277.683Z" fill="#E0E0E0"/>
<path d="M305.013 0H272.062V9.10757H305.013V0Z" fill="#EBEBEB"/>
<path d="M333.184 192.789H300.234V201.897H333.184V192.789Z" fill="#EBEBEB"/>
<path d="M296.649 9.10156H263.699V18.2091H296.649V9.10156Z" fill="#F5F5F5"/>
<path d="M312.211 202.188H288.537V211.295H312.211V202.188Z" fill="#F5F5F5"/>
<path d="M173.199 30.3047H102.219V175.457H173.199V30.3047Z" fill="#EBEBEB"/>
<path d="M137.681 30.3047C137.681 30.3047 123.129 96.1486 102.191 100.646C102.191 100.646 110.611 146.837 111.418 175.457H102.219V30.3047H137.681Z" fill="#E0E0E0"/>
<path d="M137.947 30.3047C137.947 30.3047 152.5 96.1486 173.465 100.646C173.465 100.646 165.045 146.837 164.246 175.457H173.465V30.3047H137.947Z" fill="#E0E0E0"/>
<path d="M139.007 30.0234H136.418V175.457H139.007V30.0234Z" fill="#FAFAFA"/>
<path d="M119.275 30.0234H118.637V175.457H119.275V30.0234Z" fill="#FAFAFA"/>
<path d="M157.594 30.0234H156.955V175.457H157.594V30.0234Z" fill="#FAFAFA"/>
<path d="M173.199 66.0859V66.6683L102.219 66.956V66.3736L173.199 66.0859Z" fill="#FAFAFA"/>
<path d="M173.199 138.305V138.873L102.219 139.161V138.592L173.199 138.305Z" fill="#FAFAFA"/>
<path d="M173.199 101.422H102.219V103.843H173.199V101.422Z" fill="#FAFAFA"/>
<path d="M174.25 176.508H101.193V29.25H174.25V176.508ZM103.27 174.403H172.145V31.355H103.298L103.27 174.403Z" fill="#F5F5F5"/>
<path d="M380.912 30.3047H309.932V175.457H380.912V30.3047Z" fill="#EBEBEB"/>
<path d="M345.422 30.3047C345.422 30.3047 330.869 96.1486 309.932 100.646C309.932 100.646 318.352 146.837 319.151 175.457H309.932V30.3047H345.422Z" fill="#E0E0E0"/>
<path d="M345.66 30.3047C345.66 30.3047 360.213 96.1486 381.157 100.646C381.157 100.646 372.737 146.837 371.93 175.457H381.157V30.3047H345.66Z" fill="#E0E0E0"/>
<path d="M346.712 30.0234H344.123V175.457H346.712V30.0234Z" fill="#FAFAFA"/>
<path d="M326.982 30.0234H326.344V175.457H326.982V30.0234Z" fill="#FAFAFA"/>
<path d="M365.299 30.0234H364.66V175.457H365.299V30.0234Z" fill="#FAFAFA"/>
<path d="M380.912 66.0859V66.6683L309.932 66.956V66.3736L380.912 66.0859Z" fill="#FAFAFA"/>
<path d="M380.912 138.305V138.873L309.932 139.161V138.592L380.912 138.305Z" fill="#FAFAFA"/>
<path d="M380.912 101.422H309.932V103.843H380.912V101.422Z" fill="#FAFAFA"/>
<path d="M381.965 176.508H308.887V29.25H381.965V176.508ZM310.985 174.403H379.86V31.355H310.992L310.985 174.403Z" fill="#F5F5F5"/>
<path d="M160.197 256.884C157.657 255.692 154.802 255.345 152.051 255.895C150.57 256.14 149.027 256.596 148.023 257.691C147.02 258.785 146.824 260.757 147.981 261.711C148.726 262.218 149.625 262.447 150.521 262.357C152.675 262.357 155.061 261.95 156.787 263.248C157.769 263.992 158.422 265.22 159.594 265.585C160.182 265.716 160.798 265.655 161.349 265.41C161.9 265.165 162.357 264.749 162.653 264.223C163.209 263.14 163.332 261.886 162.997 260.715C162.856 259.904 162.529 259.137 162.044 258.473C161.559 257.808 160.927 257.265 160.197 256.884Z" fill="#EBEBEB"/>
<path d="M165.881 245.92C164.366 248.088 161.419 247.372 160.05 246.046C158.682 244.72 158.107 242.812 157.581 240.987C156.381 236.777 155.167 232.434 156.065 228.182C156.272 226.883 156.839 225.668 157.7 224.674C158.132 224.19 158.683 223.827 159.298 223.622C159.914 223.416 160.572 223.375 161.208 223.502C162.689 223.895 163.615 225.347 164.281 226.736C166.251 230.821 167.281 235.295 167.299 239.829C167.299 241.934 167.06 244.152 165.895 245.892" fill="#EBEBEB"/>
<path d="M170.041 249.024C169.264 248.007 168.746 246.815 168.533 245.552C168.32 244.288 168.419 242.993 168.821 241.776C169.65 239.343 171.136 237.186 173.115 235.545C175.367 233.544 177.989 232.001 180.833 231.006C181.931 230.566 183.111 230.367 184.292 230.423C184.882 230.457 185.454 230.635 185.959 230.941C186.464 231.246 186.887 231.671 187.19 232.177C188.004 233.721 187.225 235.595 186.383 237.089C184.909 239.793 183.219 242.374 181.331 244.807C179.823 246.758 178.09 248.681 175.781 249.565C173.473 250.449 171.073 250.344 169.852 248.744" fill="#EBEBEB"/>
<path d="M165.985 278.589C165.899 278.268 165.852 277.939 165.845 277.607C165.775 276.905 165.69 275.986 165.585 274.919C165.48 273.853 165.29 272.443 164.982 270.976C164.635 269.394 164.166 267.841 163.578 266.331C162.989 264.822 162.188 263.404 161.2 262.121C160.399 261.078 159.375 260.227 158.204 259.63C157.407 259.233 156.552 258.968 155.671 258.844C155.341 258.833 155.014 258.783 154.695 258.697C155.027 258.664 155.36 258.664 155.692 258.697C156.604 258.769 157.496 259.007 158.323 259.399C159.562 259.98 160.648 260.843 161.494 261.918C162.521 263.217 163.349 264.662 163.95 266.205C164.552 267.738 165.022 269.32 165.354 270.934C165.606 272.251 165.782 273.582 165.88 274.919C165.964 276.063 165.992 276.982 166.006 277.621C166.03 277.943 166.023 278.268 165.985 278.589Z" fill="#E0E0E0"/>
<path d="M165.796 276.52C165.779 276.368 165.779 276.215 165.796 276.064C165.796 275.72 165.796 275.292 165.796 274.759C165.796 273.629 165.796 271.952 165.74 269.959C165.634 265.911 165.291 260.326 164.617 254.179C163.943 248.032 163.038 242.503 162.217 238.539C162.021 237.543 161.831 236.644 161.642 235.866C161.453 235.087 161.319 234.399 161.179 233.852C161.039 233.305 160.954 232.919 160.87 232.582C160.826 232.436 160.8 232.285 160.793 232.133C160.858 232.27 160.91 232.414 160.947 232.561C161.053 232.891 161.172 233.305 161.326 233.817C161.481 234.329 161.67 235.031 161.867 235.81C162.063 236.588 162.288 237.486 162.498 238.476C163.614 243.646 164.455 248.871 165.017 254.13C165.719 260.29 165.999 265.897 166.027 269.959C166.027 271.987 166.027 273.629 165.95 274.766C165.95 275.292 165.894 275.727 165.873 276.071C165.867 276.223 165.841 276.374 165.796 276.52Z" fill="#E0E0E0"/>
<path d="M165.747 265.703C165.712 265.25 165.712 264.795 165.747 264.342C165.796 263.465 165.916 262.195 166.161 260.644C166.462 258.83 166.862 257.033 167.361 255.263C167.961 253.088 168.713 250.959 169.613 248.892C171.189 245.084 173.445 241.596 176.272 238.598C176.758 238.084 177.276 237.601 177.823 237.153C178.061 236.949 178.272 236.746 178.489 236.591L179.093 236.17C179.455 235.903 179.84 235.668 180.244 235.469C178.917 236.505 177.658 237.625 176.476 238.823C173.759 241.851 171.578 245.32 170.027 249.081C169.138 251.135 168.383 253.244 167.768 255.396C167.254 257.149 166.827 258.926 166.491 260.722C166.203 262.258 166.042 263.528 165.944 264.384C165.915 264.829 165.849 265.27 165.747 265.703Z" fill="#E0E0E0"/>
<path d="M370.99 279.112C370.99 279.21 291.66 279.295 193.82 279.295C95.9806 279.295 16.6367 279.21 16.6367 279.112C16.6367 279.014 95.9245 278.93 193.82 278.93C291.716 278.93 370.99 279.014 370.99 279.112Z" fill="#263238"/>
<path d="M321.374 256.203C311.172 249.523 308.583 236.739 308.695 225.19C308.695 223.26 308.457 221.239 309.341 219.527C310.225 217.815 312.365 216.608 314.133 217.373C315.6 218.012 316.238 219.66 317.115 221.022C318.249 222.839 319.874 224.299 321.802 225.232C323.058 225.842 324.609 226.193 325.816 225.498C327.479 224.537 327.619 222.236 327.563 220.32C327.451 216.751 327.341 213.182 327.233 209.613C327.066 207.7 327.215 205.772 327.675 203.908C328.237 202.077 329.528 200.351 331.366 199.796C333.204 199.242 335.506 200.238 335.941 202.105C336.033 202.897 336.073 203.694 336.06 204.491C336.058 204.889 336.175 205.279 336.394 205.611C336.614 205.943 336.928 206.203 337.295 206.357C338.081 206.567 338.839 206.006 339.4 205.431C341.358 203.445 342.656 200.919 343.87 198.414C345.083 195.909 346.248 193.334 348.016 191.187C349.785 189.04 352.226 187.3 355.033 187.075C357.84 186.851 360.815 188.479 361.58 191.152C362.344 193.825 360.822 196.618 359.138 198.87C356.634 202.169 353.668 205.089 350.332 207.543C349.678 207.916 349.162 208.489 348.858 209.178C348.473 210.469 349.728 211.711 351.013 212.097C352.472 212.539 354.037 212.349 355.559 212.489C357.082 212.63 358.731 213.247 359.341 214.651C360.183 216.587 358.576 218.678 356.977 220.067C353.761 222.838 350.097 225.042 346.143 226.586C344.74 227.133 343.231 227.624 342.108 228.642C340.986 229.659 340.326 231.399 341.056 232.732C341.786 234.066 343.582 234.451 345.069 234.136C346.557 233.82 347.876 232.992 349.279 232.431C351.918 231.371 355.37 231.469 357.131 233.708C357.673 234.475 358.026 235.358 358.163 236.287C358.299 237.216 358.215 238.164 357.917 239.054C357.315 240.829 356.36 242.464 355.11 243.861C350.984 248.983 345.579 252.925 339.442 255.291C333.303 257.557 327.584 258.273 321.374 256.196" fill="#084C3F"/>
<path d="M358.703 188.602C358.703 188.602 358.646 188.672 358.52 188.791L357.959 189.31C357.461 189.766 356.724 190.44 355.805 191.331C353.197 193.836 350.783 196.536 348.585 199.407C347.181 201.217 345.729 203.266 344.213 205.491C342.698 207.715 341.091 210.107 339.505 212.683C337.822 215.364 336.29 218.138 334.916 220.99C334.215 222.471 333.576 224.021 332.931 225.6C332.285 227.179 331.639 228.779 330.987 230.4C328.481 236.473 326.321 242.683 324.518 249.001C323.07 254.166 322.117 259.457 321.669 264.802C321.381 268.406 321.409 272.029 321.753 275.629C321.886 276.899 322.013 277.888 322.118 278.555C322.16 278.873 322.195 279.125 322.223 279.312C322.234 279.399 322.234 279.486 322.223 279.572C322.193 279.49 322.172 279.406 322.16 279.319C322.125 279.13 322.076 278.884 322.02 278.562C321.886 277.902 321.739 276.913 321.585 275.643C321.186 272.036 321.12 268.4 321.388 264.781C321.812 259.415 322.752 254.102 324.195 248.916C325.985 242.58 328.14 236.353 330.65 230.266C331.303 228.645 331.955 227.046 332.594 225.46C333.232 223.874 333.871 222.323 334.593 220.836C335.98 217.977 337.524 215.196 339.217 212.507C340.817 209.932 342.431 207.546 343.961 205.322C345.49 203.098 346.957 201.056 348.374 199.253C350.6 196.39 353.049 193.708 355.699 191.233C356.64 190.356 357.39 189.696 357.903 189.261L358.492 188.763L358.703 188.602Z" fill="#263238"/>
<path d="M334.713 220.808C334.616 220.544 334.545 220.272 334.502 219.994C334.39 219.468 334.25 218.696 334.088 217.749C333.766 215.847 333.387 213.209 333.036 210.297C332.685 207.385 332.271 204.754 331.92 202.859C331.745 201.912 331.597 201.154 331.492 200.621C331.409 200.364 331.358 200.098 331.338 199.828C331.45 200.086 331.537 200.354 331.598 200.628C331.752 201.147 331.934 201.905 332.138 202.845C332.552 204.733 332.987 207.364 333.366 210.283L334.313 217.749C334.432 218.64 334.53 219.397 334.615 220.008C334.679 220.27 334.712 220.538 334.713 220.808Z" fill="#263238"/>
<path d="M359.559 215.606C359.233 215.679 358.902 215.726 358.569 215.746C357.931 215.816 357.005 215.914 355.868 216.076C353.588 216.37 350.451 216.89 347.02 217.619C343.589 218.349 340.509 219.135 338.298 219.773C337.19 220.082 336.299 220.356 335.681 220.545C335.367 220.661 335.043 220.748 334.713 220.805C335.008 220.644 335.318 220.512 335.639 220.412C336.243 220.187 337.12 219.872 338.221 219.528C340.417 218.826 343.498 217.998 346.943 217.268C349.879 216.634 352.847 216.151 355.833 215.823C356.984 215.697 357.938 215.634 358.555 215.606C358.889 215.569 359.225 215.569 359.559 215.606Z" fill="#263238"/>
<path d="M324.51 248.434C324.441 248.343 324.382 248.244 324.335 248.14L323.886 247.255C323.5 246.491 322.966 245.368 322.335 243.972C321.058 241.165 319.423 237.264 317.676 232.921C315.929 228.577 314.336 224.655 313.122 221.841L311.691 218.508L311.305 217.603C311.251 217.499 311.211 217.388 311.186 217.273C311.186 217.273 311.263 217.372 311.368 217.568C311.473 217.765 311.635 218.101 311.817 218.452C312.203 219.217 312.729 220.34 313.368 221.736C314.638 224.543 316.28 228.444 318.027 232.787C319.774 237.13 321.367 241.053 322.581 243.866L324.026 247.199C324.18 247.564 324.307 247.901 324.412 248.104C324.461 248.209 324.494 248.32 324.51 248.434Z" fill="#263238"/>
<path d="M357.426 237.094C357.32 237.149 357.21 237.196 357.097 237.234L356.142 237.578L352.634 238.792C349.659 239.823 345.561 241.297 341.043 242.932C336.524 244.566 332.412 245.998 329.416 246.966C327.914 247.457 326.701 247.836 325.852 248.082L324.876 248.362C324.763 248.402 324.645 248.426 324.525 248.433C324.628 248.37 324.739 248.323 324.855 248.292L325.809 247.948L329.318 246.728C332.293 245.696 336.391 244.23 340.909 242.595C345.428 240.96 349.54 239.529 352.536 238.553C354.037 238.069 355.251 237.69 356.1 237.445L357.075 237.164C357.189 237.124 357.307 237.1 357.426 237.094Z" fill="#263238"/>
<path d="M40.1562 89.0194C62.0005 89.0194 79.7088 71.3111 79.7088 49.4667C79.7088 27.6224 62.0005 9.91406 40.1562 9.91406C18.3118 9.91406 0.603516 27.6224 0.603516 49.4667C0.603516 71.3111 18.3118 89.0194 40.1562 89.0194Z" fill="#FAFAFA"/>
<path d="M40.1491 89.6185C32.2084 89.6185 24.4459 87.2638 17.8435 82.8521C11.241 78.4405 6.09497 72.1701 3.05619 64.8338C0.0173974 57.4975 -0.77769 49.4249 0.771471 41.6367C2.32063 33.8485 6.14446 26.6947 11.7594 21.0797C17.3744 15.4648 24.5282 11.6409 32.3164 10.0918C40.1046 8.54262 48.1772 9.33771 55.5135 12.3765C62.8498 15.4153 69.1202 20.5613 73.5318 27.1638C77.9435 33.7663 80.2982 41.5287 80.2982 49.4694C80.2852 60.1136 76.051 70.3181 68.5244 77.8447C60.9978 85.3713 50.7933 89.6055 40.1491 89.6185ZM40.1491 10.5132C32.4426 10.5132 24.9092 12.7985 18.5015 17.0801C12.0939 21.3618 7.09989 27.4474 4.15106 34.5674C1.20223 41.6875 0.431036 49.522 1.93501 57.0804C3.43899 64.6387 7.15058 71.5813 12.6004 77.0301C18.0502 82.4789 24.9934 86.1893 32.552 87.6919C40.1106 89.1945 47.9451 88.4219 55.0646 85.4718C62.184 82.5217 68.2688 77.5265 72.5493 71.1181C76.8298 64.7097 79.1138 57.1759 79.1124 49.4694C79.1012 39.1398 74.9924 29.2365 67.6876 21.933C60.3827 14.6295 50.4787 10.5224 40.1491 10.5132Z" fill="#263238"/>
<path d="M40.5776 22.0076C40.4243 20.7508 40.3727 19.4837 40.4232 18.2187C40.3724 16.9536 40.424 15.6864 40.5776 14.4297C40.7311 15.6864 40.7827 16.9536 40.7319 18.2187C40.7824 19.4837 40.7308 20.7508 40.5776 22.0076Z" fill="#263238"/>
<path d="M20.1236 29.4764C19.2161 28.7636 18.3754 27.9698 17.6116 27.1048C16.7748 26.3104 16.0094 25.444 15.3242 24.5156C16.2317 25.2284 17.0724 26.0222 17.8362 26.8872C18.673 27.6816 19.4384 28.548 20.1236 29.4764Z" fill="#263238"/>
<path d="M14.8895 50.2981C13.3087 50.4515 11.7197 50.5031 10.1323 50.4525C8.54484 50.5031 6.95581 50.4515 5.375 50.2981C6.95581 50.1448 8.54484 50.0932 10.1323 50.1438C11.7197 50.0932 13.3087 50.1448 14.8895 50.2981Z" fill="#263238"/>
<path d="M20.0325 69.7109C19.4261 70.55 18.7527 71.3384 18.0188 72.0685C17.359 72.8715 16.6051 73.5924 15.7734 74.2156C16.3863 73.3796 17.0618 72.5915 17.7942 71.858C18.4503 71.054 19.202 70.333 20.0325 69.7109Z" fill="#263238"/>
<path d="M64.9455 73.8199C70.7165 68.0104 74.2735 60.3652 75.0003 52.2088C76.2352 37.4739 69.808 29.7556 65.0508 24.5703L60.918 28.5277C65.1279 33.0394 71.6534 42.0066 69.8852 52.6438C68.7825 59.2618 65.8182 65.4289 61.339 70.4239L64.9455 73.8199Z" fill="#084C3F"/>
<path d="M39.1885 54.5339C38.2896 54.3567 37.4635 53.9169 36.8146 53.27C36.1658 52.6232 35.7233 51.7984 35.5434 50.9001C35.3634 50.0017 35.4539 49.0702 35.8035 48.2233C36.1531 47.3764 36.746 46.6523 37.5073 46.1425C38.2685 45.6327 39.1639 45.3602 40.0801 45.3594C40.9963 45.3586 41.8921 45.6296 42.6543 46.1381C43.4164 46.6466 44.0106 47.3697 44.3616 48.216C44.7127 49.0622 44.8048 49.9936 44.6264 50.8923C44.5089 51.4887 44.275 52.056 43.938 52.562C43.601 53.0679 43.1676 53.5024 42.6625 53.8406C42.1575 54.1788 41.5906 54.4142 40.9945 54.5331C40.3984 54.6521 39.7847 54.6523 39.1885 54.5339Z" fill="#263238"/>
<path d="M56.5617 60.9251L29.7162 40.3594L27.1621 44.2536L56.5617 60.9251Z" fill="#263238"/>
<path d="M75.1336 49.1389C75.1336 49.1389 75.1336 48.9495 75.1336 48.5706C75.1336 48.1917 75.1336 47.6374 75.0564 46.9077C74.7201 41.9204 73.3185 37.0632 70.9462 32.6635C68.5738 28.2638 65.2858 24.4238 61.3039 21.4023C56.9814 18.1196 51.953 15.8901 46.6181 14.8908C43.6581 14.3401 40.6392 14.175 37.6368 14.3997C36.0664 14.5171 34.5053 14.7374 32.9637 15.0592C31.3833 15.3983 29.8269 15.8414 28.3047 16.3854C21.5843 18.8332 15.7796 23.2889 11.6779 29.1482C7.57615 35.0075 5.37607 41.9867 5.37607 49.1389C5.37607 56.2912 7.57615 63.2704 11.6779 69.1297C15.7796 74.989 21.5843 79.4447 28.3047 81.8925C29.8278 82.4356 31.384 82.8809 32.9637 83.2257C37.4643 84.1621 42.1037 84.2169 46.6251 83.387C51.9573 82.386 56.983 80.1566 61.3039 76.8756C65.2845 73.8528 68.5715 70.0125 70.9437 65.613C73.3159 61.2136 74.7183 56.357 75.0564 51.3702C75.1196 50.6686 75.1056 50.0792 75.1336 49.7073C75.1617 49.3354 75.1336 49.1389 75.1336 49.1389C75.1336 49.1389 75.1336 49.9108 75.0845 51.3702C74.9672 53.5002 74.65 55.6145 74.1373 57.6852C73.3308 60.98 72.0448 64.1384 70.3202 67.0594C68.0121 70.9222 64.9876 74.3087 61.4091 77.037C57.0653 80.3522 52.0079 82.6082 46.6391 83.6256C43.6569 84.188 40.614 84.3578 37.5877 84.1308C36.0048 84.0257 34.4314 83.8077 32.8796 83.4782C31.2864 83.141 29.718 82.6956 28.1854 82.1451C21.4028 79.6849 15.5423 75.1958 11.4006 69.2879C7.25896 63.3799 5.03711 56.3399 5.03711 49.1249C5.03711 41.9099 7.25896 34.8699 11.4006 28.962C15.5423 23.054 21.4028 18.5649 28.1854 16.1047C29.718 15.5542 31.2864 15.1088 32.8796 14.7716C34.4325 14.4485 36.0054 14.2305 37.5877 14.119C40.6143 13.8942 43.6573 14.0664 46.6391 14.6312C49.4253 15.1444 52.1361 16.0048 54.7082 17.1923C57.0874 18.2734 59.3356 19.6223 61.4091 21.2128C64.9903 23.9493 68.015 27.3456 70.3202 31.2185C72.038 34.1278 73.3238 37.2714 74.1373 40.5506C74.6496 42.6214 74.9667 44.7356 75.0845 46.8656C75.1617 48.3671 75.1336 49.1389 75.1336 49.1389Z" fill="#263238"/>
<path d="M75.1485 48.9153C73.9109 49.0729 72.662 49.1245 71.4156 49.0697C70.1669 49.1244 68.9158 49.0727 67.6758 48.9153C68.9161 48.7622 70.1669 48.7105 71.4156 48.761C72.662 48.7104 73.9105 48.762 75.1485 48.9153Z" fill="#263238"/>
<path d="M64.953 73.8183C63.9011 73.0276 62.9155 72.1522 62.006 71.2011C61.0234 70.3243 60.1087 69.3743 59.2695 68.3594C60.3214 69.1501 61.307 70.0254 62.2165 70.9766C63.201 71.8514 64.116 72.8015 64.953 73.8183Z" fill="#263238"/>
<path d="M65.0506 24.5703C65.1488 24.6615 63.9981 25.8403 62.5176 27.1945C61.6517 28.0513 60.7126 28.8308 59.7109 29.524C60.5051 28.601 61.3734 27.7445 62.3071 26.963C63.0508 26.2613 63.7104 25.6789 64.2296 25.2509C64.4909 25.0095 64.7649 24.7823 65.0506 24.5703Z" fill="#263238"/>
<path d="M58.8 62.3047C58.2111 62.9246 57.4682 63.3772 56.6473 63.6163C55.8263 63.8554 54.9567 63.8725 54.127 63.6659C54.9464 63.6168 55.7607 63.5018 56.5617 63.3221C57.3334 63.0422 58.0818 62.702 58.8 62.3047Z" fill="#263238"/>
<path d="M60.0131 63.3828C59.7812 63.689 59.4871 63.9425 59.15 64.1266C58.373 64.6244 57.5049 64.9631 56.596 65.1229C55.686 65.2801 54.7542 65.2587 53.8525 65.0598C53.4744 65.0011 53.1131 64.8624 52.793 64.6528C54.0165 64.9783 55.2962 65.0333 56.5431 64.814C57.7899 64.5946 58.9741 64.1063 60.0131 63.3828Z" fill="#263238"/>
<path d="M31.4845 37.5327C30.68 37.3784 29.8617 37.3078 29.0427 37.3222C28.2306 37.4415 27.4333 37.6461 26.6641 37.9327C27.3179 37.3676 28.1505 37.052 29.0146 37.0416C29.87 36.9125 30.7436 37.0862 31.4845 37.5327Z" fill="#263238"/>
<path d="M32.0176 36.4991C30.8604 36.292 29.6835 36.2167 28.5093 36.2745C27.3476 36.4401 26.2083 36.7367 25.1133 37.1586C26.0997 36.449 27.268 36.0352 28.4812 35.9658C29.6868 35.7991 30.9149 35.9842 32.0176 36.4991Z" fill="#263238"/>
<path d="M88.7254 276.685L89.8692 269.542L77.0779 267.438L75.2676 278.103L76.0464 278.285C79.5547 279.078 93.9107 281.836 96.3946 281.478C99.1662 281.057 88.7254 276.685 88.7254 276.685Z" fill="#084C3F"/>
<path d="M96.8008 280.852C96.8008 280.971 91.9804 280.305 86.0724 279.357C80.1644 278.41 75.3931 277.547 75.4141 277.428C75.4352 277.309 80.2346 277.975 86.1425 278.922C92.0505 279.87 96.8218 280.733 96.8008 280.852Z" fill="#263238"/>
<path d="M88.7174 278.183C88.6192 278.113 88.7666 277.748 89.1034 277.418C89.4401 277.089 89.805 276.948 89.8752 277.046C89.9453 277.145 89.7208 277.432 89.4121 277.748C89.1034 278.064 88.8157 278.26 88.7174 278.183Z" fill="#263238"/>
<path d="M89.4551 278.79C89.3498 278.727 89.4551 278.313 89.7989 277.913C90.1427 277.513 90.5005 277.288 90.5777 277.38C90.6549 277.471 90.4444 277.808 90.1427 278.187C89.841 278.565 89.5673 278.853 89.4551 278.79Z" fill="#263238"/>
<path d="M79.2803 277.994C79.2242 277.994 79.0628 277.804 78.8312 277.446C78.562 276.981 78.247 276.544 77.891 276.141C77.5413 275.756 77.0958 275.47 76.5999 275.313C76.221 275.201 75.9544 275.222 75.9474 275.152C75.9404 275.082 76.2 274.962 76.6491 275.012C77.2465 275.099 77.7948 275.392 78.1997 275.839C78.5865 276.269 78.8909 276.766 79.0979 277.306C79.2733 277.713 79.3294 277.973 79.2803 277.994Z" fill="#263238"/>
<path d="M88.9711 276.847C89.0132 276.952 88.7606 277.169 88.3677 277.24C87.9747 277.31 87.666 277.24 87.666 277.099C87.666 276.959 87.9467 276.882 88.2835 276.812C88.6203 276.741 88.922 276.727 88.9711 276.847Z" fill="#263238"/>
<path d="M88.879 276.124C88.879 276.25 88.5141 276.299 88.0791 276.236C87.6441 276.173 87.3213 276.026 87.3774 275.906C87.4336 275.787 87.7563 275.738 88.1703 275.801C88.5843 275.864 88.886 276.005 88.879 276.124Z" fill="#263238"/>
<path d="M133.974 275.141L133.708 267.914L120.748 268.307L121.036 279.12H121.843C125.428 279.218 140.086 279.12 142.422 278.299C145.061 277.401 133.974 275.141 133.974 275.141Z" fill="#084C3F"/>
<path d="M142.703 277.656C142.703 277.782 137.868 278.056 131.89 278.28C125.912 278.505 121.064 278.575 121.057 278.456C121.05 278.337 125.898 278.056 131.876 277.838C137.854 277.621 142.696 277.537 142.703 277.656Z" fill="#263238"/>
<path d="M134.255 276.608C134.143 276.559 134.22 276.173 134.487 275.787C134.753 275.401 135.083 275.184 135.188 275.268C135.293 275.352 135.118 275.675 134.872 276.033C134.627 276.391 134.367 276.664 134.255 276.608Z" fill="#263238"/>
<path d="M135.098 277.062C134.986 277.027 135.028 276.592 135.267 276.135C135.505 275.679 135.828 275.392 135.926 275.434C136.025 275.476 135.877 275.876 135.66 276.304C135.442 276.732 135.218 277.104 135.098 277.062Z" fill="#263238"/>
<path d="M124.959 278.264C124.91 278.264 124.713 278.116 124.419 277.808C124.06 277.408 123.665 277.041 123.24 276.713C122.828 276.408 122.345 276.215 121.836 276.152C121.444 276.152 121.184 276.187 121.135 276.152C121.086 276.117 121.345 275.913 121.836 275.871C122.441 275.838 123.037 276.019 123.52 276.383C123.983 276.729 124.378 277.157 124.685 277.646C124.896 277.976 125.008 278.229 124.959 278.264Z" fill="#263238"/>
<path d="M134.242 275.254C134.312 275.352 134.102 275.612 133.737 275.759C133.372 275.907 133.035 275.872 133.035 275.759C133.035 275.647 133.267 275.486 133.589 275.352C133.912 275.219 134.172 275.149 134.242 275.254Z" fill="#263238"/>
<path d="M134.017 274.561C134.017 274.68 133.688 274.799 133.253 274.82C132.818 274.841 132.467 274.764 132.467 274.638C132.467 274.512 132.811 274.399 133.232 274.378C133.653 274.357 133.996 274.441 134.017 274.561Z" fill="#263238"/>
<path d="M151.544 95.2324L150.843 92.8748C150.593 91.5144 150.21 90.1819 149.699 88.8964C149.456 88.2481 149.105 87.6455 148.66 87.1142C148.138 86.4342 147.527 85.8276 146.843 85.3109C146.142 84.8969 146.317 83.9076 147.019 83.8304C147.72 83.7532 149.608 84.8548 151.053 86.9528C152.499 89.0508 152.765 85.1004 152.891 83.662C153.018 82.2236 153.593 77.7961 154.077 77.5014C154.779 77.0594 155.382 77.733 155.228 79.1644C155.074 80.5957 154.898 84.932 155.656 84.9811C156.414 85.0302 156.94 77.6979 156.94 77.6979C156.94 77.6979 156.8 76.1051 157.684 76.1332C159.27 76.1823 158.126 83.9216 158 84.6513C157.915 85.1636 158.736 85.2407 158.806 84.6934C158.877 84.1462 159.164 77.3611 160.778 77.3962C162.02 77.3962 159.901 83.7673 160.617 85.2267C161.332 86.6862 161.732 80.2309 162.918 80.3151C163.353 80.3151 163.683 80.4203 162.918 84.076C162.153 87.7316 158.378 97.576 158.378 97.576L151.488 95.1131" fill="#FFBE9D"/>
<path d="M104.14 93.2923L115.802 94.1553C115.956 92.8082 116.188 87.5667 116.188 87.5667C116.188 87.5667 121.057 87.1107 121.408 82.2903C121.759 77.4698 121.618 66.3485 121.618 66.3485C118.949 65.0011 115.969 64.3908 112.985 64.5808C110.001 64.7708 107.122 65.7541 104.645 67.4291L103.895 67.9343L104.14 93.2923Z" fill="#FFBE9D"/>
<path d="M119.99 74.5786C119.86 74.4446 119.788 74.2644 119.791 74.0775C119.794 73.8906 119.87 73.7125 120.004 73.5822C120.138 73.452 120.319 73.3803 120.506 73.3829C120.692 73.3855 120.871 73.4623 121.001 73.5963C121.065 73.6626 121.116 73.741 121.15 73.827C121.185 73.913 121.201 74.0048 121.2 74.0973C121.199 74.1899 121.179 74.2812 121.143 74.3662C121.106 74.4512 121.053 74.5281 120.987 74.5926C120.92 74.6571 120.842 74.7079 120.756 74.7421C120.67 74.7763 120.578 74.7933 120.486 74.792C120.393 74.7907 120.302 74.7711 120.217 74.7345C120.132 74.6979 120.055 74.6449 119.99 74.5786Z" fill="#263238"/>
<path d="M121.234 73.5294C121.149 73.6065 120.7 73.2136 120.034 73.1715C119.367 73.1294 118.869 73.4381 118.799 73.3469C118.729 73.2557 118.855 73.1645 119.072 73.0171C119.368 72.8276 119.719 72.7413 120.069 72.7716C120.418 72.7946 120.75 72.93 121.016 73.1575C121.205 73.3539 121.269 73.5294 121.234 73.5294Z" fill="#263238"/>
<path d="M113.543 73.6507C113.696 73.7577 113.8 73.921 113.832 74.1045C113.864 74.2881 113.822 74.477 113.715 74.6295C113.608 74.7821 113.445 74.886 113.262 74.9182C113.078 74.9505 112.889 74.9085 112.737 74.8015C112.661 74.7483 112.596 74.6806 112.546 74.6023C112.497 74.524 112.463 74.4367 112.448 74.3454C112.432 74.2541 112.435 74.1605 112.455 74.0702C112.476 73.9799 112.514 73.8945 112.568 73.8191C112.675 73.6679 112.838 73.5652 113.021 73.5337C113.204 73.5021 113.392 73.5442 113.543 73.6507Z" fill="#263238"/>
<path d="M113.977 73.686C113.9 73.7632 113.451 73.3702 112.784 73.3281C112.118 73.286 111.62 73.5948 111.549 73.5036C111.479 73.4123 111.598 73.3211 111.823 73.1738C112.116 72.9833 112.464 72.8968 112.812 72.9282C113.162 72.9497 113.495 73.0853 113.76 73.3141C113.956 73.5316 114.019 73.6509 113.977 73.686Z" fill="#263238"/>
<path d="M116.307 79.3246C116.658 79.2144 117.026 79.1623 117.394 79.1702C117.57 79.1702 117.71 79.1281 117.731 79.0369C117.748 78.861 117.716 78.6839 117.64 78.5247C117.492 78.0756 117.352 77.6195 117.198 77.1214C116.77 75.9506 116.459 74.7401 116.271 73.5078C116.811 74.6327 117.239 75.8077 117.549 77.0161C117.689 77.4932 117.822 77.9563 117.962 78.4194C118.053 78.6421 118.07 78.888 118.012 79.1211C117.982 79.1857 117.939 79.2426 117.884 79.2876C117.829 79.3326 117.765 79.3645 117.696 79.3807C117.598 79.3937 117.499 79.3937 117.401 79.3807C117.036 79.4195 116.666 79.4005 116.307 79.3246Z" fill="#263238"/>
<path d="M114.105 79.9261C113.438 79.47 115.95 81.0558 117.304 81.0698C117.058 81.4045 116.705 81.6457 116.303 81.7541C115.902 81.8624 115.476 81.8314 115.094 81.6663C113.684 81.0488 114.105 79.9261 114.105 79.9261Z" fill="white"/>
<path d="M116.194 87.5033C113.966 87.4052 111.817 86.6482 110.02 85.3281C110.02 85.3281 111.29 88.8926 116.131 88.7522L116.194 87.5033Z" fill="#EB996E"/>
<path d="M104.001 72.8296L104.583 76.2888L106.73 76.2467L106.59 69.0407C106.59 69.0407 115.108 69.7002 116.083 66.2902C116.083 66.2902 118.588 70.0581 121.697 70.044C121.697 70.044 124.419 69.7634 121.83 65.9674C117.831 60.1296 103.587 64.8237 103.587 64.8237C103.228 65.8901 103.054 67.0104 103.075 68.1355C103.018 71.8684 104.001 72.8296 104.001 72.8296Z" fill="#263238"/>
<path d="M102.827 69.3195L121.772 65.5586C121.772 65.5586 120.425 57.9666 110.188 60.1769C100.252 62.345 102.827 69.3195 102.827 69.3195Z" fill="#084C3F"/>
<path d="M102.828 69.3162C103.095 69.267 126.025 69.8073 127.66 66.6358C128.439 65.1202 121.654 65.0781 121.654 65.0781L121.808 65.5552L102.828 69.3162Z" fill="#084C3F"/>
<path opacity="0.2" d="M102.828 69.3162C103.095 69.267 126.025 69.8073 127.66 66.6358C128.439 65.1202 121.654 65.0781 121.654 65.0781L121.808 65.5552L102.828 69.3162Z" fill="black"/>
<path d="M104.822 72.2142C104.716 72.1721 101.243 71.723 101.573 75.8208C101.903 79.9185 105.93 78.2345 105.93 78.1152C105.93 77.9959 104.822 72.2142 104.822 72.2142Z" fill="#FFBE9D"/>
<path d="M104.562 76.7769C104.562 76.7769 104.492 76.833 104.372 76.9032C104.208 76.9894 104.016 77.0071 103.839 76.9523C103.562 76.8062 103.328 76.5887 103.163 76.3223C102.998 76.0559 102.906 75.7502 102.899 75.4367C102.858 75.086 102.899 74.7306 103.018 74.3982C103.044 74.2659 103.103 74.1422 103.188 74.038C103.274 73.9339 103.384 73.8528 103.509 73.8018C103.589 73.7741 103.676 73.775 103.756 73.8045C103.835 73.8339 103.902 73.89 103.944 73.9632C104.007 74.0755 103.993 74.1597 104.014 74.1667C104.035 74.1737 104.099 74.0895 104.014 73.9211C103.983 73.8212 103.918 73.7348 103.832 73.6755C103.713 73.6017 103.569 73.5766 103.432 73.6054C103.265 73.6533 103.113 73.7428 102.991 73.8656C102.868 73.9883 102.778 74.1402 102.73 74.307C102.588 74.6777 102.535 75.0768 102.576 75.4718C102.585 75.8391 102.703 76.1954 102.914 76.4962C103.125 76.7971 103.42 77.0289 103.762 77.1628C103.875 77.1847 103.991 77.1817 104.103 77.1538C104.214 77.1259 104.318 77.0739 104.407 77.0014C104.562 76.8821 104.576 76.7839 104.562 76.7769Z" fill="#EB996E"/>
<path d="M115.998 63.5023L113.676 63.5469L113.72 65.8689L116.042 65.8244L115.998 63.5023Z" fill="#263238"/>
<path d="M115.975 62.2431L114.811 62.2656L114.833 63.4302L115.998 63.4076L115.975 62.2431Z" fill="#263238"/>
<path d="M150.689 92.2175C150.689 92.2175 147.103 115.036 144.577 115.155C141.693 115.295 132.824 102.714 132.824 102.714C127.148 93.9577 119.661 92.5403 116.932 92.3228V91.2422L103.516 90.1406C103.516 90.1406 103.516 91.2984 103.516 92.3088H97.5729C97.5729 92.3088 86.9357 91.8176 85.3359 106.11L92.9911 112.159L96.1275 123.827C97.0817 127.392 95.6223 131.939 94.0225 139.924L93.0612 139.699L92.6543 147.747C92.5981 148.126 92.542 148.512 92.4929 148.898H92.5981L89.3565 213.163L72.7832 275.407L91.4404 276.109L108.645 215.38C108.645 215.38 110.14 166.825 111.655 166.797C114.202 166.748 115.83 274.811 116.805 274.565C117.781 274.32 136.943 274.516 136.943 274.516C136.943 274.516 130.6 148.61 130.663 148.61L129.021 124.754L128.397 117.863C132.039 122.985 138.922 130.984 146.275 130.844C158.253 130.612 159.937 93.4805 159.937 93.4805L150.689 92.2175Z" fill="#455A64"/>
<path d="M110.967 166.312C111.386 165.638 111.757 164.935 112.075 164.207C112.712 162.423 113.018 160.537 112.981 158.643C112.981 156.454 112.981 154.482 112.981 152.911C112.944 152.119 112.974 151.326 113.072 150.539C113.185 151.325 113.241 152.117 113.24 152.911C113.282 154.377 113.373 156.419 113.352 158.65C113.342 159.711 113.249 160.769 113.072 161.815C112.924 162.675 112.672 163.514 112.321 164.313C112.078 164.847 111.777 165.353 111.423 165.821C111.142 166.151 111.016 166.333 110.967 166.312Z" fill="#263238"/>
<path d="M99.9579 156.117C100.026 156.33 100.06 156.553 100.056 156.777C100.091 157.205 100.133 157.815 100.154 158.587C100.262 160.607 99.8593 162.622 98.9826 164.446C98.4647 165.452 97.6962 166.307 96.7513 166.93C95.9714 167.422 95.0766 167.703 94.1552 167.744C93.5364 167.775 92.9182 167.67 92.3449 167.435C92.1303 167.36 91.9341 167.241 91.7695 167.084C92.5197 167.395 93.3301 167.535 94.1411 167.491C95.0076 167.411 95.8412 167.119 96.5689 166.642C97.4562 166.038 98.1796 165.223 98.6739 164.27C99.5177 162.496 99.9403 160.551 99.9088 158.587C99.8826 157.763 99.899 156.939 99.9579 156.117Z" fill="#263238"/>
<path d="M131.989 167.292C131.989 167.292 131.876 167.495 131.532 167.727C131.029 168.035 130.445 168.187 129.855 168.162C128.976 168.125 128.131 167.811 127.442 167.264C126.613 166.617 125.901 165.834 125.337 164.948C124.277 163.367 123.61 161.556 123.393 159.665C123.331 159.094 123.315 158.519 123.344 157.946C123.34 157.736 123.373 157.526 123.442 157.328C123.505 157.328 123.442 158.219 123.653 159.63C123.934 161.459 124.612 163.205 125.638 164.745C126.182 165.598 126.86 166.359 127.645 166.997C128.274 167.518 129.048 167.834 129.862 167.902C130.413 167.946 130.965 167.842 131.462 167.6C131.806 167.425 131.967 167.264 131.989 167.292Z" fill="#263238"/>
<path d="M92.2959 271.975C92.2959 272.08 88.1561 272.01 83.062 271.828C77.9679 271.645 73.8281 271.4 73.8281 271.308C73.8281 271.217 77.9679 271.273 83.069 271.463C88.1701 271.652 92.3029 271.877 92.2959 271.975Z" fill="#263238"/>
<path d="M136.277 269.167C136.023 269.237 135.761 269.272 135.498 269.272L133.393 269.434C131.597 269.546 129.12 269.679 126.376 269.806C123.633 269.932 121.149 270.023 119.36 270.079L117.255 270.114C116.992 270.135 116.728 270.124 116.469 270.079C116.723 270.014 116.985 269.979 117.248 269.974L119.353 269.82C121.149 269.7 123.626 269.567 126.369 269.441C129.113 269.314 131.597 269.223 133.386 269.174L135.491 269.132C135.753 269.116 136.017 269.128 136.277 269.167Z" fill="#263238"/>
<path d="M101.854 167.797C101.865 167.888 101.865 167.98 101.854 168.071V168.877C101.854 169.579 101.819 170.646 101.798 171.979C101.734 174.666 101.615 178.56 101.419 183.374C101.222 188.187 100.956 193.899 100.577 200.263C100.387 203.441 100.177 206.774 99.875 210.226C99.7277 211.952 99.5944 213.735 99.2927 215.489C98.991 217.243 98.591 219.032 98.2262 220.835C95.0266 235.184 91.4341 247.997 88.6274 257.21C87.2241 261.82 85.9611 265.503 85.077 268.05L84.0035 270.955C83.8772 271.271 83.786 271.523 83.7088 271.706C83.6855 271.795 83.65 271.88 83.6035 271.959C83.6159 271.869 83.6394 271.782 83.6737 271.699C83.7368 271.509 83.821 271.257 83.9333 270.934L84.9437 268.001C85.7857 265.447 87.0487 261.749 88.3818 257.139C91.1183 247.913 94.6968 235.086 97.8683 220.751C98.2542 218.962 98.6401 217.187 98.9348 215.433C99.2295 213.679 99.3699 211.924 99.5172 210.198C99.8049 206.746 100.022 203.413 100.219 200.242C100.612 193.927 100.921 188.166 101.138 183.36C101.356 178.553 101.517 174.68 101.636 171.972C101.685 170.639 101.727 169.6 101.756 168.87C101.756 168.534 101.77 168.267 101.798 168.071C101.812 167.978 101.83 167.887 101.854 167.797Z" fill="#263238"/>
<path d="M127.604 269.638C127.582 269.556 127.57 269.471 127.569 269.385C127.569 269.203 127.569 268.957 127.513 268.642C127.464 267.94 127.4 267.007 127.316 265.779C127.169 263.274 126.958 259.681 126.692 255.254C126.194 246.364 125.569 234.071 124.994 220.501C124.418 206.93 123.997 194.616 123.724 185.719C123.604 181.285 123.499 177.685 123.436 175.194C123.436 173.966 123.387 173.005 123.373 172.331V171.581C123.365 171.497 123.365 171.412 123.373 171.328C123.38 171.412 123.38 171.497 123.373 171.581C123.373 171.77 123.373 172.016 123.415 172.324C123.415 173.026 123.485 173.966 123.541 175.194C123.64 177.699 123.773 181.299 123.948 185.719C124.299 194.63 124.79 206.916 125.352 220.487C125.913 234.057 126.509 246.35 126.944 255.247C127.162 259.681 127.33 263.274 127.457 265.772C127.506 267 127.548 267.961 127.576 268.642C127.576 268.95 127.576 269.196 127.576 269.385C127.593 269.468 127.602 269.553 127.604 269.638Z" fill="#263238"/>
<path d="M112.195 90.8438C112.248 91.4718 112.248 92.1032 112.195 92.7312C112.176 94.3063 112.021 95.8769 111.732 97.4253L111.69 97.6569L111.479 97.5446C111.03 97.3131 110.567 97.0675 110.111 96.7938C108.16 95.6572 106.504 94.4713 105.276 93.6574C104.049 92.8435 103.298 92.3453 103.319 92.3032C104.058 92.6077 104.764 92.9887 105.424 93.4399C106.687 94.2047 108.371 95.3554 110.3 96.4781C110.756 96.7447 111.212 96.9973 111.648 97.2289L111.388 97.3482C111.683 95.8191 111.875 94.272 111.963 92.7172C111.99 92.0875 112.067 91.461 112.195 90.8438Z" fill="#263238"/>
<path d="M116.967 92.4105C116.88 93.0007 116.753 93.5844 116.588 94.1576C116.454 94.6909 116.314 95.3364 116.083 96.0451C115.964 96.4166 115.821 96.7799 115.655 97.1327C115.601 97.2553 115.513 97.36 115.402 97.4344C115.326 97.4859 115.234 97.5085 115.143 97.4982C115.051 97.4879 114.967 97.4454 114.904 97.3783C114.767 97.1901 114.661 96.9818 114.588 96.7608C113.936 95.2031 113.36 93.7928 112.967 92.7613C112.726 92.2183 112.543 91.6515 112.42 91.0703C112.745 91.5748 113.017 92.1107 113.234 92.6701C113.69 93.6805 114.3 95.0768 114.953 96.6345C115.016 96.8092 115.093 96.9782 115.184 97.1397C115.22 97.1397 115.184 97.1397 115.241 97.1397C115.292 97.0983 115.333 97.0454 115.36 96.9853C115.524 96.6453 115.67 96.2963 115.795 95.9398C116.033 95.2382 116.202 94.6277 116.363 94.0945C116.489 93.5089 116.692 92.9427 116.967 92.4105Z" fill="#263238"/>
<path d="M114.448 140.359C114.41 140.194 114.392 140.024 114.392 139.854C114.392 139.489 114.336 139.012 114.294 138.416C114.231 137.125 114.132 135.321 114.02 133.111C113.817 128.6 113.543 122.432 113.234 115.619C112.926 108.806 112.736 102.638 112.533 98.1193C112.462 95.9091 112.413 94.1128 112.371 92.8148C112.371 92.2184 112.371 91.7412 112.371 91.4114C112.361 91.2432 112.361 91.0745 112.371 90.9062C112.41 91.0695 112.431 91.2366 112.434 91.4044C112.434 91.7693 112.491 92.2464 112.526 92.8428C112.596 94.1409 112.687 95.9372 112.806 98.1474C113.01 102.659 113.283 108.827 113.585 115.64C113.887 122.453 114.09 128.628 114.287 133.139C114.357 135.349 114.413 137.153 114.455 138.444C114.455 139.04 114.455 139.524 114.455 139.889C114.47 140.046 114.468 140.203 114.448 140.359Z" fill="#263238"/>
<path d="M123 105.383L116.553 105.508L116.579 106.841L123.026 106.716L123 105.383Z" fill="white"/>
<path d="M129.128 127.167C129.022 127.167 128.615 122.297 128.215 116.27C127.815 110.243 127.57 105.366 127.668 105.359C127.766 105.352 128.173 110.229 128.58 116.249C128.987 122.269 129.261 127.16 129.128 127.167Z" fill="#263238"/>
<path d="M159.726 98.1493C158.092 97.9616 156.473 97.6543 154.884 97.2301C153.27 96.9194 151.68 96.4926 150.127 95.9531C151.761 96.1409 153.379 96.4481 154.968 96.8723C156.584 97.1791 158.174 97.606 159.726 98.1493Z" fill="#263238"/>
<path d="M152.085 93.8361C152.216 93.8333 152.344 93.8694 152.455 93.9399C152.565 94.0104 152.651 94.112 152.704 94.2318C152.756 94.3516 152.771 94.4843 152.748 94.6129C152.725 94.7416 152.664 94.8604 152.573 94.9543C152.482 95.0483 152.365 95.113 152.237 95.1404C152.11 95.1678 151.976 95.1566 151.855 95.1082C151.734 95.0598 151.629 94.9764 151.555 94.8686C151.481 94.7608 151.441 94.6334 151.44 94.5027C151.438 94.4164 151.453 94.3306 151.485 94.2503C151.516 94.1699 151.563 94.0966 151.623 94.0346C151.683 93.9726 151.755 93.9232 151.834 93.8891C151.914 93.855 151.999 93.837 152.085 93.8361Z" fill="#263238"/>
<path d="M122.931 102.409L120.609 102.453L120.654 104.775L122.976 104.731L122.931 102.409Z" fill="#084C3F"/>
<path d="M122.901 101.141L121.736 101.164L121.759 102.329L122.923 102.306L122.901 101.141Z" fill="#084C3F"/>
<path d="M157.698 114.308L156.743 151.776L97.9512 151.475L98.1406 113.508L157.698 114.308Z" fill="#084C3F"/>
<path d="M122.777 151.562C122.679 151.562 122.777 143.191 123.072 132.877C123.366 122.562 123.647 114.227 123.724 114.227C123.801 114.227 123.724 122.59 123.437 132.912C123.149 143.233 122.875 151.562 122.777 151.562Z" fill="#263238"/>
<path d="M97.9512 151.478C98.013 151.338 98.0907 151.206 98.1827 151.085L98.8844 149.983L101.628 145.991L110.792 132.884C114.377 127.769 117.605 123.131 119.913 119.749C121.071 118.058 122.018 116.682 122.622 115.728L123.323 114.627C123.415 114.481 123.524 114.347 123.646 114.227C123.596 114.372 123.525 114.509 123.436 114.634L122.776 115.777C122.18 116.753 121.288 118.156 120.166 119.861C117.913 123.285 114.714 127.951 111.135 133.066C107.557 138.181 104.266 142.784 101.88 146.11L99.0738 150.039C98.7511 150.474 98.4844 150.825 98.288 151.099C98.1935 151.24 98.0801 151.367 97.9512 151.478Z" fill="#263238"/>
<path d="M122.194 151.857C122.11 151.913 116.693 143.472 110.104 133.003C103.516 122.535 98.2322 114.002 98.3234 113.953C98.4146 113.904 103.817 122.338 110.413 132.807C117.009 143.276 122.278 151.808 122.194 151.857Z" fill="#263238"/>
<path d="M129.625 146.326L139.062 146.609L139.121 144.673L129.683 144.39L129.625 146.326Z" fill="#263238"/>
<path d="M129.387 143.866C130.918 143.682 132.462 143.624 134.004 143.691C135.545 143.628 137.089 143.691 138.621 143.881C137.088 144.056 135.545 144.115 134.004 144.056C132.462 144.111 130.919 144.047 129.387 143.866Z" fill="#263238"/>
<path d="M145.805 114.011L145.44 128.479L143.419 126.844L140.76 128.36L141.132 113.898L145.805 114.011Z" fill="#263238"/>
<path d="M96.9828 110.193C96.9828 110.193 94.1341 130.078 95.4813 131.243C102.947 137.522 113.325 140.813 117.036 141.852C117.577 141.718 118.215 141.55 118.938 141.318C119.569 141.118 120.16 140.809 120.685 140.406C121.36 139.935 121.967 139.373 122.488 138.736C122.569 138.605 122.688 138.501 122.829 138.438C122.97 138.375 123.127 138.357 123.279 138.385C123.431 138.413 123.571 138.486 123.68 138.595C123.789 138.704 123.863 138.844 123.892 138.996C123.927 139.698 122.825 141.452 120.755 142.736C120.755 142.736 125.512 150.391 127.028 151.079C128.544 151.766 132.887 153.724 132.15 154.103C131.413 154.482 126.137 152.938 126.137 152.938L115.43 150.075C115.43 150.075 80.0026 144.525 82.3672 128.275C83.8126 118.318 85.3914 109.33 85.9597 107.07L96.9828 110.193Z" fill="#FFBE9D"/>
<path d="M85.3491 106.117L82.1706 127.813C81.469 134.499 85.9105 139.797 91.9307 142.786C101.094 147.326 114.7 150.56 114.587 150.539C114.475 150.518 115.507 140.892 115.507 140.892C115.507 140.892 96.4354 132.633 95.86 129.083C95.2847 125.532 98.2808 110.692 98.2808 110.692L85.3491 106.117Z" fill="#455A64"/>
<path d="M114.588 150.537C114.579 150.481 114.579 150.424 114.588 150.368C114.588 150.235 114.588 150.067 114.588 149.863C114.623 149.393 114.672 148.748 114.736 147.934C114.883 146.229 115.093 143.815 115.353 140.847L115.43 140.973L105.831 136.328L103.025 134.974C102.092 134.476 101.158 133.935 100.218 133.339C99.2747 132.735 98.3701 132.071 97.5098 131.353C97.0747 130.988 96.6467 130.61 96.2327 130.203C96.0065 130.005 95.8186 129.767 95.6784 129.501C95.6085 129.363 95.5566 129.217 95.5241 129.066C95.4806 128.919 95.4478 128.769 95.4258 128.617C95.1171 126.252 95.7556 124.007 96.0784 121.874C96.4012 119.741 96.78 117.664 97.1519 115.685C97.8536 111.749 98.457 108.206 98.9833 105.216C99.2656 103.891 99.4277 102.543 99.4674 101.189C99.4773 100.169 99.2667 99.1589 98.8499 98.2279C98.5801 97.6429 98.1988 97.1162 97.7273 96.6772C97.3975 96.3755 97.194 96.2632 97.201 96.2422C97.4091 96.3419 97.6026 96.4694 97.7764 96.6211C98.2804 97.0456 98.6893 97.5716 98.9762 98.1647C99.432 99.1056 99.6717 100.136 99.6779 101.182C99.6616 102.551 99.5159 103.916 99.2429 105.259C98.7447 108.255 98.1483 111.805 97.4887 115.748L96.4362 121.944C96.345 122.477 96.2538 123.025 96.1556 123.572C96.0573 124.119 95.9591 124.652 95.8819 125.207C95.6996 126.316 95.6713 127.444 95.7977 128.561C95.815 128.698 95.8431 128.834 95.8819 128.968C95.9115 129.099 95.9563 129.226 96.0152 129.347C96.1313 129.586 96.2962 129.799 96.4994 129.971C96.8993 130.371 97.3203 130.743 97.7483 131.108C98.5976 131.812 99.4879 132.466 100.415 133.065C101.327 133.662 102.253 134.202 103.172 134.693L105.937 136.054L115.486 140.77L115.571 140.812V140.889C115.262 143.857 115.009 146.271 114.869 147.969C114.778 148.783 114.708 149.421 114.658 149.891C114.658 150.095 114.609 150.256 114.588 150.389C114.567 150.523 114.595 150.544 114.588 150.537Z" fill="#263238"/>
<path d="M112.82 139.531C112.846 140.028 112.808 140.525 112.708 141.012C112.589 141.924 112.399 143.173 112.147 144.52C111.894 145.867 111.606 147.13 111.368 148.028C111.27 148.514 111.112 148.985 110.898 149.432C110.799 149.432 111.277 147.2 111.789 144.464C112.033 142.8 112.377 141.153 112.82 139.531Z" fill="#263238"/>
<path d="M114.589 150.538C114.477 150.537 114.366 150.521 114.259 150.488L113.312 150.257L109.86 149.359C106.962 148.573 102.92 147.549 98.6331 145.956C96.5963 145.213 94.6129 144.332 92.697 143.317C91.1373 142.478 89.6452 141.519 88.2344 140.448C87.2885 139.719 86.3951 138.924 85.5611 138.069C85.2734 137.767 85.0489 137.522 84.9086 137.367C84.8277 137.287 84.7592 137.194 84.7051 137.094C84.7051 137.094 85.0489 137.41 85.6664 137.985C86.5289 138.796 87.4404 139.552 88.3958 140.251C89.8087 141.301 91.3007 142.239 92.8584 143.058C94.7662 144.052 96.7374 144.919 98.7594 145.654C103.054 147.233 107.081 148.299 109.986 149.162L113.403 150.18L114.329 150.467C114.417 150.484 114.504 150.508 114.589 150.538Z" fill="#263238"/>
<path d="M114.828 141.853C114.83 141.935 114.815 142.015 114.786 142.091C114.757 142.166 114.713 142.236 114.657 142.294C114.601 142.353 114.534 142.4 114.46 142.433C114.385 142.465 114.305 142.483 114.224 142.485C114.062 142.485 113.906 142.422 113.79 142.31C113.673 142.197 113.605 142.043 113.6 141.882C113.598 141.8 113.612 141.72 113.641 141.644C113.671 141.568 113.715 141.499 113.771 141.441C113.827 141.382 113.894 141.335 113.968 141.302C114.042 141.27 114.122 141.252 114.203 141.25C114.365 141.25 114.521 141.313 114.638 141.425C114.754 141.538 114.822 141.691 114.828 141.853Z" fill="#263238"/>
<path d="M280.174 39.9219H202.738V279.111H280.174V39.9219Z" fill="#E0E0E0"/>
<path d="M253.545 41.7578V268.423L290.593 279.123L290.712 41.7578H253.545Z" fill="#455A64"/>
<path d="M258.113 151.644C258.183 153.419 257.502 154.886 256.59 154.928C255.678 154.97 254.878 153.525 254.808 151.777C254.738 150.03 255.418 148.536 256.33 148.501C257.242 148.466 258.042 149.869 258.113 151.644Z" fill="white"/>
<path d="M256.4 150.328L263.698 151.303C263.887 151.328 264.061 151.419 264.19 151.561C264.318 151.702 264.393 151.884 264.399 152.075C264.404 152.196 264.382 152.316 264.335 152.427C264.287 152.538 264.215 152.637 264.124 152.716C264.033 152.796 263.926 152.854 263.809 152.886C263.693 152.918 263.571 152.924 263.452 152.903L256.435 151.717L256.4 150.328Z" fill="white"/>
<path d="M193.693 31.4688V39.2923V41.7551V279.12H205.853V41.7551H277.212V279.12H290.593V41.7551V39.2923V31.4688H193.693Z" fill="#263238"/>
<path d="M205.854 41.7578H199.777V279.116H205.854V41.7578Z" fill="#263238"/>
<path opacity="0.5" d="M205.854 41.7578H199.777V279.116H205.854V41.7578Z" fill="black"/>
<path d="M290.711 31.4688H284.635V279.12H290.711V31.4688Z" fill="#263238"/>
<path opacity="0.5" d="M290.711 31.4688H284.635V279.12H290.711V31.4688Z" fill="black"/>
<path d="M250.479 17.0156H230.51V21.4712H250.479V17.0156Z" fill="#455A64"/>
<path d="M242.795 79C242.91 81.1593 243.715 83.2246 245.092 84.8919C246.469 86.5593 248.345 87.7406 250.443 88.2619C252.611 88.7882 255.109 88.5426 256.828 89.995C259.775 92.5 258.049 97.7133 260.042 101.032C261.263 103.095 263.69 104.105 265.066 106.063C267.353 109.312 265.816 114.23 262.701 116.651C259.586 119.072 255.425 119.535 251.524 119.458C242.928 119.233 234.122 116.504 227.913 110.413C224.994 107.551 215.528 96.6678 219.83 80.9857" fill="#263238"/>
<path d="M211.754 102.07C211.754 102.07 196.717 115.142 196.317 113.549C194.212 104.898 194.802 93.8467 195.146 89.6157C195.377 89.2579 195.651 88.8579 195.974 88.4159C196.34 87.9038 196.794 87.4598 197.314 87.1038C197.942 86.6299 198.631 86.2428 199.363 85.953C199.516 85.9347 199.658 85.8666 199.769 85.759C199.879 85.6515 199.951 85.5106 199.974 85.3581C199.996 85.2056 199.967 85.05 199.892 84.9153C199.818 84.7806 199.7 84.6743 199.559 84.6129C198.956 84.3883 197.033 84.8865 195.251 86.374C193.469 87.8616 194.198 84.3252 194.437 83.0341C194.675 81.7431 195.237 77.7015 194.893 77.3226C194.395 76.7613 193.693 77.2103 193.49 78.5084C193.286 79.8065 192.367 83.6586 191.686 83.5183C191.006 83.3779 192.339 76.7964 192.339 76.7964C192.339 76.7964 192.844 75.4281 192.065 75.2387C190.662 74.8949 189.778 81.9816 189.708 82.6552C189.659 83.1253 188.915 82.999 189.006 82.4938C189.097 81.9887 190.473 75.9614 189.048 75.5965C187.954 75.3158 188.262 81.4133 187.28 82.5219C186.298 83.6305 187.519 77.8629 186.459 77.6103C186.066 77.5261 185.757 77.5191 185.54 80.9221C185.488 83.6619 185.586 86.4026 185.835 89.1316C184.901 98.4637 183.07 127.056 195.988 126.074C211.228 124.909 214.736 112.897 214.736 112.897L211.754 102.07Z" fill="#B78876"/>
<path d="M223.765 97.8168C223.983 96.6099 223.597 91.5439 223.597 91.5439C223.597 91.5439 219.099 90.9756 218.91 86.3937C218.72 81.8119 219.17 71.2448 219.17 71.2448L227.442 67.2734L236.339 74.4444L234.796 97.7396L223.765 97.8168Z" fill="#B78876"/>
<path d="M219.936 78.966C219.936 79.0795 219.969 79.1904 220.032 79.2849C220.095 79.3794 220.184 79.4531 220.289 79.4969C220.394 79.5406 220.509 79.5524 220.621 79.5308C220.732 79.5091 220.835 79.455 220.915 79.3752C220.996 79.2955 221.051 79.1936 221.074 79.0825C221.097 78.9713 221.087 78.8559 221.044 78.7506C221.002 78.6454 220.929 78.555 220.836 78.491C220.742 78.4269 220.631 78.392 220.518 78.3906C220.365 78.3906 220.218 78.451 220.109 78.5587C220 78.6664 219.937 78.8128 219.936 78.966Z" fill="#263238"/>
<path d="M219.395 78.3144C219.465 78.3916 219.893 78.0337 220.51 78.0127C221.128 77.9916 221.584 78.3003 221.647 78.2161C221.71 78.1319 221.605 78.0337 221.401 77.8934C221.136 77.7047 220.815 77.6108 220.489 77.6267C220.165 77.6433 219.855 77.7639 219.605 77.9706C219.416 78.1319 219.36 78.2793 219.395 78.3144Z" fill="#263238"/>
<path d="M226.553 79.0754C226.553 79.1889 226.586 79.2998 226.649 79.3943C226.712 79.4887 226.802 79.5625 226.906 79.6062C227.011 79.65 227.126 79.6618 227.238 79.6401C227.349 79.6185 227.452 79.5644 227.532 79.4846C227.613 79.4049 227.669 79.303 227.692 79.1919C227.715 79.0807 227.704 78.9653 227.662 78.86C227.619 78.7548 227.547 78.6644 227.453 78.6004C227.359 78.5363 227.249 78.5014 227.135 78.5C226.982 78.5 226.835 78.5604 226.726 78.6681C226.617 78.7758 226.555 78.9221 226.553 79.0754Z" fill="#263238"/>
<path d="M226.208 78.4397C226.286 78.5169 226.714 78.159 227.331 78.131C227.949 78.1029 228.398 78.4257 228.468 78.3415C228.538 78.2573 228.426 78.159 228.222 78.0117C227.955 77.8278 227.634 77.7364 227.31 77.7516C226.986 77.7668 226.675 77.8877 226.426 78.0959C226.237 78.2502 226.173 78.3976 226.208 78.4397Z" fill="#263238"/>
<path d="M223.899 83.7268C223.574 83.625 223.236 83.573 222.896 83.5724C222.741 83.5724 222.587 83.5303 222.559 83.4181C222.547 83.244 222.581 83.0699 222.657 82.9129L223.099 81.6148C223.515 80.5091 223.848 79.374 224.095 78.2188C223.601 79.2883 223.186 80.3929 222.853 81.5236C222.706 81.9867 222.559 82.4147 222.425 82.8357C222.33 83.0418 222.305 83.2737 222.355 83.4952C222.376 83.5531 222.41 83.605 222.456 83.6466C222.501 83.6881 222.555 83.7181 222.615 83.7338C222.703 83.7463 222.793 83.7463 222.881 83.7338C223.219 83.7761 223.562 83.7737 223.899 83.7268Z" fill="#263238"/>
<path d="M225.921 84.3643C226.552 83.9503 224.181 85.3817 222.932 85.3606C223.145 85.6837 223.463 85.9232 223.833 86.0383C224.202 86.1534 224.601 86.1371 224.959 85.9921C225.13 85.9488 225.29 85.8722 225.43 85.7668C225.571 85.6614 225.689 85.5293 225.779 85.378C225.868 85.2268 225.926 85.0593 225.951 84.8853C225.975 84.7114 225.965 84.5343 225.921 84.3643Z" fill="white"/>
<path d="M223.598 91.5444C225.729 91.4866 227.796 90.8087 229.548 89.5938C229.548 89.5938 228.144 92.9407 223.675 92.667L223.598 91.5444Z" fill="#A36957"/>
<path d="M242.795 79.067C242.752 78.7442 242.703 78.2531 242.654 77.7409C242.584 77.0392 242.507 76.2814 242.416 75.8745C240.142 66.2827 231.989 64.3602 230.375 64.3321C228.635 64.297 225.618 63.2656 221.106 67.9106C219.823 69.1426 218.933 70.7264 218.547 72.4629C218.161 74.1995 218.297 76.0113 218.938 77.6707L219.696 76.969L226.256 75.3552C225.765 73.5379 226.565 71.3066 227.014 70.2682L227.056 70.2261C228.242 77.1094 235.588 77.9444 235.588 77.9444L234.887 96.1876C242.121 94.7281 242.696 82.9963 242.682 79.0249L242.795 79.067Z" fill="#263238"/>
<path d="M245.637 160.953C245.637 160.862 245.637 160.77 245.637 160.714C245.637 160.658 245.651 160.827 245.637 160.953Z" fill="#B78876"/>
<path d="M254.156 272.186C254.156 272.186 237.218 215.092 236.895 213.247C236.6 211.598 244.445 171.54 245.581 161.148L221.767 161.373C221.767 161.373 221.767 161.436 221.767 161.548L210.26 161.864L216.02 275.954L228.65 276.284L228.461 238.78C234.706 257.094 242.606 277.786 242.606 277.786L254.156 272.186Z" fill="#B78876"/>
<path d="M220.89 210.695C220.926 210.695 220.89 211.144 220.813 211.944C220.758 213.072 220.779 214.202 220.876 215.326C221.023 216.995 221.304 218.65 221.718 220.273C222.267 222.255 222.942 224.201 223.739 226.097C225.304 230.194 226.707 233.906 227.704 236.622L228.896 239.821C229.053 240.209 229.179 240.607 229.275 241.014C229.079 240.645 228.907 240.263 228.763 239.87L227.493 236.713C226.434 234.04 224.995 230.335 223.423 226.237C223.038 225.213 222.659 224.209 222.287 223.241C221.945 222.302 221.657 221.343 221.424 220.371C221.018 218.727 220.757 217.051 220.645 215.361C220.572 214.223 220.591 213.08 220.701 211.944C220.743 211.544 220.792 211.243 220.834 211.025C220.835 210.913 220.854 210.801 220.89 210.695Z" fill="#A36957"/>
<path d="M228.523 252.406C228.523 252.062 228.747 239.691 228.747 239.691C228.747 239.691 224.594 228.226 224.488 228.57C224.383 228.914 228.523 252.406 228.523 252.406Z" fill="#A36957"/>
<path d="M243.042 277.59L254.184 272.188L255.468 274.58L251.532 276.804C248.845 278.271 239.709 283.056 237.548 283.442C235.141 283.877 243.042 277.59 243.042 277.59Z" fill="#084C3F"/>
<path d="M237.049 283.123C236.993 283.039 241.063 281.018 246.136 278.625C251.209 276.233 255.356 274.359 255.405 274.415C255.454 274.471 251.391 276.52 246.318 278.906C241.245 281.292 237.099 283.207 237.049 283.123Z" fill="#263238"/>
<path d="M252.57 275.868C252.514 275.868 252.493 275.657 252.514 275.32C252.542 274.872 252.664 274.435 252.872 274.036C253.104 273.6 253.478 273.256 253.931 273.061C254.303 272.914 254.563 272.949 254.563 272.984C254.563 273.019 254.352 273.096 254.072 273.272C253.718 273.501 253.426 273.815 253.223 274.184C253.04 274.562 252.895 274.957 252.788 275.363C252.696 275.678 252.619 275.875 252.57 275.868Z" fill="#263238"/>
<path d="M242.438 278.102C242.438 278.2 242.781 278.333 243.223 278.48C243.665 278.628 244.037 278.726 244.1 278.642C244.164 278.558 243.848 278.291 243.364 278.13C242.88 277.968 242.452 277.996 242.438 278.102Z" fill="#263238"/>
<path d="M241.672 278.702C241.672 278.807 241.967 278.997 242.374 279.13C242.781 279.263 243.187 279.305 243.237 279.207C243.286 279.109 242.956 278.927 242.535 278.786C242.114 278.646 241.7 278.604 241.672 278.702Z" fill="#263238"/>
<path d="M241.042 279.257C241 279.348 241.238 279.524 241.547 279.685C241.856 279.846 242.158 279.938 242.249 279.86C242.34 279.783 242.115 279.545 241.779 279.369C241.442 279.194 241.091 279.159 241.042 279.257Z" fill="#263238"/>
<path d="M242.487 278.197C242.548 277.803 242.507 277.399 242.368 277.025C242.257 276.594 242.062 276.188 241.793 275.833C241.62 275.611 241.417 275.415 241.189 275.25C241.057 275.155 240.913 275.077 240.761 275.019C240.565 274.942 240.347 274.942 240.151 275.019C240.068 275.061 239.996 275.121 239.94 275.194C239.883 275.268 239.844 275.353 239.824 275.443C239.804 275.533 239.804 275.627 239.824 275.717C239.844 275.808 239.884 275.893 239.94 275.966C240.094 276.192 240.267 276.403 240.459 276.597C240.779 276.922 241.127 277.218 241.498 277.482C241.826 277.758 242.202 277.972 242.607 278.113C242.649 278.071 242.263 277.783 241.694 277.292C241.363 277.007 241.049 276.702 240.754 276.38C240.588 276.201 240.438 276.009 240.305 275.805C240.179 275.622 240.214 275.398 240.34 275.349C240.466 275.299 240.726 275.349 240.937 275.524C241.139 275.662 241.321 275.827 241.477 276.015C241.739 276.336 241.946 276.699 242.087 277.089C242.186 277.47 242.32 277.841 242.487 278.197Z" fill="#263238"/>
<path d="M242.487 277.98C242.174 277.67 241.798 277.431 241.385 277.279C240.936 277.081 240.465 276.937 239.982 276.851C239.692 276.799 239.399 276.773 239.105 276.773C238.937 276.775 238.77 276.796 238.607 276.837C238.504 276.859 238.408 276.905 238.326 276.97C238.276 277.009 238.237 277.059 238.211 277.116C238.186 277.174 238.174 277.237 238.179 277.3C238.23 277.47 238.32 277.625 238.442 277.754C238.563 277.883 238.714 277.982 238.88 278.043C239.151 278.176 239.439 278.268 239.736 278.317C240.222 278.385 240.714 278.4 241.203 278.359C242.052 278.31 242.515 278.015 242.473 277.98C242.047 278.043 241.619 278.083 241.189 278.1C240.718 278.103 240.249 278.063 239.785 277.98C239.541 277.931 239.305 277.848 239.084 277.735C238.873 277.622 238.635 277.412 238.621 277.279C238.607 277.145 238.88 277.124 239.147 277.138C239.414 277.127 239.682 277.141 239.947 277.18C240.4 277.253 240.847 277.365 241.28 277.517C241.67 277.702 242.073 277.857 242.487 277.98Z" fill="#263238"/>
<path d="M243.259 277.471C243.322 277.576 245.912 276.586 248.922 275.106C251.932 273.625 254.254 272.299 254.177 272.187C254.1 272.075 251.644 273.261 248.641 274.734C245.638 276.208 243.189 277.365 243.259 277.471Z" fill="#263238"/>
<path d="M217.465 275.828L228.642 275.912L228.453 279.147H227.751C224.509 279.147 211.255 278.908 209.129 278.228C206.729 277.484 217.465 275.828 217.465 275.828Z" fill="#084C3F"/>
<path d="M208.855 277.712C208.855 277.621 213.255 277.789 218.679 278.091C224.103 278.393 228.467 278.723 228.46 278.793C228.453 278.863 224.068 278.723 218.637 278.421C213.206 278.119 208.848 277.825 208.855 277.712Z" fill="#263238"/>
<path d="M224.909 278.592C224.867 278.556 224.973 278.374 225.197 278.1C225.502 277.727 225.873 277.413 226.292 277.174C226.756 276.917 227.285 276.802 227.814 276.844C228.221 276.894 228.432 277.041 228.411 277.076C228.39 277.111 228.158 277.076 227.8 277.076C227.347 277.104 226.906 277.234 226.509 277.455C226.119 277.682 225.752 277.948 225.415 278.248C225.141 278.486 224.952 278.62 224.909 278.592Z" fill="#263238"/>
<path d="M216.624 275.985C216.547 276.063 216.785 276.35 217.087 276.687C217.389 277.024 217.648 277.283 217.754 277.234C217.859 277.185 217.754 276.82 217.417 276.463C217.08 276.105 216.701 275.908 216.624 275.985Z" fill="#263238"/>
<path d="M215.565 276.138C215.48 276.209 215.649 276.524 215.944 276.84C216.238 277.156 216.554 277.366 216.645 277.31C216.736 277.254 216.575 276.938 216.266 276.609C215.958 276.279 215.677 276.068 215.565 276.138Z" fill="#263238"/>
<path d="M214.709 276.307C214.61 276.363 214.709 276.623 214.891 276.903C215.074 277.184 215.263 277.402 215.375 277.367C215.488 277.331 215.452 277.037 215.263 276.735C215.074 276.433 214.8 276.251 214.709 276.307Z" fill="#263238"/>
<path d="M216.616 276.09C216.895 275.793 217.102 275.435 217.219 275.044C217.382 274.636 217.456 274.199 217.437 273.76C217.425 273.492 217.365 273.228 217.261 272.981C217.204 272.839 217.126 272.707 217.03 272.588C216.892 272.429 216.699 272.329 216.489 272.308C216.392 272.299 216.294 272.31 216.202 272.342C216.109 272.373 216.024 272.423 215.952 272.489C215.88 272.555 215.823 272.636 215.783 272.725C215.744 272.815 215.724 272.911 215.725 273.009C215.724 273.268 215.749 273.527 215.802 273.781C215.881 274.204 216.003 274.618 216.167 275.016C216.285 275.407 216.489 275.766 216.763 276.068C216.706 275.683 216.603 275.306 216.454 274.946C216.336 274.548 216.247 274.142 216.188 273.732C216.153 273.5 216.138 273.265 216.146 273.03C216.146 272.82 216.307 272.651 216.454 272.665C216.602 272.679 216.777 272.862 216.868 273.093C216.967 273.315 217.026 273.553 217.044 273.795C217.077 274.196 217.039 274.6 216.932 274.988C216.788 275.343 216.682 275.712 216.616 276.09Z" fill="#263238"/>
<path d="M216.749 275.906C216.655 275.502 216.465 275.127 216.195 274.811C215.924 274.433 215.603 274.093 215.241 273.801C215.023 273.619 214.788 273.46 214.539 273.324C214.391 273.244 214.233 273.183 214.069 273.141C213.96 273.12 213.848 273.12 213.739 273.141C213.672 273.15 213.608 273.174 213.551 273.21C213.494 273.246 213.446 273.295 213.409 273.352C213.349 273.507 213.33 273.676 213.354 273.841C213.379 274.006 213.446 274.161 213.55 274.292C213.702 274.537 213.9 274.752 214.132 274.924C214.525 275.205 214.949 275.44 215.395 275.625C215.802 275.862 216.276 275.956 216.742 275.892C216.332 275.753 215.931 275.587 215.543 275.394C215.138 275.183 214.755 274.934 214.399 274.65C214.21 274.493 214.047 274.309 213.915 274.103C213.853 274.016 213.81 273.918 213.788 273.814C213.766 273.71 213.766 273.603 213.788 273.499C213.788 273.436 214.104 273.499 214.329 273.625C214.578 273.736 214.813 273.875 215.03 274.039C215.385 274.305 215.709 274.609 215.999 274.945C216.434 275.534 216.686 275.927 216.749 275.906Z" fill="#263238"/>
<path d="M217.725 275.829C219.499 276.114 221.296 276.234 223.092 276.187C224.886 276.267 226.683 276.204 228.467 275.997C226.683 275.834 224.891 275.773 223.099 275.815C220.138 275.787 217.732 275.731 217.725 275.829Z" fill="#263238"/>
<path d="M251.65 121.768C251.65 121.768 252.106 120.056 250.808 109.566C250.246 104.998 247.138 102.164 243.791 100.445V100.388L243.503 100.304C240.758 98.9776 237.81 98.1191 234.782 97.7643L223.001 97.5748C223.001 97.5748 214.377 96.5013 208.883 102.486C203.389 108.472 199.643 111.987 199.643 111.987L208.42 122.512L210.771 120.189C210.771 120.189 210.525 125.038 212.125 127.866L215.921 134.545L213.458 146.312C211.901 150.796 206.764 167.194 208.778 183.437C211.269 203.554 211.669 209.434 211.669 209.434L240.114 213.321C240.114 213.321 251.481 170.73 247.587 153.813C244.914 142.186 242.872 142.727 242.212 140.208L242.928 122.112L251.65 121.768Z" fill="#084C3F"/>
<path d="M213.025 116.273C212.797 117.025 212.451 117.735 212 118.378C211.66 119.079 211.207 119.719 210.66 120.273C210.892 119.523 211.237 118.813 211.685 118.168C212.028 117.469 212.48 116.83 213.025 116.273Z" fill="#263238"/>
<path d="M238.522 138.273C238.226 138.359 237.923 138.417 237.617 138.448C237.027 138.546 236.171 138.659 235.119 138.764C232.361 139.043 229.589 139.158 226.818 139.108C224.046 139.055 221.279 138.842 218.532 138.469C217.479 138.322 216.63 138.181 216.048 138.069C215.739 138.028 215.436 137.955 215.143 137.852C215.453 137.85 215.763 137.876 216.069 137.929L218.56 138.217C220.665 138.441 223.591 138.68 226.825 138.743C230.06 138.806 232.979 138.659 235.091 138.504L237.596 138.308C237.902 138.26 238.213 138.249 238.522 138.273Z" fill="#263238"/>
<path d="M248.107 170.148C248.091 170.336 248.056 170.522 248.002 170.703C247.903 171.103 247.777 171.636 247.616 172.303C247.525 172.646 247.433 173.004 247.328 173.446C247.223 173.888 247.047 174.309 246.893 174.793C246.57 175.748 246.255 176.863 245.742 178.028L244.985 179.88C244.718 180.519 244.374 181.157 244.051 181.838C243.427 183.199 242.599 184.575 241.764 186.048C237.967 192.321 232.958 197.774 227.029 202.088C225.626 203.042 224.342 203.983 223.03 204.712C222.384 205.091 221.774 205.484 221.156 205.807L219.374 206.712C218.258 207.322 217.171 207.722 216.244 208.115C215.781 208.312 215.346 208.501 214.946 208.656L213.824 209.035L212.266 209.554C212.088 209.621 211.905 209.672 211.719 209.708C211.886 209.615 212.062 209.54 212.245 209.484L213.775 208.901L214.883 208.494C215.283 208.333 215.704 208.129 216.167 207.926C217.079 207.505 218.153 207.091 219.262 206.466L221.023 205.54C221.633 205.217 222.237 204.839 222.875 204.439C224.173 203.702 225.457 202.755 226.833 201.8C232.712 197.49 237.695 192.075 241.504 185.859C242.346 184.413 243.181 183.052 243.806 181.698C244.136 180.996 244.507 180.4 244.753 179.761C244.999 179.123 245.286 178.512 245.532 177.93C246.058 176.772 246.388 175.678 246.732 174.73C246.893 174.253 247.061 173.811 247.188 173.397C247.314 172.983 247.412 172.604 247.503 172.26L247.96 170.689C247.997 170.506 248.046 170.325 248.107 170.148Z" fill="#263238"/>
<path d="M251.202 115.631C251.063 115.735 250.913 115.823 250.753 115.89C250.458 116.045 250.051 116.276 249.441 116.55C247.822 117.373 246.088 117.946 244.297 118.248C243.045 118.428 241.769 118.359 240.544 118.044C239.856 117.862 239.201 117.576 238.6 117.195C237.973 116.779 237.412 116.27 236.937 115.687C236.001 114.407 235.159 113.061 234.418 111.659C233.597 110.256 232.531 108.853 230.91 108.319C229.289 107.786 227.584 108.186 226.033 108.628C224.528 109.155 222.963 109.492 221.374 109.631C220.427 109.666 219.482 109.501 218.603 109.148C217.723 108.795 216.926 108.261 216.265 107.582C215.604 106.902 215.093 106.092 214.764 105.202C214.436 104.313 214.297 103.365 214.358 102.418C214.405 101.634 214.583 100.864 214.884 100.138C215.121 99.5135 215.481 98.9431 215.943 98.4609C215.576 99.0053 215.266 99.5861 215.017 100.194C214.744 100.91 214.59 101.666 214.561 102.432C214.532 103.338 214.689 104.241 215.021 105.084C215.353 105.928 215.854 106.694 216.494 107.337C217.133 107.979 217.897 108.484 218.739 108.821C219.58 109.158 220.482 109.319 221.388 109.295C222.947 109.147 224.482 108.805 225.956 108.277C226.763 108.03 227.589 107.849 228.426 107.737C229.307 107.62 230.204 107.702 231.05 107.975C231.891 108.275 232.646 108.774 233.253 109.428C233.825 110.054 234.326 110.741 234.748 111.477C235.479 112.865 236.304 114.201 237.218 115.476C238.088 116.582 239.291 117.379 240.649 117.75C241.835 118.071 243.072 118.154 244.29 117.995C246.062 117.717 247.785 117.185 249.406 116.416L250.746 115.82C250.893 115.746 251.046 115.683 251.202 115.631Z" fill="white"/>
<path d="M234.51 140.485C234.75 140.125 234.92 139.723 235.008 139.299C235.077 138.719 235.015 138.13 234.826 137.578C234.636 137.025 234.324 136.522 233.913 136.107C233.348 135.528 232.653 135.093 231.885 134.837C230.998 134.538 230.08 134.338 229.149 134.24C228.159 134.107 227.1 134.03 226.019 133.798C224.88 133.592 223.803 133.129 222.869 132.444C222.405 132.074 222.013 131.622 221.711 131.111C221.428 130.617 221.193 130.098 221.01 129.56C220.721 128.565 220.338 127.599 219.866 126.676C219.423 125.932 218.801 125.31 218.055 124.869C217.31 124.427 216.465 124.18 215.6 124.15C214.415 124.129 213.256 124.504 212.309 125.217C211.971 125.489 211.65 125.782 211.348 126.094C211.348 126.094 211.397 125.989 211.53 125.806C211.739 125.549 211.975 125.314 212.232 125.105C213.183 124.318 214.379 123.888 215.614 123.891C216.53 123.906 217.428 124.153 218.223 124.61C219.019 125.066 219.685 125.717 220.161 126.501C220.652 127.44 221.051 128.425 221.353 129.441C221.657 130.498 222.265 131.442 223.1 132.156C223.989 132.803 225.01 133.244 226.09 133.447C227.142 133.679 228.195 133.763 229.184 133.91C231.163 134.156 233.043 134.724 234.096 135.931C234.522 136.377 234.839 136.916 235.021 137.505C235.202 138.095 235.244 138.719 235.141 139.327C235.069 139.654 234.93 139.962 234.734 140.232C234.669 140.325 234.594 140.41 234.51 140.485Z" fill="white"/>
<path d="M245.518 190.316C244.582 190.223 243.637 190.263 242.711 190.435C241.629 190.658 240.559 190.937 239.505 191.27C238.102 191.738 236.639 192.003 235.162 192.056C233.359 192.091 231.569 191.739 229.913 191.025C227.99 190.221 226.339 188.881 225.156 187.165C223.891 185.221 223.352 182.893 223.633 180.591C223.771 179.379 224.14 178.204 224.721 177.132C225.324 176.021 226.171 175.062 227.198 174.325C228.194 173.581 229.303 172.922 229.801 171.89C230.053 171.382 230.137 170.807 230.039 170.248C229.928 169.683 229.739 169.135 229.478 168.621C228.886 167.608 228.486 166.495 228.299 165.337C228.191 164.205 228.36 163.063 228.791 162.011C229.617 160.075 231.165 158.538 233.106 157.724C234.766 157.016 236.565 156.693 238.368 156.776C239.826 156.852 241.288 156.81 242.74 156.65C243.828 156.498 244.865 156.094 245.771 155.471C246.35 155.079 246.83 154.558 247.174 153.949C247.399 153.528 247.448 153.282 247.476 153.289C247.432 153.534 247.352 153.77 247.237 153.991C246.918 154.626 246.451 155.174 245.876 155.591C244.962 156.249 243.907 156.684 242.796 156.861C241.335 157.044 239.861 157.105 238.389 157.043C236.625 156.975 234.867 157.304 233.246 158.004C231.389 158.805 229.916 160.294 229.134 162.158C228.725 163.16 228.569 164.246 228.678 165.323C228.864 166.442 229.254 167.517 229.829 168.494C230.107 169.036 230.306 169.615 230.418 170.213C230.534 170.846 230.44 171.498 230.152 172.073C229.555 173.237 228.419 173.904 227.443 174.634C226.482 175.334 225.679 176.23 225.089 177.263C224.499 178.296 224.134 179.442 224.019 180.626C223.752 182.835 224.263 185.068 225.465 186.941C226.609 188.609 228.202 189.917 230.061 190.716C231.678 191.42 233.426 191.776 235.19 191.761C236.647 191.733 238.093 191.497 239.484 191.06C240.546 190.738 241.626 190.478 242.719 190.281C243.413 190.157 244.121 190.124 244.823 190.183C245.059 190.205 245.291 190.25 245.518 190.316Z" fill="white"/>
<path d="M235.589 212.696C235.554 212.696 235.589 212.204 235.638 211.327C235.706 210.097 235.487 208.867 234.999 207.735C234.654 206.975 234.05 206.363 233.294 206.009C232.401 205.663 231.443 205.517 230.488 205.581C229.374 205.67 228.255 205.532 227.197 205.174C226.65 204.92 226.17 204.543 225.794 204.072C225.42 203.594 225.095 203.079 224.825 202.535C224.364 201.474 223.76 200.48 223.029 199.581C222.323 198.772 221.477 198.097 220.531 197.589C218.92 196.72 217.073 196.391 215.262 196.649C214.039 196.823 212.864 197.238 211.802 197.869C211.059 198.326 210.694 198.655 210.673 198.634C210.652 198.613 210.75 198.536 210.918 198.375C212.132 197.31 213.629 196.623 215.227 196.396C217.095 196.088 219.014 196.404 220.685 197.294C221.675 197.81 222.56 198.504 223.296 199.343C223.683 199.777 224.029 200.247 224.327 200.746C224.622 201.265 224.874 201.806 225.148 202.339C225.575 203.396 226.356 204.272 227.358 204.816C228.372 205.157 229.442 205.293 230.509 205.216C231.522 205.158 232.535 205.323 233.477 205.7C234.285 206.098 234.927 206.769 235.287 207.594C235.764 208.77 235.952 210.043 235.834 211.306C235.799 211.748 235.757 212.092 235.715 212.317C235.685 212.447 235.643 212.574 235.589 212.696Z" fill="white"/>
<path d="M218.756 154.664C218.589 155.078 218.397 155.481 218.181 155.871C217.615 156.929 217.26 158.087 217.135 159.281C217.089 160.097 217.266 160.909 217.648 161.632C218.122 162.458 218.656 163.249 219.247 163.996C219.919 164.898 220.405 165.925 220.676 167.016C220.947 168.107 220.998 169.242 220.826 170.353C220.646 171.472 220.201 172.533 219.53 173.446C218.859 174.36 217.981 175.101 216.967 175.609C216.086 176.058 215.114 176.298 214.125 176.31C213.075 176.299 212.045 176.019 211.133 175.499C210.22 174.978 209.456 174.234 208.912 173.335C208.748 173.047 208.611 172.744 208.505 172.43C208.462 172.32 208.436 172.204 208.428 172.086C208.611 172.489 208.815 172.883 209.038 173.265C209.694 174.268 210.635 175.053 211.74 175.517C212.489 175.847 213.3 176.012 214.118 176.002C215.061 175.979 215.985 175.739 216.82 175.3C217.778 174.809 218.607 174.1 219.241 173.23C219.875 172.36 220.295 171.353 220.468 170.29C220.797 168.132 220.257 165.932 218.967 164.172C218.375 163.407 217.842 162.597 217.374 161.751C216.982 160.977 216.81 160.111 216.876 159.246C217.024 158.026 217.426 156.85 218.055 155.794C218.265 155.415 218.433 155.127 218.56 154.938C218.616 154.84 218.682 154.749 218.756 154.664Z" fill="white"/>
<path d="M239.897 131.13C239.84 130.855 239.811 130.575 239.813 130.295C239.813 129.677 239.743 128.891 239.701 128.007C239.603 126.001 239.476 123.383 239.336 120.486C239.196 117.588 239.098 114.872 239.077 112.95C239.077 111.981 239.077 111.203 239.077 110.662C239.063 110.38 239.082 110.098 239.133 109.82C239.195 110.096 239.224 110.379 239.217 110.662C239.252 111.273 239.287 112.066 239.336 112.943C239.427 114.949 239.554 117.567 239.701 120.465C239.848 123.362 239.933 126.078 239.954 128C239.954 128.969 239.954 129.747 239.954 130.288C239.967 130.57 239.948 130.852 239.897 131.13Z" fill="#263238"/>
<path d="M239.651 122.235C239.651 122.235 240.823 136.395 239.476 137.377C231.975 142.618 222.004 144.723 218.426 145.348C217.928 145.166 217.352 144.948 216.686 144.646C216.109 144.389 215.579 144.036 215.121 143.601C214.531 143.082 214.011 142.488 213.577 141.833C213.525 141.689 213.428 141.566 213.299 141.483C213.171 141.4 213.019 141.361 212.867 141.372C212.714 141.383 212.569 141.443 212.454 141.544C212.34 141.645 212.261 141.781 212.23 141.931C212.139 142.583 213.023 144.38 214.854 145.811C216.686 147.242 213.086 147.327 211.774 147.376C210.462 147.425 206.42 147.783 206.126 148.211C205.691 148.828 206.266 149.432 207.578 149.347C208.89 149.263 212.82 149.298 212.827 150.007C212.834 150.716 206.154 150.877 206.154 150.877C206.154 150.877 204.75 150.681 204.701 151.495C204.659 152.968 211.718 152.252 212.42 152.196C212.89 152.14 212.918 152.898 212.42 152.947C211.921 152.996 205.761 152.947 205.705 154.456C205.663 155.606 211.529 153.922 212.813 154.652C214.097 155.382 208.231 155.466 208.238 156.568C208.238 156.982 208.294 157.269 211.648 156.743C214.048 156.243 216.418 155.61 218.749 154.848V154.884C218.749 154.884 253.628 151.894 252.751 136.17C252.162 125.526 252.358 127.491 251.706 121.898" fill="#B78876"/>
</svg>
