<svg width="471" height="409" viewBox="0 0 471 409" fill="none" xmlns="http://www.w3.org/2000/svg">
<path d="M254.043 408.475C373.567 408.475 470.46 353.365 470.46 285.382C470.46 217.4 373.567 162.289 254.043 162.289C134.518 162.289 37.625 217.4 37.625 285.382C37.625 353.365 134.518 408.475 254.043 408.475Z" fill="#F5F5F5"/>
<path d="M391.323 342.661C419.906 342.661 443.076 328.133 443.076 310.213C443.076 292.293 419.906 277.766 391.323 277.766C362.741 277.766 339.57 292.293 339.57 310.213C339.57 328.133 362.741 342.661 391.323 342.661Z" fill="#E6E6E6"/>
<path d="M49.6381 216.024C49.0178 208.557 47.2938 201.223 44.5222 194.261C39.9603 183.012 31.229 171.713 21.1685 169.598C11.1079 167.484 6.85813 174.231 8.97296 180.878C10.8058 186.598 18.2782 191.351 23.958 196.346C29.6379 201.341 40.2322 213.466 43.1728 225.077L48.8526 225.702L49.6381 216.024Z" fill="#084C3F"/>
<g opacity="0.15">
<path d="M49.6381 216.024C49.0178 208.557 47.2938 201.223 44.5222 194.261C39.9603 183.012 31.229 171.713 21.1685 169.598C11.1079 167.484 6.85813 174.231 8.97296 180.878C10.8058 186.598 18.2782 191.351 23.958 196.346C29.6379 201.341 40.2322 213.466 43.1728 225.077L48.8526 225.702L49.6381 216.024Z" fill="black"/>
</g>
<path d="M45.7406 221.239C45.5785 221.239 45.4226 221.176 45.3061 221.063C45.1896 220.95 45.1215 220.797 45.1162 220.635C44.0588 191.309 15.3978 174.914 15.0857 174.733C14.949 174.646 14.8507 174.51 14.8107 174.354C14.7707 174.197 14.7922 174.031 14.8706 173.889C14.9491 173.748 15.0787 173.642 15.2328 173.592C15.387 173.543 15.5541 173.555 15.7 173.625C16.0021 173.796 45.2975 190.544 46.3751 220.564C46.3805 220.731 46.3202 220.893 46.2072 221.015C46.0941 221.138 45.9374 221.211 45.7708 221.219L45.7406 221.239Z" fill="white"/>
<path d="M54.1598 267.648C54.1598 267.648 48.2987 271.354 39.1344 269.773C36.171 269.379 33.4096 268.053 31.2491 265.986C28.8825 263.549 28.5099 261.092 27.8453 257.829C27.6622 256.465 27.1957 255.155 26.4757 253.982C24.4615 251.283 20.5944 251.334 17.3315 250.629C12.6991 249.622 8.43918 246.298 7.09979 241.757C5.7604 237.215 7.93565 231.686 12.3264 229.893L6.93866 226.439C5.26375 225.456 3.71489 224.272 2.32631 222.914C0.940258 221.53 0.112191 219.684 0 217.728C0 214.868 2.1249 212.31 4.74326 211.142C7.42538 210.106 10.3357 209.807 13.1724 210.276C16.0457 210.627 18.8701 211.303 21.5914 212.29C22.333 212.625 23.1345 212.806 23.9479 212.824C25.0066 212.636 25.9988 212.178 26.8281 211.494C32.9913 207.466 43.0318 207.738 46.3349 215.412C46.8183 216.54 47.1104 217.748 47.634 218.856C49.5475 222.995 54.9352 221.746 58.4197 223.68C59.5132 224.372 60.441 225.297 61.1372 226.388C61.8333 227.479 62.2808 228.71 62.4479 229.994C63.1428 234.083 62.0048 238.745 61.2495 242.784C60.4942 246.822 59.5375 250.578 58.4398 254.405C57.5435 257.567 56.5566 260.699 55.5093 263.811C55.2877 264.456 54.8043 267.245 54.1598 267.648Z" fill="#084C3F"/>
<path d="M57.8474 258.197C54.776 249.747 49.7318 242.151 43.1342 236.042C43.0656 235.895 42.943 235.779 42.7918 235.72C40.8909 233.938 38.8975 232.257 36.82 230.685C36.0349 225.247 36.7307 219.698 38.8341 214.622C38.9049 214.471 38.9128 214.298 38.8561 214.141C38.7995 213.985 38.6829 213.857 38.532 213.786C38.3811 213.715 38.2082 213.707 38.0515 213.764C37.8947 213.821 37.7669 213.937 37.6961 214.088C35.6103 218.982 34.8095 224.327 35.3698 229.617C26.9288 223.529 17.5646 218.837 7.63531 215.72C7.47385 215.679 7.30295 215.702 7.1584 215.785C7.01385 215.868 6.90687 216.003 6.85987 216.163C6.83705 216.243 6.83046 216.326 6.84048 216.409C6.8505 216.492 6.87692 216.571 6.9182 216.644C6.95948 216.716 7.01479 216.779 7.08086 216.83C7.14694 216.88 7.22246 216.917 7.30298 216.938C7.56481 217.009 25.4301 222.084 40.2138 235.065C31.1502 233.484 20.3444 237.855 19.851 238.086C19.7123 238.139 19.5967 238.238 19.5247 238.368C19.4528 238.497 19.4293 238.648 19.4583 238.793C19.4874 238.939 19.5671 239.069 19.6833 239.161C19.7995 239.253 19.9446 239.3 20.0927 239.295C20.1726 239.309 20.2545 239.309 20.3344 239.295C20.4552 239.234 33.1543 234.098 42.1272 236.888C48.644 242.864 53.637 250.312 56.6893 258.61C56.7315 258.734 56.8116 258.842 56.9182 258.918C57.0248 258.994 57.1526 259.034 57.2835 259.033H57.4949C57.5745 259.004 57.647 258.958 57.7083 258.899C57.7695 258.84 57.8181 258.77 57.8511 258.691C57.8841 258.613 57.9008 258.529 57.9002 258.444C57.8995 258.359 57.8816 258.275 57.8474 258.197Z" fill="white"/>
<path d="M54.3633 266.771C54.4704 268.245 54.9239 269.672 55.6869 270.937C56.4499 272.202 57.5008 273.27 58.7541 274.052L181.565 344.929C182.923 345.619 184.423 345.979 185.946 345.979C187.469 345.979 188.969 345.619 190.327 344.929L358.335 247.929C359.656 247.228 360.761 246.18 361.532 244.898C362.303 243.616 362.71 242.149 362.71 240.653C362.71 239.157 362.303 237.69 361.532 236.408C360.761 235.126 359.656 234.078 358.335 233.377L235.544 162.48C234.185 161.794 232.685 161.438 231.163 161.438C229.641 161.438 228.141 161.794 226.782 162.48L58.7541 259.5C57.5015 260.281 56.451 261.346 55.6881 262.61C54.9251 263.873 54.4712 265.299 54.3633 266.771Z" fill="#37474F"/>
<path d="M185.925 336.509V345.986C184.403 346.029 182.895 345.682 181.544 344.979L58.7029 274.051C57.4191 273.375 56.3377 272.37 55.5689 271.139C54.8 269.908 54.3713 268.496 54.3262 267.045C54.2812 265.595 54.6215 264.158 55.3125 262.882C56.0035 261.606 57.0205 260.536 58.2598 259.781C56.296 261.191 56.4471 263.256 58.7029 264.555L181.564 335.452C182.905 336.169 184.405 336.533 185.925 336.509Z" fill="#263238"/>
<path d="M50.2533 259.65C49.0336 258.821 48.0262 257.715 47.3124 256.424C46.5987 255.133 46.1986 253.692 46.1445 252.218V105.681C46.2272 104.161 46.6669 102.683 47.4281 101.365C48.1892 100.048 49.2503 98.9281 50.5252 98.0975L218.533 1.09728C219.838 0.40501 221.287 0.0296832 222.764 0.00168996C224.241 -0.0263033 225.703 0.29382 227.033 0.936145C228.253 1.76596 229.26 2.87104 229.974 4.1621C230.688 5.45317 231.088 6.89402 231.142 8.36826V154.906C231.059 156.425 230.619 157.904 229.858 159.221C229.097 160.539 228.036 161.658 226.761 162.489L58.753 259.499C57.4468 260.188 55.9973 260.56 54.5211 260.586C53.0449 260.612 51.5831 260.292 50.2533 259.65Z" fill="#455A64"/>
<path d="M58.2293 259.758C56.972 260.322 55.6068 260.604 54.2291 260.585C52.8513 260.566 51.4945 260.246 50.2533 259.647C49.0336 258.817 48.0262 257.712 47.3124 256.421C46.5987 255.13 46.1986 253.689 46.1445 252.215V105.677C46.1927 104.153 46.6369 102.668 47.4336 101.367L55.6512 106.1C54.8617 107.404 54.418 108.888 54.3622 110.411V256.958C54.3622 259.556 56.054 260.715 58.2293 259.758Z" fill="#263238"/>
<path d="M54.3633 110.435V256.962C54.3633 259.762 56.3774 260.89 58.7541 259.5L226.762 162.49C228.037 161.659 229.098 160.54 229.859 159.222C230.621 157.905 231.06 156.426 231.143 154.907V8.36908C231.143 5.57952 229.179 4.44154 226.762 5.84136L58.7541 102.842C57.4759 103.672 56.4121 104.793 55.649 106.112C54.886 107.432 54.4455 108.913 54.3633 110.435Z" fill="#37474F"/>
<path d="M58.7519 264.554L181.563 335.451C182.922 336.137 184.422 336.494 185.944 336.494C187.465 336.494 188.966 336.137 190.325 335.451L358.333 238.451C360.76 237.051 360.76 234.785 358.333 233.416L235.542 162.519C234.183 161.834 232.683 161.477 231.161 161.477C229.639 161.477 228.139 161.834 226.78 162.519L58.7519 259.499C56.3249 260.889 56.3249 263.154 58.7519 264.554Z" fill="#455A64"/>
<path d="M61.1112 110.979L223.097 17.4737C224.547 16.6379 225.726 17.3227 225.726 18.9944V145.884C225.675 146.796 225.411 147.683 224.954 148.474C224.498 149.265 223.862 149.937 223.097 150.436L61.1112 243.892C59.6509 244.727 58.4727 244.053 58.4727 242.371V115.481C58.5287 114.576 58.7968 113.698 59.2551 112.916C59.7134 112.134 60.3492 111.47 61.1112 110.979Z" fill="#FAFAFA"/>
<path d="M73.0014 260.76L228.955 170.708C229.633 170.361 230.384 170.18 231.145 170.18C231.907 170.18 232.658 170.361 233.336 170.708L241.312 175.31C241.574 175.402 241.8 175.573 241.961 175.8C242.121 176.026 242.208 176.297 242.208 176.574C242.208 176.852 242.121 177.122 241.961 177.349C241.8 177.575 241.574 177.746 241.312 177.838L85.3379 267.88C84.66 268.227 83.9093 268.408 83.1476 268.408C82.3859 268.408 81.6351 268.227 80.9572 267.88L73.0014 263.287C72.7396 263.195 72.5127 263.025 72.3522 262.798C72.1917 262.572 72.1055 262.301 72.1055 262.023C72.1055 261.746 72.1917 261.475 72.3522 261.249C72.5127 261.022 72.7396 260.852 73.0014 260.76Z" fill="#37474F"/>
<path d="M93.5568 272.633L249.51 182.591C250.19 182.249 250.94 182.07 251.701 182.07C252.462 182.07 253.212 182.249 253.891 182.591L302.955 210.92C303.217 211.012 303.444 211.183 303.604 211.409C303.765 211.636 303.851 211.906 303.851 212.184C303.851 212.461 303.765 212.732 303.604 212.959C303.444 213.185 303.217 213.356 302.955 213.448L147.183 303.358C146.503 303.703 145.75 303.883 144.987 303.883C144.225 303.883 143.472 303.703 142.792 303.358L93.5669 275.161C93.2999 275.075 93.0668 274.906 92.9012 274.68C92.7355 274.454 92.6457 274.181 92.6445 273.9C92.6434 273.62 92.7311 273.346 92.8949 273.118C93.0588 272.891 93.2905 272.721 93.5568 272.633Z" fill="#263238"/>
<path d="M233.359 223.071L238.233 220.262C238.445 220.141 238.435 219.939 238.233 219.808L232.584 216.546C232.464 216.484 232.331 216.451 232.196 216.451C232.061 216.451 231.928 216.484 231.808 216.546L226.924 219.365C226.712 219.476 226.723 219.678 226.924 219.808L232.564 223.071C232.686 223.135 232.823 223.168 232.961 223.168C233.1 223.168 233.236 223.135 233.359 223.071ZM223.722 211.873L218.827 214.713C218.616 214.834 218.636 215.035 218.827 215.166L224.467 218.419C224.588 218.481 224.723 218.513 224.859 218.513C224.996 218.513 225.131 218.481 225.252 218.419L230.136 215.599C230.338 215.478 230.328 215.277 230.136 215.146L224.487 211.893C224.368 211.833 224.237 211.801 224.104 211.801C223.971 211.801 223.84 211.833 223.722 211.893V211.873ZM207.941 221.057L199.683 225.821C199.471 225.941 199.482 226.143 199.683 226.274L205.322 229.537C205.445 229.596 205.579 229.627 205.715 229.627C205.851 229.627 205.986 229.596 206.108 229.537L214.366 224.773C214.577 224.652 214.557 224.451 214.366 224.32L208.757 221.057C208.631 220.99 208.491 220.955 208.349 220.955C208.206 220.955 208.066 220.99 207.941 221.057ZM216.581 216.022L211.697 218.842C211.496 218.963 211.506 219.164 211.697 219.295L217.347 222.558C217.467 222.617 217.6 222.648 217.735 222.648C217.869 222.648 218.002 222.617 218.122 222.558L223.006 219.738C223.208 219.617 223.198 219.416 223.006 219.295L217.357 216.022C217.237 215.96 217.104 215.928 216.969 215.928C216.834 215.928 216.701 215.96 216.581 216.022ZM197.447 227.1L192.563 229.909C192.362 230.03 192.372 230.232 192.563 230.362L198.213 233.625C198.333 233.687 198.465 233.719 198.6 233.719C198.735 233.719 198.868 233.687 198.988 233.625L203.872 230.806C204.074 230.695 204.064 230.493 203.872 230.362L198.203 227.1C198.083 227.038 197.95 227.006 197.815 227.006C197.68 227.006 197.547 227.038 197.427 227.1H197.447ZM190.307 231.218L185.433 234.038C185.222 234.149 185.232 234.35 185.433 234.481L191.083 237.744C191.203 237.804 191.336 237.835 191.47 237.835C191.605 237.835 191.737 237.804 191.858 237.744L196.742 234.924C196.954 234.804 196.934 234.602 196.742 234.471L191.103 231.208C190.978 231.14 190.838 231.103 190.696 231.101C190.554 231.1 190.413 231.133 190.287 231.198L190.307 231.218ZM212.523 244.471L217.407 241.652C217.609 241.531 217.599 241.329 217.407 241.198L211.758 237.946C211.638 237.884 211.505 237.852 211.37 237.852C211.235 237.852 211.102 237.884 210.982 237.946L206.098 240.765C205.886 240.886 205.907 241.088 206.098 241.219L211.737 244.471C211.858 244.527 211.99 244.554 212.122 244.551C212.255 244.547 212.385 244.513 212.503 244.451L212.523 244.471ZM205.383 248.59L210.267 245.771C210.479 245.65 210.458 245.448 210.267 245.317L204.628 242.065C204.506 242.003 204.371 241.97 204.235 241.97C204.098 241.97 203.964 242.003 203.842 242.065L198.958 244.884C198.756 245.005 198.767 245.207 198.958 245.337L204.607 248.6C204.728 248.652 204.858 248.676 204.989 248.671C205.119 248.666 205.247 248.631 205.363 248.57L205.383 248.59ZM198.243 252.709L203.127 249.889C203.339 249.769 203.329 249.567 203.127 249.446L197.488 246.183C197.368 246.122 197.235 246.089 197.1 246.089C196.965 246.089 196.832 246.122 196.712 246.183L191.828 249.003C191.616 249.124 191.626 249.325 191.828 249.456L197.477 252.719C197.596 252.769 197.725 252.793 197.853 252.787C197.982 252.782 198.108 252.749 198.223 252.689L198.243 252.709ZM191.113 256.828L195.997 254.008C196.199 253.897 196.188 253.696 195.997 253.565L190.297 250.262C190.177 250.2 190.044 250.168 189.909 250.168C189.775 250.168 189.642 250.2 189.522 250.262L184.637 253.072C184.426 253.193 184.446 253.394 184.637 253.525L190.277 256.788C190.401 256.858 190.54 256.896 190.682 256.9C190.825 256.903 190.966 256.872 191.093 256.808L191.113 256.828ZM226.239 227.241L231.123 224.421C231.325 224.3 231.315 224.099 231.123 223.968L225.474 220.705C225.353 220.645 225.221 220.614 225.086 220.614C224.952 220.614 224.819 220.645 224.698 220.705L219.814 223.525C219.613 223.645 219.623 223.847 219.814 223.968L225.464 227.231C225.582 227.285 225.712 227.313 225.842 227.311C225.973 227.309 226.102 227.278 226.219 227.22L226.239 227.241ZM219.653 240.332L230.549 234.038C230.761 233.917 230.741 233.716 230.549 233.595L216.813 225.68C216.691 225.618 216.557 225.585 216.42 225.585C216.284 225.585 216.149 225.618 216.028 225.68L210.398 228.932C210.187 229.053 210.197 229.255 210.398 229.386L217.649 233.575C217.881 233.706 217.891 233.907 217.649 234.018L213.147 236.626C212.936 236.747 212.946 236.949 213.147 237.08L218.797 240.332C218.924 240.405 219.068 240.443 219.215 240.443C219.361 240.443 219.505 240.405 219.633 240.332H219.653ZM183.177 235.297L178.293 238.117C178.081 238.238 178.102 238.439 178.293 238.56L183.932 241.823C184.054 241.885 184.189 241.917 184.325 241.917C184.462 241.917 184.596 241.885 184.718 241.823L189.592 239.003C189.804 238.882 189.794 238.681 189.592 238.55L183.943 235.287C183.818 235.231 183.683 235.204 183.546 235.209C183.41 235.214 183.277 235.251 183.157 235.317L183.177 235.297ZM176.037 239.416L171.153 242.236C170.951 242.357 170.962 242.558 171.153 242.689L176.802 245.942C176.922 246.004 177.055 246.036 177.19 246.036C177.325 246.036 177.458 246.004 177.578 245.942L182.462 243.122C182.664 243.001 182.654 242.8 182.462 242.669L176.813 239.416C176.688 239.354 176.551 239.323 176.412 239.327C176.274 239.33 176.138 239.368 176.017 239.436L176.037 239.416ZM140.377 285.62C140.498 285.679 140.63 285.71 140.765 285.71C140.899 285.71 141.032 285.679 141.152 285.62L146.037 282.8C146.248 282.679 146.238 282.478 146.037 282.357L140.397 279.094C140.275 279.035 140.141 279.004 140.004 279.004C139.868 279.004 139.734 279.035 139.612 279.094L134.738 281.914C134.526 282.035 134.536 282.236 134.738 282.367L140.377 285.62ZM118.927 272.417L114.042 275.237C113.841 275.358 113.851 275.559 114.042 275.69L119.692 278.943C119.812 279.005 119.945 279.037 120.08 279.037C120.215 279.037 120.348 279.005 120.467 278.943L125.352 276.123C125.553 276.003 125.543 275.801 125.352 275.67L119.702 272.417C119.582 272.356 119.449 272.323 119.314 272.323C119.179 272.323 119.047 272.356 118.927 272.417ZM130.417 282.085C130.538 282.145 130.67 282.176 130.805 282.176C130.939 282.176 131.072 282.145 131.193 282.085L136.077 279.265C136.278 279.145 136.268 278.943 136.077 278.812L130.427 275.549C130.307 275.487 130.174 275.455 130.04 275.455C129.905 275.455 129.772 275.487 129.652 275.549L124.768 278.369C124.566 278.49 124.576 278.681 124.768 278.812L130.417 282.085ZM152.955 288.128L157.84 285.308C158.051 285.197 158.031 284.996 157.84 284.865L152.2 281.602C152.078 281.54 151.944 281.508 151.807 281.508C151.671 281.508 151.536 281.54 151.414 281.602L146.53 284.411C146.329 284.532 146.339 284.734 146.53 284.865L152.18 288.128C152.299 288.191 152.431 288.225 152.566 288.227C152.701 288.228 152.835 288.198 152.955 288.138V288.128ZM145.04 292.236C145.162 292.296 145.296 292.327 145.433 292.327C145.569 292.327 145.703 292.296 145.825 292.236L150.699 289.417C150.911 289.296 150.901 289.094 150.699 288.963L145.05 285.701C144.93 285.639 144.797 285.606 144.662 285.606C144.527 285.606 144.394 285.639 144.274 285.701L139.37 288.53C139.159 288.641 139.169 288.843 139.37 288.973L145.04 292.236ZM126.067 268.268L121.182 271.088C120.971 271.209 120.981 271.41 121.182 271.531L126.822 274.794C126.942 274.856 127.075 274.888 127.21 274.888C127.345 274.888 127.478 274.856 127.597 274.794L132.482 271.974C132.693 271.853 132.683 271.652 132.482 271.521L126.832 268.258C126.711 268.203 126.58 268.177 126.447 268.18C126.314 268.184 126.184 268.217 126.067 268.278V268.268ZM161.747 247.664L156.863 250.484C156.651 250.604 156.671 250.806 156.863 250.937L162.502 254.19C162.624 254.251 162.758 254.284 162.895 254.284C163.031 254.284 163.166 254.251 163.288 254.19L168.172 251.37C168.373 251.249 168.363 251.048 168.172 250.917L162.522 247.664C162.402 247.604 162.268 247.573 162.133 247.575C161.999 247.576 161.866 247.61 161.747 247.674V247.664ZM133.227 264.159L128.343 266.979C128.141 267.1 128.151 267.302 128.343 267.422L133.992 270.685C134.112 270.747 134.245 270.779 134.38 270.779C134.515 270.779 134.648 270.747 134.768 270.685L139.652 267.865C139.863 267.745 139.843 267.543 139.652 267.412L134.012 264.149C133.889 264.091 133.755 264.062 133.619 264.064C133.482 264.066 133.348 264.098 133.227 264.159ZM168.907 243.555L164.033 246.375C163.821 246.496 163.832 246.697 164.033 246.828L169.683 250.081C169.802 250.143 169.935 250.175 170.07 250.175C170.205 250.175 170.338 250.143 170.458 250.081L175.342 247.261C175.554 247.14 175.544 246.939 175.342 246.808L169.703 243.555C169.576 243.486 169.434 243.45 169.29 243.45C169.146 243.45 169.004 243.486 168.877 243.555H168.907ZM154.637 251.793L149.753 254.613C149.551 254.733 149.561 254.935 149.753 255.066L155.382 258.319C155.503 258.378 155.636 258.409 155.77 258.409C155.904 258.409 156.037 258.378 156.158 258.319L161.042 255.499C161.253 255.378 161.233 255.176 161.042 255.056L155.382 251.813C155.264 251.748 155.132 251.712 154.997 251.709C154.862 251.705 154.728 251.734 154.607 251.793H154.637ZM147.507 255.912L142.623 258.731C142.411 258.852 142.421 259.054 142.623 259.185L148.272 262.447C148.392 262.509 148.525 262.542 148.66 262.542C148.795 262.542 148.928 262.509 149.048 262.447L153.932 259.628C154.144 259.507 154.134 259.305 153.932 259.185L148.282 255.922C148.159 255.856 148.021 255.82 147.881 255.819C147.741 255.817 147.602 255.849 147.477 255.912H147.507ZM140.367 260.041L135.483 262.86C135.271 262.971 135.291 263.173 135.483 263.303L141.122 266.566C141.244 266.628 141.379 266.661 141.515 266.661C141.652 266.661 141.786 266.628 141.908 266.566L146.792 263.757C146.993 263.636 146.983 263.434 146.792 263.303L141.142 260.041C141.019 259.974 140.88 259.939 140.74 259.939C140.599 259.939 140.46 259.974 140.337 260.041H140.367ZM176.843 265.076L181.727 262.256C181.939 262.135 181.928 261.934 181.727 261.803L176.077 258.54C175.957 258.481 175.824 258.45 175.69 258.45C175.555 258.45 175.423 258.481 175.302 258.54L170.418 261.36C170.206 261.481 170.216 261.682 170.418 261.803L176.067 265.066C176.184 265.121 176.312 265.149 176.441 265.147C176.57 265.146 176.697 265.114 176.813 265.056L176.843 265.076ZM239.522 202.809L234.638 205.629C234.437 205.75 234.447 205.951 234.638 206.072L240.288 209.335C240.408 209.397 240.541 209.429 240.675 209.429C240.81 209.429 240.943 209.397 241.063 209.335L245.947 206.515C246.159 206.394 246.139 206.193 245.947 206.062L240.308 202.799C240.182 202.733 240.043 202.698 239.901 202.696C239.759 202.694 239.619 202.726 239.492 202.789L239.522 202.809ZM230.882 207.794L226.008 210.614C225.796 210.735 225.806 210.936 226.008 211.067L231.657 214.32C231.777 214.382 231.91 214.414 232.045 214.414C232.18 214.414 232.313 214.382 232.433 214.32L237.317 211.5C237.528 211.379 237.518 211.178 237.317 211.047L231.677 207.794C231.552 207.722 231.411 207.683 231.267 207.679C231.123 207.676 230.98 207.708 230.852 207.774L230.882 207.794ZM246.662 198.731L241.778 201.55C241.567 201.661 241.587 201.863 241.778 201.994L247.418 205.256C247.54 205.316 247.674 205.347 247.81 205.347C247.947 205.347 248.081 205.316 248.203 205.256L253.087 202.437C253.289 202.316 253.279 202.114 253.087 201.983L247.438 198.721C247.318 198.646 247.182 198.602 247.041 198.593C246.901 198.584 246.76 198.611 246.632 198.67L246.662 198.731ZM209.723 236.818L214.608 233.998C214.809 233.877 214.799 233.676 214.608 233.545L208.958 230.292C208.838 230.23 208.705 230.198 208.57 230.198C208.435 230.198 208.302 230.23 208.183 230.292L203.298 233.112C203.097 233.233 203.107 233.434 203.298 233.565L208.948 236.818C209.068 236.865 209.198 236.885 209.328 236.874C209.457 236.864 209.582 236.824 209.693 236.757L209.723 236.818ZM254.578 194.622C254.456 194.56 254.322 194.528 254.185 194.528C254.049 194.528 253.914 194.56 253.792 194.622L248.918 197.432C248.707 197.552 248.717 197.754 248.918 197.885L254.568 201.148C254.688 201.209 254.821 201.242 254.956 201.242C255.09 201.242 255.223 201.209 255.343 201.148L260.227 198.328C260.439 198.217 260.429 198.016 260.227 197.885L254.578 194.622ZM183.983 260.987L188.867 258.177C189.079 258.057 189.058 257.855 188.867 257.724L183.228 254.461C183.106 254.4 182.971 254.367 182.835 254.367C182.698 254.367 182.564 254.4 182.442 254.461L177.538 257.211C177.336 257.322 177.346 257.523 177.538 257.654L183.187 260.917C183.305 260.978 183.436 261.012 183.569 261.013C183.702 261.015 183.833 260.985 183.953 260.927L183.983 260.987ZM271.497 210.463L276.381 207.643C276.592 207.522 276.572 207.321 276.381 207.2L270.741 203.937C270.62 203.875 270.485 203.843 270.348 203.843C270.212 203.843 270.077 203.875 269.956 203.937L265.082 206.757C264.87 206.878 264.88 207.079 265.082 207.21L270.731 210.473C270.851 210.515 270.98 210.531 271.107 210.519C271.234 210.507 271.356 210.467 271.466 210.403L271.497 210.463ZM256.3 209.929L261.184 207.109C261.386 206.989 261.376 206.787 261.184 206.656L255.535 203.403C255.415 203.342 255.282 203.309 255.147 203.309C255.012 203.309 254.879 203.342 254.759 203.403L249.875 206.223C249.663 206.344 249.684 206.545 249.875 206.676L255.514 209.929C255.637 209.977 255.768 209.996 255.899 209.986C256.03 209.975 256.157 209.935 256.27 209.869L256.3 209.929ZM262.644 199.285C262.523 199.223 262.388 199.19 262.252 199.19C262.115 199.19 261.981 199.223 261.859 199.285L256.985 202.104C256.773 202.225 256.783 202.427 256.985 202.557L262.634 205.81C262.754 205.872 262.887 205.904 263.022 205.904C263.157 205.904 263.29 205.872 263.41 205.81L268.294 202.991C268.506 202.87 268.495 202.668 268.294 202.537L262.644 199.285ZM264.145 198.408L277.861 206.334C277.982 206.393 278.114 206.424 278.249 206.424C278.383 206.424 278.516 206.393 278.637 206.334L283.521 203.514C283.722 203.393 283.712 203.192 283.521 203.071L269.805 195.146C269.684 195.086 269.551 195.055 269.417 195.055C269.282 195.055 269.15 195.086 269.029 195.146L264.145 197.965C263.883 198.026 263.893 198.227 264.145 198.348V198.408ZM247.589 207.472L242.705 210.292C242.503 210.413 242.513 210.614 242.705 210.745L248.354 213.998C248.474 214.06 248.607 214.092 248.742 214.092C248.877 214.092 249.01 214.06 249.13 213.998L254.014 211.178C254.225 211.057 254.205 210.856 254.014 210.725L248.374 207.472C248.251 207.4 248.113 207.36 247.97 207.355C247.828 207.349 247.687 207.379 247.559 207.442L247.589 207.472ZM193.852 238.449L188.968 241.269C188.756 241.39 188.776 241.591 188.968 241.722L194.607 244.985C194.729 245.047 194.864 245.079 195 245.079C195.137 245.079 195.271 245.047 195.393 244.985L200.267 242.165C200.479 242.044 200.468 241.853 200.267 241.722L194.658 238.469C194.535 238.402 194.398 238.365 194.257 238.361C194.117 238.358 193.978 238.388 193.852 238.449ZM263.551 214.511C263.672 214.573 263.807 214.605 263.944 214.605C264.08 214.605 264.215 214.573 264.336 214.511L269.221 211.692C269.422 211.581 269.412 211.379 269.221 211.248L263.541 207.965C263.42 207.906 263.288 207.875 263.153 207.875C263.019 207.875 262.886 207.906 262.765 207.965L257.881 210.785C257.67 210.906 257.69 211.107 257.881 211.238L263.551 214.511ZM200.982 234.33L196.108 237.15C195.896 237.271 195.906 237.472 196.108 237.603L201.757 240.866C201.878 240.926 202.011 240.957 202.145 240.957C202.28 240.957 202.412 240.926 202.533 240.866L207.417 238.046C207.629 237.925 207.619 237.724 207.417 237.603L201.778 234.34C201.655 234.275 201.519 234.24 201.381 234.239C201.243 234.237 201.106 234.268 200.982 234.33ZM147.497 281.481C147.618 281.54 147.75 281.571 147.885 281.571C148.019 281.571 148.152 281.54 148.272 281.481L153.157 278.661C153.358 278.54 153.348 278.339 153.157 278.218L147.507 274.955C147.387 274.893 147.254 274.861 147.119 274.861C146.984 274.861 146.852 274.893 146.732 274.955L141.847 277.775C141.646 277.896 141.656 278.097 141.847 278.228L147.497 281.481ZM136.762 271.41L131.877 274.22C131.666 274.341 131.676 274.542 131.877 274.673L137.517 277.936C137.639 277.998 137.773 278.03 137.91 278.03C138.046 278.03 138.181 277.998 138.303 277.936L143.177 275.116C143.388 275.006 143.378 274.804 143.177 274.673L137.537 271.41C137.417 271.348 137.284 271.316 137.149 271.316C137.015 271.316 136.882 271.348 136.762 271.41ZM155.382 277.453L160.256 274.633C160.468 274.512 160.458 274.311 160.256 274.18L154.607 270.927C154.487 270.865 154.354 270.833 154.219 270.833C154.084 270.833 153.951 270.865 153.831 270.927L148.947 273.747C148.736 273.868 148.746 274.069 148.947 274.2L154.587 277.453C154.71 277.516 154.846 277.549 154.984 277.549C155.123 277.549 155.259 277.516 155.382 277.453ZM162.512 273.334L167.397 270.514C167.608 270.393 167.588 270.192 167.397 270.061L161.757 266.808C161.635 266.746 161.501 266.714 161.364 266.714C161.228 266.714 161.093 266.746 160.971 266.808L156.087 269.628C155.886 269.749 155.896 269.95 156.087 270.081L161.737 273.334C161.864 273.395 162.004 273.423 162.145 273.416C162.285 273.409 162.422 273.367 162.542 273.294L162.512 273.334ZM169.652 269.215L174.537 266.395C174.738 266.274 174.728 266.073 174.537 265.942L168.887 262.679C168.766 262.62 168.634 262.589 168.499 262.589C168.365 262.589 168.232 262.62 168.112 262.679L163.227 265.499C163.016 265.62 163.036 265.821 163.227 265.942L168.867 269.205C168.995 269.267 169.136 269.297 169.278 269.292C169.421 269.287 169.56 269.246 169.683 269.175L169.652 269.215ZM143.861 267.332L138.977 270.151C138.776 270.272 138.786 270.474 138.977 270.605L144.627 273.868C144.747 273.927 144.88 273.958 145.015 273.958C145.149 273.958 145.282 273.927 145.402 273.868L150.287 271.048C150.498 270.927 150.478 270.726 150.287 270.605L144.647 267.342C144.532 267.279 144.405 267.242 144.275 267.233C144.144 267.224 144.014 267.244 143.892 267.291L143.861 267.332ZM151.002 263.213L146.117 266.033C145.906 266.153 145.926 266.355 146.117 266.486L151.757 269.749C151.879 269.808 152.014 269.839 152.15 269.839C152.286 269.839 152.42 269.808 152.542 269.749L157.427 266.929C157.628 266.808 157.618 266.607 157.427 266.486L151.777 263.223C151.665 263.158 151.539 263.12 151.41 263.111C151.281 263.102 151.152 263.123 151.032 263.173L151.002 263.213ZM179.552 246.697L174.678 249.517C174.466 249.638 174.476 249.839 174.678 249.96L180.327 253.223C180.447 253.285 180.58 253.317 180.715 253.317C180.85 253.317 180.983 253.285 181.103 253.223L185.987 250.403C186.198 250.282 186.188 250.081 185.987 249.95L180.347 246.687C180.223 246.627 180.086 246.597 179.948 246.599C179.81 246.601 179.675 246.634 179.552 246.697ZM172.422 250.816L167.538 253.636C167.326 253.757 167.346 253.958 167.538 254.079L173.177 257.342C173.299 257.404 173.433 257.436 173.57 257.436C173.706 257.436 173.841 257.404 173.963 257.342L178.847 254.522C179.048 254.401 179.038 254.2 178.847 254.069L173.197 250.806C173.079 250.751 172.949 250.724 172.818 250.725C172.688 250.727 172.559 250.758 172.442 250.816H172.422ZM186.692 242.578L181.808 245.398C181.606 245.509 181.616 245.71 181.808 245.841L187.457 249.104C187.577 249.166 187.71 249.198 187.845 249.198C187.98 249.198 188.113 249.166 188.233 249.104L193.117 246.294C193.318 246.173 193.308 245.972 193.117 245.841L187.467 242.578C187.35 242.52 187.221 242.489 187.09 242.489C186.959 242.489 186.829 242.52 186.712 242.578H186.692ZM158.152 259.054L153.267 261.873C153.056 261.994 153.066 262.196 153.267 262.327L158.917 265.579C159.037 265.641 159.17 265.674 159.305 265.674C159.44 265.674 159.573 265.641 159.693 265.579L164.577 262.76C164.788 262.639 164.778 262.437 164.577 262.306L158.927 259.054C158.81 258.995 158.681 258.965 158.549 258.965C158.418 258.965 158.289 258.995 158.172 259.054H158.152ZM165.282 254.935L160.397 257.755C160.196 257.875 160.206 258.077 160.397 258.208L166.047 261.461C166.167 261.522 166.3 261.555 166.435 261.555C166.57 261.555 166.703 261.522 166.823 261.461L171.707 258.641C171.918 258.52 171.898 258.318 171.707 258.188L166.057 254.935C165.94 254.876 165.811 254.846 165.679 254.846C165.548 254.846 165.419 254.876 165.302 254.935H165.282ZM160.075 284.019L164.959 281.199C165.161 281.078 165.151 280.877 164.959 280.756L159.3 277.453C159.18 277.391 159.047 277.359 158.912 277.359C158.777 277.359 158.644 277.391 158.524 277.453L153.64 280.272C153.429 280.393 153.449 280.595 153.64 280.726L159.28 283.989C159.403 284.058 159.542 284.097 159.684 284.102C159.826 284.107 159.967 284.079 160.095 284.019H160.075ZM118.191 279.789L112.552 276.536C112.43 276.474 112.296 276.442 112.159 276.442C112.023 276.442 111.888 276.474 111.766 276.536L106.882 279.356C106.681 279.477 106.691 279.678 106.882 279.809L112.532 283.062C112.652 283.124 112.785 283.156 112.92 283.156C113.054 283.156 113.187 283.124 113.307 283.062L118.191 280.242C118.453 280.121 118.433 279.92 118.212 279.789H118.191ZM128.886 282.931L123.247 279.668C123.125 279.609 122.99 279.578 122.854 279.578C122.718 279.578 122.584 279.609 122.461 279.668L114.949 283.999C114.747 284.119 114.757 284.321 114.949 284.452L120.598 287.715C120.718 287.776 120.851 287.809 120.986 287.809C121.121 287.809 121.254 287.776 121.374 287.715L128.886 283.384C129.199 283.263 129.128 283.062 128.907 282.931H128.886ZM109.531 273.495L103.891 270.232C103.77 270.17 103.635 270.138 103.498 270.138C103.362 270.138 103.227 270.17 103.106 270.232L97.0633 273.706C96.8619 273.827 96.872 274.029 97.0633 274.15L102.713 277.412C102.833 277.474 102.966 277.507 103.101 277.507C103.236 277.507 103.368 277.474 103.488 277.412L109.531 273.938C109.793 273.817 109.772 273.616 109.551 273.495H109.531ZM114.143 270.826C114.263 270.888 114.396 270.92 114.531 270.92C114.666 270.92 114.799 270.888 114.919 270.826L119.803 268.006C120.004 267.886 119.994 267.684 119.803 267.553L114.143 264.361C114.023 264.299 113.89 264.267 113.755 264.267C113.62 264.267 113.488 264.299 113.368 264.361L108.483 267.181C108.282 267.301 108.292 267.503 108.483 267.634L114.143 270.826ZM138.856 286.516L133.227 283.243C133.107 283.181 132.974 283.149 132.839 283.149C132.704 283.149 132.571 283.181 132.451 283.243L123.056 288.661C122.854 288.782 122.864 288.984 123.056 289.114L128.705 292.367C128.825 292.429 128.958 292.461 129.093 292.461C129.228 292.461 129.361 292.429 129.481 292.367L138.866 286.949C139.088 286.838 139.078 286.637 138.856 286.516ZM143.539 293.123L137.89 289.86C137.769 289.8 137.636 289.769 137.502 289.769C137.367 289.769 137.235 289.8 137.114 289.86L131.072 293.324C130.87 293.445 130.88 293.646 131.072 293.777L136.721 297.04C136.842 297.1 136.975 297.131 137.109 297.131C137.244 297.131 137.376 297.1 137.497 297.04L143.539 293.576C143.771 293.445 143.761 293.243 143.539 293.112V293.123ZM167.215 240.191C167.338 240.251 167.472 240.282 167.608 240.282C167.744 240.282 167.878 240.251 168.001 240.191L172.885 237.372C173.086 237.251 173.076 237.049 172.885 236.929L167.235 233.666C167.116 233.604 166.983 233.572 166.848 233.572C166.713 233.572 166.58 233.604 166.46 233.666L161.576 236.485C161.364 236.606 161.384 236.808 161.576 236.939L167.215 240.191ZM152.945 248.429C153.067 248.491 153.201 248.523 153.338 248.523C153.474 248.523 153.609 248.491 153.731 248.429L158.605 245.609C158.816 245.499 158.806 245.297 158.605 245.166L152.955 241.903C152.835 241.844 152.702 241.813 152.568 241.813C152.433 241.813 152.3 241.844 152.18 241.903L147.326 244.723C147.114 244.844 147.124 245.045 147.326 245.176L152.945 248.429ZM121.293 266.697C121.415 266.759 121.549 266.791 121.686 266.791C121.822 266.791 121.957 266.759 122.079 266.697L126.953 263.877C127.164 263.757 127.154 263.555 126.953 263.424L121.303 260.171C121.183 260.11 121.05 260.077 120.916 260.077C120.781 260.077 120.648 260.11 120.528 260.171L115.644 262.991C115.432 263.112 115.452 263.314 115.644 263.444L121.293 266.697ZM160.085 244.31C160.206 244.37 160.339 244.401 160.473 244.401C160.607 244.401 160.74 244.37 160.861 244.31L165.745 241.491C165.956 241.37 165.936 241.168 165.745 241.047L160.105 237.784C159.984 237.723 159.849 237.69 159.713 237.69C159.576 237.69 159.442 237.723 159.32 237.784L154.436 240.604C154.234 240.725 154.244 240.927 154.436 241.057L160.085 244.31ZM145.815 252.548C145.935 252.61 146.068 252.642 146.203 252.642C146.338 252.642 146.471 252.61 146.591 252.548L151.475 249.738C151.676 249.618 151.666 249.416 151.475 249.285L145.825 246.022C145.705 245.96 145.572 245.928 145.438 245.928C145.303 245.928 145.17 245.96 145.05 246.022L140.166 248.842C139.964 248.953 139.974 249.154 140.166 249.285L145.815 252.548ZM147.467 293.636C147.345 293.574 147.211 293.542 147.074 293.542C146.938 293.542 146.803 293.574 146.681 293.636L139.169 297.977C138.967 298.097 138.977 298.299 139.169 298.42L144.818 301.683C144.938 301.744 145.071 301.777 145.206 301.777C145.341 301.777 145.474 301.744 145.594 301.683L153.106 297.342C153.308 297.221 153.298 297.02 153.106 296.889L147.467 293.636ZM135.573 258.46C135.694 258.519 135.827 258.55 135.961 258.55C136.096 258.55 136.228 258.519 136.349 258.46L141.233 255.64C141.434 255.519 141.424 255.317 141.233 255.187L135.583 251.924C135.463 251.864 135.33 251.833 135.196 251.833C135.061 251.833 134.929 251.864 134.808 251.924L129.924 254.743C129.722 254.864 129.732 255.066 129.924 255.187L135.573 258.46ZM128.433 262.578C128.553 262.64 128.686 262.672 128.821 262.672C128.956 262.672 129.089 262.64 129.209 262.578L134.093 259.759C134.304 259.638 134.294 259.436 134.093 259.305L128.453 256.043C128.331 255.983 128.197 255.952 128.061 255.952C127.925 255.952 127.79 255.983 127.668 256.043L122.794 258.862C122.582 258.983 122.592 259.185 122.794 259.305L128.433 262.578ZM279.674 217.261C279.554 217.199 279.421 217.166 279.286 217.166C279.151 217.166 279.018 217.199 278.898 217.261L266.874 224.199C266.673 224.32 266.683 224.522 266.874 224.652L272.524 227.915C272.644 227.975 272.777 228.006 272.911 228.006C273.046 228.006 273.179 227.975 273.299 227.915L285.344 221.057C285.555 220.936 285.545 220.735 285.344 220.614L279.674 217.261ZM263.893 226.324C263.773 226.265 263.64 226.234 263.505 226.234C263.371 226.234 263.238 226.265 263.118 226.324L258.234 229.144C258.032 229.265 258.042 229.466 258.234 229.587L263.883 232.85C264.004 232.909 264.136 232.94 264.271 232.94C264.405 232.94 264.538 232.909 264.659 232.85L269.543 230.03C269.744 229.909 269.734 229.708 269.543 229.577L263.893 226.324ZM167.215 279.809L172.1 276.989C172.311 276.869 172.301 276.667 172.1 276.546L166.46 273.424C166.34 273.363 166.207 273.33 166.072 273.33C165.937 273.33 165.804 273.363 165.685 273.424L160.8 276.244C160.589 276.365 160.599 276.566 160.8 276.697L166.45 279.96C166.575 280.011 166.71 280.031 166.845 280.021C166.979 280.01 167.109 279.969 167.225 279.9L167.215 279.809ZM249.613 234.572C249.493 234.51 249.36 234.478 249.225 234.478C249.09 234.478 248.958 234.51 248.838 234.572L243.953 237.392C243.742 237.513 243.762 237.714 243.953 237.845L249.593 241.098C249.715 241.16 249.849 241.192 249.986 241.192C250.122 241.192 250.257 241.16 250.378 241.098L255.263 238.278C255.464 238.157 255.454 237.956 255.263 237.825L249.613 234.572ZM286.804 213.101C286.682 213.04 286.548 213.007 286.411 213.007C286.275 213.007 286.14 213.04 286.018 213.101L281.134 215.921C280.933 216.042 280.943 216.243 281.134 216.374L286.784 219.627C286.904 219.689 287.037 219.721 287.171 219.721C287.306 219.721 287.439 219.689 287.559 219.627L292.443 216.807C292.655 216.687 292.635 216.485 292.443 216.354L286.804 213.101ZM299.583 212.235L285.867 204.32C285.747 204.258 285.614 204.226 285.48 204.226C285.345 204.226 285.212 204.258 285.092 204.32L280.208 207.14C279.996 207.25 280.016 207.452 280.208 207.583L293.914 215.498C294.035 215.56 294.17 215.592 294.306 215.592C294.443 215.592 294.578 215.56 294.699 215.498L299.583 212.678C299.825 212.658 299.815 212.457 299.594 212.326L299.583 212.235ZM222.946 249.96C222.825 249.9 222.693 249.869 222.558 249.869C222.424 249.869 222.291 249.9 222.171 249.96L216.128 253.424C215.917 253.545 215.937 253.746 216.128 253.877L221.768 257.14C221.89 257.2 222.024 257.231 222.161 257.231C222.297 257.231 222.431 257.2 222.553 257.14L228.596 253.676C228.797 253.555 228.787 253.354 228.596 253.223L222.946 249.96ZM240.983 239.648C240.863 239.586 240.73 239.553 240.595 239.553C240.46 239.553 240.327 239.586 240.207 239.648L232.694 243.988C232.493 244.109 232.503 244.31 232.694 244.441L238.344 247.694C238.464 247.756 238.597 247.788 238.732 247.788C238.867 247.788 239 247.756 239.119 247.694L246.632 243.354C246.834 243.233 246.823 243.031 246.632 242.91L240.983 239.648ZM206.43 259.597C206.31 259.536 206.177 259.503 206.043 259.503C205.908 259.503 205.775 259.536 205.655 259.597L165.463 282.76C165.251 282.881 165.272 283.082 165.463 283.213L171.103 286.476C171.225 286.536 171.359 286.567 171.495 286.567C171.631 286.567 171.766 286.536 171.888 286.476L212.07 263.314C212.281 263.193 212.271 262.991 212.07 262.87L206.43 259.597ZM163.993 284.099C163.871 284.037 163.736 284.005 163.6 284.005C163.463 284.005 163.329 284.037 163.207 284.099L157.165 287.564C156.963 287.684 156.973 287.886 157.165 288.017L162.814 291.27C162.934 291.331 163.067 291.364 163.202 291.364C163.337 291.364 163.47 291.331 163.59 291.27L169.632 287.795C169.844 287.684 169.824 287.483 169.632 287.352L163.993 284.099ZM214.698 254.824C214.577 254.762 214.442 254.73 214.305 254.73C214.169 254.73 214.034 254.762 213.913 254.824L207.87 258.288C207.659 258.409 207.669 258.611 207.87 258.741L213.52 261.994C213.64 262.056 213.773 262.088 213.908 262.088C214.043 262.088 214.176 262.056 214.295 261.994L220.338 258.52C220.549 258.409 220.529 258.208 220.338 258.077L214.698 254.824ZM155.725 288.873C155.605 288.811 155.472 288.779 155.337 288.779C155.202 288.779 155.069 288.811 154.949 288.873L148.907 292.347C148.695 292.468 148.716 292.669 148.907 292.8L154.546 296.053C154.668 296.115 154.803 296.147 154.939 296.147C155.076 296.147 155.21 296.115 155.332 296.053L161.374 292.579C161.586 292.458 161.576 292.256 161.374 292.136L155.725 288.873ZM231.254 245.287C231.133 245.225 230.998 245.193 230.862 245.193C230.725 245.193 230.59 245.225 230.469 245.287L224.426 248.761C224.215 248.882 224.225 249.084 224.426 249.205L230.076 252.467C230.197 252.527 230.329 252.558 230.464 252.558C230.598 252.558 230.731 252.527 230.852 252.467L236.894 248.993C237.105 248.872 237.085 248.671 236.894 248.54L231.254 245.287ZM256.793 230.534C256.671 230.474 256.537 230.443 256.401 230.443C256.265 230.443 256.13 230.474 256.008 230.534L251.134 233.353C250.922 233.474 250.932 233.676 251.134 233.797L256.783 237.059C256.903 237.121 257.036 237.154 257.171 237.154C257.306 237.154 257.439 237.121 257.559 237.059L262.443 234.24C262.655 234.119 262.644 233.917 262.443 233.786L256.793 230.534ZM272.433 219.184L277.307 216.364C277.519 216.243 277.509 216.042 277.307 215.911L271.658 212.658C271.538 212.596 271.405 212.564 271.27 212.564C271.135 212.564 271.002 212.596 270.882 212.658L265.998 215.478C265.786 215.599 265.797 215.8 265.998 215.931L271.638 219.184C271.757 219.243 271.887 219.273 272.02 219.273C272.153 219.273 272.284 219.243 272.403 219.184H272.433ZM240.519 218.973L245.404 216.153C245.615 216.042 245.595 215.841 245.404 215.71L239.764 212.447C239.642 212.387 239.507 212.356 239.371 212.356C239.235 212.356 239.101 212.387 238.979 212.447L234.094 215.267C233.893 215.387 233.903 215.589 234.094 215.72L239.744 218.983C239.861 219.038 239.988 219.066 240.118 219.064C240.247 219.062 240.374 219.031 240.489 218.973H240.519ZM224.406 246.939L238.676 238.701C238.878 238.58 238.868 238.379 238.676 238.248L232.926 234.985C232.805 234.925 232.673 234.894 232.538 234.894C232.404 234.894 232.271 234.925 232.151 234.985L217.87 243.213C217.659 243.333 217.669 243.535 217.87 243.666L223.51 246.919C223.634 246.989 223.773 247.027 223.915 247.031C224.058 247.034 224.199 247.003 224.326 246.939H224.406ZM264.568 223.283C264.688 223.345 264.821 223.377 264.956 223.377C265.091 223.377 265.223 223.345 265.343 223.283L270.228 220.463C270.429 220.342 270.419 220.141 270.228 220.01L264.578 216.757C264.458 216.695 264.325 216.663 264.19 216.663C264.055 216.663 263.922 216.695 263.803 216.757L258.918 219.577C258.717 219.698 258.727 219.899 258.918 220.03L264.568 223.283ZM257.277 218.65L262.161 215.831C262.362 215.71 262.352 215.508 262.161 215.377L256.511 212.114C256.392 212.053 256.259 212.02 256.124 212.02C255.989 212.02 255.856 212.053 255.736 212.114L250.852 214.934C250.65 215.045 250.66 215.246 250.852 215.377L256.501 218.64C256.61 218.689 256.728 218.715 256.848 218.717C256.967 218.719 257.086 218.696 257.196 218.65H257.277ZM217.266 251.058L222.15 248.238C222.352 248.117 222.342 247.916 222.15 247.795L216.501 244.532C216.381 244.47 216.248 244.438 216.113 244.438C215.978 244.438 215.845 244.47 215.725 244.532L210.841 247.352C210.64 247.472 210.65 247.674 210.841 247.805L216.491 251.068C216.601 251.113 216.72 251.136 216.839 251.134C216.959 251.133 217.077 251.107 217.186 251.058H217.266ZM248.787 232.397C248.907 232.459 249.04 232.491 249.175 232.491C249.31 232.491 249.443 232.459 249.563 232.397L254.447 229.577C254.658 229.456 254.648 229.255 254.447 229.134L248.797 225.871C248.677 225.811 248.544 225.781 248.41 225.781C248.275 225.781 248.142 225.811 248.022 225.871L243.138 228.691C242.926 228.812 242.936 229.013 243.138 229.144L248.787 232.397ZM181.586 271.672L186.47 268.852C186.672 268.732 186.662 268.53 186.47 268.399L180.821 265.146C180.701 265.085 180.568 265.052 180.433 265.052C180.298 265.052 180.165 265.085 180.045 265.146L175.161 267.966C174.949 268.087 174.97 268.288 175.161 268.419L180.801 271.672C180.912 271.72 181.033 271.744 181.154 271.742C181.276 271.74 181.395 271.713 181.505 271.662L181.586 271.672ZM188.716 267.553L193.6 264.733C193.812 264.613 193.802 264.411 193.6 264.28L187.961 261.017C187.84 260.958 187.707 260.927 187.573 260.927C187.439 260.927 187.306 260.958 187.185 261.017L182.301 263.837C182.09 263.958 182.1 264.159 182.301 264.28L187.951 267.543C188.056 267.588 188.169 267.611 188.283 267.611C188.397 267.611 188.51 267.588 188.615 267.543L188.716 267.553ZM174.446 275.791L179.33 272.971C179.542 272.85 179.522 272.649 179.33 272.518L173.691 269.265C173.569 269.203 173.434 269.171 173.298 269.171C173.161 269.171 173.027 269.203 172.905 269.265L168.021 272.085C167.819 272.206 167.83 272.407 168.021 272.538L173.671 275.791C173.78 275.839 173.899 275.862 174.019 275.861C174.139 275.859 174.257 275.832 174.365 275.781L174.446 275.791ZM202.916 259.326L207.79 256.516C208.001 256.395 207.991 256.194 207.79 256.063L202.14 252.8C202.02 252.738 201.887 252.706 201.752 252.706C201.618 252.706 201.485 252.738 201.365 252.8L196.48 255.62C196.269 255.73 196.289 255.932 196.48 256.063L202.12 259.326C202.243 259.389 202.379 259.422 202.518 259.422C202.656 259.422 202.793 259.389 202.916 259.326ZM195.776 263.455L200.66 260.635C200.861 260.514 200.851 260.312 200.66 260.182L195.01 256.919C194.89 256.859 194.757 256.828 194.622 256.828C194.488 256.828 194.355 256.859 194.235 256.919L189.35 259.738C189.149 259.859 189.159 260.061 189.35 260.182L195 263.444C195.122 263.501 195.256 263.528 195.39 263.525C195.525 263.521 195.657 263.487 195.776 263.424V263.455ZM210.046 255.207L214.93 252.387C215.141 252.266 215.121 252.065 214.93 251.944L209.29 248.681C209.168 248.621 209.034 248.59 208.898 248.59C208.761 248.59 208.627 248.621 208.505 248.681L203.631 251.501C203.419 251.622 203.429 251.823 203.631 251.954L209.28 255.217C209.403 255.268 209.535 255.292 209.668 255.285C209.8 255.278 209.929 255.241 210.046 255.176V255.207ZM242.695 194.259C242.816 194.321 242.951 194.353 243.087 194.353C243.224 194.353 243.358 194.321 243.48 194.259L248.364 191.44C248.566 191.329 248.556 191.127 248.364 190.996L246.864 190.13C246.742 190.068 246.608 190.036 246.471 190.036C246.335 190.036 246.2 190.068 246.078 190.13L241.194 192.95C240.993 193.071 241.003 193.272 241.194 193.403L242.695 194.259ZM207.588 216.918C207.708 216.98 207.841 217.012 207.976 217.012C208.111 217.012 208.244 216.98 208.364 216.918L213.248 214.098C213.449 213.978 213.439 213.776 213.248 213.645L207.598 210.392C207.479 210.331 207.346 210.298 207.211 210.298C207.076 210.298 206.943 210.331 206.823 210.392L201.939 213.212C201.737 213.333 201.747 213.534 201.939 213.665L207.588 216.918ZM221.848 208.65C221.968 208.712 222.101 208.744 222.236 208.744C222.371 208.744 222.504 208.712 222.624 208.65L227.508 205.83C227.72 205.71 227.699 205.508 227.508 205.377L221.869 202.114C221.746 202.055 221.612 202.024 221.476 202.024C221.34 202.024 221.205 202.055 221.083 202.114L216.199 204.934C215.997 205.055 216.007 205.256 216.199 205.377L221.848 208.65ZM198.857 221.923C198.979 221.983 199.114 222.014 199.25 222.014C199.386 222.014 199.52 221.983 199.643 221.923L204.527 219.104C204.728 218.983 204.718 218.781 204.527 218.65L198.877 215.387C198.757 215.328 198.624 215.297 198.49 215.297C198.355 215.297 198.222 215.328 198.102 215.387L193.218 218.207C193.006 218.318 193.026 218.519 193.218 218.65L198.857 221.923ZM214.708 212.769C214.83 212.831 214.965 212.863 215.101 212.863C215.238 212.863 215.372 212.831 215.494 212.769L220.368 209.949C220.579 209.828 220.569 209.627 220.368 209.496L214.718 206.243C214.598 206.182 214.466 206.149 214.331 206.149C214.196 206.149 214.063 206.182 213.943 206.243L209.059 209.063C208.847 209.184 208.857 209.385 209.059 209.516L214.708 212.769ZM184.587 230.121C184.707 230.183 184.84 230.215 184.975 230.215C185.11 230.215 185.243 230.183 185.363 230.121L190.247 227.301C190.458 227.18 190.448 226.979 190.247 226.848L184.587 223.655C184.467 223.594 184.334 223.561 184.199 223.561C184.064 223.561 183.932 223.594 183.812 223.655L178.927 226.475C178.716 226.596 178.726 226.797 178.927 226.928L184.587 230.121ZM191.737 226.093C191.857 226.154 191.99 226.187 192.125 226.187C192.26 226.187 192.393 226.154 192.513 226.093L197.397 223.273C197.608 223.152 197.588 222.95 197.397 222.82L191.747 219.557C191.627 219.497 191.494 219.466 191.36 219.466C191.225 219.466 191.092 219.497 190.972 219.557L186.088 222.376C185.886 222.497 185.896 222.699 186.088 222.82L191.737 226.093ZM228.424 202.517C228.544 202.579 228.677 202.611 228.812 202.611C228.947 202.611 229.08 202.579 229.2 202.517L234.084 199.697C234.296 199.577 234.286 199.375 234.084 199.244L232.584 198.378C232.464 198.316 232.331 198.284 232.196 198.284C232.061 198.284 231.928 198.316 231.808 198.378L226.924 201.198C226.712 201.319 226.733 201.52 226.924 201.651L228.424 202.517ZM249.835 190.161C249.955 190.22 250.088 190.251 250.222 190.251C250.357 190.251 250.489 190.22 250.61 190.161L255.494 187.341C255.706 187.22 255.696 187.019 255.494 186.898L253.994 186.032C253.874 185.97 253.741 185.938 253.606 185.938C253.471 185.938 253.338 185.97 253.218 186.032L248.334 188.851C248.123 188.972 248.143 189.174 248.334 189.305L249.835 190.161ZM261.698 197.009C261.818 197.068 261.951 197.099 262.086 197.099C262.22 197.099 262.353 197.068 262.473 197.009L267.357 194.189C267.569 194.068 267.549 193.867 267.357 193.746L261.708 190.483C261.588 190.421 261.455 190.389 261.32 190.389C261.185 190.389 261.052 190.421 260.932 190.483L256.048 193.303C255.847 193.423 255.857 193.625 256.048 193.756L261.698 197.009ZM279.533 215.136L284.417 212.316C284.629 212.195 284.608 211.994 284.417 211.863L278.778 208.6C278.655 208.54 278.521 208.509 278.385 208.509C278.249 208.509 278.114 208.54 277.992 208.6L273.108 211.42C272.906 211.54 272.916 211.742 273.108 211.863L278.757 215.126C278.882 215.178 279.018 215.2 279.153 215.19C279.287 215.179 279.418 215.137 279.533 215.065V215.136ZM235.565 198.418C235.685 198.478 235.818 198.509 235.952 198.509C236.087 198.509 236.219 198.478 236.34 198.418L241.224 195.599C241.426 195.478 241.416 195.276 241.224 195.146L239.724 194.279C239.604 194.218 239.471 194.185 239.336 194.185C239.201 194.185 239.068 194.218 238.948 194.279L234.064 197.099C233.853 197.22 233.863 197.421 234.064 197.552L235.565 198.418ZM177.457 234.35C177.579 234.412 177.713 234.445 177.85 234.445C177.986 234.445 178.121 234.412 178.243 234.35L183.127 231.531C183.328 231.41 183.318 231.208 183.127 231.077L177.477 227.825C177.357 227.763 177.224 227.731 177.089 227.731C176.955 227.731 176.822 227.763 176.702 227.825L171.818 230.644C171.606 230.765 171.626 230.967 171.818 231.098L177.457 234.35Z" fill="#455A64"/>
<path d="M209.106 277.125L257.294 249.26C258.109 248.848 259.01 248.633 259.923 248.633C260.836 248.633 261.736 248.848 262.551 249.26L290.185 265.212C291.635 266.058 291.635 267.417 290.185 268.233L241.987 296.109C241.174 296.526 240.273 296.743 239.359 296.743C238.445 296.743 237.544 296.526 236.73 296.109L209.096 280.157C207.656 279.321 207.656 277.961 209.106 277.125Z" fill="#263238"/>
<path d="M219.64 31.9571V39.3187L109.961 102.643C109.206 103.076 108.591 102.723 108.591 101.847L108.672 99.2087C108.018 98.9478 107.344 98.7391 106.658 98.5843L73.8073 117.547C73.4073 117.81 73.0742 118.163 72.8347 118.577C72.5951 118.992 72.4557 119.456 72.4276 119.934V122.714C72.4046 123.191 72.2685 123.657 72.0304 124.072C71.7922 124.487 71.459 124.839 71.058 125.1L67.2715 127.286V119.934C67.2945 119.456 67.4307 118.991 67.6688 118.576C67.9069 118.161 68.2401 117.808 68.6411 117.547L218.27 31.1615C219.026 30.7285 219.64 31.0809 219.64 31.9571Z" fill="#084C3F"/>
<path d="M219.65 142.192C219.624 142.669 219.486 143.133 219.246 143.546C219.006 143.959 218.672 144.309 218.27 144.568L68.6411 230.954C67.8858 231.397 67.2715 231.035 67.2715 230.159V127.287L71.058 125.102C71.8133 124.669 73.0722 117.992 73.8073 117.549L106.658 98.5859C107.413 98.1529 109.206 103.077 109.961 102.614L219.64 39.3203V142.192H219.65Z" fill="#EBEBEB"/>
<path d="M73.8052 155.486L139.526 117.51C140.281 117.067 140.896 117.429 140.896 118.305V182.898C140.873 183.376 140.736 183.842 140.498 184.257C140.26 184.672 139.927 185.024 139.526 185.285L73.8052 223.261C73.0499 223.694 72.4355 223.342 72.4355 222.466V157.873C72.4586 157.395 72.5947 156.929 72.8328 156.514C73.071 156.099 73.4042 155.747 73.8052 155.486Z" fill="#FAFAFA"/>
<path d="M73.8052 138.426L213.112 58.0019C213.867 57.5588 214.482 57.9213 214.482 58.7974V68.4753C214.457 68.9514 214.32 69.415 214.082 69.828C213.844 70.2411 213.512 70.592 213.112 70.852L73.8052 151.286C73.0499 151.719 72.4355 151.367 72.4355 150.49V140.813C72.4586 140.335 72.5947 139.869 72.8328 139.454C73.071 139.039 73.4042 138.687 73.8052 138.426Z" fill="#455A64"/>
<path d="M162.832 94.6968V97.2548C162.832 97.7885 163.205 98 163.658 97.7381L204.152 74.3542V69.8828L163.658 93.2668C163.418 93.4239 163.218 93.6352 163.075 93.8835C162.931 94.1319 162.848 94.4105 162.832 94.6968Z" fill="#FAFAFA"/>
<path d="M208.491 67.3771C208.954 67.1153 209.317 67.3771 209.317 67.8505V70.4185C209.302 70.7052 209.22 70.9844 209.076 71.233C208.932 71.4816 208.732 71.6926 208.491 71.8485L204.15 74.3561V69.8847L208.491 67.3771Z" fill="#084C3F"/>
<path d="M208.182 70.888L207.688 70.7369C207.74 70.5329 207.767 70.3232 207.769 70.1126C207.787 69.9208 207.756 69.7276 207.678 69.5513C207.601 69.375 207.479 69.2216 207.326 69.1055C207.219 69.0416 207.097 69.0078 206.973 69.0078C206.849 69.0078 206.727 69.0416 206.621 69.1055C206.305 69.3372 206.049 69.6407 205.874 69.991C205.699 70.3412 205.61 70.7281 205.614 71.1196C205.597 71.3112 205.629 71.5037 205.707 71.6797C205.784 71.8556 205.904 72.0093 206.057 72.1267C206.152 72.1791 206.26 72.2068 206.369 72.2072C206.508 72.203 206.644 72.1613 206.762 72.0864C207.123 71.8422 207.398 71.4896 207.547 71.0793L208.03 71.2304H208.081C208.119 71.2321 208.156 71.2211 208.187 71.1992C208.218 71.1773 208.241 71.1458 208.252 71.1095C208.268 71.0702 208.27 71.0265 208.257 70.986C208.244 70.9455 208.217 70.9108 208.182 70.888ZM206.621 71.8145C206.569 71.8456 206.51 71.862 206.449 71.862C206.389 71.862 206.33 71.8456 206.278 71.8145C206.18 71.723 206.105 71.6096 206.06 71.4835C206.014 71.3574 205.999 71.2224 206.016 71.0894C206.012 70.7651 206.08 70.444 206.216 70.1495C206.352 69.855 206.552 69.5946 206.802 69.3875C206.869 69.3473 206.945 69.3232 207.023 69.317C207.062 69.3023 207.105 69.3023 207.144 69.317C207.315 69.4076 207.406 69.6795 207.406 70.032C207.428 70.3703 207.367 70.7088 207.231 71.0191C207.094 71.3293 206.885 71.6021 206.621 71.8145Z" fill="#FAFAFA"/>
<path d="M219.64 39.3203V48.2731L67.2715 136.24V127.287L70.1013 125.656C70.8566 125.213 71.1084 124.548 71.4709 123.269L72.4276 119.936C72.4832 119.465 72.6342 119.01 72.8714 118.6C73.1086 118.19 73.4271 117.832 73.8073 117.549L106.658 98.5859C106.804 98.4556 106.98 98.3628 107.17 98.3156C107.36 98.2683 107.559 98.2679 107.749 98.3145C107.939 98.3611 108.115 98.4532 108.262 98.5829C108.409 98.7127 108.522 98.8761 108.591 99.0592L109.77 101.194C110.203 101.939 110.414 102.383 111.169 101.939L219.64 39.3203Z" fill="#E6E6E6"/>
<path d="M213.195 36.582C214.202 36.0281 214.928 36.4712 214.928 37.589C214.898 38.1937 214.726 38.7829 214.425 39.3081C214.124 39.8333 213.702 40.2795 213.195 40.6102C212.188 41.1641 211.453 40.7109 211.453 39.6031C211.481 38.997 211.654 38.4063 211.957 37.8807C212.26 37.355 212.685 36.9097 213.195 36.582Z" fill="#455A64"/>
<path d="M206.953 40.1757C207.91 39.6218 208.685 40.0649 208.685 41.1828C208.656 41.7875 208.484 42.3766 208.182 42.9018C207.881 43.427 207.46 43.8733 206.953 44.204C205.946 44.7578 205.221 44.3047 205.221 43.1969C205.249 42.592 205.421 42.0026 205.722 41.4772C206.023 40.9519 206.445 40.5058 206.953 40.1757Z" fill="#455A64"/>
<path d="M200.697 43.8241C201.654 43.2703 202.429 43.7134 202.429 44.8312C202.4 45.4359 202.228 46.0251 201.927 46.5503C201.626 47.0755 201.204 47.5217 200.697 47.8524C199.69 48.4063 198.965 47.9531 198.965 46.8453C198.993 46.2404 199.165 45.651 199.466 45.1257C199.767 44.6003 200.189 44.1542 200.697 43.8241Z" fill="#455A64"/>
<path opacity="0.5" d="M73.5838 127.937L71.4186 129.176L72.2444 127.595C72.2761 127.536 72.2927 127.47 72.2927 127.404C72.2927 127.337 72.2761 127.271 72.2444 127.212C72.1739 127.132 72.0631 127.212 71.9926 127.323L70.8244 129.579V129.66C70.8195 129.7 70.8195 129.74 70.8244 129.78C70.8189 129.81 70.8189 129.841 70.8244 129.871V129.921L71.9926 130.828C72.0113 130.837 72.032 130.842 72.053 130.842C72.0741 130.842 72.0948 130.837 72.1135 130.828C72.1689 130.781 72.2136 130.722 72.2444 130.656C72.2781 130.6 72.2959 130.536 72.2959 130.47C72.2959 130.405 72.2781 130.34 72.2444 130.284L71.4186 129.66L73.5838 128.411C73.6379 128.365 73.6813 128.308 73.7108 128.243C73.7404 128.179 73.7555 128.109 73.755 128.038C73.8053 127.948 73.6744 127.877 73.5838 127.937Z" fill="#455A64"/>
<path opacity="0.5" d="M75.388 126.893L77.5532 125.644L76.7274 125.01C76.6569 124.959 76.6468 124.788 76.7274 124.647C76.808 124.506 76.8986 124.426 76.9691 124.476L78.1473 125.382C78.153 125.416 78.153 125.45 78.1473 125.483C78.1522 125.523 78.1522 125.564 78.1473 125.604C78.15 125.631 78.15 125.658 78.1473 125.684L76.9691 127.94C76.9432 127.992 76.9052 128.037 76.8583 128.071C76.8393 128.085 76.8164 128.093 76.7928 128.093C76.7693 128.093 76.7464 128.085 76.7274 128.071C76.6957 128.012 76.679 127.947 76.679 127.88C76.679 127.813 76.6957 127.747 76.7274 127.689L77.5532 126.097L75.388 127.407C75.2873 127.467 75.2168 127.407 75.2168 127.245C75.2171 127.178 75.2327 127.111 75.2623 127.05C75.292 126.989 75.3349 126.935 75.388 126.893Z" fill="#455A64"/>
<path opacity="0.5" d="M82.4789 120.669C82.4789 120.538 82.348 120.558 82.2976 120.669L81.9955 121.394C81.492 121.334 80.8777 121.827 80.4648 122.703C79.931 123.841 79.931 125.181 80.4648 125.724C80.5988 125.851 80.7732 125.927 80.9573 125.938C81.1414 125.949 81.3236 125.895 81.4718 125.785C81.9167 125.5 82.2672 125.09 82.4789 124.607C82.5494 124.455 82.5494 124.284 82.4789 124.224C82.4084 124.163 82.2976 124.224 82.2372 124.365C81.8344 125.211 81.2301 125.583 80.787 125.201C80.5845 124.865 80.4775 124.48 80.4775 124.088C80.4775 123.696 80.5845 123.311 80.787 122.975C81.069 122.371 81.4819 121.968 81.7941 121.968L81.5725 122.512C81.5121 122.653 81.5725 122.794 81.6531 122.733L82.5393 122.159C82.5731 122.129 82.5998 122.092 82.6172 122.05C82.6346 122.008 82.6424 121.963 82.64 121.918L82.4789 120.669Z" fill="#455A64"/>
<path opacity="0.5" d="M105.7 102.674L106.496 101.002C106.541 100.924 106.565 100.835 106.565 100.745C106.565 100.655 106.541 100.567 106.496 100.488C106.395 100.398 106.244 100.488 106.154 100.68L105.368 102.352L104.582 101.586C104.482 101.506 104.341 101.586 104.24 101.788C104.195 101.866 104.171 101.954 104.171 102.044C104.171 102.135 104.195 102.223 104.24 102.301L105.026 103.067L104.24 104.728C104.194 104.808 104.17 104.898 104.17 104.99C104.17 105.082 104.194 105.172 104.24 105.252C104.265 105.269 104.295 105.278 104.326 105.278C104.356 105.278 104.386 105.269 104.411 105.252C104.485 105.197 104.544 105.124 104.582 105.04L105.368 103.379L106.154 104.134C106.165 104.145 106.178 104.154 106.193 104.16C106.207 104.166 106.223 104.17 106.239 104.17C106.255 104.17 106.271 104.166 106.285 104.16C106.3 104.154 106.313 104.145 106.325 104.134C106.401 104.086 106.461 104.016 106.496 103.933C106.542 103.853 106.566 103.763 106.566 103.671C106.566 103.579 106.542 103.489 106.496 103.409L105.7 102.674Z" fill="#455A64"/>
<path d="M85.3477 122.724V119.935C85.3707 119.457 85.5068 118.991 85.745 118.576C85.9831 118.161 86.3163 117.809 86.7173 117.548L210.525 46.1068C211.281 45.6738 211.895 46.0263 211.895 46.9024V49.692C211.872 50.1698 211.736 50.6354 211.498 51.0503C211.26 51.4653 210.926 51.8177 210.525 52.0787L86.7173 123.52C85.962 123.953 85.3477 123.6 85.3477 122.724Z" fill="#FAFAFA"/>
<path d="M209.763 47.5872L210.126 48.3526C210.142 48.3649 210.161 48.3715 210.181 48.3715C210.201 48.3715 210.221 48.3649 210.236 48.3526L211.052 48.0404C211.173 48.0404 211.233 48.1713 211.133 48.3425L210.549 49.4402C210.53 49.5095 210.53 49.5824 210.549 49.6517L210.69 50.6588C210.69 50.8099 210.569 51.0213 210.458 51.0113L209.733 50.9206C209.704 50.9192 209.676 50.9261 209.651 50.9404C209.626 50.9546 209.605 50.9757 209.592 51.0012L208.867 51.9277C208.746 52.0687 208.615 52.0183 208.635 51.8371L208.776 50.689C208.789 50.6642 208.796 50.6365 208.796 50.6084C208.796 50.5803 208.789 50.5527 208.776 50.5279L208.182 50.1049C208.091 50.0344 208.182 49.7927 208.273 49.692L209.078 49.0777C209.138 49.028 209.18 48.9611 209.199 48.8864L209.562 47.7081C209.501 47.557 209.662 47.4664 209.763 47.5872Z" stroke="#E0E0E0" stroke-width="0.75" stroke-miterlimit="10"/>
<g opacity="0.5">
<path d="M213.517 45.777C213.433 45.775 213.352 45.7518 213.279 45.7095C213.207 45.6672 213.147 45.6073 213.104 45.5353C213.042 45.4242 213.027 45.2933 213.06 45.1708C213.094 45.0482 213.175 44.944 213.285 44.8807L217.153 42.645C217.26 42.6012 217.38 42.5977 217.49 42.6351C217.6 42.6724 217.693 42.7483 217.752 42.8486C217.811 42.9489 217.831 43.067 217.81 43.1813C217.789 43.2956 217.727 43.3983 217.636 43.4708L213.789 45.7065C213.709 45.7603 213.613 45.7851 213.517 45.777Z" fill="#455A64"/>
<path d="M213.516 48.0113C213.433 48.0094 213.351 47.9861 213.279 47.9439C213.207 47.9016 213.146 47.8416 213.104 47.7696C213.073 47.7154 213.054 47.6557 213.046 47.594C213.039 47.5323 213.044 47.4697 213.061 47.4098C213.077 47.35 213.106 47.294 213.144 47.2452C213.183 47.1963 213.231 47.1555 213.285 47.1251L217.152 44.8794C217.26 44.8356 217.379 44.832 217.49 44.8694C217.6 44.9068 217.693 44.9826 217.751 45.0829C217.81 45.1833 217.831 45.3014 217.809 45.4157C217.788 45.5299 217.726 45.6327 217.635 45.7052L213.788 47.9509C213.705 47.9962 213.611 48.0172 213.516 48.0113Z" fill="#455A64"/>
<path d="M213.517 50.2481C213.412 50.2481 213.31 50.2134 213.227 50.1494C213.144 50.0854 213.085 49.9958 213.058 49.8944C213.032 49.7931 213.04 49.6859 213.081 49.5895C213.122 49.4931 213.194 49.413 213.285 49.3618L217.152 47.1262C217.206 47.0923 217.266 47.0698 217.328 47.0601C217.391 47.0504 217.455 47.0537 217.516 47.0698C217.578 47.0858 217.635 47.1143 217.685 47.1535C217.735 47.1926 217.776 47.2416 217.807 47.2974C217.869 47.4072 217.887 47.5372 217.855 47.6596C217.823 47.782 217.744 47.8869 217.635 47.952L213.788 50.1876C213.705 50.2329 213.611 50.2539 213.517 50.2481Z" fill="#455A64"/>
</g>
<path d="M103.911 170.706C109.44 165.077 110.86 162.519 110.86 160.263C110.86 158.007 109.913 156.587 106.972 158.249C104.896 159.41 103.34 161.318 102.622 163.586C102.438 164.063 102.149 164.492 101.775 164.841C101.402 165.189 100.955 165.449 100.467 165.6L96.6299 166.446C95.7135 166.658 95.0992 166.074 95.3208 165.157C97.0026 158.299 101.242 151.965 107.194 148.531C114.344 144.402 118.513 147.524 118.513 154.493C118.513 161.19 114.989 166.779 111.464 170.797C110.807 171.639 110.424 172.661 110.366 173.727V176.003C110.338 176.514 110.19 177.01 109.935 177.452C109.679 177.895 109.323 178.271 108.896 178.551L104.183 181.27C103.367 181.744 102.713 181.361 102.713 180.424V173.556C102.784 172.499 103.206 171.497 103.911 170.706Z" fill="#455A64"/>
<path d="M102.623 190.714C102.613 189.316 102.967 187.939 103.65 186.719C104.334 185.499 105.323 184.477 106.521 183.756C109.048 182.285 110.368 183.584 110.368 186.243C110.388 187.642 110.044 189.022 109.37 190.247C108.695 191.473 107.713 192.501 106.521 193.232C103.932 194.722 102.623 193.373 102.623 190.714Z" fill="#455A64"/>
<path d="M258.777 8.44927L255.081 6.29416C254.723 6.12185 254.325 6.05049 253.929 6.08775C253.533 6.12502 253.155 6.2695 252.835 6.50564L160.82 59.6181C159.901 60.2173 159.135 61.0246 158.586 61.9746C158.037 62.9246 157.719 63.9907 157.658 65.0864V197.424C157.623 197.809 157.686 198.196 157.843 198.548C158 198.901 158.245 199.208 158.554 199.439L162.28 201.594L252.795 146.105C253.713 145.505 254.477 144.697 255.025 143.747C255.572 142.797 255.888 141.731 255.947 140.636L258.777 8.44927Z" fill="#084C3F"/>
<path opacity="0.15" d="M162.219 201.593L158.543 199.468C158.233 199.238 157.988 198.932 157.832 198.579C157.677 198.225 157.616 197.838 157.657 197.454V65.0855C157.698 63.9248 158.046 62.7958 158.664 61.8125L162.43 63.9575C161.809 64.943 161.461 66.0762 161.423 67.2406V199.589C161.379 199.962 161.428 200.342 161.567 200.691C161.706 201.041 161.93 201.351 162.219 201.593Z" fill="black"/>
<path d="M164.518 61.7806L256.533 8.65805C258.275 7.65099 259.685 8.46671 259.685 10.4808V142.819C259.626 143.914 259.31 144.98 258.762 145.93C258.215 146.88 257.451 147.687 256.533 148.287L164.518 201.41C162.775 202.417 161.355 201.601 161.355 199.587V67.2388C161.418 66.1448 161.736 65.0808 162.286 64.1326C162.835 63.1845 163.6 62.3788 164.518 61.7806Z" fill="#084C3F"/>
<path opacity="0.4" d="M255.079 6.29407L258.685 8.37869C258.335 8.25273 257.961 8.2126 257.593 8.26167C257.225 8.31075 256.874 8.44759 256.57 8.66066L164.554 61.7832C163.679 62.3237 162.949 63.0706 162.43 63.9584L158.693 61.8134C159.213 60.9197 159.942 60.1661 160.818 59.618L252.783 6.5559C253.103 6.32034 253.482 6.17702 253.878 6.14151C254.274 6.106 254.672 6.17966 255.029 6.35449L255.079 6.29407Z" fill="white"/>
<path d="M174.959 66.9772L248.646 24.4288C249.965 23.6635 251.033 24.2878 251.033 25.8085V139.012C250.988 139.841 250.748 140.648 250.334 141.367C249.919 142.086 249.341 142.697 248.646 143.151L174.959 185.619C173.64 186.374 172.562 185.76 172.562 184.24V71.1364C172.602 70.3024 172.84 69.49 173.257 68.7666C173.674 68.0432 174.258 67.4298 174.959 66.9772Z" fill="white"/>
<path d="M233.348 91.907L234.094 91.2927C232.864 89.9587 231.265 89.0194 229.501 88.5938L229.26 89.5202C230.824 89.9068 232.243 90.7353 233.348 91.907Z" fill="#37474F"/>
<path d="M234.99 95.6614L233.469 94.171C233.109 93.7959 232.908 93.2961 232.908 92.7762C232.908 92.2563 233.109 91.7565 233.469 91.3814C233.844 91.0214 234.344 90.8203 234.864 90.8203C235.384 90.8203 235.884 91.0214 236.259 91.3814L237.769 92.8719C238.13 93.2469 238.331 93.7467 238.331 94.2666C238.331 94.7866 238.13 95.2863 237.769 95.6614C237.395 96.0185 236.897 96.2177 236.38 96.2177C235.862 96.2177 235.365 96.0185 234.99 95.6614Z" fill="#084C3F"/>
<mask id="mask0_23153_162179" style="mask-type:luminance" maskUnits="userSpaceOnUse" x="172" y="24" width="80" height="162">
<path d="M174.957 66.9772L248.644 24.4288C249.963 23.6635 251.031 24.2878 251.031 25.8085V139.012C250.986 139.841 250.746 140.648 250.332 141.367C249.917 142.086 249.339 142.697 248.644 143.151L174.957 185.619C173.638 186.374 172.561 185.76 172.561 184.24V71.1364C172.6 70.3024 172.839 69.49 173.255 68.7666C173.672 68.0432 174.256 67.4298 174.957 66.9772Z" fill="white"/>
</mask>
<g mask="url(#mask0_23153_162179)">
<path d="M248.392 130.077L251.796 135.898C251.796 135.898 274.092 124.075 275.351 122.524C276.61 120.974 276.529 117.842 276.72 116.15C277.033 113.33 275.995 110.903 275.844 109.886C275.593 108.113 278.14 108.013 279.399 110.48C280.326 112.273 280.406 114.327 281.192 114.347C282.317 113.557 283.365 112.664 284.324 111.678C285.703 110.168 288.201 107.65 290.094 107.993C290.416 108.067 290.708 108.237 290.932 108.479C291.157 108.722 291.303 109.026 291.353 109.352C291.407 110.393 291.646 111.416 292.058 112.373C292.365 112.737 292.617 113.144 292.803 113.582C292.863 114.232 292.863 114.886 292.803 115.535C292.884 116.472 293.81 116.865 293.911 117.781C293.882 118.487 293.805 119.19 293.679 119.886C293.679 120.339 293.82 120.732 293.82 121.185C293.724 122.115 293.32 122.987 292.672 123.662C290.786 125.86 288.551 127.731 286.056 129.201C284.042 130.531 281.343 131.709 279.006 132.958C276.67 134.206 250.426 154.368 246.932 151.991C245.502 150.984 241.735 146.18 237.777 140.803" fill="#FFA8A7"/>
<path d="M236.952 141.498C232.929 135.897 229.23 130.07 225.875 124.046C221.846 112.767 226.408 105.254 226.408 105.254C226.408 105.254 232.199 103.461 237.023 111.075C239.148 114.428 244.707 123.854 248.352 130.078" fill="#FFA8A7"/>
<path d="M216.279 105.43C216.279 105.43 222.664 102.842 226.803 103.114C230.942 103.386 234.004 104.554 237.045 109.438C241.073 115.954 247.81 127.213 247.81 127.213C244.963 133.067 240.419 137.927 234.769 141.161L222.402 122.51L216.279 105.43Z" fill="#455A64"/>
<path d="M196.016 116.703C193.887 118.418 192.316 120.728 191.505 123.339C190.56 126.495 190.099 129.774 190.135 133.068V154.266L189.863 194.388C203.318 198.97 220.418 194.931 234.768 178.98C234.768 178.98 233.973 127.619 233.973 119.231C233.973 118.848 233.973 118.465 233.973 118.072C233.449 106.179 223.187 100.66 213.076 106.38L204.576 111.174L196.047 116.703H196.016Z" fill="#F0F0F0"/>
<path d="M200.698 67.9012C200.698 67.9012 194.102 67.3876 192.642 73.5106C191.302 78.9688 201.252 100.52 201.03 100.157C200.809 99.7949 200.698 67.9012 200.698 67.9012Z" fill="#263238"/>
<path d="M223.992 55.5767C223.992 55.5767 221.545 48.9905 209.662 53.6734C203.619 56.0601 201.354 63.5426 201.354 63.5426L223.992 55.5767Z" fill="#084C3F"/>
<path opacity="0.4" d="M223.992 55.5767C223.992 55.5767 221.545 48.9905 209.662 53.6734C203.619 56.0601 201.354 63.5426 201.354 63.5426L223.992 55.5767Z" fill="black"/>
<path d="M205.232 73.0713C205.232 82.1349 211.577 87.7543 219.412 85.6495C227.247 83.5447 233.591 74.5718 233.591 65.5083C233.591 56.4447 226.834 56.4447 218.999 58.5595C211.164 60.6744 205.232 64.0279 205.232 73.0713Z" fill="#263238"/>
<path d="M197.83 87.3906C197.83 87.3906 199.915 98.1662 200.751 99.8077C201.002 100.283 201.369 100.688 201.818 100.985C202.267 101.283 202.782 101.463 203.319 101.51L203.178 93.574L197.83 87.3906Z" fill="#263238"/>
<path d="M200.446 70.4531C199.62 70.587 198.833 70.8974 198.137 71.3632C197.442 71.8289 196.856 72.4391 196.418 73.1521C194.706 75.6395 195.662 81.7423 197.807 87.3919L201.735 86.8582L200.446 70.4531Z" fill="#263238"/>
<path d="M202.947 86.5443C202.152 87.2996 201.034 85.8494 200.057 84.933C199.08 84.0166 195.908 83.2613 194.317 87.5413C192.726 91.8213 195.717 96.2927 198.224 96.5344C202.534 96.9372 203.179 93.5736 203.179 93.5736L203.32 111.973C210.561 119.646 223.23 110.603 217.53 107.209V101.741C219.508 101.57 221.458 101.165 223.34 100.532C226.513 99.1124 228.507 95.6985 229.473 91.4688C231.014 84.6913 231.598 79.3841 230.289 67.2288C228.859 53.8953 215.032 57.4603 207.57 64.8824C200.107 72.3044 202.947 86.5443 202.947 86.5443Z" fill="#FFA8A7"/>
<path d="M202.944 88.128C202.541 88.2488 201.031 85.7614 200.054 84.986C198.694 83.9185 200.447 70.5044 200.447 70.5044C198.876 67.0401 201.776 61.8135 204.807 59.6886C206.985 58.2903 209.443 57.3862 212.008 57.04C214.183 56.6506 216.352 56.3518 218.513 56.1437C221.157 56.0054 223.788 55.6892 226.389 55.1971C228.425 54.7141 230.398 53.9977 232.27 53.0621C233.921 52.3068 235.291 54.0087 233.831 56.8386C232.524 59.4122 230.708 61.6939 228.493 63.5456C222.068 68.3694 214.606 69.5275 208.11 70.2426C206.65 70.4037 206.328 72.1258 205.542 76.8086C204.848 80.8771 204.274 87.6949 202.944 88.128Z" fill="#263238"/>
<path d="M195.504 70.5597L190.73 68.8779C191.405 67.1156 193.027 66.0682 194.336 66.5315C195.645 66.9947 196.179 68.7974 195.504 70.5597Z" fill="#263238"/>
<path d="M217.516 101.743C217.516 101.743 210.466 101.994 207.969 101.138C206.476 100.618 205.247 99.5333 204.545 98.1172C204.886 99.6059 205.549 101.002 206.489 102.206C208.301 104.391 217.516 103.888 217.516 103.888V101.743Z" fill="#F28F8F"/>
<path d="M215.806 81.0768C215.8 81.5152 215.663 81.9417 215.411 82.3009C215.16 82.6601 214.806 82.9354 214.396 83.0909C213.621 83.2923 212.987 82.6981 212.987 81.7616C212.98 81.3129 213.112 80.873 213.364 80.5019C213.616 80.1307 213.977 79.8462 214.396 79.687C215.182 79.5158 215.806 80.0697 215.806 81.0768Z" fill="#263238"/>
<path d="M213.541 74.8838L210.52 77.6331C210.308 77.1188 210.262 76.5512 210.388 76.0095C210.515 75.4678 210.807 74.9792 211.225 74.6119C211.374 74.4358 211.565 74.2993 211.779 74.2147C211.994 74.13 212.226 74.0998 212.456 74.1267C212.685 74.1537 212.904 74.2369 213.093 74.3689C213.283 74.501 213.437 74.6779 213.541 74.8838Z" fill="#263238"/>
<path d="M216.884 92.0859L220.116 92.6197C220.024 93.1335 219.753 93.5981 219.351 93.9316C218.95 94.2651 218.443 94.446 217.921 94.4425C217.025 94.3015 216.561 93.2441 216.884 92.0859Z" fill="#F28F8F"/>
<path d="M228.828 72.2219L226.059 70.4998C226.633 69.4927 227.7 68.959 228.465 69.4323C228.854 69.7744 229.104 70.2458 229.171 70.759C229.238 71.2721 229.116 71.7919 228.828 72.2219Z" fill="#263238"/>
<path d="M227.618 77.4167C227.625 77.8683 227.493 78.3112 227.239 78.6845C226.984 79.0578 226.621 79.3432 226.198 79.5013C225.412 79.7027 224.778 79.1085 224.778 78.172C224.77 77.7217 224.903 77.2804 225.158 76.9088C225.412 76.5372 225.775 76.2537 226.198 76.0974C226.983 75.886 227.618 76.4801 227.618 77.4167Z" fill="#263238"/>
<path d="M220.609 77.9844L220.77 87.8737L225.856 85.2151L220.609 77.9844Z" fill="#F28F8F"/>
<path d="M174.707 176.75C178.675 135.964 185.09 121.473 195.14 117.414C198.514 120.053 199.058 132.087 195.241 141.12C195.241 141.12 186.842 168.17 186.177 177.375C185.753 185.983 186.073 194.612 187.134 203.165C187.188 203.679 187.349 204.176 187.608 204.624C187.866 205.072 188.216 205.46 188.635 205.764C190.78 207.234 190.588 209.288 192.099 211.272C193.287 212.823 194.415 213.125 194.113 213.689C193.862 214.253 193.425 214.715 192.876 214.997C192.326 215.279 191.697 215.365 191.092 215.24C190.129 214.906 189.237 214.394 188.463 213.729C189.031 215.901 189.928 217.972 191.122 219.873C193.841 224.273 193.64 227.184 186.973 228C182.794 228.513 179.823 225.854 177.98 215.371C177.456 212.35 176.167 206.912 175.674 203.004C174.244 191.856 174.062 183.316 174.707 176.75Z" fill="#FFA8A7"/>
<path d="M198.021 115.477C198.021 115.477 190.71 117.833 186.944 123.684C183.177 129.535 179.411 139.002 176.551 155.91C176.551 155.91 180.982 162.295 193.077 157.37C193.077 157.37 198.807 135.859 199.482 127.31C200.176 117.984 198.021 115.477 198.021 115.477Z" fill="#455A64"/>
<path d="M204.817 55.9C197.979 60.18 195.028 65.3765 194.857 71.6404C194.797 75.9433 194.969 80.2463 195.371 84.5308C194.083 85.4582 193.021 86.6643 192.264 88.0593C191.507 89.4542 191.075 91.002 191 92.5873C191 96.827 194.434 99.3447 198.674 98.2067C200.801 97.577 202.682 96.3035 204.056 94.5614C205.43 92.8193 206.231 90.6942 206.348 88.4785C206.435 87.103 206.005 85.7447 205.142 84.6698C204.279 83.5949 203.047 82.8809 201.685 82.6677C200.829 76.6848 200.846 70.6093 201.735 64.6312C203.256 55.5677 220.195 50.341 223.991 55.5677C222.853 51.056 214.324 49.908 204.817 55.9Z" fill="#084C3F"/>
<path opacity="0.15" d="M204.817 55.9C197.979 60.18 195.028 65.3765 194.857 71.6404C194.797 75.9433 194.969 80.2463 195.371 84.5308C194.083 85.4582 193.021 86.6643 192.264 88.0593C191.507 89.4542 191.075 91.002 191 92.5873C191 96.827 194.434 99.3447 198.674 98.2067C200.801 97.577 202.682 96.3035 204.056 94.5614C205.43 92.8193 206.231 90.6942 206.348 88.4785C206.435 87.103 206.005 85.7447 205.142 84.6698C204.279 83.5949 203.047 82.8809 201.685 82.6677C200.829 76.6848 200.846 70.6093 201.735 64.6312C203.256 55.5677 220.195 50.341 223.991 55.5677C222.853 51.056 214.324 49.908 204.817 55.9Z" fill="black"/>
<path d="M202.351 89.547C202.373 89.0962 202.282 88.6472 202.088 88.24C201.893 87.8329 201.601 87.4803 201.236 87.2139C200.872 86.9475 200.448 86.7756 200.001 86.7135C199.554 86.6514 199.098 86.7011 198.675 86.8581C197.656 87.1604 196.755 87.7709 196.097 88.6059C195.439 89.4408 195.056 90.4591 195 91.5208C194.984 91.9694 195.08 92.4149 195.278 92.8177C195.476 93.2206 195.77 93.5683 196.135 93.8303C196.499 94.0922 196.923 94.2602 197.368 94.3193C197.813 94.3785 198.265 94.327 198.685 94.1694C199.697 93.869 200.592 93.2641 201.248 92.437C201.904 91.6099 202.289 90.6007 202.351 89.547Z" fill="#084C3F"/>
</g>
<path d="M144.364 154.254C144.199 154.416 144.047 154.591 143.911 154.778C143.669 155.076 143.488 155.418 143.377 155.785C143.305 155.997 143.305 156.228 143.377 156.44C143.404 156.59 143.478 156.727 143.589 156.832C143.642 156.894 143.703 156.948 143.77 156.994L140.074 154.859C139.926 154.776 139.804 154.654 139.722 154.506C139.663 154.366 139.633 154.215 139.633 154.063C139.633 153.911 139.663 153.76 139.722 153.62C139.802 153.37 139.918 153.133 140.064 152.915C140.255 152.628 140.471 152.359 140.709 152.109L144.364 154.254Z" fill="#084C3F"/>
<path d="M144.394 154.21C142.471 156.224 143.146 157.583 145.905 157.231L161.353 155.448V136.586L144.394 154.21Z" fill="#084C3F"/>
<path d="M144.394 154.212C143.176 155.481 143.004 156.488 143.729 156.981L140.033 154.846C139.258 154.363 139.429 153.336 140.658 152.046L157.627 134.453L161.363 136.618L144.394 154.212Z" fill="#084C3F"/>
<path opacity="0.15" d="M144.364 154.254C144.199 154.416 144.047 154.591 143.911 154.778C143.677 155.081 143.497 155.422 143.377 155.785C143.318 155.999 143.318 156.226 143.377 156.44C143.407 156.589 143.48 156.726 143.589 156.832C143.642 156.894 143.703 156.948 143.77 156.994L140.074 154.859C139.926 154.776 139.804 154.654 139.722 154.506C139.663 154.366 139.633 154.215 139.633 154.063C139.633 153.911 139.663 153.76 139.722 153.62C139.807 153.372 139.922 153.135 140.064 152.915C140.255 152.628 140.471 152.359 140.709 152.109L144.364 154.254Z" fill="black"/>
<path opacity="0.4" d="M161.362 136.588L144.393 154.212L140.646 152.046L157.626 134.453L161.362 136.588Z" fill="white"/>
<path d="M248.391 130.085L251.795 135.906C251.795 135.906 274.092 124.083 275.35 122.532C276.609 120.981 276.529 117.849 276.72 116.157C277.032 113.338 275.995 110.911 275.844 109.893C275.542 107.728 278.654 108.232 279.641 109.088C280.289 109.778 280.829 110.562 281.242 111.414C281.725 112.22 282.632 114.848 283.558 115.009C284.283 115.14 285.723 114.113 286.317 113.67C288.764 111.817 290.275 109.249 292.158 106.902C292.494 106.398 292.96 105.994 293.508 105.734C293.989 105.639 294.485 105.653 294.96 105.777C295.434 105.901 295.874 106.131 296.247 106.449C297.041 106.893 297.728 107.505 298.261 108.242C298.586 108.794 298.818 109.396 298.946 110.024C299.953 114.294 297.758 117.9 295.169 121.102C292.572 124.252 289.492 126.971 286.045 129.158C284.031 130.488 281.332 131.666 278.996 132.915C276.66 134.164 251.624 155.141 248.119 152.764C243.93 149.505 240.176 145.721 236.951 141.505" fill="#FFA8A7"/>
<path d="M412.869 93.6953C420.926 93.6953 425.155 96.1123 428.499 103.554C431.701 110.674 441.641 131.329 441.147 136.334C440.654 141.339 420.241 162.649 420.241 162.649L414.41 155.599L427.059 134.35L414.601 116.324L412.869 93.6953Z" fill="#FFA8A7"/>
<path d="M393.312 312.859C393.312 312.859 394.218 315.609 394.711 318.026C395.104 319.939 395.658 323.131 394.983 324.572C394.309 326.012 391.7 326.938 387.652 326.908C385.023 326.908 380.935 328.67 378.135 330.241C375.336 331.812 369.223 332.497 366.161 332.135C362.556 331.712 358.82 329.617 358.236 328.106C357.652 326.596 357.158 324.571 366.927 321.44C367.007 321.44 378.739 317.593 382.848 313.051L393.312 312.859Z" fill="#263238"/>
<path d="M393.311 313.13L391.448 312.898L382.848 313.07C378.739 317.611 367.006 321.438 366.926 321.458L365.365 321.982C363.663 323.352 365.103 325.678 369.131 326.01C373.16 326.343 385.718 322.143 388.497 320.804C389.955 320.127 391.186 319.042 392.04 317.68C392.895 316.318 393.336 314.738 393.311 313.13Z" fill="#FFA8A7"/>
<path d="M393.311 309.438C393.311 309.438 393.311 311.784 393.311 313.133C393.311 314.483 391.74 316.477 387.632 316.326C384.751 316.225 382.737 315.45 382.848 313.073V309.679L393.311 309.438Z" fill="#FFA8A7"/>
<path d="M420.885 297.421C421.62 297.723 421.771 299.153 421.801 301.983C421.801 304.118 422.194 307.864 419.666 308.549C417.139 309.234 413.483 308.74 411.932 306.686C409.999 304.118 408.7 301.862 405.89 298.71C403.483 295.981 400.855 293.423 399.968 289.646C399.153 286.242 399.968 284.802 402.274 283.876C404.581 282.949 406.706 283.715 409.928 286.404C410.827 287.013 411.789 287.522 412.798 287.924C414.943 288.599 420.14 297.119 420.885 297.421Z" fill="#263238"/>
<path d="M420.955 294.802L420.854 298.276C420.854 298.276 418.538 302.818 412.083 298.276C411.942 297.934 411.357 291.227 411.357 291.227L420.955 294.802Z" fill="#FFA8A7"/>
<path d="M412.828 287.948C411.819 287.546 410.857 287.037 409.958 286.428C407.36 285.592 401.901 286.558 404.349 290.345C406.399 293.458 409.024 296.151 412.083 298.281C415.003 299.721 416.02 297.938 416.02 297.938L415.013 289.791C414.433 289.021 413.686 288.391 412.828 287.948Z" fill="#FFA8A7"/>
<path d="M425.67 246.786C424.381 235.396 421.914 228.82 421.914 228.82C421.914 228.82 424.099 213.492 425.811 198.799C429.84 164.287 427.161 163.734 422.287 151.729C422.287 151.729 378.046 146.039 376.193 164.438C373.887 187.349 374.935 231.781 375.317 239.908C375.7 248.035 376.324 251.71 378.782 268.73C380.614 281.691 382.357 310.019 382.357 310.019C388.157 313.363 393.736 309.435 393.736 309.435C393.736 309.435 399.285 274.601 399.154 265.225C399.041 258.285 398.026 251.389 396.133 244.711C396.133 244.711 399.9 207.37 400.856 201.408C400.856 201.408 401.924 213.321 402.317 221.448C402.709 229.575 404.905 237.38 406.848 252.516C408.53 265.608 411.33 293.03 411.33 293.03C417.131 296.374 421.179 294.863 421.179 294.863C421.179 294.863 426.949 258.166 425.67 246.786Z" fill="#084C3F"/>
<path d="M394.148 86.2439L395.77 103.445L410.876 102.488L409.667 83.4141L394.148 86.2439Z" fill="#FFA8A7"/>
<path d="M424.45 100.997C422.909 96.4446 419.787 93.7759 412.869 93.6953L410.321 93.7759C409.837 96.3137 402.395 98.3681 395.044 95.79C394.037 96.0619 391.166 96.5856 389.565 96.7971L386.041 97.3107C380.693 99.0629 378.326 108.388 377.813 123.102C377.299 137.815 375.094 169.366 375.094 169.366C375.094 169.366 386.604 175.529 404.772 173.142C421.036 171.007 427.36 161.39 426.796 162.619C424.89 154.457 422.072 146.536 418.397 139.003C426.957 117.945 426.726 107.754 424.45 100.997Z" fill="#455A64"/>
<path d="M395.77 173.663C398.78 173.695 401.788 173.513 404.773 173.119C419.597 171.175 426.163 163.048 426.777 162.515C424.872 154.381 422.062 146.487 418.398 138.98C422.729 128.345 424.803 120.49 425.508 114.438C424.803 118.848 418.287 135.928 409.758 141.054C409.758 141.054 414.571 141.799 418.69 147.459C422.809 153.119 419.425 172.444 395.77 173.663Z" fill="#37474F"/>
<path d="M389.566 96.7734C382.466 97.6697 376.353 98.9386 373.765 105.907C370.351 115.398 365.113 124.129 358.347 131.608C353.936 136.331 335.829 145.374 331.75 144.7C327.672 144.025 323.996 138.214 321.901 139.423C319.806 140.631 324.399 144.78 324.147 145.807C323.895 146.834 316.544 144.7 313.069 142.232C309.595 139.765 307.53 146.845 312.062 152.142C316.594 157.439 325.073 157.852 334.298 156.009C343.523 154.166 360.381 148.687 367.078 142.444C375.859 134.236 377.461 129.775 381.267 122.705C393.392 113.299 389.566 96.7734 389.566 96.7734Z" fill="#FFA8A7"/>
<path d="M386.243 64.8848C386.243 64.8848 380.543 58.0871 385.015 51.4607C390.292 43.6459 399.577 41.0074 411.057 44.4112C416.737 46.093 425.086 53.9481 425.509 64.9654C425.831 73.4549 402.024 79.0642 402.407 84.885L386.243 64.8848Z" fill="#263238"/>
<path d="M382.978 67.3672C382.978 67.3672 379.635 72.4025 380.068 72.9664C380.853 73.4809 381.722 73.8525 382.636 74.0641L382.978 67.3672Z" fill="#F28F8F"/>
<path d="M393.161 51.3471C389.908 53.0289 384.288 56.1306 382.838 68.1146C381.358 80.4109 384.097 84.6808 385.769 86.2921C386.907 87.3797 392.748 87.7725 395.839 86.8259C399.656 85.6476 407.924 81.569 411.781 75.2245C416.333 67.7521 417.27 57.8023 412.013 53.8949C404.571 48.4064 395.91 49.9271 393.161 51.3471Z" fill="#FFA8A7"/>
<path d="M392.203 51.8692C392.203 51.8692 389.363 63.0879 392.757 70.1776C392.757 70.1776 394.771 65.7969 398.507 67.0557C402.243 68.3145 401.951 73.37 398.97 75.9481C398.21 76.6899 397.254 77.201 396.215 77.422C395.176 77.643 394.096 77.565 393.099 77.1968C393.099 77.1968 393.2 83.4104 398.507 85.8676C398.507 85.8676 409.585 91.1748 419.655 80.4597C428.719 70.7315 427.581 53.269 414.177 48.848C400.773 44.427 392.203 51.8692 392.203 51.8692Z" fill="#263238"/>
<path d="M437.299 99.2052C435.186 99.2052 433.093 98.788 431.142 97.9775C429.19 97.167 427.418 95.9791 425.926 94.4821C424.435 92.9851 423.254 91.2083 422.451 89.2538C421.648 87.2992 421.238 85.2053 421.246 83.0922V62.5078C425.501 62.5078 429.581 64.198 432.59 67.2066C435.599 70.2151 437.289 74.2956 437.289 78.5503L437.299 99.2052Z" fill="#263238"/>
<path d="M383.565 46.8357C378.58 51.871 378.298 66.5842 392.76 70.1895L402.236 44.2173C396.718 40.6221 388.017 42.2838 383.565 46.8357Z" fill="#263238"/>
<path d="M391.306 74.1836C390.944 74.0632 390.609 73.8715 390.322 73.6197C390.035 73.3679 389.801 73.0612 389.634 72.7176C389.468 72.374 389.372 72.0006 389.352 71.6192C389.332 71.2379 389.388 70.8564 389.518 70.4973C389.648 70.1382 389.848 69.8087 390.107 69.5282C390.366 69.2478 390.679 69.0221 391.027 68.8645C391.375 68.7068 391.751 68.6204 392.132 68.6104C392.514 68.6003 392.894 68.6668 393.25 68.8059L391.306 74.1836Z" fill="#263238"/>
<path opacity="0.1" d="M400.873 201.433L403.28 186.035C408.128 185.454 412.793 183.833 416.956 181.281C416.956 181.281 413.935 185.823 405.979 187.716L403.522 205.551L402.515 224.232L400.873 201.433Z" fill="black"/>
</svg>
