<svg width="16" height="16" viewBox="0 0 16 16" fill="none" xmlns="http://www.w3.org/2000/svg">
<path fill-rule="evenodd" clip-rule="evenodd" d="M8.00016 0.835938C4.04212 0.835938 0.833496 4.04456 0.833496 8.0026C0.833496 11.9606 4.04212 15.1693 8.00016 15.1693C11.9582 15.1693 15.1668 11.9606 15.1668 8.0026C15.1668 4.04456 11.9582 0.835938 8.00016 0.835938ZM7.99459 4.16927C6.79733 4.16927 5.82555 5.13865 5.82555 6.33594C5.82555 7.53323 6.79733 8.5026 7.99459 8.5026C9.19185 8.5026 10.1636 7.53323 10.1636 6.33594C10.1636 5.13865 9.19185 4.16927 7.99459 4.16927ZM11.3608 10.9894C9.58248 9.06939 6.38331 9.16841 4.64271 10.9864L4.5177 11.1114C4.42086 11.2082 4.36798 11.3405 4.37141 11.4775C4.37485 11.6144 4.43431 11.7439 4.5359 11.8358C5.45196 12.6642 6.66769 13.1693 8.00024 13.1693C9.33278 13.1693 10.5485 12.6642 11.4646 11.8358C11.5662 11.7439 11.6256 11.6144 11.6291 11.4775C11.6325 11.3405 11.5796 11.2082 11.4828 11.1114L11.3608 10.9894Z" fill="#084C3F"/>
</svg>
