<svg width="49" height="52" viewBox="0 0 49 52" fill="none" xmlns="http://www.w3.org/2000/svg">
<rect x="0.263184" width="48.259" height="51.0978" rx="24.1295" fill="#96BAB3" fill-opacity="0.25"/>
<path d="M31.3122 18.663C33.1751 20.5259 34.3284 22.9655 34.3284 25.6268C34.3284 31.0382 29.8041 35.4738 24.3484 35.4738C22.7072 35.4738 21.1104 35.0303 19.6467 34.2762L14.457 35.6069L15.8321 30.506C14.9893 29.0422 14.5014 27.3567 14.5014 25.5825C14.5014 20.1711 18.937 15.7355 24.3484 15.7355C27.0097 15.7355 29.4936 16.8001 31.3122 18.663ZM24.3484 33.7883C28.8726 33.7883 32.6429 30.1068 32.6429 25.6268C32.6429 23.4091 31.7114 21.3687 30.159 19.8162C28.6065 18.2638 26.5661 17.421 24.3927 17.421C19.8684 17.421 16.1869 21.1026 16.1869 25.5825C16.1869 27.1349 16.6305 28.643 17.4289 29.9737L17.6506 30.2842L16.8079 33.3004L19.9128 32.4576L20.1789 32.635C21.4652 33.3891 22.8846 33.7883 24.3484 33.7883ZM28.8726 27.6672C29.0944 27.8003 29.2718 27.8446 29.3162 27.9777C29.4049 28.0664 29.4049 28.5543 29.1831 29.1309C28.9614 29.7076 27.9855 30.2398 27.542 30.2842C26.7436 30.4173 26.1226 30.3729 24.5701 29.6632C22.0862 28.5987 20.4894 26.1148 20.3563 25.9817C20.2233 25.8043 19.3805 24.651 19.3805 23.4091C19.3805 22.2115 20.0015 21.6348 20.2233 21.3687C20.4451 21.1026 20.7112 21.0582 20.8886 21.0582C21.0217 21.0582 21.1991 21.0582 21.3322 21.0582C21.5096 21.0582 21.687 21.0138 21.9088 21.5018C22.0862 21.9897 22.6185 23.1873 22.6628 23.3203C22.7072 23.4534 22.7516 23.5865 22.6628 23.7639C22.2193 24.6954 21.687 24.651 21.9531 25.0946C22.929 26.7357 23.8604 27.3124 25.3242 28.0221C25.546 28.1551 25.679 28.1108 25.8565 27.9777C25.9895 27.8003 26.4774 27.2237 26.6105 27.0019C26.7879 26.7357 26.9653 26.7801 27.1871 26.8688C27.4089 26.9575 28.6065 27.5341 28.8726 27.6672Z" fill="white"/>
</svg>
