<svg width="16" height="16" viewBox="0 0 16 16" fill="none" xmlns="http://www.w3.org/2000/svg">
<path d="M3.02364 4.5C2.6955 4.49996 2.39653 4.49993 2.15723 4.53491C1.89412 4.57338 1.61386 4.66537 1.40501 4.92037C1.19845 5.17259 1.15994 5.46477 1.16757 5.73044C1.17462 5.97588 1.22501 6.27626 1.2811 6.61062L2.09415 11.4607C2.22259 12.227 2.32648 12.8467 2.46943 13.3313C2.61796 13.8348 2.82457 14.2521 3.19639 14.5742C3.56972 14.8977 4.00909 15.0381 4.5223 15.1038C5.01329 15.1667 5.62691 15.1667 6.38101 15.1667H7.93571C8.40064 15.1667 8.6331 15.1667 8.68551 15.0468C8.73791 14.9269 8.57204 14.7476 8.24029 14.3891C7.46022 13.5462 6.99777 12.6135 6.86924 11.667C6.69221 10.3634 7.18346 9.03182 8.31723 8.34495C9.35413 7.71677 10.3704 7.73319 11.1682 8.03665C11.2534 8.06905 11.296 8.08525 11.3323 8.08541C11.3686 8.08557 11.4119 8.06952 11.4986 8.03742C12.1691 7.78906 13.0285 7.76284 13.8956 8.12276C14.1553 8.23057 14.2852 8.28448 14.3696 8.23774C14.454 8.191 14.4754 8.06339 14.5182 7.80816L14.7189 6.6106C14.775 6.27625 14.8254 5.97587 14.8325 5.73044C14.8401 5.46477 14.8016 5.17259 14.595 4.92037C14.3862 4.66537 14.1059 4.57338 13.8428 4.53491C13.6035 4.49993 13.3045 4.49996 12.9764 4.5H3.02364Z" fill="#084C3F"/>
<path fill-rule="evenodd" clip-rule="evenodd" d="M8 2.16927C6.52724 2.16927 5.33333 3.36318 5.33333 4.83594V5.16927C5.33333 5.53746 5.03486 5.83594 4.66667 5.83594C4.29848 5.83594 4 5.53746 4 5.16927V4.83594C4 2.6268 5.79086 0.835938 8 0.835938C10.2091 0.835938 12 2.6268 12 4.83594V5.16927C12 5.53746 11.7015 5.83594 11.3333 5.83594C10.9651 5.83594 10.6667 5.53746 10.6667 5.16927V4.83594C10.6667 3.36318 9.47276 2.16927 8 2.16927Z" fill="#084C3F"/>
<path d="M8.83527 9.20306C9.83757 8.59584 10.7596 8.83485 11.3207 9.25099L11.3331 9.26022L11.3456 9.25099C11.9066 8.83485 12.8287 8.59584 13.831 9.20306C14.5602 9.64486 14.9405 10.5466 14.8062 11.5353C14.6708 12.5325 14.0242 13.6157 12.7263 14.5645C12.3091 14.8702 11.9007 15.1695 11.3331 15.1695C10.7656 15.1695 10.3571 14.8702 9.9399 14.5645C8.64208 13.6157 7.99544 12.5325 7.86003 11.5353C7.72577 10.5466 8.10602 9.64486 8.83527 9.20306Z" fill="#084C3F"/>
</svg>
