<svg width="16" height="18" viewBox="0 0 16 18" fill="none" xmlns="http://www.w3.org/2000/svg">
<path d="M6.33333 17.3333C4.38917 17.3333 3.48345 17.3333 2.80674 16.7294C2.13003 16.1254 1.95914 15.1053 1.61738 13.0651L0.648219 7.27964C0.490577 6.33858 0.411756 5.86806 0.654471 5.55903C0.897186 5.25 1.34557 5.25 2.24232 5.25H13.7577C14.6544 5.25 15.1028 5.25 15.3455 5.55903C15.5882 5.86806 15.5094 6.33858 15.3518 7.27964L15.1334 8.58333" stroke="#1C1C1C" stroke-linecap="round"/>
<path d="M8.95154 11.035C9.95716 10.4257 10.8349 10.6712 11.3621 11.0623C11.5783 11.2227 11.6864 11.3028 11.75 11.3028C11.8136 11.3028 11.9217 11.2227 12.1379 11.0623C12.6651 10.6712 13.5428 10.4257 14.5485 11.035C15.8682 11.8345 16.1669 14.4722 13.1227 16.6976C12.5429 17.1215 12.2529 17.3334 11.75 17.3334C11.2471 17.3334 10.9571 17.1215 10.3773 16.6976C7.33314 14.4722 7.63178 11.8345 8.95154 11.035Z" stroke="#1C1C1C" stroke-linecap="round"/>
<path d="M3.8335 5.25008V4.83341C3.8335 2.53223 5.69898 0.666748 8.00016 0.666748C10.3013 0.666748 12.1668 2.53223 12.1668 4.83341V5.25008" stroke="#1C1C1C"/>
<path d="M1.75 13.5835H5.91667" stroke="#1C1C1C" stroke-linecap="round"/>
</svg>
