<svg width="43" height="42" viewBox="0 0 43 42" fill="none" xmlns="http://www.w3.org/2000/svg">
<rect x="0.526245" y="0.0859375" width="41.6842" height="41.6842" rx="20.8421" fill="#96BAB3" fill-opacity="0.25"/>
<path d="M28.7139 16.9535C28.7139 17.1345 28.7139 17.2792 28.7139 17.4601C28.7139 22.4897 24.9146 28.243 17.931 28.243C15.76 28.243 13.7698 27.6279 12.1053 26.5424C12.3948 26.5785 12.6843 26.6147 13.01 26.6147C14.783 26.6147 16.4113 25.9996 17.7139 24.9864C16.0494 24.9502 14.6382 23.8647 14.1678 22.345C14.4211 22.3812 14.6382 22.4174 14.8915 22.4174C15.2172 22.4174 15.579 22.345 15.8685 22.2726C14.1317 21.9108 12.829 20.391 12.829 18.5456V18.5095C13.3356 18.7989 13.9507 18.9437 14.5659 18.9799C13.5165 18.2924 12.8652 17.1345 12.8652 15.8318C12.8652 15.1081 13.0461 14.4568 13.3718 13.9141C15.2534 16.1937 18.0757 17.7134 21.2238 17.8943C21.1514 17.6049 21.1152 17.3154 21.1152 17.0259C21.1152 14.9272 22.8159 13.2266 24.9146 13.2266C26.0001 13.2266 26.9771 13.6608 27.7007 14.4206C28.533 14.2397 29.3652 13.9141 30.0889 13.4799C29.7994 14.3845 29.2205 15.1081 28.4244 15.5785C29.1843 15.5062 29.9442 15.2891 30.5955 14.9996C30.0889 15.7595 29.4376 16.4108 28.7139 16.9535Z" fill="white"/>
</svg>
